<svg xmlns="http://www.w3.org/2000/svg" preserveAspectRatio="none" viewBox="0 0 54 8.73"><defs><style>.cls-1{fill:#613c25;}</style></defs><title>11_d</title><g id="Layer_2" data-name="Layer 2"><g id="Layer_1-2" data-name="Layer 1"><path class="cls-1" d="M54,2.5V0H0V2.5H.44A24.3,24.3,0,0,1,2.77,5,23.63,23.63,0,0,1,.07,8L0,7.91v.75c.6-.16.69-.46,1.12-.84.07-.06.9-1,.94-1A10.54,10.54,0,0,1,4.16,5,8.09,8.09,0,0,1,6.88,3.78a7.44,7.44,0,0,1,1.68-.2c.66,0,1,.27,1.51.27v0l.58.28c.13-.08.29-.15.29-.38S9.86,2.88,9.16,2.5h3.38c-.55.56-1.14,1.18-1.2,1.28A8.59,8.59,0,0,1,9,5.7,8.59,8.59,0,0,1,6,6.76a6.77,6.77,0,0,1-1.56,0C4,6.68,3,6.24,2.87,6.24a.35.35,0,0,0-.29.32v.16c.21.07.69.47,1,.62s.65.34,1,.51a7.8,7.8,0,0,0,2.27.77c1.79.07,3.79.08,5.5.11h1.09c.06-.1.1-.1.1-.22V8.29C13.54,8.15,11,5.35,11,5.1c0,0,1.7-1.89,2.38-2.6h.43l2.57,2.78c-.29.35-2.73,3-2.73,3.07v.11a.76.76,0,0,0,0,.27h.85l2.32-.11h.43l3.08-.05.06-.17.09.15c.86-.08,3.93-1.43,3.93-2.05,0-.21-.12-.26-.24-.33a7,7,0,0,1-2.32.6h-.19A8.68,8.68,0,0,1,17,4.92c-.62-.54-1.13-1.13-1.71-1.73a4.31,4.31,0,0,1-.42-.43L14.6,2.5h3a3.75,3.75,0,0,0-1.58,1.25l.31.35a4.36,4.36,0,0,1,2.06-.62,9,9,0,0,1,5,1.73c.73.55,1.12,1.12,1.78,1.71A22.54,22.54,0,0,0,27,8.62h.14V8.19c0-.46-2.24-2.34-2.51-2.93.19-.33,1.41-1.89,2.06-2.76h.68a3.15,3.15,0,0,0,.35.37c.26.25.45.56.73.79s1.44,1.55,1.44,1.6c0,.27-2.7,2.84-2.7,3v.22c0,.12,0,.16.14.16H28l4.6-.08a6.78,6.78,0,0,0,3-.55c.57-.27,2-.92,2.26-1.53-.06-.12-.08-.27-.24-.27h-.05a6.09,6.09,0,0,0-1,.35,4.41,4.41,0,0,1-1.17.19h-.09a8.44,8.44,0,0,1-4.75-1.72A34.58,34.58,0,0,1,28.12,2.5h3l-.08,0c-.25.1-1.46.88-1.46,1.11v.11c0,.15.11.21.19.27a5.44,5.44,0,0,1,2.47-.54c.34,0,.77.11,1.19.18a9.57,9.57,0,0,0,1.13.25c.37.28,1.25.52,1.75.87A7,7,0,0,1,37.78,6c.34.39,2.39,2.51,2.68,2.68.63-.16.7-.46,1.15-.85l.94-1A10.21,10.21,0,0,1,44.64,5a8.09,8.09,0,0,1,2.72-1.17A7.51,7.51,0,0,1,49,3.58c.66,0,1.05.27,1.52.27l0,0,.59.28c.12-.08.28-.15.28-.38s-1.07-.92-1.76-1.3H53c-.54.56-1.14,1.18-1.2,1.28a8.59,8.59,0,0,1-2.3,1.92,8.52,8.52,0,0,1-3.06,1.06,6.68,6.68,0,0,1-1.55,0c-.44-.06-1.42-.5-1.56-.5a.34.34,0,0,0-.28.32v.16c.21.07.69.47,1,.62s.64.34,1,.51a7.74,7.74,0,0,0,2.26.77c1.79.07,3.8.08,5.5.11h1.09L54,8.6V8.26c-.2-.35-2.54-2.92-2.54-3.16,0,0,1.71-1.89,2.39-2.6ZM40.56,8a29.24,29.24,0,0,1-2.47-2.71A23,23,0,0,1,40.16,2.5h.77A24.3,24.3,0,0,1,43.26,5,23.63,23.63,0,0,1,40.56,8Z"/></g></g></svg>