<svg xmlns="http://www.w3.org/2000/svg" preserveAspectRatio="none" viewBox="0 0 8.73 54"><defs><style>.cls-1{fill:#613c25;}</style></defs><title>11_l</title><g id="Layer_2" data-name="Layer 2"><g id="Layer_1-2" data-name="Layer 1"><path class="cls-1" d="M6.23,54h2.5V0H6.23V.44A23.14,23.14,0,0,1,3.68,2.77,24.26,24.26,0,0,1,.76.07S.78,0,.81,0H.06C.23.6.52.69.91,1.12c0,.07,1,.9,1,.94a10.87,10.87,0,0,1,1.83,2.1A8.09,8.09,0,0,1,5,6.88a8.07,8.07,0,0,1,.19,1.68c0,.66-.27,1-.27,1.51h0l-.28.58c.08.13.16.29.39.29s.91-1.07,1.3-1.77v3.38C5.67,12,5,11.4,5,11.34A8.63,8.63,0,0,1,3,9,8.39,8.39,0,0,1,2,6,6.25,6.25,0,0,1,2,4.42c.06-.44.5-1.41.5-1.55a.36.36,0,0,0-.32-.29H2c-.06.21-.46.69-.61,1s-.35.65-.52,1A8.09,8.09,0,0,0,.11,6.85C0,8.64,0,10.64,0,12.35v1.09c.1.06.1.1.22.1H.43c.15,0,2.95-2.56,3.2-2.56,0,0,1.89,1.7,2.6,2.38v.43L3.45,16.36c-.35-.29-3-2.73-3.07-2.73H.27a.72.72,0,0,0-.27,0v.85l.1,2.32v0l0,.38.06,3.08.17.06-.15.09c.07.86,1.43,3.93,2.05,3.93.2,0,.25-.12.32-.24A7.24,7.24,0,0,1,2,21.88v-.19A8.75,8.75,0,0,1,3.8,17c.55-.62,1.14-1.13,1.74-1.71A4.31,4.31,0,0,1,6,14.83l.26-.23v3A3.83,3.83,0,0,0,5,16.05l-.35.31a4.36,4.36,0,0,1,.62,2.06,9,9,0,0,1-1.73,5c-.56.73-1.12,1.12-1.71,1.78A20.82,20.82,0,0,0,.11,27v.14H.54c.45,0,2.33-2.24,2.92-2.51.33.19,1.89,1.41,2.77,2.06v.68a2.52,2.52,0,0,0-.37.35c-.26.26-.56.45-.79.73s-1.55,1.44-1.61,1.44c-.26,0-2.84-2.7-3-2.7H.22c-.13,0-.17,0-.17.14V28l.08,4.6a6.93,6.93,0,0,0,.56,3c.27.57.91,2,1.53,2.26.12-.06.27-.08.27-.24v-.05c0-.29-.28-.68-.36-1A4.85,4.85,0,0,1,2,35.48v-.09a8.36,8.36,0,0,1,1.72-4.75,32.66,32.66,0,0,1,2.56-2.52v3l0-.08c-.09-.25-.87-1.46-1.1-1.46H5c-.15,0-.21.11-.27.19a5.71,5.71,0,0,1,.54,2.47c0,.34-.11.77-.18,1.19a7.92,7.92,0,0,0-.25,1.13c-.28.37-.52,1.25-.88,1.75a6.91,6.91,0,0,1-1.2,1.45c-.39.34-2.51,2.39-2.69,2.68.17.63.47.7.86,1.15,0,.06,1,.89,1,.94a10.52,10.52,0,0,1,1.83,2.09A8.09,8.09,0,0,1,5,47.36,8.15,8.15,0,0,1,5.14,49c0,.66-.27,1.05-.27,1.52l0,0-.28.59c.08.12.16.28.39.28s.91-1.07,1.3-1.76V53C5.67,52.48,5,51.88,5,51.82A8.63,8.63,0,0,1,3,49.52a8.33,8.33,0,0,1-1-3.06,6.17,6.17,0,0,1,0-1.55c.06-.44.5-1.42.5-1.56s-.19-.28-.32-.28H2c-.06.21-.46.69-.61,1s-.35.64-.52,1a8,8,0,0,0-.76,2.26C0,49.12,0,51.13,0,52.83v1.09L.13,54H.47c.35-.2,2.92-2.54,3.16-2.54,0,0,1.89,1.71,2.6,2.39ZM.76,40.56a30.44,30.44,0,0,1,2.7-2.47,22.12,22.12,0,0,1,2.77,2.07v.77a23.14,23.14,0,0,1-2.55,2.33A24.26,24.26,0,0,1,.76,40.56Z"/></g></g></svg>