<svg xmlns="http://www.w3.org/2000/svg" preserveAspectRatio="none" viewBox="0 0 20.64 21.72"><defs><style>.cls-1{fill:#613c25;}</style></defs><title>11_l_d</title><g id="Layer_2" data-name="Layer 2"><g id="Layer_1-2" data-name="Layer 1"><path class="cls-1" d="M.21,0h0ZM.11,3.67l0,.41L.15,7.42l.17.07-.16.1c.08.93,1.41,4.26,2,4.26.2,0,.25-.13.32-.26a8.11,8.11,0,0,1-.59-2.52v-.2A10.1,10.1,0,0,1,3.75,3.73c.53-.67,1.11-1.23,1.7-1.85a4.58,4.58,0,0,1,.43-.47A6.09,6.09,0,0,0,6.32,1L6.54.73V5.54c0-.08,0-.16-.07-.25A5.62,5.62,0,0,0,4.9,2.74l-.35.34a5.05,5.05,0,0,1,.62,2.23,10.39,10.39,0,0,1-1.71,5.46A24.2,24.2,0,0,1,1.78,12.7,25,25,0,0,0,.11,14.58v.15H.55C1,14.69,2.83,12.3,3.41,12c.39.25,2.49,2.07,3.13,2.55v.17H.3c-.15,0-.19.17-.19.33v6.38a.82.82,0,0,0,.05.28l6.18,0,.16,0a.81.81,0,0,0,.43-.11v-.14c-.08,0-.12,0-.12-.15V21.1a.72.72,0,0,1,.12-.18V19.84l0-1.15v-1.6c0-.26.08-1.4-.21-1.48l.13-.19v-.11H7c.11.14.23.26.33.37.26.25.46.55.74.79S9.52,18,9.52,18.07c0,.23-2.07,2.23-2.59,2.85v.55h.79l4.59-.08a6.76,6.76,0,0,0,3-.55c.58-.27,2-.92,2.26-1.54-.05-.11-.08-.27-.23-.27h-.05c-.3,0-.68.28-1,.36a4.77,4.77,0,0,1-1.16.18h-.1a8.39,8.39,0,0,1-4.75-1.72A34.3,34.3,0,0,1,7.8,15.31h3l-.08,0c-.24.1-1.45.88-1.45,1.11v.1c0,.16.11.21.19.27a5.53,5.53,0,0,1,2.46-.53c.35,0,.78.1,1.2.18a8.75,8.75,0,0,0,1.13.25c.36.27,1.25.52,1.74.87a6.77,6.77,0,0,1,1.46,1.21c.34.39,2.39,2.51,2.68,2.68a1.37,1.37,0,0,0,.5-.24v-.83a2.4,2.4,0,0,1-.41.37,30.48,30.48,0,0,1-2.46-2.71,21.22,21.22,0,0,1,2.07-2.76h.76l0,0V12.81H9V0H6.3a.58.58,0,0,0,.1.11l-.05,0-2.95,3c-.35-.31-3-3-3-3H.27A.72.72,0,0,0,0,.17v.92L.1,3.62Z"/></g></g></svg>