<svg xmlns="http://www.w3.org/2000/svg" preserveAspectRatio="none" viewBox="0 0 21.72 20.64"><defs><style>.cls-1{fill:#613c25;}</style></defs><title>11_l_u</title><g id="Layer_2" data-name="Layer 2"><g id="Layer_1-2" data-name="Layer 1"><path class="cls-1" d="M21.7.21a.05.05,0,0,1,0,0V.45l0,0ZM18.05.11l-.41,0L14.29.15l-.06.17-.1-.16c-.93.08-4.27,1.41-4.27,2,0,.2.13.25.26.32a8.18,8.18,0,0,1,2.52-.59h.21A10,10,0,0,1,18,3.75c.68.53,1.23,1.11,1.86,1.7a5.9,5.9,0,0,1,.46.43,4.67,4.67,0,0,0,.45.44l.24.22H16.18l.24-.07A5.66,5.66,0,0,0,19,4.9l-.34-.35a5.06,5.06,0,0,1-2.24.62A10.36,10.36,0,0,1,11,3.46,24.2,24.2,0,0,1,9,1.78,25,25,0,0,0,7.14.11H7V.3s0,0,0,0V.55C7,1,9.41,2.83,9.71,3.41,9.46,3.8,7.63,5.9,7.15,6.54H7L7,2.13,7,.55V.3C7,.15,6.82.11,6.66.11H.28A.78.78,0,0,0,0,.16L0,6.34,0,6.5a.81.81,0,0,0,.11.43H.24c0-.08,0-.12.16-.12H.61s.09.05.18.12H1.87L3,7H4.62c.26,0,1.41.08,1.49-.21l.19.13h.11V7A4.27,4.27,0,0,0,6,7.34c-.25.26-.56.46-.79.74S3.7,9.52,3.65,9.52c-.24,0-2.23-2.07-2.86-2.59H.24v.79l.08,4.59a6.76,6.76,0,0,0,.55,3c.27.58.92,2,1.53,2.26.12-.05.27-.08.27-.23v-.05a5.45,5.45,0,0,0-.36-1,4.77,4.77,0,0,1-.18-1.16v-.1a8.39,8.39,0,0,1,1.72-4.75A34.92,34.92,0,0,1,6.41,7.8v3l0-.08c-.1-.24-.88-1.45-1.11-1.45H5.16c-.15,0-.21.11-.27.19a5.39,5.39,0,0,1,.54,2.46c0,.35-.11.78-.18,1.2A7.35,7.35,0,0,0,5,14.26c-.28.36-.52,1.25-.88,1.74a6.44,6.44,0,0,1-1.2,1.46C2.53,17.8.41,19.85.24,20.14a1.23,1.23,0,0,0,.24.5h.83a2.4,2.4,0,0,1-.37-.41,29.15,29.15,0,0,1,2.71-2.46,21.93,21.93,0,0,1,2.76,2.07v.76l0,0H8.91V9H21.72V6.3l-.12.1,0-.05-3-2.95c.32-.35,3-3,3-3V.27A.72.72,0,0,0,21.55,0h-.93L18.1.1Z"/></g></g></svg>