<svg xmlns="http://www.w3.org/2000/svg" preserveAspectRatio="none" viewBox="0 0 21.72 20.64"><defs><style>.cls-1{fill:#613c25;}</style></defs><title>11_r_d</title><g id="Layer_2" data-name="Layer 2"><g id="Layer_1-2" data-name="Layer 1"><path class="cls-1" d="M0,20.43s0,0,0,.05v-.05Zm3.66.11h.41l3.34-.05.07-.17.1.15c.93-.08,4.26-1.41,4.26-2,0-.2-.13-.25-.26-.32a8.41,8.41,0,0,1-2.52.58h-.2A10.09,10.09,0,0,1,3.73,16.9c-.67-.54-1.23-1.12-1.85-1.71a3.55,3.55,0,0,1-.47-.42A4.7,4.7,0,0,0,1,14.32c-.07-.05-.15-.13-.24-.21H5.54l-.25.06a5.71,5.71,0,0,0-2.55,1.57l.34.35a5.05,5.05,0,0,1,2.23-.62,10.39,10.39,0,0,1,5.46,1.71c.79.54,1.22,1.1,1.93,1.68.26.21,1.73,1.68,1.88,1.68h.15V20.1c0-.47-2.43-2.29-2.72-2.87.25-.38,2.07-2.49,2.55-3.12h.17v6h0v.24c0,.14.17.19.33.19h.27l.44,0,.28,0,.6,0,.61,0h1.48l.83,0,.93,0,.78,0,.16,0a.82.82,0,0,0,.28-.06l0-6.18,0-.16a.84.84,0,0,0-.11-.43h-.14c0,.08,0,.12-.15.12H21.1a.5.5,0,0,1-.18-.12H19.84l-1.15,0h-1.6c-.26,0-1.4-.07-1.48.22l-.19-.14h-.11v-.1c.14-.11.26-.23.37-.33.25-.26.55-.46.79-.73s1.55-1.44,1.6-1.44c.23,0,2.23,2.06,2.85,2.58h.55s0,0,0,0v-.76l-.08-4.6a6.78,6.78,0,0,0-.55-3c-.27-.57-.92-2-1.54-2.26-.11.06-.27.08-.27.24v.05c0,.29.28.68.36,1a4.78,4.78,0,0,1,.18,1.17v.09a8.39,8.39,0,0,1-1.72,4.75,34,34,0,0,1-2.55,2.52v-3l0,.08c.1.25.88,1.45,1.11,1.45h.1c.16,0,.21-.1.27-.19a5.5,5.5,0,0,1-.53-2.46c0-.34.1-.77.18-1.19a9.57,9.57,0,0,0,.25-1.13c.27-.37.52-1.25.87-1.75A7.28,7.28,0,0,1,18.8,3.18c.39-.33,2.51-2.39,2.68-2.67A1.43,1.43,0,0,0,21.24,0h-.83a2.4,2.4,0,0,1,.37.41,30.58,30.58,0,0,1-2.71,2.47A22.21,22.21,0,0,1,15.31.81V0l0,0H12.81V11.61H0v2.74l.11-.1,0,0,3,3c-.31.34-3,3-3,3v.11a.71.71,0,0,0,.06.26h.92l2.53-.1Z"/></g></g></svg>