<svg xmlns="http://www.w3.org/2000/svg" preserveAspectRatio="none" viewBox="0 0 20.64 21.72"><defs><style>.cls-1{fill:#613c25;}</style></defs><title>11_r_u</title><g id="Layer_2" data-name="Layer 2"><g id="Layer_1-2" data-name="Layer 1"><path class="cls-1" d="M20.43,21.7l.05,0H20.2l0,0Zm.11-3.65v-.41l-.05-3.35-.17-.06.15-.1c-.08-.93-1.41-4.27-2-4.27-.2,0-.25.13-.32.26a8.48,8.48,0,0,1,.58,2.52v.21A10,10,0,0,1,16.9,18c-.54.68-1.12,1.23-1.71,1.86a4.28,4.28,0,0,1-.42.46,3.82,3.82,0,0,0-.45.45l-.21.24V16.18l.06.24A5.74,5.74,0,0,0,15.74,19l.35-.34a5.06,5.06,0,0,1-.62-2.24A10.36,10.36,0,0,1,17.18,11c.54-.79,1.1-1.22,1.68-1.93.21-.26,1.68-1.73,1.68-1.88V7H20.1c-.47,0-2.29,2.42-2.87,2.72-.38-.25-2.49-2.08-3.12-2.56V7l4.4,0L20.1,7h.25c.14,0,.19-.16.19-.32V6.38l0-.44,0-.27,0-.61,0-.6V3l0-.82,0-.94,0-.77,0-.16A.77.77,0,0,0,20.48,0L14.3,0l-.16,0a.84.84,0,0,0-.43.11V.24c.08,0,.12,0,.12.16V.61s0,.09-.12.18V1.87l0,1.16V4.62c0,.26-.07,1.41.22,1.49l-.14.19v.11h-.1A4.27,4.27,0,0,0,13.3,6c-.26-.25-.46-.56-.73-.79s-1.44-1.55-1.44-1.6c0-.24,2.06-2.23,2.58-2.86V.24h-.78L8.33.32a6.78,6.78,0,0,0-3,.55c-.57.27-2,.92-2.26,1.53.06.12.08.27.24.27h.05a5.37,5.37,0,0,0,1-.36,4.78,4.78,0,0,1,1.17-.18h.09a8.39,8.39,0,0,1,4.75,1.72,34.58,34.58,0,0,1,2.52,2.56h-3l.08,0c.25-.1,1.45-.88,1.45-1.11V5.16c0-.15-.1-.21-.19-.27a5.36,5.36,0,0,1-2.46.54c-.34,0-.77-.11-1.19-.18A7.92,7.92,0,0,0,6.39,5C6,4.72,5.14,4.48,4.64,4.12a6.91,6.91,0,0,1-1.46-1.2C2.85,2.53.79.41.51.24A1.28,1.28,0,0,0,0,.48v.83A2.4,2.4,0,0,1,.41.94,29.24,29.24,0,0,1,2.88,3.65,23,23,0,0,1,.81,6.41H0l0,0V8.91H11.61V21.72h2.74l-.1-.12,0,0,3-3c.34.32,3,3,3,3h.11a.71.71,0,0,0,.26-.05v-.93l-.1-2.52Z"/></g></g></svg>