<svg xmlns="http://www.w3.org/2000/svg" preserveAspectRatio="none" viewBox="0 0 8.73 54"><defs><style>.cls-1{fill:#613c25;}</style></defs><title>11_r</title><g id="Layer_2" data-name="Layer 2"><g id="Layer_1-2" data-name="Layer 1"><path class="cls-1" d="M2.5,0H0V54H2.5v-.44A24.3,24.3,0,0,1,5,51.23,23.63,23.63,0,0,1,8,53.93L7.91,54h.75c-.16-.6-.46-.69-.84-1.12-.06-.07-1-.9-1-.94A10.54,10.54,0,0,1,5,49.84a8.09,8.09,0,0,1-1.17-2.72,7.44,7.44,0,0,1-.2-1.68c0-.66.27-1,.27-1.51h0l.28-.58c-.08-.13-.15-.29-.38-.29s-.92,1.07-1.3,1.77V41.46c.56.55,1.18,1.14,1.28,1.2A8.59,8.59,0,0,1,5.7,45,8.59,8.59,0,0,1,6.76,48a6.77,6.77,0,0,1,0,1.56c-.06.44-.5,1.41-.5,1.55a.35.35,0,0,0,.32.29h.16c.07-.21.47-.69.62-1s.34-.65.51-1a7.8,7.8,0,0,0,.77-2.27c.07-1.79.08-3.79.11-5.5V40.56c-.1-.06-.1-.1-.22-.1H8.29C8.15,40.46,5.35,43,5.1,43c0,0-1.89-1.7-2.6-2.38v-.43l2.78-2.57c.35.29,3,2.73,3.07,2.73h.11a.76.76,0,0,0,.27,0v-.85l-.11-2.32v-.43l-.05-3.08-.17-.06.15-.09c-.08-.86-1.43-3.93-2.05-3.93-.21,0-.26.12-.33.24a7,7,0,0,1,.6,2.32v.19A8.68,8.68,0,0,1,4.92,37c-.54.62-1.13,1.13-1.73,1.71a4.31,4.31,0,0,1-.43.42l-.26.23v-3A3.75,3.75,0,0,0,3.75,38l.35-.31a4.36,4.36,0,0,1-.62-2.06,9,9,0,0,1,1.73-5c.55-.73,1.12-1.12,1.71-1.78a22.54,22.54,0,0,0,1.7-1.73v-.14H8.19c-.46,0-2.34,2.24-2.93,2.51C4.93,29.23,3.37,28,2.5,27.36v-.68a3.15,3.15,0,0,0,.37-.35c.25-.26.56-.45.79-.73s1.55-1.44,1.6-1.44c.27,0,2.84,2.7,3,2.7h.22c.12,0,.16,0,.16-.14V26l-.08-4.6A6.78,6.78,0,0,0,8,18.31c-.27-.57-.92-2-1.53-2.26-.12.06-.27.08-.27.24v.05a6.09,6.09,0,0,0,.35,1,4.41,4.41,0,0,1,.19,1.17v.09a8.44,8.44,0,0,1-1.72,4.75A34.58,34.58,0,0,1,2.5,25.88v-3l0,.08c.1.25.88,1.46,1.11,1.46h.11c.15,0,.21-.11.27-.19a5.44,5.44,0,0,1-.54-2.47c0-.34.11-.77.18-1.19a9.57,9.57,0,0,0,.25-1.13c.28-.37.52-1.25.87-1.75A7,7,0,0,1,6,16.22c.39-.34,2.51-2.39,2.68-2.68-.16-.63-.46-.7-.85-1.15l-1-.94A10.21,10.21,0,0,1,5,9.36,8.09,8.09,0,0,1,3.78,6.64,7.51,7.51,0,0,1,3.58,5c0-.66.27-1,.27-1.52l0,0,.28-.59C4.1,2.75,4,2.59,3.8,2.59S2.88,3.66,2.5,4.35V1c.56.54,1.18,1.14,1.28,1.2A8.59,8.59,0,0,1,5.7,4.48,8.52,8.52,0,0,1,6.76,7.54a6.68,6.68,0,0,1,0,1.55c-.06.44-.5,1.42-.5,1.56a.34.34,0,0,0,.32.28h.16c.07-.21.47-.69.62-1s.34-.64.51-1a7.74,7.74,0,0,0,.77-2.26c.07-1.79.08-3.8.11-5.5V.08L8.6,0H8.26C7.91.2,5.34,2.54,5.1,2.54c0,0-1.89-1.71-2.6-2.39ZM8,13.44a29.24,29.24,0,0,1-2.71,2.47A23,23,0,0,1,2.5,13.84v-.77A24.3,24.3,0,0,1,5,10.74,23.63,23.63,0,0,1,8,13.44Z"/></g></g></svg>