<svg xmlns="http://www.w3.org/2000/svg" preserveAspectRatio="none" viewBox="0 0 54 8.73"><defs><style>.cls-1{fill:#613c25;}</style></defs><title>11_u</title><g id="Layer_2" data-name="Layer 2"><g id="Layer_1-2" data-name="Layer 1"><path class="cls-1" d="M0,6.23v2.5H54V6.23h-.44a23.14,23.14,0,0,1-2.33-2.55A24.26,24.26,0,0,1,53.93.76L54,.81V.06c-.6.17-.69.46-1.12.85-.07,0-.9,1-.94,1a10.87,10.87,0,0,1-2.1,1.83A8.09,8.09,0,0,1,47.12,5a8.07,8.07,0,0,1-1.68.19c-.66,0-1-.27-1.51-.27v0l-.58-.28c-.13.08-.29.16-.29.39s1.07.91,1.77,1.3H41.46C42,5.67,42.6,5,42.66,5A8.63,8.63,0,0,1,45,3,8.39,8.39,0,0,1,48,2a6.25,6.25,0,0,1,1.56,0c.44.06,1.41.5,1.55.5a.36.36,0,0,0,.29-.32V2c-.21-.06-.69-.46-1-.61s-.65-.35-1-.52A8.09,8.09,0,0,0,47.15.11C45.36,0,43.36,0,41.65,0H40.56c-.06.1-.1.1-.1.22V.43C40.46.58,43,3.38,43,3.63c0,0-1.7,1.89-2.38,2.6h-.43L37.64,3.45c.29-.35,2.73-3,2.73-3.07V.27a.72.72,0,0,0,0-.27h-.85L37.15.1h0l-.38,0L33.64.15l-.06.17L33.49.17c-.86.07-3.93,1.43-3.93,2.05,0,.2.12.25.24.32A7.24,7.24,0,0,1,32.12,2h.19A8.75,8.75,0,0,1,37,3.8c.62.55,1.13,1.14,1.71,1.74a4.31,4.31,0,0,1,.42.43l.23.26h-3A3.83,3.83,0,0,0,38,5l-.31-.35a4.36,4.36,0,0,1-2.06.62,9,9,0,0,1-5-1.73C29.83,3,29.44,2.4,28.78,1.81A20.82,20.82,0,0,0,27.05.11h-.14V.54c0,.45,2.24,2.33,2.51,2.92-.19.33-1.41,1.89-2.06,2.77h-.68a2.52,2.52,0,0,0-.35-.37c-.26-.26-.45-.56-.73-.79s-1.44-1.55-1.44-1.61c0-.26,2.7-2.84,2.7-3V.22c0-.13,0-.17-.14-.17H26l-4.6.08a6.93,6.93,0,0,0-3.05.56c-.57.27-2,.91-2.26,1.53.06.12.08.27.24.27h.05c.29,0,.68-.28,1-.36A4.85,4.85,0,0,1,18.52,2h.09a8.36,8.36,0,0,1,4.75,1.72,32.66,32.66,0,0,1,2.52,2.56h-3l.08,0c.25-.09,1.46-.87,1.46-1.1V5c0-.15-.11-.21-.19-.27a5.71,5.71,0,0,1-2.47.54c-.34,0-.77-.11-1.19-.18a7.92,7.92,0,0,0-1.13-.25c-.37-.28-1.25-.52-1.75-.88a6.91,6.91,0,0,1-1.45-1.2C15.88,2.35,13.83.23,13.54.05c-.63.17-.7.47-1.15.86-.06,0-.89,1-.94,1A10.52,10.52,0,0,1,9.36,3.78,8.09,8.09,0,0,1,6.64,5,8.15,8.15,0,0,1,5,5.14c-.66,0-1-.27-1.52-.27l0,0-.59-.28c-.12.08-.28.16-.28.39s1.07.91,1.76,1.3H1C1.52,5.67,2.12,5,2.18,5A8.63,8.63,0,0,1,4.48,3,8.33,8.33,0,0,1,7.54,2,6.17,6.17,0,0,1,9.09,2c.44.06,1.42.5,1.56.5s.28-.19.28-.32V2c-.21-.06-.69-.46-1-.61S9.31,1,8.93.87A8,8,0,0,0,6.67.11C4.88,0,2.87,0,1.17,0H.08L0,.13V.47C.2.82,2.54,3.39,2.54,3.63c0,0-1.71,1.89-2.39,2.6ZM13.44.76a30.44,30.44,0,0,1,2.47,2.7,22.12,22.12,0,0,1-2.07,2.77h-.77a23.14,23.14,0,0,1-2.33-2.55A24.26,24.26,0,0,1,13.44.76Z"/></g></g></svg>