<?xml version="1.0" encoding="UTF-8"?>
<svg width="18px" height="9px" viewBox="0 0 18 9" version="1.1" xmlns="http://www.w3.org/2000/svg" xmlns:xlink="http://www.w3.org/1999/xlink">
    <!-- Generator: Sketch 51 (57462) - http://www.bohemiancoding.com/sketch -->
    <title>arrow_L</title>
    <desc>Created with Sketch.</desc>
    <defs></defs>
    <g id="Page-1" stroke="none" stroke-width="1" fill="none" fill-rule="evenodd">
        <g id="Russ_Imp-6" transform="translate(-220.000000, -204.000000)">
            <g id="Title" transform="translate(97.000000, 184.000000)" fill="#533625">
                <path d="M131.890625,16.234375 C132.046876,16.0781242 132.234374,16 132.453125,16 C132.671876,16 132.859374,16.0781242 133.015625,16.234375 L136.671875,19.890625 C136.828126,20.0468758 136.90625,20.2382801 136.90625,20.4648438 C136.90625,20.6914074 136.828126,20.8828117 136.671875,21.0390625 C136.515624,21.1953133 136.328126,21.2734375 136.109375,21.2734375 C135.890624,21.2734375 135.695313,21.1953133 135.523438,21.0390625 L133.273438,18.765625 L133.273438,32.3125 C133.273438,32.5312511 133.191407,32.7187492 133.027344,32.875 C132.86328,33.0312508 132.671876,33.109375 132.453125,33.109375 C132.234374,33.109375 132.04297,33.0312508 131.878906,32.875 C131.714843,32.7187492 131.632812,32.5312511 131.632812,32.3125 L131.632812,18.765625 L129.359375,21.0390625 C129.203124,21.1953133 129.015626,21.2734375 128.796875,21.2734375 C128.578124,21.2734375 128.390626,21.1953133 128.234375,21.0390625 C128.078124,20.8828117 128,20.6914074 128,20.4648438 C128,20.2382801 128.078124,20.0468758 128.234375,19.890625 L131.890625,16.234375 Z" id="arrow_L" transform="translate(132.453125, 24.554688) rotate(-90.000000) translate(-132.453125, -24.554688) "></path>
            </g>
        </g>
    </g>
</svg>