<?xml version="1.0" encoding="UTF-8"?>
<svg width="18px" height="9px" viewBox="0 0 18 9" version="1.1" xmlns="http://www.w3.org/2000/svg" xmlns:xlink="http://www.w3.org/1999/xlink">
    <!-- Generator: Sketch 51 (57462) - http://www.bohemiancoding.com/sketch -->
    <title>arrow_R</title>
    <desc>Created with Sketch.</desc>
    <defs></defs>
    <g id="Page-1" stroke="none" stroke-width="1" fill="none" fill-rule="evenodd">
        <g id="Russ_Imp-6" transform="translate(-785.000000, -204.000000)">
            <g id="Title" transform="translate(97.000000, 184.000000)" fill="#533625">
                <path d="M696.890625,16.234375 C697.046876,16.0781242 697.234374,16 697.453125,16 C697.671876,16 697.859374,16.0781242 698.015625,16.234375 L701.671875,19.890625 C701.828126,20.0468758 701.90625,20.2382801 701.90625,20.4648438 C701.90625,20.6914074 701.828126,20.8828117 701.671875,21.0390625 C701.515624,21.1953133 701.328126,21.2734375 701.109375,21.2734375 C700.890624,21.2734375 700.695313,21.1953133 700.523438,21.0390625 L698.273438,18.765625 L698.273438,32.3125 C698.273438,32.5312511 698.191407,32.7187492 698.027344,32.875 C697.86328,33.0312508 697.671876,33.109375 697.453125,33.109375 C697.234374,33.109375 697.04297,33.0312508 696.878906,32.875 C696.714843,32.7187492 696.632812,32.5312511 696.632812,32.3125 L696.632812,18.765625 L694.359375,21.0390625 C694.203124,21.1953133 694.015626,21.2734375 693.796875,21.2734375 C693.578124,21.2734375 693.390626,21.1953133 693.234375,21.0390625 C693.078124,20.8828117 693,20.6914074 693,20.4648438 C693,20.2382801 693.078124,20.0468758 693.234375,19.890625 L696.890625,16.234375 Z" id="arrow_R" transform="translate(697.453125, 24.554688) rotate(90.000000) translate(-697.453125, -24.554688) "></path>
            </g>
        </g>
    </g>
</svg>