<?xml version="1.0" encoding="UTF-8"?>
<svg width="79px" height="78px" viewBox="0 0 79 78" version="1.1" xmlns="http://www.w3.org/2000/svg" xmlns:xlink="http://www.w3.org/1999/xlink">
    <!-- Generator: Sketch 51 (57462) - http://www.bohemiancoding.com/sketch -->
    <title>emblem_n2</title>
    <desc>Created with Sketch.</desc>
    <defs></defs>
    <g id="Page-1" stroke="none" stroke-width="1" fill="none" fill-rule="evenodd">
        <g id="Russ_Imp-6" transform="translate(-817.000000, -20.000000)">
            <rect fill="#FFF5E1" x="0" y="0" width="1024" height="1501"></rect>
            <g id="emblem_n2" transform="translate(817.000000, 20.000000)" fill="#7C6742">
                <path d="M4.31698113,20.325 C4.31698113,21.99 4.16603774,21.675 3.51698113,22.965 C3.15115281,23.7568152 2.73261484,24.523515 2.26415094,25.26 C2.26415094,27.105 1.05660377,29.385 0.754716981,31.335 C0.351165717,33.5757297 0.0990295616,35.8407948 0,38.115 L0,38.865 L0,41.865 C0.0653087803,43.6033459 0.34927626,45.3267369 0.845283019,46.995 C1.00170684,47.8162663 1.22379461,48.6238266 1.50943396,49.41 C1.73584906,50.055 2.41509434,50.91 2.41509434,51.615 C2.41509434,51.855 2.41509434,51.855 2.20377358,52.05 C2.88301887,53.475 3.56226415,54.69 4.27169811,56.205 C4.75471698,57.255 6.52075472,58.905 6.52075472,60.195 L6.52075472,60.84 C7.38113208,60.93 7.62264151,61.905 8.03018868,62.445 C8.49047561,63.0416188 8.99502798,63.6031855 9.53962264,64.125 C10.1283019,64.71 10.5207547,64.965 11.154717,65.625 C11.58414,66.2233071 11.9724435,66.8497303 12.3169811,67.5 L13.4037736,68.025 C13.7398641,68.1659238 14.0354966,68.3875509 14.2641509,68.67 C14.8075472,69.15 15.3056604,69.675 15.7735849,70.17 C17.0867925,71.37 18.4603774,70.86 19.5773585,72.495 L19.5773585,73.035 C20.1962264,73.365 21.4037736,73.62 21.8113208,73.905 C22.5352573,74.310956 23.3284479,74.5804809 24.1509434,74.7 C25.6603774,75.21 27.7132075,75.315 28.3924528,76.59 L31.2,76.785 L31.5018868,77.025 C32.4756613,77.0521877 33.4452757,77.162595 34.4,77.355 C35.290566,77.49 36.3169811,77.475 37.0867925,77.595 C37.9717415,77.8006155 38.8806017,77.8863924 39.7886792,77.85 C40.6490566,77.76 41.7056604,77.325 42.6264151,77.76 L42.9735849,77.475 C43.1245283,77.475 44.0150943,77.385 44.4830189,77.475 C44.9860944,77.4433999 45.4688489,77.2661057 45.8716981,76.965 C46.147482,77.0737557 46.4369713,77.144414 46.7320755,77.175 L47.6981132,77.055 L49.4188679,76.68 L51.8188679,75.6 C52.090566,75.72 51.7132075,75.6 52.1207547,75.6 C53.3298186,75.3905582 54.500202,75.0011832 55.5924528,74.445 C56.5882219,73.7895042 57.7263304,73.3782332 58.9132075,73.245 C59.7735849,71.985 59.2754717,72.585 60.4226415,71.745 C60.9358491,71.385 61.7056604,71.1 62.2792453,70.695 C62.8528302,70.29 64.8,68.43 65.8113208,68.43 C66.5344574,67.0210271 67.5659992,65.7909135 68.8301887,64.83 C69.4641509,64.425 69.7509434,63.645 70.3396226,63.045 C70.8245092,62.4223249 71.3761888,61.8539747 71.9849057,61.35 C71.9849057,60.15 73.9622642,57.975 74.4301887,56.85 C74.8981132,55.725 75.2150943,55.35 75.5320755,54.51 C75.8490566,53.67 75.9849057,54.075 76.1358491,53.4 C76.2867925,52.725 76.2716981,52.59 76.4528302,51.99 C77.1239469,50.2766082 77.6293723,48.5036074 77.9622642,46.695 C78.0679245,45.705 78.1132075,44.385 78.1735849,43.485 C78.1639808,42.9385413 78.1942488,42.3921095 78.2641509,41.85 C78.4218381,41.3653267 78.5033003,40.8593703 78.5056604,40.35 L78.5056604,39.915 L78.309434,36.39 C78.309434,35.28 78.1584906,34.605 78.0679245,33.27 C77.9627759,32.339308 77.770754,31.4203509 77.4943396,30.525 C77.3584906,30.135 76.6943396,28.065 76.6792453,27.915 C76.5910447,26.9780754 76.4038499,26.0529788 76.1207547,25.155 C75.6064996,23.5552641 74.8589215,22.0391299 73.9018868,20.655 C73.4666735,19.9227188 73.0735899,19.1665053 72.7245283,18.39 C72.3438128,17.6848686 71.904553,17.0125361 71.4113208,16.38 L69.9018868,14.46 C69.6289296,14.1596727 69.3254258,13.8882266 68.9962264,13.65 C68.4377358,13.215 68.6943396,13.23 68.2415094,12.78 C67.9353085,12.5127291 67.6617383,12.210662 67.4264151,11.88 C67.0792453,11.415 66.9584906,11.46 66.5660377,11.025 C65.983322,10.4884171 65.3683537,9.98749511 64.7245283,9.525 C64.1716331,8.92498573 63.5241804,8.41836672 62.8075472,8.025 C62.1584906,7.65 62.2792453,7.515 61.8867925,7.23 C61.4943396,6.945 61.1924528,6.765 60.9358491,6.57 C60.6792453,6.375 60.754717,6.165 59.9698113,5.805 C59.5907777,5.68512228 59.2222521,5.53461996 58.8679245,5.355 C58.1919256,4.93806547 57.6151102,4.38020895 57.1773585,3.72 L56.4226415,3.72 L56.1056604,3.48 L55.5622642,3.48 C54.6594488,2.79643208 53.6353791,2.28759746 52.5433962,1.98 C51.3207547,1.755 50.0075472,1.02 49.1471698,1.5 C48.4388114,1.38541785 47.7418392,1.20975432 47.0641509,0.975 C46.5335517,0.613822148 45.9220405,0.387226171 45.2830189,0.315 C43.8508876,0.14090584 42.408773,0.060732334 40.9660377,0.075 L38.9132075,0 L38.3698113,0.285 C37.9320755,0.285 37.4641509,0.165 37.2981132,0.18 L36.4377358,0.285 L36,0.285 C35.0613901,0.215184449 34.1176347,0.301365896 33.2075472,0.54 C32.2507819,0.809208711 31.246913,0.870599154 30.2641509,0.72 C29.815282,1.04343195 29.2997199,1.2637381 28.754717,1.365 C28.4981132,1.365 27.1698113,1.575 26.9886792,1.635 C26.8075472,1.695 25.8113208,2.115 25.554717,2.25 C25.0113208,2.535 24.845283,2.91 24.3169811,3.06 C23.7540494,3.12711993 23.1948572,3.22223928 22.6415094,3.345 C22.3849057,3.465 22.0528302,4.11 21.6150943,4.38 C20.7396226,4.905 19.909434,5.13 18.9283019,5.775 C18.1112311,6.37266279 17.2538734,6.91393287 16.3622642,7.395 C15.6075472,7.71 15.4415094,7.305 15.0943396,8.175 C14.946281,8.657511 14.5766024,9.04157759 14.0981132,9.21 C13.1930958,9.62925762 12.3976221,10.2503663 11.7735849,11.025 C11.4415094,11.4 11.5320755,11.025 11.245283,11.565 C11.0792453,11.865 11.0943396,11.97 10.8830189,12.18 C10.6716981,12.39 10.0377358,13.035 9.70566038,13.035 L9.37358491,13.035 C8.96603656,14.5155379 8.06712431,15.8158357 6.82264151,16.725 C5.73584906,17.715 6.17358491,19.08 4.31698113,20.325 Z M38.9132075,0.72 C39.4755075,0.558256457 40.0514767,0.447799206 40.6339623,0.39 C41.0264151,0.39 41.2226415,0.705 41.8264151,0.72 L41.8264151,1.035 L40.8603774,1.035 L39.1396226,1.2 L38.9132075,0.72 Z M37.6150943,1.575 L37.8415094,1.35 L37.7358491,0.825 C38.3849057,0.99 38.354717,1.215 38.6716981,1.515 C38.9886792,1.815 39.290566,1.8 39.6226415,2.085 C39.9172837,2.32828349 40.2301376,2.54892113 40.5584906,2.745 C41.0264151,3.075 41.2528302,3 41.6,3.21 C42.2132104,3.62738804 42.8027852,4.07807267 43.3660377,4.56 C43.8339623,4.98 44.8754717,5.115 45.0867925,5.865 L43.0339623,5.745 C42.3984057,5.43403943 41.7833347,5.08333552 41.1924528,4.695 C40.7396226,4.35 40.0603774,3.78 39.6075472,3.48 C39.154717,3.18 38.4603774,2.79 37.8264151,2.37 C37.1924528,1.95 36.2264151,1.965 36.1056604,1.245 C36.5886792,1.245 36.5735849,1.47 36.8603774,1.47 C37.1471698,1.47 37.0415094,1.305 37.6150943,1.575 Z M41.2830189,2.115 C41.9140914,1.49938004 42.6937243,1.05518424 43.5471698,0.825 L44.3018868,0.825 L45.2830189,0.945 L45.2830189,1.245 C44.2867925,1.335 42.2641509,3.915 41.2981132,2.115 L41.2830189,2.115 Z M29.7660377,3.495 C30.459449,2.51567267 31.4477912,1.7803619 32.5886792,1.395 C33.3283019,1.215 33.9320755,0.885 34.4301887,1.095 C34.9787373,1.31243429 35.4884217,1.61633365 35.9396226,1.995 L35.0792453,2.1 C34.7320755,2.1 34.6415094,1.89 34.5358491,1.68 L32.3924528,2.175 C31.9021148,2.32679395 31.422975,2.51223995 30.9584906,2.73 C30.5866966,3.00770513 30.198588,3.26315745 29.7962264,3.495 L29.7660377,3.495 Z M44.890566,2.22 C44.890566,1.875 45.7660377,1.365 46.0679245,1.365 C46.8528302,1.365 49.0867925,2.205 49.3132075,2.865 C48.410709,2.47780188 47.4696637,2.18619167 46.5056604,1.995 L44.890566,2.22 Z M28.0754717,3.285 C28.6188679,3.165 29.7509434,2.505 29.7962264,1.89 L30.0075472,1.89 C29.8716981,2.52 29.2226415,3.495 28.4981132,3.495 L28.0754717,3.495 L28.0754717,3.285 Z M23.0641509,5.64 C23.5320755,3.645 26.7773585,2.205 29.2075472,1.995 C29.0566038,2.595 26.6415094,3.39 25.9773585,3.72 C24.966767,4.2987108 23.9937794,4.93997512 23.0641509,5.64 Z M52.709434,3.825 L52.2867925,3.825 L51.109434,3.825 L50.3245283,2.115 L50.445283,2.115 C51.7721464,2.35991535 53.0644795,2.76281922 54.2943396,3.315 C55.4667268,3.75678122 56.3834763,4.68975332 56.8,5.865 C56.5283019,5.865 53.6,3.525 52.709434,3.285 L52.709434,3.825 Z M30.5056604,3.93 C30.7018868,3.21 32.1962264,3.135 32.8754717,2.535 L33.1924528,2.76 L34.490566,2.595 L34.8226415,2.595 L37.2075472,3 L37.2075472,3.105 L37.1018868,3.54 C35.4415094,3.945 32.9660377,5.4 30.8679245,4.41 C31.9666439,3.97260677 33.1409842,3.75347562 34.3245283,3.765 C34.1433962,3.09 33.9018868,3.675 33.3584906,3.33 L30.5056604,3.93 Z M43.0037736,3.285 C43.0037736,2.775 45.7207547,2.655 46.5056604,2.805 C47.290566,2.955 47.8037736,3.105 48.2867925,3.18 C49.2981132,3.345 49.0113208,3.81 49.7962264,3.825 L49.7962264,4.035 L48.4075472,3.765 C48.3018868,3.765 48.1358491,3.615 48.0754717,3.615 L46.0226415,3.615 L46.6716981,4.065 L49.4641509,4.515 L49.4641509,4.695 C48.3579547,5.06761671 47.1590264,5.06761671 46.0528302,4.695 C45.3283019,4.455 43.0339623,3.96 43.0339623,3.195 L43.0037736,3.285 Z M23.4113208,6.3 C23.5018868,5.115 27.7886792,3.375 29.6603774,4.275 C29.3735849,5.355 24.2113208,7.485 23.9396226,6.525 C24.5132075,6.525 24.9358491,5.97 25.7509434,5.745 C26.2490566,5.61 27.2603774,5.385 27.5018868,5.025 C26.7169811,4.65 24.4075472,6.225 23.4113208,6.3 Z M36.0150943,5.445 C36.4226415,4.845 36.8150943,4.86 37.3886792,4.455 L38.8226415,3.63 C39.2880687,3.65260161 39.6602751,4.02248173 39.6830189,4.485 C39.3660377,4.56 38.5811321,5.1 38.0981132,5.265 C37.4143787,5.41328877 36.7143232,5.47378269 36.0150943,5.445 Z M51.3207547,5.115 C52.045283,5.115 52.8301887,5.805 53.8264151,6.045 C54.2490566,6.165 55.8490566,6.93 55.954717,7.365 L55.3056604,7.365 C54.2780424,7.30957095 53.2766216,7.0223077 52.3773585,6.525 C51.5538208,6.04008651 50.8802339,5.3395757 50.4301887,4.5 L52.2716981,4.29 C54.036197,4.50993351 55.6337608,5.43647283 56.6943396,6.855 C55.3358491,6.705 52.8301887,4.785 51.3207547,4.785 L51.3207547,5.115 Z M22.6415094,4.77 L22.0679245,6.27 L21.1320755,6.27 C21.2226415,5.55 21.6603774,6.18 21.6754717,5.325 C20.6296711,5.80503448 19.646378,6.40945564 18.7471698,7.125 C18.3139035,7.4777876 17.9192698,7.87498261 17.5698113,8.31 C17.3000455,8.81302809 16.891654,9.22927329 16.3924528,9.51 C16.8754717,8.61 16.9056604,8.01 17.7509434,7.425 C18.3965713,6.98927341 18.9936511,6.48643607 19.5320755,5.925 C20.2905886,5.82227947 21.003275,5.50461655 21.5849057,5.01 L22.6415094,4.77 Z M30.0830189,4.995 C30.4754717,4.995 32.8,5.235 32.8603774,5.25 C33.7528633,5.2639798 34.6396281,5.10607287 35.4716981,4.785 L35.4716981,5.115 C34.6867925,5.115 34.1283019,5.865 33.2075472,5.865 L32.6792453,5.865 C31.7484065,5.82509896 30.8480943,5.5234028 30.0830189,4.995 Z M45.6150943,5.535 L45.6150943,5.325 L47.4113208,5.85 L47.4113208,5.73 L47.7132075,5.985 L48.4830189,5.685 C49.4490566,5.685 49.9924528,5.13 50.2037736,5.685 C49.4474547,5.98812596 48.647622,6.17038082 47.8339623,6.225 C45.9622642,6.225 46.7773585,5.91 45.5698113,5.58 L45.6150943,5.535 Z M58.1735849,6.33 C58.3849057,7.14 59.0792453,6.645 59.2603774,7.29 L57.6603774,6.825 C57.6603774,5.55 57.2226415,5.145 58.8679245,6.06 C59.5579756,6.37826602 60.2109167,6.77060011 60.8150943,7.23 C61.8867925,8.1 63.3962264,9.135 63.4867925,10.89 C63.0792453,10.635 62.1283019,8.925 61.2075472,8.235 C60.6037736,7.77 58.9735849,6.345 58.1886792,6.285 L58.1735849,6.33 Z M23.0641509,7.92 C23.0641509,7.17 24.3924528,7.38 24.7849057,7.47 L25.1018868,7.23 C25.9794735,7.12829212 26.8475897,6.95776028 27.6981132,6.72 C28.1962264,6.72 28.8301887,6.54 29.1018868,6.54 C29.3735849,6.54 29.9773585,6.75 30.2943396,6.54 C29.8716981,5.97 29.509434,6.21 28.890566,6.21 L28.4830189,6.12 L29.1018868,5.565 C29.8264151,5.91 30.9132075,5.7 30.9283019,6.75 L30.4,6.75 C29.8716981,6.75 27.3811321,7.92 26.7320755,7.605 L26.5358491,7.845 L24.5735849,7.725 L23.0641509,7.92 Z M50.9584906,6.12 C51.3962264,6.45 52.1207547,6.645 52.1660377,7.245 L56.1358491,7.935 L56.1358491,7.785 L56.2566038,7.785 C56.6339623,7.785 56.5433962,8.025 56.6792453,8.325 C55.4454598,8.7863569 54.0936347,8.83377018 52.8301887,8.46 C51.7433962,8.13 50.9132075,7.14 49.4188679,7.14 L49.1924528,6.69 L50.9584906,6.12 Z M16.9207547,10.365 C17.4362614,9.41919515 18.1217945,8.57526042 18.9433962,7.875 C20.0439048,7.36119366 21.2131388,7.00756393 22.4150943,6.825 L22.7471698,6.825 C22.7471698,7.92 19.2754717,10.575 17.8867925,10.575 C18.2037736,9.405 20.5132075,8.85 20.5886792,8.01 C19.9245283,8.355 19.3509434,8.76 18.6566038,9.09 C17.9622642,9.42 17.6754717,10.155 16.9207547,10.365 Z M61.9773585,11.22 C60.8777304,11.1629412 59.836699,10.70967 59.0490566,9.945 C58.6867925,9.675 57.2377358,8.13 57.2377358,7.68 C57.2255547,7.5619261 57.2703427,7.4450922 57.3584906,7.365 C57.8298456,7.60513183 58.3413939,7.75763717 58.8679245,7.815 C59.3992255,7.97852497 59.9066859,8.2104978 60.3773585,8.505 C61.308767,8.97689244 62.0570341,9.74157766 62.5056604,10.68 C62.1735849,10.515 60.3924528,9.285 60.3471698,9.285 L59.9245283,9.285 C59.776277,8.82495974 59.3386457,8.51869489 58.8528302,8.535 C59.0339623,9.195 59.9849057,9.315 60.3622642,9.885 C60.7396226,10.455 61.8716981,10.455 61.8716981,11.22 L61.9773585,11.22 Z M21.7660377,9.285 C21.9636547,8.74826801 22.4897279,8.40177084 23.0641509,8.43 C23.4264151,8.43 23.7584906,8.76 24.4679245,8.76 C24.4679245,9.375 23.5773585,9.63 22.9584906,9.9 C22.6607987,10.0500841 22.3468081,10.1658364 22.0226415,10.245 C21.5698113,10.38 21.7207547,10.485 21.2981132,10.725 C19.9743136,11.2028958 18.5845528,11.4760754 17.1773585,11.535 L17.1773585,11.325 C19.6528302,10.74 21.1924528,9.39 23.7433962,9.18 C23.5924528,8.61 22.5358491,9.27 21.690566,9.285 L21.7660377,9.285 Z M14.5509434,10.89 C14.5509434,10.32 15.3056604,10.17 15.3056604,9.51 L15.2,9.285 C15.2,9.15 15.3509434,8.865 15.5169811,8.865 C15.6291426,8.88121694 15.71939,8.9649214 15.7433962,9.075 L15.6226415,10.035 C15.3660377,10.425 15.154717,10.845 14.5509434,10.89 Z M62.8528302,12.27 C62.5660377,12.405 62.8528302,12.42 62.490566,12.39 L60.6490566,12.27 L60.6792453,12 C60.5109061,12.066201 60.3319555,12.1017674 60.1509434,12.105 C58.4540293,11.5555625 56.8803583,10.684501 55.5169811,9.54 L55.6226415,9.21 C56.0037589,9.08751849 56.3998087,9.01687692 56.8,9 L57.1320755,9 C57.509434,9 58.0528302,9.78 58.2037736,10.065 L57.9773585,10.38 C59.2882497,11.345091 60.874251,11.8704539 62.5056604,11.88 L62.8528302,12.27 Z M10.4603774,15.72 C10.0075472,13.8 11.0037736,13.2 11.8490566,11.97 C12.7330581,11.0120887 13.7494996,10.1838159 14.8679245,9.51 C14.8679245,10.56 13.1320755,11.58 12.5584906,12.51 C12.2113208,13.125 11.6830189,13.35 11.3660377,14.01 C11.1028335,14.5897596 10.8002483,15.1510552 10.4603774,15.69 L10.4603774,15.72 Z M11.3207547,15.48 C11.821282,14.2014807 12.654765,13.0781344 13.7358491,12.225 C14.2889428,11.8483333 14.8809889,11.5315317 15.5018868,11.28 C17.1320755,11.28 15.954717,11.28 15.954717,12.51 C15.154717,13.035 15.1698113,13.875 14.2339623,14.43 C13.2981132,14.985 13.0867925,15.735 11.9698113,15.825 L14.9886792,12.57 C14.2698149,12.9467191 13.6295286,13.4557467 13.1018868,14.07 C12.8150943,14.325 12.3924528,14.46 12.1962264,14.79 C12,15.12 11.9849057,15.555 11.3660377,15.57 L11.3207547,15.48 Z M64.4528302,13.035 L67.5773585,16.68 C66.7924528,16.68 65.2981132,15.255 64.8,14.73 C64.6037736,14.505 62.9433962,11.82 63.5471698,11.895 C64.5749156,12.3981675 65.5378434,13.0226769 66.4150943,13.755 C67.3218491,14.4818693 67.9850788,15.4652652 68.3169811,16.575 C67.6528302,16.125 67.3358491,15.375 66.4301887,14.715 C66.0377358,14.415 65.9471698,14.025 65.6150943,13.71 C65.2391033,13.4577657 64.8456738,13.2322058 64.4377358,13.035 L64.4528302,13.035 Z M16.4981132,12.39 C16.9660377,12.39 17.4641509,12.135 17.7811321,12.18 L18.6415094,12.3 C17.731907,13.2481595 16.719448,14.0933096 15.6226415,14.82 C14.6590162,15.8449147 13.3886921,16.5339663 12,16.785 C12.0754717,16.47 13.0566038,16.125 13.509434,15.81 C13.9878285,15.4671194 14.437132,15.0858425 14.8528302,14.67 C15.2236492,14.2333022 15.6440529,13.8406933 16.1056604,13.5 C16.6641509,13.14 17.509434,13.23 17.6150943,12.6 L16.3169811,13.02 L16.4981132,12.39 Z M64.2415094,10.035 C65.3718734,10.7700463 66.3887828,11.6643863 67.2603774,12.69 C68.3929964,13.6683945 69.0473561,15.0836878 69.0566038,16.575 L68.845283,16.575 L68.845283,16.26 C68.4258803,15.279258 67.8886455,14.352528 67.245283,13.5 C66.8830189,12.975 65.7358491,11.4 65.1018868,11.34 L65.9169811,12.465 C65.3283019,11.955 64.2415094,12.12 64.2415094,10.965 L64.2415094,10.035 Z M62.0679245,13.77 L62.5056604,13.92 L62.2792453,13.5 L62.0679245,13.77 Z M62.309434,14.22 C61.9018868,14.22 61.3283019,13.755 61.3283019,13.365 C61.3283019,13.215 61.4792453,13.14 61.6603774,13.14 L62.8377358,13.14 C63.245283,13.14 63.4113208,13.77 63.4867925,14.115 C63.1245283,14.01 63.0490566,13.785 62.7320755,13.785 L62.5207547,13.89 C63.2707969,14.6341622 64.0673484,15.3305461 64.9056604,15.975 C65.4641509,16.23 67.5924528,17.205 67.6377358,17.76 L67.3056604,17.85 C66.6566038,17.52 65.7962264,17.43 65.4792453,16.785 L65.0415094,16.785 C64.9056604,16.29 63.9245283,16.02 63.4566038,15.69 C62.9561943,15.2762558 62.5454022,14.765975 62.2490566,14.19 L62.309434,14.22 Z M6.03773585,20.76 C6.03773585,19.53 7.87924528,16.08 8.84528302,15.825 C8.20831486,16.8483833 7.66766138,17.9279534 7.23018868,19.05 C7.03396226,19.695 6.94339623,20.25 6.74716981,20.925 C6.5509434,21.6 6.64150943,22.5 6.14339623,22.68 C6.09025845,22.4328177 6.05494855,22.1821804 6.03773585,21.93 L6.03773585,20.76 Z M9.37358491,14.76 C9.96226415,14.91 10.1132075,16.5 8.84528302,16.785 C8.96603774,16.32 9.37358491,16.215 9.37358491,15.615 L9.37358491,14.76 Z M69.7509434,17.22 C69.7509434,16.71 70.0679245,16.47 70.0830189,15.825 C70.9584906,16.41 71.5169811,17.91 72.3169811,18.825 C72.9962038,20.1044021 73.338898,21.53369 73.3132075,22.98 C73.3132075,23.385 73.2377358,23.175 73.2075472,23.625 C72.8,23.325 72.9358491,22.125 72.7698113,21.6 C72.6037736,21.075 72.3169811,20.475 72.1207547,19.875 C71.8641509,19.02 71.0641509,17.07 70.2943396,16.875 C70.2943396,17.505 71.1849057,17.805 70.9433962,18.375 C70.7471698,18.255 69.7509434,17.4 69.7509434,17.205 L69.7509434,17.22 Z M11.4415094,18.495 C11.4970914,17.7078368 12.1568842,17.0980645 12.9509434,17.1 L13.8113208,17.22 L13.8113208,17.52 C13.0415094,17.73 11.7433962,19.95 11.2301887,20.64 C10.421467,21.6931907 9.39121062,22.5583163 8.21132075,23.175 C7.56226415,23.58 7.74339623,22.905 7.95471698,22.695 C8.16603774,22.485 8.52830189,22.425 8.81509434,22.155 C9.31974801,21.7082986 9.77055917,21.204935 10.1584906,20.655 C10.7320755,19.635 12.4981132,18.225 12.7849057,17.655 L11.4415094,18.495 Z M10.5660377,16.785 C10.6867925,16.35 11.0943396,16.215 11.0943396,16.68 L11.0943396,17.325 C10.5888603,19.1864014 9.44669197,20.8146919 7.86415094,21.93 C8.1509434,20.745 10.1584906,18.66 10.2339623,17.64 C9.01759594,18.8863136 8.03601948,20.3393152 7.33584906,21.93 L7.10943396,21.93 L7.29056604,21.27 L7.54716981,20.01 C8.12075472,19.545 8.49811321,16.785 10.5660377,16.785 Z M70.1735849,20.22 L71.5773585,23.115 C70.7471698,23.475 69.1773585,20.685 68.7698113,20.01 C68.5067837,19.19889 68.354481,18.3563707 68.3169811,17.505 C68.6037736,17.22 69.8264151,18.435 70.1735849,18.285 C70.1735849,18.66 71.109434,19.575 71.3811321,19.98 C71.6528302,20.385 71.9849057,21.75 72.2264151,21.825 L72.4679245,22.995 C71.8792453,22.86 71.6830189,21.975 71.3962264,21.495 C71.109434,21.015 71.0641509,21.105 70.7773585,20.835 C70.490566,20.565 70.7773585,20.31 70.1735849,20.25 L70.1735849,20.22 Z M67.8188679,18.675 L67.7283019,18.765 L68.1509434,20.265 L68.1509434,20.37 L66.9886792,19.245 C67.5747695,20.2434643 68.2572301,21.1828903 69.0264151,22.05 C69.509434,22.515 71.4867925,23.835 71.5924528,24.21 C70.6716981,24.63 68.3018868,21.57 67.8188679,21.54 L67.909434,21.54 L65.7962264,18 L67.8188679,18.675 Z M5.5245283,23.43 C5.5245283,23.625 4.93584906,24.135 4.73962264,24.18 L5.16226415,22.68 C5.16226415,22.575 4.9509434,22.5 4.9509434,22.26 C4.9509434,22.02 5.05660377,21.855 5.38867925,21.825 L5.5245283,23.43 Z M3.56226415,29.655 C2.64150943,29.4 2.76226415,26.655 2.89811321,25.89 C3.27199497,24.7543848 3.86121896,23.7004104 4.63396226,22.785 C4.63396226,24.285 3.44150943,26.04 3.44150943,28.155 L3.44150943,28.26 L3.56226415,29.655 Z M7.44150943,25.365 C7.41598404,24.2744383 8.27663237,23.3657147 9.37358491,23.325 L8.61886792,24.72 L8.61886792,25.575 C8.3712164,26.063103 8.14952753,26.5637923 7.95471698,27.075 C7.66792453,27.555 7.39622642,27.93 7.15471698,28.41 C6.91320755,28.89 5.64528302,30.63 5.17735849,30.63 C5.01132075,30.63 4.84528302,30.27 4.84528302,30.09 C4.84528302,29.91 6.35471698,28.305 6.64150943,27.585 C6.85283019,27.165 8.1509434,25.095 8.1509434,24.945 L7.44150943,25.365 Z M31.3660377,7.5 C32.0791567,7.10573762 32.8208302,6.7647949 33.5849057,6.48 C34.5276781,6.31894396 35.4813194,6.22868863 36.4377358,6.21 C37.2226415,6.21 38.5962264,5.82 38.8981132,5.895 C39.7551385,6.11394675 40.6410651,6.19996183 41.5245283,6.15 C43.3001851,6.19335131 45.0661347,6.42465781 46.7924528,6.84 C47.501394,7.15133717 48.2468363,7.3730682 49.0113208,7.5 C49.7996948,7.6498857 50.5726975,7.87079774 51.3207547,8.16 C52.005995,8.56495591 52.7112875,8.93542344 53.4339623,9.27 C54.1349328,9.59358026 54.8154361,9.95925627 55.4716981,10.365 C56.3018868,10.785 56.6792453,11.175 57.4037736,11.535 C57.7491721,11.7417415 58.1070857,11.9270941 58.4754717,12.09 C59.0490566,12.33 58.8226415,12.495 59.2603774,12.81 C59.5770438,13.0181858 59.8661046,13.2651236 60.1207547,13.545 C60.6037736,14.04 60.6339623,13.815 61.1320755,14.145 L62.6415094,15.75 C62.9283019,16.035 63.4566038,16.305 63.5622642,16.44 C63.7533551,16.7423965 63.9759669,17.0239498 64.2264151,17.28 C64.890566,18.03 64.4075472,18.63 65.7358491,18.93 C65.8264151,19.935 67.8792453,21.66 68.2867925,22.83 C68.6943396,24 68.2867925,23.745 69.3584906,24.765 C69.8264151,25.245 69.8867925,26.4 70.1433962,27.09 C70.4,27.78 70.5056604,27.54 70.6716981,28.17 C70.8377358,28.8 70.9132075,28.92 71.0339623,29.415 C71.2282987,30.2267109 71.4650982,31.0277987 71.7433962,31.815 C72.1414546,33.683968 72.3387861,35.5896406 72.3320755,37.5 L72.1811321,42.33 C72.1811321,43.755 71.7886792,44.295 71.7886792,45.645 C71.7886792,46.56 71.5018868,46.725 71.3509434,47.46 C71.2754717,47.805 70.9584906,48.84 70.8226415,49.29 C70.6867925,49.74 70.1886792,50.31 69.9622642,50.91 C69.8203681,51.5086921 69.6180871,52.0916406 69.3584906,52.65 C68.7319557,53.6628051 68.1625249,54.7094177 67.6528302,55.785 C67.4553691,56.3252297 67.1351087,56.8128841 66.7169811,57.21 C66.2037736,57.75 66.2943396,58.035 65.7811321,58.71 C65.2679245,59.385 65.3886792,59.4 64.6037736,60.015 C64.3622642,60.21 63.9245283,60.96 63.5320755,61.305 C63.1396226,61.65 62.7622642,62.28 62.4301887,62.565 C62.0981132,62.85 61.1773585,63.255 60.9207547,63.48 C60.1166619,64.3056616 59.2144302,65.0309951 58.2339623,65.64 C57.3735849,66.27 56.4830189,67.365 55.2150943,67.365 L53.7056604,68.385 C52.6714746,68.6937184 51.6622997,69.0798224 50.6867925,69.54 C49.6630487,69.6794464 48.6531117,69.905262 47.6679245,70.215 C46.8679245,71.145 46.0226415,70.845 44.6490566,71.235 C44.3924528,71.235 41.5396226,71.595 41.3584906,71.595 C40.1358491,71.505 39.6830189,71.595 38.3396226,71.43 C37.2389911,71.5039157 36.1345938,71.5039157 35.0339623,71.43 C33.9717699,71.3297295 32.9239342,71.1134236 31.909434,70.785 C31.3811321,70.575 31.0490566,70.785 30.5509434,70.305 C30.0528302,69.825 30.445283,69.75 29.3886792,69.75 C28.6754685,69.6393985 28.0040058,69.34456 27.4415094,68.895 C26.4782036,68.8013573 25.5385143,68.5425278 24.6641509,68.13 C24.3320755,67.905 24.3169811,68.025 24.045283,67.89 C23.7735849,67.755 23.7735849,67.605 23.5773585,67.485 C23.172288,67.2744687 22.7327175,67.1373266 22.2792453,67.08 C21.5047046,66.7592225 20.7980086,66.2961254 20.1962264,65.715 C19.5471698,65.16 18.5811321,64.71 18.1433962,64.32 C17.813537,64.0378368 17.5330078,63.7033057 17.3132075,63.33 C16.890566,62.715 16.7849057,62.955 16.3622642,62.55 C15.9396226,62.145 15.2603774,61.455 14.6415094,60.84 C14.086859,60.2363551 13.5820794,59.5892593 13.1320755,58.905 C12.5283019,58.11 11.9245283,57.945 11.9245283,56.685 C11.4566038,55.98 10.8075472,55.785 10.4150943,54.75 C10.1238683,53.9320163 9.75490679,53.1434558 9.31320755,52.395 C9.07054824,52.0565058 8.85359593,51.7005211 8.66415094,51.33 C8.48301887,50.895 8.66415094,50.355 8.31698113,49.95 C7.83369573,49.2553701 7.48555933,48.4769589 7.29056604,47.655 C7.14119413,46.7084894 6.93452984,45.7717898 6.67169811,44.85 C6.43018868,44.04 6.49056604,42.705 6.29433962,41.85 C6.04235325,39.9299251 6.00691353,37.9878917 6.18867925,36.06 C6.18867925,36.06 7.13962264,31.155 7.23018868,30.87 C7.34103721,30.377616 7.39672192,29.8745553 7.39622642,29.37 C7.39622642,28.95 7.69811321,28.785 7.87924528,28.35 C8.16603774,27.63 8.42264151,26.76 8.73962264,26.1 C9.01249956,25.3712038 9.35097814,24.6683555 9.7509434,24 C10.2143498,23.4003563 10.6092285,22.7513694 10.9283019,22.065 C11.7991481,20.8642774 12.5955913,19.6119587 13.3132075,18.315 C14.5207547,18.03 14.5358491,17.28 15.0188679,16.365 C15.4612571,15.6456525 16.0723895,15.0434863 16.8,14.61 C17.4606215,14.068022 18.1794421,13.6001874 18.9433962,13.215 C20.0754717,12.705 19.3056604,12.825 19.8490566,12.285 C20.3924528,11.745 20.4981132,12.105 20.845283,11.565 C21.7358491,11.565 22.2339623,10.86 23.0792453,10.575 C24.4528302,10.095 23.5320755,9.645 25.3735849,9.645 L26.5811321,8.475 C28,8.475 29.6,7.605 30.9886792,7.605 L31.3660377,7.5 Z M4.09056604,28.575 C4.00657566,27.3877598 4.27979237,26.2025181 4.8754717,25.17 C5.32830189,24.54 6.21886792,23.43 7.00377358,23.22 C7.13962264,24.84 6.05283019,28.755 4.73962264,28.905 L4.73962264,28.575 C5.21452312,27.4990299 5.61298292,26.391318 5.93207547,25.26 L4.09056604,28.575 Z M74.8075472,25.905 C74.2641509,25.5 73.2981132,23.355 74.5962264,23.01 C74.5962264,23.835 75.8792453,25.515 75.8792453,27.075 C76.0150943,27.27 76.1056604,27.27 76.1056604,27.51 L76.1056604,28.155 C76.0813884,28.4072834 76.0410561,28.6577852 75.9849057,28.905 L75.7735849,28.905 L75.7735849,28.575 C75.7735849,28.335 75.4113208,26.655 75.3358491,26.115 C75.2193192,25.4104972 74.9289003,24.7456779 74.490566,24.18 L74.8075472,25.905 Z M72.5735849,29.205 C72.9509434,29.805 74.2037736,30.885 74.0830189,31.26 C73.4643232,30.7320151 72.8747848,30.1711978 72.3169811,29.58 C71.7841031,28.9475508 71.3234274,28.2583407 70.9433962,27.525 C70.7924528,27.285 70.309434,25.47 70.0830189,24.945 C69.5245283,23.58 71.3660377,25.095 71.5924528,25.26 L71.6981132,26.325 L70.9433962,25.74 L70.8226415,25.815 L71.0641509,26.445 L71.0641509,26.865 C71.5924528,27.63 71.9849057,28.365 72.4981132,29.205 L72.5735849,29.205 Z M74.2943396,26.325 C74.8448099,27.3883884 75.139334,28.5642564 75.154717,29.76 C75.154717,29.76 75.0490566,29.97 75.0490566,29.97 C74.4867334,29.264455 74.1502291,28.4075522 74.0830189,27.51 L73.9773585,27.51 L73.1773585,25.83 C72.9660377,26.13 73.0113208,25.83 73.0113208,26.175 L73.0113208,26.28 C73.0113208,26.88 74.7018868,29.85 74.4150943,30.465 C72.760093,28.7413155 71.9923149,26.3583867 72.3320755,24 C72.8754717,24.15 73.1622642,24.645 73.4641509,25.11 C73.7660377,25.575 74.1283019,25.62 74.3698113,26.355 L74.2943396,26.325 Z M2.05283019,33.18 C1.2002435,32.0595739 1.24415068,30.5012613 2.15849057,29.43 L2.94339623,30.48 C2.80754717,30.93 2.68679245,31.785 2.26415094,31.905 L2.26415094,31.365 L2.26415094,29.865 C1.55471698,30.03 1.96226415,32.865 1.99245283,33.18 L2.05283019,33.18 Z M5.22264151,31.68 C5.22264151,31.32 6.02264151,30.72 6.4,30.72 C6.77735849,30.72 5.91698113,33 5.28301887,33 L6.03773585,31.59 L5.6,32.025 C5.40377358,31.89 5.35849057,32.025 5.35849057,31.68 L5.22264151,31.68 Z M2.44528302,33.93 C2.97358491,32.955 3.2,30.36 4.27169811,30.075 C4.62514495,30.9609259 4.77470813,31.9141977 4.70943396,32.865 C4.55849057,34.905 3.98490566,34.365 3.74339623,35.325 C3.2,35.19 3.74339623,34.365 3.74339623,33.675 C3.84727314,32.9798218 3.89773346,32.2777925 3.89433962,31.575 C3.39088923,32.6562129 3.09402502,33.820989 3.01886792,35.01 L3.01886792,35.325 C2.29433962,35.25 2.62641509,34.47 2.36981132,33.93 L2.44528302,33.93 Z M76.3320755,31.8 C76.2748633,31.3636028 76.4898309,30.9363546 76.8754717,30.72 C77.1142409,31.1499817 77.2583053,31.6254904 77.2981132,32.115 L77.2981132,33.18 C77.3446833,33.5871835 77.1866309,33.991064 76.8754717,34.26 L76.8754717,31.575 C76.6037736,31.695 76.5584906,31.575 76.5584906,31.905 C76.5584906,32.235 76.845283,32.37 76.3471698,32.55 L76.3320755,31.8 Z M72.4528302,31.38 L73.554717,32.445 L73.2528302,32.685 L73.4490566,33.72 C72.9660377,33.585 72.3773585,32.22 72.3773585,31.47 L72.4528302,31.38 Z M75.2754717,36.3 C73.7660377,35.88 73.9471698,31.995 74.9584906,31.26 C75.5655759,31.9910548 75.9897377,32.8546379 76.1962264,33.78 C76.6792453,35.475 76.1962264,35.355 75.9245283,36.615 L75.7132075,36.615 L75.5924528,35.55 C75.6443016,35.1955127 75.602694,34.8337214 75.4716981,34.5 C75.345202,34.1663213 75.2590632,33.8188844 75.2150943,33.465 L75.0188679,33.465 L75.2754717,36.3 Z M3.60754717,36.72 C4.25682386,35.3452229 5.21162438,34.1348197 6.4,33.18 L6.26415094,34.14 L6.03773585,34.5 L6.03773585,35.265 L4.27169811,37.74 C3.93445218,37.4813827 3.68651848,37.124912 3.56226415,36.72 L3.60754717,36.72 Z M0.966037736,36.075 L0.966037736,34.05 L1.05660377,33.3 C1.05660377,33.3 3.53207547,37.995 3.9245283,38.58 C5.10188679,40.32 6.27924528,41.475 6.33962264,44.01 C5.72075472,43.845 3.9245283,40.92 3.50188679,40.185 C3.07924528,39.45 0.966037736,36.75 0.966037736,36.075 Z M77.7207547,43.26 C77.7207547,43.635 77.6301887,43.68 77.6150943,44.01 C77.0512343,43.2478505 76.5800385,42.4221179 76.2113208,41.55 C75.7569069,40.7496153 75.252787,39.9781228 74.7018868,39.24 C74.3245283,38.73 73.509434,37.41 73.1924528,36.87 C72.8754717,36.33 72.1509434,34.245 72.9056604,34.05 C73.6756419,35.5194319 74.5800856,36.9153195 75.6075472,38.22 C76.645741,39.6255437 77.3805905,41.2290444 77.7660377,42.93 L77.7207547,43.26 Z M76.2113208,37.68 C76.5967397,36.6824039 77.0663364,35.7189733 77.6150943,34.8 C77.6150943,35.325 77.8264151,35.19 77.8264151,35.655 L77.8264151,36.615 C77.6376746,37.3731626 77.2644844,38.0736717 76.7396226,38.655 C76.412146,38.4367826 76.2143857,38.0718089 76.2113208,37.68 Z M4.63396226,38.43 C4.79795442,38.0210666 5.05649734,37.6562302 5.38867925,37.365 L4.89056604,38.865 C4.7245283,38.865 4.63396226,38.865 4.63396226,38.58 L4.63396226,38.43 Z M72.9811321,38.115 C73.3735849,38.22 73.4037736,38.475 73.4037736,38.97 L73.4037736,40.05 L73.4037736,40.26 C73.4037736,40.59 73.1320755,40.725 72.8603774,40.8 L72.9811321,38.865 L72.9811321,38.115 Z M73.7358491,39.405 L74.0528302,39.405 C74.0528302,39.825 74.0528302,39.72 73.7358491,39.825 L73.7358491,39.405 Z M0.754716981,43.365 C0.623015624,42.5351285 0.623015624,41.6898715 0.754716981,40.86 C0.950943396,40.305 1.47924528,39.27 1.55471698,38.97 C2.02881778,39.1900936 2.35438627,39.6384999 2.41509434,40.155 C1.95046744,41.2681218 1.39516365,42.341688 0.754716981,43.365 Z M2.86792453,41.085 C2.71698113,41.91 3.33584906,43.17 3.33584906,44.01 C3.33584906,44.16 3.21509434,44.175 3.1245283,44.22 L3.00377358,44.22 L2.2490566,42 L2.86792453,41.085 Z M72.5433962,43.68 C72.4631386,42.9722992 72.6879635,42.2638948 73.1622642,41.73 C73.5789458,41.2077711 74.022295,40.707114 74.490566,40.23 C74.6716981,40.35 75.0188679,40.71 75.0188679,40.98 L75.0188679,41.085 C74.3967826,42.2679082 73.5977595,43.3502154 72.6490566,44.295 C72.5132075,44.01 72.5433962,44.385 72.5433962,43.98 L72.5433962,43.68 Z M3.39622642,41.55 C4.16603774,42.375 4.48301887,42.675 4.19622642,43.905 L3.83396226,43.905 L3.39622642,41.55 Z M74.8075472,44.76 C73.690566,44.025 74.8075472,42.45 75.5622642,41.97 C75.8037736,42.465 76.4226415,43.185 76.4226415,43.575 L76.4226415,43.905 C76.3930002,44.4546898 76.0627549,44.9440829 75.5622642,45.18 L75.5622642,44.655 C75.5622642,44.085 75.8339623,43.935 75.7735849,43.47 L75.6528302,42.405 C75.109434,42.555 75.109434,44.31 74.8075472,44.76 Z M1.76603774,43.065 C2.29671625,43.7901689 2.65301465,44.6265988 2.80754717,45.51 C1.99245283,45.3 1.85660377,44.085 1.55471698,43.395 L1.76603774,43.065 Z M4.63396226,44.43 C4.67747167,44.1390853 4.74821896,43.8528431 4.84528302,43.575 C5.17735849,43.755 5.38867925,43.815 5.38867925,44.325 C5.38867925,44.49 5.08679245,44.97 4.9509434,44.97 C4.81509434,44.97 4.63396226,44.61 4.63396226,44.43 Z M73.0867925,45.075 C73.1157813,44.8862098 73.1880861,44.7065774 73.2981132,44.55 L73.7358491,44.55 L73.9169811,45.405 L73.7056604,46.035 C73.2877239,45.912619 73.0239533,45.503453 73.0867925,45.075 Z M4.42264151,51.615 C3.69811321,51.615 2.4754717,49.74 2.15849057,49.155 C1.79112173,47.8890772 1.5037686,46.601565 1.29811321,45.3 C2.19901242,45.4745009 2.80750356,46.315806 2.68679245,47.22 L2.11320755,46.17 C1.91698113,46.17 1.82641509,46.17 1.82641509,46.47 C1.82641509,46.77 2.09811321,47.025 2.21886792,47.265 C2.33962264,47.505 2.29433962,47.775 2.41509434,48.15 C2.53584906,48.525 3.03396226,49.395 3.33584906,49.47 L3.21509434,49.5 L4.42264151,51.615 Z M76.8754717,44.79 L77.1471698,44.79 L77.3886792,45.75 L75.8792453,46.335 L76.8754717,44.79 Z M5.56981132,45.72 C5.56981132,45.39 5.56981132,44.865 6.00754717,44.865 C6.44528302,44.865 7.29056604,48.51 7.29056604,49.47 C7.29056604,49.935 7.0490566,51.51 6.65660377,51.615 C6.59766174,49.6722443 6.39078111,47.736712 6.03773585,45.825 L5.82641509,45.825 L5.82641509,46.155 L5.6,46.155 C5.6,45.855 5.49433962,45.975 5.49433962,45.72 L5.56981132,45.72 Z M3.86415094,44.865 C4.84528302,45.12 6.29433962,48.645 6.14339623,50.22 L6.03773585,51.075 L5.70566038,51.075 C5.70566038,51.075 5.11698113,49.215 5.02641509,48.87 C4.93584906,48.525 4.70943396,46.935 4.19622642,46.8 C4.35639637,47.6110498 4.56302174,48.4123531 4.81509434,49.2 C4.96603774,49.785 4.81509434,49.83 5.07169811,50.445 C5.25283019,50.835 5.53962264,51.135 5.17735849,51.405 C4.4007358,50.5318064 3.81023566,49.5112682 3.44150943,48.405 L3.44150943,47.745 L3.86415094,44.865 Z M72.754717,49.905 C72.9881834,49.0656298 73.2807281,48.2436043 73.6301887,47.445 C73.9280823,46.6975007 74.4047131,46.0333583 75.0188679,45.51 L75.245283,48 L75.245283,48.105 C75.245283,49.29 74.4301887,51.87 73.6301887,52.08 C73.6301887,51.315 74.2339623,50.49 74.3698113,49.59 C74.5652401,48.6816418 74.6813945,47.7582136 74.7169811,46.83 C74.3849057,47.07 74.5509434,47.655 74.2641509,48.21 C73.9773585,48.765 73.9924528,48.285 73.8264151,49.485 C73.7358491,50.1 73.4188679,51.825 72.8754717,51.975 L72.754717,49.905 Z M77.1169811,46.5 L77.2830189,46.905 C77.1320755,48.765 75.5773585,52.29 74.0528302,52.695 C75.1245283,51.105 76.5735849,50.34 76.6339623,47.655 L76.3169811,47.655 L75.9849057,49.08 L75.8188679,47.34 L77.1169811,46.5 Z M71.4716981,49.5 C71.4716981,48.39 72.5433962,47.1 72.5433962,45.855 L72.754717,45.855 C72.9200553,46.2692512 73.0316444,46.7027368 73.0867925,47.145 C73.0867925,47.385 72.8,47.73 72.754717,48.21 L72.5433962,48.21 L72.5433962,47.895 L72.3320755,47.895 L72.0754717,49.605 L72.0754717,52.605 C71.5773585,52.425 71.4415094,50.31 71.4415094,49.5 L71.4716981,49.5 Z M10.0226415,58.575 C9.26792453,58.575 7.68301887,54.285 6.89811321,54.075 L9.37358491,59.115 C7.54716981,58.155 5.82641509,54.885 5.82641509,52.05 L6.35471698,52.05 C6.35471698,52.275 8.43773585,54.27 8.81509434,54.75 C9.41595557,55.954586 9.82340144,57.2452027 10.0226415,58.575 Z M8.06037736,58.83 C8.61886792,59.445 9.22264151,59.43 9.56981132,59.97 C8.61886792,60.36 6.33962264,57.855 5.81132075,57.06 C5.28745823,56.4008781 4.85586093,55.6742713 4.52830189,54.9 C4.07404389,54.1806876 3.73300476,53.3966475 3.51698113,52.575 C4.33207547,52.8 5.94716981,53.655 5.4490566,54.72 L4.6490566,53.805 C4.6490566,53.805 4.52830189,53.82 4.52830189,54 C4.52830189,54.405 4.89056604,54.6 5.10188679,54.825 C5.27722019,55.1341575 5.41890069,55.461003 5.5245283,55.8 C5.88466667,56.3624811 6.27779892,56.903416 6.70188679,57.42 C7.10943396,57.915 7.57735849,58.32 8.06037736,58.92 L8.06037736,58.83 Z M67.8037736,57.705 C68.3824501,55.6447887 69.2895431,53.6900161 70.490566,51.915 C70.8046641,52.4950343 70.8699712,53.1764734 70.6716981,53.805 C70.6716981,53.805 69.7509434,55.125 69.7358491,55.14 C69.5849057,54.87 69.6301887,55.14 69.6301887,54.915 C69.7514826,54.5504926 69.8977362,54.1946613 70.0679245,53.85 C69.6754717,53.955 68.8,56.01 68.5584906,56.595 C68.3707916,57.1300869 68.2392746,57.6830275 68.1660377,58.245 C68.1660377,58.83 68.1660377,59.745 67.7433962,59.85 L67.8037736,57.705 Z M72.5433962,56.955 C72.6339623,56.595 73.0264151,55.86 73.2075472,55.26 C73.3886792,54.66 73.5698113,54.06 74.3698113,54.06 L74.490566,54.06 C75.2,54.06 74.0981132,55.68 73.9471698,55.995 C73.6363973,56.7008814 73.2731274,57.3827693 72.8603774,58.035 C72.4947298,58.6769234 72.0313937,59.2587985 71.4867925,59.76 C70.8361779,60.1806385 70.1431047,60.5325502 69.4188679,60.81 L69.2075472,60.705 C69.6301887,60.12 71.2754717,59.205 71.8792453,58.545 C72.7358009,57.6954855 73.336941,56.6253908 73.6150943,55.455 L73.4037736,55.455 C73.4037736,55.95 72.9509434,56.85 72.5433962,56.955 Z M68.8754717,59.31 C68.7077188,57.9185887 69.1661348,56.5244932 70.1283019,55.5 C70.7320755,54.705 70.2490566,54.705 71.1849057,54.09 C71.8641509,53.64 71.7433962,53.28 72.6943396,53.07 C72.9165168,54.4397807 72.5856202,55.8413449 71.7735849,56.97 C71.290566,57.675 70.4,59.325 69.4641509,59.4 C70.4699256,58.0382809 71.23554,56.5166223 71.7283019,54.9 L71.5169811,54.9 C70.7704438,56.3930328 69.9021336,57.8228103 68.9207547,59.175 L68.8754717,59.31 Z M7.38113208,51.675 C7.49372768,51.2934593 7.76985053,50.9806467 8.13584906,50.82 C8.58562954,51.9221841 9.12581294,52.9857648 9.7509434,54 C10.168965,55.2038155 10.4425554,56.4524518 10.5660377,57.72 L9.35849057,54.54 C9.17735849,54.075 8.6490566,53.445 8.55849057,53.04 C8.46792453,52.635 8.43773585,51.54 7.96981132,51.54 L7.96981132,51.855 L8.09056604,52.83 C7.8490566,52.83 7.33584906,52.335 7.33584906,52.08 L7.38113208,51.675 Z M11.1396226,58.53 C11.1396226,57.825 11.245283,57.54 11.6830189,57.255 C12.3471698,59.715 16.2113208,61.425 16.2113208,64.755 C15.7886792,64.635 15.5773585,63.435 15.2754717,62.895 C15.1698113,62.7 14.2943396,61.395 14.1735849,61.305 C13.7660377,60.915 11.9849057,58.38 11.7886792,58.305 L11.6830189,58.305 L12.5584906,59.955 C12.3169811,59.955 11.1396226,59.235 11.1396226,58.89 L11.1396226,58.53 Z M14.5962264,64.965 C13.4759819,64.6398188 12.4745817,63.9989686 11.7132075,63.12 C11.0630646,62.0924353 10.5553441,60.9824313 10.2037736,59.82 C10.2037736,59.625 10.2037736,59.64 10.309434,59.505 L12.0754717,60.51 C12.5629576,60.8762179 13.0314813,61.2667174 13.4792453,61.68 C13.8264151,61.98 15.8792453,64.68 15.0943396,64.68 C14.9132075,64.68 12.4981132,61.98 11.9698113,61.785 C12.2742246,62.4130643 12.6823921,62.9859974 13.1773585,63.48 C13.6,63.9 13.645283,63.6 13.9773585,64.17 C14.1526824,64.4555693 14.3441858,64.7310128 14.5509434,64.995 L14.5962264,64.965 Z M62.1886792,65.1 C62.4116003,63.6221822 63.1486584,62.2687393 64.2716981,61.275 C64.5132075,61.08 66.9433962,57.54 66.9433962,58.785 L66.9433962,60 C66.9433962,60.3 65.8867925,60.945 65.645283,61.08 L65.9018868,60.45 C65.0867925,60.45 65.2981132,61.29 64.9056604,61.74 C64.5132075,62.19 64.3471698,62.535 63.9396226,62.925 C63.290566,63.57 62.5962264,65.43 62.1886792,65.58 L62.1886792,65.1 Z M63.2754717,65.325 C63.2754717,63.825 66.6566038,60.39 68.1358491,60.525 C68.8603774,60.525 67.3056604,63.36 66.9132075,63.69 C66.1353806,64.5264802 65.1890788,65.1908843 64.1358491,65.64 C64.1358491,64.785 64.8150943,64.8 65.2981132,64.14 C65.695087,63.6622111 66.0630357,63.161322 66.4,62.64 C66.1132075,62.505 66.490566,62.535 66.0830189,62.535 C66.0830189,62.535 63.909434,65.16 63.2754717,65.22 L63.2754717,65.325 Z M13.0867925,65.175 C13.4792453,65.325 14.8981132,65.88 14.9886792,66.195 C14.0857197,66.0921114 13.2045784,65.8491609 12.3773585,65.475 C11.6965514,65.0537167 11.0413269,64.5929175 10.4150943,64.095 C9.8680558,63.5380628 9.36351578,62.9414127 8.90566038,62.31 C8.6523816,62.0183666 8.42983603,61.7017133 8.24150943,61.365 C7.89433962,60.705 7.62264151,60.72 8.34716981,60.72 L8.55849057,60.72 C9.08306811,60.6657576 9.59809336,60.8875404 9.91698113,61.305 C10.1808605,61.7377853 10.4129118,62.1889612 10.6113208,62.655 C9.87169811,62.16 9.4490566,61.38 8.45283019,61.155 C8.55849057,61.56 9.49433962,62.25 9.96226415,62.655 C10.4301887,63.06 10.8377358,63.6 11.4716981,64.065 C12.0016761,64.5176987 12.5844691,64.9054778 13.2075472,65.22 L13.0867925,65.175 Z M68.4528302,63.135 C68.4488083,62.7053438 68.6167145,62.2916995 68.9196074,61.9850735 C69.2225004,61.6784475 69.6355658,61.5039599 70.0679245,61.5 C70.309434,61.5 70.3849057,61.575 70.3849057,61.83 C69.5239548,62.9617252 68.5642637,64.0158069 67.5169811,64.98 C66.9915796,65.4771974 66.3967803,65.8965119 65.7509434,66.225 C65.5245283,66.36 63.8490566,66.765 63.5924528,66.435 C65.1018868,66.315 67.1245283,64.2 67.909434,64.185 L69.1924528,62.685 L69.0867925,62.595 L68.8754717,62.595 L68.4528302,63.135 Z M16.8301887,64.305 C16.8331389,64.0736723 16.9068427,63.8487113 17.0415094,63.66 L17.6,64.17 C17.5226551,64.3503335 17.4816302,64.5439841 17.4792453,64.74 C17.4792453,65.13 18.309434,65.43 18.445283,65.805 L17.0867925,65.1 C16.9207547,64.71 16.8301887,64.98 16.8301887,64.635 L16.8301887,64.305 Z M54.9735849,70.05 C54.9735849,69.12 57.0566038,67.395 57.690566,66.75 C58.781516,65.8051467 59.9647538,64.971002 61.2226415,64.26 C61.2910589,64.431988 61.3268813,64.6150662 61.3283019,64.8 L61.3283019,65.22 C61.3268813,65.4049338 61.2910589,65.588012 61.2226415,65.76 L59.7132075,66.345 L59.9245283,65.865 C58.7773585,66.18 58.1584906,67.365 57.3132075,67.995 C56.9055635,68.3773248 56.5318523,68.7938676 56.1962264,69.24 C55.4716981,70.485 55.7584906,69.72 54.9584906,70.05 L54.9735849,70.05 Z M21.3433962,69.825 L21.4339623,69.735 L21.4339623,70.05 C20.1028837,69.7556531 18.8285365,69.2491001 17.6603774,68.55 C16.5883965,67.8201497 15.8504371,66.6985601 15.6075472,65.43 C16.3221094,65.573229 17.0237867,65.7738885 17.7056604,66.03 C17.9622642,66.135 18.2339623,66.45 18.5207547,66.6 C18.8075472,66.75 19.1698113,66.825 19.4415094,66.975 C20.527927,67.654496 21.462847,68.5478391 22.1886792,69.6 C21.2528302,69.39 18.6113208,67.17 17.6603774,67.14 C17.8611354,67.5145403 18.2121423,67.7870505 18.6264151,67.89 L18.9584906,67.89 L19.8490566,68.82 L20.3622642,68.82 L21.3433962,69.825 Z M62.4,66.195 L62.7169811,66.195 C62.4478474,67.4664263 61.6388623,68.5602071 60.4981132,69.195 C59.9245283,69.54 58.9886792,69.78 58.7169811,69.975 C58.445283,70.17 58.8075472,70.23 57.8867925,70.455 C57.5300847,70.5693151 57.1593958,70.6349156 56.7849057,70.65 C56.8754717,69.885 60.2264151,69.15 60.5584906,67.86 L56.845283,69.87 C56.9811321,69.06 58.0679245,68.22 58.6867925,67.815 C59.0560571,67.5292332 59.4443663,67.2686374 59.8490566,67.035 C60.3018868,66.795 60.7396226,66.735 60.9962264,66.375 L62.4,66.195 Z M21.0113208,70.92 L20.754717,70.785 L20.754717,70.905 C19.2960516,70.8192114 17.8763405,70.4036556 16.6037736,69.69 C15.572009,68.9676005 14.6207171,68.1379083 13.7660377,67.215 L15.2754717,67.005 C15.6226415,67.005 16.0150943,67.77 16.1358491,68.01 L14.8981132,67.5 L14.8981132,67.755 C16.1509434,68.04 18.490566,70.215 20.1811321,70.215 C20.7404627,70.5320561 21.3795713,70.6830258 22.0226415,70.65 L22.3396226,70.65 L22.3396226,70.86 L21.0113208,70.92 Z M62.1886792,68.55 C62.4150943,68.22 62.8679245,67.59 63.3811321,67.59 C63.8943396,67.59 64.5132075,67.59 64.5735849,68.115 C63.8339623,68.31 62.0830189,70.065 61.1471698,70.5 C59.7762255,71.2793911 58.1804333,71.5754106 56.6188679,71.34 L56.6188679,71.115 L58.0226415,70.995 C58.8597311,70.5794811 59.7276911,70.2284493 60.6188679,69.945 C61.4655398,69.6559917 62.2347301,69.1788936 62.8679245,68.55 L62.1886792,68.55 Z M25.0113208,69.405 L25.1320755,69.72 L23.9245283,69.6 C23.6377358,69.195 23.2754717,68.955 23.2754717,68.22 L23.2754717,67.905 C23.4264151,67.905 24.6188679,68.52 25.0716981,68.7 C25.6738435,68.9466418 26.2885135,69.1619337 26.9132075,69.345 C27.7735849,69.585 29.9320755,70.485 29.9320755,71.34 C29.7207547,71.19 27.9396226,70.38 27.5924528,70.23 C26.7644064,69.8367862 25.885656,69.5591607 24.9811321,69.405 L25.0113208,69.405 Z M48.6188679,71.55 C49.509434,70.23 53.2679245,69.63 53.7811321,68.865 L54.3245283,68.865 L53.9471698,69.93 L53.1320755,69.93 L53.6150943,69.375 C53.0867925,69.585 52.7245283,69.54 52.1962264,69.78 C51.809327,69.9778392 51.4111697,70.1531356 51.0037736,70.305 C50.2333902,70.7426516 49.4369535,71.1333718 48.6188679,71.475 L48.6188679,71.55 Z M22.8528302,69.51 C22.1184531,68.5362544 21.2837356,67.6413993 20.3622642,66.84 C19.3529453,66.1992408 18.4470798,65.4102981 17.6754717,64.5 C17.9018868,64.59 20.4226415,66.36 20.6943396,66.63 C21.1926964,66.9817597 21.6530181,67.3839088 22.0679245,67.83 C22.2237703,68.1074506 22.3648451,68.3928437 22.490566,68.685 C22.5660377,68.835 22.6264151,68.97 22.7169811,69.12 C22.746302,69.1879902 22.781662,69.2532483 22.8226415,69.315 C22.8226415,69.315 22.9584906,69.405 22.9283019,69.435 L22.8528302,69.51 Z M29.7207547,73.32 L29.7207547,73.485 C28.3168656,73.6124607 26.9060008,73.3310089 25.6603774,72.675 C24.6037736,72.15 23.4113208,71.58 23.1245283,70.365 C24.5693929,70.2874672 26.0173134,70.4445271 27.4113208,70.83 C28.1509434,71.13 30.4301887,72.165 30.5660377,72.84 L30.2339623,72.93 L26.6415094,71.655 L24.890566,71.085 L24.8,71.355 L29.7207547,73.32 Z M50.9886792,71.115 C51.9698113,71.115 52.845283,70.695 53.6754717,70.695 L54.2188679,70.695 L55.290566,70.8 C55.1849057,72.165 50.4603774,74.415 48.9358491,73.695 C49.1622642,73.35 49.4339623,73.035 49.9018868,73.26 C50.1584906,72.915 53.4792453,72.075 53.6754717,71.34 L53.2377358,71.25 C52.5048985,71.7491513 51.6939229,72.1242275 50.8377358,72.36 C50.1132075,72.57 49.9320755,72.795 49.5396226,72.9 C49.1471698,73.005 48.4830189,73.065 48.0301887,73.155 C48.1207547,72.15 50.2188679,71.655 50.9433962,71.115 L50.9886792,71.115 Z M31.3207547,72.405 C31.154717,72.405 31.109434,72.09 30.7169811,71.97 L30.445283,71.025 L31.4264151,71.145 C31.8037736,71.685 32.4226415,71.34 32.6188679,72.09 L31.3358491,71.43 C31.3358491,71.955 31.3358491,72.045 31.8641509,72.09 L31.8641509,72.3 C31.6910812,72.3679898 31.5068516,72.4035883 31.3207547,72.405 Z M34.1735849,76.5 L36.6339623,75.195 C37.1169811,74.925 38.5358491,74.13 39.0037736,73.8 C40.4565474,72.4168075 42.3956816,71.6524609 44.4075472,71.67 C44.2566038,72.225 43.6981132,72.075 43.245283,72.45 C42.9053339,72.7557575 42.5474758,73.0412565 42.1735849,73.305 C41.8100934,73.5972832 41.4152502,73.8488059 40.9962264,74.055 C40.5892851,74.2889057 40.205226,74.5600842 39.8490566,74.865 C39.1097471,75.4550284 38.3044263,75.9583539 37.4490566,76.365 C36.5219577,76.8466479 35.4622302,77.0151445 34.4301887,76.845 L34.1735849,76.5 Z M37.0867925,74.25 C35.9365408,73.5176932 34.8508862,72.6897238 33.8415094,71.775 L34.7169811,71.775 C35.4331894,71.7612255 36.1373098,71.9596534 36.7396226,72.345 C37.2242042,72.7191931 37.6692586,73.1413626 38.0679245,73.605 C37.8503364,73.8985548 37.5513446,74.1227003 37.2075472,74.25 L37.0867925,74.25 Z M38.5962264,72.315 C38.34246,72.3321051 38.0902464,72.3671943 37.8415094,72.42 L37.4037736,71.82 L40.5283019,72.06 C40.3018868,72.825 39.3207547,72.315 38.5962264,72.315 Z M20.5886792,72.42 C20.9337502,71.9513052 21.4286599,71.6128509 21.9924528,71.46 L22.4150943,71.46 C22.925685,71.4804265 23.3647223,71.8258254 23.5018868,72.315 L22.309434,72.18 L21.554717,72.18 L21.554717,72.39 C22.562069,72.3558482 23.560971,72.5833325 24.4528302,73.05 C25.3025265,73.3116734 26.1344284,73.6273234 26.9433962,73.995 L29.0113208,74.205 L29.0113208,74.325 L30.7320755,73.98 C30.2490566,74.655 27.9396226,74.49 27.3962264,74.85 L25.6603774,74.475 C24.7861541,74.2013625 23.9292643,73.8757759 23.0943396,73.5 C22.2873653,73.0868461 21.4496878,72.7358163 20.5886792,72.45 L20.5886792,72.42 Z M44.845283,72.24 C45.693195,71.6746747 46.6404454,71.2727013 47.6377358,71.055 L47.7433962,71.055 L46.8679245,72.555 L46.2490566,72.555 L46.354717,72.03 L44.845283,72.24 Z M54.8830189,73.98 C54.309434,74.34 52.4981132,74.55 51.954717,74.91 C51.5949678,74.9233188 51.2367304,74.9634313 50.8830189,75.03 L49.3735849,74.805 L49.3735849,74.49 C49.9517375,74.4548609 50.5267185,74.3796783 51.0943396,74.265 C51.3557186,74.2202848 51.6131261,74.1550812 51.8641509,74.07 C52.3169811,74.07 52.0603774,74.235 52.6641509,74.07 C53.605131,73.7952324 54.5235424,73.4492197 55.4113208,73.035 C55.2301887,72.405 55.1849057,72.87 54.5358491,72.93 L55.1849057,72.18 L56.5886792,72.09 C56.8976804,72.2199261 57.187195,72.3915397 57.4490566,72.6 C56.61923,73.0873514 55.7625374,73.5280442 54.8830189,73.92 L54.8830189,73.98 Z M34.5962264,74.745 C34.7272117,74.6646846 34.8805313,74.6279077 35.0339623,74.64 L35.245283,74.64 C35.3658277,74.6278192 35.4860608,74.6658361 35.5773585,74.745 C35.3743598,74.9606657 35.1118181,75.1119882 34.8226415,75.18 C34.8226415,75.18 34.5811321,75.03 34.490566,74.97 C33.8740623,74.9264967 33.2730459,74.7580387 32.7245283,74.475 C31.9245283,74.19 31.5018868,73.665 31.2150943,73.575 C31.3056604,72.48 35.4867925,72.825 35.6377358,74.1 L35.2,74.1 C34.8075472,74.1 35.0943396,74.1 34.9886792,74.22 C34.1475848,73.8185307 33.2186738,73.6328783 32.2867925,73.68 C32.5132075,73.98 33.1169811,74.025 33.5396226,74.145 C33.9544106,74.2545238 34.3371893,74.4601381 34.6566038,74.745 L34.5962264,74.745 Z M42.0981132,73.995 C43.2150943,73.71 42.8226415,72.825 45.1169811,72.825 C46.0102174,72.8787329 46.8855467,73.0974692 47.6981132,73.47 C47.5320755,74.1 44.6792453,75.285 43.6075472,75.285 L43.1849057,75.285 C42.9283019,75.285 42.9433962,75.195 42.7471698,75.075 C42.2037736,75.075 41.8264151,75.075 41.7811321,74.535 L43.9245283,74.4 L44.1811321,74.025 L42.7471698,74.025 C42.3245283,74.025 42.7471698,74.19 42.0981132,74.25 L42.0981132,73.995 Z M29.7056604,75.72 C29.8113208,75.3 30.9735849,74.85 31.5320755,74.85 L31.6377358,74.85 C32.1056604,74.85 31.9698113,75.03 32.4981132,75.075 L32.4981132,75.285 L31.6377358,75.285 C31.8188679,75.915 31.8037736,75.495 32.1811321,75.495 C32.5704602,75.6077269 32.9697741,75.6830722 33.3735849,75.72 C34.0981132,75.72 34.1132075,75.48 34.2339623,75.93 L33.2377358,76.2 L32.1811321,76.38 C32.1811321,76.38 29.9924528,75.78 29.7056604,75.72 Z M48.7849057,75.93 C47.8081596,76.2461806 46.7924232,76.4278705 45.7660377,76.47 C45.2831568,76.2629022 44.7760603,76.1167633 44.2566038,76.035 C44.4377358,75.36 45.509434,75.72 45.9773585,75.72 L46.309434,75.6 L46.0830189,75.18 C46.411703,74.9629837 46.7815234,74.8149593 47.1698113,74.745 L47.3811321,74.745 C47.8037736,74.745 48.5735849,75.555 48.7849057,75.93 Z M39.6226415,75.72 C39.8490103,75.3676985 40.1899232,75.1030249 40.5886792,74.97 C41.2344246,75.089517 41.8378085,75.3738162 42.3396226,75.795 C42.7622642,76.065 43.9396226,76.245 43.9396226,76.68 C43.9396226,77.115 42.4301887,76.995 42.0981132,76.995 C41.7660377,76.995 39.6226415,76.11 39.6226415,75.72 Z M39.8339623,77.1 C39.6851161,77.1144326 39.5358211,77.0773421 39.4113208,76.995 C38.9132075,77.235 37.9018868,77.265 37.690566,76.92 L38.2188679,76.68 L38.5660377,76.86 L39.9396226,76.695 L40.3169811,77.07 L39.8339623,77.1 Z M31.6981132,40.8 C32.789143,40.5826142 33.9127438,40.5826142 35.0037736,40.8 C33.9072034,40.9521225 32.7946834,40.9521225 31.6981132,40.8 Z M45.4339623,41.46 C45.4339623,41.19 48.4528302,41.28 48.4528302,41.46 C47.4525294,41.614287 46.434263,41.614287 45.4339623,41.46 Z M35.7735849,35.655 C35.154717,35.79 33.3735849,36.525 34.2641509,36.9 C35.154717,37.275 35.7735849,35.655 35.7735849,35.655 Z M65.6754717,49.035 C66.0981132,48.825 66.1735849,50.31 65.9622642,51.375 C65.7620195,52.1854144 65.4251868,52.956302 64.9660377,53.655 C64.9660377,53.655 65.554717,51.705 65.6,51.21 C65.645283,50.715 65.6754717,49.035 65.6754717,49.035 Z M15.4867925,44.895 C15.6528302,45.195 15.4867925,45.9 15.2,46.89 C14.8723774,48.0121041 14.6202482,49.1546276 14.445283,50.31 C14.5114147,50.818724 14.6225365,51.3206659 14.7773585,51.81 C14.4846287,51.3987988 14.2744978,50.9353258 14.1584906,50.445 C14.251421,49.3867812 14.4331856,48.3381317 14.7018868,47.31 C14.9433962,46.395 15.4867925,44.865 15.4867925,44.865 L15.4867925,44.895 Z M16.3924528,48.84 C16.7245283,49.005 16.3924528,49.905 16.1056604,50.655 C15.8045668,51.3551424 15.730697,52.1311708 15.8943396,52.875 C15.5360332,52.2533325 15.3147922,51.5630798 15.245283,50.85 C15.245283,50.025 16.3924528,48.84 16.3924528,48.84 Z M56.8754717,36.705 C57.0867925,36.375 55.7584906,35.955 55.6377358,36.285 C55.5169811,36.615 56.8754717,36.705 56.8754717,36.705 Z M41.7811321,37.365 C42.1886792,37.365 42.7320755,38.865 42.6113208,39.75 C42.490566,40.635 41.9018868,42.315 41.1018868,42.315 C40.3018868,42.315 40.2264151,41.82 40.2264151,41.82 C40.2264151,41.82 41.2981132,42.195 41.7358491,41.445 C42.2274973,40.7757597 42.4187115,39.9342464 42.2641509,39.12 C42.0981132,38.385 41.8113208,37.395 41.8113208,37.395 L41.7811321,37.365 Z M45.7207547,30.345 C45.7207547,29.745 48.4377358,29.82 48.4830189,30.195 C48.5283019,30.57 45.7509434,30.435 45.7207547,30.345 Z M54.3396226,35.415 C54.5056604,35.04 55.954717,34.92 56.1207547,35.415 C56.2867925,35.91 54.3396226,35.415 54.3396226,35.415 Z M43.3811321,34.05 C43.0943396,33.645 40.9358491,34.545 40.2716981,35.37 C39.5843672,36.2444287 39.1277739,37.275655 38.9433962,38.37 C38.8226415,39.39 39.154717,40.845 39.5320755,40.755 C39.909434,40.665 39.4415094,38.985 39.5320755,37.95 C39.6179545,36.9967468 40.0659229,36.1117732 40.7849057,35.475 C41.5507599,34.8607781 42.3992125,34.355898 43.3056604,33.975 L43.3811321,34.05 Z M42.0830189,52.995 L43.0339623,52.995 L42.5811321,53.895 L42.5811321,54.36 L42.8528302,54.72 L42.445283,55.605 L42.7018868,55.965 L42.9584906,56.37 L42.4150943,57.165 L42.6716981,57.57 L42.9283019,57.975 L42.4301887,58.785 L42.6867925,59.19 L42.8528302,59.52 L42.5207547,60.375 L42.7169811,60.75 L42.9433962,61.17 L42.4603774,61.95 L42.6716981,62.37 L42.3698113,62.76 C42.2188679,62.88 42.0679245,62.865 41.9924528,62.625 C41.9169811,62.385 41.9924528,62.37 41.9924528,62.13 L41.9924528,61.605 C41.9924528,61.44 41.9924528,61.245 41.9924528,61.05 L41.9924528,59.805 L41.9924528,59.58 C41.9924528,58.38 41.9924528,57.195 41.9924528,56.73 C41.9924528,56.265 41.9924528,56.055 41.9924528,55.62 L41.9924528,54.945 L41.9018868,54.54 L42.1735849,53.76 L42.0679245,53.34 L42.0679245,53.055 L42.0830189,52.995 Z M36.3169811,52.995 L37.3132075,53.13 L36.9056604,54.03 L36.8301887,54.42 L37.0867925,54.78 L36.6792453,55.665 L36.9358491,56.025 L37.1924528,56.43 L36.6641509,57.225 L36.9056604,57.63 L37.1622642,58.035 L36.6641509,58.845 L36.9207547,59.25 L37.1018868,59.58 L36.754717,60.435 L36.9660377,60.81 L37.1773585,61.23 L36.6943396,62.01 L36.9207547,62.43 L36.6792453,63 C36.5283019,63.12 36.3773585,63.105 36.3018868,62.865 C36.2264151,62.625 36.3018868,62.61 36.3018868,62.37 L36.3018868,61.89 C36.3018868,61.725 36.3018868,61.53 36.3018868,61.335 L36.3018868,60.09 L36.3018868,59.865 C36.3018868,58.665 36.3018868,57.48 36.3018868,57.015 C36.3018868,56.55 36.3018868,56.34 36.3773585,55.905 L36.3773585,55.23 L36.2264151,54.57 L36.4981132,53.79 L36.3924528,53.37 L36.3924528,53.085 L36.3169811,52.995 Z M43.9698113,34.68 C44.845283,34.185 47.7132075,36.405 47.3358491,36.825 C46.9584906,37.245 45.8264151,36.54 45.4641509,36.045 C45.0131945,35.5360816 44.5069713,35.0782977 43.954717,34.68 L43.9698113,34.68 Z M32.1660377,38.295 C32.1660377,37.755 35.0490566,37.65 35.0792453,38.1 C35.109434,38.55 32.1660377,38.295 32.1660377,38.295 Z M26.6415094,36 C27.3921514,35.973879 28.1112107,35.693346 28.6792453,35.205 C29.4792453,34.665 29.4792453,34.305 28.6792453,34.635 C27.9412801,35.0308728 27.2348225,35.4821857 26.5660377,35.985 L26.6415094,36 Z M43.8641509,33.27 C45.0443256,33.1024332 46.2343189,33.0122383 47.4264151,33 C48.4981132,33 50.6113208,32.76 50.7320755,33.12 C50.8528302,33.48 50.490566,33.42 48.9962264,33.825 C47.5018868,34.23 46.6716981,34.485 45.7962264,34.035 C45.1923384,33.7278499 44.5726148,33.4524696 43.9396226,33.21 L43.8641509,33.27 Z M47.7584906,35.07 C48.5329938,35.0569824 49.2631346,35.428208 49.7056604,36.06 C49.9924528,36.675 50.3698113,37.215 49.7056604,37.215 C49.0415094,37.215 49.0716981,36.72 48.709434,36.255 C48.3471698,35.79 47.7584906,35.07 47.7584906,35.07 Z M30.3698113,36.015 C29.6754717,36.015 29.7056604,35.355 30.0075472,35.07 C30.7225474,34.7930975 31.4758623,34.6261785 32.2415094,34.575 C32.0253205,34.8092048 31.7563265,34.9891269 31.4566038,35.1 C31.0355703,35.3284925 30.6657881,35.6398221 30.3698113,36.015 Z M32.0301887,37.38 C31.5018868,37.005 31.6981132,35.76 32.4075472,35.235 C33.1169811,34.71 35.4264151,34.98 35.4264151,34.98 C34.5933561,35.2013559 33.8166844,35.5949317 33.1471698,36.135 C32.6943396,36.75 31.9396226,37.335 31.9849057,37.38 L32.0301887,37.38 Z M31.6981132,39.78 C31.6981132,39 35.1396226,39.165 35.1396226,39.585 C35.1396226,40.005 31.6981132,39.78 31.6981132,39.78 Z M30.309434,42.18 C30.309434,41.595 36.6490566,41.565 36.6943396,42.18 C36.7396226,42.795 30.309434,42.18 30.309434,42.18 Z M44.2415094,42.945 C44.3622642,42.285 50.0830189,42.57 50.0830189,42.855 C48.1411152,43.034967 46.1880939,43.0650571 44.2415094,42.945 Z M45.4339623,40.41 C45.4339623,39.915 48.4528302,39.93 48.4528302,40.305 C48.4528302,40.68 45.4339623,40.41 45.4339623,40.41 Z M45.3584906,39.21 C45.3584906,38.715 48.4679245,38.4 48.5132075,39.06 C48.5584906,39.72 45.3584906,39.21 45.3584906,39.21 Z M50.4603774,35.7 C51.0037736,35.58 52.8150943,36.81 52.4075472,37.2 C52,37.59 50.5358491,35.85 50.4603774,35.7 Z M53.0716981,35.955 C53.9471698,35.745 55.5169811,36.81 55.0188679,37.02 C54.5207547,37.23 53.1018868,36 53.1018868,36 L53.0716981,35.955 Z M49.9924528,34.755 C49.9924528,34.305 53.1773585,33.975 53.4339623,34.635 C53.690566,35.295 49.9924528,34.755 49.9924528,34.755 Z M31.0792453,29.205 C31.0792453,28.59 37.5698113,28.755 37.6150943,29.205 C37.6603774,29.655 30.8377358,29.76 31.0792453,29.205 Z M45.6301887,31.5 C45.6301887,31.005 48.4830189,30.9 48.4377358,31.425 C48.3924528,31.95 45.4188679,31.995 45.6301887,31.5 Z M32.1207547,31.125 C32.1207547,30.585 35.3509434,30.63 35.3962264,31.2 C35.4415094,31.77 32.0754717,31.53 32.1207547,31.125 Z M40.8754717,53.115 L40.8754717,52.74 C40.8754717,52.605 40.9509434,52.53 41.1169811,52.53 L44.4226415,52.53 C44.501431,52.5066563 44.5853614,52.5066563 44.6641509,52.53 C44.6641509,52.53 44.6641509,52.665 44.6641509,52.83 C44.6900696,52.9788943 44.6900696,53.1311057 44.6641509,53.28 C44.6641509,53.28 44.5886792,53.37 44.4981132,53.385 C44.228041,53.423732 44.0395986,53.6711889 44.0754717,53.94 L44.0754717,62.265 C44.0772783,62.4541353 44.1979074,62.6219606 44.3773585,62.685 C44.4708817,62.7182887 44.5541015,62.7751447 44.6188679,62.85 C44.638503,62.9389424 44.638503,63.0310576 44.6188679,63.12 L44.6188679,63.39 C44.6188679,63.54 44.6188679,63.615 44.6188679,63.645 L41.0415094,63.645 C40.9207547,63.645 40.845283,63.645 40.845283,63.495 C40.8181458,63.2959091 40.8181458,63.0940909 40.845283,62.895 C40.845283,62.895 40.9509434,62.76 41.0867925,62.715 C41.2226415,62.67 41.4641509,62.52 41.4641509,62.325 L41.4641509,54.15 C41.467753,54.0014985 41.4421152,53.8537288 41.3886792,53.715 C41.324669,53.5978732 41.2158322,53.5113479 41.0867925,53.475 C41.0098689,53.4409131 40.938613,53.395392 40.8754717,53.34 C40.8548798,53.2663958 40.8548798,53.1886042 40.8754717,53.115 Z M35.0641509,53.115 L35.0641509,52.74 C35.0641509,52.605 35.1396226,52.53 35.290566,52.53 L38.6113208,52.53 C38.6903395,52.5082733 38.7738115,52.5082733 38.8528302,52.53 C38.8797866,52.628206 38.8797866,52.731794 38.8528302,52.83 C38.8756005,52.9791466 38.8756005,53.1308534 38.8528302,53.28 C38.8133844,53.34235 38.7457294,53.3815688 38.6716981,53.385 C38.4059394,53.430878 38.221276,53.6733724 38.2490566,53.94 L38.2490566,62.265 C38.2574767,62.4565538 38.3833471,62.6233322 38.5660377,62.685 C38.6595609,62.7182887 38.7427807,62.7751447 38.8075472,62.85 C38.82627,62.9390384 38.82627,63.0309616 38.8075472,63.12 L38.8075472,63.39 C38.8075472,63.54 38.8075472,63.615 38.8075472,63.645 L35.2301887,63.645 C35.0943396,63.645 35.0339623,63.645 35.0339623,63.495 C35.0185175,63.2952945 35.0185175,63.0947055 35.0339623,62.895 C35.0842749,62.802937 35.1724478,62.7372206 35.2754717,62.715 C35.5320755,62.64 35.6528302,62.52 35.6528302,62.325 L35.6528302,54.15 C35.6644001,54.0010223 35.6384628,53.851526 35.5773585,53.715 C35.5162444,53.5954981 35.4062075,53.5080188 35.2754717,53.475 L35.0641509,53.34 C35.0525307,53.2654445 35.0525307,53.1895555 35.0641509,53.115 Z M44.6339623,28.98 C44.6339623,28.515 51.3358491,28.5 51.4264151,28.98 C51.5169811,29.46 44.6339623,28.98 44.6339623,28.98 Z M28.3018868,33.18 C28.845283,33.06 31.0339623,33.675 30.9132075,34.095 C30.7924528,34.515 27.9698113,33.555 28.3018868,33.18 Z M26.354717,35.16 C26.0981132,34.83 23.8641509,34.635 23.909434,35.16 C23.954717,35.685 26.354717,35.16 26.354717,35.16 Z M25.9773585,33.66 C26.4754717,33.33 28.3773585,34.125 27.9698113,34.485 C27.5622642,34.845 25.9773585,33.66 25.9773585,33.66 Z M48.090566,52.56 C48.5433962,52.56 51.109434,55.32 50.8226415,55.695 C50.5358491,56.07 48.090566,52.56 48.090566,52.56 Z M18.1886792,51.69 C18.6867925,51.69 18.1886792,52.77 18.5509434,53.64 C19.2166917,54.6453121 20.0308323,55.5453827 20.9660377,56.31 C20.9660377,56.31 17.9471698,55.035 17.645283,53.715 C17.4503119,52.9920003 17.6573324,52.2205255 18.1886792,51.69 Z M31.6226415,52.155 C31.9849057,52.485 29.509434,55.53 29.0415094,55.155 C28.5735849,54.78 31.6226415,52.155 31.6226415,52.155 Z M22.4,43.575 C21.7895353,43.34774 21.1089027,43.4027301 20.5433962,43.725 C19.3830381,44.4288886 18.8392583,45.8166858 19.2150943,47.115 C19.4241284,47.8245308 19.7787426,48.4833617 20.2566038,49.05 C20.2566038,49.05 19.0943396,45.465 20.8301887,44.76 L21.8415094,44.4 C22.0528302,44.4 23.5018868,44.175 22.4,43.575 Z M14.6566038,38.265 C15.154717,38.265 15.5320755,39.165 15.3660377,40.86 C14.9939782,42.5076019 14.489207,44.1228066 13.8566038,45.69 C13.6761876,46.8531315 13.6761876,48.0368685 13.8566038,49.2 C13.1824809,47.4293187 13.0874066,45.4924764 13.5849057,43.665 C14.0094722,42.6449175 14.3281061,41.5844167 14.5358491,40.5 C14.6631955,39.7571279 14.703716,39.0021184 14.6566038,38.25 L14.6566038,38.265 Z M44.845283,44.25 L49.3735849,44.25 C49.9471698,44.25 50.0377358,43.665 49.3735849,43.65 L44.9358491,43.65 C44.3622642,43.65 44.2716981,44.265 44.9358491,44.265 L44.845283,44.25 Z M45.554717,45.555 L48.8,45.555 C49.2377358,45.555 49.1924528,45.015 48.7245283,45.015 L45.5396226,45.015 C45.1018868,45.015 45.0415094,45.585 45.5396226,45.6 L45.554717,45.555 Z M35.909434,43.905 C36.168514,43.8834954 36.407936,43.7591252 36.5735849,43.56 C36.9811321,43.17 31.6830189,43.065 31.0943396,43.56 C30.5056604,44.055 34.9433962,43.98 35.8792453,43.98 L35.909434,43.905 Z M35.2754717,45.195 C37.9773585,44.715 31.5169811,44.415 31.5622642,44.805 C31.6075472,45.195 33.3132075,45.54 35.2754717,45.195 Z M45.8415094,26.085 L49.8716981,26.085 C50.490566,26.085 50.5660377,26.64 49.8716981,26.64 L45.8415094,26.64 C45.6,26.64 45.4339623,26.64 45.4339623,26.43 C45.4339623,26.22 45.6,26.085 45.8415094,26.085 Z M45.2075472,27.39 L50.5207547,27.39 C51.1698113,27.39 51.3056604,28.065 50.5207547,28.065 L45.2830189,28.065 C44.9962264,28.065 44.7396226,28.065 44.7396226,27.78 C44.7396226,27.495 44.9660377,27.39 45.2679245,27.39 L45.2075472,27.39 Z M32.1962264,27.18 L37.1471698,27.27 C37.7811321,27.27 37.7962264,28.02 37.1471698,28.005 L32.1358491,27.9 C31.5169811,27.9 31.5320755,27.18 32.1358491,27.18 L32.1962264,27.18 Z M32.4528302,25.845 L36.5132075,25.845 C37.0867925,25.845 37.0264151,26.475 36.5132075,26.475 L32.4377358,26.475 C31.9396226,26.475 31.8943396,25.845 32.4377358,25.845 L32.4528302,25.845 Z M33.0716981,25.245 L35.5773585,25.245 C36.0150943,25.245 36.0754717,24.84 35.6679245,24.855 L32.9811321,24.855 C32.6490566,24.855 32.7396226,25.23 33.0716981,25.23 L33.0716981,25.245 Z M46.7924528,52.2 C46.6409161,52.7876397 46.6050387,53.3988368 46.6867925,54 C46.9932998,54.9066937 47.5104072,55.7288945 48.1962264,56.4 C48.7136948,56.8225158 49.0965027,57.3853221 49.2981132,58.02 C49.2981132,58.455 49.7962264,58.995 49.9622642,58.185 C50.0052872,57.4705341 49.7291611,56.7735573 49.2075472,56.28 C48.5537523,55.4605723 47.9633828,54.5930887 47.4415094,53.685 C47.0943396,52.995 46.8075472,52.185 46.8075472,52.185 L46.7924528,52.2 Z M48.845283,51.39 C49.3008956,51.3232654 49.7622398,51.4668796 50.0981132,51.78 C51.2,52.695 51.4264151,54.03 53.0113208,54.405 C53.6,54.555 54.1433962,54.495 54.1735849,54.705 C54.2037736,54.915 53.8566038,55.605 52.9207547,55.575 C51.9849057,55.545 51.6679245,54.72 50.9283019,54.075 C50.1886792,53.43 49.9320755,52.575 49.2679245,52.14 L48.8754717,51.885 C48.5132075,51.6 48.2566038,51.48 48.8754717,51.405 L48.845283,51.39 Z M56.4226415,49.005 C55.8943396,49.095 55.3056604,48 55.6981132,46.575 C56.090566,45.15 57.8867925,44.805 57.8867925,44.805 C57.1135109,45.2414107 56.5161487,45.930444 56.1962264,46.755 C55.8792453,47.94 56.5886792,48.99 56.4226415,49.005 Z M51.8943396,44.505 C51.7027605,45.4721335 51.802521,46.4739389 52.1811321,47.385 C52.8301887,48.435 53.3283019,48.405 53.509434,48.18 C53.690566,47.955 53.1773585,47.415 52.6641509,46.83 C52.2533815,46.1140839 51.9915941,45.3234279 51.8943396,44.505 Z M53.2830189,42.165 C52.8247151,42.9373786 52.6638258,43.8487157 52.8301887,44.73 C53.1169811,45.975 53.8113208,46.62 54.1584906,46.32 C54.5056604,46.02 53.5396226,45.405 53.2830189,44.49 C53.1623083,43.7357468 53.1982667,42.9649204 53.3886792,42.225 L53.2830189,42.165 Z M54.6716981,43.41 C54.1433962,43.515 53.8415094,42.885 54.3698113,41.76 C54.7778275,41.022484 55.469637,40.4811567 56.2867925,40.26 C55.7468244,40.6836992 55.27808,41.1900196 54.8981132,41.76 C54.5660377,42.465 55.0339623,43.26 54.6716981,43.26 L54.6716981,43.41 Z M61.8867925,53.385 C62.6867925,53.19 63.1245283,54.435 62.6867925,55.275 C62.026693,56.0806227 61.2170663,56.7527922 60.3018868,57.255 C60.8635924,56.690949 61.3005909,56.0165575 61.5849057,55.275 C61.690566,54.555 61.3886792,53.565 61.8867925,53.385 Z M65.3283019,45.36 C65.8567099,46.3502691 66.1993976,47.4278172 66.3396226,48.54 C65.9065083,47.5886548 65.4019378,46.6710619 64.8301887,45.795 C64.5283019,45.45 62.8528302,44.715 63.6377358,44.145 C64.045283,43.86 64.9056604,44.655 65.3886792,45.36 L65.3283019,45.36 Z M30.0226415,58.5 C29.690566,58.5 29.3735849,57.51 29.6301887,56.535 C30.0847006,55.5249183 30.7977027,54.6508728 31.6981132,54 C32.1939731,53.5244782 32.6161706,52.9785464 32.9509434,52.38 C33.1924528,51.975 33.509434,51.855 33.3132075,52.38 C33.0200637,53.1800467 32.5855777,53.9216761 32.0301887,54.57 C31.3056604,55.455 30.6566038,56.07 30.5207547,56.85 C30.45686,57.4254832 30.2880703,57.9845991 30.0226415,58.5 Z M26.2339623,53.7 C26.5207547,53.25 27.7433962,53.79 28.3018868,53.295 C28.8614699,52.7621284 29.4511015,52.2613195 30.0679245,51.795 C30.5753008,51.3865419 31.2112752,51.1687942 31.8641509,51.18 C31.4409736,51.6534976 30.9591522,52.0718262 30.4301887,52.425 C29.6301887,53.085 28.709434,54.57 27.6981132,54.675 C27.0414367,54.7207892 26.4306324,54.3383875 26.1886792,53.73 L26.2339623,53.7 Z M66.4150943,46.23 C66.0555742,45.0446659 65.803004,43.8298667 65.6603774,42.6 C65.6603774,41.64 66.2641509,40.515 66.8830189,40.905 C67.5018868,41.295 66.7169811,41.49 66.354717,42.405 C66.152665,43.6771257 66.152665,44.9728743 66.354717,46.245 L66.4150943,46.23 Z M60.090566,40.065 C59.2493435,39.9713345 58.4005098,40.1558563 57.6754717,40.59 C56.9509434,41.28 56.6188679,41.955 57.2528302,42.09 C57.8867925,42.225 57.8113208,41.295 58.3396226,40.755 C58.8679245,40.215 60.090566,40.11 60.090566,40.035 L60.090566,40.065 Z M22.8226415,31.95 C23.835786,31.9399929 24.754987,31.3581738 25.1924528,30.45 C25.690566,29.16 25.5245283,28.14 24.9207547,28.23 C24.3169811,28.32 25.1018868,29.4 24.5735849,30.48 C24.1961298,31.1775304 23.5725123,31.7117717 22.8226415,31.98 L22.8226415,31.95 Z M18.1132075,31.2 C19.0233085,31.3802092 19.9663428,31.2969078 20.8301887,30.96 C21.6301887,30.465 21.8566038,29.58 22.3396226,29.745 C22.8226415,29.91 22.5358491,31.065 21.0415094,31.665 C20.0461014,31.9757654 18.9615946,31.803551 18.1132075,31.2 Z M15.5622642,27.72 C15.5622642,27.72 16.5886792,29.52 17.6754717,29.745 C18.7622642,29.97 19.5018868,29.28 19.8943396,29.55 C20.2867925,29.82 19.5018868,30.75 17.6150943,30.21 C16.502722,29.8459623 15.7025906,28.8754353 15.5622642,27.72 Z M15.4113208,23.82 C15.456536,24.8902751 15.7958538,25.9278046 16.3924528,26.82 C16.8812729,27.306787 17.5587613,27.5585732 18.2490566,27.51 C18.7924528,27.51 18.8830189,27.51 18.8075472,27.78 C18.7431035,28.0189092 18.5409046,28.196205 18.2943396,28.23 C17.3373056,28.298692 16.4201763,27.8372251 15.909434,27.03 C15.3383774,26.0784939 15.1598821,24.9443388 15.4113208,23.865 L15.4113208,23.82 Z M17.0716981,21.78 C16.4283876,22.4162038 16.1260784,23.3174631 16.2566038,24.21 C16.259877,25.1393383 16.7836719,25.9895229 17.6150943,26.415 C17.9622642,26.7 18.6415094,26.19 18.1735849,25.83 C17.7056604,25.47 16.9811321,25.38 16.6641509,24.51 C16.47734,23.5867213 16.5992503,22.6280689 17.0113208,21.78 L17.0716981,21.78 Z M22.6867925,19.125 C21.2632233,19.0559269 19.8629696,19.5037667 18.7471698,20.385 C18.0347988,20.9560098 17.6010784,21.8016617 17.554717,22.71 C17.554717,23.58 18.4754717,23.43 18.6113208,22.89 C18.6015488,22.4287689 18.6267775,21.967462 18.6867925,21.51 C19.3962264,19.71 21.0264151,19.68 22.6867925,19.125 Z M23.6528302,19.8 C23.5169811,19.695 22.9433962,19.485 21.9320755,19.98 C21.4525137,20.1604668 21.0590507,20.5139771 20.8301887,20.97 C20.4830189,21.6 20.1660377,22.47 20.8301887,22.47 C21.1169811,22.47 20.9811321,21.825 21.3132075,21.27 C21.5911863,20.8549712 21.9634678,20.5107078 22.4,20.265 C22.766886,20.0506932 23.1716482,19.9081298 23.5924528,19.845 L23.6528302,19.8 Z M32.7849057,19.77 C31.9385495,20.7105264 30.7337316,21.2547481 29.4641509,21.27 C27.6226415,21.27 26.1283019,20.79 24.4377358,20.85 C23.9687479,20.8879666 23.526813,21.0837425 23.1849057,21.405 C23.4328548,20.9108465 23.8666784,20.5336233 24.3924528,20.355 C26.0679245,20.07 27.5924528,20.76 29.4339623,20.73 C30.6171249,20.7762556 31.7862746,20.4622441 32.7849057,19.83 L32.7849057,19.77 Z M25.2528302,25.5 C25.3213422,25.3528019 25.4951705,25.2863628 25.645283,25.35 C26.5001504,25.6612036 27.0912621,26.4424685 27.154717,27.345 C27.3617388,28.5168145 26.9382737,29.7110291 26.0377358,30.495 C25.8867925,30.63 25.6301887,30.75 25.9471698,30.375 C26.6274065,29.6746099 26.9782573,28.7212484 26.9132075,27.75 C26.6264151,25.62 25.0113208,25.905 25.1924528,25.5 L25.2528302,25.5 Z M24.9056604,23.625 C24.5886792,23.625 24.4679245,23.19 24.9056604,23.28 C25.7918943,23.4590376 26.5752609,23.96907 27.0943396,24.705 C27.6516965,25.6065543 27.9396203,26.6470061 27.9245283,27.705 C27.9245283,28.005 27.6679245,27.705 27.6679245,27.375 C27.5613342,26.4801769 27.2460534,25.6224259 26.7471698,24.87 C26.2907195,24.2376364 25.6119546,23.7986613 24.845283,23.64 L24.9056604,23.625 Z M34.7169811,19.59 C34.5630386,19.8506293 34.4268832,20.1212381 34.309434,20.4 C34.1433962,20.73 33.4641509,20.52 33.690566,20.13 C33.8575058,19.7993297 34.0439955,19.4787691 34.2490566,19.17 C34.7445417,18.3550395 35.4406052,17.6788126 36.2716981,17.205 C36.754717,16.965 37.1773585,16.89 37.1924528,17.01 C36.8304693,17.2498682 36.4827211,17.5103014 36.1509434,17.79 C35.5868805,18.3170222 35.1037406,18.9234899 34.7169811,19.59 Z M57.9622642,20.865 C58.2037736,20.865 58.6867925,22.215 58.6113208,23.085 C58.5789724,23.791132 58.3432103,24.4731723 57.9320755,25.05 C57.6,25.53 57.1169811,25.05 57.4641509,24.615 C57.8072489,24.2094624 58.0547932,23.732843 58.1886792,23.22 C58.2585766,22.4278465 58.181838,21.6296699 57.9622642,20.865 Z M54.9433962,16.995 C56.3169811,16.665 58.6415094,18.495 59.4716981,20.55 C59.8188679,21.555 60.1811321,23.175 61.2226415,23.715 C61.6408974,23.9288917 62.11432,24.0125297 62.5811321,23.955 C62.8830189,23.955 63.2603774,23.73 63.4566038,24.15 C63.6528302,24.57 63.4566038,24.675 63.0943396,24.765 C62.4238304,24.9139746 61.7235619,24.8564196 61.0867925,24.6 C60.5832849,24.348914 60.1638357,23.9581382 59.8792453,23.475 C59.4829766,22.5704864 59.1550261,21.6379088 58.8981132,20.685 C57.3886792,17.055 54.7924528,17.445 54.8981132,16.995 L54.9433962,16.995 Z M34.309434,21.135 C35.4415094,20.73 35.3056604,21.3 34.6867925,22.5 C34.0679245,23.7 34.2339623,24 33.690566,23.7 C33.1471698,23.4 33.5245283,21.3 34.309434,21.135 Z M23.0943396,15.705 C24.1357001,16.7675504 25.4049771,17.5828093 26.8075472,18.09 C28.8735727,18.6067304 30.9881103,18.9083555 33.1169811,18.99 C30.9523614,19.3693555 28.7403832,19.3997447 26.5660377,19.08 C24.1509434,18.42 22.6415094,16.2 23.0943396,15.705 Z M47.9698113,22.14 C48.1765662,22.1105959 48.3739307,22.235683 48.4342926,22.434382 C48.4946545,22.6330811 48.3999106,22.8458006 48.2113208,22.935 C47.8611985,23.0248062 47.6181204,23.3406909 47.6226415,23.7 C47.6226415,24.27 48.090566,24.315 48.090566,24.315 C48.1989321,24.3262929 48.2982352,24.3802379 48.3663021,24.4647898 C48.434369,24.5493417 48.4655311,24.6574589 48.4528302,24.765 C48.4453011,24.8753889 48.3926535,24.9779108 48.3071213,25.0487421 C48.2215891,25.1195735 48.1106198,25.1525468 48,25.14 C47.3171616,25.0303372 46.8134047,24.4473501 46.8075472,23.76 C46.7270053,23.0056266 47.2259043,22.3102456 47.9698113,22.14 Z M40.8301887,37.23 C41.1622642,37.65 42.2641509,41.175 41.0716981,41.115 C39.5622642,41.115 40.709434,37.815 40.8301887,37.23 Z M33.2830189,47.16 C33.7811321,47.385 33.8867925,48.12 33.509434,48.795 C33.1320755,49.47 32.4377358,49.845 32,49.62 C31.5622642,49.395 31.3509434,48.66 31.6981132,48 C32.045283,47.34 32.7698113,46.95 33.2075472,47.175 L33.2830189,47.16 Z M47.0943396,48.06 C47.4319809,48.0638228 47.7537741,48.2029233 47.9867871,48.4457754 C48.2198001,48.6886276 48.3443021,49.0146673 48.3320755,49.35 C48.2991217,50.0205205 47.731236,50.5409344 47.056043,50.519364 C46.3808501,50.4977936 45.8477731,49.9422072 45.8582255,49.2709679 C45.8686778,48.5997286 46.4187983,48.0607992 47.0943396,48.06 Z M56.1509434,18.6 C56.9214037,19.39765 57.1674006,20.5617427 56.7849057,21.6 C56.495122,22.3605818 55.789475,22.8865093 54.9735849,22.95 C54.2792453,23.04 54.1886792,22.2 54.8377358,22.23 C55.4803108,22.3316024 56.1077199,21.9762143 56.3471698,21.375 C56.8,19.695 55.8641509,18.675 56.1358491,18.585 L56.1509434,18.6 Z M39.6075472,34.5 C38.1960821,34.0117647 36.7602118,33.5962125 35.3056604,33.255 C34.445283,33.045 33.2830189,32.64 33.5245283,32.85 C34.246629,33.2140331 34.9991326,33.5151608 35.7735849,33.75 L39.3207547,34.74 L39.0792453,34.86 C37.6179165,34.8087202 36.1749101,34.5198959 34.8075472,34.005 C33.7875723,33.6917063 32.7491226,33.4412308 31.6981132,33.255 C30.4603774,33.015 30.7018868,32.43 30.7018868,32.43 C32.1866855,32.2738955 33.6873941,32.3702739 35.1396226,32.715 C36.6861712,33.0178017 38.2018358,33.459618 39.6679245,34.035 C39.7964781,34.1636773 39.7964781,34.3713227 39.6679245,34.5 L39.6075472,34.5 Z M12.9207547,36 C13.4188679,35.805 14.5509434,36.39 15.154717,37.035 C15.6390462,37.6421684 16.0447356,38.3073721 16.3622642,39.015 C18.2054781,38.0044311 20.2982612,37.5312986 22.4,37.65 C26.1417231,38.0815689 28.8353988,41.4276191 28.4377358,45.15 C28.2716981,48.69 26.6716981,51.705 22.7471698,51.15 C21.1998162,51.0700153 19.8010386,50.209375 19.0392277,48.8685762 C18.2774167,47.5277775 18.2583479,45.8929868 18.9886792,44.535 C19.7734037,42.8796916 21.6790154,42.0681052 23.4264151,42.645 C24.4528302,42.93 25.0566038,44.25 25.2226415,45.315 C25.509434,47.16 24.6641509,46.815 23.8188679,46.62 C22.9735849,46.425 22.5509434,46.35 22.309434,46.62 C21.8113208,47.28 22.309434,49.095 24.2867925,49.26 C26.2641509,49.425 25.9018868,47.355 25.9018868,46.26 C25.9646177,45.3768124 26.1897208,44.5125314 26.5660377,43.71 C26.5660377,43.71 25.6603774,44.115 25.3283019,43.545 C24.9962264,42.975 24.9962264,42.045 24.4981132,41.07 C23.6538011,39.8507662 22.2055496,39.1887342 20.7245283,39.345 C18.9886792,39.42 16.4981132,40.635 16.709434,41.235 C16.8301887,41.58 17.4490566,41.46 18.0226415,41.13 C19.0339623,40.56 19.6981132,40.305 18.9132075,42.015 C18.7471698,42.375 18.5509434,42.6 18.3698113,43.005 C18.0229037,44.0202011 17.7455402,45.0575719 17.5396226,46.11 C17.2528302,46.965 16.3773585,47.445 16.3773585,48.315 C16.3773585,48.645 16.9962264,48.03 17.3283019,48.195 C17.6603774,48.36 17.7056604,49.14 17.3283019,49.8 C16.9509434,50.46 16.4528302,51.585 16.7396226,51.99 C17.0264151,52.395 17.9924528,50.49 18.7773585,50.76 C19.5622642,51.03 19.2754717,53.52 19.6075472,54.06 C20.3938571,55.2268204 21.726981,55.9118623 23.1396226,55.875 C24.2508096,55.9812731 25.3720588,55.8534931 26.4301887,55.5 C26.4301887,55.5 24.7698113,53.52 25.4339623,53.1 C26.0981132,52.68 27.0943396,53.1 27.6377358,52.77 C28.1811321,52.44 28.6792453,51.825 29.5849057,51.165 C30.2133598,50.7489231 30.9437999,50.5104213 31.6981132,50.475 C31.1676831,50.0520732 30.8617095,49.4107803 30.8679245,48.735 C30.848026,47.7022512 31.529281,46.7852278 32.5283019,46.5 C31.9328437,46.1104277 31.3900609,45.6466527 30.9132075,45.12 C30.309434,44.415 30.1735849,42.945 29.9471698,42.6 C29.5778452,42.0319236 29.4477552,41.3424469 29.5849057,40.68 L31.0943396,40.68 L31.0943396,36.675 C30.4378389,36.9617908 29.6768951,36.8758603 29.1018868,36.45 C28.6792453,36.45 27.6830189,36.69 27.0792453,36.69 C26.4754717,36.69 25.5698113,36.69 25.0415094,36.24 C24.5283019,36.24 23.0641509,36.045 23.0188679,35.325 C23.0233244,35.0829847 23.1550693,34.8609874 23.3660377,34.74 C23.8890539,34.3188774 24.5349426,34.0768677 25.2075472,34.05 C25.2075472,33.84 25.3283019,33.39 25.5698113,33.285 C26.2148236,33.0609237 26.9172518,33.0609237 27.5622642,33.285 C27.5622642,32.91 27.5622642,32.67 27.8339623,32.625 C28.4677047,32.4436019 29.1451166,32.4860068 29.7509434,32.745 C29.6603774,32.055 29.4641509,31.485 29.7509434,31.35 C30.2490566,31.125 30.9584906,31.35 31.4867925,31.35 L31.4867925,30.12 L30.8830189,30.12 C30.1584906,30.12 29.9471698,29.76 30.2490566,29.04 C30.3698113,28.755 30.6264151,28.635 30.8528302,28.365 C31.4415094,27.675 31.2754717,26.595 31.6830189,25.65 C32.0159868,25.0054786 32.5438778,24.4808869 33.1924528,24.15 L33.1924528,24.075 C32.8663532,23.6711125 32.6904218,23.1678087 32.6943396,22.65 C32.6905244,22.0198709 32.9600282,21.4186436 33.4339623,21 C32.2018833,21.5116122 30.8744182,21.7570389 29.5396226,21.72 C27.8785338,21.4882294 26.2052484,21.3529995 24.5283019,21.315 C23.7886792,21.48 23.6226415,22.14 23.0188679,22.095 C22.4150943,22.05 22.1433962,21.36 22.1433962,21.36 C22.1433962,21.36 22.1433962,22.86 21.2830189,22.965 C20.697862,23.005456 20.1311926,22.7520485 19.7735849,22.29 C19.6978421,22.8152744 19.529207,23.323096 19.2754717,23.79 C18.9433962,24.24 17.6150943,23.79 17.509434,24.225 C17.4037736,24.66 18.2490566,24.78 18.8226415,25.485 C19.3962264,26.19 18.2792453,26.715 18.2792453,26.715 C18.7924409,26.7158496 19.2700445,26.9757598 19.5471698,27.405 C19.8943396,28.08 18.7320755,28.905 18.7320755,28.905 C19.3300968,28.804442 19.9441938,28.8613306 20.5132075,29.07 C21.0716981,29.415 20.5132075,30 20.890566,29.925 C21.2679245,29.85 21.7358491,28.89 22.6113208,29.07 C23.4867925,29.25 22.7169811,31.035 23.1698113,30.75 C23.8497568,30.1354026 24.2109073,29.2464516 24.1509434,28.335 C24.045283,27.465 24.3622642,27 24.6943396,26.955 C25.0264151,26.91 25.9018868,28.635 26.2037736,28.605 C26.5056604,28.575 26.445283,27.6 26.0528302,27 C25.6603774,26.4 24.8603774,26.04 24.5433962,25.575 C24.2264151,25.11 25.3132075,24.93 25.3132075,24.93 C24.9495532,24.448642 24.4047973,24.1346584 23.8037736,24.06 C23.4566038,24.06 22.5509434,24.195 22.445283,23.775 C22.445283,23.61 22.5207547,23.385 22.8679245,23.115 C24.4256551,22.437693 26.2442519,22.8172114 27.3962264,24.06 C28.0665491,25.1800536 28.3624736,26.4823855 28.2415094,27.78 C27.9245283,31.305 23.954717,33.015 20.6943396,32.805 C18.6577372,32.6962754 16.776886,31.6878157 15.5672328,30.055989 C14.3575795,28.4241624 13.9459984,26.3401226 14.445283,24.375 C15.1849057,20.595 19.3660377,18.48 22.8981132,18.375 C22.3004127,17.5697423 22.0804358,16.5477779 22.2943396,15.57 C22.4150943,14.94 22.6415094,14.505 22.8981132,14.505 C23.154717,14.505 23.3056604,15.315 24.1056604,16.095 C25.7170537,17.3582513 27.673444,18.1108305 29.7207547,18.255 C31.4628944,18.6956776 33.3109752,18.3968339 34.8226415,17.43 C35.5996422,16.7098881 36.6470422,16.3502214 37.7056604,16.44 C38.6325602,16.5670792 39.3402283,17.3268351 39.3962264,18.255 C38.771315,18.1135007 38.1165501,18.187561 37.5396226,18.465 C36.8436355,19.067989 36.4331543,19.9327704 36.4075472,20.85 C36.4226287,20.9866635 36.4478546,21.1220323 36.4830189,21.255 C37.3082065,22.1994445 37.2068434,23.6298041 36.2566038,24.45 C36.5433962,24.99 37.2830189,25.35 37.7660377,25.95 C38.2490566,26.55 38.2188679,28.26 38.309434,28.755 C38.4,29.25 38.8830189,29.79 38.8830189,30.255 C38.8830189,30.72 37.5245283,30.6 37.1018868,30.6 C37.035536,31.1425717 37.000259,31.6884513 36.9962264,32.235 C37.6603774,32.565 38.7018868,32.88 39.2150943,33.135 C40.0754717,33.555 40.9056604,34.065 40.9056604,34.065 C41.5526111,33.6071536 42.2649136,33.2481722 43.0188679,33 C43.6496228,32.7529709 44.30125,32.5622184 44.9660377,32.43 L44.9660377,30 L44.2867925,30 C43.4113208,30 43.6075472,29.805 43.6981132,29.22 C43.6981132,29.025 44.0754717,28.68 44.1207547,28.44 C44.1613478,27.733449 44.3516654,27.0433869 44.6792453,26.415 C45.1472845,25.7730482 45.7997428,25.2867629 46.5509434,25.02 C46.2759125,24.6741172 46.126932,24.2458316 46.1283019,23.805 C46.174874,23.0291109 46.5750033,22.3166932 47.2150943,21.87 C47.3962264,17.88 49.4792453,15.87 53.2528302,15.87 C55.3425184,15.8630512 57.3541685,16.6583831 58.8679245,18.09 C60.3773585,20.07 60.8150943,22.5 61.6,23.07 C62.0981132,23.43 62.354717,23.505 62.6867925,23.37 C63.0188679,23.235 63.0641509,22.86 63.4716981,22.815 C64.5433962,22.68 65.3886792,24.915 63.8037736,25.59 C62.7331109,26.1933448 61.4144532,26.1587082 60.3773585,25.5 C59.9421374,25.1437867 59.5697348,24.7179469 59.2754717,24.24 C59.2754717,24.24 58.7924528,26.535 57.1622642,25.875 C55.5320755,25.215 57.1622642,22.68 57.1622642,22.68 C57.1622642,22.68 55.7886792,24.87 54.4150943,23.835 C54.0921086,23.6659346 53.8556852,23.369536 53.7637717,23.0184517 C53.6718582,22.6673674 53.7329508,22.2940501 53.9320755,21.99 C54.2188679,21.555 54.4150943,21.57 54.8830189,21.63 C55.3509434,21.69 55.4867925,21.63 55.7283019,21.09 C56.1660377,20.145 55.5773585,17.475 52.4679245,17.73 C51.5178799,17.7349689 50.6177385,18.1533928 50.0049679,18.8748867 C49.3921972,19.5963806 49.1283451,20.5484762 49.2830189,21.48 C49.3010545,21.5828552 49.3423429,21.6803022 49.4037736,21.765 C50.0851734,22.2067086 50.5204806,22.9387781 50.5811321,23.745 C50.5850549,24.2046104 50.448177,24.6545307 50.1886792,25.035 C50.7018868,25.95 51.2150943,25.815 51.8641509,26.805 C52.1349815,27.4321813 52.3570161,28.0790777 52.5283019,28.74 C52.7429178,29.1828954 52.8758407,29.6604592 52.9207547,30.15 L49.9018868,30.15 L49.9018868,32.175 C50.4122739,32.1165299 50.9293447,32.1781906 51.4113208,32.355 C51.954717,32.64 51.7283019,33.63 51.7283019,33.63 C52.3635806,33.5546935 53.0072134,33.5902274 53.6301887,33.735 C53.9319184,33.8424088 54.1237071,34.1375159 54.0981132,34.455 C54.0981132,34.455 55.6075472,34.275 56.0301887,34.605 C56.2994858,34.8404212 56.4848311,35.1561701 56.5584906,35.505 C57.1018868,35.82 57.7811321,36.465 57.4339623,37.125 C57.0867925,37.785 56.1811321,37.41 55.4867925,37.47 C55.1849057,37.47 54.8528302,37.74 54.5509434,37.725 C54.0234306,37.6826228 53.5099924,37.5346564 53.0415094,37.29 C52.7965721,37.6213329 52.4255182,37.8382358 52.0150943,37.89 C51.4605397,37.7670678 50.9432358,37.5151731 50.5056604,37.155 C50.3849057,37.365 50.4301887,37.65 50.2943396,37.86 L49.7660377,38.4 L49.9471698,42 L51.6528302,42 C51.5320755,42.93 51.6528302,43.035 50.8226415,43.5 C50.8058993,44.1821332 50.5556588,44.8382158 50.1132075,45.36 L48.7396226,46.86 L48.7396226,47.58 C49.5674454,48.2424977 49.7966347,49.400262 49.2830189,50.325 C49.2612093,50.4533541 49.225792,50.5790541 49.1773585,50.7 C49.7255747,50.8628946 50.2377572,51.1275649 50.6867925,51.48 C51.3811321,52.065 51.8490566,53.07 52.8301887,53.595 C53.8113208,54.12 54.7169811,53.82 54.8830189,54.225 C55.0833226,54.9097147 54.7317618,55.6343206 54.0679245,55.905 C53.6493876,56.0951719 53.2080599,56.2312796 52.754717,56.31 C53.6301887,57.645 55.7735849,57.54 57.1773585,57.345 C58.8679245,57.12 60.4075472,56.43 60.6339623,55.11 C60.9509434,53.34 61.0264151,52.305 61.8566038,52.11 C62.6867925,51.915 62.7471698,53.325 63.2603774,53.1 C63.7735849,52.875 63.1245283,50.1 63.5018868,49.56 C63.8792453,49.02 64.5283019,49.785 64.5283019,49.29 C64.3729786,48.55761 63.9121185,47.9251617 63.2603774,47.55 C62.5358491,47.055 62.5056604,46.38 62.6264151,46.215 C62.7471698,46.05 63.4566038,46.215 63.4566038,46.215 C63.4566038,46.215 62.9584906,45.12 62.5358491,44.34 C62.1906769,43.8325264 62.1906769,43.1674736 62.5358491,42.66 C62.6716981,42.54 62.9433962,42.84 63.3207547,43.035 C63.5593025,43.1534857 63.8240798,43.2102376 64.090566,43.2 C64.090566,43.2 62.5811321,40.95 60.709434,40.875 C58.8377358,40.8 58.8981132,42.54 57.6,42.69 C56.3018868,42.84 56.4377358,41.265 56.090566,41.475 C55.582951,42.0237498 55.3261976,42.7566236 55.3811321,43.5 C55.3811321,44.25 55.5471698,44.685 54.9735849,44.73 C54.4,44.775 54.4,44.115 54.1735849,44.22 C53.9471698,44.325 54.1735849,45.33 54.4301887,45.72 C54.6867925,46.11 55.0641509,46.695 54.5660377,46.905 C54.0679245,47.115 53.7660377,46.59 53.9773585,47.31 C54.1886792,48.03 54.490566,48.72 54.0981132,48.99 C53.7056604,49.26 53.554717,49.59 54.0981132,50.055 C54.7742713,50.5610034 55.6073841,50.8157437 56.4528302,50.775 C57.6329001,50.7662552 58.6871142,50.0400604 59.109434,48.945 C59.2240561,48.6603585 59.1995047,48.3390042 59.0429524,48.0748222 C58.8864001,47.8106403 58.6155138,47.6334432 58.309434,47.595 C57.8764562,47.5168004 57.4366242,47.6916337 57.1773585,48.045 C56.7849057,48.51 57.7660377,49.98 57.2679245,49.935 C56.9017154,49.9185614 56.5447049,49.8157269 56.2264151,49.635 C55.2890159,49.1205628 54.8227238,48.0393481 55.0943396,47.01 C55.1699785,46.2040043 55.5701748,45.4625908 56.2040337,44.9541535 C56.8378926,44.4457163 57.6516127,44.2134109 58.4603774,44.31 C59.3407387,44.293402 60.1897641,44.6346653 60.8109592,45.2548097 C61.4321543,45.874954 61.7716747,46.7202261 61.7509434,47.595 C61.7792406,48.8757933 61.2911463,50.1146829 60.3952987,51.0359211 C59.4994512,51.9571592 58.2701944,52.4842949 56.9811321,52.5 C55.3518978,52.4424789 53.8153104,51.7326745 52.7208016,50.5320019 C51.6262928,49.3313293 51.066892,47.7418414 51.1698113,46.125 C51.3413947,42.2495524 54.6192539,39.2329712 58.5207547,39.36 C60.3214268,39.316236 62.081703,39.8940267 63.5018868,40.995 C63.7963479,41.2049609 64.1386668,41.338971 64.4981132,41.385 C65.2528302,41.385 66.2037736,39.45 66.9886792,39.48 C67.7735849,39.51 69.1924528,40.98 68.8150943,41.46 C68.4377358,41.94 68.4075472,41.685 68.1056604,41.805 C67.5320755,42.03 67.3207547,43.2 67.245283,44.34 C67.0641509,46.995 67.245283,49.89 66.2943396,52.395 C64.9375765,56.0652497 61.578159,58.633266 57.6603774,58.995 C52.6792453,59.295 52.1509434,58.425 51.3207547,57.93 C51.0490566,58.215 51.1245283,58.965 50.4,59.595 C49.6754717,60.225 48.4528302,60.24 48.2867925,59.82 C48.1207547,59.4 48.9056604,58.635 48.5433962,57.93 C48.1811321,57.225 47.0339623,56.67 46.490566,55.365 C45.8401286,54.1204553 45.9151258,52.6241546 46.6867925,51.45 C45.8836547,51.1933862 45.2984135,50.5036556 45.1795559,49.6736604 C45.0606984,48.8436652 45.4290847,48.0190742 46.1283019,47.55 L46.1283019,46.995 C45.5040186,46.5109488 44.92322,45.973931 44.3924528,45.39 C44.0685305,44.959193 43.9129856,44.4261838 43.954717,43.89 C43.379946,43.4443509 43.1501436,42.6871371 43.3811321,42 L44.8,42 L44.8,36.585 C44.8,36.06 44.2566038,35.805 43.7283019,35.79 C43.1730063,35.6865121 42.6031157,35.8734006 42.2188679,36.285 C42.8355924,37.1683707 43.1816123,38.2103623 43.2150943,39.285 C43.1396226,40.785 42.5509434,43.005 40.890566,42.885 C39.2301887,42.765 38.3849057,40.74 38.4150943,39 C38.430602,38.0027089 38.6461273,37.0185087 39.0490566,36.105 C38.7671735,35.7216321 38.3192865,35.4935247 37.8415094,35.49 C37.0867925,35.385 36.845283,35.58 36.7245283,36.24 C36.6037736,36.9 36.7245283,41.265 36.7245283,41.265 L38.4,41.265 C38.4443239,41.8326123 38.3069629,42.3996226 38.0075472,42.885 C37.4792453,43.605 37.554717,44.13 36.8603774,45.015 C36.2056217,45.7898526 35.357026,46.3796396 34.4,46.725 L34.4754717,46.845 C35.307968,47.3589377 35.7132136,48.346799 35.4795591,49.2926488 C35.2459046,50.2384985 34.4264019,50.9275787 33.4490566,51 C33.9829185,51.8601312 34.1614026,52.8920937 33.9471698,53.88 C33.281273,55.199256 32.3813242,56.3883006 31.290566,57.39 C30.4150943,58.305 31.5773585,59.985 30.7471698,60.03 C29.8411215,60.0967924 28.9923104,59.5846638 28.6339623,58.755 C28.4763757,58.148239 28.4202812,57.5198531 28.4679245,56.895 C28.4679245,56.895 27.1849057,57.81 23.4113208,57.81 C19.6217231,57.6526739 16.1176599,55.7648878 13.9169811,52.695 C12.3686234,50.0790943 11.9494834,46.9524868 12.754717,44.025 C13.3274178,42.6384275 13.7033436,41.1794605 13.8716981,39.69 C13.9471698,38.295 13.1169811,37.38 12.9207547,35.955 L12.9207547,36 Z"></path>
            </g>
        </g>
    </g>
</svg>