<?xml version="1.0" encoding="utf-8"?>
<!-- Generator: Adobe Illustrator 22.1.0, SVG Export Plug-In . SVG Version: 6.00 Build 0)  -->
<svg version="1.1" id="Layer_1" xmlns="http://www.w3.org/2000/svg" xmlns:xlink="http://www.w3.org/1999/xlink" x="0px" y="0px"
	 viewBox="0 0 162 58" style="enable-background:new 0 0 162 58;" xml:space="preserve">
<style type="text/css">
	.st0{fill:none;}
	.st1{fill:#7C6742;}
</style>
<rect y="0" class="st0" width="162" height="58"/>
<g id="fond" transform="translate(385.000000, 6.000000)">
	<path id="Group" transform="translate(60.000000, 0.000000)" class="st1" d="M-375.7,33.4v3h-1c-0.1-0.3-0.2-0.6-0.3-0.8
		c-0.1-0.2-0.2-0.4-0.3-0.6c-0.1-0.2-0.2-0.3-0.4-0.4c-0.1-0.1-0.3-0.2-0.5-0.2c-0.2,0-0.4-0.1-0.7-0.1h-3.2v5.2h2.2
		c0.2,0,0.5,0,0.7-0.1c0.2-0.1,0.3-0.3,0.4-0.4c0.1-0.3,0.3-0.7,0.3-1h0.9v3.8h-0.9c-0.1-0.3-0.2-0.6-0.3-0.9
		c-0.1-0.2-0.2-0.3-0.4-0.4c-0.2-0.1-0.5-0.1-0.7-0.1h-2.2v5.8h3.1c0.3,0,0.5,0,0.8-0.1c0.2-0.1,0.4-0.2,0.5-0.3
		c0.2-0.2,0.3-0.3,0.4-0.5c0.1-0.2,0.2-0.4,0.3-0.7c0.1-0.2,0.2-0.6,0.3-1h1l-0.2,3.5h-9.2v-0.5c0.3-0.1,0.6-0.2,0.8-0.4
		c0.1-0.1,0.2-0.3,0.3-0.6c0.1-0.4,0.1-0.7,0.1-1.1v-8.6c0-0.3,0-0.7,0-1c0-0.2-0.1-0.3-0.2-0.5c-0.1-0.1-0.2-0.2-0.3-0.3
		c-0.2-0.1-0.5-0.2-0.7-0.2v-0.5H-375.7z M-366.8,47v-0.5l-1.1-2.6c-0.1-0.5-0.4-0.9-0.9-1.2c-0.3-0.2-0.7-0.3-1.1-0.2h-0.7v2
		c-0.1,0.5,0,1.1,0.2,1.5c0.2,0.2,0.5,0.4,0.9,0.5V47h-3.8v-0.5c0.3,0,0.6-0.2,0.9-0.5c0.2-0.5,0.2-1,0.2-1.5v-4.9
		c0-0.4,0-0.8-0.2-1.2c-0.2-0.3-0.5-0.4-0.9-0.5v-0.5h3.9V38c-0.3,0-0.6,0.2-0.8,0.5c-0.2,0.4-0.3,0.8-0.2,1.2v2.1h0.7
		c0.4,0,0.7-0.1,1-0.4c0.4-0.5,0.7-1.1,0.9-1.6c0.2-0.7,0.6-1.3,1.1-1.8c0.5-0.5,1.2-0.7,1.9-0.6c0.3,0,0.7,0.1,1,0.1v2h-0.9
		c-0.1-0.4-0.3-0.6-0.7-0.6c-0.2,0-0.5,0.1-0.7,0.2c-0.3,0.3-0.5,0.7-0.6,1.1c-0.2,0.8-0.8,1.5-1.4,1.9c0.9,0.2,1.7,0.8,2.1,1.7
		l0.8,1.5c0.2,0.4,0.4,0.7,0.7,1c0.3,0.2,0.6,0.4,0.9,0.4V47H-366.8z M-356.7,45.6h-0.1c-0.5,0.5-1,0.9-1.6,1.3
		c-0.5,0.2-1.1,0.4-1.6,0.4c-0.5,0-0.9-0.1-1.3-0.3c-0.4-0.2-0.7-0.5-0.9-0.8c-0.2-0.4-0.3-0.8-0.3-1.2c0-1,0.6-1.8,1.4-2.2
		c1.4-0.6,2.8-0.9,4.3-0.9V41c0-0.6-0.1-1.1-0.2-1.6c-0.1-0.4-0.3-0.7-0.6-0.9c-0.3-0.2-0.7-0.3-1.1-0.3c-0.5,0-0.9,0.1-1.3,0.4
		c-0.3,0.3-0.6,0.8-0.7,1.2h-1.3v-1.3c0.5-0.3,1-0.5,1.6-0.7c0.4-0.2,0.8-0.3,1.3-0.4c0.4-0.1,0.9-0.1,1.3-0.1
		c0.5,0,1.1,0.1,1.6,0.3c0.4,0.2,0.7,0.6,0.9,1c0.2,0.6,0.3,1.3,0.3,2V44c0,0.5,0,0.8,0,1c0,0.2,0,0.4,0,0.6c0,0.1,0.1,0.3,0.1,0.4
		c0.1,0.1,0.2,0.2,0.3,0.3c0.2,0.1,0.4,0.2,0.6,0.2V47h-2.7L-356.7,45.6z M-356.9,42.5c-1,0-2.1,0.1-3,0.5c-0.6,0.3-1,0.9-1,1.6
		c0,0.3,0.1,0.6,0.2,0.9c0.1,0.2,0.3,0.4,0.6,0.4c0.3,0.1,0.5,0.1,0.8,0.1c0.4,0,0.9-0.1,1.2-0.3c0.4-0.2,0.6-0.5,0.9-0.8
		c0.2-0.3,0.3-0.6,0.3-1L-356.9,42.5z M-344.6,40.3c-0.1-0.5-0.4-1-0.7-1.5c-0.3-0.3-0.7-0.5-1.2-0.5h-1v6.2c-0.1,0.5,0,1,0.3,1.5
		c0.3,0.3,0.6,0.4,1,0.5V47h-4.2v-0.5c0.4,0,0.8-0.2,1-0.5c0.2-0.5,0.3-1,0.2-1.5v-6.2h-1c-0.5,0-0.9,0.2-1.2,0.5
		c-0.3,0.4-0.5,0.9-0.6,1.4h-1v-2.8h9.3v2.8H-344.6z M-334.1,45.3c-0.4,0.4-0.8,0.7-1.2,1c-0.4,0.3-0.8,0.5-1.2,0.6
		c-0.5,0.1-0.9,0.2-1.4,0.2c-1.2,0.1-2.3-0.3-3.1-1.1c-0.7-1.1-1.1-2.3-1-3.6c0-0.9,0.2-1.8,0.5-2.6c0.3-0.7,0.8-1.3,1.5-1.8
		c0.7-0.4,1.5-0.6,2.3-0.6c0.6,0,1.2,0.1,1.7,0.3c0.4,0.2,0.8,0.5,1.1,0.9c0.3,0.4,0.5,0.9,0.7,1.4c0.2,0.7,0.3,1.5,0.3,2.2h-6.3
		v0.2c0,0.7,0.1,1.4,0.3,2c0.2,0.5,0.5,0.9,0.9,1.2c0.5,0.3,1,0.5,1.6,0.5c0.5,0,1-0.1,1.4-0.3c0.5-0.2,0.9-0.6,1.3-1L-334.1,45.3z
		 M-335.7,41.3c0-0.6-0.1-1.2-0.3-1.8c-0.1-0.4-0.3-0.8-0.6-1c-0.3-0.2-0.7-0.4-1.1-0.4c-0.7,0-1.3,0.3-1.6,0.8
		c-0.5,0.7-0.7,1.5-0.7,2.4H-335.7z M-329.4,46.7v2.1c0,0.3,0,0.7,0,1c0,0.2,0.1,0.3,0.2,0.5c0.1,0.1,0.2,0.2,0.3,0.3
		c0.2,0.1,0.4,0.2,0.7,0.2v0.5h-4v-0.5c0.2,0,0.4-0.1,0.6-0.2c0.1-0.1,0.3-0.2,0.4-0.3c0.1-0.2,0.1-0.4,0.2-0.5c0-0.2,0-0.5,0-0.9
		v-8.6c0-0.5,0-0.8,0-1c0-0.2,0-0.3-0.1-0.5c0-0.1-0.1-0.2-0.2-0.3c-0.1-0.1-0.2-0.2-0.3-0.2c-0.2-0.1-0.4-0.1-0.6-0.2v-0.5l2.3-0.1
		h0.6l-0.1,1.6h0.1c0.3-0.3,0.6-0.6,1-0.9c0.2-0.2,0.5-0.3,0.7-0.5c0.2-0.1,0.5-0.2,0.7-0.3c0.2-0.1,0.5-0.1,0.8-0.1
		c1-0.1,2,0.4,2.5,1.2c0.7,1.1,1,2.3,0.9,3.6c0,1-0.1,2-0.5,2.9c-0.3,0.7-0.8,1.3-1.5,1.7c-0.7,0.4-1.5,0.6-2.3,0.6
		c-0.4,0-0.9,0-1.3-0.1C-328.6,47-329,46.9-329.4,46.7z M-329.4,43.5c0,0.5,0,1,0.1,1.5c0.1,0.3,0.2,0.6,0.4,0.8
		c0.2,0.2,0.4,0.4,0.7,0.5c0.4,0.1,0.7,0.2,1.1,0.2c0.7,0,1.4-0.4,1.8-1c0.5-0.9,0.7-2,0.6-3c0-2.6-0.8-3.9-2.3-3.9
		c-0.3,0-0.7,0-1,0.2c-0.3,0.1-0.6,0.3-0.8,0.6c-0.2,0.2-0.4,0.5-0.6,0.8c-0.1,0.2-0.2,0.5-0.2,0.8L-329.4,43.5z M-314.5,47v-0.5
		c0.3-0.1,0.6-0.2,0.8-0.5c0.2-0.4,0.3-0.8,0.2-1.3v-4.2l-4.4,4.5c0,0.3,0,0.7,0.2,1c0.2,0.2,0.5,0.4,0.8,0.4V47h-3.8v-0.5
		c0.3-0.1,0.6-0.2,0.9-0.5c0.2-0.4,0.2-0.8,0.2-1.2v-5.1c0-0.4,0-0.9-0.2-1.2c-0.2-0.3-0.5-0.4-0.9-0.5v-0.5h3.8V38
		c-0.3,0-0.6,0.2-0.8,0.5c-0.2,0.4-0.3,0.8-0.2,1.2v4.1l4.4-4.5c0.1-0.6-0.4-1.2-1-1.3v-0.5h3.8V38c-0.3,0-0.6,0.2-0.8,0.5
		c-0.2,0.4-0.3,0.8-0.2,1.3v5.1c0,0.4,0,0.8,0.2,1.2c0.2,0.3,0.5,0.4,0.9,0.5V47H-314.5z M-302.5,47v-0.5c0.3-0.1,0.6-0.2,0.8-0.5
		c0.2-0.4,0.3-0.8,0.2-1.3v-2.3h-4.3v2.3c0,0.4,0,0.8,0.2,1.2c0.2,0.3,0.5,0.4,0.9,0.5V47h-3.9v-0.5c0.3-0.1,0.6-0.2,0.9-0.5
		c0.2-0.4,0.2-0.8,0.2-1.2v-5.1c0-0.4,0-0.9-0.2-1.2c-0.2-0.3-0.5-0.4-0.9-0.5v-0.5h3.9V38c-0.3,0-0.6,0.2-0.8,0.5
		c-0.2,0.4-0.3,0.8-0.2,1.3v1.9h4.3v-1.9c0-0.4,0-0.9-0.2-1.3c-0.2-0.2-0.5-0.4-0.8-0.4v-0.5h3.9V38c-0.3,0-0.6,0.2-0.9,0.5
		c-0.2,0.4-0.2,0.8-0.2,1.2v5.1c0,0.4,0,0.8,0.2,1.2c0.2,0.3,0.5,0.4,0.9,0.5V47H-302.5z M-296.5,47v-0.5c0.3-0.1,0.6-0.2,0.9-0.5
		c0.2-0.4,0.3-0.8,0.2-1.2v-5.1c0-0.4,0-0.9-0.2-1.2c-0.2-0.3-0.5-0.4-0.8-0.5v-0.5h3.9V38c-0.4,0-0.7,0.2-0.9,0.5
		c-0.2,0.4-0.3,0.8-0.2,1.2v1.9c0.7-0.1,1.4-0.1,2.1-0.1c2.4,0,3.6,0.9,3.6,2.8c0.1,0.8-0.3,1.6-0.9,2.1c-1,0.6-2.1,0.8-3.2,0.7
		L-296.5,47z M-293.8,42.3v3.9c0.4,0,0.8,0,1.3,0c0.7,0.1,1.5-0.1,2.1-0.5c0.4-0.4,0.6-1,0.5-1.6c0-1.3-0.8-2-2.3-2
		C-292.7,42.2-293.2,42.2-293.8,42.3L-293.8,42.3z M-287.3,47v-0.5c0.3-0.1,0.6-0.2,0.9-0.5c0.2-0.4,0.3-0.8,0.2-1.3v-5.1
		c0-0.4,0-0.9-0.2-1.3c-0.2-0.2-0.5-0.4-0.9-0.4v-0.5h3.9V38c-0.3,0-0.6,0.2-0.8,0.5c-0.2,0.4-0.2,0.8-0.2,1.2v5.1
		c0,0.4,0,0.8,0.2,1.2c0.2,0.3,0.5,0.5,0.9,0.5V47H-287.3z M-354.1,5.9c0,0.4,0,0.8,0.2,1.2c0.3,0.3,0.6,0.4,1,0.5v0.5h-4.1V7.6
		c0.3,0,0.7-0.2,0.9-0.4c0.2-0.4,0.2-0.8,0.2-1.2c-1.6,0.1-3.2-0.4-4.5-1.3c-1-0.9-1.6-2.2-1.5-3.6c-0.1-1.4,0.5-2.7,1.5-3.6
		c1.3-1,2.9-1.5,4.5-1.4c0.1-0.4,0-0.8-0.2-1.2c-0.2-0.2-0.6-0.4-0.9-0.4V-6h4.1v0.5c-0.3,0-0.7,0.2-0.9,0.4
		c-0.2,0.4-0.3,0.8-0.2,1.2c4,0.1,6,1.7,6,4.7c0.1,1.4-0.5,2.8-1.5,3.7C-350.9,5.4-352.5,6-354.1,5.9z M-355.9-3.1
		c-2.7,0.1-4,1.5-4,4.1c-0.1,1.1,0.3,2.2,1,3c0.9,0.7,2,1.1,3.1,1L-355.9-3.1z M-354.1-3.1v8.2C-351.4,5-350,3.6-350,1
		c0.1-1.1-0.3-2.2-1-3C-351.8-2.8-352.9-3.1-354.1-3.1L-354.1-3.1z M-340.5,8.3c-0.7,0-1.5-0.1-2.2-0.4c-0.7-0.3-1.2-0.7-1.7-1.2
		c-0.5-0.6-0.9-1.4-1.1-2.1c-0.3-1-0.4-2.1-0.4-3.1c0-1.3,0.2-2.6,0.7-3.8c0.4-1,1.1-1.8,1.9-2.4c0.9-0.6,1.9-0.8,2.9-0.8
		c1.1,0,2.1,0.2,3,0.8c0.8,0.6,1.5,1.4,1.8,2.3c0.4,1.2,0.7,2.4,0.6,3.7c0,1.3-0.2,2.7-0.7,3.9c-0.4,1-1.1,1.8-2,2.4
		C-338.4,8.1-339.5,8.3-340.5,8.3z M-343.8,1.2c-0.1,1.6,0.2,3.2,0.9,4.7c0.5,1,1.5,1.6,2.6,1.6c0.7,0,1.3-0.2,1.9-0.7
		c0.6-0.6,0.9-1.2,1.1-2c0.3-1,0.4-2.1,0.4-3.1c0-1.2-0.1-2.5-0.4-3.6c-0.2-0.8-0.6-1.5-1.2-2.1c-0.5-0.4-1.1-0.7-1.8-0.6
		c-0.5,0-1.1,0.1-1.5,0.4c-0.5,0.3-0.8,0.7-1.1,1.2c-0.3,0.6-0.5,1.2-0.6,1.9C-343.7-0.4-343.8,0.4-343.8,1.2z M-322,5.7
		c0,0.4,0,0.7,0,0.9c0,0.2,0,0.3,0.1,0.5c0,0.1,0.1,0.2,0.2,0.3c0.1,0.1,0.2,0.2,0.3,0.2c0.2,0.1,0.4,0.1,0.6,0.2v0.5h-4.1V7.7
		c0.3-0.1,0.5-0.2,0.8-0.3c0.2-0.1,0.3-0.3,0.3-0.5c0.1-0.4,0.1-0.8,0.1-1.2V1.5h-5.6v4.2c0,0.3,0,0.7,0,1c0,0.2,0.1,0.3,0.1,0.5
		c0.1,0.1,0.2,0.2,0.3,0.3c0.2,0.1,0.4,0.2,0.7,0.2v0.5h-4.2V7.7c0.3-0.1,0.6-0.2,0.8-0.4c0.1-0.2,0.2-0.3,0.3-0.6
		c0.1-0.4,0.1-0.7,0.1-1.1v-8.7c0-0.3,0-0.7-0.1-1c0-0.2-0.1-0.3-0.2-0.5c-0.1-0.1-0.2-0.2-0.3-0.3c-0.2-0.1-0.4-0.2-0.7-0.2v-0.5
		h4.2v0.5c-0.2,0-0.4,0.1-0.6,0.2c-0.1,0.1-0.2,0.2-0.3,0.3c-0.1,0.1-0.2,0.3-0.2,0.5c0,0.3-0.1,0.7-0.1,1v3.5h5.6v-3.5
		c0-0.4,0-0.8-0.1-1.2c0-0.2-0.1-0.3-0.3-0.5c-0.2-0.2-0.5-0.3-0.7-0.3v-0.5h4.2v0.5c-0.3,0.1-0.5,0.2-0.8,0.3
		c-0.2,0.1-0.3,0.3-0.3,0.5c-0.1,0.4-0.1,0.8-0.1,1.2V5.7z M-308.1,11.8c0-0.7-0.2-1.4-0.4-2c-0.1-0.5-0.4-0.9-0.7-1.3
		c-0.3-0.2-0.6-0.3-1-0.3h-6c-0.6,0-1.2,0.3-1.5,0.9c-0.4,0.8-0.6,1.8-0.6,2.7h-1V7.3h1c1.2-1.5,2.1-3.3,2.6-5.2
		c0.6-1.8,1-3.8,1-5.7c0-0.3,0-0.7-0.2-1c-0.2-0.2-0.5-0.4-0.8-0.4v-0.5h8.2v0.5c-0.3,0.1-0.7,0.2-0.9,0.4c-0.2,0.5-0.3,1-0.2,1.6
		V7.3h1.6v4.5H-308.1z M-310.5-4.6h-2.8c-0.4,5.1-1.6,9-3.5,11.8h6.3V-4.6z M-361.9,16.9h54.8v1h-54.8V16.9z M-361.9,28.5h54.8v1
		h-54.8V28.5z M-353.5,21.3v1.1h-0.7c0-0.2-0.1-0.4-0.2-0.5c-0.1-0.1-0.2-0.2-0.3-0.3c-0.1-0.1-0.3-0.1-0.4-0.1
		c-0.2,0-0.5,0.1-0.7,0.2c-0.2,0.2-0.4,0.4-0.4,0.7c-0.1,0.4-0.2,0.8-0.2,1.2c0,0.3,0,0.5,0.1,0.8c0,0.2,0.1,0.4,0.2,0.6
		c0.1,0.2,0.2,0.3,0.4,0.4c0.2,0.1,0.4,0.2,0.6,0.1c0.2,0,0.5,0,0.7-0.1c0.2-0.1,0.5-0.3,0.6-0.5l0.3,0.3c-0.1,0.2-0.3,0.3-0.5,0.4
		c-0.1,0.1-0.3,0.2-0.4,0.3c-0.1,0.1-0.3,0.1-0.5,0.2c-0.2,0-0.3,0-0.5,0c-0.6,0-1.1-0.2-1.5-0.6c-0.4-0.6-0.6-1.2-0.5-1.9
		c0-0.5,0.1-0.9,0.3-1.3c0.2-0.4,0.5-0.7,0.8-0.9c0.4-0.2,0.8-0.3,1.2-0.3c0.3,0,0.5,0,0.8,0.1C-354,21.2-353.8,21.2-353.5,21.3z
		 M-350.2,26.1v-0.2c0.2,0,0.3-0.1,0.4-0.3c0.1-0.2,0.1-0.4,0.1-0.6v-2.7c0-0.2,0-0.5-0.1-0.7c-0.1-0.1-0.3-0.2-0.4-0.2v-0.3h2.3
		c0.5,0,1,0.1,1.5,0.3c0.3,0.2,0.5,0.5,0.5,0.9c0,0.5-0.3,0.9-0.9,1.1v0.1c0.7,0.2,1.1,0.6,1.1,1.2c0,0.4-0.2,0.8-0.5,1
		c-0.5,0.3-1.1,0.4-1.7,0.4L-350.2,26.1z M-348.7,21.6v1.8h0.6c0.4,0,0.7,0,1-0.2c0.2-0.2,0.3-0.4,0.3-0.7c0-0.3-0.1-0.5-0.3-0.7
		c-0.3-0.2-0.7-0.2-1-0.2L-348.7,21.6z M-348.7,23.7v2h0.7c0.4,0,0.7-0.1,1-0.3c0.2-0.2,0.3-0.5,0.3-0.8c0-0.3-0.1-0.5-0.2-0.7
		c-0.3-0.2-0.6-0.3-1-0.3L-348.7,23.7z M-339.6,26.1v-0.2c0.2,0,0.3-0.1,0.4-0.2c0.1-0.2,0.1-0.5,0.1-0.8v-0.9h-0.4
		c-0.3,0-0.5,0-0.8,0.2c-0.2,0.1-0.3,0.3-0.4,0.5l-0.5,1.2v0.2h-1.5v-0.2c0.2,0,0.4-0.1,0.5-0.2c0.1-0.1,0.2-0.3,0.3-0.5l0.2-0.4
		c0.2-0.4,0.5-0.7,0.8-0.8c-0.9-0.2-1.3-0.6-1.3-1.4c0-0.4,0.2-0.8,0.5-1c0.6-0.3,1.2-0.4,1.8-0.3h2v0.3c-0.2,0-0.3,0.1-0.4,0.2
		c-0.1,0.2-0.1,0.4-0.1,0.6v2.5c0,0.3,0,0.5,0.1,0.8c0.1,0.1,0.3,0.2,0.5,0.3v0.2L-339.6,26.1z M-339.1,21.6h-0.7
		c-0.9,0-1.3,0.3-1.3,1c0,0.3,0.1,0.5,0.2,0.7c0.2,0.2,0.5,0.3,1.1,0.3h0.6V21.6z M-330,22.6c-0.1-0.3-0.2-0.5-0.4-0.8
		c-0.2-0.2-0.4-0.3-0.6-0.2h-0.5v3.2c0,0.3,0,0.5,0.1,0.8c0.1,0.1,0.3,0.2,0.5,0.2v0.2h-2.2v-0.2c0.2,0,0.4-0.1,0.5-0.3
		c0.1-0.2,0.1-0.5,0.1-0.8v-3.2h-0.5c-0.2,0-0.5,0.1-0.6,0.3c-0.2,0.2-0.3,0.5-0.3,0.7h-0.5v-1.4h4.8v1.4H-330z M-324,26.2
		c-0.6,0-1.2-0.2-1.6-0.6c-0.4-0.5-0.6-1.2-0.6-1.9c0-0.5,0.1-1,0.3-1.4c0.2-0.4,0.5-0.7,0.8-0.9c0.4-0.2,0.8-0.3,1.2-0.3
		c0.6,0,1.2,0.2,1.7,0.6c0.4,0.5,0.6,1.2,0.6,1.8c0,0.5-0.1,1-0.3,1.4c-0.2,0.4-0.5,0.7-0.8,0.9C-323.1,26.1-323.5,26.2-324,26.2z
		 M-325.2,23.6c0,0.6,0.1,1.1,0.3,1.6c0.2,0.4,0.6,0.6,1,0.6c0.2,0,0.4-0.1,0.6-0.2c0.2-0.1,0.3-0.3,0.4-0.5
		c0.1-0.2,0.2-0.4,0.2-0.7c0-0.3,0.1-0.5,0.1-0.8c0-0.4,0-0.9-0.2-1.3c-0.1-0.3-0.2-0.5-0.5-0.7c-0.2-0.2-0.4-0.2-0.7-0.2
		c-0.4,0-0.8,0.2-1,0.6C-325.1,22.5-325.2,23-325.2,23.6z M-314.9,26.1v-0.2c0.2,0,0.3-0.1,0.4-0.2c0.1-0.2,0.1-0.4,0.1-0.7v-2.2
		l-2.3,2.4c0,0.2,0,0.4,0.1,0.5c0.1,0.1,0.3,0.2,0.4,0.2v0.2h-1.9v-0.2c0.2,0,0.3-0.1,0.4-0.3c0.1-0.2,0.1-0.4,0.1-0.6v-2.7
		c0-0.2,0-0.4-0.1-0.6c-0.1-0.1-0.3-0.2-0.4-0.2v-0.3h2v0.3c-0.2,0-0.3,0.1-0.4,0.2c-0.1,0.2-0.1,0.4-0.1,0.6v2.1l2.3-2.4
		c0-0.2,0-0.3-0.1-0.5c-0.1-0.1-0.3-0.2-0.4-0.2v-0.3h2v0.3c-0.2,0-0.3,0.1-0.4,0.2c-0.1,0.2-0.1,0.4-0.1,0.6V25
		c0,0.2,0,0.4,0.1,0.6c0.1,0.1,0.3,0.2,0.4,0.3v0.3L-314.9,26.1z M-313.8,19.1c0,0.4-0.2,0.7-0.5,0.9c-0.4,0.2-0.8,0.3-1.2,0.3
		c-0.4,0-0.9-0.1-1.2-0.3c-0.3-0.2-0.5-0.5-0.4-0.9v-0.2h0.8v0.2c0,0.2,0,0.5,0.2,0.6c0.2,0.2,0.4,0.2,0.6,0.2
		c0.2,0.1,0.5,0,0.7-0.2s0.3-0.4,0.2-0.6v-0.2h0.9V19.1z"/>
	<path id="Combined-Shape" class="st1" d="M-361.4,19.7c3.3-0.1,3.7-1.9,4-4.1c0.1,2.6,1.6,4.6,4.4,4.9c-2.8,0.3-4.2,2.3-4.4,4.9
		c-0.3-2.2-0.7-4.1-4.2-4.1h-8v16.4c0,2.3,0.6,4.8,2.1,6.5c0.2,0.2,0.3,0.3,0.5,0.5c1.2-1.7,1.8-3.8,1.8-5.9
		c-0.5,1.9-1.3,3.7-2.4,5.2c-0.2-0.3-0.4-0.7-0.5-1.1c2-3.2,2.3-7.8,2.3-11.5V23h4.4v8.4c0,3.7,0.3,8.4,2.3,11.6
		c-0.1,0.4-0.3,0.7-0.6,1l0-0.1c-1.1-1.6-1.9-3.3-2.4-5.2c0,2.1,0.6,4.2,1.8,5.9c0.1-0.1,0.2-0.2,0.3-0.3c1.9-1.8,2.4-3.6,2.4-6.7
		l0-7.6c0-1.6,0.2-3.4,1.7-4.3c0.4-0.3,0.9-0.4,1.4-0.4c0.4,0,0.8,0.1,1,0.4c0.3,0.3,0.4,0.6,0.5,1c0,0.6-0.6,1.1-1.2,1.1
		c-0.3,0-0.6-0.1-0.8-0.3c-0.2-0.2-0.3-0.5-0.3-0.8c-0.5,0.3-0.9,0.8-1,1.4c-1.1,3.8,2.1,12.1,5.1,13.6c-4-0.1-5.6,2.4-8.3,4
		c0,0-0.4,0.5-2.6,1.1c-2.2,0.6-4.5-0.3-6.5-1.6c-2.2-1.5-3.9-3.6-7.5-3.5c1.5-1.1,2.4-2.9,2.4-4.8V4c0-1.9-0.9-3.7-2.4-4.8
		c3.6,0.1,5.3-2,7.5-3.5c2-1.3,4.3-2.2,6.5-1.6s2.6,1.1,2.6,1.1c2.7,1.6,4.4,4.1,8.3,4c-3,1.5-6.2,9.8-5.1,13.6
		c0.1,0.6,0.5,1.1,1,1.4c0-0.3,0.1-0.6,0.3-0.8s0.5-0.3,0.8-0.3c0.6,0,1.2,0.5,1.2,1.1c0,0.4-0.2,0.7-0.4,1c-0.3,0.3-0.7,0.4-1,0.4
		c-0.5,0-1-0.1-1.4-0.4c-1.4-0.9-1.7-2.7-1.7-4.3l0-7.6c0-3.1-0.4-4.9-2.4-6.7c-0.6-0.6-1.4-1.1-2.3-1.3c-1.6-0.6-4,0.1-5.3,1.6
		c-1.5,1.7-2.2,4.2-2.2,6.5v16.4h3.8v-8.1c0-3.6-0.2-8.3-2.3-11.5c0.1-0.4,0.3-0.7,0.5-1.1c1.1,1.6,1.9,3.3,2.4,5.2
		c0-2.1-0.7-4.2-1.8-6c1.4,0.5,2.5,1.7,2.7,3.2c0-1.5-0.1-2.9-0.4-4.4c0.7-0.2,1.5-0.2,2.2,0c-0.3,1.4-0.5,2.9-0.4,4.4
		c0.3-1.5,1.3-2.7,2.7-3.2c-1.2,1.7-1.8,3.8-1.8,6c0.5-1.9,1.3-3.7,2.4-5.2c0,0,0-0.1,0.1-0.1c0.1,0.2,0.2,0.3,0.3,0.5l0,0
		c0.1,0.2,0.2,0.3,0.2,0.5c-2.1,3.2-2.4,7.9-2.4,11.6V19.7z M-366.8,44.7c0.6,0.5,1.4,0.9,2.2,1.1c0.3-1.4,0.4-2.8,0.4-4.2
		C-364.5,43-365.5,44.2-366.8,44.7z M-362.4,45.8c0.1,0,0.2-0.1,0.3-0.1c0.7-0.2,1.4-0.6,2-1c-1.4-0.5-2.4-1.7-2.7-3.2
		C-362.9,42.9-362.8,44.4-362.4,45.8z M-375.3,44.3c1.3,0.8,2.9,0.9,4.4,0.5c0.3,0.2,0.6,0.5,0.9,0.7c-1.8,0.7-3.8,0.7-5.6,0
		c-4.2-1.6-6.5-6.2-7.7-10.5c-0.9-3.1-1.3-6.8-1.5-10.5c0,0-0.1-3.7-0.1-3.8v0c0.1-4.6,0.5-9.5,1.6-13.4c1.2-4.3,3.5-9,7.7-10.6
		c1.8-0.7,3.8-0.7,5.6,0c-0.3,0.2-0.6,0.5-0.9,0.7c-1.4-0.4-3-0.3-4.3,0.5c-5.8,3.2-5.3,16.1-5.6,21.3c0,0.5,0.1,5.2,0.1,5.2
		S-380.7,41.3-375.3,44.3z M-341,20.6L-341,20.6L-341,20.6c0,0.1-0.1,3.8-0.1,3.8c-0.2,3.7-0.6,7.4-1.5,10.5
		c-1.2,4.3-3.5,9-7.7,10.5c-1.8,0.7-3.8,0.7-5.6,0c0.3-0.3,0.6-0.5,0.9-0.7c1.4,0.5,3,0.3,4.3-0.4c5.4-3,5.5-20.1,5.5-20.1
		s0.1-4.6,0.1-5.2c-0.2-5.2,0.2-18.1-5.6-21.3c-1.3-0.7-2.9-0.9-4.3-0.5c-0.3-0.2-0.6-0.5-0.9-0.7c1.8-0.7,3.8-0.7,5.6,0
		c4.2,1.6,6.5,6.2,7.7,10.5C-341.5,11.1-341.1,15.9-341,20.6z"/>
</g>
</svg>
