<?xml version="1.0" encoding="UTF-8"?>
<svg width="411px" height="85px" viewBox="0 0 411 85" version="1.1" xmlns="http://www.w3.org/2000/svg" xmlns:xlink="http://www.w3.org/1999/xlink">
    <!-- Generator: Sketch 51 (57462) - http://www.bohemiancoding.com/sketch -->
    <title>Logo</title>
    <desc>Created with Sketch.</desc>
    <defs></defs>
    <g id="Page-1" stroke="none" stroke-width="1" fill="none" fill-rule="evenodd">
        <g id="Logo" fill-rule="nonzero">
            <g>
                <path d="M8.4023438,84 L0.5898438,84 L0.5898438,83.6875 L1.2734375,83.4335938 L1.2734375,65.875 C1.2473957,64.0650951 2.3411348,63.1341148 4.5546875,63.0820312 C6.6119895,63.108073 7.6666664,63.9869705 7.71875,65.71875 L7.71875,66.6757812 C7.71875,67.2096381 7.6536465,67.6393213 7.5234375,67.9648438 C7.3541658,68.2773453 7.1523449,68.531249 6.9179688,68.7265625 C6.6835926,68.8828133 6.4296889,68.9999996 6.15625,69.078125 C5.895832,69.1822922 5.6158869,69.3190096 5.3164062,69.4882812 C4.8606748,69.7226574 4.4635434,70.0807268 4.125,70.5625 C3.7213521,71.0442732 3.5195312,71.6302049 3.5195312,72.3203125 C3.5195312,73.283859 3.8645799,74.0585908 4.5546875,74.6445312 C5.1927115,75.2304717 5.9674434,75.5234375 6.8789062,75.5234375 C7.2825541,75.5234375 7.6796855,75.458334 8.0703125,75.328125 L8.2851562,75.7578125 C8.0898428,75.8619797 7.9010426,75.9140625 7.71875,75.9140625 L7.71875,83.4335938 L8.4023438,83.6875 L8.4023438,84 Z M3.5195312,74.1953125 L3.5195312,83.4726562 L5.4726562,83.4726562 L5.4726562,75.796875 C4.6262979,75.4583316 3.9752627,74.9244828 3.5195312,74.1953125 Z M3.5195312,70.5234375 C3.675782,70.197915 3.8776029,69.9309906 4.125,69.7226562 C4.3333344,69.5143219 4.5416656,69.312501 4.75,69.1171875 C4.9713553,68.9088531 5.1471348,68.6809908 5.2773438,68.4335938 C5.4075527,68.1992176 5.4726562,67.9062518 5.4726562,67.5546875 L5.4726562,64.9179688 C5.4466145,64.3059865 5.3294281,63.9218758 5.1210938,63.765625 C4.8997385,63.6614578 4.6718762,63.609375 4.4375,63.609375 C4.2552074,63.609375 4.0664072,63.6614578 3.8710938,63.765625 C3.6367176,63.9218758 3.5195312,64.3059865 3.5195312,64.9179688 L3.5195312,70.5234375 Z M22.3046875,67.1640625 L22.3046875,66.890625 L22.6367188,66.7148438 L22.6367188,65.875 C22.6367188,65.0546834 22.8906225,64.3776068 23.3984375,63.84375 C23.9062525,63.335935 24.7200465,63.0690105 25.8398438,63.0429688 C27.0638082,63.0429688 27.929685,63.3359346 28.4375,63.921875 C28.8932314,64.4817736 29.1210938,65.2565055 29.1210938,66.2460938 L29.1210938,74.6445312 C29.1210938,75.3085971 29.0364592,75.8945287 28.8671875,76.4023438 C28.6848949,76.9362006 28.4309912,77.4049459 28.1054688,77.8085938 C27.8450508,78.1992207 27.5260436,78.5703107 27.1484375,78.921875 C26.7838523,79.2734393 26.4127623,79.6054672 26.0351562,79.9179688 C25.3450486,80.4778674 25.0130207,81.0898404 25.0390625,81.7539062 C25.0651043,82.9908916 25.6119738,83.609375 26.6796875,83.609375 C27.1875025,83.609375 27.6236961,83.4596369 27.9882812,83.1601562 C28.3658873,82.8997383 28.5807289,82.5677104 28.6328125,82.1640625 L28.5546875,82.1640625 C28.5026039,82.4505223 28.2747416,82.6067707 27.8710938,82.6328125 C27.2070279,82.6328125 26.875,82.2617225 26.875,81.5195312 C26.9010418,80.8294236 27.2721318,80.4713543 27.9882812,80.4453125 C28.3138037,80.4453125 28.5807281,80.5755195 28.7890625,80.8359375 C29.0104178,81.1354182 29.1210938,81.4804668 29.1210938,81.8710938 C29.095052,82.6263059 28.8281275,83.1861961 28.3203125,83.5507812 C27.7604139,83.9544291 27.1549512,84.15625 26.5039062,84.15625 C25.1497328,84.1302082 24.1796904,83.7591182 23.59375,83.0429688 C23.0078096,82.3268193 22.6888023,81.4218805 22.6367188,80.328125 L22.6367188,74.2734375 L22.265625,73.9609375 L22.4414062,73.609375 L25.1953125,73.609375 L25.3125,74 L24.921875,74.2734375 L24.921875,80.1523438 C25.182293,79.8138004 25.4296863,79.5078139 25.6640625,79.234375 C25.9114596,78.973957 26.1132805,78.6679705 26.2695312,78.3164062 C26.4908865,77.9778629 26.6536453,77.5156279 26.7578125,76.9296875 C26.8359379,76.3697889 26.875,75.6210984 26.875,74.6835938 L26.875,70.953125 C26.7968746,70.5364563 26.6731779,70.2434904 26.5039062,70.0742188 C26.3216137,69.9700516 26.1002617,69.9179688 25.8398438,69.9179688 C25.2799451,69.9179688 24.9739586,70.347652 24.921875,71.2070312 L25.2734375,71.4023438 L25.2734375,71.6757812 L22.3046875,71.6757812 L22.3046875,71.4023438 L22.6367188,71.2070312 L22.6367188,70.796875 C22.6367188,70.1328092 22.8645811,69.5989604 23.3203125,69.1953125 C23.7369812,68.7786438 24.2708301,68.5703125 24.921875,68.5703125 C26.0416723,68.6223961 26.6927074,69.0976518 26.875,69.9960938 L26.875,65.328125 C26.875,64.8723936 26.8229172,64.4687518 26.71875,64.1171875 C26.5755201,63.7786441 26.3085957,63.609375 25.9179688,63.609375 C25.4622373,63.609375 25.1822922,63.8046855 25.078125,64.1953125 C24.9348951,64.5989604 24.8828123,65.184892 24.921875,65.953125 L24.921875,66.7148438 L25.2734375,66.890625 L25.2734375,67.1640625 L22.3046875,67.1640625 Z M36.7070312,63.7265625 L34.7539062,63.7265625 L34.7539062,83.4335938 L35.1835938,83.6875 L35.1835938,84 L31.8242188,84 L31.8242188,83.6875 L32.5078125,83.4335938 L32.5078125,63.765625 L31.8242188,63.5117188 L31.8242188,63.1992188 L39.6367188,63.1992188 L39.6367188,63.5117188 L38.953125,63.765625 L38.953125,83.4335938 L39.6367188,83.6875 L39.6367188,84 L36.2773438,84 L36.2773438,83.6875 L36.7070312,83.4335938 L36.7070312,63.7265625 Z M49.78125,73.5703125 C49.8072918,75.940116 49.4492225,78.2057184 48.7070312,80.3671875 C48.3033834,81.3697967 47.7434932,82.2226527 47.0273438,82.9257812 C46.3372361,83.6419307 45.4322973,84.130207 44.3125,84.390625 L44.3125,84.1171875 C44.5468762,84.0911457 44.6640625,83.8763041 44.6640625,83.4726562 C44.6640625,83.2122383 44.6119797,82.8671896 44.5078125,82.4375 L43.3164062,77.8476562 C42.8606748,76.1940021 42.6328125,74.709642 42.6328125,73.3945312 C42.6328125,70.8945188 43.0690061,68.5898543 43.9414062,66.4804688 C44.3710959,65.4648387 44.9440068,64.638024 45.6601562,64 C46.337243,63.3880178 47.1510369,63.0299484 48.1015625,62.9257812 L48.1015625,63.2382812 C47.8411445,63.2903648 47.7239582,63.4921857 47.75,63.84375 C47.75,64.1562516 47.8281242,64.6119762 47.984375,65.2109375 L49.1953125,69.8007812 C49.5859395,71.3242264 49.78125,72.5807242 49.78125,73.5703125 Z M46.109375,64.3710938 C44.9895777,65.5950582 44.4296875,67.2747289 44.4296875,69.4101562 C44.4296875,70.7903715 44.5598945,72.1445246 44.8203125,73.4726562 L46.1484375,79.234375 C46.3828137,80.3020887 46.5,81.0768205 46.5,81.5585938 C46.5,82.0664088 46.4218758,82.5351541 46.265625,82.9648438 C46.8776072,82.4049451 47.3203111,81.6562547 47.59375,80.71875 C47.854168,79.8072871 47.984375,78.9153689 47.984375,78.0429688 C47.9583332,76.4934818 47.8541676,75.2825564 47.671875,74.4101562 L46.03125,67.203125 C45.9531246,66.7994771 45.9140625,66.3697939 45.9140625,65.9140625 C45.9140625,65.3020803 45.979166,64.7877625 46.109375,64.3710938 Z M55.7070312,75.9921875 C55.4335924,77.2291729 55.1015645,78.5637949 54.7109375,79.9960938 C54.5416658,80.6862014 54.3919277,81.272133 54.2617188,81.7539062 C54.1315098,82.2617213 54.0664062,82.5807285 54.0664062,82.7109375 C54.0664062,82.9322928 54.1184891,83.1341137 54.2226562,83.3164062 C54.3007816,83.5377615 54.4635404,83.6484375 54.7109375,83.6484375 L55.1796875,83.6484375 L55.1796875,84 L51.9375,84 L51.9375,83.609375 L52.3085938,83.609375 C52.5950535,83.609375 52.8359365,83.4726576 53.03125,83.1992188 C53.2395844,82.9908844 53.3567707,82.7500014 53.3828125,82.4765625 L55.375,74.7226562 L52.5039062,63.8046875 L51.9375,63.5703125 L51.9375,63.2382812 L55.375,63.2382812 L55.375,63.5703125 L54.75,63.8046875 L56.46875,70.2890625 L57.6601562,65.1523438 C57.8554697,64.3841107 58.1484355,63.7721377 58.5390625,63.3164062 C58.9427104,62.9257793 59.528642,62.7304688 60.296875,62.7304688 L60.0234375,67.046875 L59.6328125,67.046875 C59.6588543,66.1354121 59.4440127,65.6666668 58.9882812,65.640625 C58.6888006,65.640625 58.4609383,65.7773424 58.3046875,66.0507812 C58.1223949,66.2851574 58.0052086,66.5325508 57.953125,66.7929688 L56.78125,71.5976562 L59.8671875,83.3945312 L60.6679688,83.6875 L60.6679688,84 L57.1523438,84 L57.1523438,83.6875 L57.6210938,83.4726562 L55.7070312,75.9921875 Z M64.171875,63.765625 L63.4296875,63.609375 L63.4296875,63.1992188 L66.984375,63.1992188 L67.0625,63.5117188 L66.4570312,63.765625 L68.2539062,73.9609375 L68.78125,73.9609375 L69.8554688,65.484375 C69.9856777,63.8828045 70.8255131,63.0690105 72.375,63.0429688 L72.375,67.359375 L71.9453125,67.359375 C71.9453125,66.4869748 71.7044295,66.0312502 71.2226562,65.9921875 C70.9231756,65.9921875 70.6953133,66.1289049 70.5390625,66.4023438 C70.3828117,66.6367199 70.2786461,66.8906236 70.2265625,67.1640625 L68.9765625,76.96875 C69.4322939,77.0468754 69.8359357,77.2031238 70.1875,77.4375 C70.5520852,77.6848971 70.8710924,77.9648422 71.1445312,78.2773438 C71.6783881,78.9414096 71.9583332,79.7161414 71.984375,80.6015625 C71.9583332,81.695318 71.5677121,82.6002568 70.8125,83.3164062 C70.0182252,84.0716184 69.0872449,84.4622395 68.0195312,84.4882812 C66.899734,84.4622395 65.9687537,84.0716184 65.2265625,83.3164062 C64.4453086,82.6002568 64.0416668,81.695318 64.015625,80.6015625 C64.015625,80.0937475 64.1393217,79.5989607 64.3867188,79.1171875 C64.5950531,78.6614561 64.8749982,78.2773453 65.2265625,77.9648438 C65.9687537,77.2747361 66.899734,76.9101564 68.0195312,76.8710938 L68.2929688,76.8710938 L68.625,74.5664062 L65.421875,74.5664062 L65.421875,74.234375 L66.1054688,73.9609375 L64.171875,63.765625 Z M69.7382812,80.328125 L66.4960938,80.328125 L66.4960938,79.9179688 L66.8671875,79.9179688 C67.1536473,79.9179688 67.3945303,79.7877617 67.5898438,79.5273438 C67.7981781,79.3059885 67.9153645,79.0651055 67.9414062,78.8046875 L68.2539062,77.359375 L68.0976562,77.359375 C67.3294232,77.3854168 66.6653674,77.6262998 66.1054688,78.0820312 C65.5455701,78.5377627 65.265625,79.1236943 65.265625,79.8398438 C65.265625,80.5299514 65.5455701,81.1028623 66.1054688,81.5585938 C66.6653674,82.0924506 67.3294232,82.359375 68.0976562,82.359375 C68.9309937,82.359375 69.6145807,82.0924506 70.1484375,81.5585938 C70.6432316,81.1028623 70.9101561,80.5299514 70.9492188,79.8398438 C70.9492188,79.2799451 70.7604186,78.7721377 70.3828125,78.3164062 C69.9791646,77.8867166 69.4713572,77.5937508 68.859375,77.4375 C68.6770824,78.4270883 68.5989582,78.9609371 68.625,79.0390625 C68.625,79.2473969 68.6770828,79.4361971 68.78125,79.6054688 C68.8593754,79.8138031 69.0221342,79.9179688 69.2695312,79.9179688 L69.7382812,79.9179688 L69.7382812,80.328125 Z M91.101562,63.7265625 L89.148438,63.7265625 L89.148438,83.4335938 L89.578125,83.6875 L89.578125,84 L86.21875,84 L86.21875,83.6875 L86.9023438,83.4335938 L86.9023438,63.765625 L86.21875,63.5117188 L86.21875,63.1992188 L94.03125,63.1992188 L94.03125,63.5117188 L93.347656,63.765625 L93.347656,83.4335938 L94.03125,83.6875 L94.03125,84 L90.671875,84 L90.671875,83.6875 L91.101562,83.4335938 L91.101562,63.7265625 Z M99.625,74.2734375 L99.625,83.4335938 L100.308594,83.6875 L100.308594,84 L96.695312,84 L96.695312,83.6875 L97.378906,83.4335938 L97.378906,65.875 C97.352864,64.0650951 98.446604,63.1341148 100.660156,63.0820312 C102.717458,63.108073 103.772135,63.9869705 103.824219,65.71875 L103.824219,66.6757812 C103.824219,67.2096381 103.759115,67.6393213 103.628906,67.9648438 C103.459635,68.2773453 103.257814,68.531249 103.023438,68.7265625 C102.789061,68.8828133 102.535158,68.9999996 102.261719,69.078125 C102.001301,69.1822922 101.721356,69.3190096 101.421875,69.4882812 C100.966144,69.7226574 100.569012,70.0807268 100.230469,70.5625 C99.826821,71.0442732 99.625,71.6302049 99.625,72.3203125 C99.677084,73.7656322 100.15885,74.501302 101.070312,74.5273438 C102.020838,74.501302 102.567708,74.0325566 102.710938,73.1210938 L102.574219,73.0820312 C102.522135,73.4335955 102.300783,73.609375 101.910156,73.609375 C101.636717,73.609375 101.395834,73.498699 101.1875,73.2773438 C100.966145,73.121093 100.855469,72.8541686 100.855469,72.4765625 C100.855469,71.7604131 101.24609,71.389323 102.027344,71.3632812 C102.391929,71.3632812 102.697915,71.4934883 102.945312,71.7539062 C103.153647,72.0533869 103.257812,72.4049459 103.257812,72.8085938 C103.231771,73.550785 103.003908,74.1106752 102.574219,74.4882812 C102.131508,74.8528664 101.656253,75.0351562 101.148438,75.0351562 C100.236975,74.9830727 99.729167,74.7291689 99.625,74.2734375 Z M99.625,70.5234375 C99.781251,70.197915 99.983072,69.9309906 100.230469,69.7226562 C100.438803,69.5143219 100.647134,69.312501 100.855469,69.1171875 C101.076824,68.9088531 101.252604,68.6809908 101.382812,68.4335938 C101.513021,68.1992176 101.578125,67.9062518 101.578125,67.5546875 L101.578125,64.9179688 C101.552083,64.3059865 101.434897,63.9218758 101.226562,63.765625 C101.005207,63.6614578 100.777345,63.609375 100.542969,63.609375 C100.360676,63.609375 100.171876,63.6614578 99.976562,63.765625 C99.742186,63.9218758 99.625,64.3059865 99.625,64.9179688 L99.625,70.5234375 Z M111.253906,63.1992188 L114.183594,63.1992188 L114.183594,63.5117188 L113.5,63.7265625 L113.5,83.4335938 L114.183594,83.6875 L114.183594,84 L110.824219,84 L110.824219,83.7265625 L111.253906,83.4335938 L111.253906,72.8085938 C110.798175,73.9023492 110.14714,74.6705707 109.300781,75.1132812 L109.300781,83.4335938 L109.730469,83.7265625 L109.730469,84 L106.332031,84 L106.332031,83.6875 L107.054688,83.4335938 L107.054688,75.6015625 L106.664062,75.328125 L106.78125,74.9179688 C106.937501,75.0221359 107.093749,75.0742188 107.25,75.0742188 C109.359386,75.048177 110.694008,73.6875135 111.253906,70.9921875 C111.01953,71.4479189 110.726564,71.7994779 110.375,72.046875 C110.036457,72.3333348 109.54167,72.4765625 108.890625,72.4765625 C108.200517,72.4765625 107.725262,72.2226588 107.464844,71.7148438 C107.191405,71.2330705 107.054688,70.7447941 107.054688,70.25 C107.054688,69.3906207 107.28255,68.7721373 107.738281,68.3945312 C108.141929,68.0559879 108.610674,67.8020842 109.144531,67.6328125 C109.808597,67.3723945 110.329425,67.0924494 110.707031,66.7929688 C111.071616,66.506509 111.253906,66.0703154 111.253906,65.484375 C111.253906,64.9505182 111.084637,64.4947936 110.746094,64.1171875 C110.368488,63.7786441 109.886722,63.609375 109.300781,63.609375 C108.311193,63.6354168 107.712241,64.0976518 107.503906,64.9960938 L107.621094,65.0351562 C107.673177,64.7486965 107.90104,64.592448 108.304688,64.5664062 C108.942712,64.5664062 109.274739,64.9374963 109.300781,65.6796875 C109.274739,66.3697951 108.890629,66.7278645 108.148438,66.7539062 C107.848957,66.7539062 107.595053,66.5976578 107.386719,66.2851562 C107.165363,66.0117174 107.054688,65.6927102 107.054688,65.328125 C107.054688,64.5208293 107.308591,63.9479184 107.816406,63.609375 C108.246096,63.2578107 108.701821,63.0820312 109.183594,63.0820312 C110.082036,63.0820312 110.772133,63.3880178 111.253906,64 L111.253906,63.1992188 Z M111.253906,67.125 C111.123697,67.3072926 110.928387,67.4765617 110.667969,67.6328125 C110.264321,67.9062514 109.938803,68.1861965 109.691406,68.4726562 C109.430988,68.7721369 109.300781,69.2148408 109.300781,69.8007812 L109.300781,70.1523438 C109.300781,70.6080752 109.391926,70.9205721 109.574219,71.0898438 C109.74349,71.2721363 109.906249,71.3502605 110.0625,71.3242188 C110.34896,71.3242188 110.628905,71.1223979 110.902344,70.71875 C111.110678,70.3671857 111.227864,70.0221371 111.253906,69.6835938 L111.253906,67.125 Z M124.660156,84 L116.847656,84 L116.847656,83.6875 L117.53125,83.4335938 L117.53125,65.875 C117.505208,64.0650951 118.598947,63.1341148 120.8125,63.0820312 C122.869802,63.108073 123.924479,63.9869705 123.976562,65.71875 L123.976562,66.6757812 C123.976562,67.2096381 123.911459,67.6393213 123.78125,67.9648438 C123.611978,68.2773453 123.410157,68.531249 123.175781,68.7265625 C122.941405,68.8828133 122.687501,68.9999996 122.414062,69.078125 C122.153645,69.1822922 121.873699,69.3190096 121.574219,69.4882812 C121.118487,69.7226574 120.721356,70.0807268 120.382812,70.5625 C119.979165,71.0442732 119.777344,71.6302049 119.777344,72.3203125 C119.777344,73.283859 120.122392,74.0585908 120.8125,74.6445312 C121.450524,75.2304717 122.225256,75.5234375 123.136719,75.5234375 C123.540367,75.5234375 123.937498,75.458334 124.328125,75.328125 L124.542969,75.7578125 C124.347655,75.8619797 124.158855,75.9140625 123.976562,75.9140625 L123.976562,83.4335938 L124.660156,83.6875 L124.660156,84 Z M119.777344,74.1953125 L119.777344,83.4726562 L121.730469,83.4726562 L121.730469,75.796875 C120.88411,75.4583316 120.233075,74.9244828 119.777344,74.1953125 Z M119.777344,70.5234375 C119.933595,70.197915 120.135415,69.9309906 120.382812,69.7226562 C120.591147,69.5143219 120.799478,69.312501 121.007812,69.1171875 C121.229168,68.9088531 121.404947,68.6809908 121.535156,68.4335938 C121.665365,68.1992176 121.730469,67.9062518 121.730469,67.5546875 L121.730469,64.9179688 C121.704427,64.3059865 121.587241,63.9218758 121.378906,63.765625 C121.157551,63.6614578 120.929689,63.609375 120.695312,63.609375 C120.51302,63.609375 120.32422,63.6614578 120.128906,63.765625 C119.89453,63.9218758 119.777344,64.3059865 119.777344,64.9179688 L119.777344,70.5234375 Z M132.578125,63.1992188 L135.488281,63.1992188 L135.488281,63.5117188 L134.804688,63.765625 L134.804688,83.4335938 L135.488281,83.6875 L135.488281,84 L132.128906,84 L132.128906,83.6875 L132.578125,83.4335938 L132.578125,68.5117188 L131.855469,70.1132812 C130.839839,72.2226668 130.30599,74.5468623 130.253906,77.0859375 L130.253906,83.4335938 L130.683594,83.6875 L130.683594,84 L127.324219,84 L127.324219,83.6875 L128.007812,83.4335938 L128.007812,77.4375 C128.007812,75.7057205 128.261716,74.3190156 128.769531,73.2773438 C129.225263,72.2356719 129.746091,71.3567744 130.332031,70.640625 C130.917972,69.8984338 131.4388,69.123702 131.894531,68.3164062 C132.324221,67.5481732 132.552083,66.5781309 132.578125,65.40625 C132.578125,64.9244768 132.389325,64.4947936 132.011719,64.1171875 C131.634113,63.7786441 131.165367,63.609375 130.605469,63.609375 C129.628901,63.6354168 129.029949,64.0976518 128.808594,64.9960938 L128.925781,65.0351562 C128.977865,64.7486965 129.205727,64.592448 129.609375,64.5664062 C130.247399,64.5664062 130.579427,64.9374963 130.605469,65.6796875 C130.579427,66.3697951 130.195316,66.7278645 129.453125,66.7539062 C129.153644,66.7539062 128.899741,66.5976578 128.691406,66.2851562 C128.483072,66.0117174 128.378906,65.6927102 128.378906,65.328125 C128.378906,64.5208293 128.63281,63.9479184 129.140625,63.609375 C129.557294,63.2578107 130.006508,63.0820312 130.488281,63.0820312 C131.399744,63.0820312 132.096352,63.3880178 132.578125,64 L132.578125,63.1992188 Z M142.78125,73.609375 L145.535156,73.609375 L145.691406,73.9609375 L145.300781,74.2734375 L145.300781,80.1523438 C145.300781,81.272141 145.020836,82.2096316 144.460937,82.9648438 C143.874997,83.7330768 142.872403,84.1302082 141.453125,84.15625 C140.815101,84.15625 140.24219,83.9544291 139.734375,83.5507812 C139.148435,83.1861961 138.855469,82.6263059 138.855469,81.8710938 C138.855469,81.4804668 138.966145,81.1354182 139.1875,80.8359375 C139.395834,80.5755195 139.649738,80.4453125 139.949219,80.4453125 C140.69141,80.4713543 141.075521,80.8294236 141.101562,81.5195312 C141.075521,82.2617225 140.743493,82.6328125 140.105469,82.6328125 C139.727863,82.6067707 139.5,82.4505223 139.421875,82.1640625 L139.34375,82.1640625 C139.395834,82.3463551 139.473958,82.5156242 139.578125,82.671875 C139.708334,82.8671885 139.858072,83.042968 140.027344,83.1992188 C140.417971,83.4986994 140.841144,83.6484375 141.296875,83.6484375 C142.338547,83.6223957 142.872396,82.9908916 142.898437,81.7539062 C142.898437,81.3893211 142.846355,81.0703139 142.742187,80.796875 C142.611979,80.536457 142.345054,80.2434912 141.941406,79.9179688 C141.082027,79.2278611 140.359378,78.46615 139.773437,77.6328125 C139.161455,76.8645795 138.855469,75.8684957 138.855469,74.6445312 L138.855469,66.2460938 C138.829427,65.2565055 139.07031,64.4817736 139.578125,63.921875 C140.08594,63.3619764 140.938796,63.0820312 142.136719,63.0820312 C143.282558,63.0820312 144.109372,63.335935 144.617187,63.84375 C145.072919,64.3776068 145.300781,65.0546834 145.300781,65.875 L145.300781,66.7148438 L145.652344,66.890625 L145.652344,67.1640625 L142.703125,67.1640625 L142.703125,66.890625 L143.054687,66.7148438 L143.054687,65.953125 C143.054687,65.1588502 143.015625,64.5598979 142.9375,64.15625 C142.833333,63.7916648 142.540367,63.609375 142.058594,63.609375 C141.654946,63.609375 141.401042,63.7786441 141.296875,64.1171875 C141.166666,64.4687518 141.101562,64.8723936 141.101562,65.328125 L141.101562,69.9960938 C141.283855,69.0976518 141.93489,68.6223961 143.054687,68.5703125 C143.718753,68.5703125 144.252602,68.7786438 144.65625,69.1953125 C145.08594,69.5989604 145.300781,70.1328092 145.300781,70.796875 L145.300781,71.2070312 L145.652344,71.4023438 L145.652344,71.6757812 L142.703125,71.6757812 L142.703125,71.4023438 L143.054687,71.2070312 C143.002604,70.347652 142.696617,69.9179688 142.136719,69.9179688 C141.902343,69.9179688 141.700522,69.9700516 141.53125,70.0742188 C141.348957,70.2434904 141.20573,70.5364563 141.101562,70.953125 L141.101562,74.6835938 C141.101562,75.6210984 141.166666,76.3697889 141.296875,76.9296875 C141.427084,77.5156279 141.576822,77.9778629 141.746094,78.3164062 C141.928386,78.6679705 142.136718,78.973957 142.371094,79.234375 C142.592449,79.5078139 142.820311,79.8138004 143.054687,80.1523438 L143.054687,74.2734375 L142.664062,74 L142.78125,73.609375 Z M151.578125,63.765625 L151.578125,67.4375 L153.53125,70.9921875 L153.53125,63.765625 L153.101562,63.5117188 L153.101562,63.1992188 L156.460938,63.1992188 L156.460938,63.5117188 L155.777344,63.765625 L155.777344,83.4335938 L156.460938,83.6875 L156.460938,84 L153.101562,84 L153.101562,83.6875 L153.53125,83.4335938 L153.53125,72.515625 L151.578125,69 L151.578125,83.4335938 L152.007812,83.6875 L152.007812,84 L148.648438,84 L148.648438,83.6875 L149.332031,83.4335938 L149.332031,63.765625 L148.648438,63.5117188 L148.648438,63.1992188 L152.007812,63.1992188 L152.007812,63.5117188 L151.578125,63.765625 Z M162.054688,70.9921875 L164.007812,67.4375 L164.007812,63.765625 L163.578125,63.5117188 L163.578125,63.1992188 L166.9375,63.1992188 L166.9375,63.5117188 L166.253906,63.765625 L166.253906,83.4335938 L166.9375,83.6875 L166.9375,84 L163.578125,84 L163.578125,83.6875 L164.007812,83.4335938 L164.007812,69 L162.054688,72.515625 L162.054688,83.4335938 L162.484375,83.6875 L162.484375,84 L159.125,84 L159.125,83.6875 L159.808594,83.4335938 L159.808594,63.765625 L159.125,63.5117188 L159.125,63.1992188 L162.484375,63.1992188 L162.484375,63.5117188 L162.054688,63.765625 L162.054688,70.9921875 Z M174.484375,74.1953125 C174.028644,74.9244828 173.377608,75.4583316 172.53125,75.796875 L172.53125,83.4335938 L172.960938,83.6875 L172.960938,84 L169.601562,84 L169.601562,83.6875 L170.285156,83.4335938 L170.285156,75.9140625 C170.102864,75.9140625 169.920574,75.8619797 169.738281,75.7578125 L169.933594,75.328125 C170.337242,75.458334 170.734373,75.5234375 171.125,75.5234375 C172.036463,75.5234375 172.824215,75.2304717 173.488281,74.6445312 C174.126305,74.0585908 174.458333,73.283859 174.484375,72.3203125 C174.484375,71.6302049 174.315106,71.0442732 173.976562,70.5625 C173.598956,70.0807268 173.169273,69.7226574 172.6875,69.4882812 C172.453124,69.3190096 172.19922,69.1822922 171.925781,69.078125 C171.639321,68.9999996 171.372397,68.8828133 171.125,68.7265625 C170.890624,68.531249 170.708334,68.2773453 170.578125,67.9648438 C170.382812,67.6393213 170.285156,67.2096381 170.285156,66.6757812 L170.285156,65.71875 C170.285156,64.8463498 170.578122,64.1822939 171.164062,63.7265625 C171.723961,63.2968729 172.485672,63.0820312 173.449219,63.0820312 C175.662771,63.1341148 176.756511,64.0650951 176.730469,65.875 L176.730469,83.4335938 L177.414062,83.6875 L177.414062,84 L174.054688,84 L174.054688,83.6875 L174.484375,83.4335938 L174.484375,74.1953125 Z M174.484375,70.5234375 L174.484375,64.9179688 C174.484375,64.3059865 174.39323,63.9218758 174.210938,63.765625 C174.002603,63.6614578 173.787762,63.609375 173.566406,63.609375 C173.384114,63.609375 173.182293,63.6614578 172.960938,63.765625 C172.85677,63.8437504 172.765625,63.9739574 172.6875,64.15625 C172.583333,64.3515635 172.53125,64.6054672 172.53125,64.9179688 L172.53125,67.5546875 C172.557292,68.2317742 172.824216,68.7526023 173.332031,69.1171875 C173.540366,69.312501 173.755207,69.5143219 173.976562,69.7226562 C174.184897,69.9309906 174.354166,70.197915 174.484375,70.5234375 Z M194.246094,70.9921875 L196.199219,67.4375 L196.199219,63.765625 L195.769531,63.5117188 L195.769531,63.1992188 L199.128906,63.1992188 L199.128906,63.5117188 L198.445312,63.765625 L198.445312,83.4335938 L199.128906,83.6875 L199.128906,84 L195.769531,84 L195.769531,83.6875 L196.199219,83.4335938 L196.199219,69 L194.246094,72.515625 L194.246094,83.4335938 L194.675781,83.6875 L194.675781,84 L191.316406,84 L191.316406,83.6875 L192,83.4335938 L192,63.765625 L191.316406,63.5117188 L191.316406,63.1992188 L194.675781,63.1992188 L194.675781,63.5117188 L194.246094,63.765625 L194.246094,70.9921875 Z M206.675781,63.1992188 L209.351562,63.1992188 L209.351562,63.5117188 L208.921875,63.765625 L208.921875,74.4882812 C209.911463,73.8111945 210.562498,72.6458416 210.875,70.9921875 L210.875,63.765625 L210.445312,63.5117188 L210.445312,63.1992188 L213.804688,63.1992188 L213.804688,63.5117188 L213.121094,63.765625 L213.121094,83.4335938 L213.804688,83.6875 L213.804688,84 L210.445312,84 L210.445312,83.6875 L210.875,83.4335938 L210.875,72.8085938 C210.419269,73.9023492 209.768233,74.6705707 208.921875,75.1132812 L208.921875,83.4335938 L209.351562,83.6875 L209.351562,84 L206.246094,84 L206.246094,83.7265625 L206.675781,83.4335938 L206.675781,72.8085938 C206.22005,73.9023492 205.569015,74.6705707 204.722656,75.1132812 L204.722656,83.4335938 L205.152344,83.7265625 L205.152344,84 L201.753906,84 L201.753906,83.6875 L202.476562,83.4335938 L202.476562,75.6015625 L202.085938,75.328125 L202.203125,74.9179688 C202.359376,75.0221359 202.515624,75.0742188 202.671875,75.0742188 C204.781261,75.048177 206.115883,73.6875135 206.675781,70.9921875 C206.441405,71.4479189 206.148439,71.7994779 205.796875,72.046875 C205.458332,72.3333348 204.963545,72.4765625 204.3125,72.4765625 C203.622392,72.4765625 203.147137,72.2226588 202.886719,71.7148438 C202.61328,71.2330705 202.476562,70.7447941 202.476562,70.25 C202.476562,69.3906207 202.704425,68.7721373 203.160156,68.3945312 C203.563804,68.0559879 204.032549,67.8020842 204.566406,67.6328125 C205.230472,67.3723945 205.7513,67.0924494 206.128906,66.7929688 C206.493491,66.506509 206.675781,66.0703154 206.675781,65.484375 C206.675781,64.9505182 206.506512,64.4947936 206.167969,64.1171875 C205.790363,63.7786441 205.308597,63.609375 204.722656,63.609375 C203.733068,63.6354168 203.134116,64.0976518 202.925781,64.9960938 L203.042969,65.0351562 C203.095052,64.7486965 203.322915,64.592448 203.726562,64.5664062 C204.364587,64.5664062 204.696614,64.9374963 204.722656,65.6796875 C204.696614,66.3697951 204.312504,66.7278645 203.570312,66.7539062 C203.270832,66.7539062 203.016928,66.5976578 202.808594,66.2851562 C202.587238,66.0117174 202.476562,65.6927102 202.476562,65.328125 C202.476562,64.5208293 202.730466,63.9479184 203.238281,63.609375 C203.667971,63.2578107 204.123696,63.0820312 204.605469,63.0820312 C205.503911,63.0820312 206.194008,63.3880178 206.675781,64 L206.675781,63.1992188 Z M206.675781,67.1640625 C206.545572,67.3463551 206.350262,67.5156242 206.089844,67.671875 C205.686196,67.9453139 205.360678,68.225259 205.113281,68.5117188 C204.852863,68.8111994 204.722656,69.2539033 204.722656,69.8398438 L204.722656,70.1914062 C204.722656,70.6471377 204.813801,70.9596346 204.996094,71.1289062 C205.165365,71.3111988 205.328124,71.389323 205.484375,71.3632812 C205.770835,71.3632812 206.05078,71.1614604 206.324219,70.7578125 C206.532553,70.4192691 206.649739,70.0742205 206.675781,69.7226562 L206.675781,67.1640625 Z M221.3125,63.7265625 L219.359375,63.7265625 L219.359375,83.4335938 L219.789062,83.6875 L219.789062,84 L216.429688,84 L216.429688,83.6875 L217.113281,83.4335938 L217.113281,63.765625 L216.429688,63.5117188 L216.429688,63.1992188 L224.242188,63.1992188 L224.242188,63.5117188 L223.558594,63.765625 L223.558594,83.4335938 L224.242188,83.6875 L224.242188,84 L220.882812,84 L220.882812,83.6875 L221.3125,83.4335938 L221.3125,63.7265625 Z M231.515625,73.609375 L234.269531,73.609375 L234.425781,73.9609375 L234.035156,74.2734375 L234.035156,80.1523438 C234.035156,81.272141 233.755211,82.2096316 233.195312,82.9648438 C232.609372,83.7330768 231.606778,84.1302082 230.1875,84.15625 C229.549476,84.15625 228.976565,83.9544291 228.46875,83.5507812 C227.88281,83.1861961 227.589844,82.6263059 227.589844,81.8710938 C227.589844,81.4804668 227.70052,81.1354182 227.921875,80.8359375 C228.130209,80.5755195 228.384113,80.4453125 228.683594,80.4453125 C229.425785,80.4713543 229.809896,80.8294236 229.835937,81.5195312 C229.809896,82.2617225 229.477868,82.6328125 228.839844,82.6328125 C228.462238,82.6067707 228.234375,82.4505223 228.15625,82.1640625 L228.078125,82.1640625 C228.130209,82.3463551 228.208333,82.5156242 228.3125,82.671875 C228.442709,82.8671885 228.592447,83.042968 228.761719,83.1992188 C229.152346,83.4986994 229.575519,83.6484375 230.03125,83.6484375 C231.072922,83.6223957 231.606771,82.9908916 231.632812,81.7539062 C231.632812,81.3893211 231.58073,81.0703139 231.476562,80.796875 C231.346354,80.536457 231.079429,80.2434912 230.675781,79.9179688 C229.816402,79.2278611 229.093753,78.46615 228.507812,77.6328125 C227.89583,76.8645795 227.589844,75.8684957 227.589844,74.6445312 L227.589844,66.2460938 C227.563802,65.2565055 227.804685,64.4817736 228.3125,63.921875 C228.820315,63.3619764 229.673171,63.0820312 230.871094,63.0820312 C232.016933,63.0820312 232.843747,63.335935 233.351562,63.84375 C233.807294,64.3776068 234.035156,65.0546834 234.035156,65.875 L234.035156,66.7148438 L234.386719,66.890625 L234.386719,67.1640625 L231.4375,67.1640625 L231.4375,66.890625 L231.789062,66.7148438 L231.789062,65.953125 C231.789062,65.1588502 231.75,64.5598979 231.671875,64.15625 C231.567708,63.7916648 231.274742,63.609375 230.792969,63.609375 C230.389321,63.609375 230.135417,63.7786441 230.03125,64.1171875 C229.901041,64.4687518 229.835937,64.8723936 229.835937,65.328125 L229.835937,69.9960938 C230.01823,69.0976518 230.669265,68.6223961 231.789062,68.5703125 C232.453128,68.5703125 232.986977,68.7786438 233.390625,69.1953125 C233.820315,69.5989604 234.035156,70.1328092 234.035156,70.796875 L234.035156,71.2070312 L234.386719,71.4023438 L234.386719,71.6757812 L231.4375,71.6757812 L231.4375,71.4023438 L231.789062,71.2070312 C231.736979,70.347652 231.430992,69.9179688 230.871094,69.9179688 C230.636718,69.9179688 230.434897,69.9700516 230.265625,70.0742188 C230.083332,70.2434904 229.940105,70.5364563 229.835937,70.953125 L229.835937,74.6835938 C229.835937,75.6210984 229.901041,76.3697889 230.03125,76.9296875 C230.161459,77.5156279 230.311197,77.9778629 230.480469,78.3164062 C230.662761,78.6679705 230.871093,78.973957 231.105469,79.234375 C231.326824,79.5078139 231.554686,79.8138004 231.789062,80.1523438 L231.789062,74.2734375 L231.398437,74 L231.515625,73.609375 Z M240.3125,74.2734375 L240.3125,83.4335938 L240.996094,83.6875 L240.996094,84 L237.382812,84 L237.382812,83.6875 L238.066406,83.4335938 L238.066406,65.875 C238.040364,64.0650951 239.134104,63.1341148 241.347656,63.0820312 C243.404958,63.108073 244.459635,63.9869705 244.511719,65.71875 L244.511719,66.6757812 C244.511719,67.2096381 244.446615,67.6393213 244.316406,67.9648438 C244.147135,68.2773453 243.945314,68.531249 243.710938,68.7265625 C243.476561,68.8828133 243.222658,68.9999996 242.949219,69.078125 C242.688801,69.1822922 242.408856,69.3190096 242.109375,69.4882812 C241.653644,69.7226574 241.256512,70.0807268 240.917969,70.5625 C240.514321,71.0442732 240.3125,71.6302049 240.3125,72.3203125 C240.364584,73.7656322 240.84635,74.501302 241.757812,74.5273438 C242.708338,74.501302 243.255208,74.0325566 243.398438,73.1210938 L243.261719,73.0820312 C243.209635,73.4335955 242.988283,73.609375 242.597656,73.609375 C242.324217,73.609375 242.083334,73.498699 241.875,73.2773438 C241.653645,73.121093 241.542969,72.8541686 241.542969,72.4765625 C241.542969,71.7604131 241.93359,71.389323 242.714844,71.3632812 C243.079429,71.3632812 243.385415,71.4934883 243.632812,71.7539062 C243.841147,72.0533869 243.945312,72.4049459 243.945312,72.8085938 C243.919271,73.550785 243.691408,74.1106752 243.261719,74.4882812 C242.819008,74.8528664 242.343753,75.0351562 241.835938,75.0351562 C240.924475,74.9830727 240.416667,74.7291689 240.3125,74.2734375 Z M240.3125,70.5234375 C240.468751,70.197915 240.670572,69.9309906 240.917969,69.7226562 C241.126303,69.5143219 241.334634,69.312501 241.542969,69.1171875 C241.764324,68.9088531 241.940104,68.6809908 242.070312,68.4335938 C242.200521,68.1992176 242.265625,67.9062518 242.265625,67.5546875 L242.265625,64.9179688 C242.239583,64.3059865 242.122397,63.9218758 241.914062,63.765625 C241.692707,63.6614578 241.464845,63.609375 241.230469,63.609375 C241.048176,63.609375 240.859376,63.6614578 240.664062,63.765625 C240.429686,63.9218758 240.3125,64.3059865 240.3125,64.9179688 L240.3125,70.5234375 Z M251.941406,63.1992188 L254.871094,63.1992188 L254.871094,63.5117188 L254.1875,63.7265625 L254.1875,83.4335938 L254.871094,83.6875 L254.871094,84 L251.511719,84 L251.511719,83.7265625 L251.941406,83.4335938 L251.941406,72.8085938 C251.485675,73.9023492 250.83464,74.6705707 249.988281,75.1132812 L249.988281,83.4335938 L250.417969,83.7265625 L250.417969,84 L247.019531,84 L247.019531,83.6875 L247.742188,83.4335938 L247.742188,75.6015625 L247.351562,75.328125 L247.46875,74.9179688 C247.625001,75.0221359 247.781249,75.0742188 247.9375,75.0742188 C250.046886,75.048177 251.381508,73.6875135 251.941406,70.9921875 C251.70703,71.4479189 251.414064,71.7994779 251.0625,72.046875 C250.723957,72.3333348 250.22917,72.4765625 249.578125,72.4765625 C248.888017,72.4765625 248.412762,72.2226588 248.152344,71.7148438 C247.878905,71.2330705 247.742188,70.7447941 247.742188,70.25 C247.742188,69.3906207 247.97005,68.7721373 248.425781,68.3945312 C248.829429,68.0559879 249.298174,67.8020842 249.832031,67.6328125 C250.496097,67.3723945 251.016925,67.0924494 251.394531,66.7929688 C251.759116,66.506509 251.941406,66.0703154 251.941406,65.484375 C251.941406,64.9505182 251.772137,64.4947936 251.433594,64.1171875 C251.055988,63.7786441 250.574222,63.609375 249.988281,63.609375 C248.998693,63.6354168 248.399741,64.0976518 248.191406,64.9960938 L248.308594,65.0351562 C248.360677,64.7486965 248.58854,64.592448 248.992188,64.5664062 C249.630212,64.5664062 249.962239,64.9374963 249.988281,65.6796875 C249.962239,66.3697951 249.578129,66.7278645 248.835938,66.7539062 C248.536457,66.7539062 248.282553,66.5976578 248.074219,66.2851562 C247.852863,66.0117174 247.742188,65.6927102 247.742188,65.328125 C247.742188,64.5208293 247.996091,63.9479184 248.503906,63.609375 C248.933596,63.2578107 249.389321,63.0820312 249.871094,63.0820312 C250.769536,63.0820312 251.459633,63.3880178 251.941406,64 L251.941406,63.1992188 Z M251.941406,67.125 C251.811197,67.3072926 251.615887,67.4765617 251.355469,67.6328125 C250.951821,67.9062514 250.626303,68.1861965 250.378906,68.4726562 C250.118488,68.7721369 249.988281,69.2148408 249.988281,69.8007812 L249.988281,70.1523438 C249.988281,70.6080752 250.079426,70.9205721 250.261719,71.0898438 C250.43099,71.2721363 250.593749,71.3502605 250.75,71.3242188 C251.03646,71.3242188 251.316405,71.1223979 251.589844,70.71875 C251.798178,70.3671857 251.915364,70.0221371 251.941406,69.6835938 L251.941406,67.125 Z M264.507812,63.7265625 L264.507812,83.4335938 L265.191406,83.6875 L265.191406,84 L261.578125,84 L261.578125,83.6875 L262.261719,83.4335938 L262.261719,63.7265625 L260.308594,63.7265625 C260.308594,64.4166701 260.386718,65.3606711 260.542969,66.5585938 C260.647136,67.7304746 260.699219,68.5182271 260.699219,68.921875 C260.621093,70.4192783 260.100265,71.154948 259.136719,71.1289062 C258.524737,71.1028645 258.101564,70.9010436 257.867188,70.5234375 C257.61979,70.1718732 257.496094,69.8268246 257.496094,69.4882812 C257.496094,69.136717 257.61979,68.8437512 257.867188,68.609375 C258.075522,68.3880197 258.355467,68.2773438 258.707031,68.2773438 C259.397139,68.3033855 259.755208,68.6809859 259.78125,69.4101562 C259.755208,70.1002639 259.42318,70.4583332 258.785156,70.484375 L258.785156,70.71875 C259.097658,70.7447918 259.403644,70.6406262 259.703125,70.40625 C260.002606,70.1588529 260.165364,69.7552111 260.191406,69.1953125 C260.191406,68.101557 260.002606,67.0924525 259.625,66.1679688 C259.19531,65.2565059 258.459641,64.3320359 257.417969,63.3945312 L257.574219,63.0429688 L258.0625,63.1992188 L268.707031,63.1992188 L269.175781,63.0429688 L269.351562,63.3945312 C268.335932,64.3059941 267.626304,65.0677053 267.222656,65.6796875 C266.792967,66.2916697 266.591146,67.1315051 266.617188,68.1992188 C266.617188,68.7591174 266.779946,69.1627592 267.105469,69.4101562 C267.391929,69.6445324 267.684894,69.748698 267.984375,69.7226562 L267.984375,69.4882812 C267.346351,69.4622395 267.014323,69.0976598 266.988281,68.3945312 C267.014323,67.6783818 267.385413,67.3072918 268.101562,67.28125 C268.50521,67.28125 268.798176,67.3854156 268.980469,67.59375 C269.162761,67.8411471 269.253906,68.1341129 269.253906,68.4726562 C269.253906,68.8242205 269.149741,69.1757795 268.941406,69.5273438 C268.733072,69.8919289 268.309899,70.0872395 267.671875,70.1132812 C267.268227,70.1132812 266.916668,69.9440121 266.617188,69.6054688 C266.278644,69.2278627 266.109375,68.6679725 266.109375,67.9257812 C266.109375,67.574217 266.174479,66.9492232 266.304688,66.0507812 C266.408855,65.1393184 266.460938,64.3645865 266.460938,63.7265625 L264.507812,63.7265625 Z M279.417969,73.5703125 C279.444011,75.940116 279.085941,78.2057184 278.34375,80.3671875 C277.940102,81.3697967 277.380212,82.2226527 276.664062,82.9257812 C275.973955,83.6419307 275.069016,84.130207 273.949219,84.390625 L273.949219,84.1171875 C274.183595,84.0911457 274.300781,83.8763041 274.300781,83.4726562 C274.300781,83.2122383 274.248698,82.8671896 274.144531,82.4375 L272.953125,77.8476562 C272.497394,76.1940021 272.269531,74.709642 272.269531,73.3945312 C272.269531,70.8945188 272.705725,68.5898543 273.578125,66.4804688 C274.007815,65.4648387 274.580726,64.638024 275.296875,64 C275.973962,63.3880178 276.787756,63.0299484 277.738281,62.9257812 L277.738281,63.2382812 C277.477863,63.2903648 277.360677,63.4921857 277.386719,63.84375 C277.386719,64.1562516 277.464843,64.6119762 277.621094,65.2109375 L278.832031,69.8007812 C279.222658,71.3242264 279.417969,72.5807242 279.417969,73.5703125 Z M275.746094,64.3710938 C274.626296,65.5950582 274.066406,67.2747289 274.066406,69.4101562 C274.066406,70.7903715 274.196613,72.1445246 274.457031,73.4726562 L275.785156,79.234375 C276.019532,80.3020887 276.136719,81.0768205 276.136719,81.5585938 C276.136719,82.0664088 276.058595,82.5351541 275.902344,82.9648438 C276.514326,82.4049451 276.95703,81.6562547 277.230469,80.71875 C277.490887,79.8072871 277.621094,78.9153689 277.621094,78.0429688 C277.595052,76.4934818 277.490886,75.2825564 277.308594,74.4101562 L275.667969,67.203125 C275.589843,66.7994771 275.550781,66.3697939 275.550781,65.9140625 C275.550781,65.3020803 275.615885,64.7877625 275.746094,64.3710938 Z M285.34375,74.2734375 L285.34375,83.4335938 L286.027344,83.6875 L286.027344,84 L282.414062,84 L282.414062,83.6875 L283.097656,83.4335938 L283.097656,65.875 C283.071614,64.0650951 284.165354,63.1341148 286.378906,63.0820312 C288.436208,63.108073 289.490885,63.9869705 289.542969,65.71875 L289.542969,66.6757812 C289.542969,67.2096381 289.477865,67.6393213 289.347656,67.9648438 C289.178385,68.2773453 288.976564,68.531249 288.742188,68.7265625 C288.507811,68.8828133 288.253908,68.9999996 287.980469,69.078125 C287.720051,69.1822922 287.440106,69.3190096 287.140625,69.4882812 C286.684894,69.7226574 286.287762,70.0807268 285.949219,70.5625 C285.545571,71.0442732 285.34375,71.6302049 285.34375,72.3203125 C285.395834,73.7656322 285.8776,74.501302 286.789062,74.5273438 C287.739588,74.501302 288.286458,74.0325566 288.429688,73.1210938 L288.292969,73.0820312 C288.240885,73.4335955 288.019533,73.609375 287.628906,73.609375 C287.355467,73.609375 287.114584,73.498699 286.90625,73.2773438 C286.684895,73.121093 286.574219,72.8541686 286.574219,72.4765625 C286.574219,71.7604131 286.96484,71.389323 287.746094,71.3632812 C288.110679,71.3632812 288.416665,71.4934883 288.664062,71.7539062 C288.872397,72.0533869 288.976562,72.4049459 288.976562,72.8085938 C288.950521,73.550785 288.722658,74.1106752 288.292969,74.4882812 C287.850258,74.8528664 287.375003,75.0351562 286.867188,75.0351562 C285.955725,74.9830727 285.447917,74.7291689 285.34375,74.2734375 Z M285.34375,70.5234375 C285.500001,70.197915 285.701822,69.9309906 285.949219,69.7226562 C286.157553,69.5143219 286.365884,69.312501 286.574219,69.1171875 C286.795574,68.9088531 286.971354,68.6809908 287.101562,68.4335938 C287.231771,68.1992176 287.296875,67.9062518 287.296875,67.5546875 L287.296875,64.9179688 C287.270833,64.3059865 287.153647,63.9218758 286.945312,63.765625 C286.723957,63.6614578 286.496095,63.609375 286.261719,63.609375 C286.079426,63.609375 285.890626,63.6614578 285.695312,63.765625 C285.460936,63.9218758 285.34375,64.3059865 285.34375,64.9179688 L285.34375,70.5234375 Z M296.972656,63.1992188 L299.902344,63.1992188 L299.902344,63.5117188 L299.21875,63.7265625 L299.21875,83.4335938 L299.902344,83.6875 L299.902344,84 L296.542969,84 L296.542969,83.7265625 L296.972656,83.4335938 L296.972656,72.8085938 C296.516925,73.9023492 295.86589,74.6705707 295.019531,75.1132812 L295.019531,83.4335938 L295.449219,83.7265625 L295.449219,84 L292.050781,84 L292.050781,83.6875 L292.773438,83.4335938 L292.773438,75.6015625 L292.382812,75.328125 L292.5,74.9179688 C292.656251,75.0221359 292.812499,75.0742188 292.96875,75.0742188 C295.078136,75.048177 296.412758,73.6875135 296.972656,70.9921875 C296.73828,71.4479189 296.445314,71.7994779 296.09375,72.046875 C295.755207,72.3333348 295.26042,72.4765625 294.609375,72.4765625 C293.919267,72.4765625 293.444012,72.2226588 293.183594,71.7148438 C292.910155,71.2330705 292.773438,70.7447941 292.773438,70.25 C292.773438,69.3906207 293.0013,68.7721373 293.457031,68.3945312 C293.860679,68.0559879 294.329424,67.8020842 294.863281,67.6328125 C295.527347,67.3723945 296.048175,67.0924494 296.425781,66.7929688 C296.790366,66.506509 296.972656,66.0703154 296.972656,65.484375 C296.972656,64.9505182 296.803387,64.4947936 296.464844,64.1171875 C296.087238,63.7786441 295.605472,63.609375 295.019531,63.609375 C294.029943,63.6354168 293.430991,64.0976518 293.222656,64.9960938 L293.339844,65.0351562 C293.391927,64.7486965 293.61979,64.592448 294.023438,64.5664062 C294.661462,64.5664062 294.993489,64.9374963 295.019531,65.6796875 C294.993489,66.3697951 294.609379,66.7278645 293.867188,66.7539062 C293.567707,66.7539062 293.313803,66.5976578 293.105469,66.2851562 C292.884113,66.0117174 292.773438,65.6927102 292.773438,65.328125 C292.773438,64.5208293 293.027341,63.9479184 293.535156,63.609375 C293.964846,63.2578107 294.420571,63.0820312 294.902344,63.0820312 C295.800786,63.0820312 296.490883,63.3880178 296.972656,64 L296.972656,63.1992188 Z M296.972656,67.125 C296.842447,67.3072926 296.647137,67.4765617 296.386719,67.6328125 C295.983071,67.9062514 295.657553,68.1861965 295.410156,68.4726562 C295.149738,68.7721369 295.019531,69.2148408 295.019531,69.8007812 L295.019531,70.1523438 C295.019531,70.6080752 295.110676,70.9205721 295.292969,71.0898438 C295.46224,71.2721363 295.624999,71.3502605 295.78125,71.3242188 C296.06771,71.3242188 296.347655,71.1223979 296.621094,70.71875 C296.829428,70.3671857 296.946614,70.0221371 296.972656,69.6835938 L296.972656,67.125 Z M316.734375,63.765625 L316.734375,67.4375 L318.6875,70.9921875 L318.6875,63.765625 L318.257812,63.5117188 L318.257812,63.1992188 L321.617188,63.1992188 L321.617188,63.5117188 L320.933594,63.765625 L320.933594,83.4335938 L321.617188,83.6875 L321.617188,84 L318.257812,84 L318.257812,83.6875 L318.6875,83.4335938 L318.6875,72.515625 L316.734375,69 L316.734375,83.4335938 L317.164062,83.6875 L317.164062,84 L313.804688,84 L313.804688,83.6875 L314.488281,83.4335938 L314.488281,63.765625 L313.804688,63.5117188 L313.804688,63.1992188 L317.164062,63.1992188 L317.164062,63.5117188 L316.734375,63.765625 Z M327.210938,70.9921875 L329.164062,67.4375 L329.164062,63.765625 L328.734375,63.5117188 L328.734375,63.1992188 L332.09375,63.1992188 L332.09375,63.5117188 L331.410156,63.765625 L331.410156,83.4335938 L332.09375,83.6875 L332.09375,84 L328.734375,84 L328.734375,83.6875 L329.164062,83.4335938 L329.164062,69 L327.210938,72.515625 L327.210938,83.4335938 L327.640625,83.6875 L327.640625,84 L324.28125,84 L324.28125,83.6875 L324.964844,83.4335938 L324.964844,63.765625 L324.28125,63.5117188 L324.28125,63.1992188 L327.640625,63.1992188 L327.640625,63.5117188 L327.210938,63.765625 L327.210938,70.9921875 Z M337.6875,70.484375 C338.143231,69.7291629 338.794267,69.1953141 339.640625,68.8828125 L339.640625,63.8046875 L339.210938,63.5117188 L339.210938,63.1992188 L342.570312,63.1992188 L342.570312,63.5703125 L341.886719,63.8046875 L341.886719,68.765625 C342.095053,68.8177086 342.283853,68.8828121 342.453125,68.9609375 L342.238281,69.3515625 C341.899738,69.2213535 341.502606,69.1432293 341.046875,69.1171875 C340.135412,69.1171875 339.36068,69.4101533 338.722656,69.9960938 C338.032549,70.608076 337.6875,71.3828078 337.6875,72.3203125 C337.6875,73.283859 338.032549,74.0585908 338.722656,74.6445312 C339.36068,75.2304717 340.135412,75.5234375 341.046875,75.5234375 C341.450523,75.5234375 341.847654,75.458334 342.238281,75.328125 L342.453125,75.7578125 C342.257812,75.8619797 342.069011,75.9140625 341.886719,75.9140625 L341.886719,83.4335938 L342.570312,83.6875 L342.570312,84 L339.210938,84 L339.210938,83.7265625 L339.640625,83.4335938 L339.640625,75.796875 C338.794267,75.4583316 338.143231,74.9114621 337.6875,74.15625 L337.6875,83.4335938 L338.117188,83.6875 L338.117188,84 L334.757812,84 L334.757812,83.6875 L335.441406,83.4335938 L335.441406,63.765625 L334.757812,63.5117188 L334.757812,63.1992188 L338.117188,63.1992188 L338.117188,63.5117188 L337.6875,63.765625 L337.6875,70.484375 Z M352.714844,73.5703125 C352.740886,75.940116 352.382816,78.2057184 351.640625,80.3671875 C351.236977,81.3697967 350.677087,82.2226527 349.960938,82.9257812 C349.27083,83.6419307 348.365891,84.130207 347.246094,84.390625 L347.246094,84.1171875 C347.48047,84.0911457 347.597656,83.8763041 347.597656,83.4726562 C347.597656,83.2122383 347.545573,82.8671896 347.441406,82.4375 L346.25,77.8476562 C345.794269,76.1940021 345.566406,74.709642 345.566406,73.3945312 C345.566406,70.8945188 346.0026,68.5898543 346.875,66.4804688 C347.30469,65.4648387 347.877601,64.638024 348.59375,64 C349.270837,63.3880178 350.084631,63.0299484 351.035156,62.9257812 L351.035156,63.2382812 C350.774738,63.2903648 350.657552,63.4921857 350.683594,63.84375 C350.683594,64.1562516 350.761718,64.6119762 350.917969,65.2109375 L352.128906,69.8007812 C352.519533,71.3242264 352.714844,72.5807242 352.714844,73.5703125 Z M349.042969,64.3710938 C347.923171,65.5950582 347.363281,67.2747289 347.363281,69.4101562 C347.363281,70.7903715 347.493488,72.1445246 347.753906,73.4726562 L349.082031,79.234375 C349.316407,80.3020887 349.433594,81.0768205 349.433594,81.5585938 C349.433594,82.0664088 349.35547,82.5351541 349.199219,82.9648438 C349.811201,82.4049451 350.253905,81.6562547 350.527344,80.71875 C350.787762,79.8072871 350.917969,78.9153689 350.917969,78.0429688 C350.891927,76.4934818 350.787761,75.2825564 350.605469,74.4101562 L348.964844,67.203125 C348.886718,66.7994771 348.847656,66.3697939 348.847656,65.9140625 C348.847656,65.3020803 348.91276,64.7877625 349.042969,64.3710938 Z M360.964844,63.1992188 L363.875,63.1992188 L363.875,63.5117188 L363.191406,63.765625 L363.191406,83.4335938 L363.875,83.6875 L363.875,84 L360.515625,84 L360.515625,83.6875 L360.964844,83.4335938 L360.964844,68.5117188 L360.242188,70.1132812 C359.226557,72.2226668 358.692709,74.5468623 358.640625,77.0859375 L358.640625,83.4335938 L359.070312,83.6875 L359.070312,84 L355.710938,84 L355.710938,83.6875 L356.394531,83.4335938 L356.394531,77.4375 C356.394531,75.7057205 356.648435,74.3190156 357.15625,73.2773438 C357.611981,72.2356719 358.13281,71.3567744 358.71875,70.640625 C359.30469,69.8984338 359.825519,69.123702 360.28125,68.3164062 C360.71094,67.5481732 360.938802,66.5781309 360.964844,65.40625 C360.964844,64.9244768 360.776044,64.4947936 360.398438,64.1171875 C360.020831,63.7786441 359.552086,63.609375 358.992188,63.609375 C358.01562,63.6354168 357.416668,64.0976518 357.195312,64.9960938 L357.3125,65.0351562 C357.364584,64.7486965 357.592446,64.592448 357.996094,64.5664062 C358.634118,64.5664062 358.966146,64.9374963 358.992188,65.6796875 C358.966146,66.3697951 358.582035,66.7278645 357.839844,66.7539062 C357.540363,66.7539062 357.286459,66.5976578 357.078125,66.2851562 C356.869791,66.0117174 356.765625,65.6927102 356.765625,65.328125 C356.765625,64.5208293 357.019529,63.9479184 357.527344,63.609375 C357.944012,63.2578107 358.393227,63.0820312 358.875,63.0820312 C359.786463,63.0820312 360.483071,63.3880178 360.964844,64 L360.964844,63.1992188 Z M371.441406,63.1992188 L374.371094,63.1992188 L374.371094,63.5117188 L373.6875,63.7265625 L373.6875,83.4335938 L374.371094,83.6875 L374.371094,84 L371.011719,84 L371.011719,83.7265625 L371.441406,83.4335938 L371.441406,72.8085938 C370.985675,73.9023492 370.33464,74.6705707 369.488281,75.1132812 L369.488281,83.4335938 L369.917969,83.7265625 L369.917969,84 L366.519531,84 L366.519531,83.6875 L367.242188,83.4335938 L367.242188,75.6015625 L366.851562,75.328125 L366.96875,74.9179688 C367.125001,75.0221359 367.281249,75.0742188 367.4375,75.0742188 C369.546886,75.048177 370.881508,73.6875135 371.441406,70.9921875 C371.20703,71.4479189 370.914064,71.7994779 370.5625,72.046875 C370.223957,72.3333348 369.72917,72.4765625 369.078125,72.4765625 C368.388017,72.4765625 367.912762,72.2226588 367.652344,71.7148438 C367.378905,71.2330705 367.242188,70.7447941 367.242188,70.25 C367.242188,69.3906207 367.47005,68.7721373 367.925781,68.3945312 C368.329429,68.0559879 368.798174,67.8020842 369.332031,67.6328125 C369.996097,67.3723945 370.516925,67.0924494 370.894531,66.7929688 C371.259116,66.506509 371.441406,66.0703154 371.441406,65.484375 C371.441406,64.9505182 371.272137,64.4947936 370.933594,64.1171875 C370.555988,63.7786441 370.074222,63.609375 369.488281,63.609375 C368.498693,63.6354168 367.899741,64.0976518 367.691406,64.9960938 L367.808594,65.0351562 C367.860677,64.7486965 368.08854,64.592448 368.492188,64.5664062 C369.130212,64.5664062 369.462239,64.9374963 369.488281,65.6796875 C369.462239,66.3697951 369.078129,66.7278645 368.335938,66.7539062 C368.036457,66.7539062 367.782553,66.5976578 367.574219,66.2851562 C367.352863,66.0117174 367.242188,65.6927102 367.242188,65.328125 C367.242188,64.5208293 367.496091,63.9479184 368.003906,63.609375 C368.433596,63.2578107 368.889321,63.0820312 369.371094,63.0820312 C370.269536,63.0820312 370.959633,63.3880178 371.441406,64 L371.441406,63.1992188 Z M371.441406,67.125 C371.311197,67.3072926 371.115887,67.4765617 370.855469,67.6328125 C370.451821,67.9062514 370.126303,68.1861965 369.878906,68.4726562 C369.618488,68.7721369 369.488281,69.2148408 369.488281,69.8007812 L369.488281,70.1523438 C369.488281,70.6080752 369.579426,70.9205721 369.761719,71.0898438 C369.93099,71.2721363 370.093749,71.3502605 370.25,71.3242188 C370.53646,71.3242188 370.816405,71.1223979 371.089844,70.71875 C371.298178,70.3671857 371.415364,70.0221371 371.441406,69.6835938 L371.441406,67.125 Z M381.917969,74.1953125 C381.462237,74.9244828 380.811202,75.4583316 379.964844,75.796875 L379.964844,83.4335938 L380.394531,83.6875 L380.394531,84 L377.035156,84 L377.035156,83.6875 L377.71875,83.4335938 L377.71875,75.9140625 C377.536457,75.9140625 377.354168,75.8619797 377.171875,75.7578125 L377.367188,75.328125 C377.770835,75.458334 378.167967,75.5234375 378.558594,75.5234375 C379.470057,75.5234375 380.257809,75.2304717 380.921875,74.6445312 C381.559899,74.0585908 381.891927,73.283859 381.917969,72.3203125 C381.917969,71.6302049 381.7487,71.0442732 381.410156,70.5625 C381.03255,70.0807268 380.602867,69.7226574 380.121094,69.4882812 C379.886718,69.3190096 379.632814,69.1822922 379.359375,69.078125 C379.072915,68.9999996 378.805991,68.8828133 378.558594,68.7265625 C378.324218,68.531249 378.141928,68.2773453 378.011719,67.9648438 C377.816405,67.6393213 377.71875,67.2096381 377.71875,66.6757812 L377.71875,65.71875 C377.71875,64.8463498 378.011716,64.1822939 378.597656,63.7265625 C379.157555,63.2968729 379.919266,63.0820312 380.882812,63.0820312 C383.096365,63.1341148 384.190104,64.0650951 384.164062,65.875 L384.164062,83.4335938 L384.847656,83.6875 L384.847656,84 L381.488281,84 L381.488281,83.6875 L381.917969,83.4335938 L381.917969,74.1953125 Z M381.917969,70.5234375 L381.917969,64.9179688 C381.917969,64.3059865 381.826824,63.9218758 381.644531,63.765625 C381.436197,63.6614578 381.221355,63.609375 381,63.609375 C380.817707,63.609375 380.615887,63.6614578 380.394531,63.765625 C380.290364,63.8437504 380.199219,63.9739574 380.121094,64.15625 C380.016927,64.3515635 379.964844,64.6054672 379.964844,64.9179688 L379.964844,67.5546875 C379.990886,68.2317742 380.25781,68.7526023 380.765625,69.1171875 C380.973959,69.312501 381.188801,69.5143219 381.410156,69.7226562 C381.618491,69.9309906 381.78776,70.197915 381.917969,70.5234375 Z M399.082031,63.1992188 L402.675781,63.1992188 L402.675781,63.5117188 L401.992188,63.765625 L401.992188,83.4335938 L402.675781,83.6875 L402.675781,84 L399.082031,84 L399.082031,83.6875 L399.765625,83.4335938 L399.765625,63.765625 L399.082031,63.5117188 L399.082031,63.1992188 Z M406.042969,63.1992188 L409.636719,63.1992188 L409.636719,63.5117188 L408.953125,63.765625 L408.953125,83.4335938 L409.636719,83.6875 L409.636719,84 L406.042969,84 L406.042969,83.6875 L406.726562,83.4335938 L406.726562,63.765625 L406.042969,63.5117188 L406.042969,63.1992188 Z" id="---" fill="#7C6742"></path>
                <path d="M6.65625,28.84375 L6.65625,47.84375 L8.0625,48.28125 L8.0625,49 L0.625,49 L0.625,48.28125 L2.0625,47.84375 L2.0625,11.8125 C1.9999997,8.1041481 4.2395606,6.1875006 8.78125,6.0625 C13.0312712,6.1041669 15.1979162,7.9166488 15.28125,11.5 L15.28125,13.46875 C15.28125,14.5937556 15.1770844,15.4687469 14.96875,16.09375 C14.7187487,16.7812534 14.3541691,17.3020816 13.875,17.65625 C13.4166644,17.9479181 12.9270859,18.1979156 12.40625,18.40625 C11.9062475,18.6145844 11.3541697,18.8541653 10.75,19.125 C9.6458278,19.5833356 8.7083372,20.3229116 7.9375,21.34375 C7.0833291,22.3645884 6.65625,23.6874919 6.65625,25.3125 C6.7395838,28.0833472 7.7395737,29.4895831 9.65625,29.53125 C11.5729263,29.4895831 12.6874984,28.5312594 13,26.65625 L12.8125,26.59375 C12.6666659,27.2395866 12.1979206,27.5833331 11.40625,27.625 C9.9895762,27.625 9.2604169,26.8750075 9.21875,25.375 C9.21875,23.8958259 10.0104087,23.1354169 11.59375,23.09375 C12.3645872,23.09375 12.9791644,23.3645806 13.4375,23.90625 C13.9166691,24.4270859 14.15625,25.1145791 14.15625,25.96875 C14.1145831,27.5520913 13.6458378,28.6979131 12.75,29.40625 C11.7916619,30.1770872 10.8020884,30.5625 9.78125,30.5625 C8.8437453,30.5625 8.1250025,30.3541687 7.625,29.9375 C7.0624972,29.5416647 6.7395838,29.177085 6.65625,28.84375 Z M6.65625,21.28125 C6.989585,20.6979137 7.3958309,20.1875022 7.875,19.75 C8.3333356,19.3333313 8.7604147,18.9062522 9.15625,18.46875 C9.6145856,18.0520813 9.9999984,17.5833359 10.3125,17.0625 C10.5625013,16.5624975 10.6875,15.9687534 10.6875,15.28125 L10.6875,9.84375 C10.6458331,8.5937438 10.3854191,7.8229181 9.90625,7.53125 C9.4479144,7.3229156 9.0000022,7.21875 8.5625,7.21875 C8.1874981,7.21875 7.7916687,7.3229156 7.375,7.53125 C6.8958309,7.8229181 6.65625,8.5937438 6.65625,9.84375 L6.65625,21.28125 Z M38.8687501,27.5625 C38.8687501,32.7291925 38.0354251,37.5103947 36.3687501,41.90625 C35.4729123,43.9895937 34.3270904,45.7187431 32.9312501,47.09375 C31.4729095,48.4895903 29.722927,49.4062478 27.6812501,49.84375 L27.6812501,49.1875 C27.9312513,49.1458331 28.1187495,49.0000012 28.2437501,48.75 C28.3687507,48.5416656 28.4312501,48.2604184 28.4312501,47.90625 C28.4312501,47.4895813 28.3062513,46.7916716 28.0562501,45.8125 L25.1812501,34.59375 C24.4937467,31.9479034 24.1500001,29.7500087 24.1500001,28 C24.1083332,22.4999725 24.9624913,17.6562709 26.7125001,13.46875 C28.4625088,9.3020625 31.3583132,6.7291716 35.4000001,5.75 L35.4000001,6.375 C34.9416645,6.4583337 34.7125001,6.8437466 34.7125001,7.53125 C34.7125001,8.3854209 34.858332,9.2812453 35.1500001,10.21875 L37.7125001,20.0625 C38.4416704,22.9791813 38.8270832,25.4791563 38.8687501,27.5625 Z M31.3687501,8.6875 C30.0979104,10.0416734 29.202086,11.6354075 28.6812501,13.46875 C28.1395807,15.3645928 27.8687501,17.3333231 27.8687501,19.375 C27.910417,22.3541816 28.2020807,25.0416547 28.7437501,27.4375 L31.4312501,39.21875 C31.9104192,41.0520925 32.1500001,42.6458266 32.1500001,44 C32.1500001,45.1666725 32.0041682,46.1249963 31.7125001,46.875 C32.9416729,45.6458272 33.8374973,44.0520931 34.4000001,42.09375 C34.9000026,40.1770738 35.1500001,38.2291766 35.1500001,36.25 C35.1500001,34.0416556 34.8791695,31.3333494 34.3375001,28.125 L31.3062501,15.03125 C31.1812495,14.3020797 31.097917,13.6979191 31.0562501,13.21875 C30.9729163,12.8020813 30.9312501,12.3541691 30.9312501,11.875 C30.9312501,10.6458272 31.077082,9.5833378 31.3687501,8.6875 Z M56.3000002,41.125 L56.3000002,29.09375 L55.4562502,28.53125 L55.7375002,27.6875 L61.3625002,27.6875 L61.6750002,28.40625 L60.8937502,29.09375 L60.8937502,41.125 C60.8937502,43.12501 60.3208393,44.958325 59.1750002,46.625 C57.9458274,48.3750087 55.883348,49.2708331 52.9875002,49.3125 C51.6958271,49.3125 50.5187555,48.9270872 49.4562502,48.15625 C48.3104111,47.4062462 47.7166671,46.2395913 47.6750002,44.65625 C47.6750002,43.8437459 47.9041646,43.1354197 48.3625002,42.53125 C48.8000024,41.9895806 49.3104139,41.71875 49.8937502,41.71875 C51.3937577,41.7604169 52.1854164,42.4999928 52.2687502,43.9375 C52.2270833,45.4791744 51.5395902,46.25 50.2062502,46.25 C49.4145796,46.2083331 48.9458343,45.8645866 48.8000002,45.21875 L48.6125002,45.28125 C48.7791677,46.1354209 49.2687461,46.8229141 50.0812502,47.34375 C50.8520874,47.8854194 51.7062455,48.15625 52.6437502,48.15625 C54.8312611,48.15625 55.9458333,46.9062625 55.9875002,44.40625 C55.9875002,43.5937459 55.8520849,42.9062528 55.5812502,42.34375 C55.2895821,41.7812472 54.7583374,41.2083363 53.9875002,40.625 C52.2374914,39.2083262 50.7687561,37.666675 49.5812502,36 C48.3520774,34.3749919 47.7166671,32.3125125 47.6750002,29.8125 L47.6750002,12.59375 C47.6750002,10.59374 48.1645786,8.9895894 49.1437502,7.78125 C50.1229218,6.6770778 51.8729043,6.1041669 54.3937502,6.0625 C56.7270952,6.1041669 58.4041618,6.6562447 59.4250002,7.71875 C60.4041718,8.7812553 60.8937502,10.145825 60.8937502,11.8125 L60.8937502,13.53125 L61.6125002,13.9375 L61.6125002,14.5 L55.5187502,14.5 L55.5187502,13.9375 L56.3000002,13.53125 L56.3000002,12 C56.3000002,10.3958253 56.2166677,9.1875041 56.0500002,8.375 C55.8416658,7.6041628 55.2166721,7.21875 54.1750002,7.21875 C53.4666633,7.21875 52.9770849,7.5624966 52.7062502,8.25 C52.4145821,8.91667 52.2687502,9.7187453 52.2687502,10.65625 L52.2687502,29.875 C52.2687502,33.6666856 52.6958293,36.1562441 53.5500002,37.34375 C53.9250021,38.0312534 54.3729143,38.6562472 54.8937502,39.21875 C55.3520858,39.7604194 55.8208311,40.3958297 56.3000002,41.125 Z M79.1062503,41.125 L79.1062503,29.09375 L78.2625003,28.53125 L78.5437503,27.6875 L84.1687503,27.6875 L84.4812503,28.40625 L83.7000003,29.09375 L83.7000003,41.125 C83.7000003,43.12501 83.1270893,44.958325 81.9812503,46.625 C80.7520775,48.3750087 78.6895981,49.2708331 75.7937503,49.3125 C74.5020772,49.3125 73.3250056,48.9270872 72.2625003,48.15625 C71.1166612,47.4062462 70.5229172,46.2395913 70.4812503,44.65625 C70.4812503,43.8437459 70.7104147,43.1354197 71.1687503,42.53125 C71.6062525,41.9895806 72.116664,41.71875 72.7000003,41.71875 C74.2000078,41.7604169 74.9916665,42.4999928 75.0750003,43.9375 C75.0333334,45.4791744 74.3458403,46.25 73.0125003,46.25 C72.2208297,46.2083331 71.7520843,45.8645866 71.6062503,45.21875 L71.4187503,45.28125 C71.5854178,46.1354209 72.0749962,46.8229141 72.8875003,47.34375 C73.6583375,47.8854194 74.5124956,48.15625 75.4500003,48.15625 C77.6375112,48.15625 78.7520834,46.9062625 78.7937503,44.40625 C78.7937503,43.5937459 78.658335,42.9062528 78.3875003,42.34375 C78.0958322,41.7812472 77.5645875,41.2083363 76.7937503,40.625 C75.0437415,39.2083262 73.5750062,37.666675 72.3875003,36 C71.1583275,34.3749919 70.5229172,32.3125125 70.4812503,29.8125 L70.4812503,12.59375 C70.4812503,10.59374 70.9708287,8.9895894 71.9500003,7.78125 C72.9291718,6.6770778 74.6791543,6.1041669 77.2000003,6.0625 C79.5333453,6.1041669 81.2104118,6.6562447 82.2312503,7.71875 C83.2104218,8.7812553 83.7000003,10.145825 83.7000003,11.8125 L83.7000003,13.53125 L84.4187503,13.9375 L84.4187503,14.5 L78.3250003,14.5 L78.3250003,13.9375 L79.1062503,13.53125 L79.1062503,12 C79.1062503,10.3958253 79.0229178,9.1875041 78.8562503,8.375 C78.6479159,7.6041628 78.0229222,7.21875 76.9812503,7.21875 C76.2729134,7.21875 75.783335,7.5624966 75.5125003,8.25 C75.2208322,8.91667 75.0750003,9.7187453 75.0750003,10.65625 L75.0750003,29.875 C75.0750003,33.6666856 75.5020793,36.1562441 76.3562503,37.34375 C76.7312522,38.0312534 77.1791643,38.6562472 77.7000003,39.21875 C78.1583359,39.7604194 78.6270812,40.3958297 79.1062503,41.125 Z M97.88125,22.375 L101.9125,15.09375 L101.9125,7.53125 L101.00625,7.09375 L101.00625,6.375 L107.9125,6.375 L107.9125,7.09375 L106.50625,7.53125 L106.50625,47.84375 L107.9125,48.28125 L107.9125,49 L101.00625,49 L101.00625,48.28125 L101.9125,47.84375 L101.9125,18.28125 L97.88125,25.4375 L97.88125,47.84375 L98.7875,48.28125 L98.7875,49 L91.85,49 L91.85,48.28125 L93.2875,47.84375 L93.2875,7.53125 L91.85,7.09375 L91.85,6.375 L98.7875,6.375 L98.7875,7.09375 L97.88125,7.53125 L97.88125,22.375 Z M120.6875,22.375 L124.71875,15.09375 L124.71875,7.53125 L123.8125,7.09375 L123.8125,6.375 L130.71875,6.375 L130.71875,7.09375 L129.3125,7.53125 L129.3125,47.84375 L130.71875,48.28125 L130.71875,49 L123.8125,49 L123.8125,48.28125 L124.71875,47.84375 L124.71875,18.28125 L120.6875,25.4375 L120.6875,47.84375 L121.59375,48.28125 L121.59375,49 L114.65625,49 L114.65625,48.28125 L116.09375,47.84375 L116.09375,7.53125 L114.65625,7.09375 L114.65625,6.375 L121.59375,6.375 L121.59375,7.09375 L120.6875,7.53125 L120.6875,22.375 Z M124.65625,0.625 L126.5625,0.625 C126.520834,1.43750406 126.145837,2.0729144 125.4375,2.53125 C124.70833,3.0937528 123.781256,3.375 122.65625,3.375 C121.552078,3.375 120.635421,3.0937528 119.90625,2.53125 C119.093746,2.0729144 118.6875,1.43750406 118.6875,0.625 L120.625,0.625 C120.750001,1.08333563 120.958332,1.44791531 121.25,1.71875 C121.520835,2.052085 121.98958,2.21875 122.65625,2.21875 C123.468755,2.21875 124.010416,2.052085 124.28125,1.71875 C124.489585,1.44791531 124.614584,1.08333563 124.65625,0.625 Z M147.525001,41.125 L147.525001,29.09375 L146.681251,28.53125 L146.962501,27.6875 L152.587501,27.6875 L152.900001,28.40625 L152.118751,29.09375 L152.118751,41.125 C152.118751,43.12501 151.54584,44.958325 150.400001,46.625 C149.170828,48.3750087 147.108348,49.2708331 144.212501,49.3125 C142.920827,49.3125 141.743756,48.9270872 140.681251,48.15625 C139.535412,47.4062462 138.941667,46.2395913 138.900001,44.65625 C138.900001,43.8437459 139.129165,43.1354197 139.587501,42.53125 C140.025003,41.9895806 140.535414,41.71875 141.118751,41.71875 C142.618758,41.7604169 143.410417,42.4999928 143.493751,43.9375 C143.452084,45.4791744 142.764591,46.25 141.431251,46.25 C140.63958,46.2083331 140.170835,45.8645866 140.025001,45.21875 L139.837501,45.28125 C140.004168,46.1354209 140.493747,46.8229141 141.306251,47.34375 C142.077088,47.8854194 142.931246,48.15625 143.868751,48.15625 C146.056262,48.15625 147.170834,46.9062625 147.212501,44.40625 C147.212501,43.5937459 147.077085,42.9062528 146.806251,42.34375 C146.514582,41.7812472 145.983338,41.2083363 145.212501,40.625 C143.462492,39.2083262 141.993757,37.666675 140.806251,36 C139.577078,34.3749919 138.941667,32.3125125 138.900001,29.8125 L138.900001,12.59375 C138.900001,10.59374 139.389579,8.9895894 140.368751,7.78125 C141.347922,6.6770778 143.097905,6.1041669 145.618751,6.0625 C147.952096,6.1041669 149.629162,6.6562447 150.650001,7.71875 C151.629172,8.7812553 152.118751,10.145825 152.118751,11.8125 L152.118751,13.53125 L152.837501,13.9375 L152.837501,14.5 L146.743751,14.5 L146.743751,13.9375 L147.525001,13.53125 L147.525001,12 C147.525001,10.3958253 147.441668,9.1875041 147.275001,8.375 C147.066666,7.6041628 146.441672,7.21875 145.400001,7.21875 C144.691664,7.21875 144.202085,7.5624966 143.931251,8.25 C143.639582,8.91667 143.493751,9.7187453 143.493751,10.65625 L143.493751,29.875 C143.493751,33.6666856 143.92083,36.1562441 144.775001,37.34375 C145.150002,38.0312534 145.597915,38.6562472 146.118751,39.21875 C146.577086,39.7604194 147.045832,40.3958297 147.525001,41.125 Z M166.300001,21.28125 C167.237505,19.8020759 168.581242,18.7187534 170.331251,18.03125 L170.331251,7.53125 L169.425001,7.09375 L169.425001,6.375 L176.331251,6.375 L176.331251,7.09375 L174.925001,7.53125 L174.925001,17.78125 C175.362503,17.8229169 175.747916,17.9479156 176.081251,18.15625 L175.643751,19 C174.91458,18.6874984 174.102088,18.53125 173.206251,18.53125 C171.372908,18.53125 169.779174,19.1354106 168.425001,20.34375 C167.049994,21.5312559 166.341668,23.1874894 166.300001,25.3125 C166.341668,27.1458425 167.049994,28.6249944 168.425001,29.75 C169.779174,30.9791728 171.372908,31.59375 173.206251,31.59375 C174.060422,31.59375 174.872913,31.4687512 175.643751,31.21875 L176.081251,32.09375 C175.706249,32.2812509 175.320836,32.4166662 174.925001,32.5 L174.925001,47.84375 L176.331251,48.28125 L176.331251,49 L169.425001,49 L169.425001,48.28125 L170.331251,47.84375 L170.331251,32.15625 C168.581242,31.48958 167.237505,30.3854244 166.300001,28.84375 L166.300001,47.84375 L167.206251,48.28125 L167.206251,49 L160.268751,49 L160.268751,48.28125 L161.706251,47.84375 L161.706251,7.53125 L160.268751,7.09375 L160.268751,6.375 L167.206251,6.375 L167.206251,7.09375 L166.300001,7.53125 L166.300001,21.28125 Z M197.731251,7.53125 L197.731251,47.84375 L199.137501,48.28125 L199.137501,49 L192.231251,49 L192.231251,48.28125 L193.137501,47.84375 L193.137501,25.96875 C192.762499,27.0312553 192.210421,27.9895791 191.481251,28.84375 C190.710414,29.7812547 189.918755,30.416665 189.106251,30.75 L189.106251,47.84375 L190.012501,48.28125 L190.012501,49 L183.075001,49 L183.075001,48.28125 L184.512501,47.84375 L184.512501,31.78125 L183.668751,31.15625 L183.981251,30.375 C184.189585,30.5833344 184.512499,30.6875 184.950001,30.6875 C189.262522,30.6458331 191.991662,27.8541944 193.137501,22.3125 C192.658332,23.2083378 192.064588,23.9374972 191.356251,24.5 C190.62708,25.0833363 189.595841,25.375 188.262501,25.375 C186.824994,25.3333331 185.825004,24.8229216 185.262501,23.84375 C184.699998,22.8645784 184.45,21.8437553 184.512501,20.78125 C184.512501,19.6354109 184.720832,18.7187534 185.137501,18.03125 C185.512503,17.3437466 186.06458,16.7916687 186.793751,16.375 C187.439587,15.9374978 188.18958,15.5729181 189.043751,15.28125 C189.814588,15.0104153 190.585414,14.6458356 191.356251,14.1875 C191.689586,14.0208325 192.074999,13.6770859 192.512501,13.15625 C192.92917,12.6562475 193.137501,11.9375047 193.137501,11 C193.137501,9.9166612 192.772921,9.0208369 192.043751,8.3125 C191.272914,7.5833297 190.293757,7.21875 189.106251,7.21875 C188.210413,7.21875 187.418754,7.4687475 186.731251,7.96875 C186.00208,8.4895859 185.575001,9.1770791 185.450001,10.03125 L185.637501,10.09375 C185.783335,9.4479134 186.25208,9.1041669 187.043751,9.0625 C188.377091,9.1041669 189.064584,9.8749925 189.106251,11.375 C189.022917,12.8125072 188.231258,13.5624997 186.731251,13.625 C186.147915,13.625 185.637503,13.3020866 185.200001,12.65625 C184.741665,12.0937472 184.512501,11.4270872 184.512501,10.65625 C184.554168,9.0937422 185.064579,7.9270872 186.043751,7.15625 C187.022922,6.4270797 187.981246,6.0625 188.918751,6.0625 C190.79376,6.0208331 192.199996,6.6562434 193.137501,7.96875 L193.137501,6.375 L199.137501,6.375 L199.137501,7.09375 L197.731251,7.53125 Z M193.137501,14.4375 C192.116662,15.2500041 191.200005,15.9791634 190.387501,16.625 C189.53333,17.3125034 189.106251,18.4166591 189.106251,19.9375 L189.106251,20.65625 C189.106251,21.6354216 189.293749,22.2708319 189.668751,22.5625 C189.981252,22.8750016 190.304166,23.03125 190.637501,23.03125 C190.991669,23.03125 191.314583,22.8958347 191.606251,22.625 C191.856252,22.4166656 192.10625,22.1666681 192.356251,21.875 C192.83542,21.1874966 193.095834,20.4583372 193.137501,19.6875 L193.137501,14.4375 Z M212.818751,49 L205.881251,49 L205.881251,48.28125 L207.318751,47.84375 L207.318751,32.5 C206.922916,32.4166662 206.537503,32.2812509 206.162501,32.09375 L206.600001,31.21875 C207.370838,31.4687512 208.18333,31.59375 209.037501,31.59375 C210.662509,31.59375 212.193744,31.0416722 213.631251,29.9375 C215.131258,28.9166616 215.902084,27.3750103 215.943751,25.3125 C215.902084,23.6874919 215.475005,22.3229222 214.662501,21.21875 C213.849997,20.1145778 212.933339,19.4166681 211.912501,19.125 C210.32916,18.6041641 209.172921,18.0000034 208.443751,17.3125 C207.693747,16.64583 207.318751,15.3854259 207.318751,13.53125 L207.318751,11.5625 C207.318751,9.7708244 207.912495,8.3854216 209.100001,7.40625 C210.24584,6.5104122 211.818741,6.0625 213.818751,6.0625 C218.339607,6.1875006 220.579168,8.1249813 220.537501,11.875 L220.537501,47.84375 L221.943751,48.28125 L221.943751,49 L215.037501,49 L215.037501,48.28125 L215.943751,47.84375 L215.943751,28.90625 C215.006246,30.3645906 213.66251,31.4479131 211.912501,32.15625 L211.912501,47.84375 L212.818751,48.28125 L212.818751,49 Z M215.943751,21.34375 L215.943751,9.90625 C215.943751,8.6562438 215.777086,7.864585 215.443751,7.53125 C215.047916,7.3229156 214.57917,7.21875 214.037501,7.21875 C213.599999,7.21875 213.152086,7.3229156 212.693751,7.53125 C212.172915,7.864585 211.912501,8.6562438 211.912501,9.90625 L211.912501,15.34375 C211.954168,16.7395903 212.506246,17.8229128 213.568751,18.59375 C214.04792,18.9895853 214.516665,19.3958313 214.975001,19.8125 C215.412503,20.2500022 215.735416,20.7604137 215.943751,21.34375 Z M254.900001,22.375 L258.931251,15.09375 L258.931251,7.53125 L258.025001,7.09375 L258.025001,6.375 L264.931251,6.375 L264.931251,7.09375 L263.525001,7.53125 L263.525001,47.84375 L264.931251,48.28125 L264.931251,49 L258.025001,49 L258.025001,48.28125 L258.931251,47.84375 L258.931251,18.28125 L254.900001,25.4375 L254.900001,47.84375 L255.806251,48.28125 L255.806251,49 L248.868751,49 L248.868751,48.28125 L250.306251,47.84375 L250.306251,7.53125 L248.868751,7.09375 L248.868751,6.375 L255.806251,6.375 L255.806251,7.09375 L254.900001,7.53125 L254.900001,22.375 Z M286.331251,29.46875 C288.352095,28.0729097 289.695831,25.6875169 290.362501,22.3125 L290.362501,7.53125 L289.487501,7.09375 L289.487501,6.375 L296.393751,6.375 L296.393751,7.09375 L294.987501,7.53125 L294.987501,47.84375 L296.393751,48.28125 L296.393751,49 L289.487501,49 L289.487501,48.28125 L290.362501,47.84375 L290.362501,25.96875 C289.987499,27.0312553 289.435421,27.9895791 288.706251,28.84375 C287.935414,29.7812547 287.143755,30.416665 286.331251,30.75 L286.331251,47.84375 L287.737501,48.28125 L287.737501,49 L280.331251,49 L280.331251,48.28125 L281.737501,47.84375 L281.737501,25.96875 C281.362499,27.0312553 280.810421,27.9895791 280.081251,28.84375 C279.310414,29.7812547 278.518755,30.416665 277.706251,30.75 L277.706251,47.84375 L278.612501,48.28125 L278.612501,49 L271.675001,49 L271.675001,48.28125 L273.112501,47.84375 L273.112501,31.78125 L272.268751,31.15625 L272.581251,30.375 C272.789586,30.5833344 273.112499,30.6875 273.550001,30.6875 C277.862523,30.6458331 280.591662,27.8541944 281.737501,22.3125 C281.258332,23.2083378 280.664588,23.9374972 279.956251,24.5 C279.227081,25.0833363 278.195841,25.375 276.862501,25.375 C275.424994,25.3333331 274.425004,24.8229216 273.862501,23.84375 C273.299998,22.8645784 273.050001,21.8437553 273.112501,20.78125 C273.112501,19.6354109 273.320832,18.7187534 273.737501,18.03125 C274.112503,17.3437466 274.664581,16.7916687 275.393751,16.375 C276.039588,15.9374978 276.78958,15.5729181 277.643751,15.28125 C278.414588,15.0104153 279.185414,14.6458356 279.956251,14.1875 C280.289586,14.0208325 280.674999,13.6770859 281.112501,13.15625 C281.52917,12.6562475 281.737501,11.9375047 281.737501,11 C281.737501,9.9166612 281.372921,9.0208369 280.643751,8.3125 C279.872914,7.5833297 278.893757,7.21875 277.706251,7.21875 C276.810413,7.21875 276.018755,7.4687475 275.331251,7.96875 C274.602081,8.4895859 274.175002,9.1770791 274.050001,10.03125 L274.237501,10.09375 C274.383335,9.4479134 274.852081,9.1041669 275.643751,9.0625 C276.977091,9.1041669 277.664584,9.8749925 277.706251,11.375 C277.622917,12.8125072 276.831259,13.5624997 275.331251,13.625 C274.747915,13.625 274.237503,13.3020866 273.800001,12.65625 C273.341666,12.0937472 273.112501,11.4270872 273.112501,10.65625 C273.154168,9.0937422 273.66458,7.9270872 274.643751,7.15625 C275.622923,6.4270797 276.581246,6.0625 277.518751,6.0625 C279.393761,6.0208331 280.799996,6.6562434 281.737501,7.96875 L281.737501,6.375 L287.737501,6.375 L287.737501,7.09375 L286.331251,7.53125 L286.331251,29.46875 Z M281.737501,14.4375 C280.716663,15.2500041 279.800005,15.9791634 278.987501,16.625 C278.13333,17.3125034 277.706251,18.4166591 277.706251,19.9375 L277.706251,20.65625 C277.706251,21.6354216 277.893749,22.2708319 278.268751,22.5625 C278.581253,22.8750016 278.904166,23.03125 279.237501,23.03125 C279.59167,23.03125 279.914583,22.8958347 280.206251,22.625 C280.456252,22.4166656 280.70625,22.1666681 280.956251,21.875 C281.43542,21.1874966 281.695834,20.4583372 281.737501,19.6875 L281.737501,14.4375 Z M303.106251,6.375 L319.168751,6.375 L319.168751,7.09375 L317.762501,7.53125 L317.762501,47.84375 L319.168751,48.28125 L319.168751,49 L312.262501,49 L312.262501,48.28125 L313.168751,47.84375 L313.168751,7.53125 L309.137501,7.53125 L309.137501,47.84375 L310.043751,48.28125 L310.043751,49 L303.106251,49 L303.106251,48.28125 L304.543751,47.84375 L304.543751,7.53125 L303.106251,7.09375 L303.106251,6.375 Z M341.287501,23.71875 L335.193751,23.71875 L335.193751,23.15625 L335.975001,22.75 C335.850001,20.9999913 335.21459,20.125 334.068751,20.125 C333.547915,20.125 333.120836,20.2604153 332.787501,20.53125 C332.391666,20.8229181 332.110419,21.4166622 331.943751,22.3125 L331.943751,29.875 C331.943751,33.6666856 332.37083,36.1562441 333.225001,37.34375 C333.600003,38.0312534 334.047915,38.6562472 334.568751,39.21875 C335.027087,39.7604194 335.495832,40.3958297 335.975001,41.125 L335.975001,29.09375 L335.131251,28.53125 L335.412501,27.6875 L341.037501,27.6875 L341.350001,28.40625 L340.568751,29.09375 L340.568751,41.125 C340.568751,43.12501 339.99584,44.958325 338.850001,46.625 C337.620829,48.3750087 335.558349,49.2708331 332.662501,49.3125 C331.370828,49.3125 330.193757,48.9270872 329.131251,48.15625 C327.985412,47.4062462 327.391668,46.2395913 327.350001,44.65625 C327.350001,43.8437459 327.579166,43.1354197 328.037501,42.53125 C328.475004,41.9895806 328.985415,41.71875 329.568751,41.71875 C331.068759,41.7604169 331.860418,42.4999928 331.943751,43.9375 C331.902084,45.4791744 331.214591,46.25 329.881251,46.25 C329.089581,46.2083331 328.620835,45.8645866 328.475001,45.21875 L328.287501,45.28125 C328.454169,46.1354209 328.943747,46.8229141 329.756251,47.34375 C330.527089,47.8854194 331.381247,48.15625 332.318751,48.15625 C334.506262,48.15625 335.620834,46.9062625 335.662501,44.40625 C335.662501,43.5937459 335.527086,42.9062528 335.256251,42.34375 C334.964583,41.7812472 334.433339,41.2083363 333.662501,40.625 C331.912493,39.2083262 330.443757,37.666675 329.256251,36 C328.027079,34.3749919 327.391668,32.3125125 327.350001,29.8125 L327.350001,12.59375 C327.350001,10.59374 327.83958,8.9895894 328.818751,7.78125 C329.797923,6.6770778 331.547905,6.1041669 334.068751,6.0625 C336.402096,6.1041669 338.079163,6.6562447 339.100001,7.71875 C340.079173,8.7812553 340.568751,10.145825 340.568751,11.8125 L340.568751,13.53125 L341.287501,13.9375 L341.287501,14.5 L335.193751,14.5 L335.193751,13.9375 L335.975001,13.53125 L335.975001,12 C335.975001,10.3958253 335.891669,9.1875041 335.725001,8.375 C335.516667,7.6041628 334.891673,7.21875 333.850001,7.21875 C333.141664,7.21875 332.652086,7.5624966 332.381251,8.25 C332.089583,8.91667 331.943751,9.7187453 331.943751,10.65625 L331.943751,20.28125 C332.152086,19.4687459 332.599998,18.7604197 333.287501,18.15625 C333.933338,17.5937472 334.829162,17.3125 335.975001,17.3125 C337.350008,17.3541669 338.454164,17.8020791 339.287501,18.65625 C340.141672,19.5104209 340.568751,20.60416 340.568751,21.9375 L340.568751,22.75 L341.287501,23.15625 L341.287501,23.71875 Z M354.750001,28.84375 L354.750001,47.84375 L356.156251,48.28125 L356.156251,49 L348.718751,49 L348.718751,48.28125 L350.156251,47.84375 L350.156251,11.8125 C350.093751,8.1041481 352.333312,6.1875006 356.875001,6.0625 C361.125023,6.1041669 363.291668,7.9166488 363.375001,11.5 L363.375001,13.46875 C363.375001,14.5937556 363.270836,15.4687469 363.062501,16.09375 C362.8125,16.7812534 362.44792,17.3020816 361.968751,17.65625 C361.510416,17.9479181 361.020837,18.1979156 360.500001,18.40625 C359.999999,18.6145844 359.447921,18.8541653 358.843751,19.125 C357.739579,19.5833356 356.802089,20.3229116 356.031251,21.34375 C355.17708,22.3645884 354.750001,23.6874919 354.750001,25.3125 C354.833335,28.0833472 355.833325,29.4895831 357.750001,29.53125 C359.666678,29.4895831 360.78125,28.5312594 361.093751,26.65625 L360.906251,26.59375 C360.760417,27.2395866 360.291672,27.5833331 359.500001,27.625 C358.083328,27.625 357.354168,26.8750075 357.312501,25.375 C357.312501,23.8958259 358.10416,23.1354169 359.687501,23.09375 C360.458339,23.09375 361.072916,23.3645806 361.531251,23.90625 C362.01042,24.4270859 362.250001,25.1145791 362.250001,25.96875 C362.208335,27.5520913 361.739589,28.6979131 360.843751,29.40625 C359.885413,30.1770872 358.89584,30.5625 357.875001,30.5625 C356.937497,30.5625 356.218754,30.3541687 355.718751,29.9375 C355.156249,29.5416647 354.833335,29.177085 354.750001,28.84375 Z M354.750001,21.28125 C355.083336,20.6979137 355.489582,20.1875022 355.968751,19.75 C356.427087,19.3333313 356.854166,18.9062522 357.250001,18.46875 C357.708337,18.0520813 358.09375,17.5833359 358.406251,17.0625 C358.656253,16.5624975 358.781251,15.9687534 358.781251,15.28125 L358.781251,9.84375 C358.739585,8.5937438 358.47917,7.8229181 358.000001,7.53125 C357.541666,7.3229156 357.093754,7.21875 356.656251,7.21875 C356.28125,7.21875 355.88542,7.3229156 355.468751,7.53125 C354.989582,7.8229181 354.750001,8.5937438 354.750001,9.84375 L354.750001,21.28125 Z M377.556252,22.375 L381.587502,15.09375 L381.587502,7.53125 L380.681252,7.09375 L380.681252,6.375 L387.587502,6.375 L387.587502,7.09375 L386.181252,7.53125 L386.181252,47.84375 L387.587502,48.28125 L387.587502,49 L380.681252,49 L380.681252,48.28125 L381.587502,47.84375 L381.587502,18.28125 L377.556252,25.4375 L377.556252,47.84375 L378.462502,48.28125 L378.462502,49 L371.525002,49 L371.525002,48.28125 L372.962502,47.84375 L372.962502,7.53125 L371.525002,7.09375 L371.525002,6.375 L378.462502,6.375 L378.462502,7.09375 L377.556252,7.53125 L377.556252,22.375 Z M401.268752,49 L394.331252,49 L394.331252,48.28125 L395.768752,47.84375 L395.768752,32.5 C395.372916,32.4166662 394.987503,32.2812509 394.612502,32.09375 L395.050002,31.21875 C395.820839,31.4687512 396.633331,31.59375 397.487502,31.59375 C399.11251,31.59375 400.643744,31.0416722 402.081252,29.9375 C403.581259,28.9166616 404.352085,27.3750103 404.393752,25.3125 C404.352085,23.6874919 403.925006,22.3229222 403.112502,21.21875 C402.299998,20.1145778 401.38334,19.4166681 400.362502,19.125 C398.77916,18.6041641 397.622922,18.0000034 396.893752,17.3125 C396.143748,16.64583 395.768752,15.3854259 395.768752,13.53125 L395.768752,11.5625 C395.768752,9.7708244 396.362496,8.3854216 397.550002,7.40625 C398.695841,6.5104122 400.268742,6.0625 402.268752,6.0625 C406.789608,6.1875006 409.029168,8.1249813 408.987502,11.875 L408.987502,47.84375 L410.393752,48.28125 L410.393752,49 L403.487502,49 L403.487502,48.28125 L404.393752,47.84375 L404.393752,28.90625 C403.456247,30.3645906 402.11251,31.4479131 400.362502,32.15625 L400.362502,47.84375 L401.268752,48.28125 L401.268752,49 Z M404.393752,21.34375 L404.393752,9.90625 C404.393752,8.6562438 404.227087,7.864585 403.893752,7.53125 C403.497916,7.3229156 403.029171,7.21875 402.487502,7.21875 C402.049999,7.21875 401.602087,7.3229156 401.143752,7.53125 C400.622916,7.864585 400.362502,8.6562438 400.362502,9.90625 L400.362502,15.34375 C400.404168,16.7395903 400.956246,17.8229128 402.018752,18.59375 C402.497921,18.9895853 402.966666,19.3958313 403.425002,19.8125 C403.862504,20.2500022 404.185417,20.7604137 404.393752,21.34375 Z" id="-" fill="#533625"></path>
            </g>
        </g>
    </g>
</svg>