<?xml version="1.0" encoding="utf-8"?>
<!-- Generator: Adobe Illustrator 22.1.0, SVG Export Plug-In . SVG Version: 6.00 Build 0)  -->
<svg version="1.1" id="Layer_1" xmlns="http://www.w3.org/2000/svg" xmlns:xlink="http://www.w3.org/1999/xlink" x="0px" y="0px"
	 viewBox="0 0 498.7 172.3" style="enable-background:new 0 0 498.7 172.3;" xml:space="preserve">
<style type="text/css">
	.st0{fill:#7D6742;}
</style>
<path class="st0" d="M0,61.4c10.3,0.8,21-0.2,29.8,7.4c3,2.6,6.8,2.4,10.5,2.7c2.7,0.2,4.3,1,4,4.2c-0.3,3.1-2,3.2-4.5,3.1
	c-4.7-0.3-9.4-0.7-13.4-3.5c-5.9-4.1-12.9-6.3-20.1-6.5C4.1,68.8,2,68.3,0,67.4V61.4z M46.8,154.1c1.7-5.2,4.8-9.9,9-13.5
	c4.4-3.9,6.5-9,8.8-14.2c1.8-4.3-1.1-4.7-3.7-5.7s-5.5-2.3-6.5,2c-0.9,4.3-3.3,8.1-6.8,10.7c-5.1,3.9-8,9.1-9.9,15.1
	c-1.7,5.4,0.5,8.8,6,9C45.9,157.4,46.3,155.5,46.8,154.1z M112.7,112.5c4.2,3.2,9,5.2,11.7,9.6c3.5,5.8,6.9,11.7,12.8,15.6
	c3.2,2.1,0.3,4.1-0.9,5.7c-1.3,1.8-2.2,4.8-5.7,2.6c-4.7-3-8.9-6.3-11.7-11.3c-2.5-4.7-6-8.8-10.3-12c-1.2-0.8-2.9-1.6-1.7-3.5
	C108.7,116.8,110.2,114.2,112.7,112.5L112.7,112.5z M74,29.5c-0.6,4.8,0.4,9.6,2.8,13.9c2.3,4.2-2.1,4.3-4.1,5.7s-4.1,1.8-5.6-1.3
	c-2.4-5.3-5-10.4-3.9-16.6c0.9-4.6-0.1-9.5-2.8-13.3c-2.4-3.4,0.1-4.6,2.6-5.9c2.5-1.3,4.8-3,6.8,1C72.5,18.2,75.2,23.3,74,29.5z
	 M11.4,90.2c-2.2-1.2-6.5,3-7.5-3c-1-6.3-0.9-6.7,5.4-7.8c4.1-0.7,8.3-1.2,12.3,0.2c5.2,1.9,10.7,2.5,16.2,1.6
	c4.9-0.8,3.8,3.4,4.7,6c0.9,2.9-0.2,4-3.3,4.5c-5.8,1-11.5,1.6-17.1-0.7C18.7,89.6,15,89.4,11.4,90.2z M24.9,104.7
	c-6.2-1.2-11.8,1-17.4,3.1c-2.1,0.8-4.4,2.2-5.4-1.5c-0.9-2.9-0.3-4.5,2.9-5.5c6.8-2.2,13.5-4.7,20.9-3.4c4.4,0.8,8-1.2,11.8-2.9
	c2.3-1,4.2-1.6,5.6,1.6c1.3,2.9-0.3,3.7-2.3,4.9C36,103.8,30.9,106,24.9,104.7z M55.2,117c-1.7,2.4-3.5,4.8-5.3,7.2
	c-1.6,2.1-3.7,3.9-6.2,5c-5.5,2.7-10.2,6.2-13.3,11.6c-1.1,1.9-2.3,2.9-4.2,1c-1.4-1.5-4.4-2.1-1.9-5.4c3-4,6-8.2,10.5-10.5
	c5.4-2.8,10.2-6.2,13.3-11.6c0.6-1.1,1.5-2.4,3.2-1.3C53,113.9,54.4,115.3,55.2,117z M122.1,152.7c-0.4,1.8-1.8,2.5-2.9,3.5
	c-0.9,0.9-2.3,0.9-3.3,0.1c-0.1-0.1-0.2-0.2-0.3-0.3c-3.2-3.8-7.1-7.1-8.2-12.3c-1.1-5.9-3.6-11.5-7.4-16.2
	c-1.7-2.1-1.7-3.7,0.6-5.4s3.6-1.2,5.4,0.8c3.7,4.1,6.3,9,7.5,14.4c1,4.7,3.2,9.1,6.5,12.6C120.8,150.9,121.5,151.8,122.1,152.7
	L122.1,152.7z M43.1,12.4c1.7,0.4,2.2,1.9,2.9,3.2c3.3,6.2,6.6,12.3,9.8,18.5c2.4,4.6,4.7,9.2,7.9,13.3c1.5,1.9,1.5,3.6-0.4,5.2
	c-2.4,2-3.2-0.5-4.2-1.7c-4.5-5-7.4-11-10.4-17c-2.7-5.5-5.3-11.1-8.3-16.5C38.6,14,41,13.5,43.1,12.4L43.1,12.4z M84.7,137.9
	c-0.4,2.9-1,5.8-1.7,8.7c-1.4,4.4-1.6,9.2-0.5,13.7c0.5,1.9,1.2,4.1-1.8,4.8s-3-1.6-3.6-3.5c-1.9-5.4-1.6-11.2,0.7-16.4
	c2-4.4,1.6-9.1,0.6-13.7c-0.5-2-0.8-4,2-4.7c3.2-0.7,3.1,1.8,3.5,3.6C84.3,132.6,84.4,134.9,84.7,137.9z M70.9,128.4
	c0.8,8.1,0.7,15.6-5.8,22.1c-4.9,4.9-4.4,12.2-5.8,18.7c-0.3,1.2,0.3,3.3-1.5,3.1c-2.5-0.2-0.9-2.4-0.8-3.6c0.6-8.9,2.6-17.2,9.2-24
	c4-4.1,1.9-10.2,3-15.3C69.6,128.8,69.8,127.8,70.9,128.4z M44.9,106.1c-7,5.2-15,8.4-23,11.7c-5.5,2.3-9.3,6.9-13.3,11.2
	c1.3,1.2,2.1,0.7,2.4,0.4c6.3-7.8,15.6-10.3,24.2-14c4.7-2,8.5-5.3,12.1-8.9C46,105.3,45.4,105.7,44.9,106.1L44.9,106.1z M54.1,55.6
	C46.4,50.8,42,43.8,38.3,35.7c-2.2-4.8-7.3-6.8-12.7-8.7c0.1,1.5,1,2.8,2.4,3.4c6.1,3.1,9.5,8.2,12.2,14.3c2.8,6.4,8.4,10.2,14.5,14
	C55.2,56.8,54.8,56,54.1,55.6L54.1,55.6z M19.4,49.9c3.8,1.3,7.2,3.3,10.1,6.1c2.6,2.5,5.4,4.9,8.3,7.1c3.9,2.9,6.7,3.4,10.3,2.5
	c-0.3-0.4-0.5-1-0.8-1.1c-7.8-1.9-13.3-7.2-18.7-12.6c-3.6-3.6-8.3-4.8-13.8-5.6C15.8,49.2,17.8,49.4,19.4,49.9z M93,128.4
	c-0.4-1.2-0.8-2.5-2.6-2.4c-0.3,1.8,0.6,3.2,1.6,4.5C91.5,129.4,91.1,128.4,93,128.4z M100.6,164.1c-2.9-5.6-6.4-9.5-6.4-15.3
	c0-6.2,0.9-12.5-2.2-18.3c0.2-0.8,0.1-1.7,1-2.1c4.4,6.4,5,13.5,4.1,20.9c-0.4,2.9,1.4,5,2.4,7.4
	C100.2,158.6,101.8,160.4,100.6,164.1L100.6,164.1z M70.4,126c-1.9,0.3-1.5,2-1.3,3.4l1.8-1C71.2,127.5,71.1,125.9,70.4,126
	L70.4,126z M498.1,93.4c-2-4.3-2.9-8.9-0.6-13.6c0.9-1.7,1.2-4,0-5.3c-3.2-3.4-2.9-7.7-3.7-11.6c-0.5-2.8-1.2-5.1-4.5-5.8
	c-2.3-0.5-2.4-2-1-3.7c0.8-1,1.5-2.4,2.6-3c6-3.2,1.7-10.8,6.3-14.5c0.1-0.1-0.1-1-0.5-1.3c-1.7-1.5-0.9-2.7,0.1-4.3
	c3.4-5.6,1.4-10.3-4.7-11.6c-0.6-0.1-1.3-0.3-2.2-0.6c1-1.8,2.4-2,3.6-2.4c3.4-1.3,5.2-3.6,4.5-7.3c-0.8-4-4.2-1.9-6.1-1.9
	c-78.8-0.2-157.6-0.3-236.5-0.3c-37,0-74-0.2-111-0.1c-17.6,0-35.2-0.3-52.2-5.8c-1.8-0.6-3.6-0.8-4.2,1.9c-0.4,0.9-1.1,1.6-2,2.1
	c-4.6,2.8-4.6,2.8-4.8,7.9c0,1-0.2,2-0.3,3C80,21.4,80,27.6,80.8,33.7c1.1,9.5,1.4,9.8,11,10.2c7.3,0.3,7.3,0.3,6-6.7
	c-0.4-1.1-0.5-2.3-0.5-3.4c0.5-2.5,1.6-5.3,4.3-5.5c3-0.2,3.2,2.9,3.5,5.2c0.9,6.4-0.8,12.8-4.7,17.9c-3.8,5.2-8,10.3-11.8,15.5
	c-7.8,10.6-6.8,19.8,2.9,28.7c7.1,6.5,15.1,11.5,23.5,16c2.3,1.3,4.9,2.1,7.6,2.1c15.7,0.1,31.3,0.2,47,0.3c1.4,0,3.1,0.5,3.8-1.5
	c1.8-5.3,6.7-7.6,10.3-11.3c3.4-3.4,7.2-4.6,12-4.5c42.7,0.3,85.3,0.3,128,0.3c39.8,0,79.6,0,119.5,0c17.5,0,35-0.2,52.5-0.2
	C498.3,96.9,499.6,96.7,498.1,93.4z M198.9,39.9c-0.2-3.3-0.2-6.7-0.5-10c-0.1-3-1.8-5.7-4.4-7.1c-0.3,3.7-0.6,6.7-0.6,9.7
	c-0.1,17-0.3,34-0.1,51c0,3.7-1,5-4.7,5c-8.4,0-14.4,5.4-21,9.5c-3,1.8-5.7,4.1-8.6,5.9c-3.8,2.4-8.4,3.5-12.9,3
	c-4.3-0.6-8.7-0.9-13-0.9c-14.8,0.3-23-9.6-30.7-19.9c-3.1-4.2-2.8-9.9-1-15c2.3-6.6,4.8-13.1,7.4-19.6c3.4-7.9,3.7-16.7,1.1-24.9
	c-1.1-3.3-2.8-5.7-6.7-5.5s-6.6,2-7.6,6c-0.7,3.1-0.4,6.3-0.5,9.5c0,1.3,2.2,3.5-0.8,3.9c-2.2,0.3-4.8,0.4-5.5-2.9
	c-2-8.8-2.2-17.5,1.5-25.9c0.3-0.8,0.7-1.5,1.2-2.1c1.4-1.6-2-6.8,3.7-5C97.8,5.4,101,4.3,103,7c0.6,0.9,2,2.3,2.8,1.2
	c3.3-3.9,4.5-0.2,6.4,1.4c7.3,6.1,7,14.3,7.3,22.8c0.1,4.3,0.7,8.3-1.2,12.3c-0.2,0.4-0.2,1,0,1.4c2.4,3.1,2.4,3.1,0.8,7.5
	c-1.4,3.7-1.4,3.7,2.8,3.5c-0.2,3.2-2.2,5.5-4,7.8s-2.2,4.5,0.6,6.8c5.3,4.3,11.1,8,17.2,11c2.9,1.4,3.9,0.5,3.9-2.5c0-18,0-36,0-54
	c0-0.9,0.3-2.2-0.9-2.6c-1.4-0.4-2,1-2.5,2c-2.2,4-1.4,8.4-1.9,12.7c-0.2,1.6,0.9,4.2-2,4.3c-3.2,0.2-2-2.7-2-4.1
	c-0.1-6.5,0.3-13,0.4-19.5c0-2.2,1-2.8,3-2.8c6.8,0.1,13.7,0.2,20.5,0.1c2,0,2.5,0.9,2.5,2.7c0,7,0.1,14,0.1,21c0,1.4-0.1,2.7-2,2.6
	s-2-1.2-2.1-2.7c-0.1-3.2-0.2-6.3-0.3-9.5c0-2.4-0.9-4.6-2.5-6.4c-1.1-1.1-2.1-1.1-2.3,0.7c-0.3,2-0.5,4-0.5,6
	c0,16.7,0.1,33.3-0.1,50c0,3.3,0.7,4.8,4.3,4.8c3.3,0.1,4.8-0.7,4.7-4.3c-0.5-12.1,3.1-23.3,7.4-34.4c1.8-4.3,3-8.9,3.3-13.5
	c0.1-3,0.1-6.3-2.2-8.4c-3.1-2.7-2.8-5.2-0.6-8.2c2.2,0.2,2.6,2.8,4.7,3.5c1.9-0.6-0.3-4.4,3.4-4.1c3.2,0.2,4.9,0.2,4.9,4.4
	c-0.1,19.5,0.3,39,0.2,58.5c0,4.5,2.2,4.7,5.4,4.7c4.1,0.1,2.9-2.8,2.9-4.8c0.1-19.5,0.2-39,0.1-58.5c0-3.1,0.6-4.2,4.1-4.3
	c12.8,0,12.8-0.2,12.8,12.9c0,3.7,0,7.3,0,11c0,1.5-0.2,2.6-2.1,2.7C198.6,42.7,199,41.2,198.9,39.9z M220,88.2
	c-2.1,0.2-4.9,1.1-5.1-2.8c0-1.4-1-1.5-2.1-0.8c-0.8,0.6-1.5,1.3-2.3,1.9c-1.9,1.4-4.1,2.9-6.4,1.6s-2.9-4-3-6.5
	c-0.2-8.7,1.2-17.3,4.1-25.5c2.3-6.8,5.2-13.3,6.4-20.4c0.7-4.6,0.4-8.9-3.1-12.5c-1.9-2-1.8-2.2,0.9-6.3c2,0.5,2.4,3.1,4.9,3.5
	c0.8-1.8,0.5-4.7,4.3-4.3c3.2,0.3,3.7,1.2,3.7,4.1c-0.2,21.1-0.2,42.2-0.5,63.4C221.8,85.1,223.2,87.9,220,88.2z M252.8,52.4h-0.2
	c0,10.5,0,21,0,31.5c0,2.3,0.5,4.4-3.3,4.6c-4.2,0.1-3.6-2.3-3.6-4.8c-0.1-5-0.2-10-0.2-15c0.1-0.3,0.1-0.7,0-1
	c-1.6-4.7-2.7-9.2,0.3-14.1c1.3-2.2-0.8-4.8-3.5-5.7s-4.4-0.2-4.4,3.2c0,11.2-0.3,22.3-0.4,33.4c0,2.5-0.2,4.1-3.4,4
	c-2.9-0.1-4-0.8-4-4c0.1-21.5,0.2-43,0-64.4c0-4,2-3.6,4.6-3.9c3.3-0.3,3.3,1.5,3.3,4c-0.1,6.5,0,13,0.2,19.5c0,1.4-1,4.3,2.4,3.4
	c2-0.5,5.1,0.9,4.8-3.6c-0.4-6.6,0.2-13.3,0.1-20c0-2.8,1-3.4,3.5-3.3s4.1,0,4,3.3C252.6,30.4,252.8,41.4,252.8,52.4L252.8,52.4z
	 M353.4,11.8c0.5-1.5,1.7-3.3,4.2-2.4s5,1.5,7.7,2.4c-2.9,2.3-6,2.5-9.1,2.2C355.1,13.8,352.6,14.2,353.4,11.8z M278,88.2
	c-6.5-1.4-16.1-11.3-17.1-18.1c-1.8-11.7-0.7-23.6-1-35.4c0-1.6,1-2.2,2-3.2c3.8-3.6,3.9-6.8,0-10c-1.7-1.4-2.5-3-1.5-4.6
	s2.7-0.4,4.1,0.1c12.4,4.2,17.5,18.9,16.6,30.2c-0.2,2.7-2.6,1.2-4,1.4c-1.6,0.2-2.9,0-2.8-2.3c0.2-3,0.2-6,0.2-9
	c-0.1-6.1-2.7-11-8-15.6c0.5,15.7,1,30.4,1.5,45.1c0.1,3.5,1,6.9,2.5,10.1c0.9,1.9,1.9,3.9,3.9,5c0-4.2,0.1-8.4,0-12.5
	c-0.1-2.4,0.4-3.6,3.2-3.6s3.9,1.1,3.6,3.8c-0.1,1.2,0.3,2.6-0.2,3.4c-2.9,4.4-3.8,8.3-0.1,13C282.2,88,280,88.7,278,88.2z
	 M307.6,53.6c2,1.2,2.8,2.3,2.8,4.6c-0.2,8.8-0.2,17.6-0.2,26.5c0,2.8-1,3.8-3.7,3.9c-3.4,0.1-2.6-2.2-2.7-4.1c-0.1-8-0.2-16-0.2-24
	c0-2.9,0.2-5.5-3.6-6.4c-1.5-0.3-2.6-2.3-5-4.6c0,4.5,0,7.9,0,11.3c0,8-0.2,16-0.1,24c0,2.9-1.1,3.7-3.8,3.7c-3,0.1-3.1-1.3-3.1-3.6
	c0-21.6-0.1-43.3-0.2-64.9c0-2.7,0.6-3.7,3.5-3.7c3.1,0,4,0.9,3.9,4c-0.2,7-0.1,13.9-0.1,20.9c2.8-1.5,4.7-3.3,7.2-4.3
	c1.8-0.7,1.7-2.2,1.7-3.7c0-4.7,0.1-9.3,0-14c-0.1-2.1,0.5-3.1,2.8-2.8c1.8,0.2,3.7-0.2,3.7,2.7c-0.1,5.5,0,11,0.2,16.5
	c0.1,2.4-1.5,3-3.1,4C301,43.4,301,49.8,307.6,53.6L307.6,53.6z M340.4,52.4h-0.2c0,10.7,0,21.3,0,32c0,2.4-0.1,4-3.3,4
	c-3.5,0-3.1-2-3.1-4.2c0-11,0.1-22-0.1-33c0-1.4,1.9-4.7-1.9-4.3c-2.7,0.3-5.9,0-5.8,4.8c0.3,10.6-0.1,21.3-0.2,32
	c0,2.7,0.2,4.7-3.7,4.7c-4.3,0-3.4-2.6-3.4-4.9c0-21,0-42,0-63c0-2.2-0.9-4.7,3.2-4.5c3.5,0.1,4,1.5,4,4.6c-0.1,7,0,14,0.1,21
	c0,0.9-0.4,2.1,0.7,2.7s2.2,0,3.2-0.8c4-2.9,5.2-8.5,2.1-12.3c-2-2.4-2.1-3.5,0.6-5.2c2.4-1.5,1.2-4.3,1.2-6.5
	c0-2.6,0.6-3.5,3.3-3.4c2.5,0.1,3.5,0.5,3.5,3.3C340.3,30.4,340.4,41.4,340.4,52.4L340.4,52.4z M365,88.4c-3.6,0.1-3-2.1-3-4.2
	c-0.1-11-0.1-22-0.3-33c0-1.5,1.1-4.6-2.5-4c-2.5,0.4-5.2,0.4-5.1,4.5c0.2,10.8-0.1,21.6,0,32.4c0,3.1-0.7,4.3-4,4.4
	c-3.6,0.1-3.1-2-3.1-4.2c0-10.8,0-21.6,0-32.5c0-10.7,0.1-21.3,0-32c0-2.6,0.4-4,3.5-3.8c2.6,0.2,3.8,0.7,3.7,3.7
	c-0.2,7,0,14,0.1,21c0,1.3-0.1,3.1,1.1,3.6c1.5,0.6,2.8-0.8,3.8-1.8c3.3-3.1,3.6-8.3,0.6-11.8c-1.4-1.8-2.1-2.8,0.3-4.1
	c3.1-1.6,1.8-4.6,1.9-7.1c0.1-2.1,0.3-3.5,2.9-3.3c2.2,0.2,4.1-0.1,4.1,3.3c-0.1,21.6,0,43.3,0.1,64.9
	C369.1,87.4,368.1,88.3,365,88.4L365,88.4z M404.4,67.6c1.2,1,3,1,4.2,0c2.9-2.1,5.9-1.2,9.1-1.1c-2.4,5.7-4.9,7-10.5,4.7
	c-3.5-1.4-4.4-0.6-4.2,2.9s-0.1,7,0,10.5c0.1,2.7-0.8,3.9-3.7,3.9s-4.1-0.9-4.1-4c0.2-21.3,0.4-42.5,0.4-63.8c0-3.7,1.2-4.4,4.9-4.5
	c16.7-0.5,23.4,18,16,29.1c-2.7,4-5.8,7.7-8.7,11.5c-1.5,2-3.2,3.9-4,6.3C403.2,64.6,402.8,66.3,404.4,67.6L404.4,67.6z M444.2,88.5
	c-3.7-0.1-3.8-1.9-3.8-4.7c0.1-10.3,0-20.5,0-31.9c-6.6,4-9.4,8.2-8.7,14.9c0.6,5.9-0.1,12,0,18c0,2.8-0.8,3.7-3.7,3.7
	c-3,0-3.6-1.2-3.5-3.8c0.1-8.7,0.1-17.3,0-26c0-2.4,0.7-3.5,3-4.2c3.9-1.2,6.9-3.9,9.4-7.1c1.6-2,1.4-3-1.3-3.7
	c-7.4-2-11.8-6.8-11.6-12.4c0.1-6.3,4.8-11.8,11.7-13.9c10.4-3.2,11.6-2.3,11.6,8.1c0,19.5,0,38.9,0,58.4
	C447.3,86,448.2,88.6,444.2,88.5L444.2,88.5z M477,88.3c-0.1,0.1-0.3,0-0.5,0c-4.5,0.7-5.4-0.3-4.1-4.7c0.3-0.9,0.5-1.9,0.8-3.4
	c-2.8,0-5.3,0.2-7.8,0c-3.8-0.4-4.4,1-3,4.2c0.6,1.3,2,3.5-0.9,3.7c-2,0.1-4.9,1.6-5.8-1.8c-0.5-2.3-1.3-4.5-2.3-6.6
	c-0.3-0.6-0.4-1.2-0.4-1.8c5.4-2.3,2.4-7,2.6-10.4c0.5-8.6,0.4-17.3,0.3-25.9c0-2.5,0.5-3.7,3.2-4.6c9-3.2,10-9,3.2-15.7
	c-1.5-1.5-1.4-1.8,2.4-5.9l5.1,4.6c2.5-0.3,0.4-3,2.4-3.7c3.4-1.2,6,0.4,6,4.1c0.1,17.3,0.1,34.6,0.2,51.9c0,1.9-1.1,4.3,2.1,5.3
	C481.8,78.1,478.5,87.9,477,88.3z M169.7,43.3c0,8.9,0.1,17.8,0,26.8c0,2.1-0.6,4.8-3.3,4.8c-2.9-0.1-2.8-3-3-5
	C162.3,60.4,165.1,51.7,169.7,43.3L169.7,43.3z M439.4,28.6c0-2.6,0-5.3,0-7.9c0-1.9-0.6-2.9-2.7-1.6c-5.3,3.1-6.3,13.1-1.7,17
	c1,0.9,2.2,1.8,3.6,1.4c1.8-0.5,1.1-2.2,1.1-3.4c0.1-1.8,0-3.6,0-5.5L439.4,28.6z M471,55.3c0-6.5,0-12.9,0-19.4
	c0-0.9,0.1-3.3-1.3-2.2c-2.4,1.7-6.4,2.3-6.2,6.8c0.3,11.3,0.3,22.5,0.3,33.8c0,2.8,1.2,3.3,3.6,3.2s3.6-0.5,3.6-3.3
	C470.8,67.9,470.9,61.6,471,55.3L471,55.3z M208.2,69.7c0.2,2,0.1,5,2.8,5.2c2.9,0.1,3.5-2.9,3.7-5.1c0.7-8.9,0.4-17.9-0.6-26.8
	C209.9,51.3,207.4,60.2,208.2,69.7z M404.4,55c0.5-0.4,1-0.8,1.4-1.3c0.5-0.6,1-1.3,1.4-2.1c3.4-7.8,4.4-16.4,2.9-24.8
	c-0.5-2.8-1.9-5.4-4-7.3c-0.6-0.6-1.3-0.9-2.1-1c-1,0.1-0.9,1.2-0.9,2c0,11.4,0,22.8,0,34.2L404.4,55z"/>
</svg>
