<svg xmlns="http://www.w3.org/2000/svg" preserveAspectRatio="none" viewBox="0 0 137.52 9.17"><defs><style>.cls-1{fill:#623c25;}</style></defs><title>venz</title><g id="Layer_2" data-name="Layer 2"><g id="Layer_1-2" data-name="Layer 1"><path class="cls-1" d="M137.52,4.46v.25l-24.69.88q-6.18.31-12.35.25A105,105,0,0,1,88.14,4.71V4.46a105,105,0,0,1,12.34-1.13q6.18-.06,12.35.25ZM24.69,3.58,0,4.46v.25l24.69.88q6.18.31,12.34.25A105.15,105.15,0,0,0,49.38,4.71V4.46A105.15,105.15,0,0,0,37,3.33q-6.16-.06-12.34.25m34-2.06a6.38,6.38,0,0,0,4.93,3.07,6.38,6.38,0,0,0-4.93,3.06c-.28.29-2.76.13-2.76.13,1.69-2,5.94-3.19,5.94-3.19s-4.25-1.19-5.94-3.2c0,0,2.48-.16,2.76.13M55.34,3.35A8.18,8.18,0,0,0,59.1,4.59a8.11,8.11,0,0,0-3.76,1.23A7.07,7.07,0,0,0,52.43,4.7L48.3,4.59l4.14-.12a6.85,6.85,0,0,0,2.9-1.12m10,2.88a.57.57,0,0,1,.55.59.56.56,0,0,1-.55.59.57.57,0,0,1-.56-.59.58.58,0,0,1,.56-.59m6.92-3.29a.56.56,0,0,1-.55-.59.57.57,0,0,1,.55-.59.58.58,0,0,1,.56.59.57.57,0,0,1-.56.59m-3.46-1a.94.94,0,0,1-.91-1,.91.91,0,1,1,1.81,0,.93.93,0,0,1-.9,1M65.3,3.41a1.15,1.15,0,0,1,1.11,1.18,1.11,1.11,0,1,1-2.22,0A1.14,1.14,0,0,1,65.3,3.41m0-.47a.57.57,0,0,1-.56-.59.58.58,0,0,1,.56-.59.57.57,0,0,1,.55.59.56.56,0,0,1-.55.59m6.92.47a1.14,1.14,0,0,1,1.11,1.18,1.11,1.11,0,1,1-2.22,0,1.15,1.15,0,0,1,1.11-1.18m3.44,1.18s4.25,1.19,5.93,3.19c0,0-2.47.16-2.75-.13a6.38,6.38,0,0,0-4.93-3.06,6.38,6.38,0,0,0,4.93-3.07c.28-.29,2.75-.13,2.75-.13-1.68,2-5.93,3.2-5.93,3.2m-6.9,2.67a1,1,0,1,1-.91,1,.93.93,0,0,1,.91-1M82.18,3.35a6.85,6.85,0,0,0,2.9,1.12l4.14.12-4.14.11a7,7,0,0,0-2.9,1.12,8.11,8.11,0,0,0-3.76-1.23,8.18,8.18,0,0,0,3.76-1.24M68.76,2.67a1.87,1.87,0,0,1,1.81,1.92,1.81,1.81,0,1,1-3.62,0,1.87,1.87,0,0,1,1.81-1.92m3.46,3.56a.58.58,0,0,1,.56.59.57.57,0,0,1-.56.59.56.56,0,0,1-.55-.59.57.57,0,0,1,.55-.59"/></g></g></svg>