<?xml version="1.0" encoding="utf-8"?>
<!-- Generator: Adobe Illustrator 22.0.0, SVG Export Plug-In . SVG Version: 6.00 Build 0)  -->
<svg version="1.1" id="Layer_1" xmlns="http://www.w3.org/2000/svg" xmlns:xlink="http://www.w3.org/1999/xlink" x="0px" y="0px"
	 preserveAspectRatio="none" viewBox="0 0 304.4 12.6" style="enable-background:new 0 0 304.4 12.6;" xml:space="preserve">
<style type="text/css">
	.st0{fill:#7F6841;}
</style>
<g id="Layer_2_1_">
	<g id="Layer_1-2">
		<path class="st0" d="M151.6,3.2c-2.5-0.8-6.2-1.2-15.1-1.2c1.3,0.5,2.8,1,4.3,1.7l4.4,1.9l0.7,0.3l-1.6,0.7L140,4.8
			c-3.7-1.6-7.5-2.8-7.5-2.8l-0.6-0.1v-1h0.9c13.6-0.1,17.5,0.5,20.6,1.8C152.8,2.7,152.2,2.9,151.6,3.2 M168.9,10.4
			c-1.4-0.5-2.9-1.1-4.3-1.7c-1.9-0.8-3.9-1.6-5.5-2.3l1.6-0.7c1.4,0.6,3.1,1.3,4.7,2c2.4,1,4.9,1.9,7,2.6v1.3
			c-0.9,0-6.1,0.1-10.9,0c-2.1,0-4.2-0.3-6.3-0.7c-1.2-0.3-2.4-0.7-3.5-1.2h-0.1c0.5-0.2,0.9-0.3,1.2-0.5l0.5-0.2
			c0.8,0.3,1.6,0.6,2.4,0.8c1.9,0.4,3.8,0.7,5.8,0.7C164.1,10.4,166.8,10.4,168.9,10.4"/>
		<path class="st0" d="M140.4,8.7c-1.4,0.6-2.9,1.1-4.3,1.6c2.1,0,4.8,0,7.4,0c2,0,3.9-0.2,5.8-0.7c1.1-0.3,2.1-0.6,3.1-1.1l0.8-0.4
			c2.6-1.1,8.8-3.8,11-4.7c1.5-0.6,3-1.2,4.3-1.7c-13.2,0.1-14.9,0.9-18.4,2.6L149,5.1C147,6.1,143.7,7.5,140.4,8.7 M132.2,10.4
			c2.1-0.7,4.8-1.7,7.4-2.7c3.3-1.3,6.4-2.7,8.4-3.6l1.1-0.5c4.1-2,6-2.9,23-2.8h0.7v1l-0.3,0.1c0,0-3.7,1.2-7.4,2.8
			c-2.6,1.1-8.5,3.6-10.9,4.7l-0.8,0.4c-1.1,0.5-2.3,0.9-3.5,1.2c-2.1,0.5-4.2,0.7-6.3,0.7c-3.7,0.1-7.8,0-9.8,0h-2v-1L132.2,10.4z"
			/>
		<path class="st0" d="M131.4,3.6l-0.1,3.7l0.1,4.5H145h4.8h12.7h0.5c0.9,0,3.2-0.1,5.2-0.1c1.4,0,4.8,0.2,4.8-0.2V1.1
			c0-0.2-0.1-0.3-0.7-0.3c-5.2,0-12.7,0-18.9,0.1c-2.2,0-5.9,0-7.9,0c-1.7,0-2,0.1-3.9,0.1c-1.2,0-10.4-0.3-10.4,0.2v1.5L131.4,3.6z
			 M148.7,10.9l0.1-0.1h-16.5c-0.2-3,0-6,0-9h17.6l10.8-0.1l0,0h2h9.3c0.5,3.8,0,7,0,9.2h-14.7L148.7,10.9z"/>
		<path class="st0" d="M0.1,3.6v3.7v4.5h3.2h2.1H11h0.2c0.4,0,1.5-0.1,2.3-0.1c0.6,0,2.1,0.2,2.1-0.2V1.1c0-0.2-0.1-0.3-0.3-0.3
			c-2.3,0-5.6,0-8.4,0.1c-1,0-2.6,0-3.5,0C2.7,0.8,2.6,1,1.7,1C1.2,1,0,0.7,0,1.2v1.5L0.1,3.6z M5.2,1.8l6-0.1v0.2
			C9.9,2,8.8,3.4,7.9,4C7.6,3.8,7.1,3.2,6.7,2.8C6.3,2.6,5.3,2,5.2,1.8 M8.5,4.8c0-0.6,2-1.8,2.6-2.1c0.5-0.3,1-0.5,1.6-0.7
			c0.3-0.1,1.8-0.3,2-0.3c0.3,1.4-1.3,3-2.3,3.6C11.8,5.7,11,5.9,10.3,6C9.6,5.7,9,5.3,8.5,4.8 M0.9,1.8c2.6,0,5.3,1,6.5,2.9
			C6.8,5.3,6,5.8,5.2,6C3.5,6,1,3.6,0.9,1.8 M14.9,5.3l0.1,1l-0.1,2.5h-0.1c-0.5-1.2-1.5-2-2.7-2.4V6.3C13,6.1,14.6,5,14.8,4.2H15
			L14.9,5.3L14.9,5.3z M0.9,8.7V4c0.8,0.6,1.5,2,2.8,2.3v0.2C2.5,6.7,1.2,8.6,0.9,8.7 M2.1,10.9H1c0.1-1.1,0.7-2.1,1.5-2.8
			c0.4-0.3,0.8-0.7,1.3-0.9s1.3-0.3,1.7-0.5l2,1.4C6.1,9.6,4.2,10.6,2.1,10.9 M8.5,8.1c0.5-0.5,1-0.9,1.6-1.2
			c0.6-0.2,1.7,0.3,2.1,0.6c1.4,0.6,2.3,1.9,2.4,3.4h-0.4C12.1,10.9,9.9,9.9,8.5,8.1 M4.9,10.9c0.3-0.4,2.7-1.2,3-2.1l2.9,2
			L4.9,10.9z"/>
		<path class="st0" d="M14.9,3.6v3.7v4.5H18h2.1h5.7H26c0.4,0,1.5-0.1,2.3-0.1c0.6,0,2.1,0.2,2.1-0.2V1.1c0-0.2-0.1-0.3-0.3-0.3
			c-2.3,0-5.6,0-8.4,0.1c-1,0-2.6,0-3.5,0c-0.8,0-0.9,0.1-1.7,0.1c-0.6,0-1.7-0.3-1.7,0.2v1.5L14.9,3.6z M20,1.8l6-0.1V2
			c-1.3,0.1-2.4,1.5-3.2,2.1c-0.4-0.2-0.8-0.8-1.3-1.2C21.1,2.6,20.1,2,20,1.8 M23.4,4.9c0-0.6,2-1.8,2.5-2.1s1-0.5,1.6-0.7
			c0.3-0.1,1.9-0.2,2-0.3c0.3,1.4-1.3,3-2.3,3.6c-0.7,0.4-1.4,0.6-2.1,0.7C24.4,5.7,23.8,5.4,23.4,4.9 M15.7,1.9
			c2.6,0,5.3,1,6.5,2.9c-0.6,0.6-1.4,1-2.2,1.2C18.3,6,15.8,3.6,15.7,1.9 M29.7,5.3v1l-0.1,2.5h-0.1c-0.5-1.2-1.5-2-2.7-2.4V6.3
			c0.9-0.2,2.5-1.3,2.7-2.1h0.2V5.3z M15.8,8.7V4c0.8,0.6,1.5,1.9,2.7,2.2v0.2C17.4,6.7,16.1,8.6,15.8,8.7 M17,10.9h-1.1
			c0.1-1.1,0.7-2.1,1.5-2.8c0.4-0.3,0.8-0.7,1.2-0.9s1.3-0.3,1.7-0.5l2,1.4C20.9,9.6,19.1,10.6,17,10.9 M23.4,8.1
			c0.5-0.5,1-0.9,1.6-1.2c0.6-0.2,1.7,0.3,2.1,0.6c1.4,0.6,2.3,1.9,2.4,3.4h-0.4C26.9,10.9,24.8,9.9,23.4,8.1 M19.7,10.9
			c0.3-0.4,2.7-1.2,3-2.1l2.9,2L19.7,10.9z"/>
		<path class="st0" d="M57.5,3.6v3.7v4.5h3.1h2.1h5.7h0.2c0.4,0,1.4-0.1,2.3-0.1c0.6,0,2.1,0.2,2.1-0.2V1.1c0-0.2-0.1-0.3-0.3-0.3
			c-2.3,0-5.7,0-8.4,0.1c-1,0-2.6,0-3.5,0C60,0.8,59.9,1,59.1,1c-0.6,0-1.7-0.3-1.7,0.2v1.5L57.5,3.6z M62.5,1.8l6-0.1v0.2
			C67.2,2,66.2,3.4,65.3,4C65,3.8,64.5,3.2,64,2.8C63.7,2.6,62.7,2,62.5,1.8 M65.9,4.8c0-0.6,2-1.8,2.6-2.1c0.5-0.3,1-0.5,1.6-0.7
			c0.3-0.1,1.9-0.2,2-0.3c0.3,1.4-1.3,3-2.3,3.6c-0.7,0.4-1.4,0.6-2.1,0.7C66.9,5.7,66.3,5.3,65.9,4.8 M58.2,1.8
			c2.6,0,5.3,1,6.5,2.9c-0.6,0.6-1.4,1.1-2.2,1.3C60.8,5.9,58.3,3.6,58.2,1.8 M72.2,5.3v1v2.5h-0.1c-0.5-1.2-1.5-2-2.7-2.3V6.3
			c0.9-0.2,2.5-1.3,2.7-2.1h0.2L72.2,5.3L72.2,5.3z M58.3,8.7V4C59,4.6,59.8,6,61,6.3v0.2C59.9,6.7,58.6,8.6,58.3,8.7 M59.5,10.9
			h-1.1c0.1-1.1,0.7-2.1,1.5-2.8c0.4-0.3,0.8-0.7,1.2-0.9s1.3-0.3,1.7-0.5l2,1.4C63.5,9.6,61.5,10.6,59.5,10.9 M65.9,8.1
			c0.5-0.5,1-0.9,1.6-1.2c0.6-0.2,1.7,0.3,2.1,0.6c1.4,0.6,2.3,1.9,2.4,3.4h-0.4C69.4,10.9,67.3,9.9,65.9,8.1 M62.2,10.9
			c0.3-0.4,2.7-1.2,3-2.1l2.9,2L62.2,10.9z"/>
		<path class="st0" d="M72.3,3.6v3.7v4.5h3.1h2.1h5.7h0.2c0.4,0,1.4-0.1,2.3-0.1c0.6,0,2.1,0.2,2.1-0.2V1.1c0-0.2-0.1-0.3-0.3-0.3
			c-2.3,0-5.7,0-8.4,0.1c-1,0-2.6,0-3.5,0c-0.8,0-0.9,0.1-1.7,0.1c-0.6,0-1.7-0.3-1.7,0.2v1.5L72.3,3.6z M77.4,1.8l6-0.1v0.2
			C82,2,81,3.4,80.1,4c-0.3-0.2-0.8-0.8-1.3-1.2C78.5,2.6,77.5,2,77.4,1.8 M80.7,4.8c0-0.6,2-1.8,2.6-2.1c0.5-0.3,1-0.5,1.6-0.7
			c0.3-0.1,1.9-0.2,2-0.3c0.3,1.4-1.3,3-2.3,3.6c-0.7,0.4-1.4,0.6-2.1,0.7C81.8,5.7,81.2,5.3,80.7,4.8 M73.1,1.8
			c2.6,0,5.3,1,6.5,2.9C79,5.3,78.2,5.8,77.4,6C75.6,6,73.1,3.7,73.1,1.8 M87,5.3v1v2.5h-0.1c-0.5-1.2-1.5-2-2.7-2.3V6.3
			C85,6.1,86.7,5,86.9,4.2H87V5.3z M73.1,8.7V4c0.8,0.6,1.5,1.9,2.7,2.2v0.2C74.7,6.7,73.4,8.6,73.1,8.7 M74.3,10.9h-1.1
			c0.1-1.1,0.7-2.1,1.5-2.8c0.4-0.3,0.8-0.7,1.2-0.9s1.3-0.3,1.7-0.5l2,1.4C78.3,9.6,76.4,10.6,74.3,10.9 M80.7,8.1
			c0.5-0.5,1-0.9,1.6-1.2c0.6-0.2,1.7,0.3,2.1,0.6c1.4,0.6,2.3,1.9,2.4,3.4h-0.4C84.2,10.9,82.1,9.9,80.7,8.1 M77,10.9
			c0.3-0.4,2.7-1.2,3-2.1l2.9,2L77,10.9z"/>
		<path class="st0" d="M87.1,3.6v3.7v4.5h3.1h2.1H98h0.2c0.4,0,1.4-0.1,2.3-0.1c0.6,0,2.1,0.2,2.1-0.2V1.1c0-0.2-0.1-0.3-0.3-0.3
			c-2.3,0-5.7,0-8.4,0.1c-1,0-2.6,0-3.5,0c-0.8,0-0.9,0.1-1.7,0.1C88.2,1,87,0.7,87,1.2v1.5L87.1,3.6z M92.2,1.8l6-0.1v0.2
			C96.9,2,95.8,3.4,94.9,4c-0.3-0.2-0.8-0.8-1.3-1.2C93.3,2.6,92.3,2,92.2,1.8 M95.5,4.8c0-0.6,2-1.8,2.6-2.1c0.5-0.3,1-0.5,1.6-0.7
			c0.3-0.1,1.9-0.2,2-0.3c0.3,1.4-1.3,3-2.3,3.6C98.8,5.7,98,5.9,97.3,6C96.6,5.7,96,5.3,95.5,4.8 M87.9,1.8c2.6,0,5.3,1,6.5,2.9
			C93.8,5.3,93,5.8,92.2,6C90.5,6,88,3.6,87.9,1.8 M101.9,5.3v1l-0.1,2.6h-0.1c-0.5-1.2-1.5-2.1-2.7-2.4V6.3
			c0.9-0.2,2.5-1.3,2.7-2.1h0.2V5.3z M87.9,8.7V4c0.8,0.6,1.5,1.9,2.7,2.2v0.2C89.5,6.7,88.2,8.6,87.9,8.7 M89.1,10.9H88
			c0.1-1.1,0.7-2.1,1.5-2.8c0.4-0.3,0.8-0.7,1.2-0.9s1.3-0.3,1.7-0.5l2,1.4C93.1,9.6,91.2,10.6,89.1,10.9 M95.5,8.1
			c0.5-0.5,1-0.9,1.6-1.2c0.6-0.2,1.7,0.3,2.1,0.6c1.4,0.6,2.3,1.9,2.4,3.4h-0.4C99,10.9,96.9,9.9,95.5,8.1 M91.8,10.9
			c0.3-0.4,2.7-1.2,3-2.1l2.9,2L91.8,10.9z"/>
		<path class="st0" d="M101.9,3.6v3.7v4.5h3.1h2.1h5.7h0.2c0.4,0,1.5-0.1,2.3-0.1c0.6,0,2.1,0.2,2.1-0.2V1.1c0-0.2-0.1-0.3-0.3-0.3
			c-2.3,0-5.7,0-8.4,0.1c-1,0-2.6,0-3.5,0c-0.8,0-0.9,0.1-1.7,0.1c-0.6,0-1.7-0.3-1.7,0.2v1.5L101.9,3.6z M107,1.8l6-0.1V2
			c-1.3,0.1-2.4,1.5-3.2,2.1c-0.4-0.2-0.8-0.8-1.3-1.2C108.2,2.6,107.1,2,107,1.8 M110.4,4.9c0-0.6,2-1.8,2.6-2.1
			c0.5-0.3,1-0.5,1.6-0.7c0.3-0.1,1.9-0.2,2-0.3c0.3,1.4-1.3,3-2.3,3.6c-0.7,0.4-1.4,0.6-2.1,0.7C111.5,5.7,110.9,5.4,110.4,4.9
			 M102.7,1.9c2.6,0,5.3,1,6.5,2.9c-0.6,0.6-1.4,1-2.2,1.2C105.3,6,102.8,3.6,102.7,1.9 M116.7,5.3v1l-0.1,2.6h-0.1
			c-0.5-1.2-1.5-2-2.7-2.3V6.3c0.9-0.2,2.5-1.3,2.7-2.1h0.2V5.3z M102.7,8.7V4c0.8,0.6,1.5,1.9,2.7,2.2v0.2
			C104.3,6.7,103,8.6,102.7,8.7 M103.9,10.9h-1.1c0.1-1.1,0.7-2.1,1.5-2.8c0.4-0.3,0.8-0.7,1.3-0.9s1.3-0.3,1.7-0.5l2,1.4
			C107.9,9.7,106,10.6,103.9,10.9 M110.3,8.1c0.5-0.5,1-0.9,1.6-1.2c0.6-0.2,1.7,0.3,2.2,0.6c1.4,0.6,2.3,1.9,2.4,3.4h-0.4
			C113.9,10.9,111.7,9.9,110.3,8.1 M106.7,10.9c0.3-0.4,2.7-1.2,3-2.1l2.9,2L106.7,10.9z"/>
		<path class="st0" d="M116.7,3.6v3.7v4.5h3.1h2.1h5.7h0.2c0.4,0,1.5-0.1,2.3-0.1c0.6,0,2.1,0.2,2.1-0.2V1.1c0-0.2-0.1-0.3-0.3-0.3
			c-2.3,0-5.7,0-8.4,0.1c-1,0-2.6,0-3.5,0c-0.8,0-0.9,0.1-1.7,0.1c-0.6,0-1.7-0.3-1.7,0.2v1.5L116.7,3.6z M121.8,1.8l6-0.1v0.2
			c-1.3,0.1-2.4,1.5-3.2,2.1c-0.4-0.2-0.8-0.8-1.3-1.2C122.9,2.6,121.9,2,121.8,1.8 M125.1,4.8c0-0.6,2-1.8,2.6-2.1
			c0.5-0.3,1-0.5,1.6-0.7c0.3-0.1,1.9-0.2,2-0.3c0.3,1.4-1.3,3-2.3,3.6c-0.7,0.4-1.4,0.6-2.1,0.7C126.2,5.7,125.6,5.3,125.1,4.8
			 M117.5,1.8c2.6,0,5.3,1,6.5,2.9c-0.6,0.6-1.4,1.1-2.2,1.3C120.1,6,117.5,3.7,117.5,1.8 M131.4,5.3l0.1,1l-0.1,2.6h-0.1
			c-0.5-1.2-1.5-2-2.7-2.3V6.3c0.9-0.2,2.5-1.3,2.7-2.1h0.2L131.4,5.3z M117.5,8.7V4c0.8,0.6,1.5,1.9,2.7,2.2v0.2
			C119.1,6.7,117.8,8.6,117.5,8.7 M118.7,10.9h-1.1c0.1-1.1,0.7-2.1,1.5-2.8c0.4-0.3,0.8-0.7,1.3-0.9s1.3-0.3,1.7-0.5l2,1.4
			C122.7,9.7,120.8,10.6,118.7,10.9 M125.1,8.1c0.5-0.5,1-0.9,1.6-1.2c0.6-0.2,1.7,0.3,2.1,0.6c1.4,0.6,2.3,1.9,2.4,3.4h-0.4
			C128.6,10.9,126.5,9.9,125.1,8.1 M121.5,10.9c0.3-0.4,2.7-1.2,3-2.1l2.9,2L121.5,10.9z"/>
		<path class="st0" d="M43.5,3.2C41.8,2.4,39.3,2,33.2,1.9c0.9,0.5,1.9,1,3,1.7l3,1.9l0.5,0.3l-1.1,0.7l-3-1.8
			c-1.6-1-3.3-1.9-5.1-2.8l-0.4-0.1v-1h0.6c9.2-0.1,11.9,0.5,14,1.7C44.3,2.7,43.9,2.9,43.5,3.2 M55.2,10.4
			c-0.9-0.5-1.9-1.1-2.9-1.6C51,8,49.7,7.2,48.6,6.5l1.1-0.7c1,0.6,2.1,1.3,3.2,2c1.7,1,3.3,1.9,4.7,2.6v1.3c-0.6,0-4.2,0.1-7.4,0
			c-1.4,0-2.9-0.3-4.2-0.8c-0.8-0.3-1.6-0.7-2.4-1.2h-0.1c0.3-0.2,0.6-0.3,0.8-0.5L44.7,9c0.5,0.3,1.1,0.6,1.7,0.8
			c1.3,0.4,2.6,0.7,3.9,0.7C52,10.4,53.8,10.4,55.2,10.4"/>
		<path class="st0" d="M35.9,8.7c-1,0.6-2,1.1-2.9,1.6c1.4,0,3.3,0,5,0c1.3,0,2.7-0.2,3.9-0.6c0.7-0.3,1.5-0.6,2.1-1.1l0.6-0.4
			c1.7-1.1,6-3.8,7.4-4.7c1.1-0.5,2.1-1,3-1.5c-9,0.1-10.1,0.9-12.5,2.6l-0.8,0.5C40.4,6.1,38.2,7.5,35.9,8.7 M30.3,10.4
			c1.5-0.7,3.3-1.7,5-2.7C37.5,6.4,39.7,5,41,4.1l0.8-0.5c2.8-2,4-2.9,15.6-2.8H58v1l-0.2,0.1c-1.8,0.8-3.5,1.8-5.1,2.8
			c-1.8,1.1-5.8,3.6-7.4,4.7l-0.6,0.4c-0.7,0.5-1.5,0.9-2.3,1.2c-1.4,0.5-2.8,0.7-4.3,0.7c-2.5,0.1-5.3,0-6.6,0H30v-1L30.3,10.4z"/>
		<path class="st0" d="M29.7,3.6v3.7l0.1,4.5h5.8h3.9h10.4h0.4c0.8,0,2.7-0.1,4.3-0.1c1.2,0,3.9,0.2,3.9-0.2V1.1
			c0-0.2-0.1-0.3-0.6-0.3c-4.2,0-10.4,0-15.4,0.1c-1.8,0-4.8,0-6.5,0c-1.4,0-1.6,0.1-3.2,0.1c-1,0-3.2-0.3-3.2,0.2v1.5L29.7,3.6z
			 M38.5,10.9l0.1-0.1h-7.8c-0.1-3,0-6,0-9h8.6l8.8-0.1l0,0H50h7.3c0.2,3.1,0.2,6.1,0,9.2H45.6L38.5,10.9z"/>
		<path class="st0" d="M201.8,3.6v3.7v4.5h3.1h2.1h5.7h0.2c0.4,0,1.4-0.1,2.3-0.1c0.6,0,2.1,0.2,2.1-0.2V1.1c0-0.2-0.1-0.3-0.3-0.3
			c-2.3,0-5.7,0-8.4,0.1c-1,0-2.6,0-3.5,0c-0.8,0-0.9,0.1-1.7,0.1c-0.6,0-1.7-0.3-1.7,0.2v1.5L201.8,3.6z M206.8,1.8l6-0.1v0.2
			c-1.3,0.1-2.4,1.5-3.2,2.1c-0.4-0.2-0.8-0.8-1.3-1.2C208,2.6,207,2,206.8,1.8 M210.2,4.8c0-0.6,2-1.8,2.6-2.1
			c0.5-0.3,1-0.5,1.6-0.7c0.3-0.1,1.9-0.2,2-0.3c0.3,1.4-1.3,3-2.3,3.6c-0.7,0.4-1.4,0.6-2.1,0.7C211.3,5.7,210.7,5.3,210.2,4.8
			 M202.6,1.8c2.6,0,5.3,1,6.5,2.9c-0.6,0.6-1.4,1.1-2.2,1.3C205.1,6,202.6,3.7,202.6,1.8 M216.6,5.3v1l-0.1,2.6h-0.1
			c-0.5-1.2-1.5-2-2.7-2.3V6.3c0.9-0.2,2.5-1.3,2.7-2.1h0.2L216.6,5.3z M202.6,8.7V4c0.8,0.6,1.5,1.9,2.7,2.2v0.2
			C204.2,6.8,202.9,8.6,202.6,8.7 M203.8,10.9h-1.1c0.1-1.1,0.7-2.1,1.5-2.8c0.4-0.3,0.8-0.7,1.2-0.9s1.3-0.3,1.7-0.5l2,1.4
			C207.8,9.6,205.8,10.6,203.8,10.9 M210.2,8.1c0.5-0.5,1-0.9,1.6-1.2c0.6-0.2,1.7,0.3,2.1,0.6c1.4,0.6,2.3,1.9,2.4,3.4H216
			C213.8,10.9,211.6,9.9,210.2,8.1 M206.6,10.9c0.3-0.4,2.7-1.2,3-2.1l2.9,2L206.6,10.9z"/>
		<path class="st0" d="M187,3.6v3.7v4.5h3.1h2.1h5.7h0.2c0.4,0,1.5-0.1,2.3-0.1c0.6,0,2.1,0.2,2.1-0.2V1.1c0-0.2-0.1-0.3-0.3-0.3
			c-2.3,0-5.6,0-8.4,0.1c-1,0-2.6,0-3.5,0c-0.8,0-0.9,0.1-1.7,0.1c-0.6,0-1.7-0.3-1.7,0.2v1.5L187,3.6z M192,1.8l6-0.1V2
			c-1.3,0.1-2.4,1.5-3.2,2.1c-0.4-0.2-0.8-0.8-1.3-1.2C193.2,2.6,192.1,2,192,1.8 M195.4,4.9c0-0.6,2-1.8,2.6-2.1
			c0.5-0.3,1-0.5,1.6-0.7c0.3-0.1,1.9-0.2,2-0.3c0.3,1.4-1.3,3-2.3,3.6c-0.7,0.4-1.4,0.6-2.1,0.7C196.5,5.7,195.9,5.4,195.4,4.9
			 M187.7,1.9c2.6,0,5.3,1,6.5,2.9c-0.6,0.6-1.4,1-2.2,1.2C190.3,6,187.8,3.6,187.7,1.9 M201.7,5.3l0.1,1l-0.1,2.6h-0.1
			c-0.5-1.2-1.5-2-2.7-2.3V6.3c0.9-0.2,2.5-1.3,2.7-2.1h0.2L201.7,5.3z M187.8,8.7V4c0.8,0.6,1.5,1.9,2.7,2.2v0.2
			C189.4,6.8,188.1,8.6,187.8,8.7 M189,10.9h-1.1c0.1-1.1,0.7-2.1,1.5-2.8c0.4-0.3,0.8-0.7,1.3-0.9s1.3-0.3,1.7-0.5l2,1.4
			C193,9.6,191.1,10.6,189,10.9 M195.4,8.1c0.5-0.5,1-0.9,1.6-1.2c0.6-0.2,1.7,0.3,2.1,0.6c1.4,0.6,2.3,1.9,2.4,3.4h-0.4
			C198.9,10.9,196.8,9.9,195.4,8.1 M191.8,10.9c0.3-0.4,2.7-1.2,3-2.1l2.9,2L191.8,10.9z"/>
		<path class="st0" d="M172.1,3.6v3.7v4.5h3.1h2.1h5.7h0.2c0.4,0,1.4-0.1,2.3-0.1c0.6,0,2.1,0.2,2.1-0.2V1.1c0-0.2-0.1-0.3-0.3-0.3
			c-2.3,0-5.6,0-8.4,0.1c-1,0-2.6,0-3.5,0c-0.8,0-0.9,0.1-1.7,0.1c-0.6,0-1.7-0.3-1.7,0.2v1.5L172.1,3.6z M177.2,1.8l6-0.1v0.2
			C181.9,2,180.8,3.4,180,4c-0.4-0.2-0.8-0.8-1.3-1.2C178.4,2.6,177.4,2,177.2,1.8 M180.6,4.8c0-0.6,2-1.8,2.6-2.1
			c0.5-0.3,1-0.5,1.6-0.7c0.3-0.1,1.9-0.2,2-0.3c0.3,1.4-1.3,3-2.3,3.6c-0.7,0.4-1.4,0.6-2.1,0.7C181.7,5.7,181.1,5.3,180.6,4.8
			 M173,1.8c2.6,0,5.3,1,6.5,2.9c-0.6,0.6-1.4,1.1-2.2,1.3C175.5,6,173,3.7,173,1.8 M187,5.3v1l-0.1,2.6h-0.1
			c-0.5-1.2-1.5-2.1-2.7-2.4V6.3c0.9-0.2,2.5-1.3,2.7-2.1h0.2L187,5.3z M173,8.7V4c0.8,0.6,1.5,1.9,2.7,2.2v0.2
			C174.6,6.7,173.3,8.6,173,8.7 M174.2,10.9h-1.1c0.1-1.1,0.7-2.1,1.5-2.8c0.4-0.3,0.8-0.7,1.2-0.9s1.3-0.3,1.7-0.5l2,1.4
			C178.2,9.6,176.3,10.6,174.2,10.9 M180.6,8.1c0.5-0.5,1-0.9,1.6-1.2c0.6-0.2,1.7,0.3,2.1,0.6c1.4,0.6,2.3,1.9,2.4,3.4h-0.4
			C184.1,10.9,182,9.9,180.6,8.1 M176.9,10.9c0.3-0.4,2.7-1.2,3-2.1l2.9,2L176.9,10.9z"/>
		<path class="st0" d="M273.9,3.6v3.7v4.5h3.1h2.1h5.7h0.2c0.4,0,1.5-0.1,2.3-0.1c0.6,0,2.1,0.2,2.1-0.2V1.1c0-0.2-0.1-0.3-0.3-0.3
			c-2.3,0-5.6,0-8.4,0.1c-1,0-2.6,0-3.5,0c-0.8,0-0.9,0.1-1.7,0.1c-0.6,0-1.7-0.3-1.7,0.2v1.5L273.9,3.6z M279,1.8l6-0.1V2
			c-1.3,0.1-2.4,1.5-3.2,2.1c-0.4-0.2-0.8-0.8-1.3-1.2C280.2,2.6,279.1,2,279,1.8 M282.4,4.9c0-0.6,2-1.8,2.6-2.1
			c0.5-0.3,1-0.5,1.6-0.7c0.3-0.1,1.9-0.2,2-0.3c0.3,1.4-1.3,3-2.3,3.6c-0.7,0.4-1.4,0.6-2.1,0.7C283.5,5.7,282.8,5.4,282.4,4.9
			 M274.7,1.9c2.6,0,5.3,1,6.5,2.9c-0.6,0.6-1.4,1-2.2,1.2C277.3,6,274.8,3.6,274.7,1.9 M288.7,5.3v1l-0.1,2.6h-0.1
			c-0.5-1.2-1.5-2-2.7-2.3V6.3c0.9-0.2,2.5-1.3,2.7-2.1h0.2V5.3z M274.7,8.7V4c0.8,0.6,1.5,1.9,2.7,2.2v0.2
			C276.3,6.8,275,8.6,274.7,8.7 M276,10.9h-1.1c0.1-1.1,0.7-2.1,1.5-2.8c0.4-0.3,0.8-0.7,1.3-0.9s1.3-0.3,1.7-0.5l2,1.4
			C280,9.6,278.1,10.6,276,10.9 M282.4,8.1c0.5-0.5,1-0.9,1.6-1.2c0.6-0.2,1.7,0.3,2.1,0.6c1.4,0.6,2.3,1.9,2.4,3.4h-0.4
			C285.9,10.9,283.8,9.9,282.4,8.1 M278.7,10.9c0.3-0.4,2.7-1.2,3-2.1l2.9,2L278.7,10.9z"/>
		<path class="st0" d="M216.6,3.6v3.7v4.5h3.1h2.1h5.7h0.2c0.4,0,1.4-0.1,2.3-0.1c0.6,0,2.1,0.2,2.1-0.2V1.1c0-0.2-0.1-0.3-0.3-0.3
			c-2.3,0-5.7,0-8.4,0.1c-1,0-2.6,0-3.5,0c-0.8,0-0.9,0.1-1.7,0.1c-0.6,0-1.7-0.3-1.7,0.2v1.5L216.6,3.6z M221.6,1.8l6-0.1v0.2
			c-1.3,0.1-2.4,1.5-3.2,2.1c-0.4-0.2-0.8-0.8-1.3-1.2C222.8,2.6,221.8,2,221.6,1.8 M225,4.8c0-0.6,2-1.8,2.6-2.1
			c0.5-0.3,1-0.5,1.6-0.7c0.3-0.1,1.9-0.2,2-0.3c0.3,1.4-1.3,3-2.3,3.6c-0.7,0.4-1.4,0.6-2.1,0.7C226.1,5.7,225.5,5.3,225,4.8
			 M217.4,1.8c2.6,0,5.3,1,6.5,2.9c-0.6,0.6-1.4,1.1-2.2,1.3C220,5.9,217.4,3.6,217.4,1.8 M231.4,5.3v1l-0.1,2.5h-0.1
			c-0.5-1.2-1.5-2-2.7-2.3V6.3c0.9-0.2,2.5-1.3,2.7-2.1h0.2L231.4,5.3z M217.4,8.7V4c0.8,0.6,1.5,1.9,2.7,2.2v0.2
			C219,6.7,217.7,8.6,217.4,8.7 M218.6,10.9h-1.1c0.1-1.1,0.7-2.1,1.5-2.8c0.4-0.3,0.8-0.7,1.2-0.9s1.3-0.3,1.7-0.5l2,1.4
			C222.6,9.6,220.6,10.6,218.6,10.9 M225,8.1c0.5-0.5,1-0.9,1.6-1.2c0.6-0.2,1.7,0.3,2.1,0.6c1.4,0.6,2.3,1.9,2.4,3.4h-0.4
			C228.5,10.9,226.4,9.9,225,8.1 M221.4,10.9c0.3-0.4,2.7-1.2,3-2.1l2.9,2L221.4,10.9z"/>
		<path class="st0" d="M288.7,3.6v3.7v4.5h3.1h2.1h5.7h0.2c0.4,0,1.5-0.1,2.3-0.1c0.6,0,2.1,0.2,2.1-0.2V1.1c0-0.2-0.1-0.3-0.3-0.3
			c-2.3,0-5.7,0-8.4,0.1c-1,0-2.6,0-3.5,0c-0.8,0-0.9,0.1-1.7,0.1c-0.5,0-1.7-0.3-1.7,0.2v1.5L288.7,3.6z M293.8,1.8l6-0.1v0.2
			c-1.3,0.1-2.4,1.5-3.2,2.1c-0.4-0.2-0.8-0.8-1.3-1.2C295,2.6,294,2,293.8,1.8 M297.2,4.8c0-0.6,2-1.8,2.6-2.1
			c0.5-0.3,1-0.5,1.6-0.7c0.3-0.1,1.9-0.2,2-0.3c0.3,1.4-1.3,3-2.3,3.6c-0.7,0.4-1.4,0.6-2.1,0.7C298.3,5.7,297.7,5.3,297.2,4.8
			 M289.5,1.8c2.6,0,5.3,1,6.5,2.9c-0.6,0.6-1.4,1.1-2.2,1.3C292.1,6,289.6,3.7,289.5,1.8 M303.5,5.3v1l-0.1,2.6h-0.1
			c-0.5-1.2-1.5-2-2.7-2.3V6.3c0.9-0.2,2.5-1.3,2.7-2.1h0.2V5.3z M289.5,8.7V4c0.8,0.6,1.5,1.9,2.7,2.2v0.2
			C291.1,6.8,289.9,8.6,289.5,8.7 M290.8,10.9h-1.1c0.1-1.1,0.7-2.1,1.5-2.8c0.4-0.3,0.8-0.7,1.3-0.9s1.3-0.3,1.7-0.5l2,1.4
			C294.7,9.6,292.8,10.6,290.8,10.9 M297.1,8.1c0.5-0.5,1-0.9,1.6-1.2c0.6-0.2,1.7,0.3,2.1,0.6c1.4,0.6,2.3,1.9,2.4,3.4h-0.4
			C300.7,10.9,298.5,9.9,297.1,8.1 M293.5,10.9c0.3-0.4,2.7-1.2,3-2.1l2.9,2L293.5,10.9z"/>
		<path class="st0" d="M231.4,3.6v3.7v4.5h3.1h2.1h5.7h0.2c0.4,0,1.4-0.1,2.3-0.1c0.6,0,2.1,0.2,2.1-0.2V1.1c0-0.2-0.1-0.3-0.3-0.3
			c-2.3,0-5.7,0-8.4,0.1c-1,0-2.6,0-3.5,0C234,0.8,233.9,1,233,1c-0.6,0-1.7-0.3-1.7,0.2v1.5L231.4,3.6z M236.5,1.8l6-0.1v0.2
			c-1.3,0.1-2.4,1.5-3.2,2.1c-0.4-0.2-0.8-0.8-1.3-1.2C237.6,2.6,236.6,2,236.5,1.8 M239.8,4.8c0-0.6,2-1.8,2.6-2.1
			c0.5-0.3,1-0.5,1.6-0.7c0.3-0.1,1.9-0.2,2-0.3c0.3,1.4-1.3,3-2.3,3.6c-0.7,0.4-1.4,0.6-2.1,0.7C240.9,5.7,240.3,5.3,239.8,4.8
			 M232.2,1.8c2.6,0,5.3,1,6.5,2.9c-0.6,0.6-1.4,1.1-2.2,1.3C234.8,6,232.2,3.7,232.2,1.8 M246.2,5.3v1l-0.1,2.6H246
			c-0.5-1.2-1.5-2-2.7-2.3V6.3c0.9-0.2,2.5-1.3,2.7-2.1h0.2V5.3z M232.2,8.7V4c0.8,0.6,1.5,1.9,2.7,2.2v0.2
			C233.8,6.8,232.5,8.6,232.2,8.7 M233.4,10.9h-1.1c0.1-1.1,0.7-2.1,1.5-2.8c0.4-0.3,0.8-0.7,1.2-0.9s1.3-0.3,1.7-0.5l2,1.4
			C237.4,9.6,235.5,10.6,233.4,10.9 M239.8,8.1c0.5-0.5,1-0.9,1.6-1.2c0.6-0.2,1.7,0.3,2.1,0.6c1.4,0.6,2.3,1.9,2.4,3.4h-0.4
			C243.3,10.9,241.2,9.9,239.8,8.1 M236.2,10.9c0.3-0.4,2.7-1.2,3-2.1l2.9,2L236.2,10.9z"/>
		<path class="st0" d="M260,3.2c-1.7-0.8-4.2-1.2-10.3-1.2c0.9,0.5,1.9,1,2.9,1.7l3,1.9l0.5,0.3c-0.3,0.2-0.7,0.5-1.1,0.7l-3-1.8
			c-2.5-1.6-5.1-2.8-5.1-2.8l-0.4-0.1v-1h0.6c9.2-0.1,11.9,0.5,14,1.7C260.8,2.7,260.4,2.9,260,3.2 M271.7,10.4
			c-1-0.5-1.9-1.1-2.9-1.6c-1.3-0.8-2.6-1.6-3.7-2.3l1.1-0.7c1,0.6,2.1,1.3,3.2,2c1.7,1,3.4,1.9,4.7,2.5v1.3c-0.6,0-4.2,0.1-7.4,0
			c-1.5,0-2.9-0.3-4.3-0.7c-0.8-0.3-1.6-0.7-2.4-1.2l0,0c0.3-0.2,0.6-0.3,0.8-0.5l0.3-0.2c0.5,0.3,1.1,0.6,1.6,0.8
			c1.3,0.4,2.6,0.7,3.9,0.7C268.4,10.5,270.3,10.5,271.7,10.4"/>
		<path class="st0" d="M252.4,8.7c-1,0.6-2,1.1-2.9,1.6c1.4,0,3.3,0,5,0c1.3,0,2.7-0.2,3.9-0.6c0.7-0.3,1.5-0.6,2.1-1.1l0.6-0.4
			c1.7-1.1,6-3.8,7.4-4.7c1-0.6,2.1-1.2,2.9-1.7c-9,0.1-10.1,0.9-12.5,2.6l-0.8,0.5C256.8,6.1,254.6,7.5,252.4,8.7 M246.8,10.5
			c1.4-0.7,3.2-1.7,5-2.7c2.2-1.3,4.4-2.7,5.7-3.6l0.7-0.5c2.8-2,4.1-2.9,15.7-2.9h0.5v1l-0.2,0.1c-1.7,0.8-3.4,1.8-5.1,2.8
			c-1.8,1.1-5.8,3.6-7.4,4.7l-0.6,0.4c-0.7,0.5-1.5,0.9-2.4,1.2c-1.4,0.5-2.8,0.7-4.3,0.7c-2.5,0.1-5.3,0-6.6,0h-1.4v-1L246.8,10.5z
			"/>
		<path class="st0" d="M246.2,3.6v3.7l0.1,4.5h5.8h3.9h10.4h0.4c0.8,0,2.7-0.1,4.3-0.1c1.2,0,3.9,0.2,3.9-0.2V1.1
			c0-0.2-0.1-0.3-0.5-0.3c-4.2,0-10.4,0-15.5,0.1c-1.8,0-4.8,0-6.5,0c-1.4,0-1.6,0.1-3.2,0.1c-1,0-3.2-0.3-3.2,0.2v1.5L246.2,3.6z
			 M255,10.9l0.1-0.1h-7.8c-0.1-3,0-6,0-9h8.6l8.8-0.1l0,0h1.7h7.3c0.2,3.1,0.2,6.1,0,9.2H262L255,10.9z"/>
	</g>
</g>
</svg>
