<?xml version="1.0" encoding="utf-8"?>
<!-- Generator: Adobe Illustrator 22.0.0, SVG Export Plug-In . SVG Version: 6.00 Build 0)  -->
<svg version="1.1" id="Layer_1" xmlns="http://www.w3.org/2000/svg" xmlns:xlink="http://www.w3.org/1999/xlink" x="0px" y="0px"
	 viewBox="0 0 31 32.1" style="enable-background:new 0 0 31 32.1;" xml:space="preserve">
<style type="text/css">
	.st0{fill:#7F6841;}
</style>
<g id="Layer_2_1_">
	<g id="Layer_1-2">
		<path class="st0" d="M10.4,16H6.8H2.4v3.2v2.2v5.9v0.2c0,0.4,0.1,1.5,0.1,2.4c0,0.7-0.2,2.2,0.2,2.2h10.1c0.2,0,0.3-0.1,0.3-0.3
			c0-2.4,0-5.8-0.1-8.7c0-1,0-2.7,0-3.6c0-0.8-0.1-0.9-0.1-1.8c0-0.6,0.3-1.8-0.2-1.8h-1.4L10.4,16z M12.1,21.2l0.1,6.2H12
			c-0.1-1.3-1.5-2.5-2.1-3.3c0.2-0.4,0.8-0.8,1.2-1.3C11.4,22.4,11.9,21.4,12.1,21.2 M9.2,24.7c0.5,0,1.8,2.1,2,2.6
			c0.3,0.5,0.5,1.1,0.7,1.7c0.1,0.4,0.2,1.9,0.3,2.1c-1.3,0.3-2.9-1.4-3.4-2.4c-0.4-0.7-0.6-1.4-0.6-2.2C8.4,25.9,8.8,25.3,9.2,24.7
			 M12.1,16.9c0,2.7-1,5.5-2.8,6.7c-0.6-0.6-1.1-1.4-1.2-2.3C8.1,19.6,10.3,16.9,12.1,16.9 M8.7,31.2H7.8H5.3v-0.1
			c1.1-0.5,2-1.6,2.3-2.8h0.2c0.2,0.9,1.2,2.6,2,2.8v0.2L8.7,31.2z M5.4,16.9h4.5c-0.6,0.8-1.9,1.5-2.2,2.8H7.6
			C7.3,18.5,5.6,17.2,5.4,16.9 M3.4,18.1V17c1,0.1,2,0.7,2.6,1.5c0.3,0.4,0.6,0.9,0.9,1.3s0.3,1.3,0.5,1.8l-1.4,2
			C4.5,22.2,3.5,20.2,3.4,18.1 M6,24.7c0.4,0.5,0.8,1.1,1.2,1.7c0.2,0.6-0.3,1.7-0.5,2.2c-0.6,1.4-1.8,2.3-3.3,2.5v-0.4
			C3.3,28.4,4.5,25.8,6,24.7 M3.3,20.9c0.3,0.3,1.2,2.8,2.1,3.1l-2,3L3.3,20.9z"/>
		<path class="st0" d="M0,0.2c0,3,0.2,5.6,0.2,8.6v4.3c0,2.1-0.5,2.9,1,2.9H6h0.7h1.6l1-0.1h0.9h1.9h3.3V5.1L15.3,2V0h-1L1.8,0.2
			L1.5,0.3L0.6,0.2H0z M5.5,1.4h1h0.4l1.3,0.1h0.6l1-0.2v0.3c-1,0.6-1.7,1.5-2,2.5L5.5,1.4z M7.1,5.7L5.6,7.4
			c-1.5-0.8-1.8-0.6-2.9-2C2.3,4.9,1,2.5,1.4,1.8c0.5-0.9,3.4,0.7,3.7,0.9C6,3.4,6.7,4.5,7.1,5.7 M10,7.4C9.4,7,8.8,6.4,8.3,5.8
			c0.4-2,2.8-4.5,5.2-4.5h0.6c0.1,1.4-0.4,2.7-1.2,3.9C12.5,5.8,10.7,7.4,10,7.4 M11.6,7.8l2.5-2.1v4.4L11.6,7.8z M1.4,10.5
			c0.1-0.4,0.2-0.4,0.1-0.8L1.3,8.2V5.5L4,8.2L3.9,8L1.4,10.5z M8.5,10.5c0.2-0.3,1.4-1.8,1.8-1.8h0.1c1.6,0,3.9,3.2,3.9,5.4
			c0,1.3-3-0.1-3.5-0.5C9.7,12.8,8.9,11.7,8.5,10.5 M1.5,14.8l-0.1-0.5c0.4-1.9,0.2-2.3,1.4-3.6c0.8-0.9,1.8-1.6,2.9-2.1
			c0.2,0.3,1.5,1.6,1.5,1.7c-0.2,1.3-0.8,2.4-1.9,3.1C3.5,14.8,3.6,14.3,1.5,14.8 M7.8,12.2l2.4,2.5H5.5L7.8,12.2z"/>
		<path class="st0" d="M15.4,4.9v3.7v4.5h3.1h2.1h5.7h0.2c0.4,0,1.5-0.1,2.3-0.1c0.6,0,2.1,0.2,2.1-0.2V2.4C31,2.1,31,2,30.7,2
			c-2.3,0-5.6,0-8.4,0.1c-1,0-2.6,0-3.5,0c-0.8,0-0.9,0.1-1.7,0.1c-0.6,0-1.7-0.3-1.7,0.2V4L15.4,4.9z M20.5,3.1l6-0.1v0.2
			c-1.3,0.1-2.4,1.5-3.2,2.1c-0.4-0.2-0.8-0.8-1.3-1.2C21.6,3.9,20.6,3.3,20.5,3.1 M23.9,6.1c0-0.6,2-1.8,2.5-2.1s1-0.5,1.6-0.7
			c0.3-0.1,1.9-0.2,2-0.3c0.3,1.4-1.3,3-2.3,3.6C27,7,26.3,7.2,25.6,7.3C25,7,24.4,6.6,23.9,6.1 M16.2,3.1c2.6,0,5.3,1,6.5,2.9
			c-0.6,0.6-1.4,1.1-2.2,1.3C18.8,7.3,16.3,4.9,16.2,3.1 M30.2,6.6v1l-0.1,2.6H30c-0.5-1.2-1.5-2.1-2.7-2.4V7.6
			c0.9-0.2,2.5-1.3,2.7-2.1h0.2V6.6z M16.2,10V5.3c0.8,0.6,1.5,2,2.8,2.3v0.2C17.9,8.1,16.6,9.9,16.2,10 M17.5,12.2h-1.1
			c0.1-1.1,0.7-2.1,1.5-2.8c0.4-0.3,0.8-0.7,1.3-0.9s1.3-0.3,1.7-0.5l2,1.4C21.4,10.9,19.5,11.9,17.5,12.2 M23.9,9.4
			c0.5-0.5,1-0.9,1.6-1.2C26,8,27.1,8.5,27.6,8.8c1.3,0.6,2.3,1.9,2.4,3.4h-0.4C27.4,12.2,25.2,11.1,23.9,9.4 M20.2,12.2
			c0.3-0.4,2.7-1.2,3-2.1l2.9,2L20.2,12.2z"/>
	</g>
</g>
</svg>
