<?xml version="1.0" encoding="utf-8"?>
<!-- Generator: Adobe Illustrator 22.0.0, SVG Export Plug-In . SVG Version: 6.00 Build 0)  -->
<svg version="1.1" id="Layer_1" xmlns="http://www.w3.org/2000/svg" xmlns:xlink="http://www.w3.org/1999/xlink" x="0px" y="0px"
	 viewBox="0 0 31 32.1" style="enable-background:new 0 0 31 32.1;" xml:space="preserve">
<style type="text/css">
	.st0{fill:#7F6841;}
</style>
<g id="Layer_2_1_">
	<g id="Layer_1-2">
		<path class="st0" d="M11.3,16.2h1.4c0.5,0,0.2-1.2,0.2-1.8c0-0.9,0.1-1,0.1-1.8c0-1,0-2.6,0-3.6c0.1-2.9,0.1-6.3,0.1-8.7
			C13.1,0.1,13,0,12.8,0H2.7C2.3,0,2.5,1.5,2.5,2.2c0,0.9-0.1,2-0.1,2.4v0.2v5.9v2.2v3.2h4.3h3.6L11.3,16.2z M12.1,10.9
			c-0.2-0.1-0.7-1.2-1-1.5c-0.4-0.5-0.9-1-1.2-1.4c0.6-0.9,1.9-2,2.1-3.3h0.2L12.1,10.9 M9.2,7.4C8.8,6.9,8.4,6.2,8.1,5.6
			c0.1-0.8,0.3-1.5,0.6-2.2c0.5-1,2.1-2.6,3.4-2.3c-0.1,0.2-0.2,1.8-0.3,2.1c-0.1,0.6-0.4,1.1-0.6,1.6C11,5.3,9.8,7.4,9.2,7.4
			 M12.1,15.3c-1.8,0-4-2.7-4-4.4C8.3,10,8.7,9.2,9.3,8.6C11.1,9.8,12.1,12.6,12.1,15.3 M9.8,0.9V1C9,1.3,8,3,7.8,3.9H7.6
			C7.3,2.6,6.5,1.6,5.3,1V0.9l2.5-0.1l0.9,0.1H9.8z M5.4,15.3c0.1-0.3,1.9-1.6,2.2-2.8h0.2c0.3,1.3,1.6,2,2.2,2.8H5.4 M3.4,14
			c0.2-2.1,1.1-4,2.6-5.5l1.4,2.1c-0.2,0.4-0.2,1.2-0.5,1.8S6.3,13.2,6,13.6c-0.6,0.9-1.6,1.4-2.7,1.6L3.4,14 M6,7.4
			c-1.5-1-2.7-3.7-2.7-6V1C4.8,1.2,6,2.1,6.6,3.5C6.8,4,7.4,5.2,7.1,5.8C6.8,6.4,6.5,6.9,6,7.4 M3.4,5.1l2,3
			c-0.9,0.3-1.7,2.8-2.1,3.1L3.4,5.1z"/>
		<path class="st0" d="M0.6,32l0.9-0.2l0.3,0.1l12.5,0.2h1v-2l0.2-3.2V16.3h-3.3h-1.9H9.4l-1-0.1H6.7H6H1.2c-1.5,0-1,0.9-1,2.9v4.3
			C0.2,26.4,0,29,0,32H0.6z M7.8,28c0.4,1.1,1.2,1.9,2.2,2.4v0.3l-1-0.1H8.4L7,30.7H6.6h-1L7.8,28z M7.1,26.5
			C6.7,27.7,6,28.8,5,29.6c-0.2,0.2-3.2,1.8-3.7,0.9c-0.4-0.8,1-3.2,1.3-3.6c1.2-1.4,1.4-1.3,2.9-2L7.1,26.5 M10,24.7
			c0.8,0,2.6,1.6,3,2.1c0.8,1.1,1.2,2.5,1.2,3.9h-0.6c-2.4,0-4.8-2.5-5.2-4.5C8.8,25.7,9.4,25.2,10,24.7 M14.1,22v4.4l-2.4-2.1
			L14.1,22z M3.9,24.1L4,23.9l-2.7,2.6V24l0.1-1.5c0-0.4-0.1-0.4-0.1-0.8L3.9,24.1z M8.5,21.6c0.4-1.2,1.2-2.3,2.3-3
			c0.5-0.4,3.5-1.8,3.5-0.5c0,2.2-2.2,5.4-3.9,5.4h-0.1C9.8,23.5,8.7,22,8.5,21.6 M1.5,17.4c2.1,0.5,2,0,3.8,1.3
			c1,0.7,1.7,1.9,1.9,3.1c0,0.1-1.3,1.4-1.5,1.7c-1.1-0.4-2.1-1.1-2.9-2.1c-1.2-1.3-1-1.8-1.4-3.6L1.5,17.4 M5.5,17.5h4.7L7.9,20
			L5.5,17.5z"/>
		<path class="st0" d="M15.3,28.1v1.5c0,0.5,1.2,0.2,1.7,0.2c0.8,0,1,0.1,1.7,0.1c0.9,0,2.6,0,3.5,0c2.8,0,6.1,0.1,8.4,0.1
			c0.2,0,0.3-0.1,0.3-0.3V19.3c0-0.4-1.5-0.2-2.1-0.2C28,19.1,27,19,26.6,19h-0.2h-5.7h-2.1h-3.1v4.5v3.7L15.3,28.1z M20.5,29
			c0.1-0.2,1.1-0.8,1.5-1c0.5-0.4,0.9-1,1.3-1.2c0.9,0.6,1.9,2,3.2,2.1v0.2L20.5,29 M23.8,26c0.5-0.5,1.1-0.9,1.8-1.1
			c0.7,0.1,1.5,0.3,2.1,0.6c1,0.5,2.6,2.2,2.3,3.6c-0.2-0.1-1.7-0.2-2-0.3c-0.6-0.2-1.1-0.4-1.6-0.7C25.9,27.8,23.9,26.6,23.8,26
			 M16.3,29c0-1.8,2.6-4.1,4.3-4.1c0.9,0.2,1.6,0.6,2.2,1.3C21.5,28,18.9,29,16.3,29 M30.2,26.7H30c-0.2-0.8-1.9-1.9-2.7-2.1v-0.2
			c1.2-0.3,2.2-1.2,2.7-2.3h0.1l0.1,2.6v1V26.7z M16.2,22.1c0.3,0.1,1.6,2,2.7,2.2v0.2c-1.2,0.3-2,1.6-2.7,2.2V22.1 M17.5,19.9
			c2.1,0.2,4,1.2,5.4,2.8l-2,1.4c-0.4-0.2-1.2-0.2-1.7-0.5s-0.9-0.6-1.3-0.9C17,22,16.5,21,16.3,19.9H17.5 M23.9,22.7
			c1.4-1.8,3.5-2.8,5.8-2.8H30c-0.1,1.5-1.1,2.8-2.4,3.4c-0.5,0.2-1.6,0.8-2.1,0.6C24.8,23.6,24.3,23.2,23.9,22.7 M26.1,20l-2.9,2
			c-0.2-0.9-2.7-1.8-3-2.1L26.1,20z"/>
	</g>
</g>
</svg>
