<?xml version="1.0" encoding="utf-8"?>
<!-- Generator: Adobe Illustrator 22.0.0, SVG Export Plug-In . SVG Version: 6.00 Build 0)  -->
<svg version="1.1" id="Layer_1" xmlns="http://www.w3.org/2000/svg" xmlns:xlink="http://www.w3.org/1999/xlink" x="0px" y="0px"
	 viewBox="0 0 31 32.1" style="enable-background:new 0 0 31 32.1;" xml:space="preserve">
<style type="text/css">
	.st0{fill:#7F6841;}
</style>
<g id="Layer_2_1_">
	<g id="Layer_1-2">
		<path class="st0" d="M19.8,15.9h-1.4c-0.5,0-0.2,1.2-0.2,1.8c0,0.9-0.1,1-0.1,1.8c0,1,0,2.6,0,3.6c0,2.9-0.1,6.3-0.1,8.7
			c0,0.3,0.1,0.3,0.3,0.3h10.1c0.4,0,0.2-1.5,0.2-2.2c0-0.9,0.1-2,0.1-2.4v-0.2v-5.9v-2.2V16h-4.3h-3.6L19.8,15.9z M19,21.2
			c0.2,0.1,0.7,1.2,1,1.5c0.4,0.5,0.9,1,1.2,1.3c-0.6,0.9-2,2-2.1,3.3h-0.2L19,21.2 M21.9,24.7c0.5,0.6,0.8,1.2,1.1,1.8
			c-0.1,0.8-0.3,1.5-0.6,2.2c-0.5,1-2.1,2.6-3.4,2.4c0.1-0.2,0.2-1.8,0.3-2.1c0.1-0.6,0.4-1.1,0.6-1.6
			C20.2,26.8,21.4,24.7,21.9,24.7 M19,16.9c1.8,0,4,2.7,4,4.4c-0.2,0.9-0.6,1.7-1.2,2.3C20,22.3,19,19.5,19,16.9 M21.2,31.2V31
			c0.8-0.2,1.9-1.9,2.1-2.8h0.2c0.3,1.2,1.1,2.3,2.3,2.8v0.1l-2.5,0.1h-0.9H21.2z M25.7,16.8c-0.1,0.3-1.9,1.6-2.2,2.8h-0.2
			c-0.3-1.3-1.6-2-2.2-2.8H25.7 M27.7,18.1c-0.2,2.1-1.2,4.1-2.7,5.5l-1.4-2.1c0.2-0.4,0.2-1.2,0.5-1.8s0.6-0.9,0.9-1.3
			c0.7-0.8,1.6-1.4,2.7-1.5V18.1 M25,24.7c1.5,1.1,2.7,3.7,2.7,6v0.4c-1.5-0.2-2.7-1.1-3.3-2.5c-0.2-0.5-0.8-1.6-0.5-2.2
			S24.6,25.2,25,24.7 M27.7,27l-2-3c0.9-0.3,1.7-2.8,2.1-3.1L27.7,27z"/>
		<path class="st0" d="M30.5,0.2l-0.9,0.2l-0.3-0.1L16.8,0h-1v2l-0.2,3.1v10.8h3.3h1.9h0.9l1,0.1h1.6h0.8h4.8c1.5,0,1-0.9,1-2.9V8.8
			c0-3.1,0.1-5.7,0.1-8.6L30.5,0.2z M23.2,4.2c-0.4-1.1-1.1-1.9-2.1-2.5V1.4l1,0.2h0.6L24,1.4h0.4h1L23.2,4.2z M23.9,5.7
			c0.4-1.2,1.1-2.2,2.1-3c0.2-0.2,3.2-1.8,3.7-0.9c0.4,0.8-1,3.2-1.3,3.6c-1.1,1.4-1.4,1.3-2.9,2L23.9,5.7 M21.1,7.4
			c-0.8,0-2.6-1.6-3-2.2c-0.8-1.1-1.2-2.5-1.2-3.9h0.6c2.4,0,4.8,2.5,5.2,4.5C22.2,6.4,21.7,7,21.1,7.4 M16.9,10.1V5.7l2.4,2.1
			L16.9,10.1z M27.2,8l-0.1,0.2l2.6-2.6v2.6l-0.1,1.5c0,0.4,0.1,0.4,0.1,0.8L27.2,8z M22.6,10.4c-0.4,1.2-1.2,2.3-2.3,3
			c-0.5,0.4-3.5,1.8-3.5,0.5c0-2.2,2.3-5.4,3.9-5.4h0.1C21.2,8.6,22.4,10.1,22.6,10.4 M29.6,14.7c-2.1-0.5-2,0-3.8-1.3
			c-1-0.7-1.7-1.9-1.9-3.1c0-0.1,1.3-1.4,1.5-1.7c1.1,0.4,2.1,1.1,2.9,2.1c1.2,1.3,1,1.8,1.4,3.6L29.6,14.7 M25.6,14.6h-4.7l2.4-2.5
			L25.6,14.6z"/>
		<path class="st0" d="M15.7,4V2.5c0-0.5-1.2-0.2-1.7-0.2c-0.8,0-1-0.1-1.7-0.1c-0.9,0-2.6,0-3.5,0C6,2.1,2.6,2,0.3,2
			C0.1,2,0,2.1,0,2.4v10.4C0,13.2,1.5,13,2.1,13C3,13,4,13.1,4.5,13.1h0.2h5.7h2.1h3.1V8.7V4.9L15.7,4z M10.5,3.2
			C10.4,3.4,9.4,4,9,4.2c-0.5,0.4-0.9,1-1.3,1.2c-0.9-0.6-2-2-3.2-2.1V3L10.5,3.2 M7.2,6.1C6.7,6.6,6.1,7,5.4,7.2
			c-0.7,0-1.5-0.3-2.1-0.6C2.3,6,0.7,4.4,1,3c0.2,0.1,1.7,0.2,2,0.3C3.6,3.5,4.1,3.7,4.7,4C5.2,4.3,7.2,5.5,7.2,6.1 M14.8,3.1
			c0,1.9-2.6,4.2-4.3,4.2C9.7,7.1,8.9,6.6,8.3,6C9.5,4.1,12.2,3.1,14.8,3.1 M0.9,5.5H1c0.2,0.8,1.9,1.9,2.7,2.1v0.2
			C2.5,8.1,1.5,9,1,10.1H0.9L0.8,7.6v-1L0.9,5.5z M14.8,10c-0.3-0.1-1.6-2-2.7-2.2V7.6c1.3-0.3,2-1.7,2.7-2.2V10 M13.6,12.1
			c-2.1-0.2-4-1.2-5.4-2.7l2-1.4c0.4,0.2,1.2,0.2,1.7,0.5s0.9,0.6,1.2,0.9c0.8,0.7,1.4,1.7,1.5,2.8L13.6,12.1 M7.2,9.4
			c-1.4,1.8-3.5,2.8-5.8,2.8H1c0.1-1.5,1.1-2.8,2.5-3.4C3.9,8.5,5,8,5.6,8.2C6.2,8.5,6.7,8.9,7.2,9.4 M5,12.1l2.9-2
			c0.3,0.9,2.7,1.8,3,2.1L5,12.1z"/>
	</g>
</g>
</svg>
