<?xml version="1.0" encoding="utf-8"?>
<!-- Generator: Adobe Illustrator 22.0.0, SVG Export Plug-In . SVG Version: 6.00 Build 0)  -->
<svg version="1.1" id="Layer_1" xmlns="http://www.w3.org/2000/svg" xmlns:xlink="http://www.w3.org/1999/xlink" x="0px" y="0px"
	 viewBox="0 0 31 32.1" style="enable-background:new 0 0 31 32.1;" xml:space="preserve">
<style type="text/css">
	.st0{fill:#7F6841;}
</style>
<g id="Layer_2_1_">
	<g id="Layer_1-2">
		<path class="st0" d="M20.7,16.1h3.6h4.3v-3.3v-2.2V4.8V4.6c0-0.4-0.1-1.5-0.1-2.4c0-0.7,0.2-2.2-0.2-2.2H18.2
			c-0.2,0-0.3,0.1-0.3,0.3c0,2.4,0,5.8,0.1,8.7c0,1,0,2.7,0,3.7c0,0.8,0.1,0.9,0.1,1.8c0,0.6-0.3,1.8,0.2,1.8h1.4L20.7,16.1z
			 M19,10.9l-0.1-6.2h0.2C19.2,6,20.6,7.1,21.2,8C21,8.4,20.4,8.8,20,9.3C19.7,9.7,19.2,10.8,19,10.9 M21.9,7.4
			c-0.5,0-1.8-2.1-2-2.6c-0.3-0.5-0.5-1.1-0.6-1.6c-0.1-0.3-0.2-1.9-0.3-2.1c1.3-0.3,2.9,1.4,3.4,2.3C22.8,4.1,23,4.8,23,5.6
			C22.7,6.2,22.4,6.9,21.9,7.4 M19,15.3c0-2.7,1-5.5,2.8-6.7c0.6,0.6,1.1,1.4,1.2,2.3C23,12.6,20.8,15.2,19,15.3 M22.3,0.9l0.9-0.1
			l2.5,0.1V1c-1.1,0.5-2,1.6-2.3,2.8h-0.2C23.1,3,22,1.3,21.2,1V0.9H22.3z M25.6,15.3h-4.5c0.6-0.8,1.9-1.5,2.2-2.8h0.2
			C23.7,13.6,25.5,14.9,25.6,15.3 M27.7,14v1.1c-1.1-0.1-2-0.7-2.7-1.5c-0.3-0.4-0.6-0.9-0.9-1.3s-0.3-1.3-0.5-1.8l1.4-2
			C26.5,9.9,27.5,11.9,27.7,14 M25,7.4c-0.4-0.5-0.8-1.1-1.1-1.7c-0.2-0.6,0.3-1.7,0.5-2.2C25,2.1,26.2,1.2,27.7,1v0.4
			C27.7,3.7,26.6,6.4,25,7.4 M27.7,11.2c-0.3-0.3-1.1-2.8-2.1-3.1l2-3L27.7,11.2z"/>
		<path class="st0" d="M31,32c0-2.9-0.1-5.5-0.1-8.6V19c0-2.1,0.5-2.9-1-2.9h-4.7h-0.8h-1.6l-1,0.1h-0.9H19h-3.3V27l0.1,3.1v2h1
			l12.5-0.2l0.3-0.1l0.9,0.2L31,32z M25.5,30.8h-1h-0.4l-1.3-0.1h-0.6l-1,0.1v-0.3c1-0.5,1.7-1.4,2.1-2.5L25.5,30.8z M23.9,26.5
			l1.5-1.7c1.6,0.8,1.8,0.6,2.9,2c0.4,0.4,1.7,2.8,1.3,3.6c-0.5,0.9-3.4-0.7-3.7-0.9C25,28.7,24.3,27.6,23.9,26.5 M21.1,24.7
			c0.6,0.4,1.2,0.9,1.6,1.5c-0.5,2-2.8,4.5-5.2,4.5h-0.6c-0.1-1.4,0.4-2.7,1.2-3.9C18.5,26.3,20.3,24.7,21.1,24.7 M19.4,24.4l-2.4,2
			V22L19.4,24.4z M29.7,21.6c-0.1,0.4-0.2,0.4-0.1,0.8l0.1,1.6v2.6L27.1,24l0.1,0.2L29.7,21.6z M22.6,21.6c-0.2,0.3-1.4,1.9-1.8,1.9
			h-0.1c-1.6,0-3.9-3.2-3.9-5.4c0-1.2,3,0.1,3.5,0.5C21.4,19.3,22.2,20.4,22.6,21.6 M29.6,17.3l0.1,0.5c-0.4,1.9-0.2,2.3-1.4,3.6
			c-0.8,1-1.8,1.7-3,2.1c-0.2-0.3-1.5-1.6-1.5-1.7c0.2-1.3,0.8-2.4,1.9-3.1C27.5,17.4,27.4,17.9,29.6,17.3 M23.2,20l-2.4-2.5h4.7
			L23.2,20z"/>
		<path class="st0" d="M15.6,27.2v-3.7V19h-3.2h-2.1H4.7H4.5C4,19,3,19.1,2.1,19.1c-0.6,0-2.1-0.2-2.1,0.2v10.4
			C0,29.9,0.1,30,0.3,30c2.3,0.1,5.7,0,8.4,0c1,0,2.6,0,3.5,0c0.8,0,0.9-0.1,1.7-0.1c0.6,0,1.7,0.3,1.7-0.2v-1.5L15.6,27.2z
			 M10.5,29l-6,0.1v-0.2c1.3-0.1,2.4-1.5,3.2-2.1C8.1,27,8.6,27.6,9.1,28C9.4,28.2,10.4,28.8,10.5,29 M7.2,26c0,0.6-2,1.8-2.6,2.1
			c-0.5,0.3-1,0.5-1.6,0.7c-0.3,0.1-1.9,0.2-2,0.3c-0.3-1.4,1.3-3,2.3-3.6c0.7-0.4,1.4-0.6,2.1-0.6C6.1,25.1,6.7,25.5,7.2,26
			 M14.8,29c-2.6,0-5.3-1-6.5-2.9c0.6-0.6,1.4-1.1,2.2-1.3C12.2,24.9,14.7,27.2,14.8,29 M0.9,25.5v-1V22H1c0.5,1.2,1.5,2,2.7,2.3
			v0.2c-0.9,0.2-2.5,1.3-2.7,2.1H0.9V25.5z M14.9,22.1v4.7c-0.8-0.6-1.5-1.9-2.7-2.2v-0.2C13.3,24,14.5,22.2,14.9,22.1 M13.6,19.9
			h1.1C14.6,21,14,22,13.2,22.7c-0.4,0.3-0.8,0.7-1.2,0.9s-1.3,0.3-1.7,0.5l-2-1.4C9.6,21.2,11.5,20.2,13.6,19.9 M7.2,22.7
			c-0.5,0.5-1,0.9-1.6,1.2c-0.6,0.2-1.7-0.3-2.1-0.6c-1.4-0.6-2.3-1.9-2.4-3.4h0.4C3.7,19.9,5.8,21,7.2,22.7 M10.9,19.9
			c-0.3,0.4-2.7,1.2-3,2.1L5,20L10.9,19.9z"/>
	</g>
</g>
</svg>
