<?xml version="1.0" encoding="utf-8"?>
<!-- Generator: Adobe Illustrator 22.0.0, SVG Export Plug-In . SVG Version: 6.00 Build 0)  -->
<svg version="1.1" id="Layer_1" xmlns="http://www.w3.org/2000/svg" xmlns:xlink="http://www.w3.org/1999/xlink" x="0px" y="0px"
	 preserveAspectRatio="none" viewBox="0 0 12.6 155.9" style="enable-background:new 0 0 12.6 155.9;" xml:space="preserve">
<style type="text/css">
	.st0{fill:#7F6841;}
</style>
<g id="Layer_2_1_">
	<g id="Layer_1-2">
		<path class="st0" d="M8.8,32.3H5.3H1v3.2v2.2v5.9v0.2c0,0.4,0.1,1.5,0.1,2.4c0,0.7-0.2,2.2,0.2,2.2h10.1c0.2,0,0.3-0.1,0.3-0.3
			c0-2.4,0-5.8-0.1-8.7c0-1,0-2.7,0-3.7c0-0.8-0.1-0.9-0.1-1.8c0-0.6,0.3-1.8-0.2-1.8H9.8L8.8,32.3z M10.6,37.5l0.1,6.2h-0.2
			c-0.1-1.3-1.5-2.5-2.1-3.3C8.7,40,9.2,39.5,9.6,39C9.9,38.7,10.4,37.7,10.6,37.5 M7.7,41c0.5,0,1.8,2.1,2,2.6
			c0.3,0.5,0.5,1.1,0.6,1.7c0.1,0.3,0.2,1.9,0.3,2.1C9.4,47.7,7.8,46,7.3,45c-0.4-0.7-0.6-1.4-0.6-2.2C6.9,42.2,7.3,41.5,7.7,41
			 M10.6,33.2c0,2.7-1,5.5-2.8,6.7c-0.6-0.6-1.1-1.4-1.2-2.3C6.6,35.8,8.8,33.2,10.6,33.2 M7.2,47.5H6.3l-2.5-0.1v-0.1
			c1.1-0.5,2-1.6,2.3-2.8h0.2c0.2,0.9,1.2,2.6,2.1,2.8v0.2L7.2,47.5z M3.9,33.1h4.5c-0.6,0.8-1.9,1.5-2.2,2.8H6.1
			C5.8,34.8,4.1,33.5,3.9,33.1 M1.9,34.4v-1.1c1,0.2,2,0.7,2.6,1.6c0.3,0.4,0.6,0.8,0.9,1.3s0.2,1.3,0.5,1.8l-1.4,2.1
			C3,38.5,2.1,36.5,1.9,34.4 M4.5,41c0.4,0.5,0.8,1.1,1.2,1.7c0.2,0.6-0.3,1.7-0.5,2.2c-0.6,1.4-1.8,2.3-3.3,2.5V47
			C1.9,44.7,3,42,4.5,41 M1.8,37.2c0.3,0.3,1.1,2.8,2.1,3.1l-2,3L1.8,37.2z"/>
		<path class="st0" d="M8.8,16.3H5.3H1v3.2v2.2v5.9v0.2c0,0.4,0.1,1.5,0.1,2.4c0,0.7-0.2,2.2,0.2,2.2h10.1c0.2,0,0.3-0.1,0.3-0.3
			c0-2.4,0-5.8-0.1-8.7c0-1,0-2.7,0-3.6c0-0.8-0.1-0.9-0.1-1.8c0-0.6,0.3-1.8-0.2-1.8H9.8L8.8,16.3z M10.6,21.5l0.1,6.2h-0.2
			c-0.1-1.3-1.5-2.5-2.1-3.3C8.7,24,9.2,23.5,9.6,23C9.9,22.7,10.4,21.7,10.6,21.5 M7.7,25c0.5,0,1.8,2.1,2,2.6
			c0.3,0.5,0.5,1.1,0.6,1.6c0.1,0.4,0.2,1.9,0.3,2.1C9.4,31.7,7.8,30,7.3,29c-0.4-0.7-0.6-1.4-0.6-2.2C6.9,26.2,7.3,25.5,7.7,25
			 M10.6,17.2c0,2.7-1,5.5-2.8,6.7c-0.6-0.6-1.1-1.4-1.2-2.3C6.6,19.8,8.8,17.2,10.6,17.2 M7.2,31.5H6.3H3.8v-0.1
			c1.1-0.5,2-1.6,2.3-2.8h0.2c0.2,0.9,1.2,2.6,2.1,2.8v0.2H7.2V31.5z M3.9,17.1h4.5c-0.6,0.8-1.9,1.5-2.2,2.8H6.1
			C5.8,18.8,4.1,17.5,3.9,17.1 M1.9,18.4v-1.1c1,0.2,2,0.7,2.6,1.6c0.3,0.4,0.6,0.9,0.9,1.3s0.2,1.3,0.5,1.8l-1.4,2
			C3,22.5,2.1,20.5,1.9,18.4 M4.5,25c0.4,0.5,0.8,1.1,1.2,1.7c0.2,0.6-0.3,1.7-0.5,2.2c-0.6,1.4-1.8,2.3-3.3,2.5V31
			C1.9,28.7,3,26.1,4.5,25 M1.8,21.2c0.3,0.3,1.1,2.8,2.1,3.1l-2,3L1.8,21.2z"/>
		<path class="st0" d="M8.8,0.1H5.2H0.9v3.2v2.2v5.9v0.2C0.9,12,1,13.1,1,14c0,0.7-0.2,2.2,0.2,2.2h10.1c0.2,0,0.3-0.1,0.3-0.3
			c0-2.4,0-5.8-0.1-8.7c0-1,0-2.7,0-3.7c0-0.8-0.1-0.9-0.1-1.8c0-0.6,0.3-1.8-0.2-1.8H9.8L8.8,0.1z M10.6,5.3l0.1,6.2h-0.2
			C10.4,10.2,9,9.1,8.4,8.2c0.2-0.4,0.8-0.8,1.2-1.3C9.9,6.5,10.4,5.5,10.6,5.3 M7.7,8.8c0.5,0,1.8,2.1,2,2.6
			c0.3,0.5,0.5,1.1,0.6,1.6c0.1,0.4,0.2,1.9,0.3,2.1c-1.3,0.3-2.9-1.4-3.4-2.3c-0.4-0.7-0.6-1.4-0.6-2.2C6.9,10,7.2,9.3,7.7,8.8
			 M10.6,0.9c0,2.7-1,5.5-2.8,6.7C7.2,7,6.8,6.2,6.6,5.3C6.6,3.6,8.8,1,10.6,0.9 M7.2,15.3l-0.9,0.1l-2.5-0.1v-0.1
			c1.1-0.5,2-1.6,2.3-2.8h0.2c0.2,0.9,1.2,2.6,2.1,2.8v0.2L7.2,15.3L7.2,15.3z M3.9,0.9h4.5C7.9,1.7,6.6,2.5,6.3,3.8H6.1
			C5.8,2.6,4,1.3,3.9,0.9 M1.9,2.2V1c1.1,0.2,2,0.7,2.7,1.6C4.8,3,5.2,3.5,5.4,3.9s0.2,1.3,0.5,1.8l-1.4,2C3,6.3,2.1,4.3,1.9,2.2
			 M4.5,8.8c0.5,0.5,0.9,1,1.2,1.6c0.2,0.6-0.3,1.7-0.5,2.2C4.6,14,3.3,15,1.9,15.2v-0.4C1.9,12.5,3,9.8,4.5,8.8 M1.8,5
			c0.3,0.3,1.1,2.8,2.1,3.1l-2,3L1.8,5z"/>
		<path class="st0" d="M8.8,47.6H5.3H1v3.2V53v5.9v0.2c0,0.4,0.1,1.5,0.1,2.4c0,0.7-0.2,2.2,0.2,2.2h10.1c0.2,0,0.3-0.1,0.3-0.3
			c0-2.4,0-5.8-0.1-8.7c0-1,0-2.7,0-3.7c0-0.8-0.1-0.9-0.1-1.8c0-0.6,0.3-1.8-0.2-1.8H9.8L8.8,47.6z M10.6,52.8l0.1,6.2h-0.2
			c-0.1-1.3-1.5-2.5-2.1-3.3c0.2-0.4,0.8-0.8,1.2-1.3C9.9,54,10.4,53,10.6,52.8 M7.7,56.3c0.5,0,1.8,2.1,2,2.6
			c0.3,0.5,0.5,1.1,0.6,1.6c0.1,0.3,0.2,1.9,0.3,2.1c-1.3,0.3-2.9-1.4-3.4-2.3c-0.4-0.7-0.6-1.4-0.6-2.2C6.9,57.5,7.2,56.8,7.7,56.3
			 M10.6,48.4c0,2.7-1,5.5-2.8,6.7c-0.6-0.6-1.1-1.4-1.2-2.3C6.5,51.1,8.8,48.5,10.6,48.4 M7.2,62.8H6.3l-2.5-0.1v-0.1
			c1.1-0.5,2-1.6,2.3-2.8h0.2c0.2,0.9,1.2,2.6,2.1,2.8v0.2L7.2,62.8z M3.9,48.4h4.5c-0.6,0.8-1.9,1.5-2.2,2.8H6.1
			C5.8,50.1,4.1,48.8,3.9,48.4 M1.9,49.7v-1.1c1,0.1,2,0.7,2.6,1.6c0.3,0.4,0.6,0.9,0.9,1.3s0.2,1.3,0.5,1.8l-1.4,2.1
			C3,53.8,2.1,51.8,1.9,49.7 M4.5,56.3c0.4,0.5,0.8,1.1,1.2,1.7c0.2,0.6-0.3,1.7-0.5,2.2c-0.5,1.4-1.8,2.3-3.3,2.5v-0.4
			C1.9,60,3,57.3,4.5,56.3 M1.8,52.5c0.3,0.3,1.1,2.8,2.1,3.1l-2,3L1.8,52.5z"/>
		<path class="st0" d="M9.1,77c0.8-1.8,1.1-4.4,1.2-10.6c-0.4,0.9-1,2-1.6,3c-0.3,0.5-1,1.7-1.8,3.1L6.6,73L6,71.9l1.8-3
			c1.5-2.6,2.7-5.2,2.7-5.2l0.2-0.4h0.9v0.6c0.1,9.5-0.5,12.3-1.7,14.5C9.6,77.9,9.4,77.4,9.1,77 M2.1,89.1c0.5-1,1-2,1.6-3
			c0.7-1.4,1.5-2.7,2.2-3.9l0.7,1.1c-0.6,1-1.2,2.2-1.9,3.3c-0.9,1.7-1.8,3.4-2.5,4.9H1C1,91,0.9,87.3,1,84c0-1.5,0.3-3,0.7-4.4
			c0.3-0.9,0.7-1.7,1.1-2.4V77c0.2,0.3,0.3,0.6,0.5,0.8l0.2,0.3c-0.3,0.5-0.5,1.1-0.7,1.7c-0.4,1.3-0.6,2.7-0.6,4.1
			C2.1,85.8,2.1,87.7,2.1,89.1"/>
		<path class="st0" d="M3.7,69.2c-0.6-1-1.1-2-1.6-3c0,1.5,0,3.4,0,5.2c0,1.4,0.2,2.8,0.7,4.1c0.3,0.8,0.6,1.5,1,2.2l0.3,0.6
			c1,1.8,3.6,6.1,4.5,7.7c0.6,1.1,1.2,2.1,1.6,3c-0.1-9.2-0.9-10.5-2.5-12.9c-0.2-0.2-0.3-0.5-0.5-0.8C6.3,73.7,4.9,71.5,3.7,69.2
			 M2,63.4c0.6,1.5,1.6,3.4,2.6,5.2c1.3,2.3,2.6,4.5,3.5,5.9l0.5,0.8c1.9,2.9,2.8,4.2,2.7,16.1v0.5h-1l-0.1-0.2c0,0-1.1-2.7-2.6-5.2
			c-1-1.8-3.5-6-4.5-7.7l-0.3-0.6c-0.5-0.8-0.8-1.6-1.1-2.4c-0.4-1.5-0.7-3-0.7-4.5c-0.1-2.6,0-5.5,0-6.8v-0.6l0,0v-0.8h0.9L2,63.4z
			"/>
		<path class="st0" d="M8.8,62.8H5.3H1v5.9v4v10.8v0.4c0,0.8,0.1,2.8,0.1,4.4c0,1.2-0.2,4,0.2,4h10.1c0.2,0,0.3-0.1,0.3-0.6
			c0-4.4,0-10.7-0.1-15.9c0-1.9,0-4.9,0-6.7c0-1.4-0.1-1.7-0.1-3.3c0-1,0.3-3.3-0.2-3.3H9.8L8.8,62.8z M1.8,71.8c0,0.1,0,0.1,0,0.2
			v-8c2.9-0.2,5.8,0,8.7,0v8.9l0.1,9.1l0,0v1.7l0,0v7.5c-2.9,0.2-5.9,0.2-8.8,0V79.1C1.8,79.1,1.8,71.8,1.8,71.8z"/>
		<path class="st0" d="M8.8,91.5H5.3H1v3.2v2.2v5.8v0.2c0,0.4,0.1,1.5,0.1,2.4c0,0.7-0.2,2.2,0.2,2.2h10.1c0.2,0,0.3-0.1,0.3-0.3
			c0-2.4,0-5.8-0.1-8.7c0-1,0-2.7,0-3.7c0-0.8-0.1-0.9-0.1-1.8c0-0.6,0.3-1.8-0.2-1.8H9.8L8.8,91.5z M10.6,96.7l0.1,6.2h-0.2
			c-0.1-1.3-1.5-2.4-2.1-3.3c0.2-0.4,0.8-0.8,1.2-1.3C9.9,97.9,10.4,96.8,10.6,96.7 M7.7,100.2c0.6,0,1.8,2.1,2,2.6
			c0.3,0.5,0.5,1.1,0.6,1.7c0.1,0.3,0.2,1.9,0.3,2.1c-1.3,0.3-2.9-1.4-3.4-2.3c-0.4-0.7-0.6-1.4-0.6-2.2
			C6.9,101.3,7.3,100.7,7.7,100.2 M10.6,92.3c0,2.7-1,5.5-2.8,6.7c-0.6-0.6-1.1-1.4-1.2-2.3C6.6,95,8.8,92.4,10.6,92.3 M7.2,106.7
			H6.3l-2.5-0.1v-0.1c1.1-0.5,2-1.6,2.3-2.8h0.2c0.2,0.9,1.2,2.6,2.1,2.8v0.2H7.2z M3.9,92.3h4.5c-0.6,0.8-1.9,1.5-2.2,2.8H6.1
			C5.8,94,4,92.7,3.9,92.3 M1.9,93.6v-1.1c1,0.2,2,0.7,2.6,1.6c0.3,0.4,0.6,0.8,0.9,1.3s0.2,1.3,0.5,1.8l-1.4,2.1
			C3,97.7,2.1,95.7,1.9,93.6 M4.5,100.2c0.4,0.5,0.8,1.1,1.2,1.7c0.2,0.6-0.3,1.7-0.5,2.2c-0.6,1.4-1.8,2.3-3.3,2.5v-0.4
			C1.9,103.9,3,101.2,4.5,100.2 M1.8,96.4c0.3,0.3,1.1,2.8,2.1,3.1l-2,3L1.8,96.4z"/>
		<path class="st0" d="M8.8,107.6H5.3H1v3.2v2.2v5.9v0.2c0,0.4,0.1,1.5,0.1,2.4c0,0.7-0.2,2.2,0.2,2.2h10.1c0.2,0,0.3-0.1,0.3-0.3
			c0-2.4,0-5.8-0.1-8.7c0-1,0-2.7,0-3.7c0-0.8-0.1-0.9-0.1-1.8c0-0.6,0.3-1.8-0.2-1.8H9.8L8.8,107.6z M10.6,112.8l0.1,6.2h-0.2
			c-0.1-1.3-1.5-2.4-2.1-3.3c0.2-0.4,0.8-0.8,1.2-1.3C9.9,114,10.4,113,10.6,112.8 M7.7,116.3c0.6,0,1.8,2.1,2,2.6
			c0.3,0.5,0.5,1.1,0.6,1.7c0.1,0.3,0.2,1.9,0.3,2.1c-1.3,0.3-2.9-1.4-3.4-2.3c-0.4-0.7-0.6-1.4-0.6-2.2
			C6.9,117.5,7.2,116.8,7.7,116.3 M10.6,108.4c0,2.7-1,5.5-2.8,6.7c-0.6-0.6-1.1-1.4-1.2-2.3C6.6,111.1,8.8,108.5,10.6,108.4
			 M7.2,122.8H6.3l-2.5-0.1v-0.1c1.1-0.5,2-1.6,2.3-2.8h0.2c0.2,0.9,1.2,2.6,2.1,2.8v0.2H7.2z M3.9,108.4h4.5
			c-0.6,0.8-1.9,1.5-2.2,2.8H6.1C5.8,110.1,4.1,108.8,3.9,108.4 M1.9,109.7v-1.2c1.1,0.1,2,0.7,2.7,1.6c0.3,0.4,0.6,0.8,0.9,1.3
			s0.2,1.3,0.5,1.8l-1.4,2.1C3,113.8,2.1,111.8,1.9,109.7 M4.5,116.3c0.5,0.5,0.8,1.1,1.2,1.7c0.2,0.6-0.3,1.7-0.5,2.2
			c-0.6,1.4-1.8,2.3-3.3,2.5v-0.4C1.9,120,3,117.3,4.5,116.3 M1.8,112.5c0.3,0.3,1.1,2.8,2.1,3.1l-2,3L1.8,112.5z"/>
		<path class="st0" d="M8.8,123.6H5.3H0.9v3.2v2.2v5.9v0.2c0,0.4,0.1,1.5,0.1,2.4c0,0.7-0.2,2.2,0.2,2.2h10.1c0.2,0,0.3-0.1,0.3-0.3
			c0-2.4,0-5.8-0.1-8.7c0-1,0-2.7,0-3.7c0-0.8-0.1-0.9-0.1-1.8c0-0.6,0.3-1.8-0.2-1.8H9.8L8.8,123.6z M10.6,128.9l0.1,6.1h-0.2
			c-0.1-1.3-1.5-2.4-2.1-3.3c0.2-0.4,0.8-0.8,1.2-1.3C9.9,130,10.4,129,10.6,128.9 M7.7,132.3c0.6,0,1.8,2.1,2,2.6
			c0.3,0.5,0.5,1.1,0.6,1.6c0.1,0.4,0.2,1.9,0.3,2.1c-1.3,0.3-2.9-1.4-3.4-2.3c-0.4-0.7-0.6-1.4-0.6-2.2
			C6.9,133.5,7.2,132.8,7.7,132.3 M10.6,124.4c0,2.7-1,5.5-2.8,6.7c-0.6-0.6-1.1-1.4-1.2-2.3C6.6,127.1,8.8,124.5,10.6,124.4
			 M7.2,138.9H6.3l-2.5-0.1v-0.1c1.1-0.5,2-1.6,2.3-2.8h0.2c0.2,0.9,1.2,2.6,2.1,2.8v0.2L7.2,138.9z M3.9,124.5h4.5
			c-0.6,0.8-1.9,1.5-2.2,2.8H6.1C5.8,126.1,4.1,124.8,3.9,124.5 M1.9,125.7v-1.2c1.1,0.1,2,0.7,2.7,1.6c0.3,0.4,0.6,0.9,0.9,1.3
			s0.2,1.3,0.5,1.8l-1.4,2.1C3,129.8,2.1,127.8,1.9,125.7 M4.5,132.3c0.4,0.5,0.8,1.1,1.2,1.7c0.2,0.6-0.3,1.7-0.5,2.2
			c-0.5,1.4-1.8,2.3-3.3,2.5v-0.4C1.9,136,3,133.4,4.5,132.3 M1.8,128.6c0.3,0.3,1.1,2.8,2.1,3.1l-2,3L1.8,128.6z"/>
		<path class="st0" d="M8.8,139.8H5.3H0.9v3.2v2.2v5.9v0.2c0,0.4,0.1,1.5,0.1,2.4c0,0.7-0.2,2.2,0.2,2.2h10.1c0.2,0,0.3-0.1,0.3-0.3
			c0-2.4,0-5.8-0.1-8.7c0-1,0-2.7,0-3.6c0-0.8-0.1-0.9-0.1-1.8c0-0.6,0.3-1.8-0.2-1.8H9.8L8.8,139.8z M10.6,145.1l0.1,6.2h-0.2
			c-0.1-1.3-1.5-2.4-2.1-3.3c0.2-0.4,0.8-0.8,1.2-1.3C9.9,146.2,10.4,145.2,10.6,145.1 M7.7,148.5c0.6,0,1.8,2.1,2,2.6
			c0.3,0.5,0.5,1.1,0.6,1.6c0.1,0.4,0.2,1.9,0.3,2.1c-1.3,0.3-2.9-1.4-3.4-2.4c-0.4-0.7-0.6-1.4-0.6-2.2
			C6.9,149.7,7.2,149.1,7.7,148.5 M10.6,140.7c0,2.7-1,5.5-2.8,6.7c-0.6-0.6-1.1-1.4-1.2-2.3C6.6,143.4,8.8,140.7,10.6,140.7
			 M7.2,155.1l-0.9,0.1L3.8,155v-0.1c1.1-0.5,2-1.6,2.3-2.8h0.2c0.2,0.9,1.2,2.6,2.1,2.8v0.2L7.2,155.1z M3.9,140.7h4.5
			c-0.6,0.8-1.9,1.5-2.2,2.8H6.1C5.8,142.3,4.1,141,3.9,140.7 M1.9,141.9v-1.2c1.1,0.1,2,0.7,2.7,1.6c0.3,0.4,0.6,0.9,0.9,1.3
			s0.2,1.3,0.5,1.8l-1.4,2.1C3,146,2.1,144,1.9,141.9 M4.5,148.5c0.4,0.5,0.8,1.1,1.2,1.7c0.2,0.6-0.3,1.7-0.5,2.2
			c-0.6,1.4-1.8,2.3-3.3,2.5v-0.4C1.9,152.2,3,149.6,4.5,148.5 M1.8,144.8c0.3,0.3,1.1,2.8,2.1,3.1l-2,3L1.8,144.8z"/>
	</g>
</g>
</svg>
