<?xml version="1.0" encoding="utf-8"?>
<!-- Generator: Adobe Illustrator 22.0.0, SVG Export Plug-In . SVG Version: 6.00 Build 0)  -->
<svg version="1.1" id="Слой_1" xmlns="http://www.w3.org/2000/svg" xmlns:xlink="http://www.w3.org/1999/xlink" x="0px" y="0px"
	 viewBox="0 0 20 9.8" enable-background="new 0 0 20 9.8" xml:space="preserve">
<g id="Layer_2">
	<g id="Layer_1-2">
		<path fill="#623C25" d="M0,1L0,1l0.1,4.1v0.1l0.8,0.3c-0.1,0.7-0.7,0-0.7,1V7c0,1.4-0.2,2.7,1.4,2.7h2.2c1.6,0,1.8-2.6,1.1-3.5
			C4.5,5.7,4.1,5.1,3.7,4.6C3.6,4.5,2.5,3.3,2.5,3.3V3.1c0-0.7,1.8,0.8,1.9,1l1,0.7c0.5,0.5,0.5,0.3,1,0.8h2.2
			c1-0.7,0.9-0.9,0.9-2.3c0-0.2,0-1.2-0.1-1.5c0-0.8-0.3-1-0.4-1.4L8.4,0.1L6.4,0h-1C4.8,0,5.6,0.9,4.7,0.9C4.6,0.3,4.7,0,3.9,0
			c-0.6,0-1,0.1-1.6,0.1c-0.5,0-1,0-1.5,0C0.4,0.2,0.1,0.6,0,1"/>
		<path fill="#623C25" d="M9.5,8.6c0-0.3-1.7-1.3-2.1-1.6c-0.2-0.1-2-1.8-2-1.1V6c0.9,1.3,1.9,2.6,2.9,3.8c0.4,0,1.2-0.8,1.2-1V8.6z
			"/>
	</g>
</g>
<g id="Layer_2_1_">
	<g id="Layer_1-2_1_">
		<path fill="#623C25" d="M11.2,9.6h0.4c1.1,0,3.1,0.1,3.7-0.2V8.9l0.2-0.1c0.3,0,0.2,0.3,0.2,0.6L16,9.5c0.9,0.1,1.7,0.1,2.6,0
			c1-0.2,1-0.7,1-1.9s0.2-2-0.3-2.5C19,4.8,19,4.6,18.4,4.5s-0.9-0.2-1.3-0.2c-1.5,0-3.2,2.6-4,2.6c-0.3,0,0,0-0.2-0.1
			c0.3-1,2.5-2.8,2.6-3.9c0.4-3.3-0.7-3-3.3-3c-1.7,0-2.1,0.4-2.1,2.1c0,0.4-0.1,0.9-0.1,1.6c0,1.3,0.8,0,0.9,0.9
			C10.6,4.8,10,5,10,5.3v0.9v0.4v1.5v0.2C10,9.1,10.4,9.6,11.2,9.6"/>
		<path fill="#623C25" d="M15.7,4c0,0.1,0,0.2,0.1,0.2s3.9-2.8,3.9-3.1S18.9,0,18.7,0h-0.1c-0.4,0-0.5,0.6-0.8,0.9s-0.5,0.6-0.7,1
			C17,2.2,15.7,3.8,15.7,4L15.7,4z"/>
	</g>
</g>
</svg>
