<?xml version="1.0" encoding="utf-8"?>
<!-- Generator: Adobe Illustrator 22.0.0, SVG Export Plug-In . SVG Version: 6.00 Build 0)  -->
<svg version="1.1" id="Слой_1" xmlns="http://www.w3.org/2000/svg" xmlns:xlink="http://www.w3.org/1999/xlink" x="0px" y="0px"
	 viewBox="0 0 10 20.1" style="enable-background:new 0 0 10 20.1;" xml:space="preserve">
<style type="text/css">
	.st0{fill:#623C25;}
</style>
<g id="Layer_2">
	<g id="Layer_1-2">
		<path class="st0" d="M1.1,19.7L1.1,19.7l4.1-0.1h0.1l0.3-0.8c0.7,0.1,0,0.7,1,0.7h0.5c1.4,0,2.7,0.2,2.7-1.4v-2.2
			c0-1.6-2.6-1.8-3.5-1.1c-0.5,0.4-1.1,0.8-1.6,1.2c-0.1,0.1-1.3,1.2-1.3,1.2H3.2c-0.7,0,0.8-1.8,1-1.9l0.7-1c0.5-0.5,0.3-0.5,0.8-1
			v-2.2c-0.7-1-0.9-0.9-2.3-0.9c-0.2,0-1.2,0-1.5,0.1c-0.8,0-1,0.3-1.4,0.4l-0.3,0.6l-0.1,2v1C0.1,14.9,1,14.1,1,15
			c-0.6,0.1-0.9,0-0.9,0.8c0,0.6,0.1,1,0.1,1.6c0,0.5,0,1,0,1.5C0.3,19.3,0.7,19.6,1.1,19.7"/>
		<path class="st0" d="M8.7,10.2c-0.3,0-1.3,1.7-1.6,2.1c-0.1,0.2-1.8,2-1.1,2h0.1c1.3-0.9,2.6-1.9,3.8-2.9c0-0.4-0.8-1.2-1-1.2H8.7
			z"/>
	</g>
</g>
<g id="Layer_2_1_">
	<g id="Layer_1-2_1_">
		<path class="st0" d="M9.7,8.5V8.1C9.7,7,9.8,5,9.5,4.4H9L8.9,4.2C8.9,3.9,9.2,4,9.5,4l0.1-0.3c0.1-0.9,0.1-1.7,0-2.6
			c-0.2-1-0.7-1-1.9-1s-2-0.2-2.5,0.3C4.9,0.7,4.7,0.7,4.6,1.3S4.4,2.2,4.4,2.6c0,1.5,2.6,3.2,2.6,4c0,0.3,0,0-0.1,0.2
			C5.9,6.5,4.1,4.3,3,4.2c-3.3-0.4-3,0.7-3,3.3c0,1.7,0.4,2.1,2.1,2.1c0.4,0,0.9,0.1,1.6,0.1c1.3,0,0-0.8,0.9-0.9
			c0.3,0.3,0.5,0.9,0.8,0.9h0.9h0.4h1.5h0.2C9.2,9.7,9.7,9.3,9.7,8.5"/>
		<path class="st0" d="M4.1,4c0.1,0,0.2,0,0.2-0.1S1.5,0,1.2,0S0.1,0.8,0.1,1v0.1c0,0.4,0.6,0.5,0.9,0.8s0.6,0.5,1,0.7
			C2.3,2.7,3.9,4,4.1,4L4.1,4z"/>
	</g>
</g>
</svg>
