<?xml version="1.0" encoding="utf-8"?>
<!-- Generator: Adobe Illustrator 22.1.0, SVG Export Plug-In . SVG Version: 6.00 Build 0)  -->
<svg version="1.1" id="Layer_1" xmlns="http://www.w3.org/2000/svg" xmlns:xlink="http://www.w3.org/1999/xlink" x="0px" y="0px"
	 preserveAspectRatio="none" viewBox="0 0 9 42" style="enable-background:new 0 0 9 42;" xml:space="preserve">
<style type="text/css">
	.st0{fill:#FFEFD6;}
	.st1{fill:#7C6742;}
</style>
<polygon class="st0" points="2.3,41.8 0.7,40 0.7,38.5 2,38.2 3.1,37.5 2.7,34.1 2.1,32.4 0.6,30 3,26.9 2.8,22.3 2.2,21.9 
	3.1,20.9 2.9,13.6 1.4,11.6 2.4,10.5 3.2,9.4 2.5,8 2.6,6 3.1,4.5 4.2,2.7 4.1,0.5 4.9,0.8 5.1,3 6.1,4.7 6.6,6.9 5.6,8.9 5.7,10.7 
	7.3,11.4 6,12.6 5.8,13.8 5.7,21 6.2,21.9 5.6,22.5 5.4,25.2 5.2,27.3 6.2,27.8 7.8,30.4 6.2,32 5.9,32.7 5.7,34.3 5.5,35.8 
	5.3,37.9 7,38.4 6.9,40 5.6,41.8 "/>
<path class="st1" d="M2.9,34.3C3,34.3,3,34.3,2.9,34.3C3,34.4,3,34.5,2.9,34.5C2.7,34.5,3,34.4,2.9,34.3L2.9,34.3z M3,34.8
	c0,0.2,0,0.3,0,0.5C3,35,2.9,35,2.9,34.8C2.9,34.8,3,34.8,3,34.8L3,34.8z M5.5,16.3v0.2H5.3v-0.2H5.5L5.5,16.3z M6.6,6.4
	C6.6,6.5,6.6,6.5,6.6,6.4L6.6,6.4L6.6,6.4L6.6,6.4L6.6,6.4z M6.2,5.7C6.2,5.7,6.2,5.7,6.2,5.7L6.2,5.7L6.2,5.7L6.2,5.7L6.2,5.7z
	 M2.6,6c0,0.1,0,0.2,0,0.2C2.4,6.3,2.5,6,2.6,6z M3.7,11c0,0.1,0,0.1,0,0.2c0,0.1-0.2-0.1-0.2-0.2H3.7L3.7,11z M5.6,7.1L5.6,7.1
	C5.5,7,5.4,6.7,5.6,6.8C5.7,6.8,5.6,7,5.6,7.1L5.6,7.1z M5.6,8.4c0.1,0,0.1,0.1,0.1,0.2C5.7,8.6,5.6,8.5,5.6,8.4L5.6,8.4z M5.6,4.5
	h0.2c0.1,0.2-0.1,0.1-0.1,0.2C5.7,4.8,5.6,4.6,5.6,4.5L5.6,4.5z M5,4.4c0.2,0,0.2,0.3,0.3,0.5c0.2,0.3,0.4,0.7,0.4,1.1
	c-0.1,0.2,0,0.3,0,0.5c0,0.2-0.3,0-0.2,0.1c-0.2,0.1,0-0.1-0.2-0.1c0-0.4,0-0.8-0.3-1c0-0.1,0-0.2-0.1-0.2C5.1,5,4.9,4.7,5,4.4
	L5,4.4z M4.8,5.3H4.7V5.2C4.8,5.2,4.8,5.2,4.8,5.3L4.8,5.3z M4.1,8.5c0,0.2-0.2,0.2-0.2,0.3c0,0.1,0-0.1-0.1-0.2
	C3.8,8.5,3.9,8.5,4.1,8.5z M3.3,8C3.3,8.1,3.3,8.1,3.3,8L3.3,8C3.3,8.1,3.3,8.1,3.3,8L3.3,8L3.3,8z M4.8,10.4c0-0.1-0.1-0.1-0.1-0.3
	c0-0.2,0.1,0.2,0.3,0.1v0.2L4.8,10.4L4.8,10.4z M5.4,10C5.3,10,5.3,10,5.4,10L5.4,10C5.4,9.9,5.4,10,5.4,10L5.4,10z M4.6,9.1
	C4.5,9.2,4.4,9.2,4.3,9.4C4,9.5,3.6,9.3,3.2,9.4C2.9,9.2,3.2,9,3.2,8.9c0.3,0,0.5,0,0.8-0.1C4.1,9,4.4,8.9,4.6,8.9s0.1-0.1,0.1-0.1
	c0.1,0,0.5,0,0.6,0.1c0.1,0.2,0.2,0,0.3-0.1C5.7,9,5.8,9.1,5.8,9.3C5.4,9.3,5.1,8.9,4.6,9.1L4.6,9.1z M6.1,12C6.1,12,6,12.1,6,11.9
	C6,11.8,6.2,11.9,6.1,12z M4.7,18c0-0.1,0.1-0.3,0.2-0.3C5.2,17.7,4.9,18.3,4.7,18z M4.9,16.5c-0.1,0-0.2,0-0.2,0c0-0.1,0-0.1,0-0.2
	C4.9,16.3,4.9,16.4,4.9,16.5L4.9,16.5z M4.7,15L4.7,15C4.8,15.1,4.8,15.1,4.7,15L4.7,15L4.7,15L4.7,15z M5.1,17.4
	c0,0.1-0.1,0-0.1,0.2c0,0-0.1,0-0.1,0c0-0.1,0.1-0.1,0.1-0.3C5,17.4,5.1,17.3,5.1,17.4L5.1,17.4z M5.3,14.8H5.2
	c-0.1-0.1,0-0.3,0.2-0.3C5.6,14.5,5.3,14.7,5.3,14.8z M5.6,12c0.1,0,0.2,0,0.2,0.1c0,0.1-0.1,0.1-0.2,0.1C5.4,12.1,5.6,12.1,5.6,12
	L5.6,12z M5.2,12.4L5.2,12.4c0,0.1,0.1,0.1,0.1,0.1c0,0,0,0,0,0.1h0.1H5.3H5.2C5.2,12.5,5.2,12.4,5.2,12.4L5.2,12.4z M4.6,12.1H4.3
	C4.3,12.1,4.6,11.9,4.6,12.1z M4.3,13.7c-0.1,0-0.4,0.1-0.5,0c-0.1,0-0.1,0.1-0.2,0c-0.1,0.2-0.4,0.1-0.5,0.2c0-0.2-0.3-0.1-0.2-0.3
	c0.5,0,0.9,0,1.4,0s1.1-0.1,1.5,0.1c0,0,0,0.1,0,0.1C5.4,13.7,4.7,13.8,4.3,13.7L4.3,13.7z M4.8,20.4H4.7c0-0.2,0-0.5,0.1-0.5
	C4.9,20,4.8,20.2,4.8,20.4L4.8,20.4z M5.4,20.4L5.4,20.4C5.4,20.5,5.3,20.3,5.4,20.4z M5.3,21c-0.1,0,0-0.2-0.2-0.2
	c0.1,0,0.1-0.1,0.2-0.1C5.4,20.9,5.3,20.9,5.3,21z M5.5,26.7L5.5,26.7L5.5,26.7L5.5,26.7L5.5,26.7L5.5,26.7z M5.4,25.7
	c0,0.1,0-0.1,0-0.1C5.4,25.6,5.4,25.7,5.4,25.7z M5.5,23.7v0.1H5.4C5.4,23.7,5.4,23.7,5.5,23.7L5.5,23.7L5.5,23.7z M5.5,24.4
	c0,0.1,0,0.2,0,0.3s-0.1-0.1-0.2-0.2C5.2,24.5,5.3,24.4,5.5,24.4L5.5,24.4z M4.9,22.9c0,0.2,0,0.5,0.1,0.6s-0.2,0-0.1,0.1
	c-0.3,0-0.1-0.4-0.3-0.5C4.7,23,4.8,22.9,4.9,22.9z M4.5,25.3c0.1,0,0,0.1,0.2,0.1l0.1-0.1c0-0.1-0.1-0.1-0.1-0.1c0-0.2,0-0.3,0-0.5
	c0-0.2-0.1,0-0.1-0.1c0-0.1,0.1-0.2,0.2-0.3c0.1-0.1,0.1,0.1,0.2,0.2c-0.1,0.3,0.2,0.5,0,0.6C5,25.1,5,25,5,25.1s0,0.3,0,0.5
	c-0.1,0.1-0.2,0.1-0.3,0C4.6,25.5,4.5,25.4,4.5,25.3L4.5,25.3z M4.6,25.9c0.2,0,0.3,0,0.5,0c0.2,0.3-0.2,0.3-0.5,0.3
	C4.6,26.1,4.6,26,4.6,25.9L4.6,25.9z M5.5,28.4c-0.1-0.1-0.2-0.1-0.4-0.1c0-0.2-0.1-0.2-0.1-0.3c0-0.1,0,0.1-0.1,0.1
	c-0.1,0,0-0.2-0.1-0.1c0-0.5-0.3-0.6-0.1-1c0.1,0,0.3,0,0.4,0c0,0,0-0.1-0.4-0.1c0-0.1,0-0.1,0-0.2h0.5c0,0.1-0.1,0.1-0.1,0.3
	c0,0,0,0.1,0.1,0.1c0,0.4,0.1,0.6,0.4,0.6c0,0.1,0,0.2,0.1,0.2c0.1,0-0.1,0-0.1,0.1C5.8,28,6,27.6,6.2,27.8c0,0.1,0,0.3-0.1,0.4
	c-0.1-0.2-0.1,0-0.3,0C5.8,28.3,5.7,28.4,5.5,28.4L5.5,28.4z M7,30.2L7,30.2L7,30C7.1,30,7.1,30.1,7,30.2L7,30.2z M7.2,31.2
	c0.1,0,0.1,0.2,0.1,0.3c-0.1,0-0.3,0-0.4,0C7,31.4,7.2,31.3,7.2,31.2L7.2,31.2z M3.9,33.6C3.9,33.5,3.9,33.5,3.9,33.6
	c0-0.1,0.2-0.3,0.3-0.4c0.1,0.1,0.2,0.2,0.3,0.1C4.5,33.6,4.3,33.6,3.9,33.6L3.9,33.6z M4.6,37.2c0-0.2,0.1-0.2,0-0.5
	c0.2,0,0.2,0.2,0.2,0.4C4.7,37.1,4.6,37.3,4.6,37.2L4.6,37.2z M4.8,38c0-0.3-0.1-0.5-0.1-0.7c0.1,0,0.1-0.1,0.2,0
	C5,37.5,4.9,37.8,5,38H4.8z M5.4,37.8v0.1H5.3L5.4,37.8L5.4,37.8z M5.3,36.7L5.3,36.7L5.3,36.7L5.3,36.7L5.3,36.7z M6.1,33.5
	c0,0.2-0.3,0.1-0.4,0.2c-0.3,0.1-0.6,0.3-0.9,0.5h0c0,0,0,0.1,0,0.1H4.5v-0.1c0.1,0,0.1,0,0.2,0v0.1h0c-0.1-0.2,0.2-0.4,0.1-0.6
	c0.4,0.1,0.4-0.3,0.8-0.3C5.8,33.4,6,33.4,6.1,33.5L6.1,33.5z M5.7,31.9H5.6c0-0.1,0-0.2,0.1-0.2S5.8,31.8,5.7,31.9L5.7,31.9z
	 M5.6,32.1L5.6,32.1L5.6,32.1c0.1,0,0.2,0,0.2,0.1c0,0.1-0.1,0-0.1,0H5.6L5.6,32.1L5.6,32.1L5.6,32.1z M4.9,31.3
	c0.1,0,0.1,0,0.1,0.1c0,0,0.4,0,0.6-0.1c0.2,0.3,0.8-0.1,1.1,0.2c-0.2,0.2-0.6,0.1-1,0.2c-0.1,0-0.1-0.1-0.2-0.1s-0.1,0.1-0.1,0.1
	c-0.1,0-0.4,0-0.5-0.1C4.7,31.4,4.9,31.5,4.9,31.3L4.9,31.3z M5,32.5c0,0.2,0.2,0.1,0.2,0.2c-0.1-0.1-0.5,0-0.6-0.2
	C4.5,32.3,4.9,32.5,5,32.5L5,32.5z M4,30.4L4,30.4C3.9,30.2,4.1,30.2,4,30.4L4,30.4z M3.2,31.4c0.1,0,0.6-0.2,0.7,0
	c0.3,0,0.4-0.2,0.7-0.1v0.1c0,0.1-0.1,0.1-0.3,0.1c-0.1,0-0.2,0.1-0.2,0c0,0.1-0.1,0.1-0.3,0.1c-0.3-0.1-0.5-0.1-0.8-0.1
	C3,31.3,3.1,31.4,3.2,31.4L3.2,31.4z M1.9,30.8c0.2,0,0.4,0,0.4,0.1C2.2,31,1.9,31,1.9,30.8z M2.3,31.5c-0.2,0-0.4,0.1-0.5,0
	c-0.1,0.1-0.4,0.1-0.4-0.1C1.6,31.5,2,31.4,2.3,31.5c0.2-0.1,0.3-0.1,0.5-0.1C2.8,31.6,2.4,31.6,2.3,31.5L2.3,31.5z M1.8,38.5
	c0.1-0.1,0.1-0.2,0.2-0.4c0.1,0,0.2-0.1,0.3,0c0.1,0.1,0.1,0.2,0.1,0.2c0.1,0,0-0.1,0-0.1c0.1-0.2,0.2-0.4,0.2-0.6
	c-0.2-0.3,0-0.8-0.1-1c0.2-0.4-0.1-0.7-0.1-1.2c-0.1-0.1-0.1-0.2-0.2-0.3c0.2-0.2,0.2-0.9-0.1-1c-0.1,0-0.1,0.1-0.3,0.1
	c-0.2,0-0.2-0.2-0.3-0.2c-0.2-0.4,0.1-0.7,0.2-0.9c0.3,0.1,0.3,0,0.6,0c0-0.3-0.3-0.4-0.3-0.8c-0.3-0.4-0.7-0.6-1.2-0.6
	c-0.1-0.3-0.4-0.6-0.7-0.6C0,31-0.1,30.7,0.1,30.5c0.2-0.1,0.5-0.1,0.5-0.4c0.2,0,0.4-0.1,0.4-0.3c0.4,0,0.5-0.2,0.7-0.4
	s0.2,0,0.2,0.2c-0.4-0.1-0.3,0.5-0.6,0.6c0,0.1,0.2,0,0.1,0.2c0.1,0,0.2,0,0.3-0.1c0,0.1,0.1,0,0.2,0.1c0.2,0,0.5-0.1,0.7-0.1
	c0,0,0.1,0,0.1,0.1c0.1-0.1,0.4-0.1,0.6-0.1V30c0.1,0,0.1-0.1,0.2-0.1c0.1,0,0.4,0.1,0.7,0.1c0.1,0,0-0.2,0-0.2s0.2,0.1,0.3,0.1
	c0.1,0.2-0.1,0.1-0.1,0.2s0.1,0.1,0.1,0.2c0.2,0,0.3,0,0.5-0.1c0.2,0,0.3,0.2,0.5,0.2c0,0.1,0,0.2,0,0.4c0.1-0.1,0.1-0.4,0.2-0.5
	c0.3,0,0.5,0,0.7,0.2c0.2-0.1,0.3-0.2,0.6-0.2c0-0.1-0.1-0.2-0.2-0.2c0-0.1,0-0.3-0.2-0.4s0.1,0.2,0,0.4c-0.2,0-0.2-0.1-0.3-0.2
	C6,29.9,5.9,30,5.8,30.1c-0.1,0,0-0.1-0.1-0.1c-0.1,0,0-0.1,0.1-0.2c0.1,0-0.3,0-0.4-0.1c-0.1-0.1-0.1-0.1-0.1-0.2
	c0,0-0.1-0.1-0.1-0.2c0-0.1,0-0.1-0.1-0.1v-0.1H5c0,0,0-0.1,0-0.1s-0.1,0.2-0.2,0.2c-0.1,0,0-0.3,0-0.4c-0.2-0.1-0.2,0.3-0.3,0.4
	H4.4c-0.1-0.1-0.2-0.3-0.2-0.5c-0.5,0-0.5-0.5-1-0.3c0-0.1-0.1-0.1-0.1-0.2c-0.1,0.1-0.2,0.1-0.3,0.1H2.7c0-0.2,0.1-0.5,0.3-0.6
	s0.4-0.2,0.7-0.2c0.2,0.3-0.3,0.4-0.1,0.7c0.3,0.1,0.7,0,1-0.2c0-0.1,0-0.2-0.1-0.3c0.2-0.2,0.1-0.5,0-0.8c-0.1-0.1-0.2-0.2-0.4-0.2
	c0-0.1,0-0.2,0.1-0.1c0.1-0.4,0-0.9,0.1-1.3c0-0.1-0.1-0.1-0.1-0.2c0.1-0.5,0.1-1.1,0-1.6c-0.2,0.1,0,0.3,0,0.4H4
	c-0.1-0.3-0.1-0.7-0.1-1c-0.3,0-0.5,0-0.8,0c0,0,0,0.2,0,0.3c0.1,0,0.1,0.1,0.2,0.1c0,0.3,0.1,0.9-0.2,1c0,0.1,0.1,0.1,0.1,0.2
	c0,0.1-0.1,0.1-0.1,0.1c0,0-0.1,0.2-0.1,0.4c0.1,0.1,0.1,0.1,0.2,0.2c0.1,0.3-0.2,0.6,0,0.8c-0.1,0,0,0.2-0.1,0.3H3H2.9v0.1H3h0h0
	c0.1,0.1,0,0.3,0,0.4c-0.2,0.2-0.3,0.5-0.6,0.7c0,0.1,0,0.2,0,0.3c-0.2,0.2-0.3,0-0.5-0.1C1.8,27.7,2,28,1.9,28s-0.2,0-0.3,0
	c-0.1,0,0,0-0.1,0c-0.1,0.2-0.3,0.3-0.4,0.6H0.7c-0.2-0.3-0.2-0.5-0.2-0.8c0.1-0.1,0.2-0.2,0.3-0.3c0.2,0,0.3,0,0.5,0
	c0.1,0.2,0.5,0,0.6-0.1c0.1-0.1,0.1,0,0.3,0c0.1,0,0.1,0.1,0.2,0.1c0.4-0.2,0.3-0.6,0.3-1c0-0.1,0,0,0.1-0.1c0.1-0.3,0-0.7,0-1
	c0-0.1,0-0.1,0.1-0.1c0.1-0.6-0.2-1.4,0-1.9c0,0,0-0.1,0-0.1c-0.1-0.1-0.1-0.2-0.3-0.2c0-0.2-0.1-0.2-0.2-0.4
	c-0.2-0.1-0.3-0.2-0.4-0.4C1.8,22,2,21.7,2,21.4c0.1,0,0,0.1,0.1,0.1v0.1c0,0.1,0,0.2,0,0.3c0.2,0,0.3,0.1,0.4,0.1
	c0.4-0.1,1.1,0.1,1.6-0.1c0.1,0,0.2,0.1,0.4,0.1c-0.1-0.1-0.1-0.3-0.1-0.4c-0.2,0-0.3,0-0.4-0.1c0.3-0.1,0.8-0.1,0.9,0.1
	c-0.2,0.1-0.1,0.4,0,0.5H5c0,0.1-0.2,0.1-0.3,0.1c-0.1,0-0.2,0.3-0.3,0.5c0.2,0,0.3,0,0.5,0.1c0.1-0.2,0.6,0.1,0.7-0.2
	c-0.1,0-0.2-0.2-0.2-0.3c0,0.1-0.1,0.2-0.1,0.3c-0.1,0-0.1-0.1-0.1-0.1C5.2,22.3,5.2,22,5,22V22h0c0.1,0,0.1-0.1,0.2-0.1
	c0.1,0,0.3,0,0.5,0c0.1,0.1,0.4,0.2,0.6,0.1s-0.1-0.3-0.1-0.5c0-0.2-0.3,0.1-0.4,0s0.1-0.1,0.1-0.3c-0.3,0-0.6,0-0.9-0.1
	c0-0.1,0-0.3-0.1-0.4c-0.1-0.1-0.1,0.1-0.3,0.1c-0.2,0-0.2-0.1-0.3-0.2s0.2-1.1-0.1-1.4c0.1-0.4,0.1-0.8,0.2-1.2
	c0-0.1-0.1-0.1-0.1-0.2s0-0.1,0.1-0.2s0-0.2-0.1-0.2c0.2-0.1,0-0.4,0-0.5c0.2-0.5,0-1.1,0-1.7c0.1-0.2,0.1-0.4,0.1-0.7
	c-0.1-0.1-0.2-0.1-0.4-0.1c0.1,0.1-0.1,0.2-0.1,0.3c0,0.1,0.1,0.3,0,0.4H3.6c0-0.1-0.2,0-0.2-0.1c0-0.1,0.1-0.3,0.1-0.4
	c-0.2-0.1-0.1-0.5-0.4-0.5c0,0.2,0,0.4-0.1,0.6c0,0,0,0.1,0,0.1c0,0.5,0.1,1,0,1.5c0,0-0.1,0-0.1,0.1c0,0.2,0,0.4,0,0.6
	c0.2,0.2,0,0.6,0,0.9c0,0.7,0.1,1.7,0.1,2.4c0,0-0.1,0-0.1,0.1c0,0.1,0,0.3,0,0.5c0.6,0.1,0.3-0.8,0.3-1.3c0-0.1,0.2,0,0.2-0.1
	c0-0.1,0-0.1,0-0.2c-0.1,0-0.1-0.1-0.2-0.1c-0.1-0.1,0-0.1,0-0.3c0-0.1,0.2-0.1,0.2-0.2c-0.4-0.7-0.1-1.7-0.1-2.5
	c0.1,0,0.1-0.1,0.2-0.2V16c-0.1,0-0.3-0.2-0.2-0.3h0.1c0-0.1,0-0.1,0-0.2c0.1,0,0.1-0.1,0-0.2h0.1v-0.1c0.1,0,0.1,0,0.1,0.1
	c0,0.3,0.1,0.7,0.1,1c0,0.1-0.1,0.2-0.1,0.2c0,0.2,0.1,0.4,0,0.6h0.2v0H3.6v0.1c0.1,0,0.1,0,0.1-0.1h0.1v-0.1c0.2,0,0,0.5,0,0.5
	c0,0.2,0,0.4,0,0.6c0,0,0.1,0,0.1,0.1c0,0.3,0,0.5,0,0.8c0,0-0.1,0-0.1,0.1c-0.1,0.5,0.1,1,0,1.4c0,0.1,0.1,0.3,0.3,0.3
	c0.1,0,0.3,0,0.4-0.1c0.1,0.1,0.4,0,0.2,0.3c-0.4-0.1-0.8-0.1-1.1,0c-0.1-0.1-0.3-0.1-0.4,0c-0.1,0-0.3-0.1-0.3,0.1s0.3,0,0.5,0
	c0.2,0,0.1,0.3,0,0.3c-0.1-0.1-0.6,0-0.7-0.1c0,0.1-0.2,0.1-0.2,0.2c0-0.1-0.1,0-0.1-0.1v-0.1c0.1-0.1,0.1-0.3,0.2-0.4h0.2
	c0.2-0.3,0.1-0.9,0.1-1.3c0,0,0.2-0.3,0-0.4c0-0.1-0.1-0.3,0-0.4v-1c0.1,0,0-0.1,0.1-0.1c0-0.2,0-0.6-0.1-0.8C2.7,17,2.8,17,2.8,17
	c0-0.2-0.1-0.6,0.1-0.7c-0.1-0.4-0.2-0.8-0.2-1.3c0-0.4,0-0.8-0.3-0.9c-0.1-0.3-0.1-0.6-0.1-1h0.1v0c0.1,0,0.1,0.1,0.3,0.2
	c0.2,0,0.4,0,0.6-0.1c0.3,0,0.6,0,0.9,0c0,0,0.1-0.1,0.1-0.2c-0.1,0-0.2,0-0.4-0.1c-0.1,0.1-0.2-0.1-0.3,0.1
	c-0.2-0.3-0.7-0.3-1.1-0.2c0,0.1,0,0.2-0.1,0.2h0c-0.1,0-0.2-0.2-0.3-0.2c0-0.4-0.3-0.4-0.3-0.7v-0.1c0.2,0.1,0.5,0.1,0.8,0.1
	c-0.2-0.5,0.5-0.3,0.6-0.5c0,0.1,0.4,0,0.5,0.1c0.2,0,0.1,0.1,0.2,0.1c0.2,0,0.5,0,0.7-0.1c0.1,0.2,0.3,0,0.6,0
	c0.2-0.2,0.6,0.1,0.9,0c0-0.2,0.2-0.2,0.3-0.3l-0.6-0.2c-0.1-0.1,0.1-0.1,0-0.3c-0.2,0-0.2,0.3-0.4,0.3V11c-0.1,0-0.2,0-0.3,0v0
	c-0.2,0-0.3,0-0.4-0.2c0-0.1,0-0.2,0.1-0.3c-0.2-0.1,0-0.4-0.2-0.4c-0.2,0,0,0.2-0.1,0.2H4.2c0-0.2-0.1-0.3-0.1-0.5
	c-0.2,0-0.4-0.2-0.6,0V10c-0.2,0.1-0.2,0.6,0,0.8c0.2,0,0.3,0,0.4,0.1v0.1h0C4,11,4.1,11,4.1,11v0c-0.3,0.1-0.6,0.1-0.8,0.1
	c-0.4,0.1-0.9,0.1-1.4,0V11c0.1-0.1,0.2-0.2,0.2-0.4c0.2,0,0.2-0.1,0.3-0.1c0.1,0,0.3,0,0.4,0c0.1-0.1,0.5-0.4,0.3-0.7
	C2.9,9.7,2.8,9.6,2.7,9.4c0-0.1,0-0.2,0-0.2C2.8,9.1,2.8,9.1,2.9,9c0-0.3-0.3-0.4-0.5-0.5C2.2,8.4,2.3,8.1,2.1,8
	C2,7.6,1.8,6.6,2.2,6.3c0-0.3,0-0.7,0.3-0.8c0-0.4,0.2-0.6,0.2-0.9C2.8,4.4,3.1,4.3,3.1,4c0.1,0,0-0.1,0.2-0.1
	c0.2,0,0.1,0.3,0.3,0.2C3.5,4.4,3.3,4.4,3.3,4.8c-0.1,0,0,0.1-0.2,0.1C3,4.9,3.3,5,3.2,5.1c0,0.1-0.1,0.4-0.3,0.6
	C2.9,6,3,6.4,2.7,6.7c0,0,0.1,0,0.1,0.1h0v0.1c-0.1,0.1,0,0.2,0,0.2c-0.2,0.3-0.2,0.7,0,1H3c0.2-0.3,0.2-0.6,0.2-0.9
	c0.2,0,0.2,0.2,0.4,0.2c0,0.3,0,0.6,0,0.8c0,0.1,0.2,0,0.1,0.1C3.9,8.1,4.2,8.1,4.4,8c0-0.2,0.1-0.5,0.2-0.7C4.4,7,4.6,6.4,4.4,6.2
	c0.1-0.3,0.1-0.6,0-1C4.6,5,4.5,4.7,4.5,4.3C4.3,4.3,4,4.3,3.9,4.1c0.1-0.4,0.3-1,0-1.4c0-0.5,0.1-0.8,0.1-1.3C4,1.3,3.9,1.2,4,1
	C4,1,4,0.7,4.1,0.5c0,0,0,0,0.1,0c0,0,0.2-0.2,0.2-0.3c0.2,0,0.4,0.1,0.7,0.1c0.1,0.2,0.1,0.4,0.2,0.5c0.1,0.3-0.1,0.4-0.1,0.7H5.1
	c0-0.1-0.2-0.1-0.1-0.2c0-0.1,0.2-0.4,0-0.5c0,0.1,0,0.1-0.1,0.1c-0.1,0-0.1,0.2-0.1,0.3c0,0.2,0.1,0.4,0.2,0.5
	c0-0.1,0.1-0.1,0.1-0.1h0.1c0,0.2,0,0.4,0,0.5H5.1C4.9,2.1,5,2,4.9,1.9c-0.1,0.1,0,0.4,0,0.5c0,0,0,0,0,0s0,0,0,0h0.1
	c0,0.3,0.1,0.6,0,0.8v0H5c0-0.1,0-0.4-0.1-0.4c0,0.1,0,0.3,0,0.4H5h0.1c0.1,0.2,0.1,0.5,0.2,0.6c0.2,0,0.4,0,0.6,0
	C5.8,4,6.1,4,6.2,4.2c0.2,0.2,0.2,0.5,0.4,0.6c0,0.3,0.2,0.5,0.2,0.8C6.9,5.9,6.9,6.2,7,6.5C7.1,7,7.1,7.5,7,8
	C6.9,8,6.8,8.1,6.8,8.3c0,0.2-0.2,0.1-0.2,0.2C6.4,8.6,6.2,8.8,6,9c0,0.2-0.1,0.4,0.1,0.5C6,9.5,6,9.7,6,9.8c-0.4,0-0.2,0.6-0.3,0.9
	C5.8,10.6,6,10.6,6,10.8h0c0,0.1-0.1,0.1-0.1,0.2c0,0.1,0.6,0.1,0.5-0.1h0.1v0c0.3,0.1,0.8,0.1,1.2,0.3c0.1,0.2,0.1,0.5,0,0.8
	c-0.2,0-0.3,0.1-0.4,0.2c0-0.1,0-0.1-0.1-0.1c0.4-0.3,0.1-0.8-0.5-0.6c0.1,0.3,0.4,0.3,0.5,0.5c0,0.1-0.2,0.2,0,0.2
	c-0.1,0.1-0.2,0.2-0.4,0.3c0,0.2-0.2,0.3-0.3,0.3c-0.1,0.2-0.2,0.3-0.3,0.5c0.2,0.3,0.1,0.7-0.1,1c-0.1,0-0.2,0-0.1-0.1
	c-0.1,0.4-0.2,0.7-0.2,1.1C5.5,15.2,5.5,15,5.4,15c-0.1,0-0.2,0.1-0.3,0.2c-0.1,0,0.1,0.1,0.2,0.2c-0.1,0.2,0.1,0.4,0,0.7
	c0.4,0.2,0.2-0.5,0.4-0.6c0.2,0.1,0.1,0.6,0.1,0.8l-0.1,0.1v0.5c0.1,0.1,0.2,0.5,0,0.6s0-0.6-0.2-0.7c-0.2,0.1,0.1,0.5-0.1,0.6
	c0,0.1,0.1,0.1,0.1,0.2c-0.1,0.4-0.1,0.7,0,1.1c-0.2,0,0,0,0,0.1c-0.1,0-0.3,0-0.3,0.1c-0.2-0.1-0.1-0.4-0.2-0.6
	c-0.1-0.2,0,0.1-0.2,0.1c0,0.4,0,0.7,0.1,1.1c0.1-0.2,0.3-0.6,0.5-0.3c-0.1,0.3-0.1,0.5-0.1,0.8c0,0.1,0.1,0.1,0.2,0.1
	c0.1,0,0.2-0.2,0.2-0.3c0.3,0.1-0.1,0.4,0.1,0.6V21C5.8,21,6,21,6.1,21c0.1,0.1,0.1,0.3,0.1,0.5c0,0,0.1,0.1,0.1,0.2
	c0.2,0,0.2,0.1,0.3,0.2c0,0.2,0,0.4-0.1,0.6c0,0.1-0.2,0.1-0.2,0.1c0,0.1,0,0.2-0.1,0.3S6.1,22.9,6.1,23c0,0.1-0.2,0-0.4,0
	s0,0.2-0.1,0.2s0.1,0.1,0.1,0.2c-0.2,0.4,0.1,1.1-0.1,1.5c0.1,0.4,0.1,0.8,0.1,1.2c-0.1-0.1-0.3-0.1-0.3-0.2c-0.1,0,0,0.1-0.1,0.1
	c-0.1,0,0.2,0,0.2,0.2c0.1,0,0.1-0.1,0.2-0.1c0,0.5,0,1.1,0.4,1.3c0.2,0,0.5,0,0.7,0c0.1,0.2,0.1,0.5,0,0.8
	c-0.1,0.1-0.3,0.2-0.4,0.3H6c-0.1,0.1-0.1,0.2-0.2,0.3C5.9,29,6.1,29,6.2,29.2c0.1,0.1,0.2,0.1,0.2,0.2c0,0.1,0,0.2,0.1,0.3
	s0-0.2,0.1-0.2c0.2,0,0.3,0.1,0.5,0.3c0.2,0,0.1-0.1,0.2-0.1c0.1,0,0.1,0.2,0.3,0.1c0.1,0.1,0.2,0.2,0.4,0.2c0,0.5,0.5,0.7,0.3,1.3
	c-0.3,0.1-0.6,0.2-0.6,0.5c-0.1,0-0.1,0-0.1,0.1c-0.1,0,0-0.2-0.2-0.2s0,0.2,0,0.3c-0.2,0-0.3,0.1-0.4,0.2c-0.1,0-0.2,0-0.3,0.1
	c-0.1,0-0.1-0.1-0.1-0.2H6.2l-0.3,0.7c0,0.1,0.1,0,0.2,0h0.1c0,0.1,0,0.2-0.1,0.2c0,0,0.1,0.1,0.1,0.2c0.3,0.1,0.4,0.5,0.7,0.7
	c0,0.1-0.2,0.1-0.1,0.3c-0.2,0.1-0.3,0.2-0.7,0.2c-0.1,0.2-0.2,0.4-0.3,0.6H5.7v-0.1c0,0.1,0,0.1,0,0.2c0,0.2,0.1,0.5,0,0.6
	c-0.1,0.1,0-0.1-0.1-0.1c0.1,0,0.1-0.1,0.1-0.2c-0.1,0.1-0.1,0.5-0.1,0.6c0,0.1,0-0.2,0.2-0.2c0.2,0.1-0.1,0.4,0,0.6
	c0,0,0,0.1-0.1,0.1c0.2,0.2,0,0.5-0.1,0.6s0.1,0,0.2,0s0,0.2,0,0.3c0,0.1-0.2-0.1-0.3-0.1v0.2c0,0.1,0.2,0.1,0.3,0.1
	c0,0.2,0,0.4,0.1,0.6l-1.3,0.2c-0.1,0-0.3,0-0.4-0.1v0c0-0.1,0-0.1,0.1-0.1c0.2-0.7-0.2-1.3,0-2c0-0.1,0-0.2,0-0.3
	c0-0.1,0.1,0,0.1-0.1c0-0.1-0.2-0.3-0.3-0.5c0-0.2,0-0.4,0.1-0.6C4,34.3,4,34,3.8,33.9c0-0.2-0.1-0.3-0.3-0.3c0-0.1-0.1-0.1-0.1-0.2
	c0.1-0.2,0.3-0.3,0.4-0.5c0-0.2,0-0.3-0.1-0.4s0.1-0.1,0.1-0.2h0.1c0,0.1,0.2,0.2,0.3,0.2c0.1,0.1,0,0.2,0.1,0.2
	c0.1-0.3,0.1-0.6,0-0.9C4.2,32,4.2,32.2,4,32.2c0,0.1,0,0.1,0,0.1h0c-0.1-0.1-0.1-0.2-0.2-0.3c-0.3-0.1-0.7-0.1-1.1-0.1V32v0
	c0,0-0.1,0-0.1,0c0,0.1,0,0.2,0.1,0.2c0,0,0,0,0-0.1c0.2,0.1,0.2,0.3,0.2,0.6H2.6c0,0.1,0.2,0,0.2,0.1c0.1,0.1,0.1,0.3,0.1,0.5
	c-0.2,0.1-0.3,0.2-0.6,0.2c0,0.2-0.2,0.1-0.2,0.3c0.2-0.1,0.7-0.3,0.8,0.1H2.7c0,0.1-0.1,0.1,0,0.2H2.6v0c0.2,0,0.3,0,0.5-0.1
	c0,0.1,0.1,0.2,0.2,0.2c0.1,0,0.2-0.1,0.2-0.2c0,0.1,0.1,0.2,0,0.3c-0.1,0,0-0.1-0.2-0.1c-0.2,0,0,0.1,0,0.3h0.3
	c0,0.2,0.1,0.2,0,0.4c-0.1,0-0.2,0.1-0.2,0.2c0.2,0,0.1-0.2,0.3-0.2c0,0.4,0,0.8-0.1,1.2c-0.1-0.1,0-0.4-0.2-0.4
	c-0.2,0-0.1,0.2-0.3,0.2c-0.1,0.3,0.1,0.6,0,0.9c0,0,0,0-0.1,0.1c0,0.2,0,0.4,0,0.6c-0.1,0.1-0.1,0.3,0,0.4c0,0,0.1,0.1,0.1,0.2
	c0,0.1,0.2,0,0.3,0c0.1,0,0.1-0.2,0.3-0.2c0.1,0,0.1,0.2,0.2,0.3v0.1c-0.3,0.1-0.7-0.1-0.7,0.2L1.8,38.5z M5.9,41.6v0.2
	C5.8,41.9,5.8,41.6,5.9,41.6z M5.2,40.6v0.3c-0.2,0-0.4-0.1-0.6-0.1C4.8,40.4,5.2,40.8,5.2,40.6z M3.9,40.7c0,0.2-0.2,0.1-0.4,0.1
	C3.5,40.5,3.8,40.6,3.9,40.7z M6.5,37.9c0,0.1,0.1,0.1,0.1,0.2l-0.1,0.1v0.1c-0.9,0.1-1.8,0.1-2.7-0.1v-0.1V38C3.9,37.9,4,38,4,37.9
	H6.5z M6.2,42h-2c0,0,0-0.1,0-0.1c-0.2,0-0.2,0.1-0.3,0.1H3.6c-0.1-0.2,0.1-0.4,0-0.5c-0.2,0.1-0.3,0.3-0.4,0.5H1.7
	c0-0.2-0.1-0.5-0.2-0.7c-0.1-0.2-0.2-0.4-0.3-0.6c-0.3-0.3-0.6-0.5-1-0.7c0-0.1,0-0.2-0.1-0.1c0-0.2,0-0.5,0-0.7
	c0.3-0.3,0.5-0.6,0.6-1c0.2,0,0.3-0.1,0.5-0.1c0.2,0,0.1,0.2,0.2,0.3s0-0.2-0.1-0.2c-0.1,0,0.1-0.2,0.2-0.3h1.3
	C2.9,37.9,2.9,38,3,38h0.6c0,0,0.1,0,0.1,0l-0.1,0.1v0.1c-0.4,0.1-1.2-0.2-1.2,0.5l-0.1,0.1v0.1C2,39.1,1,38.7,0.7,39.2
	c0,0.2,0.2,0.2,0.3,0.4c0.7-0.1,1.7,0.1,2.2-0.2c0.2,0,0.4,0,0.6,0.1c0-0.2,0.3-0.1,0.6-0.2c0.2-0.2,0.7-0.2,0.9,0
	c0.2-0.1,0.4-0.2,0.6-0.1C5.9,39,6,38.8,6,38.7c0.3-0.1,0.3,0.2,0.6,0.1c0-0.1,0.1-0.4,0-0.5l0.1-0.1v-0.1c0.2,0,0.4,0,0.6,0
	c0.1,0.4-0.4,1,0.1,1.4c0.2,0,0.1-0.3,0.2-0.3c0.1,0,0.2,0.2,0.2,0.5c-0.2,0-0.2,0.1-0.4,0.1c0,0.4,0,0.7,0,1.1
	C7,41,7,41.5,6.4,41.4C6.3,41.6,6.2,41.8,6.2,42z"/>
</svg>
