<?xml version="1.0" encoding="utf-8"?>
<!-- Generator: Adobe Illustrator 22.1.0, SVG Export Plug-In . SVG Version: 6.00 Build 0)  -->
<svg version="1.1" id="Layer_1" xmlns="http://www.w3.org/2000/svg" xmlns:xlink="http://www.w3.org/1999/xlink" x="0px" y="0px"
	 preserveAspectRatio="none" viewBox="0 0 9 42" style="enable-background:new 0 0 9 42;" xml:space="preserve">
<style type="text/css">
	.st0{fill:#FFF5E1;}
	.st1{fill:#7C6742;}
</style>
<polygon class="st0" points="2.1,0 0.7,2.8 3,4 2.6,7.2 2.2,8.2 2.6,9.8 0.7,11.1 1.1,13.4 2.5,14.4 3.1,16.3 2.8,19.4 2.2,20.1 
	3.1,21.1 2.9,28.4 2,29.2 1.7,29.9 2.3,31 3.2,32.6 2.3,34 2.2,35.7 3.9,39.3 4.1,40.6 4.8,41.1 6.1,37.3 6.6,34.9 5.6,33.1 
	5.4,32.1 6.3,30.6 7.1,30.7 6.2,29.6 5.8,28.3 5.7,21 6.2,20.1 5.6,18.8 5.6,14.1 6.4,13.5 7.8,11.6 6.9,10.5 5.6,9.8 6.1,8.5 
	5.3,5.4 5.3,4.1 6.9,3.6 6.7,1.4 5.9,0.2 "/>
<path class="st1" d="M2.9,7.7C3,7.7,3,7.7,2.9,7.7C3,7.6,3,7.6,2.9,7.5C2.7,7.5,3,7.6,2.9,7.7L2.9,7.7z M3,7.2C3,7,3,6.9,3,6.7
	C3,6.9,2.9,7,2.9,7.2C2.9,7.2,3,7.2,3,7.2L3,7.2z M5.5,25.7v-0.2H5.3v0.2H5.5L5.5,25.7z M6.6,35.6C6.6,35.5,6.6,35.5,6.6,35.6
	L6.6,35.6L6.6,35.6L6.6,35.6L6.6,35.6z M6.2,36.3C6.2,36.3,6.2,36.3,6.2,36.3L6.2,36.3L6.2,36.3L6.2,36.3L6.2,36.3z M2.6,36
	c0-0.1,0-0.2,0-0.2C2.4,35.7,2.5,36,2.6,36z M3.7,31c0-0.1,0-0.1,0-0.2c0-0.1-0.2,0.1-0.2,0.2H3.7L3.7,31z M5.6,34.9L5.6,34.9
	c-0.1,0.1-0.2,0.4,0,0.3C5.7,35.2,5.6,35,5.6,34.9L5.6,34.9z M5.6,33.6c0.1,0,0.1-0.1,0.1-0.2C5.7,33.4,5.6,33.5,5.6,33.6L5.6,33.6z
	 M5.6,37.5h0.2c0.1-0.2-0.1-0.1-0.1-0.2C5.7,37.2,5.6,37.4,5.6,37.5L5.6,37.5z M5,37.6c0.2,0,0.2-0.3,0.3-0.5
	c0.2-0.3,0.4-0.7,0.4-1.1c-0.1-0.2,0-0.3,0-0.5c0-0.2-0.3,0-0.2-0.1c-0.2-0.1,0,0.1-0.2,0.1c0,0.4,0,0.8-0.3,1c0,0.1,0,0.2-0.1,0.2
	C5.1,37,4.9,37.3,5,37.6L5,37.6z M4.8,36.7H4.7v0.1C4.8,36.8,4.8,36.8,4.8,36.7L4.8,36.7z M4.1,33.5c0-0.2-0.2-0.2-0.2-0.3
	c0-0.1,0,0.1-0.1,0.2C3.8,33.5,3.9,33.5,4.1,33.5z M3.3,34C3.3,33.9,3.3,33.9,3.3,34L3.3,34C3.3,33.9,3.3,33.9,3.3,34L3.3,34L3.3,34
	z M4.8,31.6c0,0.1-0.1,0.1-0.1,0.3c0,0.2,0.1-0.2,0.3-0.1v-0.2L4.8,31.6L4.8,31.6z M5.4,32C5.3,32,5.3,32,5.4,32L5.4,32
	C5.4,32.1,5.4,32,5.4,32L5.4,32z M4.6,32.9c-0.1-0.1-0.2-0.1-0.2-0.3c-0.4-0.1-0.7,0.1-1.2,0c-0.2,0.2,0,0.4,0.1,0.5
	c0.3,0,0.5,0,0.8,0.1c0.1-0.1,0.4-0.1,0.6-0.1s0.1,0.1,0.1,0.1c0.1,0,0.5,0,0.6-0.1c0.1-0.2,0.2,0,0.3,0.1c0.1-0.1,0.2-0.2,0.2-0.4
	C5.4,32.7,5.1,33.1,4.6,32.9L4.6,32.9z M6.1,30C6.1,30,6,29.9,6,30.1C6,30.2,6.2,30.1,6.1,30z M4.7,24c0,0.1,0.1,0.3,0.2,0.3
	C5.2,24.3,4.9,23.7,4.7,24z M4.9,25.5c-0.1,0-0.2,0-0.2,0c0,0.1,0,0.1,0,0.2C4.9,25.7,4.9,25.6,4.9,25.5L4.9,25.5z M4.7,27L4.7,27
	C4.8,26.9,4.8,26.9,4.7,27L4.7,27L4.7,27L4.7,27z M5.1,24.6c0-0.1-0.1,0-0.1-0.2c0,0-0.1,0-0.1,0c0,0.1,0.1,0.1,0.1,0.3
	C5,24.6,5.1,24.7,5.1,24.6L5.1,24.6z M5.3,27.2H5.2c-0.1,0.1,0,0.3,0.2,0.3C5.6,27.5,5.3,27.3,5.3,27.2z M5.6,30
	c0.1,0,0.2,0,0.2-0.1c0-0.1-0.1-0.1-0.2-0.1C5.4,29.9,5.6,29.9,5.6,30L5.6,30z M5.2,29.6L5.2,29.6c0-0.1,0.1-0.1,0.1-0.1
	c0,0,0,0,0-0.1h0.1H5.3H5.2C5.2,29.5,5.2,29.6,5.2,29.6L5.2,29.6z M4.6,29.9H4.3C4.3,29.9,4.6,30.1,4.6,29.9z M4.3,28.3
	c-0.1,0-0.4-0.1-0.5,0c-0.1,0-0.1-0.1-0.2,0c-0.1-0.2-0.4-0.1-0.5-0.2c0,0.2-0.3,0.1-0.2,0.3c0.5,0,0.9,0,1.4,0s1.1,0.1,1.5-0.1
	c0,0,0-0.1,0-0.1C5.4,28.3,4.7,28.2,4.3,28.3L4.3,28.3z M4.8,21.6H4.7c0,0.2,0,0.5,0.1,0.5C4.9,22,4.8,21.8,4.8,21.6L4.8,21.6z
	 M5.4,21.6L5.4,21.6C5.4,21.5,5.3,21.7,5.4,21.6z M5.3,21c-0.1,0,0,0.2-0.2,0.2c0.1,0,0.1,0.1,0.2,0.1C5.4,21.1,5.3,21.1,5.3,21z
	 M5.5,15.3L5.5,15.3L5.5,15.3L5.5,15.3L5.5,15.3L5.5,15.3z M5.4,16.3c0-0.1,0,0.1,0,0.1C5.4,16.4,5.4,16.3,5.4,16.3z M5.5,18.3v-0.1
	H5.4C5.4,18.3,5.4,18.3,5.5,18.3L5.5,18.3L5.5,18.3z M5.5,17.6c0-0.1,0-0.2,0-0.3s-0.1,0.1-0.2,0.2C5.2,17.5,5.3,17.6,5.5,17.6
	L5.5,17.6z M4.9,19.1c0-0.2,0-0.5,0.1-0.6s-0.2,0-0.1-0.1c-0.3,0-0.1,0.4-0.3,0.5C4.7,19,4.8,19.1,4.9,19.1z M4.5,16.7
	c0.1,0,0-0.1,0.2-0.1l0.1,0.1c0,0.1-0.1,0.1-0.1,0.1c0,0.2,0,0.3,0,0.5c0,0.2-0.1,0-0.1,0.1c0,0.1,0.1,0.2,0.2,0.3
	c0.1,0.1,0.1-0.1,0.2-0.2c-0.1-0.3,0.2-0.5,0-0.6C5,16.9,5,17,5,16.9s0-0.3,0-0.5c-0.1-0.1-0.2-0.1-0.3,0
	C4.6,16.5,4.5,16.6,4.5,16.7L4.5,16.7z M4.6,16.1c0.2,0,0.3,0,0.5,0c0.2-0.3-0.2-0.3-0.5-0.3C4.6,15.9,4.6,16,4.6,16.1L4.6,16.1z
	 M5.5,13.6c-0.1,0.1-0.2,0.1-0.4,0.1c0,0.2-0.1,0.2-0.1,0.3c0,0.1,0-0.1-0.1-0.1s0,0.1-0.1,0.1c0,0.5-0.3,0.6-0.1,1
	c0.1,0,0.3,0,0.4,0c0,0,0,0.1-0.4,0.2c0,0.1,0,0.1,0,0.2h0.5c0-0.1-0.1-0.1-0.1-0.3c0,0,0-0.1,0.1-0.1c0-0.4,0.1-0.6,0.4-0.6
	c0-0.1,0-0.2,0.1-0.2c0.1,0-0.1,0-0.1-0.1C5.8,14,6,14.4,6.2,14.2c0-0.1,0-0.3-0.1-0.4c-0.1,0.2-0.1-0.1-0.3,0
	C5.8,13.7,5.7,13.6,5.5,13.6L5.5,13.6z M7,11.8L7,11.8L7,12C7.1,12,7.1,11.9,7,11.8L7,11.8z M7.2,10.8c0.1,0,0.1-0.2,0.1-0.3
	c-0.1,0-0.3,0-0.4,0C7,10.6,7.2,10.7,7.2,10.8L7.2,10.8z M3.9,8.4C3.9,8.5,3.9,8.5,3.9,8.4c0,0.1,0.2,0.3,0.3,0.4
	c0.1-0.1,0.2-0.2,0.3-0.1C4.5,8.4,4.3,8.4,3.9,8.4L3.9,8.4z M4.6,4.8c0,0.2,0.1,0.2,0,0.5c0.2,0,0.2-0.2,0.2-0.4
	C4.7,4.9,4.6,4.7,4.6,4.8L4.6,4.8z M4.8,4c0,0.3-0.1,0.5-0.1,0.7c0.1,0,0.1,0.1,0.2,0C5,4.5,4.9,4.2,5,4H4.8z M5.4,4.2L5.4,4.2
	L5.4,4.2L5.4,4.2L5.4,4.2z M5.3,5.3L5.3,5.3L5.3,5.3L5.3,5.3L5.3,5.3z M6.1,8.5c0-0.2-0.3-0.1-0.4-0.2C5.3,8.3,5,8.1,4.8,7.9h0
	c0,0,0-0.1,0-0.1H4.5v0.1c0.1,0,0.1,0,0.2,0V7.8h0C4.6,8,4.9,8.2,4.9,8.4c0.4,0,0.4,0.3,0.8,0.3C5.8,8.6,6,8.6,6.1,8.5L6.1,8.5z
	 M5.7,10.1H5.6c0,0.1,0,0.2,0.1,0.2S5.8,10.2,5.7,10.1L5.7,10.1z M5.6,9.9L5.6,9.9L5.6,9.9c0.1-0.1,0.2-0.1,0.2-0.1
	c0-0.1-0.1,0-0.1,0H5.6L5.6,9.9L5.6,9.9L5.6,9.9z M4.9,10.7C5,10.7,5,10.6,5,10.6c0,0,0.4,0,0.6,0.1c0.2-0.3,0.8,0.1,1.1-0.2
	c-0.2-0.2-0.6-0.1-1-0.2c-0.1,0-0.1,0.1-0.2,0.1s-0.1-0.1-0.1-0.1c-0.1,0-0.4,0.1-0.5,0.1C4.7,10.6,4.9,10.5,4.9,10.7L4.9,10.7z
	 M5,9.5c0-0.2,0.2-0.1,0.2-0.2c-0.1,0.1-0.5,0-0.6,0.2C4.5,9.7,4.9,9.5,5,9.5L5,9.5z M4,11.6L4,11.6C3.9,11.8,4.1,11.8,4,11.6
	L4,11.6z M3.2,10.6c0.1,0,0.6,0.2,0.7,0c0.3,0,0.4,0.2,0.7,0.1v-0.1c0-0.1-0.1-0.1-0.3-0.1c-0.1,0-0.2-0.1-0.2,0
	c0-0.1-0.1-0.1-0.3-0.1c-0.3,0.1-0.5,0.1-0.8,0.1C3,10.7,3.1,10.6,3.2,10.6L3.2,10.6z M1.9,11.2c0.2,0,0.4,0,0.4-0.1
	C2.2,11,1.9,11,1.9,11.2z M2.3,10.6c-0.2,0-0.4-0.1-0.5,0c-0.1-0.1-0.4-0.1-0.4,0.1C1.6,10.5,2,10.6,2.3,10.6
	c0.2,0.1,0.3,0.1,0.5,0.1C2.8,10.4,2.4,10.4,2.3,10.6L2.3,10.6z M1.8,3.5C1.9,3.6,1.9,3.7,2,3.8c0.1,0,0.2,0.1,0.3,0
	c0.1-0.1,0.1-0.1,0.1-0.2c0.1,0,0,0.1,0,0.1c0.1,0.2,0.2,0.4,0.2,0.6c-0.2,0.3,0,0.8-0.1,1c0.2,0.4-0.1,0.7-0.1,1.2
	C2.4,6.7,2.4,6.8,2.3,6.9c0.2,0.2,0.2,0.9-0.1,1C2,7.9,2,7.8,1.9,7.8S1.7,8,1.6,8C1.4,8.4,1.7,8.6,1.8,8.9c0.3-0.1,0.3,0,0.6,0
	c0,0.3-0.3,0.4-0.3,0.8c-0.3,0.4-0.7,0.6-1.2,0.6c-0.1,0.3-0.4,0.6-0.7,0.6C0,11-0.1,11.3,0.1,11.5c0.2,0.1,0.5,0.1,0.5,0.4
	c0.2,0.1,0.4,0.1,0.4,0.3c0.4,0,0.5,0.2,0.7,0.3c0.2,0.1,0.2,0,0.2-0.2c-0.4,0.1-0.3-0.5-0.6-0.6c0-0.1,0.2,0,0.1-0.2
	c0.1,0,0.2,0,0.3,0.1c0-0.1,0.1,0,0.2-0.1c0.2,0,0.5,0.1,0.7,0.1c0-0.1,0.1,0,0.1-0.1c0.1,0.1,0.4,0.1,0.6,0.1V12
	c0.1,0,0.1,0.1,0.2,0.1c0.1,0,0.4-0.2,0.7-0.1c0.1,0,0,0.2,0,0.2s0.2-0.1,0.3-0.1c0.1-0.2-0.1-0.1-0.1-0.2s0.1-0.1,0.1-0.2
	c0.2,0,0.3,0,0.5,0.1c0.2,0,0.3-0.2,0.5-0.2c0-0.1,0-0.2,0-0.4c0.1,0.1,0.1,0.4,0.2,0.5c0.3,0,0.5,0,0.7-0.2
	c0.2,0.1,0.3,0.2,0.6,0.2c0,0.1-0.1,0.2-0.2,0.2c0,0.1,0,0.3-0.2,0.4c-0.2,0,0.1-0.2,0-0.4c-0.2,0-0.2,0.1-0.3,0.2
	C6,12.1,5.9,12,5.8,11.9c-0.1,0,0,0.1-0.1,0.1c-0.1,0,0,0.1,0.1,0.2c0.1,0-0.3,0-0.4,0.1c-0.1,0.1-0.1,0.1-0.1,0.2
	c0,0-0.1,0.1-0.1,0.2c0,0.1,0,0.1-0.1,0.1v0.1H5c0,0,0,0.1,0,0.1s-0.1-0.2-0.2-0.2c-0.1,0,0,0.3,0,0.4c-0.2,0.1-0.2-0.3-0.3-0.4H4.4
	c-0.1,0.1-0.2,0.3-0.2,0.4c-0.5,0-0.5,0.5-1,0.3c0,0.1-0.1,0.1-0.1,0.2c-0.1-0.1-0.2-0.1-0.3-0.1H2.7c0,0.2,0.1,0.5,0.3,0.6
	c0.2,0.2,0.4,0.2,0.7,0.2c0.2-0.3-0.3-0.4-0.1-0.7c0.3-0.1,0.7,0,1,0.2c0,0.1,0,0.2-0.1,0.3c0.2,0.2,0.1,0.5,0,0.8
	c-0.1,0.1-0.2,0.2-0.4,0.2c0,0.1,0,0.2,0.1,0.1c0.1,0.4,0,0.9,0.1,1.3c0,0.1-0.1,0.1-0.1,0.2c0.1,0.5,0.1,1.1,0,1.6
	c-0.2-0.1,0-0.3,0-0.4H4c-0.1,0.3-0.1,0.7-0.1,1c-0.3,0-0.5,0-0.8,0c0,0,0-0.2,0-0.3c0.1,0,0.1-0.1,0.2-0.1c0-0.3,0.1-0.9-0.2-1
	c0-0.1,0.1-0.1,0.1-0.2c0-0.1-0.1-0.1-0.1-0.1c0,0-0.1-0.2-0.1-0.4c0.1-0.1,0.1-0.1,0.2-0.2c0.1-0.3-0.2-0.6,0-0.8
	c-0.1,0,0-0.2-0.1-0.3H3H2.9v-0.1H3h0h0c0.1-0.1,0-0.3,0-0.4c-0.2-0.2-0.3-0.5-0.6-0.7c0-0.1,0-0.2,0-0.3c-0.2-0.2-0.3,0-0.5,0.1
	C1.8,14.3,2,14,1.9,14s-0.2,0-0.3,0c-0.1,0,0,0-0.1,0c-0.1-0.2-0.3-0.3-0.4-0.6H0.7c-0.2,0.3-0.2,0.5-0.2,0.8
	c0.1,0.1,0.2,0.2,0.3,0.3c0.2,0,0.3,0,0.5,0c0.1-0.2,0.5,0,0.6,0.1c0.1,0.1,0.1,0,0.3,0c0.1,0,0.1-0.1,0.2-0.1
	c0.4,0.2,0.3,0.6,0.3,1c0,0.1,0,0,0.1,0.1c0.1,0.3,0,0.7,0,1c0,0.1,0,0.1,0.1,0.1c0.1,0.6-0.2,1.4,0,1.9c0,0,0,0.1,0,0.1
	c-0.1,0.1-0.1,0.2-0.3,0.2c0,0.2-0.1,0.2-0.2,0.4c-0.2,0.1-0.3,0.2-0.4,0.4C1.8,20,2,20.3,2,20.6c0.1,0,0-0.1,0.1-0.1v-0.1
	c0-0.1,0-0.2,0-0.3c0.2,0,0.3-0.1,0.4-0.1c0.4,0.1,1.1-0.1,1.6,0.1c0.1,0,0.2-0.1,0.4-0.1c-0.1,0.1-0.1,0.3-0.1,0.4
	c-0.2,0-0.3,0-0.4,0.1c0.3,0.1,0.8,0.1,0.9-0.1c-0.2-0.1-0.1-0.4,0-0.5H5c0-0.1-0.2-0.1-0.3-0.1c-0.1,0-0.2-0.3-0.3-0.5
	c0.2,0,0.3,0,0.5-0.1c0.1,0.2,0.6-0.1,0.7,0.2c-0.1,0-0.2,0.2-0.2,0.3c0-0.1-0.1-0.2-0.1-0.3c-0.1,0-0.1,0.1-0.1,0.1
	C5.2,19.7,5.2,20,5,20V20h0c0.1,0,0.1,0.1,0.2,0.1c0.1,0,0.3,0,0.5,0c0.1-0.1,0.4-0.2,0.6-0.1s-0.1,0.3-0.1,0.5c0,0.2-0.3-0.1-0.4,0
	s0.1,0.1,0.1,0.3c-0.3,0-0.6,0-0.9,0.1c0,0.1,0,0.3-0.1,0.4c-0.1,0.1-0.1-0.1-0.3-0.1c-0.2,0-0.2,0.1-0.3,0.2s0.2,1.1-0.1,1.4
	c0.1,0.4,0.1,0.8,0.2,1.2c0,0.1-0.1,0.1-0.1,0.2s0,0.1,0.1,0.2s0,0.2-0.1,0.2c0.2,0.1,0,0.4,0,0.5c0.2,0.5,0,1.1,0,1.7
	c0.1,0.2,0.1,0.4,0.1,0.7c-0.1,0.1-0.2,0.1-0.4,0.1c0.1-0.1-0.1-0.2-0.1-0.3c0-0.1,0.1-0.3,0-0.4H3.6c0,0.1-0.2,0-0.2,0.1
	c0,0.1,0.1,0.3,0.1,0.4c-0.2,0.1-0.1,0.5-0.4,0.5c0-0.2,0-0.4-0.1-0.6c0,0,0-0.1,0-0.1c0-0.5,0.1-1,0-1.5c0,0-0.1,0-0.1-0.1
	c0-0.2,0-0.4,0-0.6c0.2-0.2,0-0.6,0-0.9c0-0.7,0.1-1.7,0.1-2.4c0,0-0.1,0-0.1-0.1c0-0.1,0-0.3,0-0.5c0.6-0.1,0.3,0.8,0.3,1.3
	c0,0.1,0.2,0,0.2,0.1c0,0.1,0,0.1,0,0.2c-0.1,0-0.1,0.1-0.2,0.1c-0.1,0.1,0,0.1,0,0.3c0,0.1,0.2,0.1,0.2,0.2
	c-0.4,0.7-0.1,1.7-0.1,2.5c0.1,0,0.1,0.1,0.2,0.2V26c-0.1,0-0.3,0.2-0.2,0.3h0.1c0,0.1,0,0.1,0,0.2c0.1,0,0.1,0.1,0,0.2h0.1v0.1
	c0.1,0,0.1,0,0.1-0.1c0-0.3,0.1-0.7,0.1-1c0-0.1-0.1-0.2-0.1-0.2c0-0.2,0.1-0.4,0-0.6h0.2v0H3.6v-0.1c0.1,0,0.1,0,0.1,0.1h0.1v0.1
	c0.2,0,0-0.5,0-0.5c0-0.2,0-0.4,0-0.6c0,0,0.1,0,0.1-0.1c0-0.3,0-0.5,0-0.8c0,0-0.1,0-0.1-0.1c-0.1-0.5,0.1-1,0-1.4
	c0-0.1,0.1-0.3,0.3-0.3c0.1,0,0.3,0,0.4,0.1c0.1-0.1,0.4,0,0.2-0.3c-0.4,0.1-0.8,0.1-1.1,0c-0.1,0.1-0.3,0.1-0.4,0
	c-0.1,0-0.3,0.1-0.3-0.1s0.3,0,0.5,0c0.2,0,0.1-0.3,0-0.3c-0.1,0.1-0.6,0-0.7,0.1c0-0.1-0.2-0.1-0.2-0.2c0,0.1-0.1,0-0.1,0.1v0.1
	c0.1,0.1,0.1,0.3,0.2,0.4h0.2c0.2,0.3,0.1,0.9,0.1,1.3c0,0,0.2,0.3,0,0.4c0,0.1-0.1,0.3,0,0.4v1c0.1,0,0,0.1,0.1,0.1
	c0,0.2,0,0.6-0.1,0.8C2.7,25,2.8,25,2.8,25c0,0.2-0.1,0.6,0.1,0.7c-0.1,0.4-0.2,0.8-0.2,1.3c0,0.4,0,0.8-0.3,0.9
	c-0.1,0.3-0.1,0.6-0.1,1h0.1v0c0.1,0,0.1-0.1,0.3-0.2c0.2,0,0.4,0,0.6,0.1c0.3,0,0.6,0,0.9,0c0,0,0.1,0.1,0.1,0.2
	c-0.1,0-0.2,0-0.4,0.1c-0.1-0.1-0.2,0.1-0.3-0.1c-0.2,0.3-0.7,0.3-1.1,0.2c0-0.1,0-0.2-0.1-0.2h0c-0.1,0-0.2,0.2-0.3,0.2
	c0,0.4-0.3,0.4-0.3,0.7v0.1c0.2-0.1,0.5-0.1,0.8-0.1c-0.2,0.5,0.5,0.3,0.6,0.5c0-0.1,0.4,0,0.5-0.1c0.2,0,0.1-0.1,0.2-0.1
	c0.2,0,0.5,0,0.7,0.1c0.1-0.2,0.3,0,0.6,0c0.2,0.2,0.6-0.1,0.9,0c0,0.2,0.2,0.2,0.3,0.3l-0.6,0.2c-0.1,0.1,0.1,0.1,0,0.3
	c-0.2,0-0.2-0.3-0.4-0.3V31c-0.1,0-0.2,0-0.3,0v0c-0.2,0-0.3,0-0.4,0.2c0,0.1,0,0.2,0.1,0.3c-0.2,0.1,0,0.4-0.2,0.4
	c-0.2,0,0-0.2-0.1-0.2H4.2c0,0.2-0.1,0.3-0.1,0.5c-0.2,0-0.4,0.2-0.6,0V32c-0.2-0.1-0.2-0.6,0-0.8c0.2,0,0.3,0,0.4-0.1v-0.1h0
	C4,31,4.1,31,4.1,31v0c-0.3-0.1-0.6-0.1-0.8-0.1c-0.4-0.1-0.9-0.1-1.4,0V31c0.1,0.1,0.2,0.2,0.2,0.4c0.2,0,0.2,0.1,0.3,0.1
	c0.1,0,0.3,0,0.4,0c0.1,0.1,0.5,0.4,0.3,0.7c-0.1,0.1-0.3,0.3-0.4,0.4c0,0.1,0,0.2,0,0.2c0.1,0.1,0.2,0.1,0.2,0.2
	c0,0.3-0.3,0.4-0.5,0.5c-0.2,0.1-0.1,0.4-0.3,0.5c-0.1,0.4-0.3,1.5,0.1,1.7c0,0.3,0,0.7,0.3,0.8c0,0.4,0.2,0.6,0.2,0.9
	c0.2,0.2,0.4,0.3,0.5,0.6c0.1,0,0,0.1,0.2,0.1c0.2,0,0.1-0.3,0.3-0.2c-0.1-0.2-0.3-0.3-0.3-0.6c-0.1,0,0-0.1-0.2-0.1
	c-0.2,0,0.1-0.1,0.1-0.2c0-0.1-0.1-0.4-0.3-0.6c-0.1-0.3,0-0.8-0.2-1c0,0,0.1,0,0.1-0.1h0v-0.1c-0.1-0.1,0-0.2,0-0.2
	c-0.2-0.3-0.2-0.7,0-1H3c0.2,0.3,0.2,0.6,0.2,0.9c0.2,0,0.2-0.2,0.4-0.2c0-0.3,0-0.6,0-0.8c0-0.1,0.2,0,0.1-0.1
	c0.2,0.2,0.5,0.2,0.7,0.3c0,0.2,0.1,0.5,0.2,0.7c-0.2,0.2,0,0.8-0.2,1.1c0.1,0.3,0.1,0.6,0,1c0.1,0.2,0.1,0.5,0.1,0.9
	c-0.2,0-0.4,0.1-0.6,0.2c0.1,0.4,0.3,1,0,1.4c0,0.5,0.1,0.8,0.1,1.3C4,40.7,3.9,40.8,4,41c0,0.1,0,0.3,0.1,0.5c0,0,0,0,0.1,0
	c0,0,0.2,0.2,0.2,0.3c0.2,0,0.4-0.1,0.7-0.1c0.1-0.2,0.1-0.4,0.2-0.5c0.1-0.3-0.1-0.4-0.1-0.7H5.1c0,0.1-0.2,0.1-0.1,0.2
	c0,0.1,0.2,0.4,0,0.5c0-0.1,0-0.1-0.1-0.1c-0.1,0-0.1-0.2-0.1-0.3c0-0.2,0.1-0.4,0.2-0.5c0,0.1,0.1,0.1,0.1,0.1h0.1
	c0-0.2,0-0.4,0-0.5H5.1c-0.1,0-0.1,0.1-0.1,0.3c-0.1-0.1,0-0.4,0-0.5c0,0,0,0,0,0s0,0,0,0h0.1c0-0.3,0.1-0.6,0-0.8v0H5
	c0,0.1,0,0.4-0.1,0.4c0-0.1,0-0.3,0-0.4H5h0.1c0.1-0.2,0.1-0.5,0.2-0.6c0.2,0,0.4,0,0.6,0c0-0.2,0.3-0.2,0.3-0.5
	c0.2-0.2,0.2-0.5,0.4-0.6c0-0.3,0.2-0.5,0.2-0.8c0.2-0.2,0.2-0.6,0.3-0.8c0.1-0.5,0.1-1,0-1.5c-0.1-0.1-0.2-0.1-0.2-0.3
	c0-0.2-0.2-0.1-0.2-0.2C6.4,33.4,6.2,33.2,6,33c0-0.2-0.1-0.4,0.1-0.5C6,32.5,6,32.3,6,32.2c-0.4,0-0.2-0.6-0.3-0.9
	C5.8,31.4,6,31.4,6,31.2h0c0-0.1-0.1-0.1-0.1-0.2c0-0.1,0.6-0.1,0.5,0.1h0.1v0c0.3-0.1,0.8-0.1,1.2-0.3c0.1-0.2,0.1-0.5,0-0.8
	c-0.2,0-0.3-0.1-0.4-0.2c0,0.1,0,0.1-0.1,0.1c0.4,0.3,0.1,0.8-0.5,0.6c0.1-0.3,0.4-0.3,0.5-0.5c0-0.1-0.2-0.2,0-0.2
	c-0.1-0.1-0.2-0.2-0.4-0.3c0-0.2-0.2-0.3-0.3-0.3c-0.1-0.2-0.2-0.3-0.3-0.5c0.2-0.3,0.1-0.7-0.1-1c-0.1,0-0.2,0-0.1,0.1
	c-0.1-0.4-0.2-0.7-0.2-1.1C5.5,26.8,5.5,27,5.4,27c-0.1,0-0.2-0.1-0.3-0.2c-0.1,0,0.1-0.1,0.2-0.2c-0.1-0.2,0.1-0.4,0-0.7
	c0.4-0.2,0.2,0.5,0.4,0.6c0.2-0.1,0.1-0.6,0.1-0.8l-0.1-0.1v-0.5c0.1-0.1,0.2-0.5,0-0.6s0,0.6-0.2,0.7c-0.2-0.1,0.1-0.5-0.1-0.6
	c0-0.1,0.1-0.1,0.1-0.2c-0.1-0.4-0.1-0.7,0-1.1c-0.2,0,0,0,0-0.1c-0.1,0-0.3,0-0.3-0.1c-0.2,0.1-0.1,0.4-0.2,0.6
	c-0.1,0.2,0-0.1-0.2-0.1c0-0.4,0-0.7,0.1-1.1c0.1,0.2,0.3,0.6,0.5,0.3c-0.1-0.3-0.1-0.5-0.1-0.8c0-0.1,0.1-0.1,0.2-0.1
	c0.1,0,0.2,0.2,0.2,0.3c0.3-0.1-0.1-0.4,0.1-0.6V21C5.8,21,6,21,6.1,21c0.1-0.1,0.1-0.3,0.1-0.5c0,0,0.1-0.1,0.1-0.2
	c0.2,0,0.2-0.1,0.3-0.2c0-0.2,0-0.4-0.1-0.6c0-0.1-0.2-0.1-0.2-0.1c0-0.1,0-0.2-0.1-0.3S6.1,19.1,6.1,19c0-0.1-0.2,0-0.4,0
	s0-0.2-0.1-0.2s0.1-0.1,0.1-0.2c-0.2-0.4,0.1-1.1-0.1-1.5c0.1-0.4,0.1-0.8,0.1-1.2c-0.1,0.1-0.3,0.1-0.3,0.3c-0.1,0,0-0.1-0.1-0.1
	c-0.1,0,0.2,0,0.2-0.2c0.1,0,0.1,0.1,0.2,0.1c0-0.5,0-1.1,0.4-1.3c0.2,0,0.5,0,0.7,0c0.1-0.2,0.1-0.5,0-0.8
	c-0.1-0.1-0.3-0.2-0.4-0.3H6c-0.1-0.1-0.1-0.2-0.2-0.3c0.1-0.2,0.4-0.2,0.4-0.5c0.1-0.1,0.2-0.1,0.2-0.2c0-0.1,0-0.2,0.1-0.3
	s0,0.2,0.1,0.2c0.2,0,0.3-0.1,0.5-0.3c0.2,0,0.1,0.1,0.2,0.1c0.1,0,0.1-0.2,0.3-0.1c0.1-0.1,0.2-0.2,0.4-0.2c0-0.5,0.5-0.7,0.3-1.3
	c-0.3-0.1-0.6-0.2-0.6-0.5c-0.1,0-0.1,0-0.1-0.1c-0.1,0,0,0.2-0.2,0.2c-0.2,0,0-0.2,0-0.3C7.2,10.1,7.1,10,7,9.9
	c-0.1,0-0.2,0-0.3-0.1c-0.1,0-0.1,0.1-0.1,0.2H6.2L5.9,9.3c0-0.1,0.1,0,0.2,0h0.1c0-0.1,0-0.2-0.1-0.2c0,0,0.1-0.1,0.1-0.2
	c0.3-0.1,0.4-0.5,0.7-0.7c0-0.1-0.2-0.1-0.1-0.3C6.5,7.9,6.3,7.7,6,7.7C5.9,7.5,5.8,7.3,5.7,7.1H5.7v0.1c0-0.1,0-0.1,0-0.2
	c0-0.2,0.1-0.5,0-0.6c-0.1-0.1,0,0.2-0.1,0.1c0.1,0,0.1,0.1,0.1,0.2C5.4,6.7,5.4,6.3,5.5,6.2c0-0.1,0,0.2,0.2,0.2
	c0.2-0.1-0.1-0.4,0-0.6c0,0,0-0.1-0.1-0.1c0.2-0.2,0-0.5-0.1-0.6s0.1,0,0.2,0s0-0.2,0-0.3c0-0.1-0.2,0.1-0.3,0.1V4.6
	c0-0.1,0.2-0.1,0.3-0.1c0-0.2,0-0.4,0.1-0.6L4.4,3.8c-0.1,0-0.3,0-0.4,0.1v0c0,0.1,0,0.1,0.1,0.1c0.2,0.7-0.2,1.4,0,2
	c0,0.1,0,0.2,0,0.3c0,0.1,0.1,0,0.1,0.1c0,0.1-0.2,0.3-0.3,0.5c0,0.2,0,0.4,0.1,0.6C4,7.7,4,8,3.8,8.1c0,0.2-0.1,0.3-0.3,0.3
	c0,0.1-0.1,0.1-0.1,0.2C3.5,8.7,3.7,8.9,3.9,9c0,0.2,0,0.4-0.1,0.4s0.1,0.1,0.1,0.2h0.1c0-0.1,0.2-0.2,0.3-0.2
	c0.1-0.1,0-0.2,0.1-0.2c0.1,0.3,0.1,0.6,0,0.9C4.2,10,4.2,9.8,4,9.8c0-0.1,0-0.1,0-0.1h0C3.8,9.8,3.8,9.9,3.7,10
	c-0.3,0.1-0.7,0.1-1.1,0.1V10v0c0,0-0.1,0-0.1,0c0-0.1,0-0.2,0.1-0.2c0,0,0,0,0,0.1c0.2-0.1,0.2-0.3,0.2-0.6H2.6
	c0-0.1,0.2,0,0.2-0.1C2.9,9,2.9,8.8,2.9,8.7C2.7,8.6,2.6,8.5,2.3,8.5c0-0.2-0.2-0.1-0.2-0.3c0.2,0.1,0.7,0.3,0.8-0.1H2.7
	c0-0.1-0.1-0.1,0-0.2H2.6v0c0.2,0,0.3,0,0.5,0.1c0-0.1,0.1-0.2,0.2-0.2c0.1,0,0.2,0.1,0.2,0.2c0-0.1,0.1-0.2,0-0.3s0,0.1-0.2,0.1
	c-0.2,0,0-0.1,0-0.3h0.3c0-0.2,0.1-0.2,0-0.4c-0.1,0-0.2-0.1-0.2-0.2c0.2,0,0.1,0.2,0.3,0.2c0-0.4,0-0.8-0.1-1.2
	c-0.1,0.1,0,0.4-0.2,0.4c-0.2,0-0.1-0.2-0.3-0.2C3,5.8,3.2,5.5,3.1,5.2c0,0,0,0-0.1-0.1c0-0.2,0-0.4,0-0.6C3,4.4,3,4.2,3.1,4.1
	c0,0,0.1-0.1,0.1-0.2s0.2,0,0.3,0c0.1,0,0.1,0.2,0.3,0.2c0.1,0,0.1-0.2,0.2-0.3V3.8c-0.3,0-0.7,0.1-0.7-0.2L1.8,3.5z M5.9,0.4V0.2
	C5.8,0.1,5.8,0.4,5.9,0.4z M5.2,1.4V1.2C5,1.2,4.9,1.3,4.7,1.3C4.8,1.6,5.2,1.2,5.2,1.4z M3.9,1.3c0-0.2-0.2-0.1-0.4-0.1
	C3.5,1.5,3.8,1.4,3.9,1.3z M6.5,4.1c0-0.1,0.1-0.1,0.1-0.2L6.6,3.8V3.7C5.7,3.6,4.8,3.6,3.9,3.8v0.1V4C3.9,4.1,4,4.1,4,4.1H6.5z
	 M6.2,0h-2c0,0,0,0.1,0,0.1C4,0.2,3.9,0.1,3.9,0H3.6c-0.1,0.2,0.1,0.4,0,0.5C3.3,0.4,3.3,0.2,3.2,0H1.7c0,0.2-0.1,0.5-0.2,0.7
	C1.4,0.9,1.3,1.1,1.2,1.2C0.9,1.5,0.5,1.8,0.2,2c0,0.1,0,0.2-0.1,0.1c0,0.2,0,0.5,0,0.7c0.3,0.3,0.5,0.6,0.6,1
	c0.2,0,0.3,0.1,0.5,0.1s0.1-0.2,0.2-0.3c0.1-0.1,0,0.2-0.1,0.2C1.2,3.8,1.4,4,1.4,4.1h1.3C2.9,4.1,2.9,4,3,4h0.6c0,0,0.1,0,0.1,0
	L3.7,3.9V3.8C3.2,3.7,2.4,4,2.5,3.4L2.4,3.3V3.2C2,2.9,1,3.3,0.7,2.8c0-0.2,0.2-0.2,0.3-0.4c0.7,0.1,1.7-0.1,2.2,0.2
	c0.2,0,0.4,0,0.6-0.1c0,0.2,0.3,0.2,0.6,0.2c0.2,0.2,0.7,0.2,0.9,0c0.2,0.1,0.4,0.2,0.6,0.1C5.9,3,6,3.2,6,3.3
	c0.3,0.1,0.3-0.1,0.6-0.1c0,0.1,0.1,0.4,0,0.5l0.1,0.1v0.1c0.2,0,0.4,0,0.6,0c0.1-0.4-0.4-1,0.1-1.4c0.2,0,0.1,0.3,0.2,0.3
	c0.1,0,0.2-0.2,0.2-0.5c-0.2,0-0.2-0.1-0.4-0.1c0-0.4,0-0.7,0-1.1C7,1,7,0.5,6.4,0.6C6.3,0.4,6.2,0.2,6.2,0z"/>
</svg>
