<?xml version="1.0" encoding="utf-8"?>
<!-- Generator: Adobe Illustrator 22.1.0, SVG Export Plug-In . SVG Version: 6.00 Build 0)  -->
<svg version="1.1" id="Layer_1" xmlns="http://www.w3.org/2000/svg" xmlns:xlink="http://www.w3.org/1999/xlink" x="0px" y="0px"
	 viewBox="0 0 68 68" style="enable-background:new 0 0 68 68;" xml:space="preserve">
<style type="text/css">
	.st0{fill:#FFF5E1;}
	.st1{fill:#7C6742;}
</style>
<polygon class="st0" points="68,11.6 63,15.8 58.6,12.8 55.9,13.5 52.7,14.2 50.7,9.4 46,8.9 43.7,6.6 42.6,7.2 39.9,9.2 35.9,7.5 
	33.8,9.5 29.2,4 23.4,1.3 20.7,0.9 15.7,1.3 12.4,2 9.4,3.2 7.7,4.7 4.3,9.6 2.1,15.2 0.4,19.9 1.4,22.8 2,25.9 5.1,30.5 8,32.8 
	9.7,34.1 6.9,36.4 9,40.4 6.6,44.2 9.3,47.2 8.8,50.9 12,52.5 13.7,52.3 13.2,53.9 11.4,58.4 15.1,63.3 13.7,67.6 23.8,68.2 
	21.3,64.7 21.9,59.3 22.8,58.6 23.4,54 26.8,51.5 26.6,46.8 29.1,44.7 27.4,40.2 29.9,37.8 26.5,33.9 29,31.8 33.9,25.8 34,27 
	36.3,30 39.6,27.4 42.6,29 45.9,26.9 49.9,26.1 53.5,22.1 55.9,22.5 61.2,21.3 65.1,21.1 68,24.5 "/>
<path class="st1" d="M22.4,33.3c0-0.2,0.2-0.2,0.2-0.3c0-0.1,0.2,0,0.3,0.2c0.1,0.2-0.1,0.3-0.4,0.3C22.2,33.4,22.5,33.5,22.4,33.3
	L22.4,33.3z M25.9,31.8v0.2h0.1v-0.2L25.9,31.8L25.9,31.8z M31.4,26.5c-0.3,0-0.3,0.5-0.6,0.6c-0.1,0.3-0.2,0.5-0.5,0.7
	c0,0.2,0,0.4-0.3,0.4c0-0.1-0.1-0.3-0.1-0.4h0.3c0-0.3,0-0.6,0-0.9c0-0.3-0.3-0.4-0.7-0.4c0.2,0.3,0.4,0.8,0,1.1s0.2,0,0.1,0.2
	c0,0.2-0.2,0.6-0.6,0.7c-0.1,0.3-0.1,0.6,0,0.9c0.2,0,0.4,0,0.6,0c0.1-0.2,0.1-0.5,0.3-0.7c0.2-0.2,0.4-0.4,0.6-0.6
	c0.1-0.2,0-0.3,0.1-0.4l0.3-0.4c0-0.2,0-0.4,0.3-0.5C31.6,27,31.4,26.7,31.4,26.5L31.4,26.5z M31.7,25.8c0.5,0,0.4-0.4,0.8-0.5
	c0.3-0.1-0.1-0.4-0.1-0.6s0.2-0.3,0.4-0.3c0.2,0,0-1,0.5-1.2c0-0.3,0-0.4,0-0.7h-0.3c0,0.3-0.1,0.6-0.3,0.9c0-0.3-0.2-0.2-0.2-0.5
	c-0.5-0.1-0.3,0.5-0.6,0.7c-0.2,0.2-0.2-0.2-0.2-0.5c-0.4,0-0.5-0.5-1-0.4c0-0.1,0,0-0.1-0.2s-0.5,0-0.5,0.2c0,0,0,0,0.2,0
	c0.2,0-0.1,0-0.2,0c0,0,0,0,0,0c-0.6,0.2-0.9-0.4-1.4-0.5c-0.5-0.1-0.5,0.2-0.8,0c0.2,0.4,0.7,0.5,0.8,0.9h0.8c0.1,0,0-0.3,0.2-0.2
	c0.2,0-0.3,0.9,0,1.2c0.3,0.3,0.5,0.3,0.9,0.3c0,0.2,0.2,0,0.1,0.3c-0.5-0.2-0.9,0-1.5,0c0-0.3-0.4-0.1-0.7-0.2
	c-0.2,0-0.8-0.4-1.1-0.8c-0.2,0-0.2,0-0.3,0c-0.2-0.3-0.5-0.4-0.8-0.4c0,0.2,0.2,0.2,0.2,0.4c0.6,0.3,1.1,0.8,1.5,1.3
	c0.2,0,0.2,0,0.4,0c0.2,0,0.5,0.4,0.5,0.8c0.3,0,0.2,0.2,0.5,0.2c0.1-0.4,0-0.7-0.3-0.9c0.8,0,1.8,0.2,2.5,0c0,0,0,0.2,0,0.3
	L31.7,25.8z M31.1,24.2c0.2,0,0.2,0.2,0.1,0.3S31.2,24.3,31.1,24.2z M32.3,27c0,0.2-0.2,0,0,0.3c0.2,0.3,0,0.3,0.3,0.2
	c0.3,0,0,0,0.2,0s0-0.4-0.2-0.5c-0.2-0.2,0,0-0.1,0H32.3z M33.5,27h0.2c0-0.2,0-0.2,0-0.2s0-0.2-0.2,0c-0.2,0.2-0.1,0.2,0,0.3V27z
	 M32.3,26.6c0,0,0-0.2-0.2-0.2c-0.2,0.1-0.2,0-0.2,0.3s0.4,0,0.4,0V26.6z M32.7,26.4c0,0.1,0,0.3,0.3,0.3c0.3,0,0,0,0.2,0
	c0.2,0,0-0.3,0-0.5c-0.2,0-0.2,0.3-0.4,0.4L32.7,26.4z M33.2,25.9c-0.1,0.1-0.1,0.2,0,0.3C33.2,26.2,33.2,25.8,33.2,25.9L33.2,25.9z
	 M32.4,26.5c0.5,0,0.4-0.7,0.8-0.8c0.4-0.2,0-0.5-0.2-0.5C32.8,25.6,32.3,25.8,32.4,26.5z M17.9,24.6c-0.1,0.1-0.2,0.3-0.2,0.5
	c0,0,0,0.2,0.3,0.2S18.1,24.6,17.9,24.6L17.9,24.6z M33.3,23.6c0,0-0.1,0.2-0.1,0.2c-0.1,0.2-0.1,0.5,0,0.7c0.2,0,0.2,0,0.4,0
	c0-0.8,0.5-1.2,0.3-2C33.5,22.7,33.6,23.3,33.3,23.6L33.3,23.6z M26.9,20.5c0,0,0.1,0.2,0.3,0.2c0.2,0-0.2-0.4-0.4-0.6
	c0.4,0,0.9,0.1,1.2,0.3h-0.8c0,0.2,0,0.3,0,0.5c0.4,0,0.7,0.4,1.1,0c0.4-0.4-0.1-0.3-0.1-0.5c0.2,0.2,0.5,0.1,0.7-0.1
	c0.1,0.1,0.1,0.2,0.1,0.4c-0.2,0-0.3,0.2-0.3,0.5c0.2,0.2,0.5,0.3,0.8,0.2c0,0.3,0.5,0.2,0.9,0.2c0.1,0.3,0.3,0.5,0.6,0.7
	c0,0.2,0,0.3,0,0.5c0.2,0.1,0.3,0.4,0.7,0.3c-0.2-0.6,0.2-0.8,0-1.3c0.3,0.1,0.5,0,0.7-0.2c0.1,0.1,0.4,0.2,0.5,0.1
	c0-0.3-0.2-0.2,0-0.5h-0.7c0-0.2-0.1-0.5-0.3-0.6c-0.3,0.5-1.6,0.4-2.1,0.2c0.2-0.3,0.6,0,1-0.2s0.5-0.4,0.6-0.6
	c0.2-0.2-0.5-0.2-0.5-0.5c0-0.4-0.3,0-0.2,0c-1-0.2-1.7,0.5-2.5,0c-0.2,0-0.2,0-0.3,0c-0.1,0-0.8,0-1.2,0c-0.4,0-0.3-0.2-0.4-0.2
	c-0.1,0-0.7,0-0.8,0.3c-0.1,0.3,0.2,0.2,0.3,0.4c0,0.2-0.1,0-0.2,0s0-0.3-0.2-0.2h-0.2c0,0.2,0,0,0,0.2c0.4,0.3,1.1,0.8,1.8,0.4
	L26.9,20.5z M33.2,21.8h0.2H33.2V22V21.8z M33.5,21c0,0-0.1,0.2,0,0.4h0.2c0,0,0-0.4,0-0.3L33.5,21z M34,16.3c0,0-0.2,0-0.2,0
	s0-1.1-0.2-1.3c-0.2,0.3,0,0.7,0,1.1s-0.5,0-0.7,0s0,0.2,0,0.4s0.5,0.6,0.8,0.8c0,0.8,0,1.6-0.1,2.3c-0.3,0-0.3,0.5-0.8,0.4
	c0,0.5,0.3,0.5,0.4,1s0.4,0,0.7-0.1c0.2-0.1,0,0.2,0.3,0c0.3-0.2,0-0.9,0-1.1s0.3-0.3,0.3-0.5c0-0.2-0.1-0.5,0-0.7
	c-0.3-0.4,0.2-1-0.2-1.3c0-0.2,0.2,0,0.1-0.2c-0.1-0.2,0-0.4,0-0.6L34,16.3z M17.9,20.7c-0.2,0,0,0.2-0.2,0.1
	c-0.2-0.1-0.7-0.4-0.9-0.2V21c0.5,0,1.1,0.3,1.3-0.2C18.2,20.8,18.2,20.7,17.9,20.7z M16,19c-0.2,0-0.3,0-0.5,0c0,0.9,0.7,1,0.9,1.7
	h0.3c0-0.2,0-0.3,0-0.5C16.3,19.8,16.1,19.4,16,19L16,19z M31.2,19.2c0,0,0,0.3,0,0.2S31.2,19.1,31.2,19.2z M27.7,16.7
	c0.5,0,1.2,0,1.2-0.4c-0.6,0-1.3,0-1.6,0.2c-0.5,0-0.9,0-1.3,0.2c0,0-0.4,0-0.4,0.2s0.5,0,0.7,0.3c0.1,0.3-0.5,0-0.5,0.4
	c-0.1,0.4,0.4,0.3,0.7,0.2c0.3-0.1,0.2,0.2,0.2,0.4s0.5,0,0.5-0.2c0-0.5,0.7-0.2,0.7-0.5s0.2,0,0.4,0.2c0.1,0.2-0.9,0-0.9,0.3
	c0.3,0.4,0.9,0,1.3,0c0.4,0,0.3,0.3,0.5,0.2c0.1,0.2,0.3,0.4,0.5,0.4c0,0.8,1,0.4,1.7,0.4c0-0.3,0.3,0,0.2-0.4c-0.1,0-0.2,0-0.3-0.2
	c-0.1-0.2,0.2,0,0.3-0.1c0,0.1,0,0.2,0,0.2c0.4,0,0.5-0.7,0.4-1.3c-0.5-0.2-0.7,0-1.2,0v-0.3c-0.7,0.1-1.5,0-2.3,0
	c-0.2,0-0.4,0.2-0.4,0.2s-0.2,0-0.3,0c-0.1,0-0.6,0.4-0.8,0c0.3-0.2,0.5-0.3,0.8-0.4L27.7,16.7z M30.6,18c-0.2,0-0.2-0.4,0-0.3
	C30.6,17.8,30.6,17.9,30.6,18z M34.8,18.7c0,0,0,0,0.2,0c0.2,0,0-0.6-0.2-0.6C34.6,18.1,34.6,18.6,34.8,18.7L34.8,18.7z M34.3,18
	c-0.2,0,0,0.5,0,0.8s0,0,0.1,0c0.1,0,0.4-0.7,0-0.8H34.3z M34.4,17.9c0.1-0.3,0.3-1.4-0.2-1.4C34.2,16.8,34.2,17.7,34.4,17.9
	L34.4,17.9z M19.1,18.9c0-0.2,0.3-0.2,0.2-0.5C19.1,18.1,18.8,18.9,19.1,18.9z M34.8,17.7c0-0.2-0.1-0.3-0.2,0S34.6,17.8,34.8,17.7z
	 M29.6,16.2c0,0,0,0,0-0.1c0-0.1-0.2,0.1-0.3,0.2C29.2,16.3,29.3,16.2,29.6,16.2L29.6,16.2L29.6,16.2z M31.1,15.5
	c-0.3,0-0.6,0.2-0.7,0.5c0.4,0.2,0.5-0.2,0.9-0.2c0-0.2,0-0.3-0.1-0.4L31.1,15.5z M29.8,16.1c0,0.2,0.5,0.2,0.6,0
	C30.3,16.1,30.1,16.1,29.8,16.1L29.8,16.1z M31.7,15.4v-0.2h-0.4v0.3c0,0,0.3,0,0.3-0.2L31.7,15.4z M11.8,15.6
	c0-0.3-0.2-0.3-0.5-0.3C11,15.3,11.5,15.6,11.8,15.6z M33.6,13.4h-0.2v0.2h0.2V13.4z M33.1,12.6h0.3c0-0.1,0-0.2,0-0.3h-0.3V12.6z
	 M7.6,12.6c0-0.1-0.1-0.2-0.3-0.3C7.3,12.6,7.3,12.8,7.6,12.6z M33.1,10.5h-0.3V11C33.2,11,33.2,10.7,33.1,10.5L33.1,10.5z
	 M23.3,9.5C23.1,9.5,23,9.7,23,10c0.1,0,0.2,0,0.3-0.1C23.4,9.8,23.4,9.7,23.3,9.5z M31.1,8.4c-0.2,0,0,0.2-0.2,0.1
	c-0.2-0.1,0,0.4,0.2,0.4V8.5H31L31.1,8.4z M30.8,7.4c0,0.4,0.4,0.5,0.5,0.9h0.3c0-0.5-0.4-0.7-0.6-1.1h-0.2L30.8,7.4z M29.6,6.7
	c0,0.3,0.3,0.8,0.6,0.6C30.1,7,30.1,6.6,29.6,6.7z M12.4,7.6c0,0.2-0.2,0.2-0.3,0.4c0.2,0.1,0.5,0.2,0.7,0.1
	C12.9,7.6,12.6,7.7,12.4,7.6z M25.2,6.3c-0.1,0-0.2,0-0.3,0c-0.1,0.1-0.1,0.3,0,0.4c0.2,0,0.2-0.2,0.3-0.3V6.3z M34.2,23.1
	c-0.4,0.2-0.4,0.8-0.5,1.2c0.2-0.4,0.5-0.7,0.3-1.3L34.2,23.1z M34.5,22.7C34.5,22.7,34.6,22.7,34.5,22.7c-0.1-0.3,0-0.8,0-1.1
	c-0.1,0.3,0,0.7-0.3,1c-0.3,0.2,0.2,0.3,0.4,0.4L34.5,22.7z M32.9,12.1c-0.2-0.3,0-0.8-0.5-0.8v0.2C32.8,11.6,32.7,12.1,32.9,12.1
	L32.9,12.1z M24.6,22.2c-0.2,0-0.2,0-0.4,0c0,0.2,0.2,0.2,0.2,0.5h0.7C24.9,22.7,24.6,22.7,24.6,22.2z M19.6,24.5c0,0.1,0,0.3,0,0.5
	h0.2c0,0,0-0.2,0-0.2S19.7,24.5,19.6,24.5L19.6,24.5z M22.1,23.8c-0.3-0.2-0.5-0.3-0.5-0.8c-0.2-0.1-0.4-0.1-0.5,0
	c0.1,0.6,0.3,1.1,0.8,1.5c0,0.1,0,0.2,0,0.3c0.3,0,0.2,0.5,0.5,0.6h0c0.1-0.5-0.1-1-0.4-1.3L22.1,23.8z M22.8,33.4
	c0.2,0.2,0.4,0,0.5-0.1c-0.1,0-0.2,0-0.3,0.1s-0.1,0.1-0.1,0.2L22.8,33.4z M27.7,31.6c-0.2,0,0,0.2-0.1,0.4c0,0,0-0.2,0.1-0.2
	c0.1,0,0-0.2-0.2-0.2L27.7,31.6z M30.2,29c-0.3,0.4-0.6,0.7-1,1v0.3c0.5-0.3,0.8-0.9,1.2-1.2c0-0.1,0-0.2,0-0.4c-0.2,0,0,0.2-0.3,0
	L30.2,29z M11.1,25.3c0,0.4-0.2,0.5-0.2,0.8c0.4,0,0.5-0.7,0.5-1c0-0.4-0.2,0.2-0.4,0.2L11.1,25.3z M13.5,21.1
	c-0.4,0.1-0.8,0.3-1,0.6c0.5,0.1,0.9-0.2,1.1-0.6L13.5,21.1z M23.8,8.8c0.1,0,0.3-0.2,0.2-0.4c-0.2,0-0.2,0.4,0,0.5L23.8,8.8z
	 M11.6,36.3c0.2,0,0.3,0,0.4,0c0-0.1,0-0.2,0-0.3C11.7,36,11.5,36,11.6,36.3L11.6,36.3z M11.2,37.1c0.2,0,0.6,0,0.7-0.3
	c0-0.6-1-0.3-1.5-0.4c0,0.1,0,0.3,0,0.5C10.7,36.9,11.1,36.9,11.2,37.1z M9.1,38.3h0.2H9.1L9.1,38.3z M23.1,39.9h0.1H23.1z
	 M28.1,42.9c-0.2,0-0.3,0-0.3,0.3H28C28,43.2,28,43,28.1,42.9L28.1,42.9z M16.6,44.2c0.5,0.2,0.7-0.4,1.3-0.3v-0.3
	c-0.6,0-0.7,0.3-1.3,0.3V44.2z M8,46.1c0.2-0.7-0.6-0.9-0.6-1.4c-0.4-0.2-0.5-0.5-0.9-0.6v0.2c0.3,0.7,0.8,1.3,1.4,1.7L8,46.1z
	 M8.6,45.2c0.2,0,0.3,0,0.3-0.3H8.7C8.7,45,8.7,45.1,8.6,45.2L8.6,45.2z M9.4,45.6h0.1v-0.1H9.4L9.4,45.6z M9.4,48.2
	c-0.2-0.6,0.3-0.6,0.4-1c0.3,0.1,0.6,0,0.8-0.3c0.6,0,0.9-0.2,0.9-0.8c-0.2-0.2-0.5-0.2-0.7-0.2c0,0.2-0.2,0.2-0.2,0.3
	c0,0.1-0.2-0.2-0.3-0.4c-0.3,0-0.7,0-1,0.2c0,0.2,0.2,0.4,0.4,0.4s0,0.3,0.1,0.4c0.1,0.1,0,0.1-0.2,0.2c-0.2,0.1-0.3-0.4-0.7-0.3
	c0,0.2,0.2,0,0.1,0.2S8.9,47.5,9,48h0.4L9.4,48.2z M11.9,46.8c0,0.4-0.4,0.4-0.4,0.8c0.3-0.2,0.8-0.2,0.7-0.8H11.9z M15.7,49
	c-0.1,0.6-0.4,1.2-0.9,1.7c0,0.4,0.2,0.8,0.4,1.2h0.3c0-0.3,0.1-0.6,0.2-0.8c0.2,0,0,0.3,0.1,0.4c0.2-0.3,0.4-0.6,0.4-1
	c0.2-0.4,0.2-0.7,0.2-1.1c-0.1,0,0-0.3-0.2-0.2v-0.5c0.1,0,0.1-0.3,0.4-0.2l0,0c0,0,0-0.5-0.2-0.6h-0.1c0,0.2,0,0.6-0.3,0.5
	c0.1,0.5-0.1,1-0.4,1.4V49z M17.4,48.8c0.1-0.1,0.2-0.4,0.2-0.6c-0.2,0-0.3-0.2-0.7-0.2c0,0.3,0.1,0.6,0.2,0.9
	c0.2,0,0.1-0.2,0.2-0.3L17.4,48.8z M8.9,50.7c0.1,0.1,0.3,0.2,0.5,0.2c0.3-0.7,0.3-1.4,0-2.1c0-0.2,0.2,0,0-0.3
	c-0.2-0.3-0.2-0.2-0.4-0.1c0,0.5-0.1,1.1,0,1.3c-0.2,0.3-0.2,0.7-0.2,1.1H8.9z M24.3,49.7c0,0,0.1,0,0.2,0c0-0.1,0-0.1,0-0.2l0,0
	L24.3,49.7z M25.5,49.5c-0.2,0,0,0.3-0.1,0.5c0.3,0,0.2-0.5,0-0.5L25.5,49.5z M25.1,50.2c0.2,0,0.2,0,0.2-0.2
	C25.2,50,25.1,50.1,25.1,50.2L25.1,50.2z M14.1,49.6c0,0.2,0.1,0.1,0,0.3s0-0.2,0.2-0.2c0-0.1,0-0.2,0-0.3
	C14.1,49.4,14.2,49.6,14.1,49.6L14.1,49.6z M20.8,50.5c0.1,0,0.2,0,0.3,0c0-0.3,0-0.3,0-0.5C21,50.1,20.9,50.2,20.8,50.5L20.8,50.5z
	 M10.9,50.9c0,0.3,0.4,0.3,0.3,0.6c0.4,0,0.8,0,1.2,0c0.1,0.2,0.1,0.5,0.4,0.5s0.2-0.4,0.3-0.6c0.1-0.2,0.3-0.2,0.3-0.3
	c0-0.2-0.4,0.2-0.8,0c-0.3-0.2,0-0.2,0-0.3c-0.4,0-0.5,0.2-0.7,0.3c-0.2,0.1-0.7-0.7-1.1-0.3L10.9,50.9z M10.6,51.9
	c0-0.2-0.3-0.5-0.5-0.3C9.8,51.8,10.3,51.9,10.6,51.9z M10.9,52.2h0.2c0-0.2-0.1-0.3-0.2-0.2V52.2z M11.5,52.3
	c0,0.2,0.1,0.3,0.4,0.3c0.2,0,0-0.1,0-0.2h-0.6L11.5,52.3z M15.1,53.6c0.4,0,0.3,0.3,0.7,0.2c0-0.4,0.2-0.5,0.2-0.9
	c0-0.4-0.4,0-0.3-0.1C15.4,52.9,15.1,53,15.1,53.6z M15.9,55.5c0,0-0.1,0.1-0.1,0.1c-0.2,0-0.2-0.1-0.4,0c-0.2,0.1,0.2,0.4,0.6,0.4
	V55.5z M17.4,58.1c0,0.3,0,0.4,0.1,0.5c0.1,0.1,0.2-0.2,0.3-0.2C18,58.4,17.7,58.1,17.4,58.1z M17.4,64.6c0-0.2,0-0.2,0-0.4
	s-0.2,0-0.3,0s0,0.3,0.3,0.3L17.4,64.6z M18.3,37.8c0,0,0,0.1,0,0.1V37.8z M25.8,35.4c0,0,0,0.2-0.2,0v-0.2c0,0,0.2,0,0.2,0V35.4z
	 M23.8,49.7c0,0,0.2,0,0.3,0c0.2,0-0.1,0.3-0.3,0.3V49.7L23.8,49.7z M23.5,49c0.1,0,0.2,0,0.3,0s-0.2,0.1-0.3,0.2c0-0.1,0-0.2,0-0.3
	L23.5,49z M23.2,48.2v-0.3h0.2C23.5,48.1,23.3,48,23.2,48.2z M25,47.7v0.1V47.7z M21.9,67.1h0.2c0,0.1,0,0.2,0,0.3
	c0,0.2-0.2,0.3-0.2,0s0,0,0,0v-0.2c-0.1,0-0.1-0.2-0.2-0.2c-0.1,0-0.2,0.2-0.3,0.3c-0.2,0.1-0.3-0.4-0.5-0.2c0-0.3,0-0.3,0-0.5
	s0.7,0,0.8,0.3h0.2V67.1z M9.7,34.5l-0.4-0.2c-0.9,0-1.2,0.8-1.8,1.1c-0.1,0.4-0.3,0.7-0.7,0.9c0,0.3-0.2,0.6,0,0.7
	c0.1,0.5,0.3,1,0.6,1.4c0,0.7,0.6,1,1,1.5c0,0.3-0.5,0.5-0.6,0.7s0,0.1,0,0.2S7.5,41,7.3,41.1c0,0.3-0.1,0.7-0.2,1
	c0,0.1,0,0.2,0,0.5c0,0.3-0.1,0-0.2,0.2c0,0.2,0,0.4,0,0.6c0.2,0,0,0.2,0.3,0.2c0.3-0.1,0.2-0.6,0.5-0.6c0.3,0,0-0.7,0.4-0.7
	c0.4-0.1,0-0.3,0-0.4c0-0.1,0.3-0.3,0.3-0.5c0-0.3,0.3-0.2,0.5-0.4c0.3,0.1,0.6-0.1,0.7-0.4c0.4,0,0.5-0.1,0.8-0.3
	c0.2-0.1,0.4-0.7,0-1s-0.1,0.2-0.4,0c-0.2-0.2,0-0.3-0.1-0.3S9.7,39,9.5,39c-0.2,0-0.2,0.3-0.2,0.5c-0.1,0.2-0.3-0.1-0.5-0.2
	c-0.1-0.1,0-0.3-0.2-0.5H8.4c0,0,0-0.3,0-0.3c0-0.1-0.2,0-0.3-0.2C8,38,7.9,37.8,7.9,37.5c-0.4-0.2-0.4-0.7-0.4-1.1
	c0.5-0.4,0.6-1.1,1.2-1.3c0-0.3,0.2-0.2,0.2-0.4c0-0.2,0.3,0,0.3-0.2H9.7L9.7,34.5z M13.4,35.9l-0.7-0.2c0,0.1,0,0.1,0,0.2
	C12.9,36,13.1,36,13.4,35.9L13.4,35.9z M25.1,68c-0.5,0-0.7-0.2-0.9-0.4c0-0.2,0-0.5,0-0.7c0,0-0.3,0-0.3,0c0-0.2,0-0.5,0-0.7
	c-0.1,0-0.2,0-0.2-0.2h-1.1c-0.4-0.3-0.7-0.7-1-1.1c0,0.2,0,0.3,0,0.4c0,0.2-0.2-0.3-0.2-0.5h0.2c-0.2-0.6-0.2-1.2-0.1-1.8
	c-0.2,0,0-0.3-0.3-0.2c-0.3,0.1,0.2,0,0.3,0c0.1,0-0.1-0.9,0.2-1.1c0-0.4,0.1-0.7,0.3-1c0.3-0.3,0.6-0.6,0.9-0.9
	c0.4,0,0.7-0.3,1.1-0.3c0.2-1,0.2-1.9,0-2.9c-0.5,0-0.4-0.7-0.8-0.8c-0.4-0.1,0,0.2-0.2,0.3c-0.2,0.1,0-0.3-0.2-0.3
	c-0.2-0.1-0.6-0.2-0.7-0.5c-0.1-0.3-0.1,0.2-0.4,0c0.3-0.5,0.6,0.2,1.2,0c0-0.5-0.4-0.4-0.6-0.5c-0.2-0.2,0-0.5-0.1-0.6
	c-0.1-0.1,0.2,0,0.3,0c0-0.2,0.2-0.3,0.2-0.6s0.3,0,0.3-0.2c-0.4-0.1-0.7-0.3-0.8-0.7c0.2-0.3,0.5-0.4,0.8-0.5s-0.6-0.5-0.7-0.8
	c-0.1-0.3-0.2,0-0.4,0c-0.2,0,0-0.3,0-0.4c-0.4,0-0.6-0.1-0.7-0.4h-0.5c0.2,0,0.4,0.2,0.2,0.4c0.4,0.2,0.5,0.7,0.8,1.1
	c-0.1-0.1-0.2-0.1-0.3,0c0,0.2-0.1,0.2-0.2,0.3c0,0.1,0.4,0.8,0.4,1.2c0,0.4-0.2,0.4-0.3,0.5c-0.1,0.2-0.3,0-0.5,0
	c-0.2,0.2-0.5,0.3-0.7,0.3c0,0.2-0.2,0-0.3,0.2c-0.1,0.2,0,0,0,0.1s-0.3,0-0.4,0s0,0.1,0,0.1c-0.1,0-0.3,0-0.4,0l0,0
	c0,0-0.4,0-0.4,0c0,0,0.4-0.3,0.4-0.7c-0.2,0-0.1-0.4-0.2-0.6h0.1c0,0.4,0.2,0.3,0.1,0.6v0.2c0.3,0.3,0.6-0.3,0.8,0l0.2-0.2
	c0,0.2,0.4,0.4,0.5,0.2c0-0.1,0-0.3,0-0.4c0.2,0,0,0.2,0.3,0.1c0.3-0.1,0.2-1.1-0.2-1.2c0,0.3-0.4,0.3-0.4,0.6c0,0-0.3,0-0.3-0.3
	c0-0.3,0.2,0,0.3,0s0.1-0.3,0.2-0.4c-0.2-0.6,0-1.4-0.5-1.8c0.1-0.2,0-0.5-0.1-0.7c0.2,0,0-0.4,0-0.6s0,0,0.2,0
	c0.2,0,0.4,0.3,0.5,0.5c0.1,0.3-0.2,0-0.2,0.3c0,0.3,0,0.2,0.3,0.2c0.2-0.2,0.2-0.6,0.3-0.8c0.1-0.3,0-0.2-0.2-0.1
	c-0.2,0.1,0-0.6,0-0.6c-0.1,0-0.2,0-0.2,0V49h0.2c0.1-0.4,0-0.8-0.3-1c0.1-0.2,0.2-0.4,0.3-0.6c0-0.2-0.2-0.3-0.3-0.4
	c-0.1-0.1,0.3,0,0.5,0c0-0.5-0.2-0.9,0.2-1.2c0.4-0.3,0-0.3,0-0.5c0.4,0,0.3,0.4,0.5,0.5c0.3,0.1-0.2,0.2-0.4,0.2
	c-0.1,0.6,0.6,0.2,0.6,0.7c0,0.4,0-0.2-0.3,0s0.1,0.5,0.2,0.8c0.1,0.3-0.2-0.2-0.4,0c0,0.7,0.8,0.8,0.6,1.7c0.2,0,0.3,0.4,0.5,0.5
	c0.2,0.1,0-0.2,0-0.3c0-0.1,0,1,0.5,1c0.3,0.3,0.3,0.8,0.2,1.2c-0.1,0-0.3,0-0.3,0.3c0,0.3,0.9,0.9,1,0.2c0.2,0,0.4-0.1,0.5-0.2
	c0-0.2-0.2,0,0-0.3c0.2-0.3-0.5,0-0.5-0.2c0-0.2,0.3,0,0.5,0c0.2,0-0.2-0.3-0.1-0.6h0.3c0-0.2-0.2,0-0.2-0.2s0-0.5,0.3-0.5
	c0.3,0,0-0.5,0-0.5c0-0.1,0,0.4,0.3,0.3c0.3-0.1,0-0.2,0.1-0.3c0.1-0.1,0.2,0.4,0.4,0.5c0.2,0.1,0-0.6,0.3-0.7
	c-0.2-0.3-0.2-0.6-0.1-0.9c0-0.2-0.4-0.2-0.3-0.5c0.1-0.3,0.7,0.2,0.8,0.3c0,0.7-0.1,1.5,0.1,1.9c-0.3,0.3-0.4,0.9-0.4,1.5
	c-0.1,0.6-0.9,0.7-1.2,1.2c-0.3,0-0.5,0.2-0.5,0.5c-0.4,0.1-0.7,0.2-1,0.5c0,0.2,0.2,0.2,0.4,0.2h0.6v-0.1c0,0,0.5,0,0.5-0.2
	s0.2-0.3,0.2-0.4c0.5-0.3,1.2-0.3,1.5-0.8c0.7,0,0.6-0.7,0.8-1.2c-0.2-0.4,0-1.4,0-2.1l0,0c0,0,0-0.3,0-0.4c-0.1-0.2-0.1-0.5,0-0.8
	c0.1,0,0.5,0,0.4-0.4c0.3,0,0.3-0.2,0.5-0.2c0.4-1.3,1.5-1.8,2.2-2.9c-0.2-0.6-0.2-1.4-0.8-1.7c0-0.4,0-0.6-0.3-0.7
	c-0.3-0.1-0.3-0.5-0.4-0.8c-0.2,0.1-0.4,0.1-0.6,0c0.2-0.2,0.3-0.4,0.4-0.7h0.4c0-0.2,0.1-0.4,0.3-0.5c0-0.6,0.1-1.1,0.5-1.2
	c0-0.2,0-0.3,0-0.4c0.5-0.3,0.7-0.9,0.5-1.4H30c-0.3-0.6-0.7-1-1.3-1.3c-0.1-0.3-0.4-0.5-0.8-0.6c-0.2,0-0.2,0.2-0.3,0.2
	c-0.1,0.1-0.2-0.4-0.5-0.4v0.3c-0.3,0,0-0.3,0-0.5L26.7,35c-2,1.1-4.1,1.8-6.4,2.1c0.1,0.3,0.2,0.7,0.8,0.6c0-0.8,0.8-1,1.5-0.8
	c0,0.2,0,0.5,0.1,0.7c-0.2,0.1-0.2,0.4-0.2,0.7c0,0.3-0.2-0.4-0.4-0.4c0,0.1,0,0.2,0,0.3h-0.7c0,0.2-0.2,0-0.2,0.3
	c-0.4-0.1-0.9,0-1.3,0.2c0-0.4-0.3-0.4-0.6-0.4c-0.1-0.6-0.2-1.2-0.4-1.7h-0.9c0,0.2,0,0.3,0,0.4c0,0.1,0,0.3,0,0.5
	s-0.2,0.3-0.3,0.5c-0.1,0.2,0,0.5-0.2,0.6c-0.2,0.1-0.4,0-0.6-0.1s-0.7,0.1-1.1,0.1S15.4,38.1,15,38c0-0.4-0.2-0.6,0-1.1
	c0.2-0.3,0.5-0.4,0.8-0.5c0.3,0.3,0.2,0.7,0.6,0.8c0.1,0,0.3,0,0.4,0c0.1-0.2,0.2-0.4,0.2-0.7c-1-0.1-2-0.2-2.9-0.5
	c-0.4,0-0.7,0-1.1,0c0,0.2-0.3,0.2-0.3,0.4c0,0.2-0.3,0.2-0.6,0.2v0.5c-0.3,0.2-0.7,0.3-1,0.2c-0.4,0.3-1.2,0-1.7,0
	c0,0.3,0.2,0.4,0.4,0.4c0.3,0,0.4,0.2,0.8,0.2c0.3,0,0,0.2,0.2,0s0.8,0,1-0.2c0.2-0.2,0,0.3,0,0.5c0,0.2,0.2,0.1,0.2,0.4
	c0,0.2,0.4,0,0.5,0c0,1-1,1.2-1.4,1.9c-0.1,0.2,0,0.4,0.2,0.5c-0.2,0.4-1,0.3-0.9,0.8c0.3-0.1,0.6,0,0.9-0.2c0.3-0.2,0,0,0,0
	s0.3,0,0.4,0c0.1,0,0,0,0,0s0,0,0-0.2l0.4,0.3c0.3-0.2,0.5-0.4,0.7-0.7c0.1,0,0,0.3,0,0.5c-0.5,0.4-0.9,1-1.2,1.5
	c0.1,0.3,0.2,0.5,0.5,0.6c0,0.1-0.1,0.2-0.2,0.3c0,0.2,0.1,0.4,0.3,0.5c0,0.2,0,0.4,0,0.5c0.5-0.2,0.6-0.8,1.3-0.8
	c-0.3,0.9-0.9,1.8-1.6,2.4c-0.1,0.3-0.1,0.5,0,0.8c0.1,0.1,0.3,0.1,0.4,0.1c0.1-0.1,0.2-0.2,0.3-0.3c0.2,0,0,0.2,0.3,0.1
	c0.3-0.1,0.2-0.6,0.6-0.7c0.1,0.3,0.3,0.6,0.5,0.7c-0.5,0.4-0.8,0.9-1.1,1.4c0,0.1-0.2,0-0.2,0.2c0.1,0.2,0.3,0,0.4,0
	c0.2,0.3,0.3,0.7,0.2,1c0.2-0.2,0.5,0,0.6,0c0-0.1,0-0.3,0-0.5c0-0.2,0.2,0,0.3,0c0.4-0.4,0.4-1.3,0.7-1.8c0,0,0-0.3,0-0.3
	c0,0.1,0-0.3,0.2-0.3c0.2-0.1,0,0.3,0,0.5s0.3-0.2,0.3-0.4c0-0.3,0.6-0.3,0.7-0.6c-0.5,0-0.4-0.6-0.8-0.7v-0.8
	c-0.4-0.5-0.2-1.2-0.3-1.7c-0.1-0.6-0.3-0.6-0.4-0.9c0.1-0.2,0.1-0.3,0-0.5c-0.2-0.2,0-0.8-0.2-1c0.1-0.6,0.2-1.2,0.2-1.8
	c0.6,0,1.5,0.1,1.7-0.3c0,0,0.2,0,0.4,0c0.1-0.1,0.3-0.2,0.4-0.3c0.4,0.5,0.5,1.2,0.5,1.8c-0.3,0.1-0.4,0.3-0.5,0.6
	c0,0.1-0.3,0-0.3,0.3c0.2,0,0.4,0,0.6-0.2c0.4,0.1,0.2,0.6,0.2,1c0.3,0,0.2-0.3,0.5-0.3s0,0.7,0.2,0.8c0.2,0.1,0.2-0.1,0.3-0.2
	c0.1,0.4,0.6,0.5,1,0.6c0.4,0.1,0,0.2,0,0.3s-0.7,0.3-0.9,0c-0.3,0.4-0.6-0.2-1.1,0c0,0.2,0,0.5,0,0.7c0.5,0,0.6,0.5,0.6,1
	c0.3,0.1,0.3,0.5,0.8,0.4c0.1,0.1,0.2,0.2,0.2,0.3c-0.3,0.4-1.4,0-2,0.2c-0.1,0.2-0.1,0.4,0,0.5c0,0.5,0.1,0.9,0.3,1.3
	c0.3,0,0.6,0.1,0.8,0.3c0,0.3-0.5,0.2-0.6,0.4c0-0.2-0.7-0.3-0.9,0c-0.2,0.3,0.3,0,0.4,0.1c0.1,0.1,0.3,0.4,0.6,0.4s0,0.9,0.1,1.1
	c-0.3,0.2-1,0-1.3,0.3c0,0.2,0,0.4,0.2,0.5c-0.2,0.5-0.1,1.3-0.4,1.8c-0.2,0.5-0.9,0.2-0.9,0.8c-0.1,0-0.3,0-0.4,0
	c0,0.6-0.4,0.9-0.2,1.5c0.2,0,0.3,0,0.4,0c0.1,0.2,0.1,0.3,0.2,0.5c0.2,0,0.3,0,0.4-0.2c0.1,0.2,0.4,0.4,0.7,0.3
	c0.1,0.2,0.1,0.5,0,0.7c-0.1,0.2-0.4,0.3-0.7,0.3c-0.2-0.1-0.4-0.2-0.6-0.3c-0.1,0-0.1-0.3-0.4-0.3c0,0.2,0,0.3,0,0.5
	c-0.6,0-1.1-0.1-1.7-0.3v-0.3c0.2,0,0,0.2,0.3,0.2c0.3-0.1,0.4-0.4,0.5-0.6c0.1-0.3-0.6-0.5-0.9-0.7c-0.3-0.2,0-0.7-0.4-0.7
	c-0.1-0.6,0.1-1.3,0.6-1.7c-0.2-0.2-0.3-0.5-0.3-0.7c-0.4,0-0.5,0.2-0.8,0.3c-0.3,0.1-0.1,1,0,1.2c0,0.7-0.4,1.1-0.3,2
	c-0.4,0.4-0.7,1-1.2,1.3c-0.1,1.1,0,2.2,0.1,3.3c0.1,0.1,0.2,0.2,0.3,0.4h0.3c0.4,0.3,0.7,0.7,0.8,1.2c0.4,0.2,0.4,0.6,0.6,0.9
	c0.3-0.4,0.4-1,0.1-1.5c0-0.4-0.2-0.5-0.1-0.9c0.8-0.2,1.7-0.2,2.5-0.2c0.6,0,1.2,0,1.8,0c0,0.1,0,0.3,0.2,0.4
	c0.2,0.1,0-0.4,0.2-0.5c0.2-0.1,0,0,0.3,0s0,0.2,0,0.3c0.2,0,0.4,0,0.7,0V60c0,0-0.2,0-0.3,0c-0.2,0.6-0.7,1.7-0.3,2.5
	c0,0.2-0.2,0-0.2,0.2c0,0.2,0-0.6-0.4-0.5c-0.1,0.8-0.1,1.6,0,2.3c0,0,0,0-0.2,0s0-0.9-0.3-0.9c-0.3-0.1,0,0.5-0.2,0.5
	c-0.2,0,0,0,0,0.2c-0.3,0.1-0.5,0.2-0.8,0.3l-0.1-0.4c-0.3,0-0.7,0.1-1,0.3c0-0.2-0.3,0-0.5-0.2s-0.1,0.1-0.1-0.1
	c-0.8,0.5-0.3,2.4-1.9,2c-0.4,0.3,0,1.2-0.3,1.8c-0.2,0.1-0.3,0.1-0.5,0H12h10.9c0-0.2-0.4-0.1-0.3-0.4c0.5,0,0.7-0.2,0.9-0.3
	s0.2,0,0.2,0.3s-0.5-0.1-0.6,0c-0.1,0.1-0.1,0.2,0,0.3c-0.2,0,0,0.2-0.2,0.1L25.1,68z M15.8,66.7c0.6,0.3,1.4-0.2,2.2,0
	c0.2,0,0.2-0.2,0.4-0.2c0.2,0,0.5,0,0.6,0.1c0.2,0.1,0.2,0.3,0.4,0.3c0.2,0,0-0.2,0.2,0c0.2,0.2,0,0.3,0.2,0.3c0.2,0,0-0.2,0.1-0.3
	h0.1c0,0.2,0.1,0.4,0.1,0.6c0,0-0.2,0.1-0.3,0c-0.1-0.1,0-0.2,0-0.2h-0.2c-0.2,0-0.2,0.2-0.3,0.3c-0.3,0-0.6,0-0.9,0
	c-0.1,0.1-0.2,0.2-0.3,0.3c-0.3,0-0.4-0.2-0.5-0.3c-0.2-0.1-0.7,0.1-1.2,0.1c-0.5,0-1-0.3-1.3,0c-0.3-0.1-0.7-0.2-1-0.2
	c-0.3,0-0.7,0.2-0.9,0s0.1,0.1,0.3,0c0-0.2,0.2-0.5,0.4-0.6c0.2,0,0,0.2,0.3,0.2c0.3-0.1,0.2-0.2,0.2-0.5s0.3,0,0.4,0.1s0.4,0,0.7,0
	L15.8,66.7z M21,61.2L21,61.2h0.1H21z M17.4,65.7c0,0,0.1,0,0.2,0S17.4,65.8,17.4,65.7z M14.7,65.7c0-0.2,0-0.3,0.2-0.3s0,0.1,0,0.3
	H14.7z M19.7,65.3c0,0-0.1-0.2,0-0.2C19.8,65.2,19.7,65.1,19.7,65.3h0.2c0.2,0,0.2,0,0.3,0.2c0.1,0.2,0,0.2-0.2,0
	c-0.2-0.2,0-0.2,0-0.3L19.7,65.3z M19.2,65c0-0.2,0-0.4,0.2-0.5c0.2,0,0.2,0.3,0.2,0.5c0,0.3-0.1,0-0.2,0c-0.1,0,0,0-0.1-0.2V65z
	 M19.7,64.5c0-0.2,0-0.3,0.2-0.2c0.2,0,0,0.1,0,0.2h-0.4H19.7z M18.5,63.7c0-0.1,0-0.3,0.3-0.3s0.2,0,0,0.4
	C18.7,64.1,18.7,63.6,18.5,63.7L18.5,63.7z M19.4,64c-0.2,0-0.2-0.8,0-0.9C19.5,63.5,19.5,63.8,19.4,64z M19.4,60.9
	c0.4,0,0.3-0.4,0.7-0.4s-0.2,0.3-0.1,0.5c0.3,0,0.2-0.6,0.5-0.7c0.3-0.1,0,0.3,0,0.5s-0.2,0.3-0.3,0.4c-0.1,0.7-0.2,1.4-0.1,2.1
	c-0.4,0-0.2-0.7-0.2-1.1c0-0.4,0.1-0.7,0.1-1c-0.2,0-0.2,0.5-0.4,0.3c0-0.1,0-0.4,0-0.7L19.4,60.9z M20,60v-0.2h0.2
	C20.2,60,20.2,60,20,60z M22.4,57.1v0.2h-0.3v-0.2L22.4,57.1L22.4,57.1z M21.7,57.2c0,0.1,0,0.4,0,0.4S21.7,57.2,21.7,57.2z
	 M12.9,58.3c0-0.1,0-0.1,0-0.2h0.1L12.9,58.3L12.9,58.3L12.9,58.3z M12.8,57.5v-0.2h0.2v0.2H12.8L12.8,57.5z M13.9,56.3
	c0,0.2,0,0.5,0,0.5c0,0.1,0.2,0,0.4,0c0.3,0.5,1.4,0,2.1,0.3c0.5-0.1,1.1-0.1,1.6,0c0,0.2-0.1,0.7,0,0.7c0-0.3,0.2-0.2,0-0.5
	c0.4,0.2,0.7,0,1,0c0.2,0,0.2,0.4,0.4,0.6c0.1,0.2-0.4,0-0.4,0c-0.1,0.2-0.1,0.4,0,0.6c0.2,0,0.2,0,0.3-0.2c0.1-0.2,0,0.7,0.2,0.7
	c0.2-0.1,0-0.6,0.3-0.7V59c0.4,0.3,0.6-0.2,0.5-0.7v-0.3c-0.2,0-0.2-0.2-0.5,0c0-0.2-0.1-0.5-0.1-0.7c0.3,0.1,0.5,0.1,0.8,0
	c0,0.2,0,0.6,0,0.7c0,0.1,0,0.4,0.2,0.4c-0.1,0.1-0.2,0.3-0.1,0.5c0.2,0,0,0.2,0.3,0.1c0.3,0,0-0.2,0.2,0s-0.4,0-0.5,0.3
	c-0.1-0.3-0.8,0-1-0.3h0.4c-0.6,0.1-1.1,0.2-1.6,0.3c0,0-0.1-0.1-0.3-0.2c-0.9-0.1-1.9-0.1-2.8,0c-0.2,0,0-0.2-0.3,0s-0.9,0-1.3,0
	c-0.2-0.4-0.2-0.9,0-1.4l-0.3-0.4c0-0.4,0.3-0.5,0.4-0.8c0.1-0.3-0.2-0.2-0.2-0.4c0.1,0,0.2,0,0.2,0c0-0.1,0-0.2,0-0.3h0.2
	C13.9,56.2,13.9,56.4,13.9,56.3L13.9,56.3z M26.2,37c0.2,0,0.4,0,0.4,0.2c-0.1,0-0.2,0.2-0.4,0v-0.3V37z M28.7,35.7v0.2
	C28.7,35.8,28.5,35.8,28.7,35.7l0.2,0L28.7,35.7z M25.6,39.7c-0.3,0-0.3,0.6-0.5,0.7c-0.2-0.3-0.6-0.4-0.9-0.3
	c0-0.7-1.2-0.4-0.7,0.3c-0.2,0,0,0.3-0.3,0.3v0.2c-0.2,0-0.2-0.3-0.3-0.4h-0.4h-0.2c0-0.3,0-0.4-0.1-0.6c-0.1-0.2,0.4-0.2,0.5,0
	h-0.1c0,0.3,0,0.5,0,0.6c0,0,0,0.2,0.2,0.2c0.1-0.3,0-0.6,0-1h0.1c0-0.2,0-0.4,0-0.7s-0.3-0.2-0.2-0.5c0.8,0.2,1.4,1.2,2.3,0.7
	c0-0.2,0-0.2,0-0.3c0-0.1,0.3,0,0.3,0s-0.3,0-0.2,0.4c0.1,0.4,0.2,0.4,0.6,0.3c0.3-0.2,0-0.6,0.2-1c-0.6-0.2-1.2-0.4-1.8-0.5
	c-0.1-0.2-0.7-0.1-0.7-0.5s0.2,0.2,0.5,0.2c0.2,0,1.3,0.2,1.9,0c0,0,0.2-0.2,0.2-0.2c0.1,0,0.2,0,0.3,0c0,0,0-0.3,0.2-0.3
	c0.2,0,0.8,0.2,1,0c0.1-0.2,0.4,0,0.4,0c0-0.1,0-0.2,0-0.3c-0.2,0-0.1-0.2-0.4-0.1c-0.3,0.1,0.2-0.2,0.2-0.4c-0.1,0-0.1-0.3-0.4-0.2
	c-0.3,0.1,0,0,0,0s-0.2,0-0.3,0c-0.1,0,0,0.2-0.2,0.2c-0.3,0.1-0.7,0.1-1,0c0-0.4,0.4-0.2,0.4-0.5c0,0-0.3,0.4-0.6-0.3
	c0.2,0,0.5,0,0.7,0s0,0,0,0s0.3,0,0.3,0s0-0.3,0.2-0.2c0,0,0,0.2,0,0.4c-0.9,0.2-0.8,0.3-0.8,0.3c0.3,0.2,0.6,0,0.9,0
	c0-0.4,0.3-0.3,0.7-0.3c0,0.2,0,0.4,0,0.5v0.2c0.1,0.2,0.6,0,0.8,0.3h0.2c0,0,0.1-0.2,0.3-0.2c0,0.5-0.1,1-0.4,1.4
	c0,0.6-0.4,0.8-0.5,1.3c-0.3,0.1-0.5,0.4-0.6,0.7C26.7,40.4,26,40.2,25.6,39.7L25.6,39.7z M21.4,38.9c0,0.3,0,0.3,0,0.6
	C21,39.5,21.1,39,21.4,38.9z M20.8,39.8c0,0.2,0.2,0,0,0.3c-0.2,0.3,0,0-0.3,0C20.2,40.1,20.6,39.9,20.8,39.8L20.8,39.8z M21.2,39.9
	h0.2H21.2z M19.4,44.5c0-0.2,0-0.4,0.2-0.3C19.8,44.2,19.6,44.4,19.4,44.5z M19.2,40c0-0.6,0-1,0.3-1.4c0.5,0.3,0,1.5,0.3,2l0.1-0.2
	c0.2-0.3,0-0.8,0.1-1.1c0.2,0.4,0,1.1,0.4,1.5c0.4,0,0.4,0.4,0.8,0.2c0,0.3,0.4,0.2,0.7,0.3s0-0.4,0-0.3c0,0.1,0.5,0.4,0.3,0.6
	c0-0.2-0.3-0.2-0.3,0s0.3,0.5,0.5,0.8c0,0.2,0,0.5,0,0.7c0.3,0,0.2,0.4,0.6,0.4c0,0.3,0.3,0.4,0.5,0.4c0.2,0.8,0.9,1.1,1.8,1.2
	c0,0,0,0,0-0.2c0.3,0,0.6,0,0.8,0.2c0.3,0,0.6-0.3,0.6-0.7s-0.2,0,0-0.2s0.1,0,0.2,0c0-0.2-0.2,0,0-0.3s0.5,0,0.5,0
	c0,0-0.1-0.9-0.1-0.9s0.2-0.3,0.4-0.4c-0.3-0.1-0.4-0.4-0.3-0.6c-0.4-0.2-0.4-0.8-1.2-0.6c0-0.2-0.3-0.2-0.4-0.4
	c0.8-0.4,1.1,0.3,1.6,0.7c0,0.3,0.1,0.6,0.4,0.9c0,0.6,0.4,0.9,0.6,1.3c0.2,0.5-0.3,0.4-0.2,0.9c-0.5,0.2-0.6,0.8-1,1.1
	c-0.4,0.3-0.6,0.7-0.8,1.2c-0.3,0.1-0.6,0.2-1,0.1c0-0.2-0.2-0.2-0.4-0.4c-0.2,0-0.5,0-0.6,0.2c0,0.2,0,0.4,0,0.6
	c-0.5,0-0.6-0.5-1.2-0.4c-0.1-0.3-0.1-0.5,0-0.8c-0.7-0.4-0.8-0.9-1.4-0.9c0-0.5-0.3-0.5-0.6-0.7c-0.2-0.2,0-0.6,0-1h0.1
	c0,0.7,0.5,1,1.1,1.2c0.4,0.6,1,1.1,1.7,1.4c0.3,0,0.6,0,0.7,0.2h0.1c0.2-0.2,0-0.4-0.1-0.5c-0.7-0.2-0.9-1-1.6-1.3
	c0-0.2-0.2-0.3-0.3-0.5c-0.1,0-0.2,0-0.3,0c-0.2-0.3-0.5-0.6-0.7-0.8c-0.1-0.4-0.3-0.7-0.5-0.9c0-0.4-0.1-0.7-0.3-1
	c-0.1-0.1-0.5,0-0.6-0.2c0,0.2-0.2,0-0.4,0c-0.1,0-0.6-0.2-0.9-0.2c-0.3-0.1-0.4-0.4-0.4-0.7s0-0.2,0.2-0.2L19.2,40z M23.3,41.3
	c0,0.3,0.3,0.4,0.4,0.7c-0.4,0-0.3-0.5-0.6-0.4v-0.3L23.3,41.3L23.3,41.3z M24.5,42c-0.2,0-0.3-0.2-0.3-0.3c0.1,0,0.2,0,0.3,0V42
	L24.5,42z M24.5,42.3c0,0.8,1,0.7,1.3,1.2c0,0,0,0,0,0.2c-0.6,0-0.6-0.7-1-0.8h-0.6c0-0.4-0.3-0.6-0.1-0.7
	C24.2,41.9,24.2,42.3,24.5,42.3L24.5,42.3z M26.1,43c-0.3,0-0.4,0-0.4-0.3C25.7,42.5,26.1,42.7,26.1,43z M14.1,48.9
	c0-0.4,0.2-0.7,0.4-0.7c0.1,0-0.1,0,0,0.3S14.5,48.9,14.1,48.9L14.1,48.9z M12.8,40.4c0-0.1,0-0.2,0-0.2h0.3
	C13.1,40.4,13.1,40.4,12.8,40.4L12.8,40.4z M9.6,34H10h0C9.8,34,9.7,34,9.6,34L9.6,34z M11.6,38.5c0-0.2,0.2-0.1,0.2-0.3
	c0-0.3-0.3,0-0.3,0c0,0-0.5,0-0.5,0.2c0,0,0,0,0.2,0c0.2,0,0.3,0,0.5,0L11.6,38.5z M17.6,41.1c-0.6,0.1-1.2,0.2-1.8,0.2
	c0.2,0.5,1.7,0.5,1.8,0L17.6,41.1z M24.4,50.5c0,0.2,0,0.2,0,0.4c0.3,0,0.4-0.3,0.3-0.6h-0.3L24.4,50.5z M27.1,43.9
	c0,0.3,0.4,0.2,0.3,0c0-0.2,0-0.2-0.3-0.2L27.1,43.9z M18.1,58.6c0,0,0.1,0,0.2,0c0.1,0,0-0.5,0-0.5c-0.3,0-0.1,0.5,0,0.5H18.1z
	 M31.9,12.6c-0.1,0,0,0.3-0.2,0.3s0-0.2-0.1-0.2c-0.7,0-1.1-0.3-1.7,0c0.2,0.4,1.1,0,1.2,0.8c-0.4,0.1-0.9,0.3-1.2,0.6
	c-0.4,0-0.7,0.3-1,0.4s-0.3,0-0.4,0c-0.1,0,0,0,0,0c-0.4,0.2-0.8,0.4-1.2,0.5c-0.2,0.2-0.6,0.2-0.8,0.3c-0.2,0.2,0,0.3-0.2,0.4
	c-0.2,0-0.2-0.1-0.3,0c-0.5,0.4-1.4,0.5-1.7,1h0.4c0.3-0.4,1.1-0.3,1.4-0.7c0.8-0.1,1.7-0.1,2.5,0c0,0.6,0.8,0.3,1,0
	c0.1,0.3,0.4,0,0.5,0c-0.1-0.4-0.1-0.9,0-1.3h0c-0.2,0.3,0,0.6,0.4,0.5v-0.3c0,0,0.2,0.2,0.4,0s0.7-0.3,0.9-0.6c0,0,0,0,0.1-0.4
	c0,0.1,0,0.3,0,0.3c0,0.2,0.2,0.4,0.4,0.3c0.3-0.1,0-0.8,0.5-0.7c0-0.3-0.2-0.3-0.2-0.5c0-0.2-0.2,0.2-0.3,0s0.3-0.6,0-0.7
	c-0.3-0.1,0,0.3,0,0.2s-0.2,0-0.4,0L31.9,12.6z M30.1,14.9c0,0.2-0.2,0.2-0.3,0.4c-0.1,0.2,0,0.3,0,0.4c0.2,0,0.3,0,0.5,0
	c0-0.2-0.2,0-0.2-0.3c0-0.3,0.6-0.3,0.8-0.4s-0.2,0-0.7-0.2L30.1,14.9z M3.4,22.7c0,0,0,0-0.2,0c-0.2,0,0.1,0.4,0.3,0.5
	c0.1-0.1,0.1-0.3,0.1-0.5c-0.1,0,0-0.2-0.3-0.2V22.7z M4.8,26.1H4.7v0.2h0.2V26.1z M9.9,31.6c0-0.3-0.5-0.3-0.6-0.6
	c-0.3-0.1-0.5-0.2-0.7-0.5c-0.2,0-0.4,0-0.3-0.3h0.3c0,0,0,0.2,0,0.3h0.8c0-0.3,0.4-0.3,0.4-0.7c-0.3,0.2-0.7,0.4-1.1,0
	c-0.3-0.4,0,0.2-0.2,0c-0.2-0.2-0.6-0.2-0.7-0.6c-0.3-0.1-0.6-0.1-0.9,0c0,0.2,0,0.4,0,0.6c0.2,0.1,0.5,0.3,0.6,0.4
	c0.2,0.2,0.4,0.4,0.6,0.6c0.1,0,0.3,0,0.3,0.2l0.3,0.3c0,0,0.4,0,0.4,0.3C9.4,31.9,9.6,31.7,9.9,31.6L9.9,31.6z M10.6,32
	c0,0.5,0.4,0.4,0.5,0.8c0.1,0.3,0.3-0.1,0.6-0.1c0.2,0,0.3,0.2,0.3,0.5c0,0.3,1,0,1.2,0.5c0.3,0,0.4,0,0.7,0c0-0.1,0-0.2,0-0.3
	c-0.3,0-0.6-0.1-0.8-0.4c0.3,0,0.2-0.2,0.4-0.2c0-0.6-0.4-0.4-0.6-0.6c-0.2-0.2,0.2-0.3,0.4-0.3c0-0.4,0.5-0.5,0.4-1c0,0,0,0,0.1,0
	s0-0.4,0-0.4c0,0.1,0,0.1,0,0.2c0,0.1,0-0.1,0-0.2h-0.2c-0.2-0.6,0.3-0.9,0.4-1.4s-0.2-0.5,0-0.8c-0.4,0.2-0.4,0.7-0.9,0.8
	c0,0.3,0,0.5,0,0.9s0.2,0,0.2,0.2c0,0.2-0.9-0.3-1.2,0c-0.3,0.3-0.3,0.5-0.3,0.9c-0.2,0,0,0.2-0.3,0.1c0.2-0.5,0-0.9,0-1.5
	c0.2,0,0-0.4,0.1-0.7c0.1-0.3,0.4-0.8,0.7-1.1c0-0.2,0-0.2,0-0.3c0.3-0.2,0.4-0.5,0.4-0.8c-0.2,0-0.2,0.2-0.4,0.2
	c-0.3,0.6-0.7,1.2-1.3,1.5c0,0.2,0,0.2,0,0.4s-0.4,0.5-0.8,0.5c0,0.3-0.2,0.2-0.2,0.5c0.3,0.2,0.6-0.2,0.8-0.3c0,0.8-0.2,1.8,0,2.5
	C11,31.8,10.8,32,10.6,32L10.6,32z M12.2,31.7c0,0.2-0.2,0.2-0.3,0C11.8,31.5,12.1,31.7,12.2,31.7z M9.5,32.6c-0.2,0,0-0.2-0.3,0
	S9,32.6,9,32.9c0,0.3,0,0,0,0.2s0.4,0,0.5-0.2s0,0,0-0.2V32.6z M9.5,33.8V34c0.2,0,0.1,0,0.2,0c0.1,0,0.2,0,0-0.2
	c-0.2-0.2-0.2,0-0.3,0H9.5z M9.9,32.7c0,0,0.2,0,0.1-0.2c0-0.2,0-0.3-0.3-0.2S9.8,32.6,9.9,32.7z M10.3,33c0,0-0.3,0-0.3,0.3
	c0,0.3,0,0,0,0.2c0,0.2,0.3,0,0.5,0c0-0.3-0.3-0.2-0.4-0.4L10.3,33z M10.7,33.6c0,0,0,0-0.3,0C10.4,33.6,10.9,33.6,10.7,33.6
	L10.7,33.6z M10.1,32.7c0,0.5,0.7,0.4,0.8,0.8c0.2,0,0.5,0,0.5-0.2C11,33.1,10.8,32.6,10.1,32.7z M11.7,18.1
	c-0.1-0.1-0.3-0.2-0.4-0.2c0,0-0.2,0-0.2,0.3c0,0.3,0.7,0,0.7,0V18.1z M12.7,33.8c-0.1-0.1-0.1-0.1-0.2-0.2c-0.2-0.1-0.5-0.1-0.7,0
	c0,0.2,0,0.2,0,0.5c0.8,0,1.2,0.5,2,0.3C13.8,33.9,13.1,34.1,12.7,33.8L12.7,33.8z M15.9,27.3c0,0-0.2,0-0.1,0.3s0.4-0.2,0.6-0.4
	c0,0.4-0.1,0.9-0.2,1.3c0-0.2,0-0.5,0-0.7c0-0.2-0.2,0-0.4,0c0,0.4-0.3,0.7,0,1.2c0.3,0,0.3-0.1,0.5-0.1c0.2,0,0,0.4,0.2,0.6
	c0.2,0.1-0.2,0-0.3,0c-0.1,0-0.2-0.3-0.4-0.3c-0.2,0.2-0.3,0.5-0.2,0.8c-0.3,0-0.2,0.5-0.2,0.9c-0.3,0.1-0.5,0.3-0.6,0.6
	c-0.2,0-0.3,0-0.5,0c-0.2,0-0.3,0.4-0.3,0.8c0.6-0.2,0.8,0.2,1.2,0c-0.1,0.2-0.2,0.5,0,0.7c-0.1,0-0.2,0.3-0.1,0.6
	c0,0.3,0.2-0.2,0.5-0.1v-0.5c0.2,0,0.5-0.1,0.6-0.3c-0.5-0.3-0.3-1.6-0.2-2.1c0.3,0.2,0.1,0.7,0.1,1s0.4,0.5,0.6,0.7
	c0.2,0.2,0.1-0.5,0.5-0.5s0-0.3,0-0.3c0.2-1-0.5-1.7,0-2.5c0-0.3,0-0.2,0-0.4c0-0.2,0-0.8,0-1.2c0-0.4,0.1-0.3,0.1-0.4
	c0-0.1,0-0.8-0.2-0.9c-0.2-0.1-0.2,0.3-0.4,0.3c-0.2,0,0-0.1,0-0.2s0.3,0,0.2-0.2v-0.2c-0.2,0-0.1,0-0.2,0c-0.3,0.5-0.8,1.2-0.4,1.8
	L15.9,27.3z M14.5,33.7v0.2h0.2c0-0.1,0-0.1,0-0.2H14.5L14.5,33.7z M15.5,34c0,0-0.2,0-0.3,0v0.2c0,0,0.4,0,0.3-0.1V34z M20.1,34.4
	c0,0,0-0.2,0-0.2s1.1,0,1.3-0.2c-0.3-0.2-0.7,0-1.1,0s0-0.5,0-0.7c0-0.2-0.1,0-0.3,0s-0.5,0.5-0.8,0.8c-0.8,0.1-1.5,0.1-2.3,0
	c0-0.3-0.5-0.3-0.4-0.8c-0.5,0-0.5,0.4-0.9,0.4c-0.4,0,0,0.4,0.1,0.7c0.1,0.3-0.2,0,0,0.3c0.2,0.3,0.9,0.1,1.1,0
	c0.2-0.1,0.2,0.3,0.4,0.3s0.5-0.1,0.7,0c0.2,0.1,0.9,0.2,1.3-0.2c0.1,0,0,0.2,0.2,0.2c0.2-0.1,0.3,0,0.5,0L20.1,34.4z M15.8,18.2
	c0-0.2-0.2,0,0-0.2s0.3-0.8,0-0.9h-0.2c0,0.5-0.3,1.1,0.1,1.4C15.7,18.4,15.8,18.4,15.8,18.2L15.8,18.2z M17.4,16.1
	c0-0.2,0-0.3,0-0.5c-0.9,0-1,0.7-1.6,0.9v0.3h0.5C16.6,16.5,17,16.3,17.4,16.1z M17.2,31.7c0,0-0.3,0-0.2,0
	C17.2,31.7,17.3,31.7,17.2,31.7z M19.7,28.2c0,0.5,0,1.2,0.4,1.2c0-0.6,0-1.3-0.2-1.6c0-0.5,0-0.9-0.2-1.4c0,0,0-0.4-0.2-0.4
	c-0.2,0,0,0.6-0.2,0.7c-0.2,0.2-0.1-0.5-0.4-0.6c-0.2-0.1-0.2,0.4-0.2,0.7c0,0.3-0.2,0.2-0.4,0.3c-0.1,0.2,0,0.4,0.2,0.6
	c0.4,0,0,0.7,0.5,0.7c0.5,0.1,0,0.3-0.2,0.4c-0.2,0.1,0-0.9-0.3-1c-0.3,0.3,0,0.9,0,1.4s-0.2,0.3-0.1,0.5c-0.2,0.1-0.4,0.3-0.4,0.5
	c-0.7,0-0.4,1-0.4,1.7c0.3,0,0.1,0.3,0.4,0.2c0-0.1,0-0.2,0.1-0.3c0.1-0.1,0,0.2,0,0.3h0c0,0.5,0.6,0.5,1.2,0.5c0.2-0.5,0-0.7,0-1.2
	h0.4c0-0.8,0-1.6,0-2.3c0-0.1-0.1-0.3-0.2-0.4c0-0.2,0-0.3,0-0.4s-0.4-0.6,0-0.9c0.1,0.3,0.3,0.6,0.4,0.9L19.7,28.2z M18.6,31.1
	c0-0.2,0.3-0.2,0.3,0h-0.5H18.6z M17.7,35.4c0,0,0,0,0,0.2s0.6,0,0.6-0.2C18.4,35.1,17.8,35.2,17.7,35.4L17.7,35.4z M18.4,34.8
	c0-0.2-0.5,0-0.7-0.2c-0.2-0.2,0,0,0,0.2S18.4,35.2,18.4,34.8L18.4,34.8z M18.6,34.8c0.2,0.2,1.4,0.3,1.4-0.2
	C19.6,34.6,18.7,34.6,18.6,34.8L18.6,34.8z M17.5,19.2c0.2,0,0.2,0.3,0.5,0.2S17.6,18.9,17.5,19.2z M18.6,35.4c0.1,0,0.2-0.2,0-0.2
	C18.4,35.2,18.6,35.2,18.6,35.4z M20.1,30c0-0.1-0.1-0.2-0.2-0.3c0-0.1,0,0.1,0,0.2H20C20,29.9,20,30.1,20.1,30L20.1,30z M20.7,31.6
	c0-0.3-0.2-0.6-0.5-0.7h-0.1c-0.2,0.4,0.2,0.5,0.1,1c0.2,0,0.3,0,0.4-0.1L20.7,31.6L20.7,31.6z M20.2,30.3c-0.2,0-0.2,0.5,0,0.6
	C20.3,30.7,20.3,30.5,20.2,30.3L20.2,30.3z M21,32.2h0.1v-0.4H21c0,0,0,0.4,0.2,0.4L21,32.2z M20.8,12c0.3,0,0.3-0.2,0.3-0.5
	S20.8,11.7,20.8,12z M22.9,34.1h0.2V34h-0.3v0.2L22.9,34.1z M23.6,33.6v0.3h0.3v-0.4L23.6,33.6L23.6,33.6z M23.7,7.6
	c0.1-0.1,0.2-0.2,0.3-0.3C23.8,7.3,23.6,7.3,23.7,7.6z M25.7,33.5v-0.3h-0.4C25.3,33.6,25.5,33.6,25.7,33.5L25.7,33.5z M26.7,23.5
	c0-0.1-0.1-0.2-0.1-0.3c-0.1-0.1-0.2-0.1-0.3-0.1c0,0.1,0,0.2,0.1,0.3C26.5,23.6,26.6,23.6,26.7,23.5z M27.9,31.4c0-0.2-0.2,0,0-0.2
	c0.2-0.2-0.4,0-0.4,0.2v0.1h0.3L27.9,31.4z M28.9,31.1c-0.4,0-0.5,0.4-0.9,0.6c0,0.1,0,0.2,0,0.4c0.5,0,0.7-0.4,1.1-0.6v-0.2
	L28.9,31.1z M29.5,29.9c-0.3,0-0.7,0.3-0.6,0.7C29.2,30.4,29.6,30.4,29.5,29.9z M28.7,12.6c-0.2,0-0.2-0.2-0.3-0.3
	c-0.1,0.2-0.2,0.4-0.1,0.7C28.6,13,28.5,12.8,28.7,12.6z M29.9,25.6c0,0,0.1-0.2,0-0.3c-0.1-0.1-0.3-0.1-0.4,0
	C29.6,25.4,29.7,25.5,29.9,25.6L29.9,25.6z M32.6,25.8c-0.2,0.4-0.5,0.8-0.6,1.3l0,0c0.5-0.3,0.7-0.9,0.5-1.4L32.6,25.8z M35.6,11.6
	c-0.3,0-0.3,0.2-0.3,0.5h0.3C35.6,11.9,35.6,11.8,35.6,11.6L35.6,11.6z M36.4,11.2c-0.2,0-0.2-0.5-0.2-0.9c-0.2,0-0.3,0-0.5,0
	c0.1,0.5-0.2,1.5,0.4,1.5C36.3,11.9,36.3,11.4,36.4,11.2L36.4,11.2z M37.5,9.1v0.3h0.1V9.2h-0.1V9.1z M39.2,23.4H39H39.2z M42,28.4
	h0.3c0,0,0-0.2,0-0.3S42,28.1,42,28.4L42,28.4z M43.3,16.8h-0.3c0,0.5-0.4,0.7-0.3,1.3h0.3C43.1,17.6,43.5,17.3,43.3,16.8L43.3,16.8
	z M45.3,8.1c-0.4-0.6-1-1.1-1.7-1.4h0c0,0.5,0.4,0.6,0.5,0.9c0.5,0,0.8,0.7,1.4,0.5L45.3,8.1z M44.6,8.8h-0.3v0.4
	c0.1,0,0.2,0,0.2-0.1C44.6,9,44.6,8.9,44.6,8.8z M45,9.5v0.1V9.5L45,9.5z M46.4,11.9v0.4c0.6,0,0.6-0.4,0.8-0.8
	C46.8,11.5,46.8,11.9,46.4,11.9z M48.6,15.8c-0.4,0.3-0.8,0.4-1.3,0.4c0,0.3-0.3,0.3-0.5,0.4v0.2c0.1,0.1,0.4,0.1,0.6,0.2s0,0,0,0
	c0-0.3,0.2-0.3,0.2-0.4h0.8c0,0.2,0.2,0,0.2,0.2c0.4,0,0.8,0,1.1-0.2c0.4,0,0.7-0.1,1-0.4c0-0.2-0.4,0-0.3-0.2
	c0.3-0.1,0.6-0.2,0.8-0.3c0-0.1,0-0.2,0-0.3c-0.3-0.2-0.7-0.4-1.1-0.4c-0.4,0.5-1,0.8-1.7,0.9L48.6,15.8z M48.1,17.7
	c0.1,0,0.3,0,0.3-0.2c-0.3-0.1-0.6-0.2-0.9-0.3c0,0.3,0.1,0.4,0.1,0.7s0.5,0,0.5-0.2L48.1,17.7z M50.3,9.1c-0.4,0-0.7,0.1-1.1,0.2
	c-0.2-0.3-0.8,0-1.3,0c0,0.2,0.2,0.2,0.1,0.5c-0.1,0.3,0-0.2,0.3,0c0.7,0.2,1.4,0.2,2.1,0c0-0.2,0-0.4-0.1-0.5V9.1z M49.3,25.2h0.2
	c0,0,0-0.2,0-0.2L49.3,25.2z M49.5,25.9c0,0,0.6,0.2,0.5,0c0,0-0.5,0-0.4,0.2L49.5,25.9z M50.3,25.7c-0.1,0-0.3,0-0.3,0.2
	C50.2,25.9,50.3,25.9,50.3,25.7L50.3,25.7z M49.6,14.5c0,0-0.2,0-0.2,0.3c0,0.3,0.2,0,0.3,0s0-0.2,0.1-0.2
	C50,14.5,49.9,14.3,49.6,14.5L49.6,14.5z M50.1,21.3c-0.2,0-0.3,0.1-0.4,0.3c0.2,0,0.2,0.2,0.5,0c0.3-0.2,0-0.3,0-0.4L50.1,21.3z
	 M50.6,11.1c-0.3,0.5,0.2,0.7,0.3,1.1c0.1,0.4-0.4,0.4-0.3,0.8c0,0,0.3,0,0.3,0s-0.4,0.6,0,0.8s0.2-0.3,0.3-0.4
	c0.1-0.1,0.5-0.2,0.5-0.4c0.1-0.2-0.3-0.3-0.5-0.4c0-0.4,0-0.8,0-1.3c-0.3,0-0.3-0.3-0.6-0.3L50.6,11.1z M52,10.6
	c0-0.3,0-0.5-0.3-0.6C51.4,10,51.7,10.6,52,10.6z M52.2,10.9H52c0,0.2,0,0.3,0.2,0.2S52.3,11,52.2,10.9L52.2,10.9z M52.4,11.6v0.4
	c0.1,0,0.2,0,0.2,0C52.6,11.7,52.6,11.6,52.4,11.6L52.4,11.6z M53.6,15.4c-0.5,0-0.6,0.3-0.8,0.6c0.2,0,0,0.2,0.1,0.3
	c0.4,0,0.5-0.2,0.9-0.2C53.8,15.7,53.5,15.8,53.6,15.4z M55.5,16.2c0-0.4-0.1-0.6-0.4-0.6c-0.3-0.1,0,0.3,0,0.5
	C55.2,16,55.3,16.1,55.5,16.2L55.5,16.2z M57.5,17.7c0,0.3,0,0.5,0.3,0.5c0.3,0,0.1-0.2,0.2-0.3c0.1-0.3-0.1-0.5-0.3-0.6
	c-0.2-0.1-0.5,0.1-0.5,0.4L57.5,17.7z M63.5,17.7c0-0.2-0.2-0.3-0.3-0.3c-0.1,0.1-0.1,0.2,0,0.3C63.3,17.6,63.4,17.6,63.5,17.7
	L63.5,17.7z M48.8,24.2c0-0.2,0-0.2,0-0.4h0.3C49.1,24.1,49.1,24.2,48.8,24.2L48.8,24.2z M48.3,23.8c-0.2,0-0.1-0.2-0.1-0.3h0.3
	C48.4,23.7,48.4,23.8,48.3,23.8L48.3,23.8z M47.3,23.6c0-0.1,0-0.2,0-0.2h0.3C47.6,23.4,47.6,23.6,47.3,23.6L47.3,23.6z M34.8,25.7
	c0,0.2,0,0.2,0,0.2C34.8,26,34.8,25.9,34.8,25.7z M23.1,26.4v0.2h-0.2v-0.2H23.1z M23.1,27c0,0.3,0.3,0.4,0.2,0.8
	c-0.2-0.2-0.3-0.5-0.5-0.6C22.6,27.1,22.9,27,23.1,27z M7.2,23h0.2H7.2z M9.1,26.5v-0.2h0.2v0.2H8.9L9.1,26.5z M4.6,24.4v0.2H4.4
	v-0.2L4.6,24.4L4.6,24.4z M28.4,32.6v-0.2h0.2C28.6,32.7,28.6,32.7,28.4,32.6L28.4,32.6z M27,33.6c0,0.3-0.2,0.3-0.4,0.3
	C26.4,33.8,26.7,33.6,27,33.6z M17.6,36.3c0-0.2,0.2-0.2,0.2,0H17.6z M15.9,36.3v-0.2h0.2v0.2L15.9,36.3L15.9,36.3z M8.5,32.8
	c0,0,0-0.2-0.2,0c0,0,0-0.1,0-0.2h0.3c0,0.2-0.1,0,0,0.3L8.5,32.8z M7.5,31.8L7.5,31.8c0,0,0.4,0,0.8,0s0,0,0,0.3s-0.3,0.2-0.7,0.2
	c-0.3-0.1,0-0.3-0.2-0.3L7.5,31.8z M6.3,31c-0.2,0-0.1,0-0.2,0S6.4,31,6.3,31z M5.6,30.3c0-0.1,0-0.2,0-0.2c0.2,0,0.5,0,0.5,0.4
	C6.2,30.8,5.9,30.2,5.6,30.3L5.6,30.3z M3.9,26.4c0.1,0,0.3,0.1,0.3,0.3C4.2,27,4,26.6,3.9,26.4z M3.9,28.1c0-0.2-0.1-0.4,0-0.5
	C4,27.5,4.1,28.1,3.9,28.1z M3.3,27.1c0-0.3-0.2-0.3-0.2-0.6c0-0.3,0.4,0.3,0.4,0.6H3.3L3.3,27.1z M47.5,14.7c0-0.2,0.2-0.5,0.6-0.4
	c0.4,0.1-0.3,0.2-0.4,0.4S47.8,14.6,47.5,14.7L47.5,14.7z M39.8,13.2v-0.3c0,0.2,0,0.3-0.2,0.3H39.8z M33.4,19c0-0.5,0-0.6,0-1
	c0.5,0,1,0.3,0.8,0.8C33.9,18.8,33.9,19.1,33.4,19L33.4,19z M32.7,18c0,0.8,0,1.6-0.8,1.6c0,0.2,0,0.4,0,0.6c-0.5,0-0.7,0.5-1,0.8
	h-0.4c-0.1,0,0,0-0.1,0c-0.2,0-0.3,0-0.5,0c-0.4-0.2-1.2,0-1.6-0.4c0.1-0.6,0.9,0.3,1.2-0.3c0.3,0,0.4,0.2,0.6,0
	c0,0.2,0.2,0.2,0.2,0.3c0.2-0.1,0.4-0.2,0.6-0.2c0-0.3,0-0.6,0-0.9c-0.2,0-0.4,0.3-0.6,0.3s-0.3-0.3-0.5-0.3
	c0.1-0.3,0.4-0.5,0.7-0.4c0,0,0,0.3,0.2,0.3s0-0.4,0.2-0.5c0.2-0.1-0.2-0.4-0.3-0.6c0-0.2,0.1-0.3,0.2-0.5c0,0,0,0,0.1,0
	c0.1,0,0-0.2,0-0.3s0.1,0,0-0.2l-0.1-0.4c0-0.2-0.3-0.3-0.4-0.6c-0.1-0.2-0.6,0-0.8-0.3c-0.2-0.3-0.9,0-1.1,0.2
	c-0.2,0.2-0.4,0-0.5,0s0.2-0.2,0.2-0.4c0.6,0,1.2-0.2,1.7-0.5c0.2,0,0.4,0,0.5,0c0.2-0.1,0.4-0.1,0.5,0c0.1-0.2,0-0.5,0-0.8
	s0.3-0.3,0.3-0.7c0-0.4,0.3-0.5,0.5-0.7c0.2,0.3,0.4,0.7,0.4,1.1c0.2,0,0.2,0.5,0.2,0.8c0,0.3,0.2,0,0.1,0.3
	c-0.4-0.2-0.9-0.3-1.3-0.3c0,0.4,0.5,0.4,0.9,0.5c0.1,0.2,0.2,0.3,0.3,0.3v0.2c0.4,0.2,0.4,0.8,0.4,1.4c0,0,0,0.2-0.1,0.2
	C32.3,18.1,32.5,18,32.7,18L32.7,18z M26.4,12.6C26.4,12.6,26.5,12.6,26.4,12.6c0.4,0.2,0.8,0.2,1.2,0c0.2,0,0.4-0.4,0.8-0.4
	c0.3,0.1,0,0,0.1,0c0.1,0,0.8-0.2,1,0c0.2,0.2,0.9,0,1.3,0.3c0.3,0.3,0,0.3,0.2,0.3c-0.2,0.5-1.2,0.2-1.6,0
	c-0.4-0.2-0.4,0.5-0.9,0.5c0,0.2-0.1,0.5-0.2,0.7c-0.6,0-0.7,0.5-1.4,0.4c-0.2,0.2-0.3,0.4-0.8,0.4c-0.2,0.1-0.4,0.2-0.6,0.2
	c0-0.2-0.2-0.2-0.2-0.3c-0.2,0.1-0.4,0.2-0.5,0.2c0,0.1,0.1,0.2,0.2,0.3c-0.2,0-0.6,0.2-0.7,0.4c0.4,0.8,1.6-0.2,2.1,0.3h0.2
	c0,0-0.1,0.3-0.2,0c-0.2,0.3-0.9,0.2-1.2,0.5c-0.6,0-1,0.4-1.7,0.3c0-0.2,0-0.4-0.2-0.5c0.4-0.1,0.2-0.7,0.1-0.9
	c-0.1-0.2,0-0.1,0.1-0.1c0.3-0.3,0.7-0.5,1.1-0.7c0,0,0.3-0.2,0.3-0.5c0.3,0,0.5-0.2,0.6-0.4C26.1,13.5,26.5,13.3,26.4,12.6
	L26.4,12.6z M25.1,10.1c0.1,0.3,0.1,0.6,0,1c0.3,0.3,0.4,0.8,0.4,1.2c-0.7,0-0.8,0.6-0.7,1.2c-0.2,0-0.5,0.1-0.6,0.3
	c-0.3-0.1-0.6-0.1-0.9,0c-0.2-0.2-0.3-0.6-0.2-0.9c-0.5,0-0.7,0.4-1.1,0.2c0,0,0-0.1,0-0.2c0.4-0.4,0.3-1.1,0.9-1.2
	c0.2-0.5,0.5-0.9,1-1.2c0.3,0.2,0.7,0,1.1,0S25,10.4,25.1,10.1L25.1,10.1z M22.8,17.1H23v0.2h-0.2V17.1z M25.4,15c0,0.2-0.2,0-0.3,0
	v-0.1L25.4,15L25.4,15z M26.8,16.4c0-0.2,0-0.2,0-0.3h0.3v0.3C27,16.5,26.9,16.5,26.8,16.4L26.8,16.4z M28.6,14.1
	c0-0.2,0-0.2,0.2-0.2v0.2L28.6,14.1L28.6,14.1z M29.4,11.6c0-0.7,0.4-1,0.7-1.4c0.4,0,0.6,0.5,0.8,0.8l0.2,0.3c0,0,0,0.4,0.3,0.5
	c-0.2,0.1-0.4,0.1-0.6,0v-0.1c0,0-0.4,0-0.4-0.2C30,11.6,29.7,11.6,29.4,11.6z M31.3,23.6c0-0.2,0-0.2,0-0.4c0-0.2-0.3-0.4-0.2-0.8
	c-0.2-0.2-0.3-0.5-0.4-0.7c0.5,0.1,1.1,0,1.2-0.5c0,0.2,0.4,0,0.5,0c0.1,1.1-0.2,2.2-0.8,3.2c-0.2,0,0-0.3-0.1-0.4
	C31.4,23.9,31.3,23.8,31.3,23.6L31.3,23.6z M26.1,28.1c0.1,0,0,0,0.2-0.2l1.1-0.1c0-0.2,0-0.5,0.3-0.6c0-0.6-0.4-1.2-0.9-1.4
	c0-0.4-0.2-0.4-0.3-0.6c0.4,0,0.6,0.4,1,0.4c0.2,0.5,0.7,0.6,1.1,0.9c0.1,0.4,0.3,0.7,0.5,1c0,0.2,0,0.4,0,0.5s-0.2,0.8-0.5,1.2
	c-0.2,0.3-0.4,0-0.6,0c-0.1,0-1,0.2-0.9,0.8c-0.2,0-0.4-0.3-0.7,0c-0.2,0.3,0.2,0.2,0.1,0.5s-0.3,0.2-0.4,0.2
	c-0.2,0.1-0.4,0-0.5-0.2c-0.1-0.2,0,0,0-0.1c-0.2-0.1-0.4-0.3-0.3-0.5c0.4-0.1,0.7-0.2,1-0.4C26.2,29,26.2,28.5,26.1,28.1L26.1,28.1
	z M22.7,21.9c0.1-0.7-0.3-0.7-0.7-0.9c0-0.3,0.3,0,0.6,0c0.2,0,0-0.4,0-0.3s0.9-0.3,1.7,0c0,0.2,0.2,0,0.2,0.3c0.8,0,1.3,0.3,2,0
	c0.2,0.1,0.2,0.4,0.6,0.3s0-0.5,0.4-0.5c-0.2-0.4-0.8-0.3-1.1-0.5c-0.3-0.2-0.5,0-0.5-0.2c-0.4,0-0.8-0.1-1.2-0.3
	c-0.3,0-0.6,0-0.8,0s-0.4-0.2-0.6-0.2c-0.2-0.1,0-0.2,0-0.4s-0.6,0-0.7-0.4h0.4c0,0-0.2,0-0.2-0.1c0-0.1,0-0.2,0.2-0.3v-0.6
	c0.4-0.1,0.7-0.4,0.7-0.8c0.7,0.1,2,0.5,2.6,0s1.9,0.4,2.2-0.3c0.1,0.2,0.3,0.3,0.5,0.4c0.1,0,0,0.2,0,0.3c0,0.2,0.2,0.3,0.2,0.6
	c-0.7,0-1.2,0-2,0c-0.2,0-0.2,0.4-0.2,0.7c0.1,0.1,0.2,0.2,0.4,0.3c0,0.4,0.4,1.2,0,1.5c0.1,0.2,0.1,0.4,0,0.6
	c0.2-0.1,0.4-0.2,0.5-0.3c0.2,0,0,0.2,0.3,0.2c0.3-0.1-0.2,0,0,0.3s1.2,0.2,1.7,0.4c0.5,0.2,0.7,0.7,0.7,1.4
	c0.3,0.2,0.2,0.8,0.2,1.2c-0.7,0-0.5-0.7-1-0.8c-0.5-0.1-0.4,0.3-0.7,0.3v-0.6c0-0.2-0.3,0-0.2-0.2h-0.8c-0.6-0.2-1.1-0.6-1.6-1
	c-0.2,0-0.5,0-0.7,0c-0.1-0.4-0.8-0.2-1.1-0.4c-0.2,0.4,0.4,0.8,0.9,0.8c0,0.3,0.4,0.3,0.4,0.6c0.6,0,0.8,0.3,1.3,0.3
	c0,0.2,0,0.2,0,0.3c0.2,0,0.4,0,0.5,0c0.4,0.3,0.6,0.8,1.3,0.7c0,0.2,0.2,0.2,0.2,0.3h0.4c0.2,0.2,0.3,0.5,0.3,0.8
	c-0.8,0.2-1.1-0.5-1.8-0.3c0-0.2-0.3,0-0.3-0.3c0-0.3,0.3-0.3,0.7-0.3c-0.2-0.4-0.6-0.5-1-0.6c0,0,0,0,0,0.3h-0.5
	c0-0.3-0.2-0.4-0.5-0.3c0,0.1-0.3,0-0.4,0c-0.1,0,0-0.2,0.2-0.2c0-0.4-0.7-0.3-0.9-0.5c-0.2-0.3,0-0.3,0.2-0.4
	c0.2-0.1-0.3-0.2-0.4-0.3c-0.1-0.1-0.3,0.2-0.4,0.4C24.9,23,24.5,23,24.2,23c-0.3-0.8-1-1-1.7-1.3L22.7,21.9z M21.4,20.5v-0.2
	c0-0.1,0.2-0.2,0.3-0.2c0.1,0,0.3,0.1,0.3,0.2c-0.2,0-0.3,0-0.5,0L21.4,20.5z M21.7,16.2c0,0,0.3,0.4,0,0.3
	C21.4,16.4,21.7,16.3,21.7,16.2z M20.6,19.9c0-0.3,0.3-0.3,0.1-0.7c-0.1-0.4,0.2,0,0.3,0.2C21.1,19.6,20.8,19.8,20.6,19.9z
	 M19.9,20.8c0,0.2,0,0.3-0.3,0.3C19.3,21.1,19.9,20.9,19.9,20.8z M14.9,18.5c-0.4-0.4,0-0.8-0.1-1.2c0.5,0,0.6-0.6,0.6-1.1
	c0.2,0,0.2,0.2,0.4,0c0.3-0.2,0.2-0.2,0.1-0.5c0.3-0.5,1.2-0.4,1.7-0.8c0.5-0.4,0.2,0,0.3,0s0.7,0,1.1,0s0.4,0.2,0.6,0.3
	c0.2,0.1,0,0,0,0s0.3,0.5,0.6,0.6c0.3,0.1,0,0,0,0.2s0.1,0.2,0.3,0.2c0,0.2,0,0.4,0,0.6c0,0,0,0.2,0.3,0.2c0,0.6,0.2,1.3-0.2,1.5
	c0-0.4-0.2-0.8-0.4-1.1c0,0.2-0.2,0-0.3,0.3s0.1,0.2,0.1,0.3s-0.2,0.9-0.2,1.3c-0.5,0-1.1,0.1-1.5,0.4c-0.1,0-0.2-0.2-0.3-0.3
	c-0.1-0.1-0.5,0-0.9,0c0-0.4-0.4-0.5-0.4-0.9h-0.4c-0.2,0-0.2,0.4-0.3,0.5c-0.1,0.1-0.3-0.5-0.4-0.8h-0.3c-0.1,0.3-0.1,0.5,0,0.8
	c-0.4,0-0.2-0.5-0.2-0.7L14.9,18.5z M20.3,13.1c0,0,0.1,0,0.1-0.2s0,0,0,0.2H20.3z M19.9,14c0-0.2,0-0.2,0-0.4c0-0.2,0.2,0,0.2,0.3
	L19.9,14L19.9,14z M19.9,6.6V6.3C20.1,6.3,20.2,6.7,19.9,6.6z M19.2,6.8c0.1,0.5,0.3,1,0.4,1.4c-0.3,0.3-0.3,0.8-0.6,1
	c-0.3,0.3,0,0.2,0.2,0.3c-0.2,0.3-0.2,0.7,0,1c0,0.2-0.2,0.3-0.1,0.6c-0.6,0-0.2,1.2-0.4,1.5c-0.6,0-0.5,0.6-0.4,1
	c-0.2-0.1-0.4-0.1-0.6,0l0,0c0.3-0.2,0-0.4,0-0.6s-0.8-0.4-1-0.4c-0.2-0.8-0.3-1.7-0.3-2.5c0-0.2-0.2,0,0-0.2c0.6-0.5,0-1.9,0.5-2.4
	c-0.1-0.2-0.1-0.5,0-0.8c-0.1-0.2-0.3-0.4-0.4-0.6c0.2,0.1,0.4,0.3,0.4,0.6c0,0,0,0,0.3-0.2c0-0.1,0-0.2,0-0.3c0,0,0,0,0.2,0
	c0.2,0,0-0.3,0-0.6c0.2-0.3,0.2-0.7,0-0.9c-0.2-0.4-0.5-0.6-0.9-0.5c-0.4,0.1-0.7,0.4-0.7,0.8c-0.2,0-0.1,0-0.3,0
	c0-0.8,0-1.5,0.8-1.6c0,0,0.2,0,0.2-0.3S17,3.1,17,3c0-0.2,0.3,0,0.3,0c0.1-0.1,0.3-0.2,0.4-0.2c0,0,0.2,0,0,0.2
	c-0.2,0.2,0.2,0,0.4,0c0.1,0,0.2,0.4,0.5,0.5c0.1,0.2,0.1,0.5,0,0.7C17.6,4,17.2,5,17.8,5.6c0,0.8,0.2,1.7,1,1.4c0,0,0-0.3,0.2-0.4
	L19.2,6.8z M19.2,2L19.2,2h0.1H19.2z M14.9,8.6c0,0.7,0.1,1.4,0.4,2c0,1.3,0.8,1.7,0.7,3.1c-0.3,0-0.2,0.5-0.2,0.6s-0.2-0.4-0.4-0.4
	c0,0.3,0.2,0.3,0.3,0.6c-0.5,0.2-0.7-0.4-1.5-0.2c0,0-0.2,0-0.2-0.2c-0.1,0-0.3,0.2-0.3,0.3c-0.3-0.1-0.5-0.1-0.8,0
	c-0.3-0.2-0.5-0.5-0.9-0.6c-0.4-0.5-0.8-0.9-1.3-1.2c0-0.9-0.9-0.6-0.9-1.4c0.2,0,0.2-0.2,0.5,0c0-0.4-0.3-0.4-0.4-0.6
	c-0.1-0.3,1,0,1-0.6c0.2-0.1,0.4-0.1,0.6,0c0.2,0.1,0.2,0.3,0.5,0.5c0.3,0.2,0.3,0.2,0.4,0.4c0,0.2,0,0,0,0s0.1,0.6,0.4,0.7
	c0,0.6,0.3,0.7,0.6,0.9s0-0.4,0-0.6c0-0.2,0.3-0.4,0.2-0.9c-0.3-0.4-0.6-0.8-0.7-1.3c0.2,0.1,0.4,0.2,0.7,0.2
	c0.1-0.5-0.1-0.9-0.5-1.2c0.1-0.3,0.1-0.6,0-1c0,0-0.1-0.2-0.1-0.6s0.2,0.2,0.4,0.2c0.2-0.4,0-0.9-0.3-1.1c0,0,0-0.4,0-0.4
	c0,0.1,0.2-0.2,0-0.4C13,5.3,12.7,5,12.3,4.8s0.2-0.3,0.4-0.5c0.3,0.1,0.5,0.3,0.7,0.5c0.2,0,0-0.3,0.3-0.3V4
	c0.3-0.2,0.6-0.3,0.9-0.2c0,0.2,0,0.4-0.1,0.3c0,0.4,0,0.5,0,0.9c-0.4,0-0.5-0.2-1-0.2c0,0.4,0.3,0.3,0.1,0.6
	c0.3,0.1,0.5,0.3,0.7,0.5C14.6,6.8,14.4,8,14.9,8.6L14.9,8.6z M12.9,10.5c0-0.5-0.4-0.6-0.2-0.9c0.2,0.2,0.3,0.5,0.3,0.8l0,0
	c0,0-0.2,0-0.3,0L12.9,10.5z M12.7,7c0,0,0,0.1-0.3,0.1C12.1,7.1,12.4,6.9,12.7,7l0-0.2c0.2,0,0,0,0.3,0V7C12.7,7,12.8,7,12.7,7
	L12.7,7z M9.9,5.8c0-0.2,0.2,0,0.1-0.3c0.6,0,0.8-0.7,1.4-0.7c0,0.5-0.2,1-0.6,1.3C10.7,5.9,10.2,6.1,9.9,5.8z M11.3,7.6
	c0.1,0,0.2,0.3,0.3,0.3c0,0.6,0.6,0.5,0.5,1.1c-0.2,0-0.4-0.4-0.5-0.6c-0.1-0.2,0,0-0.2,0s0-0.3-0.2-0.4c-0.2-0.4-0.7-0.6-1.1-0.5
	c-0.6,0.4-1,1-1.1,1.7C8.5,9,7.9,9.1,7.5,9.6c0,0.2,0.2,0.2,0,0.5c-0.2,0.3,0-0.2,0-0.4c0.1-0.3,0-0.7,0.3-0.9
	c0.3-0.2-0.3-0.3-0.3-0.6c0-0.2,0.7-0.7,0.7-1.2c0.4,0,0.5-0.3,0.6-0.6c0.5-0.1,0.9-0.2,1.4-0.2c0.5,0,0.8,0.6,1.2,0.8
	C11.4,7.3,11.4,7.4,11.3,7.6L11.3,7.6z M15.6,6.5c0-0.1,0-0.2,0-0.3c0.1,0,0.2,0,0.3,0v0.4L15.6,6.5L15.6,6.5z M15.5,2.9h-0.2
	C15.3,2.7,15.5,2.7,15.5,2.9L15.5,2.9z M15.4,2.3c-0.2,0,0-0.2-0.3,0s0.5-0.3,0.7,0s0.7-0.3,0.8,0c-0.4,0-1,0-1.2,0.2V2.3z
	 M16.3,2.9c0-0.2,0.4-0.3,0.6-0.1C17,2.9,16.5,2.8,16.3,2.9z M8.5,16.4v-0.2c0.1,0,0.3,0,0.3,0.2H8.5z M8.5,14.8
	c-0.1-0.1-0.3-0.2-0.5-0.2c0,0,0.4,0,0.4,0c0.4,0.3,0.8,0.4,1.3,0.5c0,0.2-0.3,0.2-0.4,0.4c-0.1,0.2,0.3,0,0.3,0.2
	C9.6,15.9,9.4,16,9.2,16c0,0,0-0.2,0-0.3c0-0.1-0.4,0-0.5,0s0.2,0,0.2-0.4s-0.2-0.2-0.2-0.4L8.5,14.8z M5.8,19.3c0,0,0-0.1,0-0.2
	h0.2v0.2H5.8z M2.5,17.7h0.1H2.5z M2.6,16.8c-0.4-0.4,0-1.1,0.1-1.4c0.3,0.2,0,0.5,0,0.8c0,0.3,0,0-0.2,0c0,0.2,0,0.4,0,0.6
	L2.6,16.8z M2.5,26.1c-0.2,0-0.3-0.3-0.3-0.6c0-0.3,0.1,0.3,0.4,0.2c-0.2-0.4-0.3-0.9-0.3-1.4c0.4,0.3,0.5,0.9,0.7,1.5
	C2.6,25.9,2.6,26,2.5,26.1L2.5,26.1z M1.7,22.9c0-0.2,0.1-0.2,0.3-0.2s0,0.4,0,0.3c0.1,0.3,0.4,0.4,0.4,0.9C2,23.9,2,23.4,1.9,23
	c-0.1-0.4,0,0,0,0L1.7,22.9z M1.6,23c-0.2,0.1-0.4,0-0.5-0.1S0.9,22.5,1,22.3c0.1,0.1,0.3,0.2,0.3,0.6L1.6,23z M0.7,17.7
	c0-0.4,0.2,0.3,0,0.3C0.5,17.9,0.7,17.6,0.7,17.7z M0.7,20c0.8,0,0.3-1.4,0.5-1.9c0.2,0.1,0.2,0.2,0,0.4s0.3,0,0.4,0
	c0,0.2,0,0.4,0,0.6c-0.2,0-0.2,0-0.3,0c-0.1,0.1-0.2,0.3-0.2,0.5s0.1,0.4,0.2,0.5c0,0.7,0,1.5,0,2.2c0-0.2-0.4-0.2-0.7-0.2
	c-0.2-0.7-0.3-1.4-0.2-2.1H0.7z M1.1,17.7c0-0.2,0.1,0,0-0.3C1,17.1,1.4,17.7,1.1,17.7z M1.8,16.1L1.8,16.1c0-0.2,0-0.2,0.2-0.2
	C1.9,16,1.9,16.1,1.8,16.1l0,0.5c-0.1,0,0,0-0.2-0.2h0c-0.2,0.2-0.3,0.5-0.4,0.8c-0.2,0,0-0.7,0-0.8c-0.1-0.4,0-0.9,0.3-1.2
	c0,0.4-0.2,0.5,0,0.7c-0.2,0,0,0.4,0,0.4L1.8,16.1z M1.8,13.9c-0.1-0.1-0.1-0.3,0-0.5c0.1-0.2,0.2-0.3,0.3-0.3
	c0.1,0.2,0.1,0.4,0,0.6c0,0-0.2,0-0.3,0L1.8,13.9z M2.5,11.8c0,0,0-0.4,0.3-0.4S2.8,11.8,2.5,11.8L2.5,11.8
	c-0.1,0.2-0.3,0.5-0.3,0.8v-0.4c0.2,0,0.1-0.2,0.3-0.3h0.1V11.8z M3.7,10.1c-0.3,0-0.4,0.5-0.6,0.7l0,0c0-0.7,0.3-0.9,0.6-1.2V10.1z
	 M3.7,12.2c0.1,0,0,0.3,0.2,0.3c-0.2,0.4-0.2,1-0.6,1.2c0,0.4,0,0.8-0.2,0.9c0,0.1,0,0.2,0,0.3c0,0,0,0-0.2,0l0,0
	c0-1,0.6-1.5,0.7-2.3L3.7,12.2z M3.7,11.8c0.4,0,0.2-0.4,0.5-0.4c0,0.4-0.3,0.6-0.5,0.9C3.6,12.6,3.8,12,3.7,11.8L3.7,11.8z
	 M4.2,14.1c0.2,0.2,0.4,0.4,0.6,0.7c0.2,0,0.2,0,0.4,0c0,0.4,0.1,0.5,0.2,0.7c-0.7,0-1.2,0.3-1.8,0.2c0-0.4-0.2-0.5-0.2-0.9
	c0-0.4,0.4-0.6,0.5-1C4.2,13.8,4.3,13.8,4.2,14.1L4.2,14.1z M5.2,9.7c0.1,0,0,0.2,0,0.2S5.2,9.8,5.2,9.7z M5.7,7.1
	c0,0,0,0.5-0.3,0.5c-0.3,0,0-0.2,0-0.4C5.3,7.1,5.6,7.3,5.7,7.1L5.7,7.1z M5.8,8.8c0.1-0.3,0.3-0.4,0.5-0.5c0,0.2-0.1,0.3-0.2,0.5
	L5.8,8.8L5.8,8.8z M6.2,10c0.5,0.5,0.8,1.1,1.2,1.6h0c0.2,0.1,0.4,0.2,0.6,0.2c0,0.2-0.2,0,0,0.3c0.6,0.4,1.2,0.7,1.9,1v0.2
	c0.4,0,0.5,0.6,1,0.6c0.1,0.3,0.3,0.5,0.6,0.6c0,0.2,0.2,0.4,0.5,0.3s0,0.2,0,0.4c0.5,0.2,0.9,0.4,1.2,0.8c0.5,0,0.5,0.3,1,0.3
	c0,0.3,0.1,0.5,0.4,0.5c-0.1,0.2-0.2,0.4-0.2,0.6c-0.7,0-1-0.3-1.8-0.2c-0.2-0.3-0.7-0.3-0.9-0.6c-0.2-0.3-0.6,0-0.7,0
	c-0.3-0.2-0.8-0.2-1-0.6c-0.1-0.4,0,0.2,0.3,0c0.3-0.2,0,0,0-0.2s-0.3,0-0.2-0.5l0.7,0.3c0.2,0,0-0.2,0.3,0c0-0.3,0-0.5,0.1-0.7
	s-0.2,0-0.2-0.3c-0.8,0.3-1.2-0.2-1.9-0.3c0-0.2-0.1-0.2-0.2-0.4H8.7c-0.3,0-0.5-0.3-0.8-0.3c-0.4,0-0.6-0.4-0.8-0.6
	c-0.8,0-0.8-0.6-1.6-0.5c0-0.2-0.5,0-0.7-0.3v0c0.4-0.3,1.2,0.2,1.4-0.2c0.2-0.4,0.9,0,1.4,0c0-0.2-0.2-0.2,0-0.4H7.5
	c0,0-0.5,0.2-0.6,0c-0.6,0.2-1.3,0.2-2,0.2c0-0.3,0.2-0.5,0.2-0.7c0-0.3-0.3-0.3-0.5-0.3c-0.2,0,0-0.3-0.2-0.3
	c-0.2-0.1,0.2-0.2,0.2-0.3c0-0.2,0.3,0.3,0.3,0.5c0.5,0,0.6-0.3,0.6-0.8c0.2,0,0.3,0,0.6,0L6.2,10z M13.4,1.4C13.6,1.1,14,1,14.4,1
	c0,0.3-0.5,0.2-0.7,0.4c0.1,0.3,0,0.6-0.2,0.8c0,0,0,0.3,0,0.4c0.4,0,0.4-0.7,0.8-0.3s0,0.2-0.1,0.2c-0.1,0,0,0.2,0,0.3
	c0.4,0,0.5-0.2,0.8-0.2c0,0.2-0.4,0.2-0.6,0.2c-0.2,0-0.6,0.3-0.8,0.5c-0.7,0-1.3,0-1.4,0.6c-0.1,0-0.4,0-0.4,0
	c-0.4,0-0.4,0.4-0.6,0.6c-0.2,0.2-0.2,0-0.2,0c-0.2,0-0.5,0-0.7,0C10,4.9,9.6,5.1,9.1,5.3c0,0,0,0.2-0.2,0s0,0.3,0,0.5
	c-0.4,0-0.7,0.2-0.8,0.6C8,6.7,7.5,6.4,7.3,6.7c-0.1,0.3,0-0.2,0-0.3c0.5,0,0.4-0.6,0.7-0.8C7.7,5.6,7.6,6,7.4,6.2
	c0.1-0.4,0.4-0.7,0.8-0.8v0.3c0.4,0,0.5-0.3,0.9-0.4c0-0.2,0-0.3,0-0.5c-0.2,0,0,0.2-0.2,0c-0.1,0-0.1,0-0.2-0.1S8.5,4.5,8.5,4.5
	c-0.1,0-0.3,0-0.3-0.2c0-0.2-0.4,0.5-0.8,0.5c0.2-0.4,0.5-0.7,0.8-0.9c0-0.4,0-0.4,0,0v0.4v0.3c0.3,0.1,0.5,0.3,0.7,0.5
	c0.2,0,0.2-0.3,0.2-0.5c0.2-0.3,0.5-0.4,0.8-0.3c0,0.2-0.2,0.1,0,0.4c0.5,0,0.9-0.2,1.1-0.7h0.8h0.2c0,0,0.3-0.2,0.2-0.4
	c-0.1,0-0.2,0-0.3,0c-0.3,0-0.3,0.4-0.7,0.3c0,0,0-0.3,0.1-0.3s-0.1,0,0-0.2c-0.6,0-1.1,0-1.2,0.5s-0.5,0-0.5,0.4c0,0.4-0.4,0-0.5,0
	s0.1-0.3,0.2-0.5c0.5,0,0.7-0.4,1.2-0.4c0.5,0,0.2-0.8,0.1-1.3c0.2,0,0.2,0.3,0.2,0.5h0.2c0.2,0,0-0.3,0-0.5s0.6,0.4,0.9,0
	s0,0.3,0.2,0.2c-0.2,0.3-0.6,0.4-1,0.5c-0.4,0.1,0,0.3,0.2,0.4c0.3-0.1,0.6-0.3,0.9-0.4c0,0.3-0.3,0.2-0.4,0.5
	c0.5-0.1,0.9-0.3,1.3-0.6c-0.1,0-0.2,0-0.3,0c0-0.2,0.3-0.2,0.3-0.4h-0.5c0-0.5,0.6-0.3,0.7-0.6c0.1-0.4,0-0.3,0-0.2H13.4z M14.9,1
	c0-0.2,0.3-0.2,0.3,0H14.9z M17.7,0.8c0.2-0.1,0.4-0.1,0.6,0C18.2,1.1,17.8,0.8,17.7,0.8z M18.9,0.8c0,0.4,0.5,0.2,0.5,0.4
	c-0.3,0-0.5,0.2-0.9,0.2c0,0.3,0.2,0.3,0.3,0.4c0.1,0.1-0.3,0-0.5,0.2c-0.1,0.2,0,0,0,0.2c0,0.2,0.2,0,0.2,0.3
	c0.1-0.1,0.2-0.1,0.3-0.1c0,0.2,0.2,0,0.1,0.4c-0.5,0.1-0.6-0.2-1.1-0.2c0-0.2,0.2-0.3,0-0.4c-0.2-0.1-0.4,0-0.6,0c-0.2,0,0,0,0,0
	s1,0,1.2-0.3c-0.5-0.5-1.6,0-2.5-0.2c-0.3,0.1-0.7,0-1,0.2c-0.3-0.3-0.5,0-0.8,0c0-0.6,0.9-0.3,1.1-0.7c0.4,0.2,0.9,0.2,1.3,0h1.6
	c0.2,0,0.3-0.3,0.6-0.2L18.9,0.8z M19.3,4.4c0.2,0,0-0.2,0.2-0.2c0.2,0,0.2,0.5,0.5,0.6s0,0.7-0.1,0.8c-0.1,0.1,0,0.6-0.1,0.6
	c0-0.5,0.2-1.1-0.3-1.1c0-0.2,0-0.5,0-0.7H19.3z M20.6,5.3c0-0.5-0.1-1-0.3-1.4c0,0-0.2,0-0.3,0c0.2-0.4,0.9,0,1.3,0
	c0-0.2-0.3,0-0.2-0.3c0-0.3,0.2-0.2,0.3-0.2c0.1-0.1,0,0.2,0.1,0.3h0.3c0,0,0.1-0.2,0.1-0.3c0-0.1,0,0.4,0,0.6h-0.1
	c0.3,0,0.6,0,0.6,0.5c-0.5,0-1,0.4-0.8,1c0.2,0,0.3,0,0.5,0C22.1,6,21.2,6,21,6.4c-0.3,0,0-0.7-0.4-0.8L20.6,5.3z M22.4,5.1
	c-0.2-0.2,0.2-0.4,0.4-0.4S22.6,5.1,22.4,5.1z M22.2,2.5H22C22,2.5,22,2.5,22.2,2.5z M20.9,2.2h-0.2V2h0.2V2.2z M20.3,2.8
	c0-0.2,0.4-0.2,0.3,0H20.3z M20.3,0.9c0-0.2,0.2-0.2,0.2,0H20.3L20.3,0.9z M22.9,2.1c0,0,0.2,0,0.1,0H22.9L22.9,2.1
	C22.7,2.1,22.5,2.2,22.9,2.1l-1.7-0.3c0,0-0.2-0.1-0.3-0.2c-0.2,0-0.4,0-0.6,0c-0.2,0-0.4-0.2-0.6-0.1V1.3c0.4,0,0.9,0,1,0.2
	C21.5,1.4,22.2,1.6,22.9,2.1L22.7,2H23L22.9,2.1z M22.8,2.5c0.5,0.3,1.2,0.3,1.5,0.8c-0.4,0-0.7,0-0.7-0.3c-0.5,0-0.6-0.3-1-0.3
	C22.3,2.6,22.7,2.7,22.8,2.5z M23.4,3.3c0.1,0,0.3,0,0.3,0.2h-0.3V3.3L23.4,3.3z M25.1,2.9c0,0.2,0.4,0,0.4,0.3h-0.3
	C25.2,3,25.2,3,25.1,2.9L25.1,2.9z M25.7,5.2c0,0.3,0.2,0.4,0.2,0.7l-1,0.7c-0.2,0-0.1-0.5-0.6-0.3c-0.1,0.2-0.1,0.4,0,0.6
	c0,0,0,0.2,0,0s-0.1,0-0.1,0.2c0,0.2-0.1,0.4-0.1,0.6l0,0c0,0,0,0.3,0,0.4c0,0.1,0,0-0.1,0c-0.1,0,0,0.2-0.1,0.2v0.4
	c-0.2,0.2-0.3,0.4-0.4,0.6c-0.1,0,0,0-0.3,0s0,0.2,0,0.3c-0.5,0.2-0.4,0.8-0.9,1c0,0.2,0,0.3,0,0.5c-0.3,0.3-0.5,0.7-0.6,1.1
	c-0.4,0-0.5,0.3-0.8,0.4s0-0.3,0-0.5s-0.2,0.2-0.3,0.3c0,0.2,0-0.2-0.1-0.3c-0.5-0.2-0.2-0.9,0-1.3s-0.2,0,0-0.2
	c0.2-0.2,0.2-0.4,0.4-0.4s-0.1-0.4-0.3-0.5c-0.1-0.3-0.1-0.7,0-1h0.3c0-0.4,0.7-0.3,0.8-0.7h0.3c0.1,0.2,0.1,0.4,0.1,0.7
	c-0.1,0-0.3,0.5,0,0.6s0.3-0.4,0.5-0.5c0-0.9,0.7-1.2,0.8-2.1h0.6c0-0.2,0-0.3-0.2-0.4C23.6,5.7,24,5.5,24,5c0.2,0,0.3,0,0.5,0
	c0,0,0,0,0,0c0.3,0.3,0.7,0.3,1.1,0.2L25.7,5.2z M27.1,4.8c0,0.2-0.2,0-0.3,0c-0.1,0-0.2,0-0.2-0.3l0.5,0.2V4.8z M27.1,4.1
	c0,0,0.2,0,0.2,0S27.3,4.1,27.1,4.1z M27.1,6.5C27.2,6.8,27.5,7,27.7,7c0.2,0.3,0.5,0.6,0.8,0.8c0,0.4,0.2,0.4,0.3,0.7
	C29,8.7,28.5,8.7,28.5,9s0.4,0.8,0.4,1.2c-0.1,0.4-0.2-0.4-0.2-0.5s-0.1-0.4-0.2-0.5c0-0.1-0.4-0.3-0.7-0.6h-0.6c0,0,0-0.4-0.3-0.4
	c0-0.6-0.3-0.6-0.5-0.9c-0.2-0.3-0.7,0.3-1.2,0.2c0.3-0.5,0.7-0.9,1.1-1.1C26.5,6.4,26.8,6.4,27.1,6.5L27.1,6.5z M37.9,17.3
	c0,0.3-0.4,0.2-0.6,0.3c-0.2,0.1-0.3,0.3-0.5,0.4h-0.4c-0.1,0-0.2,0.2-0.4,0c-0.5-0.2-1-0.3-1.5-0.3c0-0.3-0.2-0.3-0.4-0.3
	c0-0.4-0.2-0.8-0.5-1c0-0.2-0.1-0.5-0.2-0.7c0.1-0.7,0-1.4-0.3-1.9c0-1-0.6-1.5-0.8-2.3c-0.1,0,0-0.3-0.3-0.3c0-0.8-0.6-0.9-0.7-1.6
	c-0.1-0.7-0.5-0.8-0.8-1.1c-0.3-0.3,0.1-0.1,0.2-0.2c0-0.1,0-0.2,0-0.3c-0.4-0.5-0.7-1.1-1.3-1.3c0-0.2-0.1-0.3-0.2-0.4
	c-0.1-0.1-0.3-0.1-0.5-0.1c0,0,0,0,0,0.2S28,6.1,27.9,5.9c0.1,0,0.2,0.1,0.3,0.2c0,0,0,0-0.1-0.6c0.7,0,0.6,1,1.4,0.8
	c0-0.3-0.3-0.5-0.4-0.8s-0.6,0-0.5-0.4c0.5,0,0.8,0.8,1.3,0.6l0,0c0,0,0.8,0.2,0.9,0.7c0.1,0,0.1,0.3,0.3,0.2
	c0.2,0.6,0.7,0.8,0.9,1.3c0.2,0,0.2,0.3,0.5,0.4c0.2,0.1,0.4,0.5,0.4,0.9c0,0.5,0.4,0.6,0.6,0.8c0.2,0.2,0,0.4,0,0.6
	c0,0.2,0,0,0.1,0c0.1,0,0.2,0.9,0.5,1.1c0,0.3,0.1,0.6,0.4,0.8c0,0.3,0,0.6,0.2,0.7c0.2,0.1,0,0.7,0.2,0.8c0,1,0.3,1.7,0.3,2.5
	c0,0,0,0.2,0.2,0.2c0.4,0.1,0.8,0,1.2-0.2c0-0.2,0-0.3,0-0.5c0-0.4-0.6-0.3-0.8-0.6c0.1-0.3,0.2-0.6,0.5-0.8c0.5,0,0.7,0,1.1,0
	c0,0.4,0.3,0.4,0.4,0.6c0.1,0.4,0.1,0.7,0,1.1c0,0.2,0,0.6,0.1,0.6L37.9,17.3z M35.2,28.7v-0.2c0.1,0,0,0,0.2,0c0.2,0,0,0-0.2,0
	V28.7z M36.8,26c0,0.3,0,0.3,0,0.5c-0.2-0.1-0.2-0.3-0.2-0.5H36.8L36.8,26z M38.2,22.1c0.3,0,0.3,0,0.4,0.2c0.1,0.2,0.5,0,0.7,0
	c0,0.1,0,0.2,0,0.3c0.4,0,0.7,0,1,0c0-0.2-0.1,0-0.2-0.2v0.3c-0.2-0.1-0.4-0.1-0.6,0c-0.1,0,0-0.4,0-0.5c0,0,0.3,0.2,0.6,0.2v0.3
	c0.1,0,0.3,0,0.3,0.3h-0.2c0,0.2-0.3,0-0.3,0.3c-0.6-0.5-0.9,0.7-0.2,0.8c0,0.4,0.1,0.7,0.3,1c0,0.3-0.5,0.2-0.6,0.5
	c0.4,0.4,0.6,1.1,0.5,1.7c-0.3,0.1-0.5,0.4-0.7,0.7c-0.5,0-0.7,0.5-1.3,0.6c-0.4,0.3-0.9,0.5-1.4,0.4c0-0.2,0-0.3,0.2-0.4v-0.2
	c-0.2,0,0-0.6-0.3-0.8h-0.2c0,0.1-0.4,0-0.5,0s-0.2-0.7,0.2-0.7c0-0.4,0-0.7,0-1c0,0,0,0-0.3,0.9c-0.2,0-0.2,0-0.3,0v-0.1
	c-0.1-0.2,0-0.1,0.2-0.2c0.2-0.1,0-0.3,0-0.3s0,0,0,0s0-0.5,0-0.7c0.6,0.3,0.3,0.6,0.3,0.6c0.3,0,0-0.5,0.5-0.4c0.1,0.3,0.1,0.7,0,1
	c0,0.2-0.2,0.2-0.2,0.3s0,0.2,0,0.3c0,0.3,0.1,0.3,0.2,0.4c0.2,0,0-0.3,0.3-0.2c0.3,0.1,0.2,0.2,0.1,0.4H37c0.1,0,0-0.3,0-0.4
	c0-0.2,0.2-0.9,0-1c-0.2-0.1,0.2-0.2,0.3-0.3c0.1-0.1,0-0.2,0-0.3l0.1-0.2c0-0.6-0.2-1.5,0-1.9c0.2-0.5-0.1,0.2-0.1-0.1
	c0-0.3,0.2,0.6,0.5,0.7c0.1,0.6,0.2,1.3,0.5,1.9c0.3-0.2,0.8,0,0.9-0.2c0-0.4-0.1-0.5-0.3-0.6c-0.1-0.2-0.2,0.2-0.4,0.2
	c0-0.1,0-0.2,0-0.3c0.1,0.1,0.2,0.1,0.3,0c0.5-0.9-0.4-1.6-0.6-2.4L38.2,22.1z M39.7,21c-0.2,0,0-0.2-0.3,0c-0.3,0.2,0-0.2,0.2-0.2
	c0,0.1,0,0.2,0,0.3L39.7,21z M39.4,21.5v0.2V21.5L39.4,21.5z M38.5,21.5c0-0.2,0.6-0.2,0.6,0C38.8,21.3,38.8,21.5,38.5,21.5z
	 M43.7,19.8c0-0.2,0.1-0.2,0.3-0.2C44.2,19.6,44,19.8,43.7,19.8z M44.1,21.4c0.2,0.2,0.2,0.6,0.7,0.6c0,0.6,0.6,0.7,0.8,1.2
	c0.3,0,0.5,0,0.8,0.2c0,0.6,0.3,0.8,0.4,1.2h-0.6c-0.2,0-0.2,0.4-0.2,0.6H46c0.1,0.1,0.1,0.4,0.3,0.4c0.1,0.3,0,0.7-0.1,1
	c-0.5,0.2-0.7,0.7-1.2,0.8c-0.5,0.1-0.9,0.5-1.1,1c-0.4,0-0.5,0.3-0.8,0.3c-0.3,0-0.7-0.6-1.3-0.7c-0.2-0.2-0.5-0.4-0.8-0.4
	c-0.3-0.5-1.1-0.9-0.7-1.6c0.2,0,0.2,0.3,0.4,0.4c-0.1,0.8,0.4,0.8,0.6,1.2c0.3-0.1,0.5,0.1,0.6,0.3c0-0.2,0.4-0.1,0.4-0.4
	c0-0.2,0.2,0,0.4,0c0.2,0,0-0.3,0-0.5s0,0.2,0.3,0v-0.2c0,0,0,0,0.2,0s0.5-0.3,0.7-0.6c-0.1-0.2-0.2-0.5-0.2-0.8c0,0,0,0,0.2,0
	c0-0.9-0.4-1.6-1.2-1.8c0-0.3-0.1-0.5-0.4-0.5c0-0.4-0.3-0.3-0.3-0.6h-0.7C41,22.3,40.9,22,40.5,22c-0.4,0,0,0.4,0,0.3
	c-0.2,0.1-0.5-0.2-0.6-0.3c-0.1-0.1,0.2,0,0.3-0.1c0.1-0.1,0-0.7-0.3-0.7c0.2-0.4-0.2-0.4-0.2-0.8c-0.3-0.3-1.1-0.2-1.5-0.4
	c0.2-0.3,0.7,0,1.1-0.2c0.1-0.1,0.1-0.2,0.2-0.3c-0.5-0.3-1.7,0.2-2-0.3c0.4-0.3,0.8-0.2,1.4-0.3c0-0.2,0-0.2,0.2-0.2
	c0.2,0,0.5,0.3,0.7,0.4c0.2,0.1,0,0.8,0.2,1c0.2,0.2,0,0.4,0,0.4c0.2,0,0,0.5,0.2,0.6c0.3,0.3,0.6,0.4,1,0.4
	c0.2,0.3,0.6,0.5,0.9,0.5c0.2,0.3,0.5,0.6,0.8,0.8c0,0.1,0,0.2,0,0.3c0.2,0,0.2,0.2,0.4,0.3c0.3,0.7,1.1,0.8,1.3,1.6
	c0.1,0,0.3,0.3,0.5,0.2c-0.2,0-0.1-0.5-0.1-0.7c-0.1-0.6-0.4-1.2-0.7-1.7c-0.1-0.6-0.6-1.1-1.2-1.1v-0.1
	C43.4,21.5,43.7,21.5,44.1,21.4L44.1,21.4z M41.5,24c-0.2,0-0.4-0.3-0.7-0.4v-0.3h0.3C41.1,23.7,41.5,23.6,41.5,24L41.5,24z
	 M41.2,24.8c0,0,0-0.2,0-0.4c0-0.2,0.4,0,0.3,0.3L41.2,24.8L41.2,24.8z M41.9,24.8c0-0.2-0.1-0.4-0.2-0.5c0.2-0.1,0.4,0.3,0.7,0.2
	V25c0.2,0.5,0.8,0.4,0.8,1.1c0,0,0,0-0.2,0C42.6,25.8,42.7,24.8,41.9,24.8L41.9,24.8z M42.7,26.4c-0.2,0-0.3-0.2-0.3-0.4
	C42.4,25.7,42.7,26.1,42.7,26.4z M56.7,21.8c0,0.2-0.2,0-0.3,0.1C56.3,22,56.6,21.6,56.7,21.8z M56.4,22.6v-0.2h0.2v0.2H56.4
	L56.4,22.6z M56.7,12.8V13h-0.2v-0.2L56.7,12.8L56.7,12.8z M57.5,13.1h-0.2v-0.2h0.1L57.5,13.1z M58.4,18.3c0,0.1,0.1,0.2,0.2,0.3
	c-0.1,0.5-0.2,1.1-0.3,1.7c0.2,0.2,0,0.9,0.3,1c-0.1,0.1,0,0.5-0.3,0.5c-0.3,0.1,0-0.2,0-0.2c0-0.1-0.2,0-0.1-0.3
	c-0.2,0-0.4,0-0.5,0.1c0-0.2-0.2,0-0.4-0.2c-0.2,0.2-0.5,0-0.7,0c0.1-0.3,0.1-0.5,0-0.8c0.2,0.1,0.5,0.1,0.7,0.2c0,0.3,0,0.3,0,0.5
	c0.5,0,0.9,0,0.6-0.5h-0.5c0-0.2,0.5-0.2,0.7-0.4c0-0.3-0.5,0-0.7-0.3c-0.1-0.3,0.2-0.2,0.2-0.4c-0.2-0.1-0.4-0.2-0.6-0.2
	c-0.1,0-0.1,0.3,0,0.5c-0.2-0.2-0.4-0.3-0.6-0.4c0-0.2,0.2-0.5,0-1c0.3,0,0.2-0.2,0.4-0.1c0-0.2-0.5,0-0.7,0c0-0.4-0.1-1.3,0-1.7
	c-0.2-0.7,0.1-1.7-0.3-2.1c0-0.2,0-0.3,0-0.5s-0.3,0-0.5,0c0,0.2-0.1,0.2-0.3,0.2V14h0.3c0,0,0,0,0-0.2c0-0.2,0.2,0.2,0.4,0.2
	c0.2-0.1,0.3-0.5,0.8-0.4c0.1,0.1,0.2,0.2,0.3,0.3c0.4-0.2,0.9-0.2,1.3,0c-0.1,0.4,0.2,1-0.1,1.3c-0.3,0.3,0.1,0.2,0.1,0.3
	c-0.1,0.9-0.1,1.9,0,2.9L58.4,18.3z M59,20.3c0,0.1,0,0.2-0.1,0.2v-0.3H59V20.3z M59.9,21.3c0-0.1,0-0.1,0-0.2h0.1v0.2H59.9z
	 M61.6,20.2c0.4,0,1.1-0.2,1.1,0.3c-0.7-0.2-1.3,0.1-2.1,0.1c0,0-0.3,0.2-0.4,0.4c-0.2,0-0.3,0-0.5,0c0-0.3,0.6-0.2,0.6-0.6
	c-0.3,0-0.2,0.2-0.5,0.1c-0.3-0.1,0.4-0.3,0.4-0.7c0.3,0,0.5,0.2,0.7,0c0.2,0.3-0.2,0.3-0.3,0.5v-0.1c0.3-0.1,0.7-0.1,1-0.2
	L61.6,20.2z M63.1,18.6c0,0.3,0,0.2,0,0.5s-0.2,0-0.3,0c-0.1,0,0.1-0.3,0.3-0.4L63.1,18.6z M62.4,19.7c0-0.2,0.8-0.2,0.8,0
	S62.6,19.7,62.4,19.7z M63.5,19.8c0-0.2,0-0.2,0.2-0.2c0,0.1,0,0.2,0,0.2C63.6,19.9,63.6,19.9,63.5,19.8L63.5,19.8z M64.1,19.2
	c0,0,0,0.2,0.2,0.2c0.2-0.1-0.2,0,0,0.2c0.2,0.2-0.2-0.3-0.5-0.2C63.5,19.4,64,19.2,64.1,19.2L64.1,19.2z M64.2,19.9
	c0,0,0.1,0,0.2,0c0.1,0,0.2,0.1,0.2,0.3c0,0.2-0.2,0,0,0.2c0.2,0.2-0.2,0-0.2-0.3c-0.1,0-0.1,0-0.2,0L64.2,19.9z M64.8,15.1
	L64.8,15.1c-0.1,0.1-0.1,0.1-0.3,0.1s0.1-0.2,0.3-0.2V15.1z M64.7,17.7c0.2,0,0.2,0.3,0,0.2S64.7,17.7,64.7,17.7z M66.2,22.1
	c-0.3,0-0.2-0.5-0.2-0.9s0.2,0,0.4,0c-0.2,0.2,0,0.4,0.2,0.5C66.7,21.9,66.4,22,66.2,22.1c0.1,0,0.3,0,0.3,0.2h0.1c0,0,0,0.3,0,0.2
	c-0.2,0-0.2,0-0.3,0V22L66.2,22.1z M66.8,18.2c0.1,0.2,0.3,0.3,0.3,0.6c0,0.1-0.1,0.2-0.3,0.3c0,0.3,0,0.6,0,0.9
	c-0.1,0-0.3,0-0.3,0.3c0,0,0,0,0.2,0s0,0.3,0,0.4c-0.2-0.1-0.4-0.2-0.6-0.2c0.1,0,0.4,0,0.3,0c0-0.2-0.2,0-0.3-0.2s0.2,0,0-0.2
	c0-0.2-0.2-0.3-0.2-0.5s0-0.8-0.1-0.7s0.1-0.2,0.2-0.4c-0.3-0.8,0.2-1.6,0-2.2c-0.2-0.6,0-0.6,0-0.7s-0.2-0.2-0.1-0.5
	s0.3-0.2,0.5-0.3c0.2,0-0.2,0-0.2-0.3c0.2-0.2,0.4-0.3,0.6-0.4c0,0-0.3-0.2,0-0.3s0,0.6,0,0.9c0,0.4,0.1,0.7,0.2,1.1
	c-0.3,0.3,0,0.9,0,1.3s-0.1,0.9-0.1,1.3L66.8,18.2z M67.2,22.7c0,0,0.1,0,0.3,0.2V11.6c-0.1,0.2-0.3,0.4-0.3,0.6
	c0.1,0.2,0.1,0.4,0,0.5c-0.5,0.2-1.4-0.2-1.7,0.3c0.4,1.7-1.5,1.1-2,2v0.2l0.4,0.2c0,0,0,0.5,0.2,0.5c-0.1,0.3-0.2,0.6-0.2,1
	l0.3,0.2c0,0.3-0.1,0.6-0.2,0.8c0,0,0-0.2-0.2,0s-0.5,0-0.4,0.2c0,0.2,0.7,0,0.9,0.3c0,0.1,0,0.2,0,0.3c-0.8-0.1-1.5-0.1-2.3,0
	c0,0.4,0.3,0.3,0.5,0.4c0.2,0.1,0,0.3-0.2,0.3c-0.7-0.4-1.8,0-2.5,0.3c0,0,0,0.3,0,0.4h-0.2c0-0.2,0-0.5,0-0.7h-0.3c0,0,0,0,0-0.3
	c0-0.3,0.5,0,0.5-0.2c-0.1-0.1-0.3-0.2-0.4-0.2c0-0.6,0-1.2,0-1.9c-0.1-0.8,0-1.7,0.1-2.5c0.4,0,0.5,0.2,0.9,0.2
	c0.3,0.5,0.8,0.7,1.3,0.6c-0.3-0.2-0.7-0.3-0.9-0.6c-0.5-0.1-0.9-0.5-1.1-0.9c0,0,0-0.2,0-0.3l-0.3-0.3c-1.1-0.2-2.1-0.2-3.2-0.2
	c-0.3,0.5-0.9,0.8-1.2,1.2c-0.7,0-1.3,0.1-1.9,0.3c-0.2-0.3-0.7-0.2-1.2,0c-0.4,0.2-0.4,0.4-0.3,0.8c0.2,0,0.5,0.1,0.7,0.3
	c0.4-0.5,1.1-0.7,1.7-0.6c0,0.3,0.4,0.3,0.7,0.4c0.3,0.1,0.3,0.8,0.6,1c0.4,0.2,0.3-0.5,0.6-0.5c0.3-0.1-0.2,0-0.2-0.4h0.3
	c0.2,0.5,0.3,1.1,0.3,1.7h-0.5c0,0.2,0.2,0.2,0.3,0.4c0,0.2,0.1,0.5,0.2,0.6c0,0.5-0.5,1-1,0.7c0.1-0.3-0.1-0.5-0.3-0.7
	c0.1-0.1,0.2-0.3,0.1-0.4l-0.5-0.2c0,0,0.2-0.2,0-0.5c-0.6-0.2-0.9,0.3-1.5,0.2c0,0.2,0,0.3,0,0.5c-0.5,0-0.5,0.6-0.7,0.9
	c-0.6,0.2-1.2,0.3-1.8,0.4c-0.1-0.2-0.3-0.2-0.5-0.2c-0.2,0.4,0,1-0.3,1.4c-0.2-0.2-0.8,0-1.1,0c0-0.4-0.2-0.5-0.3-0.7
	c-0.1-0.2,0-0.5-0.1-0.5c-0.2,0.3-0.2,0.6,0,0.9c-0.2,0,0,0.6-0.4,0.6c-0.2-0.2-0.3-0.5-0.3-0.8c-0.4-0.3-0.9-0.4-1.3-0.4
	c-0.2-0.1-0.3-0.1-0.5,0c-0.1,0.6,0.2,1.7-0.2,2c-0.2,0-0.4-0.1-0.5-0.3c-0.1-0.2,0-0.4,0.2-0.6c0-0.5-0.3-0.5-0.4-0.8
	c-0.6,0-0.9,0-1-0.6c-0.2-0.1-0.5-0.1-0.7,0c0,0.5,0.5,0.8,0,1.1c0.2,0.3,0,0.7,0,1c0,0.3-0.3,0-0.3,0s-0.2-0.9-0.5-1.1
	c0,0,0.3,0,0.2-0.4s-0.5-0.2-0.7-0.3s0.3-0.2,0.3-0.5c-0.4,0-0.8,0.2-1-0.2c0.1-0.2,0.1-0.4,0.1-0.6c-0.2,0,0,0.3-0.3,0.4
	c-0.3,0.1-0.8,0.2-0.8,0.4c-0.6,0-1.3-0.1-1.8-0.5c0,0,0.2-0.3,0.3-0.4c0.1-0.1,0-0.3,0-0.4c0.5-0.3,0.3-1.1,0.3-1.7
	c0.6,0,1.2-0.1,1.8-0.2c0.2,0.2,0.8,0,0.9,0.3c0.2,0,0.4,0,0.5-0.2c0.3,0.2,0.6,0.3,0.9,0.4c0.6,0,1.3,0,1.7,0.3h0.6
	c0,0.4,0.6,0.4,0.7,0.8c0.3,0,0.2-0.6,0.5-0.7c0.3-0.2,0.5,0,0.4-0.4s-0.4,0-0.4,0s0.3,0,0.3-0.2s0.1,0,0.2,0
	c0.5-0.4,1.4-0.3,1.8-0.8s-0.2-0.3,0-0.3c0.1,0,0.3,0,0.4,0c0-0.1,0-0.4,0-0.6c-0.4,0.1-0.7,0-1-0.2c0,0,0.2-0.4,0-0.4
	c-0.2,0,0,0.2-0.1,0.2c-0.7,0.2-1,0.7-1.4,1.1c-0.2-0.3-0.4-0.4-0.7-0.5c0-0.4,0.6-0.3,0.6-0.7c0-0.4-0.1-0.2-0.1-0.3
	c0.1,0,0.2-0.2,0.3-0.3c0-0.1,0-0.3,0-0.4c-0.3-0.1-0.5-0.1-0.8,0c-0.6,0.8-1.4,1.3-2.3,1.6c0-0.7,0.6-0.8,0.8-1.3
	c0.2-0.5-0.3,0-0.5,0c-0.1-0.2-0.2-0.3-0.4-0.3c-0.1,0-0.2,0.2-0.3,0.2c-0.1-0.3-0.3-0.5-0.6-0.6c-0.5,0.4-1,0.8-1.5,1.3
	c-0.2,0-0.4,0.2-0.5,0c-0.1-0.2,0.5-0.4,0.6-0.8c-0.1-0.1-0.2-0.2-0.3-0.4c0.1,0,0.1,0,0.1,0s0,0,0.1,0c0.1,0,0-0.3,0-0.4s0,0,0,0
	s0-0.7,0.1-1c-0.5,0-0.4,0.7-0.8,0.9c0-0.1-0.1-0.2-0.2-0.3s-0.2-0.1-0.3-0.1c-0.7,0.5-0.9,1.3-1.9,1.4c0,0,0-0.4,0-0.6
	c0-0.2-0.2-0.2-0.3-0.2c-0.2,0-0.3,0-0.4,0c0.3-0.2,0-0.8,0.2-1c0.2-0.3-0.2,0,0-0.2c0.2-0.2-0.1-0.7-0.3-0.7s0-0.5-0.3-0.4
	c0,0.5,0.4,1.3,0,1.7c0.1,0.4,0,0.7-0.2,1h-0.4c0,0.3-0.3,0.2-0.1,0.6c-0.2,0-0.2,0.2-0.4,0.3c0.1,0.4,0.1,0.8,0,1.2
	c-0.3,0-0.4-0.3-0.4-0.6c0-0.3,0.3-0.5,0.2-1c-0.2,0-0.2-0.2-0.4,0c-0.3-0.3-0.2-0.6-0.3-1.1c-0.1-0.5-0.5-1.2-0.8-1.7L34,9.9
	c0-0.2,0-0.4,0-0.6c0-0.2,0-0.3,0.2-0.3c0.2,0,0.1-0.2,0.4-0.2c0.2-0.6,0.9-0.8,1.2-1.2c0.5,0,0.9,0,1.1,0.4c0.3,0,0.5,0.1,0.8,0.2
	c0,0,0,0.3,0.2,0.3c0.2,0,0.2,0,0.3,0s0,0.2,0,0.2s0.3,0,0.5,0.2c0.1,0.2,0,0.4,0.2,0.5c0.2,0.1-0.1,0.3-0.4,0.3
	c-0.3-0.1,0,0.3-0.1,0.5c-0.1,0.2,0.2,0,0.3,0.2s-0.2,0.2,0,0.4c0.2,0.2,0.5,0,1,0c0.4,0,0.3-0.4,0.2-0.8c0.3-0.1,0.4-0.4,0.4-0.8
	c0.2,0,0.2-0.4,0.4-0.5c0.2-0.1,0.4-0.2,0.5-0.4c0.1,0,0.3,0,0.4,0C41.5,8,42,8,42.3,7.9c0.3-0.1,0.4-0.4,0.6-0.5
	c0.2-0.2-0.2,0-0.2-0.3s-0.4,0-0.6,0c-0.1,0-0.1,0.2-0.2,0.2s-0.3,0-0.4,0.2c-0.3,0.1-0.6,0.2-0.9,0.2c0,0.2-0.3,0.3-0.4,0.4
	s0,0-0.1,0s-0.3,0.6-0.6,0.7c-0.5-0.3-0.8-0.9-1.5-1C37.5,7.3,37,7.1,36.5,7c0-0.3-0.4,0-0.7,0c-0.2,0.3-0.6,0.5-1,0.6
	c-0.3,0.7-1.1,0.9-1.1,1.9c-0.2,0,0,0.2-0.3,0.2c-0.3-0.1,0-0.3,0-0.6C33,8.7,32.7,8,32.3,7.5c0-0.2,0-0.2,0-0.3
	c-0.3-0.2-0.5-0.5-0.7-0.8c-0.5-0.3-0.9-0.7-1.1-1.2c-0.2,0-0.4-0.3-0.4-0.5S29.6,4.2,29.4,4c-0.2-0.2-0.2,0-0.3,0s0-0.2-0.2-0.3
	c-0.2-0.1-0.2,0-0.2,0c-0.1-0.1-0.3-0.3-0.3-0.5c-0.9-0.3-1.4-1-2.5-1.2c-0.3-0.3-0.6-0.4-1-0.5c-0.2-0.4-0.7-0.5-1-0.8
	c-0.6-0.1-1.2-0.2-1.8-0.5c-0.3,0-0.6,0-0.8,0c-0.6-0.1-1.2-0.2-1.8-0.4c-0.2,0.3-0.8,0-0.9,0c-1.1,0-2.2,0-3.3,0.2
	c0,0,0,0.2-0.1,0.1c-0.7,0-1.4,0.1-2,0.3c-0.2,0.4-0.8,0.3-1.3,0.4c-1,0.4-1.9,1-2.7,1.6H8.7C8.2,3,7.7,3.4,7.1,3.7
	C6.9,4,6.6,4.3,6.2,4.4C6,5,5.5,5.3,5.1,5.6C4.9,6,4.5,6.3,4.1,6.5C4,7,3.5,7.2,3.4,7.9c-0.6,0.5-1.1,1.2-1.3,2
	c-0.2,0.2-0.3,0.5-0.3,0.8c-0.2,0-0.1,0.2-0.3,0.2c0,0.5-0.4,0.7-0.3,1.3c-0.2,0,0,0.2-0.2,0.2c-0.1,0.4-0.1,0.7-0.2,1.1
	c0,0.4-0.2,0.8-0.3,1.1v0.7L0,18.1c0,0.2,0,0.3,0,0.5l0.2,2.5L0.9,24l0.9,2.5c0.3,0.2,0.4,0.5,0.6,0.7c-0.1,0.5,0.1,1.1,0.5,1.3
	c0,0.2,0,0.2,0,0.4c0.5,0.4,0.9,1,1.1,1.6c0.3,0,0.4,0.4,0.5,0.5c0.1,0.1,0.6,0.4,0.7,0.7c0.6,0.2,0.8,0.9,1.5,1.1
	c0.3,0.6,1.1,0.7,1.4,1.3c0.9,0.2,1.5,0.9,2.5,1.1c0,0.3,0.2,0,0.2,0.3c1.6,0,2.2,1.1,3.9,0.9c0,0.2,0.4,0.2,0.6,0.2
	c0.2,0,0.6,0,0.8,0c0.3,0,0,0,0.2,0.1c1.2,0,2.5-0.1,3.8-0.2c0.2-0.2,0.8-0.2,1.2-0.2c0.4-0.1,0.9-0.2,1.1-0.3
	c0.2-0.1,0.4-0.1,0.5-0.2c0.1-0.1,0.4,0,0.6,0c0.8-0.5,1.8-0.8,2.5-1.2c0.7-0.5,1.4-1.1,2.4-1.3c0.2-0.3,0.4-0.6,0.6-0.8
	c0.4-0.2,0.8-0.5,1-0.9H30c-0.2,0.1-0.5,0-0.6-0.3c-0.5,0-0.5,0.3-0.7,0.5c-0.2,0.2-0.4,0-0.5,0.3c-0.2,0.3-0.3,0.3-0.5,0.4
	c-0.3,0.1,0-0.2,0-0.3s-0.2,0-0.1-0.3c0.1-0.3-0.4,0-0.4,0.4s-0.4,0.2-0.8,0.2c-0.3,0,0.2,0,0.1-0.4c-0.4,0.1-0.7,0.3-1,0.6
	c0.2,0,0.4-0.2,0.5,0c0.1,0.2-0.2,0.2-0.3,0.4c-0.1,0.1,0.1,0.2,0.2,0.3c0.2-0.1,0.4-0.2,0.5-0.2c0.2-0.2,0.3-0.4,0.5-0.6
	c0.2,0,0,0.3,0,0.4c-0.2,0-0.4,0.2-0.4,0.4c-0.3,0-0.5,0.2-0.6,0.4h-0.3C25,34,24.3,34.1,24,34.5c-0.4,0.1-0.8,0.2-1.2,0.4
	c-0.3,0-0.6,0-0.7,0.2c-0.5,0-0.9,0-0.9,0.5c0,0.5,0.4,0.2,0.5,0.3c0,0,0,0,0.2,0s0,0.2-0.2,0c-0.1,0-0.3,0.1-0.3,0.2l-0.5-0.2
	c0-0.2,0.3,0,0.2-0.4c-0.1-0.4-0.5,0-0.5-0.3c0-0.3,0.9-0.2,1.2-0.5h0.4c0,0,0.1-0.2,0.2-0.2c-0.3-0.4-0.9,0.1-1.5,0
	c0-0.3,0.5,0,0.5-0.4c-0.3,0-0.7,0-1,0c-0.2,0,0,0.3,0,0.5c-0.4,0-0.8,0.2-1.2,0.3c0,0,0.1,0,0.2,0.2c0.3-0.1,0.6-0.1,0.8,0
	c0,0.3-0.4,0.2-0.5,0.2h-0.7c0,0,0,0-0.2-0.1c-0.5,0-1,0.1-1.5,0c0.1,0,0.1,0,0.2,0c0-0.2-0.2,0-0.3-0.2c0-0.2,0.2-0.2,0.2-0.4
	c0.1-0.1-0.9-0.3-1.1,0c0,0.2,0.5,0,0.5,0c0,0-0.7,0-1.1,0c-0.4,0-0.3-0.3-0.5,0c0.2,0.3,0.8,0.2,1,0.5c0.2,0.3,0.6,0,0.7,0
	c-0.2,0.4-0.9-0.3-1.2,0.2h-0.6c0,0,0,0,0,0.3h-0.4c-0.1-0.1-0.1-0.2,0-0.4h-0.5c0-0.2-0.2-0.3-0.3-0.4c-1,0.2-1.2-0.6-2.2-0.5
	c0,0,0-0.2,0-0.3s0.3,0.2,0.7,0c-0.3-0.3-0.6-0.5-1-0.5c0,0.2-0.1,0.5-0.2,0.7c0,0.2-0.2,0,0,0.3h-0.8c0-0.2,0-0.2,0-0.4
	c-0.5,0-0.7-0.3-1.1-0.3c0-0.3-0.2-0.4-0.2-0.7c-0.1-0.2,0.4,0,0.4-0.2c-0.4-0.3-0.5-0.8-0.4-1.3c0.2,0,0.3,0.2,0.6,0
	c0-0.1,0-0.2-0.1-0.3s-0.2-0.1-0.3-0.1c0-0.3-0.3-0.3-0.3-0.5c0-0.2-0.3-0.2-0.7-0.2c-0.3,0.1,0,0.3,0,0.3c0,0-0.2-0.3-0.6-0.2
	c0-0.4-0.5-0.6-0.7-0.9H6.3c0-0.5-0.4-0.5-0.4-0.9h0.2v-0.3c-0.4,0-0.3-0.6-0.8-0.6s0,0.4,0,0.6c0,0.2-0.2-0.3-0.5-0.2
	c0,0.4,0.4,0.8,0.6,1c-0.4,0.2-0.7-0.5-0.9-0.7c-0.2-0.2-0.4-0.2-0.3-0.6s0.2,0,0.4,0c0.2,0,0-0.4,0.1-0.4H5c0-0.1,0-0.2,0-0.4
	c-0.3-0.4-0.6-0.8-0.8-1.3c0,0-0.2,0-0.3,0c-0.1,0,0-0.7-0.4-0.8c0,0.3,0.2,0.3,0.2,0.6C3.3,25.5,3.1,25,3,24.4
	c0.2,0,0.1,0.4,0.5,0.3c0.1-0.3,0-0.6-0.1-0.9c0-0.6-0.2-1.2-0.6-1.7c0.1-0.2,0.1-0.4,0.1-0.6c-0.4-0.2-0.6-0.5-0.7-0.7
	c-0.4,0-0.2-0.8-0.2-1s0,0.3,0.2,0.5l0,0c0-0.5-0.1-1.3,0-1.7c0.2,0.2,0,0.7,0.1,1c0.1,0.3,0,0.2,0,0.4s0.2,0.7,0.2,1.2
	c0.2,0.2,0.7,0,1,0.2c0.3,0.2,0,0,0,0s0.8,0,1.2,0s0,0,0.1,0.2C4.9,21.7,5,22,5,22.1c0,0.6-0.7,0.6-0.5,1.4
	c-0.2,0.1-0.4,0.2-0.6,0.2c0.1,0.2,0,0.6,0.4,0.7c0,0.6,0.2,1.1,0.6,1.3c0-0.1-0.1-0.3-0.1-0.4c0.4,0,0.8,0.1,1.2,0.3c0,0,0,0,0-0.2
	c0.2,0.1,0.4,0.2,0.5,0.3c-0.2,0.5-0.6,0.8-0.8,1.3c-0.2,0-0.2,0-0.4,0c-0.2,0,0,0.3,0.2,0.4h0.3c0,0-0.2,0-0.3,0.1
	c0,0.5,0.5,0.7,0.7,1.1s0-0.2,0.3-0.1c0.3,0.1,0.2,0.3,0.2,0.5c0.3,0.1,0.6,0,0.8-0.2c-0.1-0.3-0.4-0.4-0.6-0.4
	C7,28.1,7,27.5,6.6,27.4c0-0.6,0.2-0.8,0.2-1.3c0.1,0,0.3-0.3,0.1-0.4c0.5,0,1,0.1,1.4,0.4c0,0.3-0.6,0.1-0.7,0.4
	c0,0.3,0.2,0,0.2,0.2s0.1,0.3,0,0.5c-0.1,0.2,0.3,0.4,0.5,0.5s0,0.6,0,1s0.8,0.4,1.4,0.2c0-0.4,0.3-0.6,0.5-0.9
	c0.2-0.3,0.5-0.4,0.8-0.4v-0.3c0.4,0,0.4-0.4,0.6-0.6c0.2-0.2-0.2-0.2-0.5-0.2c-0.3,0,0-0.2,0-0.4c-0.6,0-1.1,0.6-0.7,1
	c0,0.2-0.2,0.4-0.4,0.4s0.2-0.3,0-0.5c-0.3,0.1-0.6,0.2-0.9,0.4c-0.1,0-0.2,0.4-0.4,0.4c0.3-0.3-0.2-1.2,0.4-1.3
	c0,0.3-0.2,0.4-0.1,0.7h0.2c0,0,0.1-0.2,0-0.3c0.4,0,0.3-0.3,0.7-0.3l0.2-0.4c0-0.2-0.2-0.3-0.5-0.2s-0.1-0.2-0.2-0.4
	S9.3,25.9,9.1,26c0-0.2,0.1-0.3,0.3-0.4c0-0.2-0.2,0,0-0.3c0.2-0.3-0.2,0-0.4,0c0.5-0.2,0.9-0.6,1-1.2c0.4,0,0.7,0,0.6-0.6
	c-0.1-0.6,0.3-0.4,0.3-0.7v-0.2c-0.3,0.4-0.7,0.6-1.1,0.6c0,0.2-0.3,0.2-0.6,0.2C9,23.7,8.9,24,8.6,24.2c-0.1,0.3-0.5-0.1-0.7-0.2
	c-0.2,0.2-0.5,0.3-0.8,0.3c0-0.3,0.4-0.2,0.5-0.5c0.9,0,1.1-0.5,1.9-0.6h0.1c0-0.3,0.4-0.4,0.3-0.9c0.3-0.3,0.9-0.2,1-0.7
	c0.3-0.1,0.6-0.3,0.8-0.5c-0.8-0.2-1.2,0.6-2.1,0.5c-0.3,0.3-0.8,0.8-1.3,0.7c0.2-0.2,0.5-0.2,0.8-0.4c0.3-0.2,0-0.3,0-0.5H8.3
	c0,0,0,0,0,0.2c0,0.2-0.5,0-0.5,0.2c-0.8-0.1-0.8,0.5-1.6,0.5c-0.1,0.2-0.3,0.4-0.5,0.3c0-0.2,0.2,0,0.2-0.3
	c-0.1-0.2-0.3-0.3-0.5-0.4c0.6-0.4,1.4-0.5,2.1-0.3c0.4-0.6,1.7-0.2,2-0.9c0.3,0.2,0.7,0.1,0.9-0.2c0.3,0,1,0,1.1-0.2v-0.3h-0.3
	c0,0,0.3,0,0.2-0.4c0-0.4-0.3,0-0.3-0.2c-0.5,0.3-1.6,0-1.9,0.6c-0.8,0-1.5,0.1-2.2,0.4v-0.1c-0.8,0.3-2.2,0.5-2.9,0
	c0-0.3-0.1-0.6-0.3-0.8c0-0.5,0-0.9-0.4-1c0-0.6-0.2-0.8-0.2-1.4c0.1,0,0.5-0.4,0.2-0.5c0.3-0.4,0.8-0.5,0.7-1.3
	c0.7,0,0.8,0.4,1.5,0.4c0,0.2,0.3,0.2,0.2,0.4s0-0.2-0.4,0s-0.7,0.3-1,0.5c-0.3,0.2,0,0.4,0,0.4c0,0.1,0.5,0.3,0.5,0.7
	c0,0.4,0.2,0,0.3,0.1c-0.2,0.5-0.5,0.9-0.8,1.2c0,0.2,0,0.4,0,0.6c0,0.3,0.5,0.3,0.5,0.6c0.5,0,1.1,0.2,1.7,0.2
	c0.2,0,0.3-0.3,0.5-0.4c0.2-0.1-0.2-0.1-0.4-0.1s-0.7,0-0.9,0c-0.3,0,0-0.2,0-0.3c0-0.1,0.6-0.2,0.9-0.3c0.3-0.1,0.4-0.3,0.4-0.6
	c-0.4,0-0.6-0.2-1.1-0.2c0-0.2,0-0.4,0-0.6c0.3,0,0.5,0,0.5-0.4h0.6c0.8-0.5,1.7,0.2,2.7,0.1c0.4,0.1,0.9,0.1,1.3,0
	c0-0.6-0.9-0.4-1.2-0.8c-0.4,0-0.5,0.2-1,0.2c0-0.2,0-0.3,0-0.4c-0.4,0-0.9-0.1-1.2-0.4c0.2-0.2,0.3,0,0.4,0.2c0.3,0,0.5,0,0.8,0
	l0,0c0,0,0.4,0,0.5,0c0.1,0,0,0,0,0s0.4,0,0.5,0s0,0,0,0.1c0,0.1,0.6,0,0.5,0.2s0.5-0.2,0.5-0.5c0.1-0.3,0,0.2,0.2,0
	c0,0.2,0,0.3,0,0.5c1.1-0.2,1.3,0.5,2.2,0.5c0.1,0.2,0.3,0.4,0.6,0.5v0.6c-0.3,0-0.7,0-1,0s0,0,0,0s-0.9,0.2-1,0.4
	c0,0.5,0.8,0.2,0.9,0.6c0.1,0.4,0.5,0.4,0.8,0.4s0-0.2,0-0.3c0.3,0,0.6,0,0.8,0.1c0,0.2,0.2,0.2,0.2,0.7c0,0.5-0.3,0.3-0.5,0.5
	s0,0.3,0,0.4c0.2,0,0.5,0,0.6-0.2c0,0.2,0,0.2,0,0.3c0,0.1,0.3-0.2,0.4-0.3s0.6,0,0.8,0.2c-0.2,0.4-0.7,0-1.1,0.2s-0.2,0.4-0.5,0.5
	c-0.1,0.2-0.1,0.4,0,0.6c0,0.3-0.2,0.4-0.1,0.7h0.4h0.2c0.3-0.6,0.7-1.1,1.1-1.6c0.2,0,0.2,0,0.3,0c0,0.4-0.2,0.4-0.3,0.6
	c-0.1,0.2,0,0.7,0.2,0.8c-0.2,0.3,0,1-0.2,1.4c-0.2,0.4,0.2,0.2,0.3,0.3c0.3-0.3,0.6-0.5,0.8-0.8c-0.2-0.3,0-0.8,0-1.3
	S17,22.7,17,22.5s0.6-0.3,0.9-0.3s0-0.2,0.3-0.2c-0.1,0.1-0.1,0.3,0,0.4c0,0.1,0.2,0.2,0.3,0.3c0,0.5,0.2,0.7,0.3,1.1
	c0.1,0.4,0,0.1,0,0.2c0.1,0.3,0.2,0.6,0.1,0.9c0.2,0.2,0.2,0.6,0.5,0.7c0.3,0.1,0,0,0.2,0s0-1,0-1.5c-0.3-0.6-0.5-1.3-0.4-2
	c0.1,0,0.2,0,0.3,0c0.2,0,0,0,0,0c0.2,0.5,0.4,0.9,0.6,1.4c0,0,0,0.1,0,0v0.1c0.4,0.6,0.7,1.2,1.2,1.8h0.4c0-0.4,0-0.6-0.4-0.7
	c-0.1-0.8-0.8-1.1-1-2c-0.2,0,0-0.2-0.2-0.3c-0.2-0.1-0.3-0.2-0.2-0.5c0.1-0.3,0.2-0.3,0.4-0.3c0.2,0,0.3,0.3,0.4,0.5
	c0.1,0.2,0.3,0,0.4,0c0.1,0,0.3,0.1,0.3,0.3c0.8,0,0.9,0.9,1.6,1.2c0,0.3,0.2,0.3,0.2,0.5c0.6,0,0.6,0.6,1.2,0.7
	c0,0.3,0.2,0.4,0.2,0.6c0,0.2,0.1,0,0.3,0c0,0.7,0.3,0.9,0.4,1.3c0.2,0,0.2,0.2,0.5,0s0,0.4,0.2,0.5c0.2,0.1-0.3-0.3-0.6,0
	s0-0.2,0-0.2s-0.3-0.3-0.4-0.5c-0.5-0.2-0.9-0.4-1.2-0.8c-0.2,0-0.5,0.1-0.6,0.3c-0.2-0.2-0.6-0.2-0.8-0.4c-0.2-0.2-0.2,0.2-0.1,0.5
	s-0.3-0.3-0.7-0.2h0.1c0,0.5,0.2,0.9,0.6,1.2c0,0.4,0.3,0.9,0.6,0.9h0.2c0.4,0.3,0.7,0.7,0.8,1.2c-0.1,0-0.1,0-0.3,0
	c-0.1-0.5-0.6-0.5-0.6-1.1c0,0,0,0,0-0.1c0,0,0,0.3-0.1,0.2c0.2,0.2,0.2,0.6,0.5,0.7c0.3,0.1-0.2,0.1,0,0.3c0.2,0.2,0.3,0.8,1,0.7
	c0,0.3,0,0.3,0,0.6c0.4,0.2,0.9,0.3,0.9,0.9c-0.4,0.4-1.1,0.6-1.5,1c0.9,0.2,1.5-0.5,2-0.9c0.4,0,0.7,0,0.6-0.6
	c-0.2,0-0.2,0.2-0.5,0.2c-0.3-0.1,0.4-0.2,0.4-0.5s0.2,0,0.4,0c0.2,0,0.3,0.1,0.4,0.2c0.1,0.1,0.2-0.3,0-0.3
	c0.1-0.1,0.3-0.2,0.5-0.3c0-0.3,0-0.4,0.3-0.4c0.3,0.1,0-0.3,0-0.5c0-0.2,0.2,0.2,0.4,0c0.5-0.4,0.9-0.9,1.2-1.4
	c0-0.2-0.2,0-0.1-0.3c0.1-0.3,0.3,0,0.5,0c0-0.2,0-0.3,0-0.5c-0.3,0-0.3,0.2-0.7,0.1c-0.1-0.2-0.2-0.5-0.2-0.8
	c-0.1-0.3-0.5-0.3-0.5-0.7c0.6,0,1.2-0.1,1.7-0.4c0.1,0,0.3,0.1,0.3,0.2c0,0.2,0,0.2-0.2,0.2c-0.2,0-0.1,0.4-0.1,0.4
	c0,0,0,0.4-0.1,0.5c-0.1,0.1,0.2,0,0.1,0.2c0.7-0.4,1.2-1.1,1.3-1.9c0.1,0,0.2,0,0.3-0.2c0.1-0.2,0-0.5,0.2-0.6c0-0.5,0.4-0.5,0.3-1
	c0.2,0,0.1-0.5,0.3-0.6c0.2-0.1,0-0.4,0-0.5c0-0.2,0.3-0.5,0.3-0.6c0-0.1,0-0.7,0.2-0.9c-0.1-0.1-0.1-0.3-0.2-0.4
	c0.3-0.4,0.6-0.8,0.8-1.2c0.2,0,0.2,0,0.4,0s0-0.1,0-0.2c0-0.1,0.4-0.3,0.7-0.4c0.8,0.4,1.6,0.7,2.5,0.8c0,0.4,0,0.7,0.4,0.7
	c-0.2,0.4-0.2,0.9-0.2,1.4c-0.2,0,0,0.2-0.3,0.2v0.7c-0.1,0-0.2,0-0.3,0c0,0.2-0.4,0-0.4,0.3c0,0.3-0.6,0-0.7,0.2
	c-0.2-0.1-0.5,0-0.7,0.2c-0.1-0.7,0-1.6,0.8-1.6c0.1-0.8-0.5-0.7-0.8-0.9h-0.2c-0.2,0-0.3,0.3-0.5,0.4c0,0.3-0.2,0.5-0.4,0.7
	c0,0.4,0,0.9,0,1.3l0.2,0.2c0,0.1,0,0.2,0,0.3c0,0,0,0-0.1,0s0,0.4,0,0.5s0,0,0,0s0,0.5,0,0.7s-0.3,0.7-0.6,0.9
	c-0.3,0.2,0,0.7-0.3,0.8c0,0.2,0,0.3,0,0.5c-0.2,0-0.2-0.2-0.3-0.2c-0.2,0-0.3,0.4-0.4,0.8c0.2,0,0-0.3,0.3-0.2
	c0,0.2-0.2,0.5-0.4,0.6v-0.2c-0.4,0-0.4,0.7-0.9,0.8c0-0.2,0-0.2,0-0.4c-0.2,0-0.4,0.2-0.4,0.5c0,0.3,0.2,0.2,0.4,0.2
	c0,0.3-0.1,0.5-0.3,0.7c0,0,0.1,0.2,0.3,0.3c0.1,0-0.3,0.4-0.4,0.7c-0.1,0.2-0.3-0.3-0.6-0.2c0,0,0,0.2-0.2,0.2
	c-0.2,0.1,0-0.3,0-0.2v-0.4c-0.4,0-0.4,0.4-0.8,0.4c-0.1,0.1-0.1,0.2,0,0.3c0.1,0,0.3,0,0.3,0s0,0.2,0.2,0c-0.2,0.3-0.4,0.6-0.6,0.9
	c0.1,0.2,0.3,0.3,0.5,0.4c0,0,0-0.2,0-0.2c0,0,0,0.2,0.2,0s0.4-0.3,0.4-0.6c0.5,0,0.5-0.7,0.9-0.9c0-0.2,0-0.2,0-0.4
	s0.2-0.4,0.5-0.5c0.2-0.1,0.2,0,0.3,0c-0.1-0.2-0.1-0.4,0-0.6c0-0.1,0-0.2,0-0.3c0,0,0.3-0.1,0.3-0.2c0.1-0.1,0-0.3,0.1-0.4
	s0.5-0.3,0.5-0.5c0-0.2,0.6-0.3,0.6,0h-0.3c0,0.4,0.2,0.4,0.4,0.6c0.2,0.2-0.2,0-0.2,0.3c0,0.3,0.2,0.6,0.5,0.8
	c0.3,0.6,0.7,1.1,1.3,1.3v0.2c0.5,0.2,1.1,0,1.4-0.5c0.1,0,0.3,0,0.4,0c0.1-0.4,0.6-0.6,1.2-0.6c0.1-0.2,0.3-0.3,0.5-0.4v-0.5
	c0.3,0,0.4-0.2,0.6-0.4c0.1,0.2,0.2,0.4,0.1,0.6c0.3,0,0.3,0.4,0.7,0.4c0.4,0,0.3,0.4,0.7,0.3c0.3,0.6,1,0.6,1.7,0.8
	c1-0.6,1.6-1.8,2.8-2.2c0-0.3,0.2-0.2,0.1-0.5c-0.1-0.3,0.2-0.3,0.4-0.5c0.2-0.1,0.5-0.1,0.7,0c0.1,0,0.3,0,0.4,0s0,0,0.1,0
	c0.7,0,1.6-0.2,2,0c0.4-0.2,1.3,0,1.1-0.8c0.5-0.3,0.5-1,0.8-1.6c0.1-0.1,0.3-0.1,0.4-0.3c0-0.2,0.1-0.3,0.1-0.5
	c0-0.2,0.1-0.6,0.1-0.6s0-0.4-0.2-0.4c-0.2,0.3-0.4,0.7-0.5,1c-0.3,0-0.4,0.3-0.5,0.5c-0.5,0.3-0.8,0.8-1.2,1.3
	c-0.5,0-1,0.1-1.4,0.4c-0.4-0.3-1.2-0.2-1.8-0.2c-0.2-0.2-0.5-0.5-0.3-0.8s0.4,0.2,0.5,0.3c0.3-0.1,0.6,0,0.9,0.1
	c0.2-0.3,0.6,0,0.7-0.3c0.1-0.3-0.5,0-0.5-0.4c0-0.4,0.4,0,0.3-0.1c0-0.1-0.3,0-0.3-0.4s0.3,0,0.5,0c0.1,0,0.2-0.3,0.4-0.4
	c0.2-0.1,0,0.3,0.2,0.2v0.5c0.3,0,0.4,0,0.6,0.2c0.2,0.2-0.2-0.4,0-0.5c0.2-0.1,0.2,0.3,0.2,0.5c0,0.2,0.1,0.2,0.3,0
	c0.2-0.2,0.2-0.3,0.2-0.5c0.7-0.1,0.2-1-0.2-1.1c-0.4-0.1-0.2,0.3-0.3,0.4c-0.4,0.1-0.8,0.1-1.1-0.2c0-0.7-0.8-0.2-1-0.5
	c-0.2-0.3,0.3,0,0.3-0.1c0-0.1-0.4-0.3-0.5-0.6c-0.9,0.2-1-0.6-1.7-0.6c0,0.3,0.2,0.3,0,0.5c-0.2,0.2-0.4-0.4-0.7-0.3
	c-0.3,0.2,0.3,0.2,0,0.3s0-0.8-0.6-0.7c0,0.2,0,0.4-0.1,0.4c-0.1,0,0-0.1,0-0.5h0.4c0.3-0.4,0.6-0.2,1.2-0.2c0,0,0-0.4,0-0.5
	s0.2,0.2,0.3,0.3c0.2,0.1,0.4-0.2,0.5-0.3c0.2,0.3,0.6,0.5,1,0.5c0,0,0,0,0-0.2c0-0.2,0.1,0,0.2,0c0,0.1,0,0.2,0,0.3
	c0,0.3,0.4,0,0.5,0c0.2,0,0,0.1,0,0.2c0.3-0.1,0.6-0.2,0.8-0.4c0-0.2-0.2-0.2-0.2-0.3s-0.2,0.1-0.3,0.2c-0.1,0.1-0.2-0.5-0.5-0.5
	c-0.3-0.1,0.1,0,0-0.2c-0.1-0.2,0.5,0.3,0.6,0c0.2,0.2,0.4,0.2,0.7,0.1c0.3,0.5,1.2,0.3,1.8,0.6c0.5,0.3,0.2-0.2,0.4-0.2
	c0.2,0,0-0.3,0-0.3s0.1,0.2,0.2,0.3c-0.3,0-0.3,0.4-0.6,0.5c-0.3,0.1,0.8,0.3,1.1,0.2c0.3-0.1-0.1,0-0.1-0.3c0-0.3,0.2,0,0.4,0
	s0-0.5-0.1-0.5c0.1-0.1,0.2-0.2,0.3-0.4c-0.3-0.3,0.2-0.5,0-0.9c-0.3,0-0.3-0.3-0.6-0.2v-0.2c0.2,0,0.5,0,0.6,0.2h0.2
	c0.4,0,0.6,0,0.7-0.4c0-0.4,0.2,0.2,0.1,0.4s0,0,0,0s0,0.4,0,0.5c0,0,0,0.3,0,0.4s0,0,0,0s0,0.4-0.2,0.3c0,0.3-0.1,0.5-0.3,0.8
	c0,0.3,0,0.3,0,0.5c0,0.2-0.4,0.2-0.5,0.3s-0.7-0.6-1.1-0.4c-0.4,0.1,0,0.2-0.3,0.2c-0.3,0-0.1,0,0,0.3c-0.3-0.3-0.8-0.4-1-0.8
	c-0.1,0.2-0.3,0-0.3-0.2v0.5c0.3,0,0.5,0.2,0.4,0.7h0.3c0,0,0,0.3,0,0.4s0.4,0.8,0.7,0.7s0.2-0.7,0.5-0.8c0.4,0.1,0.6,0.4,0.6,0.8
	c0.2,0,0-0.2,0.2-0.3c0.2-0.1,0.4-0.1,0.5-0.2c0,0,0-0.3,0-0.3c0,0,0.4,0,0.6,0.2c0.2,0.2,0,0.7,0.5,0.6c0.2-0.5-0.5-0.9,0-1.2
	c0,0.3-0.1,0.2,0,0.4s0.5,0.4,0.5,0.7c0,0.4,0.3,0,0.3,0.2s-0.4,0-0.3,0.2c0,0.2,0.7,0.3,0.8,0.8c0.9,0.2,1.9,0.2,2.9,0
	c0-0.5,0.2-0.7,0.3-1.2c0.3-0.3,0.6-0.6,0.9-0.9c0.3-0.2,0.6-0.3,1-0.3c0.2-0.3,0.7,0,1.1-0.2c0.3-0.2,0-0.3,0-0.3s0.2,0,0.2,0.3
	c0.6-0.1,1.2,0,1.7,0.2v-0.2c0.2,0,0.5,0,0.4,0.2c-0.1,0.2-0.2,0-0.4,0c0.4,0.3,0.8,0.5,1.1,1v1.1c0.1,0,0.2,0,0.2,0.2h0.7
	c0,0.1,0,0.2,0,0.4h0.7c0.2,0.3,0.5,0.4,0.4,0.9s0.2,0.3,0.3,0.5v-2.3c0,0,0,0-0.1,0c0,0.2-0.2,0,0,0.2c0.2,0.2,0-0.2-0.3,0
	c-0.3,0.2,0,0.4,0,0.6c0,0.2-0.2,0-0.3-0.2s0.4-0.5,0.3-1c0.3,0,0.2,0.3,0.4,0.3v-0.7H67.2z M38,11.7c0-0.2-0.1-0.5,0-0.5
	c0.1,0,0,0,0-0.2h-0.2c-0.2,0,0,0.3-0.1,0.5c-0.1,0.2-0.4,0.3,0,0.3C37.9,11.9,37.8,11.7,38,11.7L38,11.7z M40.7,17.8
	c0.4-0.2,0.4-1.7,0-1.9c0,0.6-0.1,1.2-0.1,1.8L40.7,17.8z M49.7,24.7V25c0.3,0,0.6,0,0.5-0.3c-0.2,0-0.2,0-0.4,0L49.7,24.7z
	 M13.6,34.8c-0.2-0.4-0.7-0.4-1.2-0.5c0.3,0.2,0.7,0.5,1.2,0.3L13.6,34.8z M13.8,34.9c0,0,0,0.1,0.1,0c0.3-0.1,0.8,0,1.1,0
	c-0.3-0.1-0.7,0-1-0.3C13.9,34.3,13.9,34.8,13.8,34.9L13.8,34.9z M24.4,33.3c0.2-0.2,0.8,0,0.7-0.5h-0.2
	C24.9,33.1,24.4,33.1,24.4,33.3L24.4,33.3z M32.1,27.8c0-0.1,0-0.2,0-0.3c-0.1,0-0.3,0.1-0.3,0.2c0.1,0,0,0,0.3,0L32.1,27.8z
	 M14.2,24.9c0-0.2,0-0.2,0-0.5h-0.1c-0.2,0-0.2,0.2-0.4,0.2c-0.2,0,0,0.5,0,0.7S13.9,25,14.2,24.9L14.2,24.9z M12.1,19.9
	c-0.1,0-0.3,0-0.4,0v0.2c0,0,0.1,0,0.2,0S12,19.9,12.1,19.9L12.1,19.9z M12.8,22.4c0.1-0.3,0.4-0.5,0.8-0.5c0.1-0.2,0.1-0.4,0-0.6
	c-0.6,0.1-1.1,0.4-1.4,0.8h-0.3c0,0.3-0.5,0.3-0.6,0.5v0.1c0.4,0.1,0.9-0.1,1.2-0.4L12.8,22.4z M3.2,23.2c-0.2,0.2,0,0.4,0.1,0.5
	c0-0.3-0.1-0.4-0.3-0.5L3.2,23.2z M4.9,28.1c0.4-0.3,0.2-0.3,0-0.3c0,0,0.2,0,0.2,0.2c0,0.2,0-0.2,0.2-0.2L4.9,28.1z M7.9,30.5
	c-0.4-0.3-0.7-0.6-0.9-1.1H6.5c0.3,0.5,0.8,0.8,1.2,1.3H8c0-0.2-0.2,0,0-0.3L7.9,30.5z M11.3,11.2c-0.4,0-0.4-0.2-0.8-0.2
	c0,0.4,0.7,0.5,1,0.5c0.3-0.1-0.2-0.2-0.2-0.5L11.3,11.2z M15.4,13.6c-0.1-0.4-0.3-0.8-0.6-1h-0.2c0,0.5,0.2,1,0.6,1.2L15.4,13.6z
	 M27.5,23.9c0,0.2,0.1,0.3,0.4,0.3c0-0.3-0.4-0.3-0.4,0L27.5,23.9z M43.2,27.6c0,0.2,0.1,0.2,0.2,0.3c0,0.1,0.2-0.4,0-0.3L43.2,27.6
	z M57.8,18.4c0,0-0.6-0.3-0.5,0C57.3,18.6,57.6,18.4,57.8,18.4c0.2,0,0,0,0-0.2V18.4z M2.7,9.7c0,0.1,0,0.3,0,0.4
	C2.7,10,2.7,9.8,2.7,9.7z M23.7,32.3c0,0-0.2,0-0.2-0.2c0-0.2,0.2,0,0.2,0c0-0.7,0.3-1.1,0-1.7c-0.4,0.3-0.1,1.2-0.7,1.2
	c0-0.5-0.4-0.8-0.5-1.2c-0.2-0.4-0.2-0.7-0.4-1c-0.1-0.3,0-0.3,0-0.5c0-0.2,0,0,0,0c-0.2-0.4-0.4-0.8-0.4-1.2
	c-0.2-0.2-0.1-0.6-0.3-0.8c-0.2-0.2-0.3,0-0.3-0.3s0-0.2,0-0.4c-0.4-0.5-0.5-1.4-1-1.7v0.5c0.4,0.3,0.3,1.1,0.7,1.5
	c0.1,0.8,0.1,1.7,0,2.5c-0.6,0-0.3,0.8,0,1c-0.2,0.2,0,0.4,0.1,0.6c0.4-0.1,0.9-0.1,1.3,0v-0.1c-0.2-0.2-0.6,0-0.5,0.4h0.3
	c0,0-0.2,0.2,0,0.4c0.2,0.2,0.3,0.7,0.5,1c0,0,0,0,0.3,0.1h-0.3h0c-0.1,0-0.2,0.1-0.3,0.2c-0.1,0.1-0.1,0.2,0,0.3
	c0.2,0.1,0.7,0,0.7,0.5c0.3,0,0.3-0.2,0.5-0.2c0.2,0-0.2-0.3,0-0.3c0.2-0.1,0.6,0.4,0.7,0s-0.3,0-0.2,0S23.7,32.4,23.7,32.3
	L23.7,32.3z M21.6,30.7c-0.2,0-0.2-0.3-0.3-0.3s-0.3,0-0.4,0c0,0.2,0,0.3,0,0.5c0,0.2,0-0.2,0.3-0.2c0.2,0.3,0.3,0.6,0.4,0.9
	c0.4-0.2,0-0.3,0.1-0.7L21.6,30.7z"/>
</svg>
