<?xml version="1.0" encoding="utf-8"?>
<!-- Generator: Adobe Illustrator 22.1.0, SVG Export Plug-In . SVG Version: 6.00 Build 0)  -->
<svg version="1.1" id="Layer_1" xmlns="http://www.w3.org/2000/svg" xmlns:xlink="http://www.w3.org/1999/xlink" x="0px" y="0px"
	 viewBox="0 0 66 68" style="enable-background:new 0 0 66 68;" xml:space="preserve">
<style type="text/css">
	.st0{fill:#FFF5E1;}
	.st1{fill:#7C6742;}
</style>
<polygon class="st0" points="0.4,12.6 3.4,15.8 8.9,13.8 10.5,13.5 13.7,14.2 16.7,9.4 20.5,8.9 23.7,6.6 23.8,7.2 27.5,9.2 
	30.6,7.5 32.7,9.5 37.3,4 43,1.3 45.8,0.9 50.8,1.3 54,2 57,3.2 58.8,4.7 62.1,9.6 64.3,15.2 65,19.9 65,22.8 63.4,25.9 60.3,30.5 
	57.4,32.8 56.8,34.1 58.5,36.4 57.4,40.4 58.8,43.2 56.2,47.2 56.6,50.9 54.5,52.5 52.7,52.3 52.3,53.9 53,59.4 51.4,63.3 
	52.7,67.6 42.6,67.2 45.1,64.7 45.5,59.3 43.7,58.6 43.1,54 39.6,51.5 39.8,46.8 37.3,44.7 39.1,40.2 36.5,37.8 39.9,33.9 
	37.5,31.8 32.5,25.8 32.5,27 30.1,30 26.8,27.4 23.8,29 20.5,26.9 16.6,26.1 12.9,22.1 10.5,22.5 5.3,21.3 1.3,21.1 0.5,23.5 "/>
<path class="st1" d="M43.9,33.2c0,0,0,0,0,0.2s-0.3-0.2-0.4-0.3s0.1-0.2,0.3-0.2C43.9,32.9,44,32.9,43.9,33.2L43.9,33.2z M40.6,31.7
	h-0.2v0.2h0.1L40.6,31.7L40.6,31.7z M35.1,26.4c0,0.2,0.2,0.3,0.1,0.5c0,0.3,0.2,0.3,0.3,0.5l0.3,0.4c0,0,0,0.2,0.1,0.4
	c0.1,0.1,0.4,0.4,0.6,0.6c0.2,0.2,0.3,0.4,0.4,0.6c0.2,0,0.4,0,0.6,0c0.1-0.3,0.1-0.6,0-0.9c-0.4,0-0.3-0.5-0.6-0.7
	c-0.2-0.2,0.2,0,0.1-0.2s0-0.8,0-1.1c-0.4,0-0.4,0.3-0.7,0.4s0,0.6,0,0.9h0.3c0,0,0,0.2,0,0.4c0,0.1-0.3-0.1-0.3-0.3
	C36.2,27.5,36,27.3,36,27c-0.3,0-0.3-0.5-0.6-0.6L35.1,26.4z M34.9,25.7c-0.5,0-0.4-0.4-0.8-0.5c-0.3-0.1,0.1-0.4,0.1-0.6
	c0-0.3-0.2-0.3-0.4-0.3c-0.2,0,0-1-0.5-1.2c0-0.3,0-0.4,0-0.7h0.3c0,0.3,0.1,0.6,0.3,0.9c0-0.3,0.2-0.2,0.2-0.5
	c0.5-0.1,0.4,0.5,0.6,0.7c0.2,0.2,0.2-0.2,0.2-0.5c0.4,0,0.5-0.5,1-0.4c0-0.1,0,0,0.1-0.2s0.4,0,0.4,0v0.2c0,0,0,0-0.2,0
	c-0.2,0,0.1,0,0.2,0s0,0,0-0.2v0.2c0.6,0.2,0.9-0.4,1.4-0.5c0.5-0.1,0.5,0.2,0.8,0c-0.2,0.4-0.7,0.5-0.8,0.9h-0.8c0,0,0-0.3-0.2-0.2
	c-0.2,0,0.3,0.9,0,1.2c-0.3,0.3-0.5,0.3-0.9,0.3c0,0.2-0.2,0,0,0.3c0.5-0.2,0.8,0,1.4,0c0-0.3,0.4-0.1,0.7-0.2
	c0.2,0,0.8-0.4,1.1-0.8c0.2,0,0.2,0,0.3,0c0.2-0.3,0.5-0.4,0.8-0.4c0,0.2-0.2,0.2-0.2,0.4c-0.6,0.3-1.1,0.8-1.5,1.3
	c-0.2,0-0.2,0-0.4,0c-0.2,0-0.5,0.4-0.5,0.8c-0.3,0-0.2,0.2-0.5,0.2c-0.1-0.4,0.1-0.7,0.3-0.9c-0.8,0-1.7,0.2-2.4,0c0,0,0,0.2,0,0.3
	L34.9,25.7z M35.5,24.1c-0.2,0-0.2,0.2-0.1,0.3C35.5,24.6,35.4,24.2,35.5,24.1z M34.7,26.8h-0.2c0,0-0.2,0.2-0.2,0.5
	c0,0.3,0.2,0,0.2,0s0.2-0.2,0.3-0.2C34.9,27,34.6,27.1,34.7,26.8L34.7,26.8z M33.8,26.8c0-0.2,0-0.3,0-0.3c0-0.1,0,0.2-0.2,0
	c-0.2-0.2,0.2,0,0,0.2h0.2V26.8z M34.7,26.4c0,0.2,0.3,0.4,0.4,0s-0.1-0.2-0.2-0.3c0-0.1-0.1,0-0.2,0.2V26.4z M34,26.2
	c-0.2,0-0.2-0.4-0.4-0.4c0,0.2,0,0.3,0,0.5c0,0.2,0.2,0,0.2,0s0.2-0.2,0.3-0.3L34,26.2z M33.5,25.3c-0.2,0-0.1,0.4,0,0.4
	C33.5,25.6,33.5,25.5,33.5,25.3L33.5,25.3z M34.3,26c0-0.7-0.4-0.9-0.6-1.3c-0.2,0-0.1,0.3-0.2,0.5C33.9,25.4,33.9,25.9,34.3,26z
	 M48.3,24.4c-0.2,0-0.1,0.6,0,0.7c0.1,0.1,0.2-0.2,0.3-0.2C48.6,24.7,48.5,24.5,48.3,24.4L48.3,24.4z M33.4,23.4
	c-0.1-0.4,0-1-0.5-1.2c-0.2,0.8,0.3,1.2,0.3,2c0.2,0,0.3,0,0.4,0c0.1-0.2,0.1-0.5,0-0.7C33.7,23.6,33.5,23.6,33.4,23.4L33.4,23.4z
	 M39.7,20.3c0.7,0.3,1.3-0.2,1.8-0.4c0,0-0.2,0,0-0.2h-0.2c-0.2,0,0,0.3-0.2,0.2c-0.2,0,0,0-0.2,0s0.3-0.2,0.3-0.4
	c0-0.2-0.5-0.3-0.8-0.3c-0.3,0.1-0.2,0-0.4,0.2c-0.1,0.2-1-0.2-1.2,0s0-0.2-0.3,0c-0.9,0.4-1.5-0.3-2.4,0c0,0.2-0.1,0-0.2,0
	c-0.1,0-0.3,0.3-0.5,0.5c-0.2,0.2,0.5,0.4,0.6,0.6c0.2,0.2,0.8-0.1,1,0.2c-0.5,0.2-1.7,0.3-2-0.2c-0.2,0.1-0.3,0.4-0.3,0.6h-0.5
	c0,0.3-0.2,0.2-0.1,0.5c0,0,0-0.1,0-0.1c0.2,0.2,0.5,0.3,0.7,0.2c-0.2,0.4,0.1,0.7,0,1.3c0.4,0,0.5-0.2,0.7-0.3c0-0.2,0-0.3,0-0.5
	c0.2-0.2,0.4-0.4,0.6-0.7c0.3,0,0.8,0,0.8-0.2c0.3,0.1,0.6,0,0.8-0.2c0-0.2,0-0.5-0.3-0.5c0-0.1,0-0.2,0-0.4
	c0.1,0.2,0.3,0.3,0.5,0.2c0,0.2-0.2,0.2,0,0.5c0.2,0.3,0.7-0.2,1.1,0c0-0.2,0-0.3,0-0.5h-0.7c0.4-0.2,0.8-0.3,1.2-0.3
	c-0.2,0.2-0.5,0.3-0.4,0.6c0.1,0.4,0.2,0,0.3-0.2L39.7,20.3z M33.6,22.1v-0.3h-0.1v0.2h0.2L33.6,22.1z M33.3,20.9
	c-0.2,0,0,0.2,0,0.3h0.2c0-0.2,0-0.3,0-0.4L33.3,20.9z M33.3,16.2c0,0.2,0,0.5-0.1,0.6c-0.1,0.1,0.2,0,0.1,0.2
	c-0.4,0.4,0,0.9-0.2,1.3s0.2,0.6,0,0.7c-0.2,0.2,0.3,0.3,0.3,0.5c0,0.2-0.3,0.9,0,1.1c0.3,0.3,0-0.2,0.3,0c0.3,0.2,0.4,0.3,0.7,0.1
	c0.3-0.2,0.4-0.5,0.4-1c-0.5,0-0.5-0.3-0.8-0.4c-0.1-0.8-0.2-1.5-0.1-2.3c0.2-0.3,0.4-0.7,0.8-0.8c0.4-0.2,0-0.2,0-0.4
	c0-0.2-0.4,0-0.7,0c-0.3,0,0.2-0.8,0-1.1c-0.3,0.2-0.5,1.1-0.2,1.3c0.3,0.3,0,0-0.2,0L33.3,16.2z M48.8,20.6c-0.1,0-0.1,0.1-0.2,0.2
	c0.2,0.5,0.8,0.2,1.3,0.2v-0.3c-0.1-0.2-0.8,0-0.9,0.2C48.9,20.9,49,20.6,48.8,20.6L48.8,20.6z M50.7,18.9c-0.2,0.5-0.4,0.9-0.8,1.2
	c0,0.2,0,0.3,0,0.5h0.3c0.2-0.7,0.9-0.8,0.9-1.7C50.9,18.9,50.7,18.9,50.7,18.9L50.7,18.9z M35.7,19.2c0-0.1,0,0,0,0.2
	S35.7,19.3,35.7,19.2z M39.1,16.6c-0.5,0-1.1,0-1.2-0.4c0.6,0,1.3,0,1.6,0.2c0.4,0,0.9,0,1.3,0.2c0,0,0.4,0,0.4,0.2
	c0,0.2-0.5,0-0.7,0.3s0.5,0,0.5,0.4s-0.4,0.3-0.7,0.2c-0.3-0.1-0.2,0.2-0.2,0.4s-0.4,0-0.5-0.2c0-0.5-0.6-0.2-0.7-0.5
	c-0.1-0.3-0.2,0-0.4,0.2s0.9,0,0.9,0.3c-0.3,0.4-0.9,0-1.3,0c-0.4,0-0.3,0.3-0.5,0.2c-0.1,0.2-0.3,0.4-0.5,0.4c0,0.8-1,0.4-1.7,0.4
	c0-0.3-0.3,0-0.2-0.4c0.1,0,0.2,0,0.3-0.2s-0.2,0-0.3-0.1v0.2c-0.4,0-0.5-0.7-0.4-1.3c0.5-0.2,0.7,0,1.1,0v-0.3c0.7,0.1,1.5,0,2.2,0
	c0.2,0,0.4,0.2,0.4,0.2c0,0,0.2,0,0.3,0c0.1,0,0.6,0.4,0.8,0c-0.3-0.2-0.5-0.3-0.8-0.4L39.1,16.6z M36.3,17.9c0.1,0,0.2-0.4,0-0.3
	V17.9z M32.1,18.5c0.2-0.1,0.3-0.6,0-0.7s-0.1,0.4-0.2,0.6C31.9,18.6,32.1,18.4,32.1,18.5L32.1,18.5z M32.6,17.7c-0.3,0,0,0.6,0,0.8
	c0,0.2,0,0,0.2,0C32.9,18.4,32.8,17.8,32.6,17.7L32.6,17.7z M32.6,17.5c0.2,0,0.2-1,0.1-1.4C32.3,16.2,32.4,17.3,32.6,17.5
	L32.6,17.5z M47.5,18.6c0.2,0,0-0.5-0.1-0.5S47.5,18.4,47.5,18.6z M31.6,17.6c0.1,0,0,0,0.2,0S31.6,17.6,31.6,17.6z M36.7,16.1
	c0,0,0,0,0.1,0c0,0,0-0.2,0.2,0c0.2,0.2-0.1-0.2-0.3-0.2C36.6,15.9,36.7,15.9,36.7,16.1L36.7,16.1z M35.2,15.6c0,0-0.2,0.2-0.1,0.4
	c0.5,0,0.5,0.4,0.9,0.2c-0.1-0.3-0.4-0.5-0.7-0.5L35.2,15.6z M36.6,16.1c-0.2,0-0.4,0-0.5,0C36,16.1,36.7,16.2,36.6,16.1L36.6,16.1z
	 M34.9,15.3c0,0.2,0.2,0,0.3,0.2v-0.4h-0.4L34.9,15.3L34.9,15.3z M54.2,15.6c0.3,0,0.5,0,0.5-0.3S54.2,15.3,54.2,15.6z M32.9,13.5
	h0.2v-0.1h-0.2V13.5L32.9,13.5z M33.4,12.6v-0.2h-0.3c0,0.1,0,0.2,0,0.3h0.3L33.4,12.6z M58.3,12.6c0.2,0,0.4,0,0.3-0.3
	C58.4,12.4,58.3,12.5,58.3,12.6z M33.4,10.5c0,0.2,0,0.6,0.3,0.5v-0.5L33.4,10.5L33.4,10.5z M43.1,9.5c-0.1,0.1-0.1,0.2,0,0.3
	s0.2,0.1,0.3,0.1C43.3,9.7,43.3,9.6,43.1,9.5z M35.4,8.5v0.3c0.2,0,0.2-0.2,0.2-0.4s0-0.2-0.2-0.1L35.4,8.5z M35.7,7.4h-0.3
	C35.3,7.8,35,8,34.9,8.5h0.3c0-0.4,0.4-0.5,0.5-0.9L35.7,7.4z M37,7.2c-0.5,0-0.5,0.3-0.6,0.6C36.7,7.9,37.1,7.5,37,7.2z M53.5,7.6
	c-0.1,0.2-0.5,0-0.4,0.5c0.2,0,0.5,0,0.7-0.1C53.8,7.8,53.6,7.7,53.5,7.6z M41.1,6.3c0,0.2,0,0.3,0.3,0.3c0.1-0.1,0.1-0.3,0-0.4
	c-0.1,0-0.2,0-0.3,0V6.3z M32.3,22.8c-0.1,0.4,0,0.9,0.3,1.3c0-0.5,0-1-0.5-1.2L32.3,22.8z M32.1,22.7c0,0,0.3-0.2,0.3-0.4
	c0-0.2-0.2-0.7-0.3-1H32c-0.2,0.3,0,0.9,0,1.1L32.1,22.7C32,22.7,32,22.7,32.1,22.7L32.1,22.7z M33.7,11.9c0.3,0,0.2-0.5,0.5-0.6
	v-0.2C33.8,11.1,33.9,11.6,33.7,11.9L33.7,11.9z M41.8,22.1c0,0.4-0.3,0.4-0.4,0.7h0.7c0-0.2,0.2-0.2,0.2-0.5c-0.2,0-0.2,0-0.4,0
	L41.8,22.1z M46.7,24.6c0,0-0.3,0.2-0.3,0.3c0,0.2,0,0.2,0,0.2h0.2C46.6,25,46.6,24.8,46.7,24.6L46.7,24.6z M44.2,24
	c-0.3,0.4-0.4,0.8-0.4,1.3c0.3,0,0.2-0.5,0.5-0.6c0-0.1,0-0.2,0-0.3c0.4-0.4,0.7-0.9,0.8-1.5c-0.2-0.1-0.4-0.1-0.5,0
	c0,0.5-0.2,0.6-0.5,0.8L44.2,24z M43.3,33.1c0-0.1-0.1-0.2-0.1-0.2c-0.1-0.1-0.2-0.1-0.3-0.1c0,0,0.3,0.3,0.5,0.1L43.3,33.1z
	 M38.9,31.2c0,0-0.2,0-0.2,0.2s0,0.2,0.1,0.2h0c0-0.2,0-0.4-0.1-0.4L38.9,31.2z M36.1,28.8c-0.2,0,0-0.2-0.3,0c0,0.1,0,0.2,0,0.4
	c0.4,0.4,0.7,0.9,1.2,1.2v-0.4c-0.4-0.2-0.7-0.6-1-1L36.1,28.8z M54.8,25.2c-0.2,0-0.2-0.2-0.4-0.2c-0.2,0,0,1,0.4,1
	c0-0.4-0.2-0.5-0.2-0.8L54.8,25.2z M52.2,21.3c0.2,0.4,0.7,0.7,1.1,0.6C53.1,21.5,52.7,21.3,52.2,21.3L52.2,21.3z M42.5,8.8
	c0.1,0,0.2-0.5,0-0.5c0,0.3,0.1,0.3,0.3,0.4L42.5,8.8z M54.4,36.2c0-0.3-0.2-0.4-0.4-0.3v0.3C54.1,36.1,54.2,36.1,54.4,36.2
	L54.4,36.2z M54.8,36.9c0-0.2,0.5-0.2,0.8-0.2c0-0.1,0-0.3,0-0.5c-0.5,0-1.5-0.2-1.5,0.4C54.2,36.8,54.5,36.8,54.8,36.9z M56.8,38.1
	h-0.2H56.8z M43.2,39.7h-0.1H43.2z M38.3,42.7c0,0,0,0.2,0,0.3h0.3C38.6,42.7,38.6,42.6,38.3,42.7L38.3,42.7z M49.5,43.9v-0.3
	c-0.5,0-0.7-0.4-1.3-0.3v0.3C48.8,43.6,49,44.1,49.5,43.9z M57.8,45.9c0.6-0.4,1.1-1,1.4-1.7V44c-0.4,0-0.6,0.4-0.9,0.6
	C58.3,45.1,57.6,45.3,57.8,45.9z M57.1,45c0,0,0-0.2,0-0.3h-0.3C56.8,44.9,57,45,57.1,45L57.1,45z M56.5,45.4h-0.2v0.1h0.1
	L56.5,45.4z M56.5,48.2h0.4c0-0.5-0.2-0.7-0.2-1.1c0-0.4,0.2,0,0.1-0.2c-0.4,0-0.5,0.2-0.7,0.3C56,47.3,56,47.2,56,47
	s0.1-0.3,0.1-0.4c0-0.1,0.3-0.2,0.4-0.4C56.3,46.1,56,46,55.6,46c0,0,0,0.3-0.3,0.4c-0.3,0-0.2,0-0.2-0.3c-0.3,0-0.5,0-0.7,0.2
	c0,0.6,0.3,0.8,0.9,0.8c0.2,0.2,0.5,0.4,0.8,0.3c0,0.4,0.6,0.3,0.4,1L56.5,48.2z M54.1,47.2h-0.3c0,0.6,0.4,0.7,0.8,0.8
	C54.5,47.6,54.1,47.6,54.1,47.2z M50.4,49.4c-0.3-0.4-0.5-1-0.4-1.5c-0.3,0-0.3-0.3-0.3-0.5h-0.2c-0.1,0.2,0,0.4-0.2,0.6
	c-0.2,0.2,0,0,0,0c0.2,0,0.2,0.2,0.4,0.2V49c-0.2,0,0,0.2-0.2,0.2c0,0.4,0.1,0.8,0.2,1.1c0,0.4,0.1,0.7,0.4,1c0.1,0,0-0.4,0.1-0.4
	c0.1,0.3,0.2,0.5,0.2,0.8H51c0.2-0.3,0.4-0.7,0.4-1.2c-0.5-0.4-0.8-1-0.9-1.7L50.4,49.4z M48.9,48.5c0,0.1,0,0.4,0.2,0.3
	c0.1-0.3,0.2-0.6,0.2-0.9c-0.3,0-0.4,0.1-0.7,0.2c0,0.2,0,0.4,0.2,0.6L48.9,48.5z M57.1,50.7c0-0.4,0-0.7-0.2-1.1
	c0.3-0.2,0-0.9,0.1-1.3c-0.2,0-0.2,0.2-0.4,0.1c-0.3-0.1,0.1,0,0,0.3c-0.2,0.7-0.2,1.4,0,2.1C56.8,50.9,56.9,50.9,57.1,50.7
	L57.1,50.7z M41.8,49.7L41.8,49.7h-0.1c0,0.1,0,0.1,0,0.2h0.2L41.8,49.7z M41,49.9c-0.1,0-0.2,0.6,0,0.5c0-0.2,0-0.5-0.1-0.5
	L41,49.9z M41.1,50.7c0-0.2,0-0.3-0.2-0.3C41,50.5,41,50.7,41.1,50.7L41.1,50.7z M52,50c-0.1,0,0-0.2-0.3-0.2c0,0.1,0,0.2,0,0.3
	c0,0,0.1,0.1,0.2,0.2S52.1,50.3,52,50L52,50z M45.4,50.4c0-0.2-0.1-0.3-0.2-0.4c0,0.2-0.2,0.2,0,0.5C45.3,50.7,45.4,50.4,45.4,50.4
	L45.4,50.4z M55.3,50.9c-0.4-0.4-0.7,0.3-1.1,0.3c-0.4,0.1-0.3-0.4-0.7-0.3v0.3c0,0-0.6-0.4-0.8,0c-0.2,0.4,0.2,0.2,0.3,0.3
	c0.1,0.1,0.1,0.5,0.3,0.6c0.2,0.1,0.3-0.3,0.4-0.5c0.4,0,0.8,0,1.2,0c0-0.3,0.2-0.3,0.3-0.6L55.3,50.9z M55.7,52.3
	c0.3,0,0.5,0,0.5-0.3C56.3,51.7,55.8,52,55.7,52.3z M55.4,52.5v-0.4c-0.2,0-0.3,0.1-0.2,0.2h0.2V52.5z M54.8,52.5h-0.3
	c0,0,0,0.2,0,0.2S54.8,52.7,54.8,52.5L54.8,52.5z M51,53.7c0-0.5-0.3-0.6-0.5-0.8c0,0.2-0.2,0-0.3,0.1c-0.1,0.1,0.2,0.5,0.2,0.9
	S50.6,53.6,51,53.7z M50.2,55.6c0.3,0,0.6,0,0.6-0.4c0-0.4-0.2,0-0.4,0C50.4,55.3,50.3,55.5,50.2,55.6L50.2,55.6z M48.8,57.6
	c-0.3,0-0.4,0-0.5,0.3c0,0.3,0.2,0.1,0.3,0.2S48.8,57.9,48.8,57.6z M48.8,64.1c0.2,0,0.2-0.2,0.3-0.3s-0.1,0-0.3,0s0,0.2,0,0.4
	L48.8,64.1z M47.9,37.7v0.1h-0.1L47.9,37.7z M40.5,35.3c0,0,0,0.2,0.2,0v-0.2c0,0-0.2,0-0.2,0V35.3z M42.5,49.5c0,0-0.2,0-0.3,0
	c0,0.2,0.2,0.3,0.3,0.3V49.5L42.5,49.5z M42.8,48.8c-0.1,0-0.3,0-0.3,0c0,0,0.2,0.1,0.3,0.2v-0.3V48.8z M43,48c0-0.1,0-0.2,0-0.3
	h-0.2C42.8,47.9,43,47.8,43,48L43,48z M41.3,47.5v0.1V47.5z M44.2,67H44c0,0.1,0,0.2,0,0.3c0,0.2,0.2,0.3,0.2,0s0,0,0,0v-0.2
	c0.1,0,0.1-0.2,0.2-0.2c0.1,0,0.2,0.2,0.3,0.3c0.2,0.1,0.3-0.4,0.5-0.2c0-0.3,0-0.3,0-0.5c0-0.2-0.7,0-0.8,0.3L44.2,67z M56.3,34.3
	l0.4-0.2c0.9,0,1.1,0.8,1.8,1.1c0.1,0.4,0.3,0.7,0.7,0.9c0,0.3,0.2,0.6,0,0.7c0,0.5-0.3,1-0.6,1.4c0,0.7-0.6,1-0.9,1.5
	c0,0.3,0.5,0.5,0.6,0.7c0.2,0.2,0,0.1,0,0.2c0,0.1,0.1,0.3,0.3,0.4c0,0.3,0.1,0.7,0.2,1c0,0.1,0,0.2,0.1,0.5c0.1,0.3,0.1,0,0.2,0.2
	c0,0.2,0,0.4,0,0.6c-0.2,0,0,0.2-0.3,0.2c-0.3-0.1-0.2-0.4-0.6-0.4c-0.4,0,0-0.7-0.4-0.7c-0.4-0.1,0-0.3,0-0.4
	c0-0.1-0.3-0.3-0.3-0.5c0-0.3-0.3-0.2-0.5-0.4c-0.3,0.1-0.6-0.1-0.7-0.4c-0.4,0-0.5-0.1-0.8-0.3c-0.2-0.1-0.4-0.7,0-1
	c0.4-0.3,0.1,0.2,0.4,0s0-0.3,0.1-0.3s0.2,0.2,0.5,0.2c0.2,0,0.1,0.3,0.2,0.5s0.3-0.1,0.5-0.2c0.1-0.1,0-0.3,0.2-0.5h0.1
	c0,0,0-0.3,0-0.3s0.2,0,0.3-0.2c0.1-0.3,0.2-0.5,0.2-0.8c0.3-0.2,0.4-0.7,0.4-1.1c-0.5-0.4-0.6-1.1-1.2-1.3c0-0.3-0.2-0.2-0.2-0.4
	s-0.3,0-0.3-0.2h-0.6L56.3,34.3z M52.7,35.9l0.7-0.2c0,0.1,0,0.1,0,0.2C53.2,36,53,36,52.7,35.9L52.7,35.9z M41.3,67.8h0.1
	c0.5,0,0.7-0.2,0.9-0.4c0-0.2,0-0.5,0-0.7c0.1,0,0.3,0,0.3,0c0-0.2,0-0.5,0-0.7c0.1,0,0.2,0,0.2-0.2h0.9c0.4-0.3,0.7-0.7,0.9-1.1
	c0,0.2,0,0.3,0,0.4c0,0.2,0.2-0.3,0.2-0.5h-0.2c0.2-0.6,0.2-1.2,0.1-1.8c0.2,0,0-0.3,0.3-0.2c0.3,0.1-0.2,0-0.3,0s0.1-0.9-0.2-1.1
	c0-0.4-0.1-0.7-0.3-1c-0.3-0.3-0.6-0.6-0.8-0.9c-0.4,0-0.7-0.3-1.1-0.3c-0.2-1-0.2-1.9,0-2.9c0.5,0,0.4-0.7,0.8-0.8
	c0.4-0.1,0,0.2,0.2,0.3c0.2,0.1,0-0.3,0.2-0.3c0.2-0.1,0.6-0.2,0.7-0.5s0.1,0.2,0.4,0c-0.3-0.5-0.6,0.2-1.1,0c0-0.5,0.4-0.4,0.6-0.5
	s0-0.5,0.1-0.6c0.1-0.1-0.2,0-0.3,0c0-0.2-0.2-0.3-0.2-0.6c0-0.3-0.3,0-0.3-0.2c0.4-0.1,0.6-0.3,0.8-0.7c-0.1-0.3-0.5-0.4-0.8-0.5
	c-0.3-0.1,0.6-0.5,0.7-0.8s0.2,0,0.4,0s0-0.3,0-0.4c0.4,0,0.6-0.1,0.7-0.4h0.4c-0.2,0-0.3,0.2-0.2,0.4c-0.4,0.2-0.5,0.7-0.7,1.1
	c0.1-0.1,0.2-0.1,0.3,0c0,0.2,0.1,0.2,0.2,0.3s-0.3,0.8-0.4,1.2c0,0.4,0.2,0.4,0.3,0.5c0.1,0.2,0.3,0,0.5,0c0.2,0.2,0.5,0.3,0.7,0.3
	c0,0.2,0.2,0,0.3,0.2s0,0,0,0.1s0.3,0,0.4,0c0,0,0,0.1,0,0.1c0.1,0,0.3,0,0.4,0c0.1,0,0.4,0,0.4,0c0,0-0.5-0.3-0.4-0.7
	c0.2,0,0.1-0.4,0.2-0.6h-0.2c0,0.4-0.2,0.3-0.1,0.6v0.2c-0.3,0.3-0.6-0.3-0.8,0c-0.1-0.1-0.2-0.2-0.3-0.3c0,0.2-0.4,0.4-0.5,0.2
	c0-0.1,0-0.3,0-0.4c-0.2,0,0,0.2-0.3,0.1s-0.2-1.1,0.2-1.2c0,0.3,0.4,0.3,0.5,0.6c0,0,0.2,0,0.3-0.3c0-0.3-0.2,0-0.3,0
	c-0.1,0-0.1-0.3-0.2-0.4c0.2-0.6,0-1.4,0.5-1.8c-0.1-0.2,0-0.5,0.1-0.7c-0.2,0,0-0.4,0-0.6s0,0-0.2,0c-0.2,0-0.4,0.3-0.5,0.5
	c-0.1,0.3,0.2,0,0.2,0.3s0,0.2-0.3,0.2c-0.2-0.2-0.2-0.6-0.3-0.8c-0.1-0.3,0-0.2,0.2-0.1c0.2,0.1-0.1-0.6,0-0.6h0.2
	c0.1,0,0.1,0,0.2,0v-0.2h-0.2c0-0.4,0.1-0.7,0.4-0.9c-0.1-0.2-0.2-0.4-0.3-0.6c0-0.2,0.2-0.3,0.3-0.4c0.1-0.1-0.3,0-0.5,0
	c0-0.5,0.2-0.9-0.2-1.2v-0.4c-0.4,0-0.3,0.4-0.5,0.5c-0.3,0.1,0.2,0.2,0.4,0.2c0.1,0.6-0.6,0.2-0.6,0.7c0,0.4,0-0.2,0.3,0
	s-0.1,0.5-0.2,0.8c-0.1,0.3,0.2-0.2,0.4,0c0,0.7-0.7,0.8-0.6,1.7c-0.2,0-0.3,0.4-0.5,0.5c-0.2,0.1,0-0.2-0.1-0.3
	c-0.1-0.1,0.1,1-0.5,1c-0.2,0.3-0.3,0.8-0.2,1.2c0,0,0.3,0,0.3,0.3c0,0.3-0.9,0.9-1,0.2c-0.2,0-0.3-0.1-0.5-0.2c0-0.2,0.2,0,0-0.3
	c-0.2-0.3,0.5,0,0.5-0.2c0-0.2-0.3,0-0.5,0c-0.2,0,0.2-0.3,0.1-0.6h-0.3c0-0.2,0.2,0,0.2-0.2s0-0.5-0.3-0.5s0-0.5,0-0.5
	c0-0.1,0,0.4-0.3,0.3c-0.3-0.1,0-0.2-0.1-0.3c-0.1-0.1-0.2,0.4-0.4,0.5c-0.2,0.1,0-0.6-0.3-0.7c0.2-0.3,0.2-0.6,0.1-0.9
	c0.1-0.2,0.4-0.2,0.3-0.5c-0.1-0.3-0.6,0.2-0.8,0.3c0,0.7,0.1,1.5-0.1,1.9c0.3,0.3,0.4,0.9,0.4,1.5c0.1,0.6,0.9,0.7,1.2,1.2
	c0.3,0,0.5,0.2,0.5,0.5c0.4,0.1,0.7,0.2,1,0.5c0,0.2-0.2,0.2-0.4,0.2h-0.6v-0.1c0,0-0.5,0-0.5-0.2c-0.1-0.1-0.2-0.2-0.2-0.4
	c-0.5-0.3-1.2-0.3-1.5-0.8c-0.7,0-0.6-0.7-0.8-1.2c0.2-0.4,0-1.4,0-2.1l0,0c0,0,0-0.3,0-0.4c0.1-0.2,0.1-0.5,0-0.8
	c-0.1,0-0.5,0-0.4-0.4c-0.3,0-0.3-0.2-0.5-0.2c-0.4-1.3-1.5-1.8-2.1-2.9c0.2-0.6,0.2-1.4,0.8-1.7c0-0.4,0-0.6,0.3-0.7
	c0.3-0.1,0.3-0.5,0.3-0.8c0.2,0.1,0.4,0.1,0.6,0c-0.2-0.2-0.3-0.4-0.4-0.7h-0.2c0-0.2-0.1-0.4-0.3-0.5c0-0.6,0-1.1-0.5-1.2
	c0-0.2,0-0.3,0-0.4c-0.5-0.3-0.7-0.9-0.5-1.4h0.1c0.3-0.6,0.7-1,1.3-1.3c0.1-0.3,0.4-0.5,0.8-0.6c0.2,0,0.2,0.2,0.3,0.2
	c0.1,0.1,0.2-0.4,0.5-0.4v0.3c0.3,0,0-0.3,0-0.5l0.5-0.2c2,0.9,4.2,1.3,6.4,1.4c-0.1,0.3-0.2,0.7-0.8,0.6c0-0.8-0.8-1-1.5-0.8
	c0,0.2,0,0.5-0.1,0.7c0.2,0.1,0.2,0.4,0.2,0.7c0,0.3,0,0.4,0.3,0.4c0,0.1,0,0.2,0,0.3h0.7c0,0.2,0.2,0,0.2,0.3
	c0.4-0.1,0.9,0,1.3,0.2c0-0.4,0.3-0.4,0.7-0.4c0.1-0.6,0.2-1.2,0.3-1.7h0.9c0,0.2,0,0.3,0,0.4c0,0.2,0,0.3,0,0.5
	c0,0.2,0.2,0.3,0.3,0.5c0.1,0.2,0,0.5,0.2,0.6c0.2,0.1,0.4,0,0.6-0.1c0.2-0.1,0.7,0.1,1,0.1c0.4,0,0.3-0.4,0.6-0.4
	c0-0.4,0.2-0.6,0.1-1.1c-0.2-0.3-0.5-0.4-0.8-0.5c-0.3,0.3-0.2,0.7-0.6,0.8c-0.1,0-0.3,0-0.4,0c-0.1-0.2-0.2-0.4-0.2-0.7
	c0.9-0.1,1.7-0.2,2.6-0.4c0.4,0,0.7,0,1.1,0c0,0.2,0.3,0.2,0.3,0.4c0,0.2,0.3,0.2,0.6,0.2v0.5c0.3,0.2,0.7,0.3,1,0.2
	c0.4,0.3,1.1,0,1.7,0c0,0.3-0.2,0.4-0.4,0.4s-0.4,0.2-0.8,0.2c-0.3,0,0,0.2-0.2,0s-0.8,0-1-0.2s0,0.3,0,0.5c0,0.2-0.2,0.1-0.2,0.4
	c0,0.2-0.4,0-0.5,0c0.1,1,0.9,1.2,1.4,1.9c0.1,0.2,0,0.4-0.1,0.5c0.2,0.4,0.9,0.3,0.9,0.8c-0.3-0.1-0.7,0-0.9-0.2c0,0-0.3,0-0.4,0
	s0,0,0,0s-0.1,0-0.1-0.2l-0.4,0.3c-0.3-0.2-0.5-0.4-0.7-0.7c-0.1,0,0,0.3,0,0.5c0.5,0.4,0.9,1,1.2,1.5c-0.1,0.3-0.2,0.5-0.5,0.6
	c0,0.1,0.1,0.2,0.2,0.3c0,0.2-0.1,0.4-0.3,0.5c0,0.2,0,0.4,0,0.5c0,0.1-0.6-0.8-1.3-0.8c0.3,0.9,0.8,1.8,1.6,2.4
	c0.1,0.3,0.1,0.5,0,0.8c-0.1,0.1-0.3,0.1-0.4,0.1s-0.2-0.2-0.3-0.3c-0.2,0,0,0.2-0.3,0.1c-0.3-0.1-0.2-0.6-0.6-0.7
	c-0.1,0.3-0.3,0.5-0.5,0.7c0.4,0.4,0.8,0.9,1,1.4c0,0.1,0.2,0,0.2,0.2s-0.3,0-0.4,0c-0.2,0.3-0.3,0.7-0.2,1c-0.2-0.2-0.5,0-0.6,0
	c0-0.1,0-0.3,0-0.5c0-0.2-0.2,0-0.3,0c-0.4-0.4-0.4-1.3-0.7-1.8c0,0,0-0.3,0.1-0.3c0.1,0.1-0.1-0.3-0.2-0.3c-0.1-0.1,0,0.3,0,0.5
	s-0.3-0.2-0.3-0.4s-0.5-0.3-0.7-0.6c0.5,0,0.4-0.6,0.8-0.7v-0.9c0.4-0.5,0.2-1.2,0.3-1.7c0.1-0.6,0.3-0.6,0.4-0.9
	c-0.1-0.1-0.2-0.3-0.1-0.5c0.2-0.2,0-0.8,0.2-1c-0.1-0.6-0.2-1.2-0.2-1.8c-0.6,0-1.4,0.1-1.7-0.3c0,0-0.2,0-0.4,0
	c-0.1-0.1-0.3-0.2-0.4-0.3c-0.3,0.5-0.5,1.2-0.5,1.8c0.2,0.1,0.4,0.3,0.5,0.6c0,0.1,0.3,0,0.3,0.3c-0.2,0-0.4,0-0.6-0.2
	c-0.4,0.1-0.2,0.6-0.2,1c-0.3,0-0.2-0.3-0.5-0.3c-0.2,0,0,0.7-0.3,0.8c-0.3,0.1-0.2-0.1-0.3-0.2c-0.1,0.4-0.6,0.5-1,0.6
	c-0.4,0.1,0,0.2,0,0.3s0.7,0.3,0.9,0c0.3,0.4,0.6-0.2,1,0c0,0.2,0,0.5,0,0.7c-0.5,0-0.6,0.5-0.6,1c-0.3,0.1-0.3,0.5-0.8,0.4
	c-0.1,0.1-0.2,0.3-0.2,0.4c0.3,0.4,1.3,0,1.9,0.2c0.1,0.2,0.1,0.4,0,0.5c0.1,0.5-0.1,0.9-0.3,1.3c-0.3,0-0.5,0.1-0.8,0.3
	c0,0.3,0.5,0.2,0.6,0.4c0.1-0.2,0.7-0.3,0.9,0c0.2,0.3-0.3,0-0.4,0.1c-0.1,0.1-0.3,0.4-0.6,0.4c-0.4,0,0,0.9-0.1,1.1
	c0.3,0.2,1,0,1.3,0.3c0,0.2,0,0.4-0.2,0.5c0.2,0.5,0.1,1.3,0.4,1.8c0.2,0.5,0.8,0.2,0.9,0.8c0.1,0,0.3,0,0.4,0
	c0,0.6,0.4,0.9,0.2,1.5c-0.2,0-0.3,0-0.4,0c0,0.2-0.1,0.3-0.2,0.5c-0.1,0-0.3,0-0.4-0.2c-0.1,0.2-0.4,0.4-0.7,0.3
	c-0.1,0.2-0.1,0.5,0,0.7c0.1,0.2,0.4,0.3,0.6,0.3c0.2-0.1,0.4-0.2,0.6-0.3c0.1,0,0.1-0.3,0.4-0.3c0,0.2,0,0.3,0,0.5
	c0.6,0,1.1-0.1,1.6-0.3v-0.3c-0.2,0,0,0.2-0.3,0.2c-0.3-0.1-0.4-0.4-0.5-0.6c-0.1-0.3,0.6-0.5,0.9-0.7s0-0.7,0.4-0.7
	c0.1-0.6-0.1-1.3-0.6-1.7c0.1-0.2,0.3-0.5,0.3-0.7c0.4,0,0.5,0.2,0.8,0.3s0.1,1-0.1,1.2c0,0.7,0.4,1.1,0.3,2c0.4,0.4,0.6,1,1.1,1.3
	c0.1,1.1,0,2.2-0.1,3.2c-0.1,0.1-0.2,0.2-0.3,0.4h-0.3c-0.4,0.3-0.7,0.7-0.8,1.2c-0.4,0.2-0.4,0.6-0.6,0.9c-0.1-0.5,0.2-1.1,0.6-1.3
	c0-0.4,0.2-0.5,0.1-0.9c-0.8-0.2-1.6-0.2-2.4-0.2c-0.6,0-1.2,0-1.8,0c0,0.1,0,0.3-0.2,0.4c-0.2,0.1,0-0.4-0.2-0.5
	c-0.2-0.1,0,0-0.3,0c-0.3,0,0,0.2,0,0.3c-0.2,0-0.4,0-0.7,0v0.2c0,0,0.2,0,0.3,0c0.2,0.6,0.7,1.7,0.3,2.5c0,0.2,0.2,0,0.2,0.2
	c0,0.2,0-0.6,0.4-0.5c0.1,0.8,0.1,1.5,0,2.3c0,0,0.1,0,0.2,0c0.1,0,0-0.9,0.3-0.9c0.3-0.1,0,0.5,0.2,0.5c0.2,0,0,0,0,0.2
	c0.3,0.1,0.5,0.2,0.8,0.3l0.1-0.4c0.3,0,0.6,0.1,0.9,0.3c0-0.2,0.3,0,0.5-0.2c0.1-0.2,0.1-0.3,0.2-0.4c0.8,0.5,0.3,2.4,1.9,2
	c0.4,0.3,0,1.2,0.3,1.8c0.2,0.1,0.3,0.1,0.5,0h0.2h-11c0-0.2,0.4-0.1,0.3-0.4c-0.5,0-0.6-0.2-0.9-0.3s-0.2,0-0.2,0.3
	c0,0.3,0.5-0.1,0.6,0c0.1,0.1,0.1,0.2,0,0.3c0.2,0,0,0.2,0.2,0.1L41.3,67.8z M50.3,66.5c-0.6,0.3-1.4-0.2-2.1,0
	c-0.2,0-0.2-0.2-0.4-0.2s-0.5,0-0.7,0.1c-0.2,0.1-0.2,0.3-0.4,0.3c-0.2,0,0-0.2-0.2,0c-0.2,0.2,0,0.3-0.2,0.3c-0.2,0,0-0.2,0-0.3
	h-0.2c0,0.2-0.1,0.4-0.1,0.6c0,0,0.2,0.1,0.3,0c0.2-0.1,0-0.2,0-0.2c0.2,0,0.2,0.2,0.3,0.3c0.3,0,0.6,0,0.9,0
	c0.1,0.1,0.2,0.2,0.3,0.3c0.3,0,0.4-0.2,0.5-0.3c0.2-0.1,0.7,0.1,1.2,0.1s1-0.3,1.3,0c0.3-0.1,0.7-0.2,1-0.2c0.3,0,0.7,0.2,0.9,0
	c0.2-0.2-0.1,0.1-0.3,0c0-0.2-0.2-0.4-0.3-0.6c-0.2,0-0.1,0.2-0.3,0.2s-0.2-0.2-0.2-0.5c0-0.3-0.3,0-0.4,0.1c-0.1,0.1-0.4,0-0.7,0
	L50.3,66.5z M45.3,61h0.2H45.3z M48.7,65.5h-0.2C48.6,65.5,48.9,65.7,48.7,65.5L48.7,65.5z M51.4,65.5c0-0.2,0-0.3-0.2-0.3
	c-0.2,0,0,0.1,0,0.3H51.4L51.4,65.5z M46.6,65.2c0,0,0.1-0.2,0-0.2S46.5,65,46.6,65.2c-0.2,0-0.2,0-0.3,0.2c-0.1,0.2,0,0.2,0.2,0
	c0.2-0.2,0-0.2,0-0.3L46.6,65.2z M47.3,64.8c0-0.2,0-0.4-0.2-0.5c-0.2,0-0.2,0.3-0.2,0.5c0,0.3,0.1,0,0.2,0c0.1,0,0,0,0.1-0.2V64.8z
	 M46.8,64.3c0-0.2,0-0.3-0.2-0.2c-0.2,0,0,0.1,0,0.2H46.8L46.8,64.3z M47.8,63.5c0-0.1-0.1-0.3-0.3-0.3s-0.2,0,0,0.4
	S47.6,63.4,47.8,63.5L47.8,63.5z M47,63.9c0.1,0,0.2-0.8,0-0.9C46.8,63,47,63.7,47,63.9z M47,60.7c-0.4,0-0.3-0.4-0.7-0.4
	c-0.4,0,0.2,0.3,0.1,0.5c-0.3,0-0.2-0.6-0.5-0.7c-0.3-0.1,0,0.3,0,0.5s0.2,0.3,0.3,0.4c0.1,0.7,0.2,1.4,0.1,2.1
	c0.4,0,0.2-0.7,0.2-1.1c0-0.3-0.1-0.7-0.1-1h-0.3c0.2,0,0.2,0.5,0.4,0.3c0-0.1,0-0.4,0-0.7L47,60.7z M46,59.9v-0.2h0.1
	c0,0.1,0,0.2,0.2,0.2H46z M44.1,56.8V57h0.2v-0.2H44L44.1,56.8z M44.6,56.8c0,0.1,0,0.4,0.1,0.4C44.9,57.1,44.7,56.9,44.6,56.8z
	 M53.3,58L53.3,58l-0.2-0.1v0.2h0.2V58z M53.3,57.2v-0.2h-0.2v0.2h0.3H53.3z M52.3,56.1c0,0.2,0,0.5,0,0.5c0,0.1-0.2,0-0.4,0
	c-0.3,0.5-1.4,0-2,0.3c-0.5-0.1-1.1-0.1-1.6,0c0,0.2,0.1,0.7,0,0.7c0-0.3-0.2-0.2-0.1-0.5c-0.4,0.2-0.7,0-0.9,0
	c-0.2,0-0.2,0.4-0.4,0.6s0.4,0,0.5,0c0.1,0.2,0,0.5-0.1,0.6c-0.2,0-0.2,0-0.3-0.2c-0.1-0.2,0,0.7-0.2,0.7c-0.2-0.1-0.1-0.6-0.3-0.7
	v0.5c-0.4,0.3-0.6-0.2-0.5-0.7v-0.2c0.2,0,0.2-0.2,0.5,0c0-0.3,0-0.4,0.1-0.7c-0.3,0.1-0.5,0.1-0.8,0c0,0.2-0.1,0.6,0,0.7
	c0,0.1,0,0.4-0.2,0.4c0.1,0.1,0.2,0.3,0.1,0.5c-0.2,0,0,0.2-0.3,0.1s0-0.2-0.2,0c-0.2,0.2,0.4,0,0.5,0.3c0.1-0.3,0.8,0,1-0.3
	c0.5,0.1,1.1,0.2,1.6,0.3c0,0,0.2-0.1,0.3-0.2c0.9-0.1,1.8-0.1,2.7,0c0.1,0,0-0.2,0.3,0c0.3,0.2,0.9,0,1.3,0c0.2-0.4,0.2-0.9,0-1.4
	l0.3-0.4c0-0.4-0.3-0.5-0.4-0.8c-0.1-0.3,0.2-0.2,0.2-0.4s-0.1,0-0.2,0v-0.3H52c0,0.1,0,0.3,0.2,0.3L52.3,56.1z M40,36.9
	c-0.2,0-0.3,0-0.4,0.2c0.1,0,0.2,0.2,0.5,0c0-0.1,0-0.2,0-0.3L40,36.9z M37.6,35.6v0.2C37.6,35.7,37.7,35.7,37.6,35.6l-0.2,0
	L37.6,35.6z M40.6,39.6c0.3,0,0.2,0.6,0.5,0.7c0.2-0.3,0.6-0.4,0.9-0.3c0-0.7,1.2-0.4,0.7,0.3c0.2,0,0,0.3,0.3,0.3v0.2
	c0.2,0,0.2-0.3,0.2-0.4h0.2c0-0.3,0-0.4,0.1-0.6s-0.4-0.2-0.4,0c0.1,0.2,0.1,0.4,0,0.6c0,0,0,0.2-0.2,0.2h-0.1c0-0.3,0-0.6,0-1h0.3
	c0-0.2,0-0.4,0-0.7c0-0.3,0.3-0.2,0.2-0.5c-0.8,0.2-1.4,1.2-2.3,0.7c0-0.2,0-0.2,0-0.3c0-0.1-0.3,0-0.3,0s0.3,0,0.2,0.4
	s-0.2,0.4-0.6,0.3c-0.3-0.2,0-0.6-0.2-1c0.6-0.2,1.2-0.4,1.8-0.5c0.1-0.2,0.7-0.1,0.7-0.5c0-0.4-0.2,0.2-0.5,0.2
	c-0.2,0-1.3,0.2-1.8,0h0.2c-0.1,0-0.2,0-0.3,0c0,0,0-0.3-0.2-0.3s-0.8,0.2-0.9,0c-0.1-0.2-0.4,0-0.4,0c0-0.1,0-0.2,0-0.3
	c0.2,0,0.1-0.2,0.4-0.1c0.2,0.1-0.2-0.2-0.2-0.4c0.1,0,0-0.3,0.4-0.2c0.4,0.1,0,0,0,0s0.2,0,0.3,0s0,0.2,0.2,0.2
	c0.3,0.1,0.7,0.1,1,0c0-0.4-0.4-0.2-0.4-0.5c0,0,0.3,0.4,0.6-0.3c-0.2,0-0.5,0-0.7,0c-0.2,0,0,0,0,0s-0.3,0-0.3,0c0,0,0-0.3-0.2-0.2
	c0,0,0,0.2,0,0.4c0.9,0.2,0.8,0.3,0.8,0.3c-0.3,0.2-0.6,0-0.9,0c0-0.4-0.3-0.3-0.7-0.3s0,0.4,0,0.5c-0.2,0.2-0.6,0-0.8,0.3h-0.2
	c0,0-0.1-0.2-0.3-0.2c0,0.5,0.1,1,0.4,1.4c0,0.6,0.5,0.8,0.5,1.3c0.3,0.1,0.5,0.4,0.6,0.7C39.7,40.3,40.3,40.1,40.6,39.6L40.6,39.6z
	 M44.8,38.9c0,0.3,0,0.3,0,0.6C45.1,39.4,45.1,39,44.8,38.9z M45.4,39.7c0,0.2-0.2,0,0,0.3c0.2,0.3,0,0,0.3,0
	C45.9,40,45.6,39.8,45.4,39.7L45.4,39.7z M45,39.9h-0.1H45z M46.7,44.4c0-0.2,0-0.4-0.2-0.3C46.4,44.1,46.5,44.3,46.7,44.4z
	 M47,39.9c-0.1-0.6,0-1-0.3-1.4c-0.5,0.3,0,1.5-0.3,2l-0.3-0.2c-0.2-0.3,0-0.8-0.1-1.1c-0.2,0.4,0,1.1-0.4,1.5
	c-0.4,0-0.4,0.4-0.8,0.2c0,0.3-0.4,0.2-0.7,0.3c-0.3,0,0-0.4-0.1-0.3c-0.1,0.1-0.5,0.4-0.3,0.6c0-0.2,0.3-0.2,0.3,0
	s-0.3,0.5-0.5,0.8c-0.2,0.2,0,0.5,0,0.7c0,0.2-0.2,0.4-0.6,0.4c0,0.3-0.2,0.4-0.5,0.4c-0.2,0.8-0.9,1.1-1.8,1.2c0,0,0,0,0-0.2
	c-0.3,0-0.5,0-0.8,0.2c-0.3,0-0.6-0.3-0.6-0.7s0.2,0,0-0.2c-0.2-0.2-0.1,0-0.2,0c0-0.2,0.2,0,0-0.3s-0.5,0-0.5,0
	c0,0,0.2-0.9,0.2-0.9s-0.2-0.3-0.3-0.4c0.2-0.1,0.4-0.4,0.3-0.6c0.4-0.2,0.4-0.8,1.2-0.6c0-0.2,0.3-0.2,0.4-0.4
	c-0.8-0.4-1.1,0.3-1.6,0.7c0,0.3-0.1,0.6-0.4,0.9c0,0.6-0.4,0.9-0.6,1.3c-0.2,0.5,0.3,0.4,0.2,0.9c0.5,0.2,0.6,0.8,1,1.1
	c0.4,0.3,0.6,0.7,0.8,1.2c0.3,0.1,0.6,0.2,0.9,0.1c0-0.2,0.3-0.2,0.4-0.4c0.2,0,0.5,0,0.6,0.2c0,0.2,0,0.4,0,0.6
	c0.5,0,0.6-0.5,1.2-0.4c0.1-0.3,0.1-0.5,0.1-0.8c0.5-0.2,0.6-0.7,1.1-0.8c0-0.5,0.3-0.5,0.6-0.7c0-0.3,0-0.6,0-1h-0.1
	c0,0.7-0.6,1-1.1,1.2c-0.4,0.6-1,1.1-1.7,1.4c-0.3,0-0.6,0-0.7,0.2h0.2c-0.2-0.2,0-0.4,0.1-0.5c0.7-0.2,0.9-1,1.5-1.3
	c0-0.2,0.2-0.3,0.3-0.5c0.1,0,0.2,0,0.3,0c0.2-0.3,0.5-0.6,0.8-0.8c0.1-0.4,0.2-0.7,0.5-0.9c0-0.4,0.1-0.7,0.3-1
	c0.1-0.1,0.5,0,0.6-0.2c0,0.2,0.2,0,0.4,0c0.1,0,0.6-0.2,0.9-0.2s0.4-0.4,0.4-0.7s0-0.2-0.2-0.2L47,39.9z M43,41.2
	c0,0.3-0.3,0.4-0.4,0.7c0.4,0,0.3-0.5,0.6-0.4v-0.3L43,41.2L43,41.2z M41.8,41.8c0.3,0,0.3-0.2,0.3-0.3c-0.1,0-0.2,0-0.3,0V41.8
	L41.8,41.8z M41.8,42.1c0,0.8-1,0.7-1.3,1.2c0,0,0,0,0,0.2c0.6,0,0.6-0.7,1-0.8h0.6c0-0.4,0.3-0.6,0.1-0.7S42,42.2,41.8,42.1
	L41.8,42.1z M40.1,42.9c0.3,0,0.4,0,0.4-0.3C40.6,42.3,40.1,42.6,40.1,42.9z M51.9,48.7c0-0.4-0.3-0.7-0.4-0.7c-0.1,0,0.1,0,0,0.3
	C51.3,48.6,51.5,48.7,51.9,48.7L51.9,48.7z M53.2,40.3c0-0.1,0-0.2,0-0.2h-0.3C52.9,40.3,53.1,40.3,53.2,40.3L53.2,40.3z M56.3,33.8
	c-0.1,0-0.2,0-0.3,0H56.3L56.3,33.8z M54.4,38.4c0.1,0,0.5-0.1,0.5,0c0,0.1,0.1,0,0.2,0v-0.2c0-0.2-0.3,0-0.5-0.2
	c-0.2-0.2-0.3-0.4-0.3,0C54.2,38.2,54.4,38.2,54.4,38.4L54.4,38.4z M48.6,41.2c0.1,0.5,1.6,0.5,1.8,0c-0.6,0-1.2-0.1-1.7-0.2
	L48.6,41.2z M41.9,50.4h-0.3c0,0.3,0,0.6,0.3,0.6c0-0.2,0-0.2,0-0.4L41.9,50.4z M39.2,43.8c-0.2,0-0.2,0-0.3,0.2
	c-0.1,0.2,0.4,0.2,0.3,0L39.2,43.8z M48.1,58.6c0,0,0.2-0.6,0-0.5C47.9,58.1,48.1,58.4,48.1,58.6c0,0.2,0.1,0,0.2,0H48.1z
	 M34.6,12.6c-0.2,0-0.2,0-0.5,0c-0.2,0,0-0.3,0-0.2s0,0.5,0,0.7c0,0.2-0.2,0-0.3,0c-0.1,0-0.2,0.2-0.2,0.5c0.4,0,0.3,0.5,0.5,0.7
	s0.4,0,0.4-0.3c-0.1,0,0-0.2,0-0.3c0,0.3,0,0.4,0,0.4c0.2,0.3,0.8,0.2,0.9,0.6c0.1,0.3,0.1-0.2,0.4,0c0.2,0.2,0,0.2,0,0.3
	c0.4,0,0.6-0.3,0.4-0.5h0.3c0.1,0.4,0.1,0.9,0,1.3c0.1,0,0.4,0.4,0.6,0c0.2,0.3,0.9,0.6,0.9,0c0.8-0.1,1.6-0.1,2.4,0
	c0.3,0.4,1.1,0.3,1.4,0.7h0.4c-0.3-0.6-1.2-0.6-1.7-1c-0.2,0-0.3,0-0.3,0s-0.2-0.2-0.3-0.4c0-0.2-0.6,0-0.8-0.3
	c-0.4-0.1-0.8-0.2-1.2-0.5l0,0c0,0-0.3,0-0.4,0s-0.5-0.5-1-0.4c-0.4-0.3-0.8-0.5-1.2-0.6c0-0.6,0.9-0.4,1.2-0.8
	c-0.6-0.3-1,0.2-1.7,0c0,0,0,0.2-0.1,0.2c-0.1,0,0-0.2-0.2-0.3L34.6,12.6z M36.1,14.6c-0.4,0-0.5-0.3-0.7,0.2
	c0.2,0.2,0.6,0.2,0.8,0.4c0.2,0.2-0.2,0-0.2,0.3c0.2,0,0.3,0,0.5,0l-0.1-0.4c0,0-0.3-0.1-0.3-0.4V14.6z M62.4,22.7
	c-0.2,0-0.1,0.2-0.3,0.2c0,0.1,0.1,0.2,0.1,0.3c0.2,0,0.3-0.2,0.3-0.5C62.6,22.4,62.6,22.7,62.4,22.7L62.4,22.7z M61,26.2v0.2h0.2
	v-0.2H61z M55.9,31.7c0.2,0,0.2-0.2,0.5-0.2c0.3,0.1,0.3-0.2,0.4-0.3l0.3-0.3c0,0,0.2,0,0.3-0.2c0.2-0.2,0.4-0.4,0.6-0.6
	c0.2-0.2,0.4-0.3,0.6-0.4c0-0.2,0-0.4,0-0.6c-0.3-0.1-0.6-0.1-0.9,0c0,0.4-0.5,0.4-0.7,0.6c-0.2,0.2,0-0.2-0.2,0s-0.7,0-1,0
	c0,0.4,0.3,0.4,0.4,0.7H57c0-0.1,0-0.2,0-0.3h0.3c0,0.3-0.1,0.3-0.3,0.3c-0.1,0.3-0.4,0.4-0.7,0.5C56.3,31.3,55.9,31.3,55.9,31.7
	L55.9,31.7z M55.2,31.9c0,0.5-0.4,0.4-0.5,0.8c-0.1,0.3-0.3-0.1-0.6-0.1s-0.3,0.2-0.3,0.5c0,0.3-1,0-1.2,0.5c-0.3,0-0.4,0-0.7,0
	v-0.3c0.3,0,0.6-0.1,0.8-0.4c-0.3,0-0.2-0.2-0.4-0.2c-0.1-0.6,0.4-0.4,0.6-0.6c0.2-0.2-0.2-0.3-0.4-0.3c0-0.4-0.5-0.5-0.4-1
	c0,0,0,0-0.1,0c-0.1,0,0-0.4,0-0.4c0,0.1,0,0.1,0,0.2s0-0.1,0-0.2h-0.2c0.2-0.6-0.3-0.9-0.4-1.4c-0.1-0.5,0.2-0.5,0-0.8
	c0.4,0.2,0.4,0.7,0.9,0.8c0,0.3,0,0.5,0,0.9s-0.2,0-0.2,0.2c0,0.2,0.8-0.3,1.2,0c0.3,0.3,0.3,0.5,0.3,0.9c0.2,0,0,0.2,0.3,0.1
	c-0.2-0.5,0-0.9,0-1.5c-0.2,0-0.1-0.4-0.1-0.7c0-0.3-0.4-0.8-0.7-1.1c0-0.2,0-0.2,0-0.3c-0.3-0.2-0.4-0.5-0.4-0.8
	c0.2,0,0.2,0.2,0.4,0.2c0.3,0.6,0.7,1.1,1.3,1.5c0,0.2,0,0.2,0,0.4s0.4,0.5,0.8,0.5c0,0.3,0.2,0.2,0.2,0.5c-0.3,0.2-0.6-0.2-0.8-0.3
	c0,0.8,0.2,1.8,0,2.5c0,0,0.2,0.1,0.3,0.1L55.2,31.9z M53.4,31.6c0,0.2,0.2,0.2,0.3,0C53.8,31.4,53.5,31.6,53.4,31.6z M56,32.5
	c0,0,0,0.2,0,0.2c0,0,0.2,0.2,0.5,0.2c0.3-0.1,0-0.2,0-0.2c0,0-0.2-0.2-0.2-0.3s0,0.2-0.3,0V32.5z M56,33.4c-0.2,0-0.3,0-0.3,0
	c0,0,0.2,0,0,0.2c-0.2,0.2,0-0.2,0.2,0v-0.2H56z M55.6,32.5c0.2,0,0.4-0.4,0.1-0.4c-0.3-0.1-0.2,0.2-0.3,0.2S55.5,32.3,55.6,32.5z
	 M55.2,32.8c0,0.2-0.4,0.2-0.4,0.4c0.2,0,0.3,0,0.5,0c0.2,0,0-0.2,0-0.2s-0.2-0.2-0.3-0.3L55.2,32.8z M54.3,33.3
	c0,0.2,0.3,0.2,0.3,0C54.5,33.2,54.4,33.2,54.3,33.3L54.3,33.3z M55,32.4c-0.7,0-0.9,0.4-1.3,0.6c0,0.2,0.3,0.2,0.5,0.2
	C54.3,32.8,54.9,32.9,55,32.4z M53.4,17.9c0,0.2,0.6,0.2,0.7,0c0.1-0.2-0.2-0.2-0.2-0.3c-0.2,0-0.3,0.1-0.4,0.2V17.9z M52.5,33.4
	c-0.4,0.2-1,0-1.1,0.5c0.7,0.2,1.2-0.3,1.9-0.3c0-0.3,0-0.3,0-0.5c-0.2-0.1-0.4-0.1-0.7,0L52.5,33.4L52.5,33.4z M50.2,27.2
	c0.3-0.7-0.2-1.4-0.4-1.8c0,0,0,0.2-0.2,0v0.2c0,0.2,0.2,0,0.2,0.2c0,0.2,0,0.1,0,0.2s-0.2-0.3-0.4-0.3c-0.2,0-0.3,0.5-0.2,0.9
	s0,0.3,0.1,0.4c0.1,0.2-0.2,1,0,1.2c0.2,0.2-0.2,0-0.1,0.4c0.4,0.9-0.3,1.6,0,2.5c0.2,0,0,0.2,0,0.3s0.3,0.3,0.5,0.5
	s0.4-0.5,0.6-0.7c0.2-0.2-0.1-0.8,0.1-1c0.1,0.5,0.3,1.8-0.2,2.1c0.1,0.2,0.4,0.3,0.6,0.3c0,0.2,0,0.4,0,0.6c0.2,0,0.2,0.2,0.5,0.1
	c0.3-0.1,0-0.5-0.1-0.6c0.2-0.2,0.3-0.5,0.2-0.7c0.4,0.2,0.6-0.2,1.2,0c0-0.4-0.2-0.5-0.3-0.8c-0.1-0.2-0.3,0-0.5,0
	c-0.1-0.3-0.4-0.5-0.6-0.6c0-0.4,0-0.8-0.2-0.9c0.1-0.3,0-0.6-0.2-0.8c-0.2,0-0.4,0-0.5,0.3c0,0.3-0.3,0-0.3,0c0,0,0.3-0.4,0.2-0.6
	c-0.1-0.2,0.2,0.2,0.5,0.1c0.2-0.5,0-0.7,0-1.2c-0.2,0-0.2,0-0.4,0c0,0.2,0,0.5,0,0.7c-0.2-0.4-0.2-0.8-0.2-1.3
	c0.2,0.2,0.2,0.5,0.6,0.4c0.3-0.2,0-0.3-0.1-0.3L50.2,27.2z M51.7,33.2h-0.2v0.2h0.1C51.7,33.3,51.7,33.3,51.7,33.2L51.7,33.2z
	 M50.7,33.5c0,0.2,0.2,0,0.3,0.1v-0.2c-0.1,0-0.3,0-0.3,0V33.5z M46.1,33.9c0.2,0,0.5,0,0.5,0s0-0.2,0.2-0.2c0.3,0.4,0.9,0,1.2,0.2
	s0.6-0.2,0.7,0c0.2,0.2,0.2-0.3,0.4-0.3c0.2-0.1,0.9,0.4,1.1,0c0.2-0.4-0.1,0,0-0.3c0.1-0.3,0.3-0.4,0.1-0.7
	c-0.1-0.3-0.4-0.4-0.9-0.4c0,0.5-0.3,0.5-0.4,0.8c-0.8,0.1-1.5,0.1-2.3,0c-0.3-0.3-0.7-0.4-0.8-0.8c-0.1-0.4-0.2,0-0.3,0
	s0,0.4,0,0.7c0,0.3-0.8-0.2-1,0c0.2,0.3,1,0.5,1.3,0.2c0.3-0.3,0,0,0,0.2L46.1,33.9z M50.3,17.6c0,0,0.1,0,0.2,0.2
	c0.4-0.3,0.2-0.9,0.1-1.4h-0.2c-0.2,0.2,0,0.8,0.1,0.9C50.7,17.5,50.4,17.4,50.3,17.6L50.3,17.6z M48.8,15.6
	c0.4,0.2,0.8,0.5,1.1,0.9h0.5c0-0.1,0-0.2,0-0.3c-0.7-0.2-0.7-1-1.6-0.9c0,0.2,0,0.3,0,0.5V15.6z M49,31.2c0,0,0,0,0.2,0
	C49.3,31.2,49.1,31.2,49,31.2z M46.6,27.7c0,0.5,0,1.2-0.4,1.2c0-0.6,0-1.3,0.2-1.6c0-0.5,0-0.9,0.2-1.4c0,0,0-0.4,0.2-0.4
	s0,0.6,0.3,0.7c0.3,0.2,0-0.5,0.3-0.6c0.3-0.1,0.2,0.4,0.2,0.7c0,0.3,0.2,0.2,0.4,0.3c0,0.2,0,0.4-0.2,0.6c-0.5,0-0.1,0.7-0.5,0.7
	c-0.3,0.1,0,0.3,0.2,0.4c0.2,0.1,0-0.9,0.3-1c0.3,0.3,0,0.9,0,1.4s0.2,0.3,0.1,0.5c0.2,0.1,0.4,0.3,0.4,0.5c0.7,0,0.4,1,0.4,1.7
	c-0.3,0-0.1,0.3-0.4,0.2c0-0.1,0-0.2-0.1-0.3c-0.1-0.1,0,0.2-0.1,0.3h0.2c-0.1,0.5-0.6,0.5-1.2,0.5c-0.2-0.5,0.1-0.7,0-1.2h-0.4
	c0.1-0.8,0-1.6,0-2.3c0-0.1,0.1-0.3,0.2-0.4c0-0.2,0-0.3,0-0.4s0.4-0.6,0-0.9c-0.1,0.3-0.3,0.6-0.3,0.9L46.6,27.7z M47.7,30.6
	c0-0.2-0.3-0.2-0.3,0H47.7z M48.4,35.3c0-0.2-0.5-0.3-0.7,0c-0.1,0.3,0.4,0.2,0.6,0.2C48.6,35.5,48.4,35.3,48.4,35.3L48.4,35.3z
	 M47.7,34.8c0,0.4,0.6,0,0.7,0s0,0,0-0.2S47.8,34.6,47.7,34.8L47.7,34.8z M47.5,34.7c0-0.3-0.9-0.2-1.3-0.2
	C46.2,35.1,47.3,34.9,47.5,34.7L47.5,34.7z M48.6,19.1c0-0.3-0.5,0-0.5,0.2S48.4,19.1,48.6,19.1z M47.5,35.3c0,0,0,0,0-0.2
	S47.5,35.3,47.5,35.3z M46.1,30c0,0,0,0,0-0.2c0,0-0.1,0,0-0.2c0.1-0.2-0.1,0.2-0.2,0.3c0,0.1,0,0,0,0L46.1,30z M45.3,31.5v0.1
	c0.1,0,0.2,0.2,0.4,0.1c0-0.5,0.3-0.6,0.1-1c-0.3,0.1-0.5,0.4-0.5,0.7L45.3,31.5z M45.8,30c0,0.2,0,0.4,0,0.6
	C45.8,30.6,45.9,30,45.8,30L45.8,30z M45,31.9c0.2,0,0.1-0.3,0.2-0.4h-0.2L45,31.9l0.2,0L45,31.9z M45.6,11.7c0-0.3,0-0.5-0.3-0.5
	S45.2,11.8,45.6,11.7z M43.5,33.8v-0.2h-0.2v0.2L43.5,33.8L43.5,33.8z M42.7,33.3h-0.3v0.4h0.3C42.6,33.6,42.6,33.5,42.7,33.3
	L42.7,33.3z M42.6,7.6c0-0.2,0-0.4-0.3-0.3C42.3,7.4,42.4,7.5,42.6,7.6z M40.6,33.4c0.2,0.1,0.5,0,0.4-0.3h-0.4V33.4L40.6,33.4z
	 M39.6,23.5c0.1,0.1,0.2,0.1,0.3,0c0.1-0.1,0.1-0.2,0.1-0.3c-0.1,0-0.2,0-0.3,0.1S39.6,23.4,39.6,23.5z M38.6,31.5h0.2
	c0-0.2-0.2-0.2-0.4-0.2s-0.2,0,0,0.2L38.6,31.5z M37.5,31.2v0.2c0.4,0.2,0.6,0.5,1.1,0.6v-0.4c-0.4,0-0.5-0.4-0.9-0.6L37.5,31.2z
	 M37.3,29.7c0,0.5,0.3,0.5,0.6,0.7C38,30,37.6,29.6,37.3,29.7z M37.7,12.6c0.2,0,0.1,0.5,0.5,0.4c0-0.2,0-0.5-0.1-0.7
	C37.9,12.3,37.9,12.5,37.7,12.6z M36.4,25.5c0.1,0,0.2,0,0.3-0.3c0-0.3-0.3,0-0.3,0S36.4,25.4,36.4,25.5z M33.7,25.8
	c-0.1,0.5,0.1,1.1,0.6,1.4l0,0c-0.2-0.4-0.4-0.9-0.6-1.3L33.7,25.8z M30.8,11.7c0,0.2,0,0.3,0,0.5h0.3
	C31.1,11.8,31.1,11.7,30.8,11.7L30.8,11.7z M30,11.3c0,0.2,0,0.6,0.2,0.7c0.2,0.1,0.3-1,0.4-1.5c-0.1,0-0.3,0-0.4,0
	C30.2,10.8,30.2,11.2,30,11.3L30,11.3z M28.9,9.2v0.1H29V9.2L28.9,9.2z M24.6,28.4c0-0.2,0-0.3-0.3-0.3c-0.3,0,0,0.2,0,0.3H24.6
	L24.6,28.4z M23.4,16.8c-0.2,0.5,0.3,0.8,0.3,1.3h0.1c0-0.6-0.3-0.8-0.3-1.3h-0.3L23.4,16.8z M21.3,8c0.5,0.2,0.8-0.5,1.3-0.5
	c0.1-0.4,0.5-0.5,0.5-0.9H23C22.3,6.9,21.8,7.4,21.3,8L21.3,8z M22.2,8.8c0,0.1,0,0.2,0,0.2c0.1,0.1,0.1,0.1,0.2,0.1V8.7L22.2,8.8
	L22.2,8.8z M21.9,9.4v0.2V9.4z M20.5,11.9c-0.4,0-0.4-0.4-0.8-0.4c0.2,0.4,0.2,0.8,0.8,0.8C20.4,12.1,20.4,12,20.5,11.9L20.5,11.9z
	 M18.3,15.8c-0.6-0.1-1.2-0.4-1.6-0.9c-0.4,0-0.8,0.2-1.1,0.4c0,0.1,0,0.2,0,0.3c0.3,0.1,0.6,0.2,0.8,0.3c0,0.3-0.3,0-0.3,0.2
	c0.3,0.2,0.6,0.4,1,0.4c0.3,0.2,0.7,0.2,1.1,0.2c0-0.1,0.2,0,0.2-0.2H19c0,0.2,0.3,0.2,0.2,0.4h0.2l0,0c0,0,0.5,0,0.6-0.2v-0.2
	c-0.2,0-0.5,0-0.5-0.4C19.1,16.2,18.6,16.1,18.3,15.8L18.3,15.8z M18.7,17.6c0,0.2,0.3,0.2,0.5,0.2s0.2-0.5,0.2-0.8
	c-0.3,0-0.6,0.1-0.8,0.3c0,0.2,0.2,0.2,0.3,0.2L18.7,17.6z M16.7,8.9c-0.1,0.2-0.1,0.3,0,0.5c0.7,0.2,1.4,0.2,2,0c0.2,0,0,0.2,0.3,0
	c0.3-0.2,0.1-0.2,0-0.5c-0.4,0-1-0.2-1.3,0c-0.3-0.2-0.7-0.2-1-0.2V8.9z M17.7,24.6c0,0,0,0.2,0,0.2h0.2l0,0L17.7,24.6z M17.9,25.8
	c0-0.2-0.3,0-0.4-0.2c0,0.3,0.4,0.2,0.5,0L17.9,25.8z M17.2,25.3c0,0.2,0,0.2,0.2,0.2C17.4,25.4,17.2,25.4,17.2,25.3L17.2,25.3z
	 M17.8,14.2c-0.2,0,0,0.2-0.3,0c-0.3-0.2,0.1,0,0.1,0.2c0,0.2,0.3,0,0.3,0S17.8,14.3,17.8,14.2L17.8,14.2z M17,21c0,0,0,0.2,0,0.4
	s0.3,0,0.5,0C17.4,21.1,17.2,21,17,21z M16.6,10.9c-0.2,0-0.2,0.4-0.6,0.3c0,0.4,0,0.8,0,1.3c-0.2,0-0.4,0-0.5,0.4
	c0,0.4,0.4,0.3,0.6,0.4c0.2,0.1,0.1,0.3,0.3,0.4s-0.2-0.5,0-0.8c0.2-0.3,0.2,0,0.3,0c0-0.4-0.2-0.5-0.3-0.8
	c-0.1-0.3,0.7-0.7,0.3-1.1L16.6,10.9z M15.6,10.6c0.2,0,0.5-0.3,0.3-0.6C15.7,9.7,15.6,10.3,15.6,10.6z M15.4,10.8c0,0,0,0.2,0,0.2
	s0.3,0,0.2-0.2h-0.4L15.4,10.8z M15,11.5c-0.1,0-0.2,0.2-0.2,0.4c0.1,0,0.2,0,0.2,0v-0.6V11.5z M13.9,15.2c0,0.4-0.3,0.3-0.2,0.7
	c0.4,0,0.5,0.3,0.9,0.2c0-0.1,0-0.4,0-0.3C14.6,15.5,14.4,15.1,13.9,15.2z M12.1,16c0.1-0.1,0.2-0.1,0.3-0.2c0-0.2,0-0.2,0-0.5
	C12.5,15.2,12.1,15.7,12.1,16z M10,17.6c-0.1-0.1-0.3-0.1-0.5,0c0,0,0.2,0.3,0.2,0.4s0.3-0.2,0.3-0.5V17.6z M3.7,17.5
	c0.2,0,0.2,0,0.4,0c0.1-0.1,0.1-0.2,0-0.3C4.1,17.3,3.8,17.3,3.7,17.5L3.7,17.5z M18,24.2c0-0.2,0-0.2,0-0.4h-0.3
	C17.7,24,17.7,24.2,18,24.2z M18.6,23.8c0.2,0,0.1-0.2,0.1-0.3h-0.3C18.4,23.6,18.4,23.7,18.6,23.8L18.6,23.8z M19.6,23.5
	c0-0.1,0-0.2,0-0.2h-0.2C19.4,23.3,19.4,23.6,19.6,23.5L19.6,23.5z M19.9,25.2L19.9,25.2L19.9,25.2z M31.7,25.6c0,0.2,0,0.2,0,0.2
	S31.7,25.9,31.7,25.6L31.7,25.6L31.7,25.6z M43.3,26.3v0.2h0.1v-0.2H43.3z M43.2,26.9c0,0.3-0.3,0.4-0.2,0.8
	c0.2-0.2,0.3-0.5,0.5-0.6C43.7,27,43.3,26.9,43.2,26.9z M57.2,26.5v-0.2H57v0.2L57.2,26.5L57.2,26.5z M61.4,24.4c0,0,0,0.1,0,0.2
	h0.1v-0.2H61.4z M38.2,32.5v-0.2H38C38,32.6,38,32.6,38.2,32.5L38.2,32.5z M39.6,33.5c0,0.3,0.2,0.3,0.4,0.3
	C40.2,33.7,39.9,33.5,39.6,33.5z M48.6,36.2c0-0.2-0.2-0.2-0.2,0H48.6z M50.2,36.2V36H50v0.2L50.2,36.2L50.2,36.2z M57.5,32.7
	c0,0,0-0.2,0.2,0c0,0,0-0.1,0-0.2h-0.3c0,0.2,0.1,0,0,0.3L57.5,32.7z M58.4,32L58.4,32c0,0-0.4,0-0.8,0c-0.3,0,0,0,0,0.3
	c0,0.3,0.3,0.2,0.7,0.2s0-0.3,0.2-0.3L58.4,32z M59.5,31.2c0.2,0,0.1,0,0.2,0C59.7,31.2,59.4,31.2,59.5,31.2z M60.3,30.5
	c0-0.1,0-0.2,0-0.2c-0.2,0-0.5,0-0.5,0.4S60,30.4,60.3,30.5L60.3,30.5z M62,26.7c-0.1,0-0.3,0.1-0.3,0.3C61.8,27.2,62,26.8,62,26.7z
	 M62,28.4c0-0.2,0.2-0.4,0-0.5C61.9,27.7,61.8,28.4,62,28.4z M62.6,27.4c0-0.3,0.2-0.3,0.2-0.6c0-0.3-0.4,0.3-0.4,0.6H62.6z
	 M19.4,14.7c0-0.2-0.2-0.5-0.6-0.4c-0.4,0.1,0.3,0.2,0.4,0.4C19.2,14.8,19.2,14.6,19.4,14.7L19.4,14.7z M27.1,13.1v-0.2h-0.4
	c0,0.2,0,0.3,0.2,0.3L27.1,13.1z M33,19c0-0.5,0-0.6,0-1c-0.5,0-1,0.3-0.8,0.8C32.5,18.8,32.5,19,33,19L33,19z M33.6,18
	c0,0.8,0,1.6,0.8,1.6c0,0.2,0,0.4,0,0.6c0.5,0,0.7,0.5,0.9,0.8h0.4l0,0c0.2,0,0.3,0,0.5,0c0.4-0.2,1.2,0,1.6-0.4
	c-0.1-0.6-0.9,0.3-1.2-0.3c-0.3,0-0.3,0.2-0.6,0c0,0.2-0.2,0.2-0.2,0.3c-0.2-0.1-0.4-0.2-0.6-0.2c0-0.3,0-0.6,0-0.9
	c0.2,0,0.4,0.3,0.7,0.3c0.3,0,0.3-0.3,0.4-0.3c-0.1-0.3-0.4-0.5-0.7-0.4c0,0.1-0.1,0.2-0.2,0.3c-0.1,0,0-0.4-0.2-0.5
	c-0.2-0.1,0.2-0.4,0.3-0.6c0-0.2-0.1-0.3-0.2-0.5c0,0-0.1,0-0.2,0c0,0,0-0.2,0-0.3s0,0,0-0.2V17c0.1-0.2,0.3-0.3,0.4-0.6
	s0.6,0,0.8-0.3c0.2-0.3,0.9,0,1,0.2c0.2,0.2,0.4,0,0.5,0c0,0-0.2-0.2-0.1-0.4c-0.5-0.1-1-0.2-1.4-0.5c-0.2,0-0.4,0-0.5,0
	c-0.2-0.1-0.4-0.1-0.5,0c-0.1-0.2,0-0.5,0-0.8c0-0.3-0.4-0.3-0.3-0.7c0-0.4-0.3-0.5-0.5-0.7c-0.2,0.3-0.4,0.7-0.4,1.1
	c-0.2,0-0.2,0.5-0.2,0.8c0,0.3-0.2,0,0,0.3c0.4-0.2,0.9-0.3,1.3-0.3c0,0.4-0.5,0.4-0.9,0.5c-0.1,0.1-0.2,0.3-0.3,0.3v0.2
	c-0.4,0.2-0.4,0.8-0.4,1.4c0,0,0,0.2,0.1,0.2s0,0-0.2,0H33.6z M39.9,12.6C39.9,12.6,39.8,12.6,39.9,12.6c-0.4,0.2-0.8,0.2-1.1,0
	c-0.2,0-0.4-0.4-0.8-0.4s0,0,0,0s-0.8-0.2-1,0c-0.2,0.2-0.9,0-1.2,0.3c-0.3,0.3,0,0.3-0.2,0.3c0.2,0.5,1.2,0.2,1.6,0
	s0.4,0.5,0.9,0.5c0,0.2,0.1,0.5,0.2,0.7c0.6,0,0.7,0.5,1.4,0.4c0.2,0.2,0.3,0.4,0.8,0.4c0.2,0.1,0.4,0.2,0.6,0.2
	c0-0.2,0.2-0.2,0.2-0.3c0.2,0.1,0.3,0.1,0.5,0.2c0.1,0.1,0.1,0.3,0,0.5c0.2,0,0.6,0.2,0.7,0.4c-0.4,0.8-1.5-0.2-2,0.3h-0.2
	c0,0,0.1,0.3,0.2,0c0.2,0.3,0.9,0.2,1.1,0.5c0.6,0,1,0.4,1.6,0.3c0-0.2,0-0.4,0.2-0.5c-0.4-0.1-0.2-0.7-0.1-0.9s-0.3-0.3-0.4-0.3
	c-0.3-0.3-0.7-0.5-1.1-0.7c0,0-0.3-0.2-0.3-0.4c-0.3,0-0.5-0.2-0.6-0.4C40.1,13.5,39.8,13.2,39.9,12.6L39.9,12.6z M41.2,10.1
	c0,0.3,0,0.6,0,1c-0.3,0.3-0.4,0.8-0.4,1.2c0.7,0,0.8,0.6,0.7,1.2c0.2,0,0.4,0.1,0.6,0.3c0.3-0.1,0.6-0.1,0.9,0
	c0.2-0.2,0.3-0.5,0.3-0.9c0.5,0,0.7,0.4,1.1,0.2c0,0,0-0.1,0-0.2c-0.4-0.4-0.3-1.1-0.9-1.2c-0.2-0.5-0.5-0.9-0.9-1.2
	c-0.3,0.2-0.7,0-1.1,0C41.4,10.4,41.2,10.4,41.2,10.1L41.2,10.1z M43.4,17h-0.2v0.2h0.2V17L43.4,17z M40.8,15c0,0.2,0.2,0,0.3,0
	c0-0.1,0-0.1,0-0.2h-0.3L40.8,15z M39.5,16.2c0-0.2,0-0.2,0-0.3h-0.3v0.5c0.1,0.1,0.3,0.1,0.4,0L39.5,16.2z M37.8,14.1
	c0-0.2,0-0.2-0.2-0.2v0.2L37.8,14.1L37.8,14.1z M37,11.5c0-0.7-0.4-1-0.7-1.4c-0.4,0-0.6,0.5-0.8,0.8l-0.2,0.3c0,0-0.1,0.4-0.3,0.5
	c0.2,0.1,0.4,0.1,0.6,0v-0.1c0,0,0.4,0,0.4-0.2C36.4,11.6,36.7,11.6,37,11.5z M35.1,23.6c0-0.2,0-0.2,0-0.4s0.3-0.4,0.3-0.8
	c0.2-0.2,0.3-0.5,0.3-0.7c-0.5,0.1-1.1,0-1.1-0.5c-0.1,0.2-0.4,0-0.5,0c-0.1,1.1,0.2,2.2,0.8,3.2c0.2,0,0-0.3,0.1-0.4
	C35,23.9,35.1,23.7,35.1,23.6L35.1,23.6z M40.2,28.1c-0.1,0,0,0-0.2-0.2h-1c0-0.2,0-0.5-0.3-0.6c0-0.6,0.4-1.2,0.9-1.4
	c0-0.4,0.2-0.4,0.3-0.6c-0.4,0-0.6,0.4-0.9,0.4c-0.2,0.5-0.7,0.6-1.1,0.9c-0.1,0.4-0.3,0.7-0.5,1c0,0.2,0,0.4,0,0.5
	c0,0.1,0.2,0.8,0.5,1.2s0.4,0,0.6,0c0.1,0,1,0.2,0.8,0.8c0.2,0,0.4-0.3,0.7,0c0.2,0.3-0.2,0.2-0.1,0.5s0.3,0.2,0.4,0.2
	c0.2,0.1,0.4,0,0.5-0.2c0.1-0.2,0,0,0-0.1c0.2-0.1,0.4-0.3,0.3-0.5c-0.3-0.1-0.7-0.2-1-0.4C40.2,29.1,40.2,28.6,40.2,28.1L40.2,28.1
	z M43.6,21.9c-0.1-0.7,0.3-0.7,0.7-0.9c0-0.3-0.3,0-0.5,0c-0.2,0,0-0.4,0-0.3c-0.5,0.3-0.9-0.3-1.7,0c0,0.2-0.2,0-0.2,0.3
	c-0.8,0-1.3,0.3-2,0c-0.2,0.1-0.2,0.4-0.6,0.3s0-0.5-0.4-0.5c0.2-0.4,0.8-0.3,1.1-0.5s0.5,0,0.6-0.2c0.4,0,0.8-0.1,1.1-0.3
	c0.3,0,0.6,0,0.8,0s0.4-0.2,0.6-0.2c0.2-0.1,0-0.2,0-0.4s0.6,0,0.7-0.4h-0.4c0,0,0.2,0,0.2-0.1c0-0.1,0-0.2-0.2-0.3v-0.7
	c-0.4-0.1-0.7-0.4-0.7-0.8c-0.7,0.1-2,0.5-2.6,0c-0.6-0.5-1.8,0.4-2.2-0.3c-0.1,0.2-0.3,0.3-0.5,0.4c-0.1,0,0,0.2,0,0.3
	s-0.2,0.3-0.2,0.6c0.7,0,1.2,0,1.9,0c0.2,0,0.2,0.4,0.3,0.7C39.3,18.9,39.2,19,39,19c0,0.4-0.4,1.2,0,1.5c-0.2,0.2-0.2,0.4-0.1,0.6
	c-0.2-0.1-0.4-0.2-0.5-0.3c-0.2,0,0,0.2-0.3,0.2c-0.3-0.1,0.2,0,0,0.3c-0.2,0.3-1.1,0.2-1.7,0.4c-0.5,0.2-0.7,0.7-0.7,1.4
	c-0.3,0.2-0.2,0.8-0.2,1.2c0.7,0,0.5-0.7,1-0.8c0.5-0.1,0.4,0.3,0.7,0.3v-0.6c0-0.2,0.3,0,0.2-0.2h0.8c0.6-0.2,1.1-0.6,1.5-1
	c0.2,0,0.5,0,0.7,0c0.1-0.4,0.8-0.2,1.1-0.4c0.2,0.4-0.4,0.8-0.9,0.8c0,0.3-0.4,0.3-0.4,0.6c-0.6,0-0.8,0.3-1.3,0.3
	c0,0.2,0,0.2,0,0.3c-0.2,0-0.3,0-0.5,0c-0.4,0.3-0.6,0.8-1.3,0.7c0,0.2-0.2,0.2-0.2,0.3h-0.4c-0.2,0.2-0.3,0.5-0.2,0.8
	c0.8,0.2,1-0.5,1.7-0.3c0-0.2,0.3,0,0.3-0.3c0-0.3-0.3-0.3-0.7-0.3c0.2-0.4,0.6-0.5,1-0.6c0,0-0.1,0,0,0.3h0.4
	c0-0.3,0.2-0.4,0.5-0.3c0,0.1,0.3,0,0.4,0c0.1,0-0.1-0.2-0.2-0.2c0-0.4,0.7-0.3,0.9-0.5s0-0.3-0.1-0.4s0.2-0.2,0.4-0.3
	c0.1-0.1,0.3,0.2,0.4,0.4c0.1-0.2,0.5-0.2,0.8-0.2c0.3-0.8,1-1,1.7-1.3L43.6,21.9z M44.8,20.2c0,0,0-0.2,0.1-0.2
	c0-0.1-0.2-0.2-0.3-0.2s-0.3,0.1-0.3,0.2c0.2,0,0.3,0,0.5,0V20.2z M44.6,15.9c0,0-0.3,0.4,0,0.3C44.6,16.1,44.6,16,44.6,15.9z
	 M45.6,19.5c0-0.3-0.2-0.3-0.1-0.7c0.1-0.4-0.2,0-0.3,0.2S45.4,19.4,45.6,19.5z M46.3,20.4c0,0.2,0.1,0.3,0.3,0.3
	S46.4,20.5,46.3,20.4z M51.1,18.1c0.4-0.4,0.1-0.7,0.2-1.2c-0.5,0-0.6-0.6-0.6-1.1c-0.2,0-0.2,0.2-0.4,0s-0.2-0.2-0.1-0.5
	c-0.3-0.5-1.2-0.4-1.6-0.8s-0.2,0-0.3,0s-0.7,0-1.1,0c-0.4,0-0.4,0.2-0.6,0.3c-0.2,0.1,0,0,0,0s-0.3,0.5-0.6,0.6c-0.3,0.1,0,0,0,0.2
	s-0.1,0.2-0.3,0.2c0,0.2,0,0.4,0,0.6c-0.1,0-0.1,0.2-0.3,0.2c0,0.6-0.2,1.3,0.2,1.5c0-0.4,0.2-0.8,0.4-1.1c0,0.2,0.2,0,0.3,0.3
	s-0.1,0.2-0.1,0.3c0,0.2,0.4,0.5,0.4,0.9c0.5,0,1,0.1,1.5,0.4c0.1,0,0.2-0.2,0.3-0.3c0.1-0.1,0.5,0,0.9,0c0-0.4,0.4-0.5,0.4-0.9h0.4
	c0.2,0,0.2,0.4,0.3,0.5c0.1,0.1,0.3-0.5,0.4-0.8H51c0.1,0.3,0.1,0.5,0,0.8c0.4,0,0.2-0.5,0.2-0.7L51.1,18.1z M45.9,13.1
	c0,0-0.1,0-0.1-0.2s0,0,0,0.2H45.9L45.9,13.1z M46.4,14c0-0.2-0.1-0.2,0-0.4c0.1-0.2-0.2,0-0.2,0.3L46.4,14L46.4,14z M46.5,6.5V6.3
	C46.3,6.3,46.2,6.6,46.5,6.5L46.5,6.5z M47.2,6.8c-0.1,0.5-0.3,0.9-0.4,1.4c0.3,0.3,0.3,0.8,0.6,1c0.3,0.3,0,0.2-0.2,0.3
	c0.2,0.3,0.2,0.7,0,1c0,0.2,0.2,0.3,0.1,0.6c0.6,0,0.2,1.2,0.4,1.5c0.6,0,0.5,0.6,0.4,1c0.2-0.1,0.4-0.1,0.5,0c0,0,0,0,0.1,0
	s0-0.4,0-0.6c0-0.2,0.4-0.2,0.6-0.4c0.2-0.8,0.3-1.7,0.3-2.5c0-0.2,0.2,0,0.1-0.2c-0.6-0.5,0-1.9-0.5-2.4c0.1-0.2,0.1-0.5,0-0.8l0,0
	c0.1-0.2,0.3-0.4,0.4-0.6c-0.2,0.1-0.4,0.3-0.4,0.6c0,0,0,0-0.3-0.2c0-0.1,0-0.2,0-0.3c0,0,0,0-0.2,0c-0.2,0,0-0.3,0-0.6
	c-0.2-0.2-0.2-0.4-0.1-0.7c0.2-0.3,0.5-0.5,0.9-0.4s0.6,0.3,0.7,0.7c0.2,0,0.1,0,0.3,0c0-0.8,0-1.5-0.8-1.6c0,0-0.2,0-0.2-0.3
	s-0.5,0-0.5-0.2c0-0.2-0.3,0-0.3,0C48.6,3.1,48.4,3,48.3,3c0,0-0.2,0,0,0.2c0.2,0.2-0.2,0-0.4,0s-0.2,0.4-0.5,0.5
	c-0.1,0.2-0.1,0.5,0,0.7c0.4-0.2,0.8,0,1,0.4c0.2,0.4,0.1,0.8-0.2,1.1c0,0.8-0.2,1.7-1,1.4c0,0,0-0.3-0.2-0.4L47.2,6.8z M46.9,2h0.1
	H46.9z M51.1,8.6c0,0.7-0.1,1.4-0.4,2c0,1.3-0.8,1.7-0.7,3.1c0.3,0,0.2,0.5,0.2,0.6c0,0.1,0.2-0.4,0.4-0.4c0,0.3-0.2,0.3-0.3,0.6
	c0.5,0.2,0.7-0.4,1.4-0.2c0,0,0.2,0,0.2-0.2c0.1,0,0.3,0.2,0.3,0.3c0.3-0.1,0.5-0.1,0.8,0c0.3-0.2,0.5-0.5,0.8-0.6
	c0.4-0.5,0.8-0.9,1.3-1.2c0-0.9,0.8-0.6,0.8-1.4c-0.2,0-0.2-0.2-0.5,0c0-0.4,0.3-0.4,0.4-0.6c0.1-0.3-1,0-1-0.6
	c-0.2-0.1-0.4-0.1-0.6,0c-0.2,0.1-0.2,0.3-0.5,0.5s-0.3,0.2-0.4,0.4c0,0.2,0,0-0.1,0c-0.1,0-0.1,0.6-0.4,0.7c0,0.6-0.3,0.7-0.6,0.9
	s0-0.4,0-0.6c0-0.2-0.3-0.4-0.2-0.9c0.3-0.4,0.6-0.8,0.7-1.3c-0.2,0.1-0.4,0.2-0.7,0.2c-0.1-0.5,0.1-0.9,0.5-1.2
	c-0.1-0.3-0.1-0.6,0-1c0,0,0.3-0.2,0.3-0.4c0-0.2-0.2,0.2-0.4,0.2c-0.2-0.4,0-0.8,0.3-1.1c0,0,0-0.4,0.1-0.4c0.1,0.1-0.2-0.2,0-0.4
	c0.2-0.3,0.5-0.6,0.9-0.8c0.4-0.2-0.4-0.5-0.4-0.7c-0.3,0.1-0.5,0.3-0.7,0.5c-0.2,0-0.1-0.3-0.3-0.3c0-0.2,0-0.4,0-0.6
	c-0.3-0.2-0.6-0.3-0.9-0.2c0,0.2,0,0.4,0.1,0.3c0,0.4,0,0.5,0,0.9c0.4,0,0.5-0.2,1-0.2c0,0.4-0.3,0.3-0.1,0.6
	c-0.3,0.1-0.5,0.3-0.7,0.5C51.6,6.7,51.8,8,51.1,8.6L51.1,8.6z M53.3,10.4c0-0.5,0.4-0.6,0.2-0.9c-0.2,0.2-0.3,0.5-0.3,0.8l0,0
	c0,0,0.2,0,0.3,0L53.3,10.4z M53.4,7c0,0,0.1,0.1,0.3,0.1S53.7,6.9,53.4,7l0-0.2c-0.2,0-0.1,0-0.3,0V7C53.4,7,53.3,7,53.4,7L53.4,7z
	 M55.9,5.8c0-0.2-0.2,0-0.1-0.3c-0.6,0-0.8-0.7-1.4-0.7c-0.1,0.5,0.2,1,0.6,1.3C55.1,5.8,55.6,6,55.9,5.8z M54.6,7.6
	c-0.1,0-0.2,0.3-0.3,0.3c0,0.6-0.6,0.5-0.5,1.1c0.2,0,0.4-0.4,0.5-0.6c0.1-0.2,0,0,0.2,0c0.2,0,0-0.3,0.2-0.4
	c0.3-0.4,0.8-0.6,1.2-0.5c0.6,0.4,0.9,1,1.1,1.7c0.5-0.2,1.2-0.1,1.5,0.4c0,0.2-0.2,0.2-0.1,0.5c0,0.3,0.2-0.3,0.2-0.5
	c-0.1-0.3,0-0.7-0.3-0.9c-0.3-0.2,0.2-0.3,0.2-0.5s-0.6-0.6-0.6-1.2c-0.4,0-0.5-0.3-0.6-0.6c-0.4-0.1-0.9-0.2-1.3-0.2
	c-0.5,0-0.8,0.6-1.1,0.8C54.7,7.1,54.7,7.3,54.6,7.6L54.6,7.6z M50.6,6.4c0-0.1,0-0.2,0-0.3c-0.1,0-0.2,0-0.3,0v0.4L50.6,6.4
	L50.6,6.4z M50.7,2.8H51C51,2.6,50.7,2.6,50.7,2.8z M50.9,2.3c0.2,0,0-0.2,0.3,0s-0.5-0.3-0.7,0c-0.1,0.3-0.7-0.3-0.8,0
	c0.4,0,0.9,0,1.2,0.2V2.3z M50,2.9c0-0.2-0.5-0.3-0.6-0.1S49.8,2.8,50,2.9z M57.4,16.4v-0.2c-0.1,0-0.3,0-0.3,0.2H57.4z M57.4,14.8
	c0.1-0.1,0.3-0.2,0.5-0.2c0,0-0.4,0-0.4,0c-0.4,0.2-0.8,0.3-1.2,0.4c0,0.2,0.3,0.2,0.4,0.4c0.1,0.2-0.3,0-0.3,0.2
	c0.1,0.2,0.3,0.3,0.5,0.3c0-0.1,0-0.2,0-0.3c0.2,0,0.4,0,0.5,0c0.1,0-0.2,0-0.2-0.4C57.2,14.8,57.4,15,57.4,14.8L57.4,14.8z
	 M60.1,19.2v-0.2h-0.2v0.2L60.1,19.2L60.1,19.2z M63.1,16.8c0.4-0.4,0-1.1-0.1-1.4c-0.3,0.2,0,0.5,0,0.8c0,0.3,0,0,0.2,0
	c0.2,0,0,0.4,0,0.6L63.1,16.8z M63.4,25.9c0.2,0,0.3-0.3,0.3-0.6c0-0.3-0.1,0.3-0.4,0.2c0.2-0.4,0.3-0.9,0.4-1.3
	c-0.4,0.3-0.5,0.9-0.7,1.5C63.3,25.8,63.4,25.9,63.4,25.9L63.4,25.9z M64.2,22.8c0-0.2-0.1-0.2-0.3-0.2c-0.1,0,0,0.4,0,0.3
	c0-0.1-0.4,0.4-0.4,0.9c0.3,0,0.3-0.5,0.4-0.9C64.1,22.4,64,22.8,64.2,22.8L64.2,22.8z M64.5,22.8c0.2-0.1,0.4-0.3,0.4-0.6
	C64.6,22.4,64.5,22.5,64.5,22.8z M65,17.6c0-0.4-0.2,0.3,0,0.3C65.2,17.8,65,17.6,65,17.6z M65,19.9c-0.8,0-0.2-1.4-0.5-1.9
	c-0.2,0.1-0.2,0.2,0,0.4c0.2,0.2-0.3,0-0.4,0c0,0.2,0,0.4,0,0.6c0.2,0,0.2,0,0.3,0c0.1,0.1,0.2,0.3,0.2,0.5s-0.1,0.4-0.2,0.5
	c0,0.7,0,1.5,0,2.2c0-0.2,0.4-0.2,0.7-0.2c0.2-0.7,0.3-1.4,0.2-2.1H65z M64.6,17.6c0-0.2-0.1,0,0-0.3C64.7,17,64.6,17.7,64.6,17.6z
	 M64,16.1L64,16.1c0-0.2,0-0.2-0.2-0.2L64,16.1l0,0.5c0.1,0,0.1,0,0.2-0.2h0.2c0.2,0.2,0.3,0.5,0.4,0.8c0.2,0,0.1-0.7,0-0.8
	c0.1-0.4,0-0.9-0.3-1.2c0,0.4,0.2,0.5,0,0.7c0.2,0,0,0.4,0,0.4L64,16.1z M64,13.9c0.1-0.3-0.1-0.6-0.3-0.7c-0.1,0.2-0.1,0.4,0,0.6
	C63.8,13.8,63.8,13.8,64,13.9L64,13.9z M63.3,11.9c0,0,0-0.4-0.3-0.4C62.8,11.5,63.1,11.8,63.3,11.9L63.3,11.9c0,0,0.1,0.2,0.2,0.5
	v-0.1c-0.2,0-0.1-0.2-0.3-0.3L63.3,11.9L63.3,11.9z M62.1,10.1c0.3,0,0.4,0.5,0.6,0.7l0,0c0-0.7-0.3-0.9-0.6-1.2L62.1,10.1z
	 M62.1,12.2c-0.1,0,0,0.3-0.2,0.3c0.2,0.4,0.2,1,0.6,1.2c0,0.4,0,0.8,0.3,0.9c0,0.1,0,0.2,0,0.3c0,0,0,0,0.2,0l0,0
	c0-1-0.6-1.5-0.7-2.3L62.1,12.2z M62.1,11.8c-0.4,0-0.2-0.4-0.5-0.4c0,0.4,0.3,0.6,0.5,0.9S62,11.9,62.1,11.8L62.1,11.8z M61.6,14.1
	c-0.2,0.2-0.4,0.4-0.6,0.7c-0.2,0-0.2,0-0.4,0c0,0.4,0,0.5-0.2,0.7c0.7,0,1.1,0.3,1.7,0.2c0-0.4,0.2-0.5,0.2-0.9
	c-0.4,0-0.4-0.6-0.5-1C61.7,13.7,61.6,13.7,61.6,14.1L61.6,14.1z M60.7,9.4c-0.1,0,0,0.2,0,0.2S60.6,9.6,60.7,9.4z M60.3,6.9
	c0,0,0,0.5,0.3,0.5c0.3,0,0-0.2,0-0.4S60.3,7.1,60.3,6.9L60.3,6.9z M60.1,8.5C60,8.3,59.8,8.1,59.6,8c0,0.2,0.1,0.4,0.2,0.5
	L60.1,8.5L60.1,8.5z M59.8,9.7c-0.4,0.5-0.8,1.1-1.2,1.6c-0.2,0.1-0.4,0.2-0.6,0.2c0,0.2,0.2,0,0,0.3c-0.6,0.4-1.2,0.8-1.8,1.1V13
	c-0.4,0-0.5,0.6-1,0.6c-0.1,0.3-0.3,0.5-0.6,0.6c0,0.2-0.2,0.4-0.5,0.3c-0.3-0.1,0,0.2,0,0.4c-0.4,0.2-0.8,0.4-1.2,0.8
	c-0.5,0-0.5,0.3-0.9,0.3c0,0.3-0.1,0.5-0.4,0.5c0.1,0.2,0.2,0.4,0.2,0.6c0.7,0,1-0.3,1.7-0.2c0.2-0.3,0.7-0.3,0.9-0.6
	c0.2-0.3,0.6,0,0.7,0c0.3-0.2,0.8-0.2,0.9-0.6c0.1-0.4,0,0.2-0.3,0c-0.3-0.2,0,0-0.1-0.2s0.3,0,0.2-0.5l-0.7,0.3c-0.2,0,0-0.2-0.3,0
	c0-0.3,0-0.5-0.1-0.7s0.2,0,0.2-0.3c0.8,0.3,1.2-0.2,1.8-0.3c0-0.2,0.1-0.2,0.2-0.4h0.5c0.3,0,0.5-0.3,0.8-0.3s0.6-0.4,0.8-0.6
	c0.7,0,0.8-0.6,1.5-0.5c0-0.2,0.5,0,0.7-0.3v0.1c-0.4-0.3-1.2,0.2-1.4-0.2c-0.2-0.4-0.9,0-1.4,0c0-0.2,0.2-0.2,0.1-0.4
	c0,0,0.5,0.2,0.6,0c0.6,0.2,1.3,0.2,1.9,0.2c0-0.3-0.2-0.5-0.2-0.7c0-0.3,0.3-0.3,0.5-0.3c0.2,0,0-0.3,0.2-0.3
	c0.2-0.1-0.2-0.2-0.3-0.3c0-0.2-0.2,0.4-0.3,0.6c-0.5,0-0.7-0.3-0.6-0.8c-0.3,0-0.3,0-0.6,0L59.8,9.7z M52.7,1.4
	C52.4,1.1,52,1,51.7,1c0,0.3,0.5,0.2,0.7,0.4c-0.1,0.3,0,0.6,0.2,0.8c0,0,0,0.3,0,0.4c-0.4,0-0.4-0.7-0.8-0.3
	c-0.3,0.4,0.2,0,0.3,0.1s0,0.2,0,0.3c-0.4,0-0.5-0.2-0.8-0.2c0,0.2,0.4,0.2,0.6,0.2c0.2,0,0.6,0.3,0.8,0.5c0.7,0,1.3,0,1.4,0.6
	c0.1,0,0.4,0,0.4,0c0.4,0,0.4,0.4,0.6,0.6c0.2,0.2,0.2,0,0.2,0c0.2,0,0.5,0,0.7,0c0.3,0.4,0.7,0.6,1.2,0.7c0,0,0,0.2,0.2,0
	c0.2-0.2,0,0.3,0,0.5c0.4,0,0.7,0.2,0.8,0.6c0.1,0.4,0.6,0.1,0.8,0.4c0.1,0.3,0-0.2,0-0.3c-0.4,0-0.4-0.6-0.7-0.8
	c0.4,0,0.5,0.4,0.7,0.6c-0.1-0.4-0.4-0.7-0.8-0.8v0.3c-0.4,0-0.5-0.3-0.8-0.4c0-0.2,0-0.3,0-0.5c0.2,0,0,0.2,0.2,0
	c0.1,0,0.1,0,0.2-0.1c0-0.1,0.1-0.1,0.1-0.2c0,0,0.3,0,0.3-0.2c0-0.2,0.4,0.5,0.8,0.5c-0.2-0.4-0.5-0.7-0.8-0.9c0-0.4,0-0.4,0,0v0.3
	c-0.2,0.1-0.5,0.2-0.6,0.4c-0.2,0-0.2-0.3-0.2-0.5c-0.2-0.2-0.5-0.3-0.8-0.3c0,0.2,0.2,0.1,0,0.4c-0.4,0-0.9-0.2-1.1-0.7h-0.8h-0.2
	c-0.1,0-0.3-0.2-0.2-0.4c0.1,0,0.2,0,0.3,0c0.3,0,0.3,0.4,0.7,0.3c0,0,0-0.3-0.1-0.3s0.1,0,0.1-0.2c0.6,0,1,0,1.2,0.5s0.5,0,0.5,0.4
	s0.4,0,0.5,0c0.1,0-0.2-0.3-0.2-0.5c-0.5,0-0.7-0.4-1.2-0.4c-0.3-0.2-0.5-0.5-0.6-0.8c-0.2,0-0.2,0.3-0.2,0.5h-0.2
	c-0.2,0,0-0.3,0-0.5S54.3,2.4,54,2c-0.2-0.4,0,0.3-0.2,0.2c0.2,0.3,0.6,0.4,1,0.5c0.4,0.1,0,0.3-0.2,0.4c-0.3-0.1-0.7-0.2-1.1-0.3
	c0,0.3,0.3,0.2,0.4,0.5c-0.5-0.1-0.9-0.3-1.2-0.6c0.1,0,0.2,0,0.3,0c0-0.2-0.3-0.2-0.3-0.4h0.8c0-0.5-0.7-0.3-0.8-0.6
	c-0.1-0.4,0-0.3,0.1-0.2L52.7,1.4z M51.2,1c0-0.2-0.3-0.2-0.3,0H51.2z M48.6,0.8c-0.2-0.1-0.4-0.1-0.6,0C48,1.1,48.4,0.8,48.6,0.8z
	 M47.4,0.8c0,0.4-0.5,0.2-0.5,0.4c0.3,0,0.5,0.2,0.9,0.2c0,0.3-0.2,0.3-0.3,0.4c-0.1,0.1,0.4,0,0.5,0.2c0.1,0.2,0,0,0,0.2
	c0,0.2-0.2,0-0.2,0.3c-0.1-0.1-0.2-0.2-0.4-0.2c0,0.2-0.2,0-0.1,0.4s0.5-0.1,1-0.1c0-0.2-0.2-0.3,0-0.4c0.2-0.1,0.4,0,0.6,0
	c0.2,0,0,0,0.1,0s-1,0-1.2-0.3c0.5-0.5,1.6,0,2.4-0.2C50.5,1.8,50.9,1.8,51,2c0.3-0.3,0.5,0,0.8,0c0-0.6-0.9-0.3-1.1-0.7
	c-0.4,0.2-0.9,0.2-1.3,0h-1.6c-0.2,0-0.3-0.3-0.6-0.2L47.4,0.8z M46.8,4.5c-0.2,0,0-0.2-0.2-0.2s-0.2,0.5-0.5,0.6
	C45.9,5,46,5.6,46.3,5.7c0.2,0.1,0,0.6,0.1,0.6c0-0.4,0-0.9,0.4-1.1C46.8,5,46.8,4.7,46.8,4.5L46.8,4.5z M45.6,5.4
	c0-0.5,0.1-1,0.3-1.4c0,0,0.2,0,0.3,0c-0.2-0.4-0.9,0-1.3,0c0-0.2,0.3,0,0.2-0.3c0-0.3-0.2-0.2-0.3-0.2c-0.1-0.1,0,0.2-0.1,0.3h-0.3
	c0,0-0.1-0.2-0.2-0.3c0-0.1,0,0.4,0,0.6h0.2c-0.3,0-0.6,0-0.6,0.5c0.5,0,1,0.4,0.8,1c-0.2,0-0.3,0-0.5,0c0,0.6,0.9,0.5,1.1,0.9
	c0.3,0,0-0.7,0.4-0.8L45.6,5.4z M43.7,5c0.2-0.2-0.2-0.4-0.4-0.4C43.1,4.6,43.7,5,43.7,5z M44,2.5h0.2C44.2,2.5,44.2,2.5,44,2.5z
	 M45.2,2.1h0.2V2h-0.2V2.1L45.2,2.1z M45.8,2.8c0-0.2-0.4-0.2-0.3,0H45.8z M45.8,0.9c0-0.2-0.2-0.2-0.2,0H45.8z M43.3,2.1
	c0,0-0.2,0-0.2,0H43.3L43.3,2.1C43.6,2.1,43.9,2.2,43.3,2.1l1.6-0.3c0.1,0,0.2,0,0.3-0.2c0.2,0,0.4,0,0.6,0c0.1,0,0.3-0.2,0.5-0.2
	V1.3c-0.4,0-0.8,0-1,0.2C44.6,1.4,43.9,1.6,43.3,2.1L43.3,2.1L43.1,2L43.3,2.1z M43.3,2.5c-0.5,0.3-1.2,0.3-1.5,0.8
	c0.4,0,0.7,0,0.7-0.3c0.5,0,0.6-0.3,0.9-0.3C43.8,2.6,43.4,2.7,43.3,2.5z M42.7,3.3c-0.1,0-0.3,0-0.3,0.2h0.3V3.3L42.7,3.3z
	 M41.3,2.8c0,0.2-0.4,0-0.4,0.3h0.3C41.2,3,41.2,3,41.3,2.8L41.3,2.8z M40.8,5.1c0,0.3-0.2,0.4-0.2,0.7l0.7,0.7
	c0.2,0,0.1-0.5,0.6-0.3c0.1,0.2,0.1,0.4,0,0.6c0,0,0,0.2,0,0c0-0.2,0.1,0,0.1,0.2c0,0.2,0.1,0.4,0.1,0.6l0,0c0,0,0,0.3,0,0.4
	c0,0.1,0,0,0.1,0c0.1,0,0,0.2,0.1,0.2v0.4c0.2,0.2,0.3,0.4,0.4,0.6c0,0,0,0,0.3,0s0,0.2,0,0.3c0.4,0.2,0.4,0.8,0.9,1
	c0,0.2,0,0.3,0,0.5c0.3,0.3,0.5,0.7,0.6,1.1c0.4,0,0.5,0.3,0.8,0.4c0.3,0.1,0-0.3,0.1-0.5c0.1-0.1,0.2,0.2,0.3,0.3
	c0,0.2,0-0.2,0.1-0.3c0.5-0.2,0.2-0.9,0-1.3s0.2,0,0.1-0.2c0-0.2-0.2-0.4-0.4-0.4c-0.2-0.1,0.1-0.4,0.3-0.5c0.1-0.2,0.2-0.5,0.3-0.8
	h-0.3c0-0.4-0.7-0.3-0.8-0.7h-0.3c-0.1,0.2-0.2,0.4-0.1,0.7c0,0,0.3,0.5,0,0.6c-0.3,0.2-0.3-0.4-0.5-0.5c0-0.9-0.7-1.2-0.8-2.1h-0.6
	c0-0.2,0-0.3,0.2-0.4c0-0.6-0.4-0.7-0.4-1.2c-0.2,0-0.3,0-0.5,0C42,5.2,41.9,5.1,41.8,5c-0.3,0.3-0.7,0.3-1.1,0.2L40.8,5.1z
	 M39.3,4.8c0,0.2,0.1,0,0.3,0s0.2,0,0.2-0.3l-0.4,0.2V4.8z M39.1,4.1c0,0-0.2,0-0.2,0C39,4.1,39,4.1,39.1,4.1z M39.1,6.5
	C39,6.7,38.8,6.9,38.5,7c-0.2,0.3-0.5,0.6-0.7,0.8c0,0.4-0.3,0.4-0.4,0.7c-0.1,0.2,0.4,0.2,0.4,0.5s-0.4,0.8-0.4,1.2
	s0.2-0.4,0.2-0.5c0-0.1,0.1-0.4,0.2-0.5c0-0.1,0.4-0.3,0.7-0.6h0.6c0.1,0,0-0.4,0.3-0.4c0-0.6,0.3-0.6,0.5-0.9
	c0.2-0.3,0.7,0.3,1.2,0.2c-0.3-0.5-0.6-0.9-1.1-1.1C39.7,6.4,39.4,6.4,39.1,6.5L39.1,6.5z M28.6,17.3c0.1,0.3,0.4,0.2,0.6,0.3
	s0.3,0.3,0.5,0.4h0.4c0.1,0,0.2,0.2,0.4,0c0.5-0.2,1-0.3,1.5-0.3c0-0.3,0.3-0.3,0.4-0.3c0-0.4,0.2-0.8,0.5-1c0-0.2,0.1-0.5,0.2-0.7
	c-0.1-0.7,0-1.3,0.3-1.9c0-1,0.6-1.5,0.8-2.3c0.1,0,0-0.3,0.3-0.3c0-0.8,0.6-0.9,0.7-1.6s0.5-0.8,0.8-1.1C36.5,8.1,36,8.3,36,8.2
	V8.1c0.4-0.5,0.7-1.1,1.3-1.3c0-0.2,0.1-0.3,0.2-0.4s0.3-0.1,0.4-0.1c0,0,0,0,0,0.2s0.3-0.2,0.3-0.3c-0.1,0-0.2,0.1-0.3,0.2
	c0,0,0,0,0.1-0.6c-0.7,0-0.6,1-1.4,0.8c0-0.3,0.3-0.5,0.4-0.8s0.6,0,0.5-0.4c-0.5,0-0.8,0.8-1.2,0.6l0,0c0,0-0.8,0.2-0.9,0.7
	c-0.1,0-0.1,0.3-0.3,0.2c-0.2,0.6-0.7,0.8-0.9,1.3c-0.2,0-0.2,0.3-0.5,0.4c-0.2,0.1-0.4,0.5-0.4,0.9s-0.4,0.6-0.6,0.8
	c0,0.2,0,0.4,0,0.6c0,0,0,0-0.1,0s-0.2,0.9-0.5,1.1c0,0.3-0.1,0.6-0.4,0.8c0,0.3,0,0.6-0.2,0.7c-0.2,0.1,0,0.7-0.2,0.8
	c0,1-0.3,1.7-0.3,2.5c0,0,0,0.2-0.2,0.2c-0.4,0.1-0.8,0-1.1-0.2c0-0.2,0-0.3,0-0.5c0-0.4,0.6-0.3,0.8-0.6c-0.1-0.3-0.2-0.6-0.5-0.8
	c-0.5,0-0.7,0-1.1,0c0,0.4-0.3,0.4-0.4,0.6c-0.1,0.4-0.1,0.7,0,1.1c0,0.2,0,0.6-0.1,0.6L28.6,17.3z M31.2,28.9v-0.2
	c-0.1,0,0,0-0.2,0s0,0,0.2,0V28.9z M29.7,26.2c0,0.3,0,0.3,0,0.5c0.1-0.1,0.2-0.3,0.2-0.5H29.7L29.7,26.2z M28.4,22.3
	c-0.3,0-0.3,0-0.4,0.2c-0.1,0.2-0.5,0-0.7,0c0,0.1,0,0.2,0,0.3c-0.4,0-0.7,0-1,0c0-0.2,0.1,0,0.2-0.2v0.1c0.2-0.1,0.4-0.1,0.6,0
	c0,0,0-0.4,0-0.5s-0.3,0.2-0.5,0.2c0,0.1,0.1,0.2,0.1,0.3c0,0-0.3,0-0.3,0.3h0.2c0,0.2,0.3,0,0.3,0.3c0.6-0.5,0.9,0.7,0.2,0.8
	c0.1,0.4-0.1,0.9-0.4,1.2c0.1,0.3,0.5,0.2,0.6,0.5c-0.4,0.4-0.6,1.1-0.5,1.7c0.3,0.1,0.5,0.4,0.7,0.7c0.5,0,0.7,0.5,1.2,0.6
	c0.4,0.3,0.9,0.5,1.4,0.4c0-0.2,0-0.3-0.2-0.4v-0.2c0.2,0,0-0.6,0.3-0.8h0.2c0,0.1,0.4,0,0.5,0c0.1,0,0.2-0.7-0.2-0.7
	c0-0.4-0.1-0.7,0-1c0,0,0,0,0.3,0.9c0.2,0,0.2,0,0.3,0v-0.1c0-0.2-0.1-0.1-0.2-0.2c0-0.1,0-0.3,0-0.3s0,0,0,0s0-0.5,0-0.7
	c-0.6,0.3-0.3,0.6-0.3,0.6c-0.3,0,0-0.5-0.5-0.4c-0.1,0.3-0.1,0.7,0,1c0,0.2,0.2,0.2,0.2,0.3c0,0.1,0,0.2,0,0.3
	c0,0.3-0.1,0.3-0.2,0.4c-0.2,0,0-0.3-0.3-0.2s-0.2,0.2,0,0.4h-0.4c-0.1,0,0-0.3,0-0.4c0-0.2-0.2-0.9,0-1c0.2-0.1-0.2-0.2-0.3-0.3
	s0-0.2,0-0.3l-0.2,0.1c0-0.6,0.2-1.5,0-1.9c-0.2-0.5,0.2-0.2,0.2-0.5s-0.2,0.6-0.5,0.7c-0.1,0.6-0.2,1.3-0.5,1.9
	c-0.3-0.2-0.8,0-0.9-0.2c0-0.4,0.2-0.5,0.3-0.6c0.1-0.2,0.2,0.2,0.4,0.2c0-0.1,0-0.2,0-0.3c-0.1,0.1-0.2,0.1-0.3,0
	c-0.5-0.9,0.4-1.6,0.6-2.4L28.4,22.3z M27,21c0.2,0,0-0.2,0.3,0c0.3,0.2,0-0.2-0.3-0.2c0,0.1,0,0.2,0,0.3L27,21z M27.3,21.5h-0.1
	v0.2h0.1V21.5L27.3,21.5z M28.2,21.4c0-0.2-0.6-0.2-0.6,0C27.9,21.3,27.9,21.4,28.2,21.4z M23.1,19.8c0-0.2-0.1-0.2-0.3-0.2
	S22.8,19.9,23.1,19.8z M22.7,21.4c-0.2,0.2-0.2,0.6-0.7,0.6c0,0.6-0.6,0.7-0.8,1.2c-0.3,0-0.5,0-0.8,0.2c0,0.6-0.3,0.8-0.4,1.2h0.6
	c0.2,0,0.2,0.4,0.2,0.6c-0.1,0.1-0.1,0.4-0.3,0.4c-0.1,0.3,0,0.7,0.1,1c0.5,0.2,0.7,0.7,1.2,0.8c0.5,0.1,0.9,0.5,1.1,1
	c0.4,0,0.5,0.3,0.8,0.3s0.7-0.6,1.3-0.7c0.2-0.2,0.4-0.3,0.7-0.3c0.3-0.5,1.1-0.9,0.7-1.6c-0.2,0-0.2,0.3-0.4,0.4
	c0.1,0.8-0.4,0.8-0.6,1.2c-0.3-0.1-0.5,0.1-0.6,0.3c0-0.2-0.4-0.1-0.4-0.4c0-0.2-0.2,0-0.4,0c-0.2,0,0-0.3,0-0.5s0,0.2-0.3,0v-0.2
	c0,0,0,0-0.1,0c-0.1,0-0.6-0.3-0.7-0.6c0.1-0.2,0.2-0.5,0.2-0.8c0,0,0,0-0.2,0c0-0.9,0.4-1.6,1.2-1.8c0-0.3,0.1-0.5,0.4-0.5
	c0-0.4,0.3-0.3,0.3-0.6h0.7c0.2-0.2,0.3-0.5,0.7-0.5s0,0.4,0,0.3c0-0.1,0.5-0.2,0.6-0.3c0.1-0.1-0.2,0-0.3-0.1
	c-0.1-0.1,0-0.7,0.3-0.7c-0.2-0.4,0.2-0.4,0.2-0.8c0.3-0.3,1.1-0.2,1.5-0.4c-0.2-0.3-0.7,0-1-0.2c-0.1-0.1-0.1-0.2-0.2-0.3
	c0.5-0.3,1.7,0.2,1.9-0.3c-0.4-0.3-0.8-0.2-1.4-0.3c0-0.2,0-0.2-0.2-0.2c-0.2,0-0.5,0.3-0.7,0.4c-0.2,0.1,0,0.8-0.2,1
	c-0.2,0.2,0,0.4,0,0.4c-0.2,0,0,0.5-0.2,0.6c-0.3,0.3-0.6,0.4-0.9,0.4c-0.2,0.3-0.6,0.5-0.9,0.5c-0.2,0.3-0.5,0.6-0.8,0.8
	c0,0.1,0,0.2,0,0.3c-0.2,0-0.2,0.2-0.4,0.3c-0.3,0.7-1,0.8-1.3,1.6c-0.1,0-0.3,0.3-0.5,0.2c0.2,0,0-0.5,0.1-0.7
	c0.1-0.7,0.3-1.3,0.8-1.8c0.1-0.6,0.6-1.1,1.2-1.1v-0.1C23.3,21.4,23.1,21.4,22.7,21.4L22.7,21.4z M25.2,23.9c0.2,0,0.4-0.3,0.7-0.4
	v-0.3h-0.3C25.6,23.6,25.2,23.5,25.2,23.9L25.2,23.9z M25.5,24.8c0,0,0-0.2,0-0.4c0-0.2-0.4,0-0.3,0.3L25.5,24.8L25.5,24.8z
	 M24.8,24.8c0-0.2,0.1-0.4,0.2-0.5c-0.2-0.1-0.4,0.3-0.7,0.2V25c-0.2,0.5-0.8,0.4-0.8,1.1c0,0,0,0,0.2,0
	C24.1,25.7,24.1,24.8,24.8,24.8L24.8,24.8z M24.1,26.3c0.2,0,0.3-0.2,0.3-0.4C24.3,25.6,24,26,24.1,26.3z M10.3,21.7
	c0,0.2,0.2,0,0.3,0.1C10.8,22,10.5,21.5,10.3,21.7z M10.7,22.5v-0.2h-0.2v0.2H10.7z M10.4,12.8v0.2h0.2v-0.2L10.4,12.8L10.4,12.8z
	 M9.5,13h0.2v-0.2H9.6L9.5,13z M8.7,18.2c0,0,0,0.2-0.2,0.3c0.1,0.5,0.2,1.1,0.3,1.6c-0.2,0.2,0,0.9-0.3,1c0.1,0.1,0,0.5,0.3,0.5
	c0.3,0.1,0-0.2,0-0.2c0-0.1,0.2,0,0.1-0.3c0.2,0,0.4,0,0.5,0.1c0-0.2,0.2,0,0.4-0.2c0.2,0.2,0.5,0,0.7,0s0-0.5,0-0.8
	c-0.2,0.1-0.5,0.1-0.7,0.2c0,0.3,0,0.3,0,0.5H9.7c-0.5,0-0.9,0-0.6-0.5h0.6c0-0.2-0.5-0.2-0.7-0.4c0-0.3,0.5,0,0.7-0.3
	c0.1-0.3-0.2-0.2-0.2-0.4c0.2-0.2,0.4-0.2,0.6-0.2c0.1,0,0,0.3,0,0.5s0.3-0.3,0.6-0.4c0.3-0.1-0.2-0.5,0-1c-0.3,0-0.2-0.2-0.4-0.1
	c0-0.2,0.5,0,0.7,0c0-0.4,0-1.3,0-1.7c0.2-0.7-0.1-1.7,0.3-2.1c0-0.2,0-0.3,0-0.5s0.3,0,0.5,0c0,0.2,0,0.2,0.3,0.2V14h-0.5
	c0,0,0,0,0-0.2s-0.2,0.2-0.4,0.2c-0.2-0.1-0.3-0.5-0.8-0.4c-0.1,0.1-0.2,0.2-0.3,0.3c-0.4-0.2-0.9-0.2-1.3,0c0,0.4-0.2,1,0,1.3
	s0,0.2,0,0.3c0.1,0.9,0.1,1.9,0,2.8L8.7,18.2z M7.8,20.1c0,0.1,0,0.2,0.1,0.2v-0.2H7.8z M6.9,21.3c0-0.1,0-0.1,0-0.2H6.8L6.9,21.3
	L6.9,21.3z M5.6,20.1c-0.4,0-1-0.2-1.1,0.3c0.7-0.2,1.3,0.1,2,0.1c0,0,0.3,0.2,0.4,0.4c0.2,0,0.3,0,0.5,0c0-0.3-0.6-0.2-0.6-0.6
	c0.3,0,0.2,0.2,0.5,0.1s-0.4-0.3-0.4-0.7c-0.3,0-0.5,0.2-0.7,0C6,20,6.4,20,6.5,20.2v-0.1C6.2,20.1,5.9,20.1,5.6,20.1z M4.2,18.7
	c0.1,0.3,0,0.2,0,0.5s0.2,0,0.3,0s-0.1-0.3-0.3-0.4L4.2,18.7z M4.9,19.7c0-0.2-0.8-0.2-0.8,0C4,19.8,4.6,19.7,4.9,19.7z M3.7,19.8
	c0-0.2,0-0.2-0.2-0.2c0,0.1,0,0.2,0,0.2C3.7,19.8,3.7,19.8,3.7,19.8L3.7,19.8z M3.1,19.1c0,0,0,0.2-0.2,0.2c-0.2-0.1,0.2,0,0,0.2
	c-0.2,0.2,0.2-0.3,0.5-0.2S3.2,19.2,3.1,19.1L3.1,19.1z M3,19.9c0,0-0.1,0-0.2,0c-0.1-0.1-0.2-0.1-0.3,0c0,0.2,0.2,0,0,0.2
	c-0.2,0.2,0.2,0,0.2-0.3C2.9,19.8,2.9,19.8,3,19.9L3,19.9z M2.5,14.8v0.3c0.1,0,0.1,0,0.3,0s0-0.2-0.3-0.2V14.8z M2.5,17.6
	c-0.2,0-0.2,0.3,0,0.2C2.7,17.8,2.5,17.6,2.5,17.6z M1.1,22c0.3,0,0.2-0.5,0.2-0.9c0-0.4-0.2,0-0.4,0c0.2,0.2,0,0.4-0.2,0.5
	C0.5,21.8,0.9,21.9,1.1,22c-0.1,0-0.3,0-0.3,0.2H0.6c0,0,0,0.3,0,0.2c0.2,0,0.2,0,0.3,0V22H1.1z M0.6,18.2c0,0.2-0.3,0.3-0.3,0.6
	c0,0.1,0.1,0.2,0.3,0.3c0,0.3,0,0.6,0,0.9c0,0,0.3,0,0.3,0.3c0,0,0,0-0.2,0s0,0.3,0,0.4c0.2-0.1,0.4-0.2,0.6-0.2c0,0-0.4,0-0.3,0
	c0-0.2,0.2,0,0.3-0.2c0.1-0.2-0.2,0,0-0.2c0-0.2,0.2-0.3,0.2-0.5s0-0.8,0.1-0.7s-0.3-0.5-0.3-0.6c0.2-0.8-0.2-1.6,0-2.2s0-0.6,0-0.7
	c0-0.1,0.1-0.2,0.1-0.5c0-0.3-0.3-0.2-0.5-0.3c-0.2,0,0.2,0,0.2-0.3c-0.1-0.2-0.4-0.3-0.6-0.4c0,0,0.3-0.2,0-0.3
	c-0.3-0.1,0,0.6,0,0.9c0,0.4-0.1,0.7-0.2,1.1c0.3,0.3,0,0.9,0,1.3s0.1,0.9,0,1.3H0.6z M0.3,22.7c0,0-0.1,0-0.3,0.2V11.5
	c0.1,0.2,0.2,0.4,0.3,0.6c0,0.1,0,0.3,0.1,0.4c0.5,0.2,1.4-0.2,1.7,0.3c-0.4,1.7,1.5,1.1,1.9,2v0.3l-0.4,0.2c0,0,0,0.5-0.2,0.5
	c0.1,0.3,0.2,0.6,0.2,1L3.4,17c0.1,0.3,0.1,0.5,0.2,0.8c0,0,0-0.2,0.2,0c0.2,0.2,0.5,0,0.4,0.2c0,0.2-0.7,0-0.9,0.3
	c0,0.1,0,0.2,0,0.3c0.7-0.1,1.5-0.1,2.3,0c0,0.4-0.3,0.3-0.5,0.4c-0.2,0.1,0,0.3,0.2,0.3c0.7-0.4,1.7,0,2.4,0.3c0,0,0,0.3,0,0.4h0.2
	c0-0.2,0-0.5,0-0.7h0.3c0,0,0,0,0-0.3c0-0.3-0.5,0-0.5-0.2c0.1-0.1,0.3-0.2,0.4-0.2c0-0.6,0-1.2,0-1.9c0.1-0.8,0-1.7-0.1-2.5
	c-0.4,0-0.5,0.2-0.8,0.2c-0.3,0.5-0.8,0.7-1.3,0.6c0.3-0.2,0.7-0.3,0.9-0.6c0.5-0.1,0.9-0.5,1.1-0.9c0,0,0-0.2,0-0.3l0.3-0.3
	c1-0.2,2.1-0.2,3.1-0.2c0.3,0.5,0.8,0.8,1.2,1.2c0.7-0.1,1.3-0.1,2-0.1c0.2-0.3,0.7-0.2,1.2,0c0.4,0.2,0.4,0.4,0.3,0.8
	c-0.2,0-0.5,0.1-0.7,0.3c-0.4-0.5-1-0.7-1.6-0.6c0,0.3-0.4,0.3-0.7,0.4s-0.3,0.8-0.6,1c-0.4,0.2-0.3-0.6-0.5-0.7
	c-0.2-0.1,0.2,0,0.2-0.4h-0.3c-0.2,0.5-0.3,1.1-0.3,1.7h0.6c0,0.2-0.2,0.2-0.3,0.4c0,0.2-0.1,0.5-0.2,0.6c0,0.5,0.5,1,1,0.7
	c-0.1-0.3,0.1-0.5,0.3-0.7c-0.1-0.1-0.2-0.3-0.1-0.4l0.5-0.2c0,0-0.2-0.2,0-0.5c0.6-0.2,0.9,0.3,1.5,0.2c0,0.1,0,0.3,0,0.5
	c0.5,0,0.5,0.6,0.7,0.9c0.2,0.4,1.2,0.2,1.7,0.4c0.1-0.2,0.3-0.2,0.5-0.2c0.2,0.4,0,1,0.3,1.4c0.2-0.2,0.8,0,1.1,0s0.2-0.5,0.3-0.7
	c0.1-0.2,0-0.5,0.1-0.5c0.2,0.3,0.2,0.6,0,0.9c0.2,0,0,0.6,0.4,0.6c0.2-0.2,0.3-0.5,0.3-0.8c0.4-0.3,0.8-0.4,1.3-0.4
	c0.2-0.1,0.3-0.1,0.5,0c0.1,0.6-0.2,1.7,0.2,2c0-0.1,0-0.3-0.1-0.4c0-0.5,0.3-0.5,0.4-0.8c0.6,0,0.9,0,1-0.6c0.2-0.1,0.5-0.1,0.7,0
	c0,0.5-0.5,0.8,0,1.1c-0.2,0.3,0,0.7,0,1s0.3,0,0.3,0s0.2-0.9,0.5-1.1c0,0-0.3,0-0.2-0.4s0.5-0.2,0.7-0.3c0.2-0.1-0.3-0.2-0.3-0.5
	c0.4,0,0.8,0.2,0.9-0.2C26,18.3,26,18.1,26,17.9c0.2,0,0.1,0.3,0.3,0.4c0.1,0.1,0.4,0.3,0.6,0.5c0.6,0,1.2-0.1,1.8-0.5
	c-0.1,0-0.2-0.3-0.3-0.4s0-0.3,0-0.4c-0.5-0.3-0.3-1.1-0.3-1.7c-0.6,0-1.2-0.1-1.7-0.2c-0.2,0.2-0.8,0-0.9,0.3c-0.2,0-0.4,0-0.5-0.2
	c-0.3,0.2-0.6,0.3-0.9,0.4c-0.6,0-1.2,0-1.7,0.3h-0.4c0,0.4-0.6,0.4-0.7,0.8c-0.3,0-0.2-0.6-0.5-0.7s-0.5,0-0.4-0.4s0.4,0,0.4,0
	s-0.3,0-0.3-0.2c0-0.2-0.1,0-0.2,0c-0.5-0.4-1.3-0.3-1.7-0.8c0,0,0.2-0.3,0-0.3c-0.1,0-0.3,0-0.4,0c0-0.1,0-0.4,0-0.6
	c0.3,0.1,0.7,0,1-0.2c0,0-0.2-0.4,0-0.4c0.2,0,0,0.2,0.2,0.2c0.6,0.2,0.9,0.7,1.4,1.1c0.1-0.3,0.4-0.4,0.7-0.5
	c0-0.4-0.6-0.3-0.6-0.7c0-0.4,0-0.2,0-0.3c-0.1-0.1-0.2-0.2-0.2-0.3c0-0.1,0-0.3,0.1-0.4c0.3-0.1,0.5-0.1,0.8,0
	c0.6,0.7,1.4,1.3,2.3,1.6c0-0.7-0.6-0.8-0.8-1.3c-0.2-0.5,0.3,0,0.5,0c0.1-0.2,0.2-0.3,0.4-0.3c0.1,0,0.2,0.2,0.3,0.2
	c0.1-0.2,0.3-0.4,0.6-0.5c0.5,0.4,1,0.8,1.4,1.3c0.2,0,0.4,0.2,0.5,0c0.1-0.2-0.5-0.4-0.6-0.8c0.1-0.1,0.2-0.2,0.3-0.4
	c0,0,0,0-0.1,0s0,0,0,0s0-0.3,0-0.4s-0.1,0-0.1,0s0-0.7-0.1-1c0.5,0,0.4,0.7,0.8,0.9c-0.1-0.1-0.1-0.2,0-0.3s0.1-0.2,0.2-0.2
	c0.7,0.5,0.9,1.3,1.8,1.4c0,0,0-0.4,0-0.6c0-0.2,0.2-0.2,0.3-0.2c0.2,0,0.3,0,0.4,0s0-0.8-0.2-1c-0.2-0.3,0.2,0,0.1-0.2
	s0-0.7,0.2-0.8c0.2-0.1,0-0.5,0.3-0.4c0,0.5-0.4,1.3,0,1.7c-0.1,0.4,0,0.7,0.2,1h0.4c0,0.3,0.3,0.2,0.1,0.6c0.2,0,0.2,0.2,0.4,0.3
	c0,0.4,0,0.8,0,1.2c0.3,0,0.4-0.3,0.4-0.6c0-0.3-0.3-0.5-0.2-1c0.2,0,0.2-0.2,0.4,0c0.3-0.3,0.2-0.6,0.3-1.1
	c0.1-0.5,0.5-1.2,0.8-1.7c-0.1-0.1-0.1-0.1-0.2-0.2c0-0.2,0-0.4,0-0.6c-0.2,0,0-0.3-0.2-0.3c-0.2,0-0.1-0.2-0.4-0.2
	c-0.2-0.6-0.9-0.8-1.2-1.2c-0.5,0-0.9,0-1.1,0.4c-0.3,0-0.5,0.1-0.8,0.2c0,0,0,0.3-0.2,0.3c-0.2,0-0.2,0-0.3,0s0,0.2,0,0.2
	c0,0-0.3,0-0.4,0.2c-0.1,0.2,0,0.4-0.2,0.5c-0.2,0.1,0.1,0.3,0.4,0.3c0.3-0.1,0,0.3,0.1,0.5c0.1,0.2-0.2,0-0.3,0.2s0.2,0.2,0,0.4
	s-0.5,0-1,0c-0.4,0-0.1-0.4-0.1-0.9c-0.3-0.1-0.4-0.4-0.4-0.8c-0.2,0-0.2-0.4-0.4-0.5c-0.2-0.1-0.4-0.2-0.5-0.4c-0.1,0-0.3,0-0.4,0
	c0-0.3-0.4-0.3-0.7-0.4c-0.3-0.1-0.4-0.4-0.6-0.5s0.2,0,0.2-0.3s0.4,0,0.6,0c0.1,0,0,0.2,0.2,0.2s0.3,0,0.4,0.2
	c0.3,0.1,0.6,0.2,0.9,0.2c0,0.2,0.3,0.3,0.4,0.4c0.1,0.1,0,0,0.1,0s0.3,0.6,0.7,0.7c0.5-0.3,0.8-0.9,1.5-1c0.4-0.4,0.8-0.6,1.3-0.6
	c0-0.3,0.4,0,0.7,0c0.2,0.4,0.5,0.6,0.9,0.7c0.3,0.7,1.1,0.9,1.1,1.9c0.2,0,0,0.2,0.3,0.2c0.3-0.1,0-0.3,0-0.6
	c0.5-0.5,0.7-1.2,1.1-1.7c0-0.2,0-0.2,0-0.3c0.3-0.2,0.5-0.5,0.7-0.8C35.3,6,35.7,5.6,36,5c0.2,0,0.4-0.3,0.4-0.5
	c0-0.3,0.4-0.3,0.6-0.5c0.2-0.2,0.2,0,0.3,0s0-0.2,0.2-0.3c0.2-0.1,0.2,0,0.2,0c0.1-0.1,0.3-0.3,0.3-0.5c0.9-0.3,1.4-1,2.4-1.2
	c0.2-0.2,0.5-0.4,0.8-0.5c0.2-0.4,0.7-0.5,1-0.8c0.6-0.1,1.3-0.2,1.9-0.5c0.3,0,0.6,0,0.9,0c0.6,0,1.1-0.1,1.7-0.3
	c0.2,0.3,0.8,0,0.9,0c1.1-0.1,2.2-0.1,3.4,0c0,0,0,0.2,0.1,0.1c0.7,0,1.3,0.1,2,0.3c0.2,0.4,0.8,0.3,1.3,0.4c0.9,0.4,1.8,1,2.7,1.6
	h0.3c0.5,0.5,1,0.9,1.6,1.2c0.2,0.3,0.4,0.6,0.8,0.7c0.2,0.6,0.7,0.9,1.1,1.2C61,6,61.4,6.3,61.8,6.5c0.1,0.5,0.6,0.7,0.7,1.3
	c0.6,0.5,1.1,1.2,1.2,2c0.2,0.2,0.3,0.5,0.3,0.8c0.1,0,0.1,0.2,0.3,0.2c0,0.5,0.4,0.7,0.3,1.3c0.2,0,0,0.2,0.2,0.2
	c0.1,0.4,0.1,0.7,0.3,1.1c0,0.4,0.2,0.8,0.3,1.1v0.7l0.4,2.8c0,0.2,0,0.3,0,0.5l-0.2,2.5L64.8,24l-0.9,2.5c-0.3,0.2-0.4,0.5-0.6,0.7
	c0.1,0.5-0.1,1.1-0.5,1.3c0,0.2,0,0.2,0,0.4c-0.5,0.4-0.9,1-1.1,1.6c-0.3,0-0.4,0.4-0.5,0.5c-0.1,0.1-0.6,0.4-0.7,0.7
	c-0.6,0.2-0.8,0.9-1.5,1.1c-0.3,0.6-1.1,0.7-1.4,1.3c-0.9,0.2-1.4,0.9-2.4,1.1c0,0.3-0.2,0-0.2,0.3c-1.5,0-2.1,1.1-3.8,0.9
	c0,0.2-0.4,0.2-0.6,0.2c-0.2,0-0.6,0-0.8,0s0,0-0.2,0.1c-1.2,0-2.4-0.1-3.7-0.2c-0.2-0.2-0.8-0.2-1.1-0.2c-0.4-0.1-0.9-0.2-1.1-0.3
	c-0.2-0.1-0.4-0.1-0.5-0.2c-0.1-0.1-0.4,0-0.6,0c-0.8-0.5-1.7-0.8-2.4-1.2c-0.7-0.5-1.4-1.1-2.4-1.3c-0.2-0.3-0.4-0.6-0.6-0.8
	c-0.4-0.2-0.8-0.5-1-0.9c0.2,0.1,0.5,0,0.6-0.3c0.5,0,0.5,0.3,0.7,0.5c0.2,0.2,0.4,0,0.5,0.3c0.2,0.3,0.3,0.3,0.5,0.4
	c0.3,0.1,0-0.2,0-0.3s0.2,0,0.1-0.3s0.4,0,0.4,0.4c0,0.4,0.4,0.2,0.8,0.2c0.3,0-0.2,0-0.1-0.4c0.4,0.1,0.7,0.3,1,0.6
	c-0.2,0-0.4-0.2-0.5,0c-0.1,0.2,0.2,0.2,0.3,0.4c0.1,0.1-0.1,0.2-0.2,0.3c-0.2-0.1-0.3-0.2-0.5-0.2c-0.2-0.2-0.3-0.4-0.5-0.6
	c-0.2,0,0,0.3,0,0.4c0.2,0,0.4,0.2,0.4,0.4c0.3,0,0.5,0.2,0.6,0.4h0.3c0.4,0.4,1.1,0.5,1.5,0.9c0.4,0.1,0.8,0.2,1.2,0.4
	c0.3,0,0.6,0,0.7,0.2c0.5,0,0.8,0,0.9,0.5s-0.4,0.2-0.5,0.3c0,0,0,0-0.2,0c-0.2,0,0,0.2,0.2,0c0.1,0,0.2,0.1,0.3,0.2l0.5-0.2
	c0-0.2-0.3,0-0.2-0.4c0.1-0.4,0.5,0,0.5-0.3c0-0.3-0.9-0.2-1.1-0.5h-0.4c0,0-0.1-0.2-0.2-0.2c0.3-0.4,0.9,0.1,1.4,0
	c0-0.3-0.5,0-0.5-0.4c0.3,0,0.7,0,1,0c0.2,0,0,0.3,0,0.5c0.4,0,0.8,0.2,1.1,0.3c0,0-0.1,0-0.2,0.2c-0.3-0.1-0.6-0.1-0.8,0
	c0,0.3,0.4,0.2,0.5,0.2h0.7c0,0,0,0,0.1-0.1c0.5,0,1,0.1,1.4,0c0-0.2,0-0.3-0.1-0.4c0-0.2,0.2,0,0.3-0.2c0-0.2-0.2-0.2-0.2-0.4
	s0.9-0.3,1,0c0,0.2-0.5,0-0.5,0s0.7,0,1,0c0.4,0,0.3-0.3,0.5,0c-0.2,0.3-0.8,0.2-0.9,0.5c-0.2,0.3-0.6,0-0.7,0s0.9-0.3,1.1,0.2H51
	c0,0,0,0,0,0.3h0.4c0.1-0.1,0.1-0.2,0-0.4h0.4c0-0.2,0.2-0.3,0.3-0.4c1,0.2,1.2-0.6,2.1-0.5c0,0,0-0.2,0-0.3s-0.3,0.2-0.7,0
	c0.3-0.3,0.6-0.5,1-0.5c0,0.2,0.1,0.5,0.2,0.7c0,0.2,0.2,0,0,0.3h0.5c0-0.2,0-0.2,0-0.4c0.5,0,0.7-0.3,1.1-0.3
	c0.1-0.2,0.1-0.4,0.2-0.7c-0.2,0-0.4,0-0.4-0.2c0.3-0.3,0.5-0.8,0.4-1.3c-0.2,0-0.3,0.2-0.6,0c0-0.1,0-0.2,0.1-0.3
	c0.1-0.1,0.2-0.1,0.3-0.1c0-0.3,0.3-0.3,0.3-0.5c0-0.2,0.3-0.2,0.7-0.2s0,0.3,0,0.3c0,0,0.2-0.3,0.6-0.2c0-0.4,0.5-0.6,0.7-0.9h0.3
	c0-0.5,0.4-0.5,0.4-0.9h0.2v-0.3c0.4,0,0.3-0.6,0.8-0.6s0,0.4,0,0.6c0,0.2,0.2-0.3,0.5-0.2c0,0.4-0.4,0.8-0.6,1
	c0.4,0.2,0.7-0.5,0.9-0.7c0.2-0.2,0.4-0.2,0.3-0.6c0-0.4-0.2,0-0.4,0c-0.2,0,0.1-0.6,0-0.7h-0.3c0-0.1,0-0.2,0-0.4
	c0.3-0.4,0.6-0.8,0.8-1.3c0,0,0.2,0,0.3,0c0.1,0,0-0.7,0.4-0.8h0.1c0,0.3-0.2,0.3-0.2,0.6c0.4-0.4,0.7-0.9,0.7-1.5
	c-0.2,0-0.1,0.4-0.4,0.3c-0.1-0.3-0.1-0.6,0.1-0.9c0.1-0.4,0.3-0.8,0.5-1.2c-0.1-0.2-0.1-0.4-0.1-0.6c0.3,0,0.4-0.2,0.5-0.5
	c0.4,0,0.2-0.8,0.2-1c0-0.2-0.1,0.3-0.2,0.5l0,0c0-0.5,0.1-1.3,0-1.7c-0.2,0.2,0,0.7-0.1,1s0,0.2,0,0.4c0,0.3-0.2,0.7-0.2,1.2
	c-0.2,0.2-0.7,0-0.9,0.2s0,0,0,0s-0.8,0-1.1,0c-0.4,0,0,0-0.1,0.2c-0.1,0.2,0.2,0.1,0.3,0.2c0,0.6,0.7,0.6,0.5,1.4
	c0.2,0.1,0.4,0.2,0.6,0.2c-0.1,0.2,0,0.6-0.4,0.7c0,0.6-0.2,1.1-0.6,1.3c-0.1-0.1-0.1-0.3-0.2-0.4c-0.4,0-0.8,0.1-1.2,0.3
	c0,0,0,0,0-0.2c-0.2,0.1-0.3,0.2-0.5,0.3c0.2,0.5,0.6,0.8,0.8,1.3c0.2,0,0.2,0,0.4,0s0,0.3-0.2,0.4c0,0-0.3,0-0.3,0
	c0,0,0.2,0,0.3,0.1c0,0.5-0.5,0.7-0.6,1.1s-0.1-0.2-0.3-0.1c-0.2,0.1-0.2,0.3-0.2,0.5c-0.3,0.1-0.6-0.1-0.8-0.3
	c0.1-0.3,0.4-0.4,0.6-0.4c-0.1-0.3-0.1-0.9,0.2-0.9c0-0.6-0.2-0.8-0.2-1.3c-0.1,0-0.3-0.3-0.1-0.4c-0.5,0-0.9,0.1-1.3,0.4
	c0,0.3,0.6,0.1,0.7,0.4c0,0.3-0.2,0-0.2,0.2c0,0.2-0.1,0.3-0.1,0.5c0,0.2-0.3,0.4-0.5,0.5c-0.2,0.2,0,0.6,0,1
	c-0.4,0.3-0.9,0.4-1.3,0.2c0-0.4-0.4-0.6-0.5-0.9c-0.2-0.3-0.5-0.4-0.8-0.4V27c-0.4,0-0.4-0.4-0.6-0.6s0.3-0.2,0.5-0.2
	c0.2,0,0-0.2,0-0.4c0.6,0,1.1,0.6,0.7,1c0,0.2,0.2,0.4,0.4,0.4c0.2,0-0.2-0.3,0-0.5c0.3,0.1,0.6,0.2,0.9,0.4c0.1,0,0.2,0.4,0.4,0.4
	c-0.3-0.3,0.2-1.2-0.4-1.3c0,0.3,0.2,0.4,0.1,0.7h-0.2c0,0-0.1-0.2,0-0.3c-0.4,0-0.3-0.3-0.7-0.3L55.5,26c0-0.2,0.2-0.3,0.5-0.2
	c0.3,0.1,0.1-0.2,0.2-0.4c0-0.2,0.4,0.2,0.6,0.3c0-0.2-0.1-0.3-0.3-0.4c0-0.2,0.2,0,0.1-0.3c-0.1-0.3,0.2,0,0.4,0
	c-0.4-0.3-0.6-0.7-0.7-1.2c-0.4,0-0.7,0-0.6-0.6s-0.3-0.4-0.3-0.7v0.2c0.2,0.4,0.7,0.6,1.1,0.6c0,0.2,0.3,0.2,0.6,0.2
	c0.2,0.3,0.3,0.6,0.6,0.8h0.1h0.1c0.1,0.3,0.5-0.1,0.7-0.2c0.2,0,0.4,0.3,0.8,0.3c0-0.3-0.4-0.2-0.5-0.5c-0.9,0-1.1-0.5-1.8-0.6
	c-0.1-0.3-0.4-0.4-0.3-0.9c-0.3-0.3-0.9-0.2-1-0.7c-0.3-0.1-0.5-0.3-0.8-0.5c0.8-0.2,1.2,0.6,2.1,0.5c0.3,0.3,0.8,0.8,1.3,0.7
	c-0.2-0.2-0.5-0.2-0.8-0.4s0-0.3,0-0.5h0.2c0,0,0.1,0,0,0.2s0.5,0,0.5,0.2c0.8-0.1,0.8,0.5,1.5,0.5c0.1,0.1,0.3,0.2,0.4,0.2
	c0-0.2-0.2,0-0.2-0.3c0.1-0.2,0.3-0.3,0.5-0.4c-0.6-0.4-1.3-0.5-2-0.3c-0.4-0.6-1.6-0.2-1.9-0.9c-0.3,0.2-0.7,0.1-0.9-0.2
	c-0.3,0-0.9,0-1-0.2v-0.1h0.2c0,0-0.3,0-0.2-0.4c0-0.4,0.3,0,0.3-0.2c0.5,0.3,1.6,0,1.8,0.6c0.7,0,1.5,0.1,2.2,0.4v-0.1
	c0.8,0.3,2.2,0.5,2.8,0c0-0.3,0.1-0.6,0.3-0.8c0-0.5,0-0.9,0.4-1c0-0.6,0.2-0.8,0.2-1.4c-0.1,0-0.4-0.4-0.2-0.5
	c-0.3-0.4-0.8-0.5-0.7-1.3c-0.7,0-0.8,0.4-1.5,0.4c0,0.2-0.3,0.2-0.2,0.4s0.1-0.2,0.4,0s0.7,0.3,0.9,0.5c0.3,0.2,0,0.4,0,0.4
	c0,0.1-0.5,0.3-0.5,0.7c0,0.4-0.2,0-0.3,0.1c0.1,0.5,0.4,0.9,0.8,1.2c0,0.2,0,0.4,0,0.6c-0.2,0.2-0.7,0.2-0.8,0.5
	c-0.5,0-1.1,0.2-1.7,0.2c-0.2,0-0.3-0.3-0.5-0.4c-0.2-0.1,0.4-0.2,0.6-0.2c0.2,0,0.7,0.2,0.9,0c0-0.1,0-0.2,0-0.3
	c-0.3,0-0.6-0.2-0.9-0.3c-0.3-0.1-0.4-0.3-0.4-0.6c0.4,0,0.6-0.2,1-0.2c0-0.2,0-0.4,0-0.6s-0.5,0-0.5-0.4h-0.4
	c-0.8-0.5-1.6,0.2-2.6,0.1c-0.4,0.1-0.9,0.1-1.3,0c0-0.6,0.9-0.4,1.2-0.8c0.4,0,0.5,0.2,0.9,0.2c0-0.2,0-0.3,0-0.4
	c0.4,0.1,0.9,0,1.2-0.3c-0.2-0.2-0.3,0-0.4,0.2c-0.3,0-0.5,0-0.8,0l0,0c0,0-0.4,0-0.5,0s0,0,0,0s-0.4,0-0.5,0s0,0,0,0.1
	c0,0.1-0.6,0-0.5,0.2c0,0.2-0.5-0.2-0.5-0.5s0,0.2-0.2,0c0,0.2,0,0.3,0,0.5c-1-0.2-1.3,0.5-2.1,0.5c-0.1,0.2-0.3,0.4-0.6,0.5v0.6
	c0.4,0,0.7,0,1,0s0,0,0,0s0.9,0.2,1,0.4c0,0.5-0.8,0.2-0.9,0.6c-0.1,0.4-0.6,0.5-0.9,0.5s0-0.2,0-0.3c-0.3,0-0.6,0-0.8,0.1
	c0,0.4-0.2,0.4-0.1,0.7c0.1,0.4,0.3,0.3,0.5,0.5s0,0.3,0,0.4c-0.3,0.1-0.6,0-0.8-0.3c0,0.1,0,0.2-0.1,0.3c-0.3,0-0.3-0.2-0.4-0.3
	c-0.1-0.1-0.6,0-0.8,0.2c0.2,0.4,0.7,0,1,0.2c0.3,0.2,0.2,0.4,0.5,0.5c0,0.2,0,0.4-0.1,0.6c0,0.3,0.2,0.4,0.1,0.7H51
	c-0.3-0.6-0.7-1.1-1.1-1.6c-0.2,0-0.2,0-0.3,0c0,0.4,0.2,0.4,0.3,0.6c0.1,0.2,0,0.7-0.2,0.8c0.2,0.3,0,1,0.2,1.4
	c0.2,0.4-0.2,0.2-0.3,0.3c-0.3-0.2-0.6-0.5-0.8-0.8c0.2-0.3,0-0.8,0-1.3s0.3-0.2,0.3-0.4c0-0.2-0.6-0.3-0.9-0.3s0-0.2-0.3-0.2
	c0.1,0.1,0.1,0.3,0,0.4c0,0.1-0.2,0.2-0.3,0.3c0,0.5-0.2,0.7-0.3,1.1s0,0.1,0,0.2c-0.1,0.3-0.2,0.6-0.1,0.9
	c-0.2,0.2-0.2,0.6-0.5,0.7c-0.3,0.1-0.1,0-0.2,0c-0.1,0,0-1,0-1.5c0.3-0.6,0.5-1.3,0.4-2c-0.1,0-0.2,0-0.3,0c-0.2,0,0,0,0,0
	c-0.2,0.5-0.4,0.9-0.6,1.4c0,0,0,0.1-0.1,0v0.1c-0.4,0.6-0.7,1.2-1.2,1.8h-0.4c0-0.4,0-0.6,0.4-0.7c0.2-0.8,0.9-1.1,1.1-2.1
	c0.2,0,0-0.2,0.2-0.3c0.2-0.1,0.2-0.1,0.2-0.3s-0.2-0.3-0.4-0.3s-0.3,0.3-0.4,0.5c-0.1,0.2-0.3,0-0.4,0c-0.1,0-0.2,0.1-0.3,0.3
	c-0.8,0-0.9,0.9-1.5,1.2c0,0.3-0.2,0.3-0.2,0.5c-0.6,0-0.6,0.6-1.1,0.7c0,0.3-0.2,0.4-0.2,0.6c0,0.2-0.3,0-0.3,0
	c0.1,0.7-0.3,0.9-0.4,1.3c-0.2,0-0.2,0.2-0.5,0s0,0.4-0.2,0.5c-0.2,0.1,0.2-0.3,0.5,0c0.3,0.3,0-0.2,0-0.2c0,0,0.3-0.3,0.4-0.5
	c0.5-0.2,0.9-0.4,1.2-0.8c0.2,0,0.4,0.1,0.6,0.3c0.2-0.2,0.6-0.2,0.8-0.4c0.2-0.2,0.2,0.2,0.1,0.5c-0.1,0.3,0.3-0.3,0.7-0.2
	s-0.1,0-0.1,0c0,0.5-0.2,0.9-0.6,1.2c0,0.4-0.3,0.9-0.7,0.9H43c-0.4,0.3-0.7,0.7-0.8,1.2c0.1,0,0.1,0,0.3,0c0-0.5,0.6-0.5,0.6-1.1
	c0,0,0,0,0.1-0.1c0,0,0,0.3,0.1,0.2c-0.2,0.2-0.2,0.6-0.5,0.7c-0.3,0.1,0.2,0.1,0,0.3c-0.2,0.2-0.3,0.8-1,0.7c0,0.3,0,0.3,0,0.6
	c-0.4,0.2-0.8,0.3-0.9,0.9c0.4,0.4,1,0.6,1.4,1c-0.9,0.2-1.5-0.5-2-0.9c-0.4,0-0.7,0-0.6-0.6c0.2,0,0.2,0.2,0.5,0.2
	c0.3-0.1-0.4-0.2-0.4-0.5c0-0.3-0.2,0-0.4,0c-0.2,0-0.3,0.1-0.4,0.2c-0.1,0.1-0.2-0.3,0-0.3c-0.1-0.1-0.3-0.2-0.5-0.3
	c0-0.3,0-0.4-0.3-0.4c-0.3,0.1,0-0.3,0-0.5c0-0.2-0.2,0.2-0.4,0C37.4,29,37,28.5,36.7,28c0-0.2,0.2,0,0.1-0.3s-0.3,0-0.5,0
	c0,0,0.1,0,0.1,0c0.3,0,0.3,0.2,0.7,0.1c0.1-0.2,0.2-0.5,0.2-0.8c0.1-0.3,0.5-0.3,0.5-0.7c-0.6,0-1.2-0.1-1.7-0.4
	c-0.1,0-0.2,0.1-0.3,0.2c0,0.2,0,0.2,0.1,0.2s0.2,0.4,0.1,0.4c0,0,0,0.4,0.1,0.5c0.1,0.1-0.2,0-0.1,0.2c-0.7-0.4-1.2-1.1-1.2-1.9
	c-0.1,0-0.2,0-0.3-0.2s0-0.5-0.2-0.6c0-0.5-0.4-0.5-0.3-1c-0.2,0-0.1-0.5-0.3-0.6c-0.2-0.1,0-0.4,0-0.5c-0.1-0.2-0.2-0.4-0.3-0.6
	c-0.1-0.4,0-0.7-0.2-0.9c0.1-0.1,0.1-0.3,0.2-0.4c-0.3-0.4-0.6-0.8-0.8-1.2c-0.2,0-0.2,0-0.4,0c-0.2,0,0-0.1,0-0.2
	c-0.4,0-0.4-0.3-0.7-0.4c-0.7,0.4-1.6,0.7-2.4,0.8c0,0.4,0,0.7-0.4,0.7c0.2,0.4,0.2,0.9,0.2,1.4c0.2,0,0,0.2,0.3,0.2v0.7
	c0.1,0,0.2,0,0.3,0c0,0.2,0.4,0,0.4,0.3c0,0.3,0.6,0,0.7,0.2c0.1-0.1,0.2-0.2,0.4-0.3c0.1-0.7,0-1.6-0.8-1.6
	c-0.1-0.8,0.5-0.7,0.8-0.9h0.2c0.2,0,0.3,0.3,0.5,0.4c0,0.3,0.2,0.5,0.4,0.7c0,0.4,0,0.9,0,1.3l0,0c0,0.1,0,0.2,0,0.3l0,0
	c0,0,0,0.4,0,0.5s0,0,0,0s0,0.5,0,0.7c0,0.2,0.3,0.7,0.6,0.9c0.3,0.2,0,0.7,0.3,0.8c0,0.1,0,0.3,0,0.5c0.2,0,0.2-0.2,0.3-0.2
	c0.2,0,0.3,0.4,0.4,0.8c-0.2,0,0-0.3-0.3-0.2c0,0.2,0.2,0.5,0.4,0.6v-0.2c0.4,0,0.4,0.7,0.9,0.8c0-0.2,0-0.2,0-0.4
	c0.2,0,0.4,0.2,0.4,0.5c0,0.3-0.2,0.2-0.4,0.2c0,0.3,0.1,0.5,0.3,0.7c0,0-0.1,0.2-0.3,0.3s0.3,0.4,0.4,0.7c0.1,0.2,0.3-0.3,0.6-0.2
	c0,0,0.1,0.2,0.2,0.2c0,0.1,0-0.3-0.1-0.2V29c0.4,0,0.4,0.4,0.8,0.4c0.1,0.1,0.1,0.2,0,0.3l0.1,0.5c0,0,0,0.2-0.2,0
	c0.2,0.3,0.4,0.6,0.6,0.9c-0.1,0.2-0.3,0.3-0.5,0.4c0,0,0-0.2,0-0.2s0,0.2-0.2,0c-0.2-0.2-0.4-0.3-0.4-0.6c-0.5,0-0.5-0.7-0.9-0.9
	c0-0.2,0-0.2,0-0.4s-0.2-0.4-0.5-0.5c-0.2-0.1-0.2,0-0.3,0c0.1-0.2,0.1-0.4,0-0.6c0-0.1,0-0.2,0-0.3c0,0-0.3-0.1-0.3-0.2
	c0-0.1,0-0.3-0.2-0.4c-0.2-0.1-0.5-0.3-0.5-0.5c0-0.2-0.6-0.3-0.6,0h0.3c0,0.4-0.2,0.4-0.3,0.6c-0.1,0.2,0.2,0,0.2,0.3
	c0,0.3-0.2,0.6-0.5,0.8c-0.2,0.6-0.7,1.1-1.3,1.3v0.2c-0.5,0.2-1.1,0-1.4-0.5c-0.1,0-0.2,0-0.4,0c-0.1-0.4-0.6-0.6-1.2-0.6
	c-0.1-0.2-0.3-0.3-0.5-0.4c0-0.2,0-0.3,0-0.5c-0.3,0-0.5-0.2-0.7-0.4c-0.1,0.2-0.1,0.4,0,0.6c-0.3,0-0.4,0.4-0.7,0.4
	c-0.1,0.3-0.4,0.4-0.7,0.3c-0.3,0.6-1,0.6-1.6,0.8c-1-0.6-1.6-1.8-2.8-2.2c0-0.3-0.2-0.2-0.1-0.5c0.1-0.3-0.2-0.3-0.4-0.5
	c-0.2-0.1-0.5-0.1-0.7,0c-0.1,0-0.3,0-0.4,0c-0.1,0,0,0,0,0c-0.7,0-1.6-0.2-2,0c-0.4-0.2-1.2,0-1.1-0.8c-0.5-0.3-0.5-1-0.8-1.6
	c-0.3,0.3-0.6,0.4-1,0.3c0-0.2-0.1-0.3-0.1-0.5c0-0.2-0.1-0.6-0.1-0.6s0-0.4,0.2-0.4c0.2,0.3,0.4,0.7,0.4,1c0.3,0,0.5,0.3,0.5,0.5
	c0.5,0.3,0.8,0.8,1.2,1.3c0.5,0,1,0.1,1.4,0.4c0.4-0.3,1.2-0.2,1.8-0.2c0.1-0.2,0.5-0.5,0.3-0.8c-0.2-0.4-0.4,0.2-0.5,0.3
	c-0.3-0.1-0.6,0-0.9,0.1c-0.2-0.3-0.6,0-0.7-0.3c-0.1-0.3,0.5,0,0.5-0.4c0-0.4-0.4,0-0.3-0.1c0-0.1,0.3,0,0.3-0.4c0-0.4-0.3,0-0.5,0
	c-0.1,0-0.2-0.3-0.4-0.4s0,0.3-0.2,0.2H17v-0.4c-0.3,0-0.4,0-0.6,0.2c-0.2,0.2,0.2-0.4,0-0.5s-0.2,0.3-0.2,0.5c0,0.2-0.1,0.2-0.3,0
	c-0.2-0.2-0.2-0.3-0.2-0.5c-0.7-0.1-0.2-1,0.2-1.1c0.4-0.1,0.2,0.3,0.3,0.4c0.4,0.1,0.8,0.1,1.1-0.2c0-0.7,0.8-0.2,1-0.5
	c0.2-0.3-0.3,0-0.3-0.1c0-0.1,0.4-0.3,0.5-0.6c0.9,0.2,0.9-0.6,1.7-0.6c0,0.3-0.2,0.3,0,0.5s0.4-0.4,0.7-0.3c0.3,0.2-0.3,0.2,0,0.3
	c0.3,0.1,0-0.8,0.6-0.7c0,0.2,0,0.4,0.1,0.4c0.1,0,0.5-0.2,0.5-0.6h-0.5c-0.3-0.4-0.6-0.2-1.1-0.2c0,0,0-0.4,0-0.5
	c0-0.1-0.2,0.2-0.3,0.3c-0.2,0.1-0.5-0.1-0.7-0.3c-0.2,0.3-0.6,0.5-0.9,0.5c0,0,0,0,0-0.2c0-0.2-0.1,0-0.2,0c0,0.1,0,0.2,0,0.3
	c0,0.3-0.4,0-0.5,0s0,0.1,0,0.2c-0.3,0-0.5-0.1-0.7-0.3c0-0.2,0.2-0.2,0.2-0.3c0-0.1,0.2,0.1,0.3,0.2c0.1,0.1,0.2-0.5,0.5-0.5
	c0.3,0-0.1,0,0-0.2c0.1-0.2-0.4,0.3-0.6,0c-0.2,0.2-0.4,0.2-0.7,0.1c-0.3,0.5-1.2,0.3-1.7,0.6s-0.3-0.3-0.5-0.3s0-0.2,0-0.2
	s-0.1,0.2-0.2,0.3c0.3,0,0.3,0.4,0.6,0.5s-0.8,0.3-1.1,0.2c-0.3-0.1,0.1,0,0-0.3c-0.1-0.3-0.2,0-0.4,0s0-0.5,0-0.5
	c-0.1-0.1-0.2-0.2-0.3-0.4c0.3-0.3-0.2-0.5,0-0.9c0.3,0,0.3-0.3,0.6-0.2v-0.3c-0.2,0-0.5,0-0.6,0.2h0.1c-0.4,0-0.6,0-0.7-0.4
	c0-0.4-0.2,0.2-0.1,0.4c0,0.2,0,0,0,0s0,0.4,0,0.5c0,0,0,0.3,0,0.4s0,0,0,0s0,0.4,0.2,0.3c0,0.3,0.1,0.5,0.3,0.8c0,0.3,0,0.3,0,0.5
	s0.4,0.2,0.5,0.3c0.1,0.2,0.7-0.6,1.1-0.4c0.4,0.1,0,0.2,0.3,0.2s0.1,0,0.1,0.3c0.3-0.3,0.8-0.4,1-0.8c0.1,0.2,0.3,0,0.3-0.2v0.5
	c-0.3,0-0.5,0.2-0.4,0.7h-0.3c0,0,0,0.3,0,0.4s-0.4,0.8-0.7,0.7c-0.4-0.1-0.2-0.7-0.5-0.8c-0.3,0.1-0.6,0.4-0.6,0.8
	c-0.2,0,0-0.2-0.2-0.3c-0.2-0.1-0.4-0.1-0.5-0.2c0,0,0-0.3,0-0.3s-0.4,0-0.6,0.2c-0.2,0.2,0,0.7-0.5,0.6c-0.2-0.5,0.5-0.9,0-1.2
	c0,0.3,0.1,0.2,0,0.4c-0.1,0.2-0.5,0.4-0.5,0.7c0,0.4-0.3,0-0.3,0.2c0,0.2,0.4,0,0.3,0.2c0,0.2-0.7,0.3-0.8,0.8
	c-0.9,0.2-1.9,0.2-2.8,0c-0.1-0.4-0.2-0.8-0.3-1.2c-0.1-0.3-0.2-0.5-0.3-0.8c-0.3-0.2-0.6-0.3-1-0.3c-0.2-0.3-0.7,0-1-0.2
	s0-0.3,0-0.3s-0.2,0-0.2,0.3c-0.6-0.1-1.2,0-1.7,0.2v-0.3c-0.2,0-0.5,0-0.4,0.2c0.1,0.2,0.2,0,0.4,0c-0.4,0.4-0.9,0.6-1.1,1
	c-0.2,0.4,0,0.7,0,1.1c-0.1,0-0.2,0-0.2,0.2H1.4c0,0.1,0,0.2,0,0.4H0.8c-0.2,0.3-0.5,0.4-0.4,0.9S0.1,25.5,0,25.6v-2.3
	c0,0,0,0,0.2,0c0,0.2,0.2,0,0,0.2c-0.2,0.2,0-0.2,0.3,0c0.3,0.2,0,0.4,0,0.6c0,0.2,0.2,0,0.3-0.2s0-0.7,0-1.2
	c-0.3,0-0.2,0.3-0.4,0.3L0.3,22.7L0.3,22.7z M28.6,11.7c0.2,0,0.1,0.3,0.3,0.2c0.3,0,0-0.3,0-0.3s0-0.5-0.1-0.5h-0.1
	c0,0-0.1,0-0.1,0.2C28.6,11.4,28.5,11.6,28.6,11.7L28.6,11.7z M26,17.6c-0.1-0.6-0.1-1.2-0.1-1.8c-0.5,0.2-0.5,1.7,0,1.9L26,17.6z
	 M17,24.7c-0.2,0-0.2,0-0.4,0c0,0.4,0.3,0.4,0.5,0.3v-0.3L17,24.7z M52.4,34.7c0.5,0.2,0.9-0.1,1.2-0.3c-0.4,0-1,0-1.2,0.5
	L52.4,34.7z M52.3,35.1c0-0.1-0.2-0.3-0.4-0.4c-0.2-0.1-0.7,0.2-0.9,0.3c0.3,0.2,0.8,0,1.1,0L52.3,35.1L52.3,35.1z M41.7,33.5
	c0-0.3-0.5-0.3-0.6-0.5h-0.2C40.9,33.4,41.4,33.3,41.7,33.5L41.7,33.5z M34.4,27.7c0.1,0,0,0,0.3,0c0-0.1-0.2-0.2-0.3-0.2
	c0,0.1,0,0.2,0,0.3L34.4,27.7z M51.8,25.1c0.4,0,0.4,0.4,0.6,0.4s0-0.5,0-0.7c0-0.2-0.2-0.2-0.4-0.2c0,0.2,0,0.3,0,0.5L51.8,25.1z
	 M54.1,20c0.1,0,0.1,0.3,0.3,0.3c0.2,0,0.2,0,0.2,0v-0.5c-0.1,0-0.3,0-0.4,0L54.1,20z M53.5,22.3h-0.1c0.3,0.3,0.8,0.5,1.2,0.4v0
	c0-0.3-0.5-0.3-0.6-0.5h-0.1c-0.3-0.4-0.8-0.7-1.4-0.8c-0.1,0.2-0.1,0.4,0,0.6c0.3-0.1,0.6,0.1,0.8,0.5L53.5,22.3z M62.3,23.2
	c-0.2,0-0.3,0.2-0.3,0.5h0.1C62.1,23.7,62.4,23.4,62.3,23.2L62.3,23.2z M60.4,28c0,0,0,0.2,0.2,0.2s0.2,0,0.2-0.2
	c-0.1,0-0.3,0-0.3,0.2L60.4,28z M58,31c0,0.2-0.2,0,0,0.3h0.2c0.4-0.4,0.9-0.7,1.2-1.3H59C58.8,30.4,58.5,30.8,58,31L58,31z
	 M54.7,11.2c0,0.2-0.2,0.2-0.2,0.5s0.9,0,1-0.5c-0.3,0-0.4,0.2-0.8,0.2L54.7,11.2z M50.9,13.9c0.5-0.2,0.7-0.8,0.6-1.3
	c-0.4,0.3-0.6,0.7-0.6,1.2L50.9,13.9z M38.9,24c0-0.2-0.5-0.2-0.4,0c0.2,0,0.3-0.1,0.4-0.3L38.9,24z M23.5,27.4
	c-0.2,0-0.2,0.4,0,0.3c0.2,0,0.2,0,0.2-0.3L23.5,27.4z M9.3,18.3c0,0,0,0,0,0.2c0,0.2,0.5,0,0.5,0H9.7c0-0.3-0.4-0.2-0.5,0L9.3,18.3
	z M63.1,9.7c0,0.1,0,0.3,0,0.4C63.1,9.9,63.1,9.8,63.1,9.7L63.1,9.7z M42.6,32.2c0,0.2,0,0.3,0,0.5s-0.2,0-0.2,0s0.5,0,0.7,0
	c0.1,0,0,0.2,0,0.3s0.2,0.2,0.5,0.2c0-0.5,0.4-0.4,0.7-0.5c0-0.1,0-0.2-0.1-0.3c-0.1-0.1-0.2-0.2-0.3-0.2c0,0-0.2,0-0.3,0
	c0.3,0,0.3-0.1,0.3-0.1c0.2-0.3,0.2-0.8,0.5-1c0.3-0.2-0.2-0.2,0-0.4s0.2,0,0.3,0c0.1-0.4-0.2-0.7-0.5-0.4V30c0.4-0.1,0.8-0.1,1.3,0
	c0-0.2,0.4-0.4,0.1-0.6c0.2-0.2,0.5-1,0-1c-0.1-0.8-0.1-1.7,0-2.5c0.4-0.3,0.2-1.2,0.7-1.5v-0.3c-0.5,0.3-0.6,1.2-1,1.7
	c-0.4,0.5,0,0.3,0,0.4c0,0.1-0.2,0.2-0.3,0.3s-0.1,0.7-0.3,0.8c-0.1,0.4-0.2,0.9-0.4,1.2h-0.1c0,0,0,0.3,0,0.5c0,0.1-0.4,0.6-0.4,1
	c0,0.4-0.5,0.7-0.5,1.2c-0.6,0-0.3-1-0.7-1.2c-0.2,0.6,0.2,1,0,1.7h0.2c0,0-0.2,0-0.2,0.2L42.6,32.2z M44.6,30.6
	c0,0.5-0.2,0.6,0.1,0.7c0.1-0.3,0.2-0.6,0.4-0.9c0.2,0,0,0.3,0.3,0.2c0.3-0.1,0-0.3,0-0.5c0,0-0.2,0-0.4,0s-0.1,0.3-0.3,0.3
	L44.6,30.6z"/>
</svg>
