<?xml version="1.0" encoding="utf-8"?>
<!-- Generator: Adobe Illustrator 22.1.0, SVG Export Plug-In . SVG Version: 6.00 Build 0)  -->
<svg version="1.1" id="Layer_1" xmlns="http://www.w3.org/2000/svg" xmlns:xlink="http://www.w3.org/1999/xlink" x="0px" y="0px"
	 viewBox="0 0 68 68" style="enable-background:new 0 0 68 68;" xml:space="preserve">
<style type="text/css">
	.st0{fill:#FFF5E1;}
	.st1{fill:#7C6742;}
</style>
<polygon class="st0" points="13,0 14.3,4 12.2,9.4 12.9,13.1 13.6,14.3 8.9,17.3 9.4,21 7,23.2 7.6,26.4 8.7,28.1 6.9,31.1 
	8.9,33.2 3.5,39.8 0.7,45.6 0.4,48.3 0.7,53.3 1.5,56.6 2.7,59.6 4.2,61.3 9,64.7 14.6,66.9 19.4,67.6 22.3,67.6 25.4,66 30,62.9 
	32.3,60 33.5,59.3 35.8,61.1 39.9,59 42.6,61.4 46.6,58.7 50.3,59.1 51.9,57 51.7,55.3 53.4,54.8 58.8,55.6 62.7,53.9 67.1,55.3 
	66.6,45.2 64.1,47.7 59.7,46.1 58.1,46.2 53.5,45.6 50.9,42.2 47.3,42.4 43.2,38.9 39.6,40.6 36.3,38.1 33.4,41.5 31.2,38 
	28.3,35.1 26.5,34 29.5,30.7 27.8,26.4 29.4,23.4 26.3,20.1 26.5,16.1 22.6,13.5 23,10.1 20.7,7.8 20.6,3.9 24,0 "/>
<path class="st1" d="M22.4,34.7c0,0.2,0.2,0.2,0.2,0.3c0,0.1,0.2,0,0.3-0.2c0.1-0.2-0.1-0.3-0.4-0.3C22.2,34.6,22.5,34.5,22.4,34.7
	L22.4,34.7z M25.9,36.2v-0.2h0.1v0.2L25.9,36.2L25.9,36.2z M31.4,41.5c-0.3,0-0.3-0.5-0.6-0.6c-0.1-0.3-0.2-0.5-0.5-0.7
	c0-0.2,0-0.4-0.3-0.4c0,0.1-0.1,0.3-0.1,0.4h0.3c0,0.3,0,0.6,0,0.9c0,0.3-0.3,0.4-0.7,0.4c0.2-0.3,0.4-0.8,0-1.1
	c-0.4-0.3,0.2,0,0.1-0.2c0-0.2-0.2-0.6-0.6-0.7c-0.1-0.3-0.1-0.6,0-0.9c0.2,0,0.4,0,0.6,0c0.1,0.2,0.1,0.5,0.3,0.7
	c0.2,0.2,0.4,0.4,0.6,0.6c0.1,0.2,0,0.3,0.1,0.4l0.3,0.4c0,0.2,0,0.4,0.3,0.5S31.4,41.3,31.4,41.5L31.4,41.5z M31.7,42.2
	c0.5,0,0.4,0.4,0.8,0.5c0.3,0.1-0.1,0.4-0.1,0.6s0.2,0.3,0.4,0.3c0.2,0,0,1,0.5,1.2c0,0.3,0,0.4,0,0.7h-0.3c0-0.3-0.1-0.6-0.3-0.9
	c0,0.3-0.2,0.2-0.2,0.5c-0.5,0.1-0.3-0.5-0.6-0.7c-0.2-0.2-0.2,0.2-0.2,0.5c-0.4,0-0.5,0.5-1,0.4c0,0.1,0,0-0.1,0.2s-0.5,0-0.5-0.2
	c0,0,0,0,0.2,0c0.2,0-0.1,0-0.2,0c0,0,0,0,0,0c-0.6-0.2-0.9,0.4-1.4,0.5c-0.5,0.1-0.5-0.2-0.8,0c0.2-0.4,0.7-0.5,0.8-0.9h0.8
	c0.1,0,0,0.3,0.2,0.2c0.2,0-0.3-0.9,0-1.2s0.5-0.3,0.9-0.3c0-0.2,0.2,0,0.1-0.3c-0.5,0.2-0.9,0-1.5,0c0,0.3-0.4,0.1-0.7,0.2
	c-0.2,0-0.8,0.4-1.1,0.8c-0.2,0-0.2,0-0.3,0c-0.2,0.3-0.5,0.4-0.8,0.4c0-0.2,0.2-0.2,0.2-0.4c0.6-0.3,1.1-0.8,1.5-1.3
	c0.2,0,0.2,0,0.4,0c0.2,0,0.5-0.4,0.5-0.8c0.3,0,0.2-0.2,0.5-0.2c0.1,0.4,0,0.7-0.3,0.9c0.8,0,1.8-0.2,2.5,0c0,0,0-0.2,0-0.3
	L31.7,42.2z M31.1,43.8c0.2,0,0.2-0.2,0.1-0.3C31.1,43.4,31.2,43.7,31.1,43.8z M32.3,41c0-0.2-0.2,0,0-0.3c0.2-0.3,0-0.3,0.3-0.2
	c0.3,0,0,0,0.2,0s0,0.4-0.2,0.5c-0.2,0.2,0,0-0.1,0H32.3z M33.5,41h0.2c0,0.2,0,0.2,0,0.2c0,0.1,0,0.2-0.2,0c-0.2-0.2-0.1-0.2,0-0.3
	V41z M32.3,41.4c0,0,0,0.2-0.2,0.2c-0.2-0.1-0.2,0-0.2-0.3c0-0.3,0.4,0,0.4,0V41.4z M32.7,41.6c0-0.1,0-0.3,0.3-0.3c0.3,0,0,0,0.2,0
	c0.2,0,0,0.3,0,0.5c-0.2,0-0.2-0.3-0.4-0.4L32.7,41.6z M33.2,42.1c-0.1-0.1-0.1-0.2,0-0.3C33.2,41.8,33.2,42.2,33.2,42.1L33.2,42.1z
	 M32.4,41.5c0.5,0,0.4,0.7,0.8,0.8c0.4,0.2,0,0.5-0.2,0.5C32.8,42.4,32.3,42.2,32.4,41.5z M17.9,43.4c-0.1-0.1-0.2-0.3-0.2-0.5
	c0,0,0-0.2,0.3-0.2S18.1,43.4,17.9,43.4L17.9,43.4z M33.3,44.4c0,0-0.1-0.2-0.1-0.2c-0.1-0.2-0.1-0.5,0-0.7c0.2,0,0.2,0,0.4,0
	c0,0.8,0.5,1.2,0.3,2C33.5,45.3,33.6,44.7,33.3,44.4L33.3,44.4z M26.9,47.5c0,0,0.1-0.2,0.3-0.2c0.2,0-0.2,0.4-0.4,0.6
	c0.4,0,0.9-0.1,1.2-0.3h-0.8c0-0.2,0-0.3,0-0.5c0.4,0,0.7-0.4,1.1,0c0.4,0.4-0.1,0.3-0.1,0.5c0.2-0.2,0.5-0.1,0.7,0.1
	c0.1-0.1,0.1-0.2,0.1-0.4c-0.2,0-0.3-0.2-0.3-0.5c0.2-0.2,0.5-0.3,0.8-0.2c0-0.3,0.5-0.2,0.9-0.2c0.1-0.3,0.3-0.5,0.6-0.7
	c0-0.2,0-0.3,0-0.5c0.2-0.1,0.3-0.4,0.7-0.3c-0.2,0.6,0.2,0.8,0,1.3c0.3-0.1,0.5,0,0.7,0.2c0.1-0.1,0.4-0.2,0.5-0.1
	c0,0.3-0.2,0.2,0,0.5h-0.7c0,0.2-0.1,0.5-0.3,0.6c-0.3-0.5-1.6-0.4-2.1-0.2c0.2,0.3,0.6,0,1,0.2s0.5,0.4,0.6,0.6
	c0.2,0.2-0.5,0.2-0.5,0.5c0,0.4-0.3,0-0.2,0c-1,0.2-1.7-0.5-2.5,0c-0.2,0-0.2,0-0.3,0c-0.1,0-0.8,0-1.2,0c-0.4,0-0.3,0.2-0.4,0.2
	c-0.1,0-0.7,0-0.8-0.3c-0.1-0.3,0.2-0.2,0.3-0.4c0-0.2-0.1,0-0.2,0s0,0.3-0.2,0.2h-0.2c0-0.2,0,0,0-0.2c0.4-0.3,1.1-0.8,1.8-0.4
	L26.9,47.5z M33.2,46.2h0.2H33.2V46V46.2z M33.5,47c0,0-0.1-0.2,0-0.4h0.2c0,0,0,0.4,0,0.3L33.5,47z M34,51.7c0,0-0.2,0-0.2,0
	s0,1.1-0.2,1.3c-0.2-0.3,0-0.7,0-1.1s-0.5,0-0.7,0s0-0.2,0-0.4s0.5-0.6,0.8-0.8c0-0.8,0-1.6-0.1-2.3c-0.3,0-0.3-0.5-0.8-0.4
	c0-0.5,0.3-0.5,0.4-1c0-0.4,0.4,0,0.7,0.1c0.2,0.1,0-0.2,0.3,0c0.3,0.2,0,0.9,0,1.1s0.3,0.3,0.3,0.5s-0.1,0.5,0,0.7
	c-0.3,0.4,0.2,1-0.2,1.3c0,0.2,0.2,0,0.1,0.2c-0.1,0.2,0,0.4,0,0.6L34,51.7z M17.9,47.3c-0.2,0,0-0.2-0.2-0.1
	c-0.2,0.1-0.7,0.4-0.9,0.2V47c0.5,0,1.1-0.3,1.3,0.2C18.2,47.2,18.2,47.3,17.9,47.3z M16,49c-0.2,0-0.3,0-0.5,0c0-0.9,0.7-1,0.9-1.7
	h0.3c0,0.2,0,0.3,0,0.5C16.3,48.2,16.1,48.6,16,49L16,49z M31.2,48.8c0,0,0-0.3,0-0.2C31.2,48.8,31.2,48.9,31.2,48.8z M27.7,51.3
	c0.5,0,1.2,0,1.2,0.4c-0.6,0-1.3,0-1.6-0.2c-0.5,0-0.9,0-1.3-0.2c0,0-0.4,0-0.4-0.2s0.5,0,0.7-0.3c0.1-0.3-0.5,0-0.5-0.4
	c-0.1-0.4,0.4-0.3,0.7-0.2c0.3,0.1,0.2-0.2,0.2-0.4s0.5,0,0.5,0.2c0,0.5,0.7,0.2,0.7,0.5s0.2,0,0.4-0.2c0.1-0.2-0.9,0-0.9-0.3
	c0.3-0.4,0.9,0,1.3,0c0.4,0,0.3-0.3,0.5-0.2c0.1-0.2,0.3-0.4,0.5-0.4c0-0.8,1-0.4,1.7-0.4c0,0.3,0.3,0,0.2,0.4c-0.1,0-0.2,0-0.3,0.2
	c-0.1,0.2,0.2,0,0.3,0.1c0-0.1,0-0.2,0-0.2c0.4,0,0.5,0.7,0.4,1.3c-0.5,0.2-0.7,0-1.2,0v0.3c-0.7-0.1-1.5,0-2.3,0
	c-0.2,0-0.4-0.2-0.4-0.2s-0.2,0-0.3,0c-0.1,0-0.6-0.4-0.8,0c0.3,0.2,0.5,0.3,0.8,0.4L27.7,51.3z M30.6,50c-0.2,0-0.2,0.4,0,0.3
	C30.6,50.2,30.6,50.1,30.6,50z M34.8,49.3c0,0,0,0,0.2,0c0.2,0,0,0.6-0.2,0.6C34.6,49.9,34.6,49.4,34.8,49.3L34.8,49.3z M34.3,50
	c-0.2,0,0-0.5,0-0.8s0,0,0.1,0c0.1,0,0.4,0.7,0,0.8H34.3z M34.4,50.1c0.1,0.3,0.3,1.4-0.2,1.4C34.2,51.2,34.2,50.3,34.4,50.1
	L34.4,50.1z M19.1,49.1c0,0.2,0.3,0.2,0.2,0.5C19.1,49.9,18.8,49.1,19.1,49.1z M34.8,50.3c0,0.2-0.1,0.3-0.2,0
	C34.6,50.1,34.6,50.2,34.8,50.3z M29.6,51.8c0,0,0,0,0,0.1c0,0.1-0.2-0.1-0.3-0.2C29.2,51.7,29.3,51.8,29.6,51.8L29.6,51.8
	L29.6,51.8z M31.1,52.5c-0.3,0-0.6-0.2-0.7-0.5c0.4-0.2,0.5,0.2,0.9,0.2c0,0.2,0,0.3-0.1,0.4L31.1,52.5z M29.8,51.9
	c0-0.2,0.5-0.2,0.6,0C30.3,51.9,30.1,51.9,29.8,51.9L29.8,51.9z M31.7,52.6v0.2h-0.4v-0.3c0,0,0.3,0,0.3,0.2L31.7,52.6z M11.8,52.4
	c0,0.3-0.2,0.3-0.5,0.3C11,52.7,11.5,52.4,11.8,52.4z M33.6,54.6h-0.2v-0.2h0.2V54.6z M33.1,55.4h0.3c0,0.1,0,0.2,0,0.3h-0.3V55.4z
	 M7.6,55.4c0,0.1-0.1,0.2-0.3,0.3C7.3,55.4,7.3,55.2,7.6,55.4z M33.1,57.5h-0.3V57C33.2,57,33.2,57.3,33.1,57.5L33.1,57.5z
	 M23.3,58.5c-0.2,0-0.4-0.2-0.3-0.5c0.1,0,0.2,0,0.3,0.1C23.4,58.2,23.4,58.3,23.3,58.5z M31.1,59.6c-0.2,0,0-0.2-0.2-0.1
	s0-0.4,0.2-0.4v0.4H31L31.1,59.6z M30.8,60.6c0-0.4,0.4-0.5,0.5-0.9h0.3c0,0.5-0.4,0.7-0.6,1.1h-0.2L30.8,60.6z M29.6,61.3
	c0-0.3,0.3-0.8,0.6-0.6C30.1,61,30.1,61.4,29.6,61.3z M12.4,60.4c0-0.2-0.2-0.2-0.3-0.4c0.2-0.1,0.5-0.2,0.7-0.1
	C12.9,60.4,12.6,60.3,12.4,60.4z M25.2,61.7c-0.1,0-0.2,0-0.3,0c-0.1-0.1-0.1-0.3,0-0.4c0.2,0,0.2,0.2,0.3,0.3V61.7z M34.2,44.9
	c-0.4-0.2-0.4-0.8-0.5-1.2c0.2,0.4,0.5,0.7,0.3,1.3L34.2,44.9z M34.5,45.3C34.5,45.3,34.6,45.3,34.5,45.3c-0.1,0.3,0,0.8,0,1.1
	c-0.1-0.3,0-0.7-0.3-1c-0.3-0.2,0.2-0.3,0.4-0.4L34.5,45.3z M32.9,55.9c-0.2,0.3,0,0.8-0.5,0.8v-0.2C32.8,56.4,32.7,55.9,32.9,55.9
	L32.9,55.9z M24.6,45.8c-0.2,0-0.2,0-0.4,0c0-0.2,0.2-0.2,0.2-0.5h0.7C24.9,45.3,24.6,45.3,24.6,45.8z M19.6,43.5c0-0.1,0-0.3,0-0.5
	h0.2c0,0,0,0.2,0,0.2S19.7,43.5,19.6,43.5L19.6,43.5z M22.1,44.2c-0.3,0.2-0.5,0.3-0.5,0.8c-0.2,0.1-0.4,0.1-0.5,0
	c0.1-0.6,0.3-1.1,0.8-1.5c0-0.1,0-0.2,0-0.3c0.3,0,0.2-0.5,0.5-0.6h0c0.1,0.5-0.1,1-0.4,1.3L22.1,44.2z M22.8,34.6
	c0.2-0.2,0.4,0,0.5,0.1c-0.1,0-0.2,0-0.3-0.1s-0.1-0.1-0.1-0.2L22.8,34.6z M27.7,36.4c-0.2,0,0-0.2-0.1-0.4c0,0,0,0.2,0.1,0.2
	c0.1,0,0,0.2-0.2,0.2L27.7,36.4z M30.2,39c-0.3-0.4-0.6-0.7-1-1v-0.3c0.5,0.3,0.8,0.9,1.2,1.2c0,0.1,0,0.2,0,0.4c-0.2,0,0-0.2-0.3,0
	L30.2,39z M11.1,42.7c0-0.4-0.2-0.5-0.2-0.8c0.4,0,0.5,0.7,0.5,1c0,0.4-0.2-0.2-0.4-0.2L11.1,42.7z M13.5,46.9
	c-0.4-0.1-0.8-0.3-1-0.6c0.5-0.1,0.9,0.2,1.1,0.6L13.5,46.9z M23.8,59.2c0.1,0,0.3,0.2,0.2,0.4c-0.2,0-0.2-0.4,0-0.5L23.8,59.2z
	 M11.6,31.7c0.2,0,0.3,0,0.4,0c0,0.1,0,0.2,0,0.3C11.7,32,11.5,32,11.6,31.7L11.6,31.7z M11.2,30.9c0.2,0,0.6,0,0.7,0.3
	c0,0.6-1,0.3-1.5,0.4c0-0.1,0-0.3,0-0.5C10.7,31.1,11.1,31.1,11.2,30.9z M9.1,29.7h0.2H9.1L9.1,29.7z M23.1,28.1h0.1H23.1z
	 M28.1,25.1c-0.2,0-0.3,0-0.3-0.3H28C28,24.8,28,25,28.1,25.1L28.1,25.1z M16.6,23.8c0.5-0.2,0.7,0.4,1.3,0.3v0.3
	c-0.6,0-0.7-0.3-1.3-0.3V23.8z M8,21.9c0.2,0.7-0.6,0.9-0.6,1.4c-0.4,0.2-0.5,0.5-0.9,0.6v-0.2c0.3-0.7,0.8-1.3,1.4-1.7L8,21.9z
	 M8.6,22.8c0.2,0,0.3,0,0.3,0.3H8.7C8.7,23,8.7,22.9,8.6,22.8L8.6,22.8z M9.4,22.4h0.1v0.1H9.4L9.4,22.4z M9.4,19.8
	c-0.2,0.6,0.3,0.6,0.4,1c0.3-0.1,0.6,0,0.8,0.3c0.6,0,0.9,0.2,0.9,0.8c-0.2,0.2-0.5,0.2-0.7,0.2c0-0.2-0.2-0.2-0.2-0.3
	c0-0.1-0.2,0.2-0.3,0.4c-0.3,0-0.7,0-1-0.2c0-0.2,0.2-0.4,0.4-0.4s0-0.3,0.1-0.4c0.1-0.1,0-0.1-0.2-0.2c-0.2-0.1-0.3,0.4-0.7,0.3
	c0-0.2,0.2,0,0.1-0.2S8.9,20.5,9,20h0.4L9.4,19.8z M11.9,21.2c0-0.4-0.4-0.4-0.4-0.8c0.3,0.2,0.8,0.2,0.7,0.8H11.9z M15.7,19
	c-0.1-0.6-0.4-1.2-0.9-1.7c0-0.4,0.2-0.8,0.4-1.2h0.3c0,0.3,0.1,0.6,0.2,0.8c0.2,0,0-0.3,0.1-0.4c0.2,0.3,0.4,0.6,0.4,1
	c0.2,0.4,0.2,0.7,0.2,1.1c-0.1,0,0,0.3-0.2,0.2v0.5c0.1,0,0.1,0.3,0.4,0.2l0,0c0,0,0,0.5-0.2,0.6h-0.1c0-0.2,0-0.6-0.3-0.5
	c0.1-0.5-0.1-1-0.4-1.4V19z M17.4,19.2c0.1,0.1,0.2,0.4,0.2,0.6c-0.2,0-0.3,0.2-0.7,0.2c0-0.3,0.1-0.6,0.2-0.9
	c0.2,0,0.1,0.2,0.2,0.3L17.4,19.2z M8.9,17.3c0.1-0.1,0.3-0.2,0.5-0.2c0.3,0.7,0.3,1.4,0,2.1c0,0.2,0.2,0,0,0.3
	c-0.2,0.3-0.2,0.2-0.4,0.1c0-0.5-0.1-1.1,0-1.3c-0.2-0.3-0.2-0.7-0.2-1.1H8.9z M24.3,18.3c0,0,0.1,0,0.2,0c0,0.1,0,0.1,0,0.2l0,0
	L24.3,18.3z M25.5,18.5c-0.2,0,0-0.3-0.1-0.5c0.3,0,0.2,0.5,0,0.5L25.5,18.5z M25.1,17.8c0.2,0,0.2,0,0.2,0.2
	C25.2,18,25.1,17.9,25.1,17.8L25.1,17.8z M14.1,18.4c0-0.2,0.1-0.1,0-0.3s0,0.2,0.2,0.2c0,0.1,0,0.2,0,0.3
	C14.1,18.6,14.2,18.4,14.1,18.4L14.1,18.4z M20.8,17.5c0.1,0,0.2,0,0.3,0c0,0.3,0,0.3,0,0.5C21,17.9,20.9,17.8,20.8,17.5L20.8,17.5z
	 M10.9,17.1c0-0.3,0.4-0.3,0.3-0.6c0.4,0,0.8,0,1.2,0c0.1-0.2,0.1-0.5,0.4-0.5s0.2,0.4,0.3,0.6c0.1,0.2,0.3,0.2,0.3,0.3
	c0,0.2-0.4-0.2-0.8,0c-0.3,0.2,0,0.2,0,0.3c-0.4,0-0.5-0.2-0.7-0.3c-0.2-0.1-0.7,0.7-1.1,0.3L10.9,17.1z M10.6,16.1
	c0,0.2-0.3,0.5-0.5,0.3C9.8,16.2,10.3,16.1,10.6,16.1z M10.9,15.8h0.2c0,0.2-0.1,0.3-0.2,0.2V15.8z M11.5,15.7
	c0-0.2,0.1-0.3,0.4-0.3c0.2,0,0,0.1,0,0.2h-0.6L11.5,15.7z M15.1,14.4c0.4,0,0.3-0.3,0.7-0.2c0,0.4,0.2,0.5,0.2,0.9
	c0,0.4-0.4,0-0.3,0.1C15.4,15.1,15.1,15,15.1,14.4z M15.9,12.5c0,0-0.1-0.1-0.1-0.1c-0.2,0-0.2,0.1-0.4,0c-0.2-0.1,0.2-0.4,0.6-0.4
	V12.5z M17.4,9.9c0-0.3,0-0.4,0.1-0.5c0.1-0.1,0.2,0.2,0.3,0.2C18,9.6,17.7,9.9,17.4,9.9z M17.4,3.4c0,0.2,0,0.2,0,0.4s-0.2,0-0.3,0
	s0-0.3,0.3-0.3L17.4,3.4z M18.3,30.2c0,0,0-0.1,0-0.1V30.2z M25.8,32.6c0,0,0-0.2-0.2,0v0.2c0,0,0.2,0,0.2,0V32.6z M23.8,18.3
	c0,0,0.2,0,0.3,0c0.2,0-0.1-0.3-0.3-0.3V18.3L23.8,18.3z M23.5,19c0.1,0,0.2,0,0.3,0s-0.2-0.1-0.3-0.2c0,0.1,0,0.2,0,0.3L23.5,19z
	 M23.2,19.8v0.3h0.2C23.5,19.9,23.3,20,23.2,19.8z M25,20.3v-0.1V20.3z M21.9,0.9h0.2c0-0.1,0-0.2,0-0.3c0-0.2-0.2-0.3-0.2,0
	s0,0,0,0v0.2c-0.1,0-0.1,0.2-0.2,0.2c-0.1,0-0.2-0.2-0.3-0.3c-0.2-0.1-0.3,0.4-0.5,0.2c0,0.3,0,0.3,0,0.5s0.7,0,0.8-0.3h0.2V0.9z
	 M9.7,33.5l-0.4,0.2c-0.9,0-1.2-0.8-1.8-1.1c-0.1-0.4-0.3-0.7-0.7-0.9c0-0.3-0.2-0.6,0-0.7c0.1-0.5,0.3-1,0.6-1.4c0-0.7,0.6-1,1-1.5
	c0-0.3-0.5-0.5-0.6-0.7s0-0.1,0-0.2S7.5,27,7.3,26.9c0-0.3-0.1-0.7-0.2-1c0-0.1,0-0.2,0-0.5c0-0.3-0.1,0-0.2-0.2c0-0.2,0-0.4,0-0.6
	c0.2,0,0-0.2,0.3-0.2c0.3,0.1,0.2,0.6,0.5,0.6c0.3,0,0,0.7,0.4,0.7c0.4,0.1,0,0.3,0,0.4c0,0.1,0.3,0.3,0.3,0.5
	c0,0.3,0.3,0.2,0.5,0.4c0.3-0.1,0.6,0.1,0.7,0.4c0.4,0,0.5,0.1,0.8,0.3c0.2,0.1,0.4,0.7,0,1s-0.1-0.2-0.4,0c-0.2,0.2,0,0.3-0.1,0.3
	S9.7,29,9.5,29c-0.2,0-0.2-0.3-0.2-0.5c-0.1-0.2-0.3,0.1-0.5,0.2c-0.1,0.1,0,0.3-0.2,0.5H8.4c0,0,0,0.3,0,0.3c0,0.1-0.2,0-0.3,0.2
	C8,30,7.9,30.2,7.9,30.5c-0.4,0.2-0.4,0.7-0.4,1.1c0.5,0.4,0.6,1.1,1.2,1.3c0,0.3,0.2,0.2,0.2,0.4c0,0.2,0.3,0,0.3,0.2H9.7L9.7,33.5
	z M13.4,32.1l-0.7,0.2c0-0.1,0-0.1,0-0.2C12.9,32,13.1,32,13.4,32.1L13.4,32.1z M25.1,0c-0.5,0-0.7,0.2-0.9,0.4c0,0.2,0,0.5,0,0.7
	c0,0-0.3,0-0.3,0c0,0.2,0,0.5,0,0.7c-0.1,0-0.2,0-0.2,0.2h-1.1c-0.4,0.3-0.7,0.7-1,1.1c0-0.2,0-0.3,0-0.4c0-0.2-0.2,0.3-0.2,0.5h0.2
	c-0.2,0.6-0.2,1.2-0.1,1.8c-0.2,0,0,0.3-0.3,0.2c-0.3-0.1,0.2,0,0.3,0c0.1,0-0.1,0.9,0.2,1.1c0,0.4,0.1,0.7,0.3,1
	c0.3,0.3,0.6,0.6,0.9,0.9c0.4,0,0.7,0.3,1.1,0.3c0.2,1,0.2,1.9,0,2.9c-0.5,0-0.4,0.7-0.8,0.8c-0.4,0.1,0-0.2-0.2-0.3
	c-0.2-0.1,0,0.3-0.2,0.3c-0.2,0.1-0.6,0.2-0.7,0.5c-0.1,0.3-0.1-0.2-0.4,0c0.3,0.5,0.6-0.2,1.2,0c0,0.5-0.4,0.4-0.6,0.5
	c-0.2,0.2,0,0.5-0.1,0.6c-0.1,0.1,0.2,0,0.3,0c0,0.2,0.2,0.3,0.2,0.6s0.3,0,0.3,0.2c-0.4,0.1-0.7,0.3-0.8,0.7
	c0.2,0.3,0.5,0.4,0.8,0.5s-0.6,0.5-0.7,0.8c-0.1,0.3-0.2,0-0.4,0c-0.2,0,0,0.3,0,0.4c-0.4,0-0.6,0.1-0.7,0.4h-0.5
	c0.2,0,0.4-0.2,0.2-0.4c0.4-0.2,0.5-0.7,0.8-1.1c-0.1,0.1-0.2,0.1-0.3,0c0-0.2-0.1-0.2-0.2-0.3c0-0.1,0.4-0.8,0.4-1.2
	c0-0.4-0.2-0.4-0.3-0.5c-0.1-0.2-0.3,0-0.5,0c-0.2-0.2-0.5-0.3-0.7-0.3c0-0.2-0.2,0-0.3-0.2c-0.1-0.2,0,0,0-0.1s-0.3,0-0.4,0
	s0-0.1,0-0.1c-0.1,0-0.3,0-0.4,0l0,0c0,0-0.4,0-0.4,0c0,0,0.4,0.3,0.4,0.7c-0.2,0-0.1,0.4-0.2,0.6h0.1c0-0.4,0.2-0.3,0.1-0.6v-0.2
	c0.3-0.3,0.6,0.3,0.8,0l0.2,0.2c0-0.2,0.4-0.4,0.5-0.2c0,0.1,0,0.3,0,0.4c0.2,0,0-0.2,0.3-0.1c0.3,0.1,0.2,1.1-0.2,1.2
	c0-0.3-0.4-0.3-0.4-0.6c0,0-0.3,0-0.3,0.3c0,0.3,0.2,0,0.3,0s0.1,0.3,0.2,0.4c-0.2,0.6,0,1.4-0.5,1.8c0.1,0.2,0,0.5-0.1,0.7
	c0.2,0,0,0.4,0,0.6s0,0,0.2,0c0.2,0,0.4-0.3,0.5-0.5c0.1-0.3-0.2,0-0.2-0.3c0-0.3,0-0.2,0.3-0.2c0.2,0.2,0.2,0.6,0.3,0.8
	c0.1,0.3,0,0.2-0.2,0.1c-0.2-0.1,0,0.6,0,0.6c-0.1,0-0.2,0-0.2,0V19h0.2c0.1,0.4,0,0.8-0.3,1c0.1,0.2,0.2,0.4,0.3,0.6
	c0,0.2-0.2,0.3-0.3,0.4c-0.1,0.1,0.3,0,0.5,0c0,0.5-0.2,0.9,0.2,1.2c0.4,0.3,0,0.3,0,0.5c0.4,0,0.3-0.4,0.5-0.5
	c0.3-0.1-0.2-0.2-0.4-0.2c-0.1-0.6,0.6-0.2,0.6-0.7c0-0.4,0,0.2-0.3,0s0.1-0.5,0.2-0.8c0.1-0.3-0.2,0.2-0.4,0c0-0.7,0.8-0.8,0.6-1.7
	c0.2,0,0.3-0.4,0.5-0.5c0.2-0.1,0,0.2,0,0.3c0,0.1,0-1,0.5-1c0.3-0.3,0.3-0.8,0.2-1.2c-0.1,0-0.3,0-0.3-0.3c0-0.3,0.9-0.9,1-0.2
	c0.2,0,0.4,0.1,0.5,0.2c0,0.2-0.2,0,0,0.3c0.2,0.3-0.5,0-0.5,0.2c0,0.2,0.3,0,0.5,0c0.2,0-0.2,0.3-0.1,0.6h0.3c0,0.2-0.2,0-0.2,0.2
	s0,0.5,0.3,0.5c0.3,0,0,0.5,0,0.5c0,0.1,0-0.4,0.3-0.3c0.3,0.1,0,0.2,0.1,0.3c0.1,0.1,0.2-0.4,0.4-0.5c0.2-0.1,0,0.6,0.3,0.7
	c-0.2,0.3-0.2,0.6-0.1,0.9c0,0.2-0.4,0.2-0.3,0.5c0.1,0.3,0.7-0.2,0.8-0.3c0-0.7-0.1-1.5,0.1-1.9c-0.3-0.3-0.4-0.9-0.4-1.5
	c-0.1-0.6-0.9-0.7-1.2-1.2c-0.3,0-0.5-0.2-0.5-0.5c-0.4-0.1-0.7-0.2-1-0.5c0-0.2,0.2-0.2,0.4-0.2h0.6v0.1c0,0,0.5,0,0.5,0.2
	s0.2,0.3,0.2,0.4c0.5,0.3,1.2,0.3,1.5,0.8c0.7,0,0.6,0.7,0.8,1.2c-0.2,0.4,0,1.4,0,2.1l0,0c0,0,0,0.3,0,0.4c-0.1,0.2-0.1,0.5,0,0.8
	c0.1,0,0.5,0,0.4,0.4c0.3,0,0.3,0.2,0.5,0.2c0.4,1.3,1.5,1.8,2.2,2.9c-0.2,0.6-0.2,1.4-0.8,1.7c0,0.4,0,0.6-0.3,0.7
	c-0.3,0.1-0.3,0.5-0.4,0.8c-0.2-0.1-0.4-0.1-0.6,0c0.2,0.2,0.3,0.4,0.4,0.7h0.4c0,0.2,0.1,0.4,0.3,0.5c0,0.6,0.1,1.1,0.5,1.2
	c0,0.2,0,0.3,0,0.4c0.5,0.3,0.7,0.9,0.5,1.4H30c-0.3,0.6-0.7,1-1.3,1.3c-0.1,0.3-0.4,0.5-0.8,0.6c-0.2,0-0.2-0.2-0.3-0.2
	c-0.1-0.1-0.2,0.4-0.5,0.4v-0.3c-0.3,0,0,0.3,0,0.5L26.7,33c-2-1.1-4.1-1.8-6.4-2.1c0.1-0.3,0.2-0.7,0.8-0.6c0,0.8,0.8,1,1.5,0.8
	c0-0.2,0-0.5,0.1-0.7c-0.2-0.1-0.2-0.4-0.2-0.7c0-0.3-0.2,0.4-0.4,0.4c0-0.1,0-0.2,0-0.3h-0.7c0-0.2-0.2,0-0.2-0.3
	c-0.4,0.1-0.9,0-1.3-0.2c0,0.4-0.3,0.4-0.6,0.4c-0.1,0.6-0.2,1.2-0.4,1.7h-0.9c0-0.2,0-0.3,0-0.4c0-0.1,0-0.3,0-0.5
	s-0.2-0.3-0.3-0.5c-0.1-0.2,0-0.5-0.2-0.6c-0.2-0.1-0.4,0-0.6,0.1s-0.7-0.1-1.1-0.1S15.4,29.9,15,30c0,0.4-0.2,0.6,0,1.1
	c0.2,0.3,0.5,0.4,0.8,0.5c0.3-0.3,0.2-0.7,0.6-0.8c0.1,0,0.3,0,0.4,0c0.1,0.2,0.2,0.4,0.2,0.7c-1,0.1-2,0.2-2.9,0.5
	c-0.4,0-0.7,0-1.1,0c0-0.2-0.3-0.2-0.3-0.4c0-0.2-0.3-0.2-0.6-0.2v-0.5c-0.3-0.2-0.7-0.3-1-0.2c-0.4-0.3-1.2,0-1.7,0
	c0-0.3,0.2-0.4,0.4-0.4c0.3,0,0.4-0.2,0.8-0.2c0.3,0,0-0.2,0.2,0s0.8,0,1,0.2c0.2,0.2,0-0.3,0-0.5c0-0.2,0.2-0.1,0.2-0.4
	c0-0.2,0.4,0,0.5,0c0-1-1-1.2-1.4-1.9c-0.1-0.2,0-0.4,0.2-0.5c-0.2-0.4-1-0.3-0.9-0.8c0.3,0.1,0.6,0,0.9,0.2c0.3,0.2,0,0,0,0
	s0.3,0,0.4,0c0.1,0,0,0,0,0s0,0,0,0.2l0.4-0.3c0.3,0.2,0.5,0.4,0.7,0.7c0.1,0,0-0.3,0-0.5c-0.5-0.4-0.9-1-1.2-1.5
	c0.1-0.3,0.2-0.5,0.5-0.6c0-0.1-0.1-0.2-0.2-0.3c0-0.2,0.1-0.4,0.3-0.5c0-0.2,0-0.4,0-0.5c0.5,0.2,0.6,0.8,1.3,0.8
	c-0.3-0.9-0.9-1.8-1.6-2.4c-0.1-0.3-0.1-0.5,0-0.8c0.1-0.1,0.3-0.1,0.4-0.1c0.1,0.1,0.2,0.2,0.3,0.3c0.2,0,0-0.2,0.3-0.1
	c0.3,0.1,0.2,0.6,0.6,0.7c0.1-0.3,0.3-0.6,0.5-0.7c-0.5-0.4-0.8-0.9-1.1-1.4c0-0.1-0.2,0-0.2-0.2c0.1-0.2,0.3,0,0.4,0
	c0.2-0.3,0.3-0.7,0.2-1c0.2,0.2,0.5,0,0.6,0c0,0.1,0,0.3,0,0.5c0,0.2,0.2,0,0.3,0c0.4,0.4,0.4,1.3,0.7,1.8c0,0,0,0.3,0,0.3
	c0-0.1,0,0.3,0.2,0.3c0.2,0.1,0-0.3,0-0.5s0.3,0.2,0.3,0.4c0,0.3,0.6,0.3,0.7,0.6c-0.5,0-0.4,0.6-0.8,0.7v0.8
	c-0.4,0.5-0.2,1.2-0.3,1.7c-0.1,0.6-0.3,0.6-0.4,0.9c0.1,0.2,0.1,0.3,0,0.5c-0.2,0.2,0,0.8-0.2,1c0.1,0.6,0.2,1.2,0.2,1.8
	c0.6,0,1.5-0.1,1.7,0.3c0,0,0.2,0,0.4,0c0.1,0.1,0.3,0.2,0.4,0.3c0.4-0.5,0.5-1.2,0.5-1.8c-0.3-0.1-0.4-0.3-0.5-0.6
	c0-0.1-0.3,0-0.3-0.3c0.2,0,0.4,0,0.6,0.2c0.4-0.1,0.2-0.6,0.2-1c0.3,0,0.2,0.3,0.5,0.3s0-0.7,0.2-0.8c0.2-0.1,0.2,0.1,0.3,0.2
	c0.1-0.4,0.6-0.5,1-0.6c0.4-0.1,0-0.2,0-0.3s-0.7-0.3-0.9,0c-0.3-0.4-0.6,0.2-1.1,0c0-0.2,0-0.5,0-0.7c0.5,0,0.6-0.5,0.6-1
	c0.3-0.1,0.3-0.5,0.8-0.4c0.1-0.1,0.2-0.2,0.2-0.3c-0.3-0.4-1.4,0-2-0.2c-0.1-0.2-0.1-0.4,0-0.5c0-0.5,0.1-0.9,0.3-1.3
	c0.3,0,0.6-0.1,0.8-0.3c0-0.3-0.5-0.2-0.6-0.4c0,0.2-0.7,0.3-0.9,0c-0.2-0.3,0.3,0,0.4-0.1c0.1-0.1,0.3-0.4,0.6-0.4s0-0.9,0.1-1.1
	c-0.3-0.2-1,0-1.3-0.3c0-0.2,0-0.4,0.2-0.5c-0.2-0.5-0.1-1.3-0.4-1.8c-0.2-0.5-0.9-0.2-0.9-0.8c-0.1,0-0.3,0-0.4,0
	c0-0.6-0.4-0.9-0.2-1.5c0.2,0,0.3,0,0.4,0c0.1-0.2,0.1-0.3,0.2-0.5c0.2,0,0.3,0,0.4,0.2c0.1-0.2,0.4-0.4,0.7-0.3
	c0.1-0.2,0.1-0.5,0-0.7c-0.1-0.2-0.4-0.3-0.7-0.3c-0.2,0.1-0.4,0.2-0.6,0.3c-0.1,0-0.1,0.3-0.4,0.3c0-0.2,0-0.3,0-0.5
	c-0.6,0-1.1,0.1-1.7,0.3v0.3c0.2,0,0-0.2,0.3-0.2c0.3,0.1,0.4,0.4,0.5,0.6c0.1,0.3-0.6,0.5-0.9,0.7c-0.3,0.2,0,0.7-0.4,0.7
	c-0.1,0.6,0.1,1.3,0.6,1.7c-0.2,0.2-0.3,0.5-0.3,0.7c-0.4,0-0.5-0.2-0.8-0.3c-0.3-0.1-0.1-1,0-1.2c0-0.7-0.4-1.1-0.3-2
	c-0.4-0.4-0.7-1-1.2-1.3c-0.1-1.1,0-2.2,0.1-3.3c0.1-0.1,0.2-0.2,0.3-0.4h0.3c0.4-0.3,0.7-0.7,0.8-1.2c0.4-0.2,0.4-0.6,0.6-0.9
	c0.3,0.4,0.4,1,0.1,1.5c0,0.4-0.2,0.5-0.1,0.9c0.8,0.2,1.7,0.2,2.5,0.2c0.6,0,1.2,0,1.8,0c0-0.1,0-0.3,0.2-0.4
	c0.2-0.1,0,0.4,0.2,0.5c0.2,0.1,0,0,0.3,0s0-0.2,0-0.3c0.2,0,0.4,0,0.7,0V8c0,0-0.2,0-0.3,0c-0.2-0.6-0.7-1.7-0.3-2.5
	c0-0.2-0.2,0-0.2-0.2c0-0.2,0,0.6-0.4,0.5c-0.1-0.8-0.1-1.6,0-2.3c0,0,0,0-0.2,0s0,0.9-0.3,0.9c-0.3,0.1,0-0.5-0.2-0.5
	c-0.2,0,0,0,0-0.2c-0.3-0.1-0.5-0.2-0.8-0.3l-0.1,0.4c-0.3,0-0.7-0.1-1-0.3c0,0.2-0.3,0-0.5,0.2s-0.1-0.1-0.1,0.1
	c-0.8-0.5-0.3-2.4-1.9-2c-0.4-0.3,0-1.2-0.3-1.8c-0.2-0.1-0.3-0.1-0.5,0H12h10.9c0,0.2-0.4,0.1-0.3,0.4c0.5,0,0.7,0.2,0.9,0.3
	s0.2,0,0.2-0.3s-0.5,0.1-0.6,0C23,0.4,23,0.3,23,0.3c-0.2,0,0-0.2-0.2-0.1L25.1,0z M15.8,1.3c0.6-0.3,1.4,0.2,2.2,0
	c0.2,0,0.2,0.2,0.4,0.2c0.2,0,0.5,0,0.6-0.1c0.2-0.1,0.2-0.3,0.4-0.3c0.2,0,0,0.2,0.2,0c0.2-0.2,0-0.3,0.2-0.3c0.2,0,0,0.2,0.1,0.3
	h0.1c0-0.2,0.1-0.4,0.1-0.6c0,0-0.2-0.1-0.3,0c-0.1,0.1,0,0.2,0,0.2h-0.2c-0.2,0-0.2-0.2-0.3-0.3c-0.3,0-0.6,0-0.9,0
	C18.7,0.1,18.5,0,18.4,0c-0.3,0-0.4,0.2-0.5,0.3c-0.2,0.1-0.7-0.1-1.2-0.1c-0.5,0-1,0.3-1.3,0c-0.3,0.1-0.7,0.2-1,0.2
	c-0.3,0-0.7-0.2-0.9,0s0.1-0.1,0.3,0c0,0.2,0.2,0.5,0.4,0.6c0.2,0,0-0.2,0.3-0.2c0.3,0.1,0.2,0.2,0.2,0.5s0.3,0,0.4-0.1s0.4,0,0.7,0
	L15.8,1.3z M21,6.8L21,6.8h0.1H21z M17.4,2.3c0,0,0.1,0,0.2,0S17.4,2.2,17.4,2.3z M14.7,2.3c0,0.2,0,0.3,0.2,0.3s0-0.1,0-0.3H14.7z
	 M19.7,2.7c0,0-0.1,0.2,0,0.2C19.8,2.8,19.7,2.9,19.7,2.7h0.2c0.2,0,0.2,0,0.3-0.2c0.1-0.2,0-0.2-0.2,0c-0.2,0.2,0,0.2,0,0.3
	L19.7,2.7z M19.2,3c0,0.2,0,0.4,0.2,0.5c0.2,0,0.2-0.3,0.2-0.5c0-0.3-0.1,0-0.2,0c-0.1,0,0,0-0.1,0.2V3z M19.7,3.5
	c0,0.2,0,0.3,0.2,0.2c0.2,0,0-0.1,0-0.2h-0.4H19.7z M18.5,4.3c0,0.1,0,0.3,0.3,0.3s0.2,0,0-0.4C18.7,3.9,18.7,4.4,18.5,4.3L18.5,4.3
	z M19.4,4c-0.2,0-0.2,0.8,0,0.9C19.5,4.5,19.5,4.2,19.4,4z M19.4,7.1c0.4,0,0.3,0.4,0.7,0.4S19.9,7.3,19.9,7c0.3,0,0.2,0.6,0.5,0.7
	c0.3,0.1,0-0.3,0-0.5s-0.2-0.3-0.3-0.4C20,6.1,19.9,5.4,20,4.7c-0.4,0-0.2,0.7-0.2,1.1c0,0.4,0.1,0.7,0.1,1c-0.2,0-0.2-0.5-0.4-0.3
	c0,0.1,0,0.4,0,0.7L19.4,7.1z M20,8v0.2h0.2C20.2,8,20.2,8,20,8z M22.4,10.9v-0.2h-0.3v0.2L22.4,10.9L22.4,10.9z M21.7,10.8
	c0-0.1,0-0.4,0-0.4S21.7,10.8,21.7,10.8z M12.9,9.7c0,0.1,0,0.1,0,0.2h0.1L12.9,9.7L12.9,9.7L12.9,9.7z M12.8,10.5v0.2h0.2v-0.2
	H12.8L12.8,10.5z M13.9,11.7c0-0.2,0-0.5,0-0.5c0-0.1,0.2,0,0.4,0c0.3-0.5,1.4,0,2.1-0.3c0.5,0.1,1.1,0.1,1.6,0c0-0.2-0.1-0.7,0-0.7
	c0,0.3,0.2,0.2,0,0.5c0.4-0.2,0.7,0,1,0c0.2,0,0.2-0.4,0.4-0.6c0.1-0.2-0.4,0-0.4,0c-0.1-0.2-0.1-0.4,0-0.6c0.2,0,0.2,0,0.3,0.2
	c0.1,0.2,0-0.7,0.2-0.7c0.2,0.1,0,0.6,0.3,0.7V9c0.4-0.3,0.6,0.2,0.5,0.7v0.3c-0.2,0-0.2,0.2-0.5,0c0,0.2-0.1,0.5-0.1,0.7
	c0.3-0.1,0.5-0.1,0.8,0c0-0.2,0-0.6,0-0.7c0-0.1,0-0.4,0.2-0.4c-0.1-0.1-0.2-0.3-0.1-0.5c0.2,0,0-0.2,0.3-0.1c0.3,0,0,0.2,0.2,0
	s-0.4,0-0.5-0.3c-0.1,0.3-0.8,0-1,0.3h0.4c-0.6-0.1-1.1-0.2-1.6-0.3c0,0-0.1,0.1-0.3,0.2c-0.9,0.1-1.9,0.1-2.8,0c-0.2,0,0,0.2-0.3,0
	s-0.9,0-1.3,0c-0.2,0.4-0.2,0.9,0,1.4l-0.3,0.4c0,0.4,0.3,0.5,0.4,0.8c0.1,0.3-0.2,0.2-0.2,0.4c0.1,0,0.2,0,0.2,0c0,0.1,0,0.2,0,0.3
	h0.2C13.9,11.8,13.9,11.6,13.9,11.7L13.9,11.7z M26.2,31c0.2,0,0.4,0,0.4-0.2c-0.1,0-0.2-0.2-0.4,0v0.3V31z M28.7,32.3v-0.2
	C28.7,32.2,28.5,32.2,28.7,32.3l0.2,0L28.7,32.3z M25.6,28.3c-0.3,0-0.3-0.6-0.5-0.7c-0.2,0.3-0.6,0.4-0.9,0.3
	c0,0.7-1.2,0.4-0.7-0.3c-0.2,0,0-0.3-0.3-0.3v-0.2c-0.2,0-0.2,0.3-0.3,0.4h-0.4h-0.2c0,0.3,0,0.4-0.1,0.6c-0.1,0.2,0.4,0.2,0.5,0
	h-0.1c0-0.3,0-0.5,0-0.6c0,0,0-0.2,0.2-0.2c0.1,0.3,0,0.6,0,1h0.1c0,0.2,0,0.4,0,0.7s-0.3,0.2-0.2,0.5c0.8-0.2,1.4-1.2,2.3-0.7
	c0,0.2,0,0.2,0,0.3c0,0.1,0.3,0,0.3,0s-0.3,0-0.2-0.4c0.1-0.4,0.2-0.4,0.6-0.3c0.3,0.2,0,0.6,0.2,1c-0.6,0.2-1.2,0.4-1.8,0.5
	c-0.1,0.2-0.7,0.1-0.7,0.5s0.2-0.2,0.5-0.2c0.2,0,1.3-0.2,1.9,0c0,0,0.2,0.2,0.2,0.2c0.1,0,0.2,0,0.3,0c0,0,0,0.3,0.2,0.3
	c0.2,0,0.8-0.2,1,0c0.1,0.2,0.4,0,0.4,0c0,0.1,0,0.2,0,0.3c-0.2,0-0.1,0.2-0.4,0.1c-0.3-0.1,0.2,0.2,0.2,0.4c-0.1,0-0.1,0.3-0.4,0.2
	c-0.3-0.1,0,0,0,0s-0.2,0-0.3,0c-0.1,0,0-0.2-0.2-0.2c-0.3-0.1-0.7-0.1-1,0c0,0.4,0.4,0.2,0.4,0.5c0,0-0.3-0.4-0.6,0.3
	c0.2,0,0.5,0,0.7,0s0,0,0,0s0.3,0,0.3,0s0,0.3,0.2,0.2c0,0,0-0.2,0-0.4c-0.9-0.2-0.8-0.3-0.8-0.3c0.3-0.2,0.6,0,0.9,0
	c0,0.4,0.3,0.3,0.7,0.3c0-0.2,0-0.4,0-0.5v-0.2c0.1-0.2,0.6,0,0.8-0.3h0.2c0,0,0.1,0.2,0.3,0.2c0-0.5-0.1-1-0.4-1.4
	c0-0.6-0.4-0.8-0.5-1.3c-0.3-0.1-0.5-0.4-0.6-0.7C26.7,27.6,26,27.8,25.6,28.3L25.6,28.3z M21.4,29.1c0-0.3,0-0.3,0-0.6
	C21,28.5,21.1,29,21.4,29.1z M20.8,28.2c0-0.2,0.2,0,0-0.3c-0.2-0.3,0,0-0.3,0C20.2,27.9,20.6,28.1,20.8,28.2L20.8,28.2z M21.2,28.1
	h0.2H21.2z M19.4,23.5c0,0.2,0,0.4,0.2,0.3C19.8,23.8,19.6,23.6,19.4,23.5z M19.2,28c0,0.6,0,1,0.3,1.4c0.5-0.3,0-1.5,0.3-2l0.1,0.2
	c0.2,0.3,0,0.8,0.1,1.1c0.2-0.4,0-1.1,0.4-1.5c0.4,0,0.4-0.4,0.8-0.2c0-0.3,0.4-0.2,0.7-0.3s0,0.4,0,0.3c0-0.1,0.5-0.4,0.3-0.6
	c0,0.2-0.3,0.2-0.3,0s0.3-0.5,0.5-0.8c0-0.2,0-0.5,0-0.7c0.3,0,0.2-0.4,0.6-0.4c0-0.3,0.3-0.4,0.5-0.4c0.2-0.8,0.9-1.1,1.8-1.2
	c0,0,0,0,0,0.2c0.3,0,0.6,0,0.8-0.2c0.3,0,0.6,0.3,0.6,0.7s-0.2,0,0,0.2s0.1,0,0.2,0c0,0.2-0.2,0,0,0.3s0.5,0,0.5,0
	c0,0-0.1,0.9-0.1,0.9s0.2,0.3,0.4,0.4c-0.3,0.1-0.4,0.4-0.3,0.6c-0.4,0.2-0.4,0.8-1.2,0.6c0,0.2-0.3,0.2-0.4,0.4
	c0.8,0.4,1.1-0.3,1.6-0.7c0-0.3,0.1-0.6,0.4-0.9c0-0.6,0.4-0.9,0.6-1.3c0.2-0.5-0.3-0.4-0.2-0.9c-0.5-0.2-0.6-0.8-1-1.1
	c-0.4-0.3-0.6-0.7-0.8-1.2c-0.3-0.1-0.6-0.2-1-0.1c0,0.2-0.2,0.2-0.4,0.4c-0.2,0-0.5,0-0.6-0.2c0-0.2,0-0.4,0-0.6
	c-0.5,0-0.6,0.5-1.2,0.4c-0.1,0.3-0.1,0.5,0,0.8c-0.7,0.4-0.8,0.9-1.4,0.9c0,0.5-0.3,0.5-0.6,0.7c-0.2,0.2,0,0.6,0,1h0.1
	c0-0.7,0.5-1,1.1-1.2c0.4-0.6,1-1.1,1.7-1.4c0.3,0,0.6,0,0.7-0.2h0.1c0.2,0.2,0,0.4-0.1,0.5c-0.7,0.2-0.9,1-1.6,1.3
	c0,0.2-0.2,0.3-0.3,0.5c-0.1,0-0.2,0-0.3,0c-0.2,0.3-0.5,0.6-0.7,0.8c-0.1,0.4-0.3,0.7-0.5,0.9c0,0.4-0.1,0.7-0.3,1
	c-0.1,0.1-0.5,0-0.6,0.2c0-0.2-0.2,0-0.4,0c-0.1,0-0.6,0.2-0.9,0.2c-0.3,0.1-0.4,0.4-0.4,0.7s0,0.2,0.2,0.2L19.2,28z M23.3,26.7
	c0-0.3,0.3-0.4,0.4-0.7c-0.4,0-0.3,0.5-0.6,0.4v0.3L23.3,26.7L23.3,26.7z M24.5,26c-0.2,0-0.3,0.2-0.3,0.3c0.1,0,0.2,0,0.3,0V26
	L24.5,26z M24.5,25.7c0-0.8,1-0.7,1.3-1.2c0,0,0,0,0-0.2c-0.6,0-0.6,0.7-1,0.8h-0.6c0,0.4-0.3,0.6-0.1,0.7
	C24.2,26.1,24.2,25.7,24.5,25.7L24.5,25.7z M26.1,25c-0.3,0-0.4,0-0.4,0.3C25.7,25.5,26.1,25.3,26.1,25z M14.1,19.1
	c0,0.4,0.2,0.7,0.4,0.7c0.1,0-0.1,0,0-0.3S14.5,19.1,14.1,19.1L14.1,19.1z M12.8,27.6c0,0.1,0,0.2,0,0.2h0.3
	C13.1,27.6,13.1,27.6,12.8,27.6L12.8,27.6z M9.6,34H10h0C9.8,34,9.7,34,9.6,34L9.6,34z M11.6,29.5c0,0.2,0.2,0.1,0.2,0.3
	c0,0.3-0.3,0-0.3,0c0,0-0.5,0-0.5-0.2c0,0,0,0,0.2,0c0.2,0,0.3,0,0.5,0L11.6,29.5z M17.6,26.9c-0.6-0.1-1.2-0.2-1.8-0.2
	c0.2-0.5,1.7-0.5,1.8,0L17.6,26.9z M24.4,17.5c0-0.2,0-0.2,0-0.4c0.3,0,0.4,0.3,0.3,0.6h-0.3L24.4,17.5z M27.1,24.1
	c0-0.3,0.4-0.2,0.3,0c0,0.2,0,0.2-0.3,0.2L27.1,24.1z M18.1,9.4c0,0,0.1,0,0.2,0c0.1,0,0,0.5,0,0.5c-0.3,0-0.1-0.5,0-0.5H18.1z
	 M31.9,55.4c-0.1,0,0-0.3-0.2-0.3s0,0.2-0.1,0.2c-0.7,0-1.1,0.3-1.7,0c0.2-0.4,1.1,0,1.2-0.8c-0.4-0.1-0.9-0.3-1.2-0.6
	c-0.4,0-0.7-0.3-1-0.4s-0.3,0-0.4,0c-0.1,0,0,0,0,0c-0.4-0.2-0.8-0.4-1.2-0.5c-0.2-0.2-0.6-0.2-0.8-0.3c-0.2-0.2,0-0.3-0.2-0.4
	s-0.2,0.1-0.3,0c-0.5-0.4-1.4-0.5-1.7-1h0.4c0.3,0.4,1.1,0.3,1.4,0.7c0.8,0.1,1.7,0.1,2.5,0c0-0.6,0.8-0.3,1,0c0.1-0.3,0.4,0,0.5,0
	c-0.1,0.4-0.1,0.9,0,1.3h0c-0.2-0.3,0-0.6,0.4-0.5v0.3c0,0,0.2-0.2,0.4,0s0.7,0.3,0.9,0.6c0,0,0,0,0.1,0.4c0-0.1,0-0.3,0-0.3
	c0-0.2,0.2-0.4,0.4-0.3c0.3,0.1,0,0.8,0.5,0.7c0,0.3-0.2,0.3-0.2,0.5c0,0.2-0.2-0.2-0.3,0s0.3,0.6,0,0.7c-0.3,0.1,0-0.3,0-0.2
	s-0.2,0-0.4,0L31.9,55.4z M30.1,53.1c0-0.2-0.2-0.2-0.3-0.4c-0.1-0.2,0-0.3,0-0.4c0.2,0,0.3,0,0.5,0c0,0.2-0.2,0-0.2,0.3
	c0,0.3,0.6,0.3,0.8,0.4s-0.2,0-0.7,0.2L30.1,53.1z M3.4,45.3c0,0,0,0-0.2,0c-0.2,0,0.1-0.4,0.3-0.5c0.1,0.1,0.1,0.3,0.1,0.5
	c-0.1,0,0,0.2-0.3,0.2V45.3z M4.8,41.9H4.7v-0.2h0.2V41.9z M9.9,36.4c0,0.3-0.5,0.3-0.6,0.6c-0.3,0.1-0.5,0.2-0.7,0.5
	c-0.2,0-0.4,0-0.3,0.3h0.3c0,0,0-0.2,0-0.3h0.8c0,0.3,0.4,0.3,0.4,0.7c-0.3-0.2-0.7-0.4-1.1,0s0-0.2-0.2,0c-0.2,0.2-0.6,0.2-0.7,0.6
	c-0.3,0.1-0.6,0.1-0.9,0c0-0.2,0-0.4,0-0.6c0.2-0.1,0.5-0.3,0.6-0.4c0.2-0.2,0.4-0.4,0.6-0.6c0.1,0,0.3,0,0.3-0.2l0.3-0.3
	c0,0,0.4,0,0.4-0.3C9.4,36.1,9.6,36.3,9.9,36.4L9.9,36.4z M10.6,36c0-0.5,0.4-0.4,0.5-0.8c0.1-0.3,0.3,0.1,0.6,0.1
	c0.2,0,0.3-0.2,0.3-0.5c0-0.3,1,0,1.2-0.5c0.3,0,0.4,0,0.7,0c0,0.1,0,0.2,0,0.3c-0.3,0-0.6,0.1-0.8,0.4c0.3,0,0.2,0.2,0.4,0.2
	c0,0.6-0.4,0.4-0.6,0.6c-0.2,0.2,0.2,0.3,0.4,0.3c0,0.4,0.5,0.5,0.4,1c0,0,0,0,0.1,0s0,0.4,0,0.4c0-0.1,0-0.1,0-0.2
	c0-0.1,0,0.1,0,0.2h-0.2c-0.2,0.6,0.3,0.9,0.4,1.4s-0.2,0.5,0,0.8c-0.4-0.2-0.4-0.7-0.9-0.8c0-0.3,0-0.5,0-0.9c0-0.4,0.2,0,0.2-0.2
	c0-0.2-0.9,0.3-1.2,0c-0.3-0.3-0.3-0.5-0.3-0.9c-0.2,0,0-0.2-0.3-0.1c0.2,0.5,0,0.9,0,1.5c0.2,0,0,0.4,0.1,0.7s0.4,0.8,0.7,1.1
	c0,0.2,0,0.2,0,0.3c0.3,0.2,0.4,0.5,0.4,0.8c-0.2,0-0.2-0.2-0.4-0.2c-0.3-0.6-0.7-1.2-1.3-1.5c0-0.2,0-0.2,0-0.4
	c0-0.2-0.4-0.5-0.8-0.5c0-0.3-0.2-0.2-0.2-0.5c0.3-0.2,0.6,0.2,0.8,0.3c0-0.8-0.2-1.8,0-2.5C11,36.2,10.8,36,10.6,36L10.6,36z
	 M12.2,36.3c0-0.2-0.2-0.2-0.3,0C11.8,36.5,12.1,36.3,12.2,36.3z M9.5,35.4c-0.2,0,0,0.2-0.3,0S9,35.4,9,35.1c0-0.3,0,0,0-0.2
	s0.4,0,0.5,0.2s0,0,0,0.2V35.4z M9.5,34.2V34c0.2,0,0.1,0,0.2,0c0.1,0,0.2,0,0,0.2c-0.2,0.2-0.2,0-0.3,0H9.5z M9.9,35.3
	c0,0,0.2,0,0.1,0.2c0,0.2,0,0.3-0.3,0.2S9.8,35.4,9.9,35.3z M10.3,35c0,0-0.3,0-0.3-0.3c0-0.3,0,0,0-0.2c0-0.2,0.3,0,0.5,0
	c0,0.3-0.3,0.2-0.4,0.4L10.3,35z M10.7,34.4c0,0,0,0-0.3,0C10.4,34.4,10.9,34.4,10.7,34.4L10.7,34.4z M10.1,35.3
	c0-0.5,0.7-0.4,0.8-0.8c0.2,0,0.5,0,0.5,0.2C11,34.9,10.8,35.4,10.1,35.3z M11.7,49.9c-0.1,0.1-0.3,0.2-0.4,0.2c0,0-0.2,0-0.2-0.3
	c0-0.3,0.7,0,0.7,0V49.9z M12.7,34.2c-0.1,0.1-0.1,0.1-0.2,0.2c-0.2,0.1-0.5,0.1-0.7,0c0-0.2,0-0.2,0-0.5c0.8,0,1.2-0.5,2-0.3
	C13.8,34.1,13.1,33.9,12.7,34.2L12.7,34.2z M15.9,40.7c0,0-0.2,0-0.1-0.3c0-0.3,0.4,0.2,0.6,0.4c0-0.4-0.1-0.9-0.2-1.3
	c0,0.2,0,0.5,0,0.7c0,0.2-0.2,0-0.4,0c0-0.4-0.3-0.7,0-1.2c0.3,0,0.3,0.1,0.5,0.1c0.2,0,0-0.4,0.2-0.6c0.2-0.1-0.2,0-0.3,0
	c-0.1,0-0.2,0.3-0.4,0.3c-0.2-0.2-0.3-0.5-0.2-0.8c-0.3,0-0.2-0.5-0.2-0.9c-0.3-0.1-0.5-0.3-0.6-0.6c-0.2,0-0.3,0-0.5,0
	c-0.2,0-0.3-0.4-0.3-0.8c0.6,0.2,0.8-0.2,1.2,0c-0.1-0.2-0.2-0.5,0-0.7c-0.1,0-0.2-0.3-0.1-0.6c0-0.3,0.2,0.2,0.5,0.1v0.5
	c0.2,0,0.5,0.1,0.6,0.3c-0.5,0.3-0.3,1.6-0.2,2.1c0.3-0.2,0.1-0.7,0.1-1s0.4-0.5,0.6-0.7c0.2-0.2,0.1,0.5,0.5,0.5s0,0.3,0,0.3
	c0.2,1-0.5,1.7,0,2.5c0,0.3,0,0.2,0,0.4s0,0.8,0,1.2s0.1,0.3,0.1,0.4c0,0.1,0,0.8-0.2,0.9c-0.2,0.1-0.2-0.3-0.4-0.3
	c-0.2,0,0,0.1,0,0.2s0.3,0,0.2,0.2v0.2c-0.2,0-0.1,0-0.2,0c-0.3-0.5-0.8-1.2-0.4-1.8L15.9,40.7z M14.5,34.3v-0.2h0.2
	c0,0.1,0,0.1,0,0.2H14.5L14.5,34.3z M15.5,34c0,0-0.2,0-0.3,0v-0.2c0,0,0.4,0,0.3,0.1V34z M20.1,33.6c0,0,0,0.2,0,0.2s1.1,0,1.3,0.2
	c-0.3,0.2-0.7,0-1.1,0s0,0.5,0,0.7c0,0.2-0.1,0-0.3,0s-0.5-0.5-0.8-0.8c-0.8-0.1-1.5-0.1-2.3,0c0,0.3-0.5,0.3-0.4,0.8
	c-0.5,0-0.5-0.4-0.9-0.4c-0.4,0,0-0.4,0.1-0.7c0.1-0.3-0.2,0,0-0.3c0.2-0.3,0.9-0.1,1.1,0c0.2,0.1,0.2-0.3,0.4-0.3s0.5,0.1,0.7,0
	c0.2-0.1,0.9-0.2,1.3,0.2c0.1,0,0-0.2,0.2-0.2c0.2,0.1,0.3,0,0.5,0L20.1,33.6z M15.8,49.8c0,0.2-0.2,0,0,0.2s0.3,0.8,0,0.9h-0.2
	c0-0.5-0.3-1.1,0.1-1.4C15.7,49.6,15.8,49.6,15.8,49.8L15.8,49.8z M17.4,51.9c0,0.2,0,0.3,0,0.5c-0.9,0-1-0.7-1.6-0.9v-0.3h0.5
	C16.6,51.5,17,51.7,17.4,51.9z M17.2,36.3c0,0-0.3,0-0.2,0C17.2,36.3,17.3,36.3,17.2,36.3z M19.7,39.8c0-0.5,0-1.2,0.4-1.2
	c0,0.6,0,1.3-0.2,1.6c0,0.5,0,0.9-0.2,1.4c0,0,0,0.4-0.2,0.4c-0.2,0,0-0.6-0.2-0.7c-0.2-0.2-0.1,0.5-0.4,0.6s-0.2-0.4-0.2-0.7
	c0-0.3-0.2-0.2-0.4-0.3c-0.1-0.2,0-0.4,0.2-0.6c0.4,0,0-0.7,0.5-0.7c0.5-0.1,0-0.3-0.2-0.4c-0.2-0.1,0,0.9-0.3,1
	c-0.3-0.3,0-0.9,0-1.4c0-0.4-0.2-0.3-0.1-0.5c-0.2-0.1-0.4-0.3-0.4-0.5c-0.7,0-0.4-1-0.4-1.7c0.3,0,0.1-0.3,0.4-0.2
	c0,0.1,0,0.2,0.1,0.3c0.1,0.1,0-0.2,0-0.3h0c0-0.5,0.6-0.5,1.2-0.5c0.2,0.5,0,0.7,0,1.2h0.4c0,0.8,0,1.6,0,2.3
	c0,0.1-0.1,0.3-0.2,0.4c0,0.2,0,0.3,0,0.4c0,0.1-0.4,0.6,0,0.9c0.1-0.3,0.3-0.6,0.4-0.9L19.7,39.8z M18.6,36.9c0,0.2,0.3,0.2,0.3,0
	h-0.5H18.6z M17.7,32.6c0,0,0,0,0-0.2s0.6,0,0.6,0.2C18.4,32.9,17.8,32.8,17.7,32.6L17.7,32.6z M18.4,33.2c0,0.2-0.5,0-0.7,0.2
	c-0.2,0.2,0,0,0-0.2S18.4,32.8,18.4,33.2L18.4,33.2z M18.6,33.2c0.2-0.2,1.4-0.3,1.4,0.2C19.6,33.4,18.7,33.4,18.6,33.2L18.6,33.2z
	 M17.5,48.8c0.2,0,0.2-0.3,0.5-0.2S17.6,49.1,17.5,48.8z M18.6,32.6c0.1,0,0.2,0.2,0,0.2C18.4,32.8,18.6,32.8,18.6,32.6z M20.1,38
	c0,0.1-0.1,0.2-0.2,0.3c0,0.1,0-0.1,0-0.2H20C20,38.1,20,37.9,20.1,38L20.1,38z M20.7,36.4c0,0.3-0.2,0.6-0.5,0.7h-0.1
	c-0.2-0.4,0.2-0.5,0.1-1c0.2,0,0.3,0,0.4,0.1L20.7,36.4L20.7,36.4z M20.2,37.7c-0.2,0-0.2-0.5,0-0.6C20.3,37.3,20.3,37.5,20.2,37.7
	L20.2,37.7z M21,35.8h0.1v0.4H21c0,0,0-0.4,0.2-0.4L21,35.8z M20.8,56c0.3,0,0.3,0.2,0.3,0.5C21.1,56.8,20.8,56.3,20.8,56z
	 M22.9,33.9h0.2V34h-0.3v-0.2L22.9,33.9z M23.6,34.4v-0.3h0.3v0.4L23.6,34.4L23.6,34.4z M23.7,60.4c0.1,0.1,0.2,0.2,0.3,0.3
	C23.8,60.7,23.6,60.7,23.7,60.4z M25.7,34.5v0.3h-0.4C25.3,34.4,25.5,34.4,25.7,34.5L25.7,34.5z M26.7,44.5c0,0.1-0.1,0.2-0.1,0.3
	c-0.1,0.1-0.2,0.1-0.3,0.1c0-0.1,0-0.2,0.1-0.3C26.5,44.4,26.6,44.4,26.7,44.5z M27.9,36.6c0,0.2-0.2,0,0,0.2c0.2,0.2-0.4,0-0.4-0.2
	v-0.1h0.3L27.9,36.6z M28.9,36.9c-0.4,0-0.5-0.4-0.9-0.6c0-0.1,0-0.2,0-0.4c0.5,0,0.7,0.4,1.1,0.6v0.2L28.9,36.9z M29.5,38.1
	c-0.3,0-0.7-0.3-0.6-0.7C29.2,37.6,29.6,37.6,29.5,38.1z M28.7,55.4c-0.2,0-0.2,0.2-0.3,0.3c-0.1-0.2-0.2-0.4-0.1-0.7
	C28.6,55,28.5,55.2,28.7,55.4z M29.9,42.4c0,0,0.1,0.2,0,0.3c-0.1,0.1-0.3,0.1-0.4,0C29.6,42.6,29.7,42.5,29.9,42.4L29.9,42.4z
	 M32.6,42.2c-0.2-0.4-0.5-0.8-0.6-1.3l0,0c0.5,0.3,0.7,0.9,0.5,1.4L32.6,42.2z M35.6,56.4c-0.3,0-0.3-0.2-0.3-0.5h0.3
	C35.6,56.1,35.6,56.2,35.6,56.4L35.6,56.4z M36.4,56.8c-0.2,0-0.2,0.5-0.2,0.9c-0.2,0-0.3,0-0.5,0c0.1-0.5-0.2-1.5,0.4-1.5
	C36.3,56.1,36.3,56.6,36.4,56.8L36.4,56.8z M37.5,58.9v-0.3h0.1v0.2h-0.1V58.9z M39.2,44.6H39H39.2z M42,39.6h0.3c0,0,0,0.2,0,0.3
	C42.4,40,42,39.9,42,39.6L42,39.6z M43.3,51.2h-0.3c0-0.5-0.4-0.7-0.3-1.3h0.3C43.1,50.4,43.5,50.7,43.3,51.2L43.3,51.2z M45.3,59.9
	c-0.4,0.6-1,1.1-1.7,1.4h0c0-0.5,0.4-0.6,0.5-0.9c0.5,0,0.8-0.7,1.4-0.5L45.3,59.9z M44.6,59.2h-0.3v-0.4c0.1,0,0.2,0,0.2,0.1
	C44.6,59,44.6,59.1,44.6,59.2z M45,58.5v-0.1V58.5L45,58.5z M46.4,56.1v-0.4c0.6,0,0.6,0.4,0.8,0.8C46.8,56.5,46.8,56.1,46.4,56.1z
	 M48.6,52.2c-0.4-0.3-0.8-0.4-1.3-0.4c0-0.3-0.3-0.3-0.5-0.4v-0.2c0.1-0.1,0.4-0.1,0.6-0.2s0,0,0,0c0,0.3,0.2,0.3,0.2,0.4h0.8
	c0-0.2,0.2,0,0.2-0.2c0.4,0,0.8,0,1.1,0.2c0.4,0,0.7,0.1,1,0.4c0,0.2-0.4,0-0.3,0.2c0.3,0.1,0.6,0.2,0.8,0.3c0,0.1,0,0.2,0,0.3
	c-0.3,0.2-0.7,0.4-1.1,0.4c-0.4-0.5-1-0.8-1.7-0.9L48.6,52.2z M48.1,50.3c0.1,0,0.3,0,0.3,0.2c-0.3,0.1-0.6,0.2-0.9,0.3
	c0-0.3,0.1-0.4,0.1-0.7s0.5,0,0.5,0.2L48.1,50.3z M50.3,58.9c-0.4,0-0.7-0.1-1.1-0.2c-0.2,0.3-0.8,0-1.3,0c0-0.2,0.2-0.2,0.1-0.5
	c-0.1-0.3,0,0.2,0.3,0c0.7-0.2,1.4-0.2,2.1,0c0,0.2,0,0.4-0.1,0.5V58.9z M49.3,42.8h0.2c0,0,0,0.2,0,0.2L49.3,42.8z M49.5,42.1
	c0,0,0.6-0.2,0.5,0c0,0-0.5,0-0.4-0.2L49.5,42.1z M50.3,42.3c-0.1,0-0.3,0-0.3-0.2C50.2,42.1,50.3,42.1,50.3,42.3L50.3,42.3z
	 M49.6,53.5c0,0-0.2,0-0.2-0.3c0-0.3,0.2,0,0.3,0s0,0.2,0.1,0.2C50,53.5,49.9,53.7,49.6,53.5L49.6,53.5z M50.1,46.7
	c-0.2,0-0.3-0.1-0.4-0.3c0.2,0,0.2-0.2,0.5,0c0.3,0.2,0,0.3,0,0.4L50.1,46.7z M50.6,56.9c-0.3-0.5,0.2-0.7,0.3-1.1
	c0.1-0.4-0.4-0.4-0.3-0.8c0,0,0.3,0,0.3,0s-0.4-0.6,0-0.8c0.4-0.2,0.2,0.3,0.3,0.4c0.1,0.1,0.5,0.2,0.5,0.4c0.1,0.2-0.3,0.3-0.5,0.4
	c0,0.4,0,0.8,0,1.3c-0.3,0-0.3,0.3-0.6,0.3L50.6,56.9z M52,57.4c0,0.3,0,0.5-0.3,0.6C51.4,58,51.7,57.4,52,57.4z M52.2,57.1H52
	c0-0.2,0-0.3,0.2-0.2C52.5,56.9,52.3,57,52.2,57.1L52.2,57.1z M52.4,56.4v-0.4c0.1,0,0.2,0,0.2,0C52.6,56.3,52.6,56.4,52.4,56.4
	L52.4,56.4z M53.6,52.6c-0.5,0-0.6-0.3-0.8-0.6c0.2,0,0-0.2,0.1-0.3c0.4,0,0.5,0.2,0.9,0.2C53.8,52.3,53.5,52.2,53.6,52.6z
	 M55.5,51.8c0,0.4-0.1,0.6-0.4,0.6c-0.3,0.1,0-0.3,0-0.5C55.2,52,55.3,51.9,55.5,51.8L55.5,51.8z M57.5,50.3c0-0.3,0-0.5,0.3-0.5
	c0.3,0,0.1,0.2,0.2,0.3c0.1,0.3-0.1,0.5-0.3,0.6c-0.2,0.1-0.5-0.1-0.5-0.4L57.5,50.3z M63.5,50.3c0,0.2-0.2,0.3-0.3,0.3
	c-0.1-0.1-0.1-0.2,0-0.3C63.3,50.4,63.4,50.4,63.5,50.3L63.5,50.3z M48.8,43.8c0,0.2,0,0.2,0,0.4h0.3C49.1,43.9,49.1,43.8,48.8,43.8
	L48.8,43.8z M48.3,44.2c-0.2,0-0.1,0.2-0.1,0.3h0.3C48.4,44.3,48.4,44.2,48.3,44.2L48.3,44.2z M47.3,44.4c0,0.1,0,0.2,0,0.2h0.3
	C47.6,44.6,47.6,44.4,47.3,44.4L47.3,44.4z M34.8,42.3c0-0.2,0-0.2,0-0.2C34.8,42,34.8,42.1,34.8,42.3z M23.1,41.6v-0.2h-0.2v0.2
	H23.1z M23.1,41c0-0.3,0.3-0.4,0.2-0.8c-0.2,0.2-0.3,0.5-0.5,0.6S22.9,41,23.1,41z M7.2,45h0.2H7.2z M9.1,41.5v0.2h0.2v-0.2H8.9
	L9.1,41.5z M4.6,43.6v-0.2H4.4v0.2L4.6,43.6L4.6,43.6z M28.4,35.4v0.2h0.2C28.6,35.3,28.6,35.3,28.4,35.4L28.4,35.4z M27,34.4
	c0-0.3-0.2-0.3-0.4-0.3C26.4,34.2,26.7,34.4,27,34.4z M17.6,31.7c0,0.2,0.2,0.2,0.2,0H17.6z M15.9,31.7v0.2h0.2v-0.2L15.9,31.7
	L15.9,31.7z M8.5,35.2c0,0,0,0.2-0.2,0c0,0,0,0.1,0,0.2h0.3c0-0.2-0.1,0,0-0.3L8.5,35.2z M7.5,36.2L7.5,36.2c0,0,0.4,0,0.8,0
	s0,0,0-0.3s-0.3-0.2-0.7-0.2c-0.3,0.1,0,0.3-0.2,0.3L7.5,36.2z M6.3,37c-0.2,0-0.1,0-0.2,0S6.4,37,6.3,37z M5.6,37.7
	c0,0.1,0,0.2,0,0.2c0.2,0,0.5,0,0.5-0.4C6.2,37.2,5.9,37.8,5.6,37.7L5.6,37.7z M3.9,41.6c0.1,0,0.3-0.1,0.3-0.3
	C4.2,41,4,41.4,3.9,41.6z M3.9,39.9c0,0.2-0.1,0.4,0,0.5C4,40.5,4.1,39.9,3.9,39.9z M3.3,40.9c0,0.3-0.2,0.3-0.2,0.6
	c0,0.3,0.4-0.3,0.4-0.6H3.3L3.3,40.9z M47.5,53.3c0,0.2,0.2,0.5,0.6,0.4c0.4-0.1-0.3-0.2-0.4-0.4S47.8,53.4,47.5,53.3L47.5,53.3z
	 M39.8,54.8v0.3c0-0.2,0-0.3-0.2-0.3H39.8z M33.4,49c0,0.5,0,0.6,0,1c0.5,0,1-0.3,0.8-0.8C33.9,49.2,33.9,48.9,33.4,49L33.4,49z
	 M32.7,50c0-0.8,0-1.6-0.8-1.6c0-0.2,0-0.4,0-0.6c-0.5,0-0.7-0.5-1-0.8h-0.4c-0.1,0,0,0-0.1,0c-0.2,0-0.3,0-0.5,0
	c-0.4,0.2-1.2,0-1.6,0.4c0.1,0.6,0.9-0.3,1.2,0.3c0.3,0,0.4-0.2,0.6,0c0-0.2,0.2-0.2,0.2-0.3c0.2,0.1,0.4,0.2,0.6,0.2
	c0,0.3,0,0.6,0,0.9c-0.2,0-0.4-0.3-0.6-0.3s-0.3,0.3-0.5,0.3c0.1,0.3,0.4,0.5,0.7,0.4c0,0,0-0.3,0.2-0.3s0,0.4,0.2,0.5
	c0.2,0.1-0.2,0.4-0.3,0.6c0,0.2,0.1,0.3,0.2,0.5c0,0,0,0,0.1,0c0.1,0,0,0.2,0,0.3c0,0.1,0.1,0,0,0.2l-0.1,0.4c0,0.2-0.3,0.3-0.4,0.6
	c-0.1,0.2-0.6,0-0.8,0.3c-0.2,0.3-0.9,0-1.1-0.2c-0.2-0.2-0.4,0-0.5,0s0.2,0.2,0.2,0.4c0.6,0,1.2,0.2,1.7,0.5c0.2,0,0.4,0,0.5,0
	c0.2,0.1,0.4,0.1,0.5,0c0.1,0.2,0,0.5,0,0.8c0,0.3,0.3,0.3,0.3,0.7c0,0.4,0.3,0.5,0.5,0.7c0.2-0.3,0.4-0.7,0.4-1.1
	c0.2,0,0.2-0.5,0.2-0.8s0.2,0,0.1-0.3c-0.4,0.2-0.9,0.3-1.3,0.3c0-0.4,0.5-0.4,0.9-0.5c0.1-0.2,0.2-0.3,0.3-0.3v-0.2
	c0.4-0.2,0.4-0.8,0.4-1.4c0,0,0-0.2-0.1-0.2C32.3,49.9,32.5,50,32.7,50L32.7,50z M26.4,55.4C26.4,55.4,26.5,55.4,26.4,55.4
	c0.4-0.2,0.8-0.2,1.2,0c0.2,0,0.4,0.4,0.8,0.4c0.3-0.1,0,0,0.1,0c0.1,0,0.8,0.2,1,0c0.2-0.2,0.9,0,1.3-0.3c0.3-0.3,0-0.3,0.2-0.3
	c-0.2-0.5-1.2-0.2-1.6,0c-0.4,0.2-0.4-0.5-0.9-0.5c0-0.2-0.1-0.5-0.2-0.7c-0.6,0-0.7-0.5-1.4-0.4c-0.2-0.2-0.3-0.4-0.8-0.4
	c-0.2-0.1-0.4-0.2-0.6-0.2c0,0.2-0.2,0.2-0.2,0.3c-0.2-0.1-0.4-0.2-0.5-0.2c0-0.1,0.1-0.2,0.2-0.3c-0.2,0-0.6-0.2-0.7-0.4
	c0.4-0.8,1.6,0.2,2.1-0.3h0.2c0,0-0.1-0.3-0.2,0c-0.2-0.3-0.9-0.2-1.2-0.5c-0.6,0-1-0.4-1.7-0.3c0,0.2,0,0.4-0.2,0.5
	c0.4,0.1,0.2,0.7,0.1,0.9c-0.1,0.2,0,0.1,0.1,0.1c0.3,0.3,0.7,0.5,1.1,0.7c0,0,0.3,0.2,0.3,0.5c0.3,0,0.5,0.2,0.6,0.4
	C26.1,54.5,26.5,54.7,26.4,55.4L26.4,55.4z M25.1,57.9c0.1-0.3,0.1-0.6,0-1c0.3-0.3,0.4-0.8,0.4-1.2c-0.7,0-0.8-0.6-0.7-1.2
	c-0.2,0-0.5-0.1-0.6-0.3c-0.3,0.1-0.6,0.1-0.9,0c-0.2,0.2-0.3,0.6-0.2,0.9c-0.5,0-0.7-0.4-1.1-0.2c0,0,0,0.1,0,0.2
	c0.4,0.4,0.3,1.1,0.9,1.2c0.2,0.5,0.5,0.9,1,1.2c0.3-0.2,0.7,0,1.1,0S25,57.6,25.1,57.9L25.1,57.9z M22.8,50.9H23v-0.2h-0.2V50.9z
	 M25.4,53c0-0.2-0.2,0-0.3,0v0.1L25.4,53L25.4,53z M26.8,51.6c0,0.2,0,0.2,0,0.3h0.3v-0.3C27,51.5,26.9,51.5,26.8,51.6L26.8,51.6z
	 M28.6,53.9c0,0.2,0,0.2,0.2,0.2v-0.2L28.6,53.9L28.6,53.9z M29.4,56.4c0,0.7,0.4,1,0.7,1.4c0.4,0,0.6-0.5,0.8-0.8l0.2-0.3
	c0,0,0-0.4,0.3-0.5c-0.2-0.1-0.4-0.1-0.6,0v0.1c0,0-0.4,0-0.4,0.2C30,56.4,29.7,56.4,29.4,56.4z M31.3,44.4c0,0.2,0,0.2,0,0.4
	S31,45.1,31,45.5c-0.2,0.2-0.3,0.5-0.4,0.7c0.5-0.1,1.1,0,1.2,0.5c0-0.2,0.4,0,0.5,0c0.1-1.1-0.2-2.2-0.8-3.2c-0.2,0,0,0.3-0.1,0.4
	C31.4,44.1,31.3,44.2,31.3,44.4L31.3,44.4z M26.1,39.9c0.1,0,0,0,0.2,0.2l1.1,0.1c0,0.2,0,0.5,0.3,0.6c0,0.6-0.4,1.2-0.9,1.4
	c0,0.4-0.2,0.4-0.3,0.6c0.4,0,0.6-0.4,1-0.4c0.2-0.5,0.7-0.6,1.1-0.9c0.1-0.4,0.3-0.7,0.5-1c0-0.2,0-0.4,0-0.5
	c0-0.1-0.2-0.8-0.5-1.2c-0.2-0.3-0.4,0-0.6,0c-0.1,0-1-0.2-0.9-0.8c-0.2,0-0.4,0.3-0.7,0c-0.2-0.3,0.2-0.2,0.1-0.5s-0.3-0.2-0.4-0.2
	c-0.2-0.1-0.4,0-0.5,0.2c-0.1,0.2,0,0,0,0.1c-0.2,0.1-0.4,0.3-0.3,0.5c0.4,0.1,0.7,0.2,1,0.4C26.2,39,26.2,39.5,26.1,39.9L26.1,39.9
	z M22.7,46.1c0.1,0.7-0.3,0.7-0.7,0.9c0,0.3,0.3,0,0.6,0c0.2,0,0,0.4,0,0.3s0.9,0.3,1.7,0c0-0.2,0.2,0,0.2-0.3c0.8,0,1.3-0.3,2,0
	c0.2-0.1,0.2-0.4,0.6-0.3c0.3,0.1,0,0.5,0.4,0.5c-0.2,0.4-0.8,0.3-1.1,0.5s-0.5,0-0.5,0.2c-0.4,0-0.8,0.1-1.2,0.3
	c-0.3,0-0.6,0-0.8,0s-0.4,0.2-0.6,0.2c-0.2,0.1,0,0.2,0,0.4s-0.6,0-0.7,0.4h0.4c0,0-0.2,0-0.2,0.1c0,0.1,0,0.2,0.2,0.3v0.6
	c0.4,0.1,0.7,0.4,0.7,0.8c0.7-0.1,2-0.5,2.6,0s1.9-0.4,2.2,0.3c0.1-0.2,0.3-0.3,0.5-0.4c0.1,0,0-0.2,0-0.3c0-0.2,0.2-0.3,0.2-0.6
	c-0.7,0-1.2,0-2,0c-0.2,0-0.2-0.4-0.2-0.7c0.1-0.1,0.2-0.2,0.4-0.3c0-0.4,0.4-1.2,0-1.5c0.1-0.2,0.1-0.4,0-0.6
	c0.2,0.1,0.4,0.2,0.5,0.3c0.2,0,0-0.2,0.3-0.2c0.3,0.1-0.2,0,0-0.3s1.2-0.2,1.7-0.4c0.5-0.2,0.7-0.7,0.7-1.4
	c0.3-0.2,0.2-0.8,0.2-1.2c-0.7,0-0.5,0.7-1,0.8c-0.5,0.1-0.4-0.3-0.7-0.3v0.6c0,0.2-0.3,0-0.2,0.2h-0.8c-0.6,0.2-1.1,0.6-1.6,1
	c-0.2,0-0.5,0-0.7,0c-0.1,0.4-0.8,0.2-1.1,0.4c-0.2-0.4,0.4-0.8,0.9-0.8c0-0.3,0.4-0.3,0.4-0.6c0.6,0,0.8-0.3,1.3-0.3
	c0-0.2,0-0.2,0-0.3c0.2,0,0.4,0,0.5,0c0.4-0.3,0.6-0.8,1.3-0.7c0-0.2,0.2-0.2,0.2-0.3h0.4c0.2-0.2,0.3-0.5,0.3-0.8
	c-0.8-0.2-1.1,0.5-1.8,0.3c0,0.2-0.3,0-0.3,0.3c0,0.3,0.3,0.3,0.7,0.3c-0.2,0.4-0.6,0.5-1,0.6c0,0,0,0,0-0.3h-0.5
	c0,0.3-0.2,0.4-0.5,0.3c0-0.1-0.3,0-0.4,0c-0.1,0,0,0.2,0.2,0.2c0,0.4-0.7,0.3-0.9,0.5c-0.2,0.3,0,0.3,0.2,0.4
	c0.2,0.1-0.3,0.2-0.4,0.3c-0.1,0.1-0.3-0.2-0.4-0.4C24.9,45,24.5,45,24.2,45c-0.3,0.8-1,1-1.7,1.3L22.7,46.1z M21.4,47.5v0.2
	c0,0.1,0.2,0.2,0.3,0.2c0.1,0,0.3-0.1,0.3-0.2c-0.2,0-0.3,0-0.5,0L21.4,47.5z M21.7,51.8c0,0,0.3-0.4,0-0.3
	C21.4,51.6,21.7,51.7,21.7,51.8z M20.6,48.1c0,0.3,0.3,0.3,0.1,0.7c-0.1,0.4,0.2,0,0.3-0.2C21.1,48.4,20.8,48.2,20.6,48.1z
	 M19.9,47.2c0-0.2,0-0.3-0.3-0.3C19.3,46.9,19.9,47.1,19.9,47.2z M14.9,49.5c-0.4,0.4,0,0.8-0.1,1.2c0.5,0,0.6,0.6,0.6,1.1
	c0.2,0,0.2-0.2,0.4,0c0.3,0.2,0.2,0.2,0.1,0.5c0.3,0.5,1.2,0.4,1.7,0.8c0.5,0.4,0.2,0,0.3,0s0.7,0,1.1,0s0.4-0.2,0.6-0.3s0,0,0,0
	s0.3-0.5,0.6-0.6c0.3-0.1,0,0,0-0.2c0-0.2,0.1-0.2,0.3-0.2c0-0.2,0-0.4,0-0.6c0,0,0-0.2,0.3-0.2c0-0.6,0.2-1.3-0.2-1.5
	c0,0.4-0.2,0.8-0.4,1.1c0-0.2-0.2,0-0.3-0.3c-0.1-0.3,0.1-0.2,0.1-0.3c0-0.2-0.2-0.9-0.2-1.3c-0.5,0-1.1-0.1-1.5-0.4
	c-0.1,0-0.2,0.2-0.3,0.3c-0.1,0.1-0.5,0-0.9,0c0,0.4-0.4,0.5-0.4,0.9h-0.4c-0.2,0-0.2-0.4-0.3-0.5s-0.3,0.5-0.4,0.8h-0.3
	c-0.1-0.3-0.1-0.5,0-0.8c-0.4,0-0.2,0.5-0.2,0.7L14.9,49.5z M20.3,54.9c0,0,0.1,0,0.1,0.2s0,0,0-0.2H20.3z M19.9,54
	c0,0.2,0,0.2,0,0.4s0.2,0,0.2-0.3L19.9,54L19.9,54z M19.9,61.4v0.3C20.1,61.7,20.2,61.3,19.9,61.4z M19.2,61.2
	c0.1-0.5,0.3-1,0.4-1.4c-0.3-0.3-0.3-0.8-0.6-1c-0.3-0.3,0-0.2,0.2-0.3c-0.2-0.3-0.2-0.7,0-1c0-0.2-0.2-0.3-0.1-0.6
	c-0.6,0-0.2-1.2-0.4-1.5c-0.6,0-0.5-0.6-0.4-1c-0.2,0.1-0.4,0.1-0.6,0l0,0c0.3,0.2,0,0.4,0,0.6c0,0.2-0.8,0.4-1,0.4
	c-0.2,0.8-0.3,1.7-0.3,2.5c0,0.2-0.2,0,0,0.2c0.6,0.5,0,1.9,0.5,2.4c-0.1,0.2-0.1,0.5,0,0.8c-0.1,0.2-0.3,0.4-0.4,0.6
	c0.2-0.1,0.4-0.3,0.4-0.6c0,0,0,0,0.3,0.2c0,0.1,0,0.2,0,0.3c0,0,0,0,0.2,0c0.2,0,0,0.3,0,0.6c0.2,0.3,0.2,0.7,0,0.9
	c-0.2,0.4-0.5,0.6-0.9,0.5s-0.7-0.4-0.7-0.8c-0.2,0-0.1,0-0.3,0c0,0.8,0,1.5,0.8,1.6c0,0,0.2,0,0.2,0.3s0.5,0,0.5,0.2s0.3,0,0.3,0
	c0.1,0.1,0.3,0.2,0.4,0.2c0,0,0.2,0,0-0.2c-0.2-0.2,0.2,0,0.4,0c0.1,0,0.2-0.4,0.5-0.5c0.1-0.2,0.1-0.5,0-0.7
	c-1.1,0.2-1.4-0.9-0.8-1.5c0-0.8,0.2-1.7,1-1.4c0,0,0,0.3,0.2,0.4L19.2,61.2z M19.2,66L19.2,66h0.1H19.2z M14.9,59.4
	c0-0.7,0.1-1.4,0.4-2c0-1.3,0.8-1.7,0.7-3.1c-0.3,0-0.2-0.5-0.2-0.6s-0.2,0.4-0.4,0.4c0-0.3,0.2-0.3,0.3-0.6
	c-0.5-0.2-0.7,0.4-1.5,0.2c0,0-0.2,0-0.2,0.2c-0.1,0-0.3-0.2-0.3-0.3c-0.3,0.1-0.5,0.1-0.8,0c-0.3,0.2-0.5,0.5-0.9,0.6
	c-0.4,0.5-0.8,0.9-1.3,1.2c0,0.9-0.9,0.6-0.9,1.4c0.2,0,0.2,0.2,0.5,0c0,0.4-0.3,0.4-0.4,0.6c-0.1,0.3,1,0,1,0.6
	c0.2,0.1,0.4,0.1,0.6,0c0.2-0.1,0.2-0.3,0.5-0.5c0.3-0.2,0.3-0.2,0.4-0.4s0,0,0,0s0.1-0.6,0.4-0.7c0-0.6,0.3-0.7,0.6-0.9
	s0,0.4,0,0.6c0,0.2,0.3,0.4,0.2,0.9c-0.3,0.4-0.6,0.8-0.7,1.3c0.2-0.1,0.4-0.2,0.7-0.2c0.1,0.5-0.1,0.9-0.5,1.2c0.1,0.3,0.1,0.6,0,1
	c0,0-0.1,0.2-0.1,0.6s0.2-0.2,0.4-0.2c0.2,0.4,0,0.9-0.3,1.1c0,0,0,0.4,0,0.4c0-0.1,0.2,0.2,0,0.4c-0.2,0.3-0.5,0.6-0.9,0.8
	s0.2,0.3,0.4,0.5c0.3-0.1,0.5-0.3,0.7-0.5c0.2,0,0,0.3,0.3,0.3V64c0.3,0.2,0.6,0.3,0.9,0.2c0-0.2,0-0.4-0.1-0.3c0-0.4,0-0.5,0-0.9
	c-0.4,0-0.5,0.2-1,0.2c0-0.4,0.3-0.3,0.1-0.6c0.3-0.1,0.5-0.3,0.7-0.5C14.6,61.2,14.4,60,14.9,59.4L14.9,59.4z M12.9,57.5
	c0,0.5-0.4,0.6-0.2,0.9c0.2-0.2,0.3-0.5,0.3-0.8l0,0c0,0-0.2,0-0.3,0L12.9,57.5z M12.7,61c0,0,0-0.1-0.3-0.1
	C12.1,60.9,12.4,61.1,12.7,61l0,0.2c0.2,0,0,0,0.3,0V61C12.7,61,12.8,61,12.7,61L12.7,61z M9.9,62.2c0,0.2,0.2,0,0.1,0.3
	c0.6,0,0.8,0.7,1.4,0.7c0-0.5-0.2-1-0.6-1.3C10.7,62.1,10.2,61.9,9.9,62.2z M11.3,60.4c0.1,0,0.2-0.3,0.3-0.3c0-0.6,0.6-0.5,0.5-1.1
	c-0.2,0-0.4,0.4-0.5,0.6c-0.1,0.2,0,0-0.2,0s0,0.3-0.2,0.4c-0.2,0.4-0.7,0.6-1.1,0.5c-0.6-0.4-1-1-1.1-1.7c-0.6,0.3-1.2,0.1-1.6-0.4
	c0-0.2,0.2-0.2,0-0.5c-0.2-0.3,0,0.2,0,0.4c0.1,0.3,0,0.7,0.3,0.9s-0.3,0.3-0.3,0.6c0,0.2,0.7,0.7,0.7,1.2c0.4,0,0.5,0.3,0.6,0.6
	c0.5,0.1,0.9,0.2,1.4,0.2c0.5,0,0.8-0.6,1.2-0.8C11.4,60.7,11.4,60.6,11.3,60.4L11.3,60.4z M15.6,61.5c0,0.1,0,0.2,0,0.3
	c0.1,0,0.2,0,0.3,0v-0.4L15.6,61.5L15.6,61.5z M15.5,65.1h-0.2C15.3,65.3,15.5,65.3,15.5,65.1L15.5,65.1z M15.4,65.7
	c-0.2,0,0,0.2-0.3,0s0.5,0.3,0.7,0c0.1-0.3,0.7,0.3,0.8,0c-0.4,0-1,0-1.2-0.2V65.7z M16.3,65.1c0,0.2,0.4,0.3,0.6,0.1
	C17,65.1,16.5,65.2,16.3,65.1z M8.5,51.6v0.2c0.1,0,0.3,0,0.3-0.2H8.5z M8.5,53.2c-0.1,0.1-0.3,0.2-0.5,0.2c0,0,0.4,0,0.4,0
	c0.4-0.3,0.8-0.4,1.3-0.5c0-0.2-0.3-0.2-0.4-0.4c-0.1-0.2,0.3,0,0.3-0.2C9.6,52.1,9.4,52,9.2,52c0,0,0,0.2,0,0.3c0,0.1-0.4,0-0.5,0
	s0.2,0,0.2,0.4s-0.2,0.2-0.2,0.4L8.5,53.2z M5.8,48.7c0,0,0,0.1,0,0.2h0.2v-0.2H5.8z M2.5,50.3h0.1H2.5z M2.6,51.2
	c-0.4,0.4,0,1.1,0.1,1.4c0.3-0.2,0-0.5,0-0.8s0,0-0.2,0c0-0.2,0-0.4,0-0.6L2.6,51.2z M2.5,41.9c-0.2,0-0.3,0.3-0.3,0.6
	c0,0.3,0.1-0.3,0.4-0.2c-0.2,0.4-0.3,0.9-0.3,1.4c0.4-0.3,0.5-0.9,0.7-1.5C2.6,42.1,2.6,42,2.5,41.9L2.5,41.9z M1.7,45.1
	c0,0.2,0.1,0.2,0.3,0.2s0-0.4,0-0.3c0.1-0.3,0.4-0.4,0.4-0.9C2,44.1,2,44.6,1.9,45c-0.1,0.4,0,0,0,0L1.7,45.1z M1.6,45
	c-0.2-0.1-0.4,0-0.5,0.1S0.9,45.5,1,45.7c0.1-0.1,0.3-0.2,0.3-0.6L1.6,45z M0.7,50.3c0,0.4,0.2-0.3,0-0.3
	C0.5,50.1,0.7,50.4,0.7,50.3z M0.7,48c0.8,0,0.3,1.4,0.5,1.9c0.2-0.1,0.2-0.2,0-0.4s0.3,0,0.4,0c0-0.2,0-0.4,0-0.6
	c-0.2,0-0.2,0-0.3,0c-0.1-0.1-0.2-0.3-0.2-0.5c0-0.2,0.1-0.4,0.2-0.5c0-0.7,0-1.5,0-2.2c0,0.2-0.4,0.2-0.7,0.2
	c-0.2,0.7-0.3,1.4-0.2,2.1H0.7z M1.1,50.3c0,0.2,0.1,0,0,0.3S1.4,50.3,1.1,50.3z M1.8,51.9L1.8,51.9c0,0.2,0,0.2,0.2,0.2
	C1.9,52,1.9,51.9,1.8,51.9l0-0.5c-0.1,0,0,0-0.2,0.2h0c-0.2-0.2-0.3-0.5-0.4-0.8c-0.2,0,0,0.7,0,0.8c-0.1,0.4,0,0.9,0.3,1.2
	c0-0.4-0.2-0.5,0-0.7c-0.2,0,0-0.4,0-0.4L1.8,51.9z M1.8,54.1c-0.1,0.1-0.1,0.3,0,0.5c0.1,0.2,0.2,0.3,0.3,0.3
	c0.1-0.2,0.1-0.4,0-0.6c0,0-0.2,0-0.3,0L1.8,54.1z M2.5,56.2c0,0,0,0.4,0.3,0.4C3,56.5,2.8,56.2,2.5,56.2L2.5,56.2
	c-0.1-0.2-0.3-0.5-0.3-0.8v0.4c0.2,0,0.1,0.2,0.3,0.3h0.1V56.2z M3.7,57.9c-0.3,0-0.4-0.5-0.6-0.7l0,0c0,0.7,0.3,0.9,0.6,1.2V57.9z
	 M3.7,55.8c0.1,0,0-0.3,0.2-0.3c-0.2-0.4-0.2-1-0.6-1.2c0-0.4,0-0.8-0.2-0.9c0-0.1,0-0.2,0-0.3c0,0,0,0-0.2,0l0,0
	c0,1,0.6,1.5,0.7,2.3L3.7,55.8z M3.7,56.2c0.4,0,0.2,0.4,0.5,0.4c0-0.4-0.3-0.6-0.5-0.9C3.6,55.4,3.8,56,3.7,56.2L3.7,56.2z
	 M4.2,53.9c0.2-0.2,0.4-0.4,0.6-0.7c0.2,0,0.2,0,0.4,0c0-0.4,0.1-0.5,0.2-0.7c-0.7,0-1.2-0.3-1.8-0.2c0,0.4-0.2,0.5-0.2,0.9
	c0,0.4,0.4,0.6,0.5,1C4.2,54.2,4.3,54.2,4.2,53.9L4.2,53.9z M5.2,58.3c0.1,0,0-0.2,0-0.2S5.2,58.2,5.2,58.3z M5.7,60.9
	c0,0,0-0.5-0.3-0.5c-0.3,0,0,0.2,0,0.4S5.6,60.7,5.7,60.9L5.7,60.9z M5.8,59.2c0.1,0.3,0.3,0.4,0.5,0.5c0-0.2-0.1-0.3-0.2-0.5
	L5.8,59.2L5.8,59.2z M6.2,58c0.5-0.5,0.8-1.1,1.2-1.6h0c0.2-0.1,0.4-0.2,0.6-0.2c0-0.2-0.2,0,0-0.3c0.6-0.4,1.2-0.7,1.9-1v-0.2
	c0.4,0,0.5-0.6,1-0.6c0.1-0.3,0.3-0.5,0.6-0.6c0-0.2,0.2-0.4,0.5-0.3c0.3,0.1,0-0.2,0-0.4c0.5-0.2,0.9-0.4,1.2-0.8
	c0.5,0,0.5-0.3,1-0.3c0-0.3,0.1-0.5,0.4-0.5c-0.1-0.2-0.2-0.4-0.2-0.6c-0.7,0-1,0.3-1.8,0.2c-0.2,0.3-0.7,0.3-0.9,0.6
	c-0.2,0.3-0.6,0-0.7,0c-0.3,0.2-0.8,0.2-1,0.6c-0.1,0.4,0-0.2,0.3,0c0.3,0.2,0,0,0,0.2s-0.3,0-0.2,0.5l0.7-0.3c0.2,0,0,0.2,0.3,0
	c0,0.3,0,0.5,0.1,0.7c0.1,0.1-0.2,0-0.2,0.3c-0.8-0.3-1.2,0.2-1.9,0.3c0,0.2-0.1,0.2-0.2,0.4H8.7c-0.3,0-0.5,0.3-0.8,0.3
	c-0.4,0-0.6,0.4-0.8,0.6c-0.8,0-0.8,0.6-1.6,0.5c0,0.2-0.5,0-0.7,0.3v0c0.4,0.3,1.2-0.2,1.4,0.2s0.9,0,1.4,0c0,0.2-0.2,0.2,0,0.4
	H7.5c0,0-0.5-0.2-0.6,0c-0.6-0.2-1.3-0.2-2-0.2c0,0.3,0.2,0.5,0.2,0.7c0,0.3-0.3,0.3-0.5,0.3s0,0.3-0.2,0.3
	c-0.2,0.1,0.2,0.2,0.2,0.3c0,0.2,0.3-0.3,0.3-0.5c0.5,0,0.6,0.3,0.6,0.8c0.2,0,0.3,0,0.6,0L6.2,58z M13.4,66.6
	c0.3,0.3,0.6,0.4,1,0.4c0-0.3-0.5-0.2-0.7-0.4c0.1-0.3,0-0.6-0.2-0.8c0,0,0-0.3,0-0.4c0.4,0,0.4,0.7,0.8,0.3c0.3-0.4,0-0.2-0.1-0.2
	c-0.1,0,0-0.2,0-0.3c0.4,0,0.5,0.2,0.8,0.2c0-0.2-0.4-0.2-0.6-0.2c-0.2,0-0.6-0.3-0.8-0.5c-0.7,0-1.3,0-1.4-0.6c-0.1,0-0.4,0-0.4,0
	c-0.4,0-0.4-0.4-0.6-0.6c-0.2-0.2-0.2,0-0.2,0c-0.2,0-0.5,0-0.7,0c-0.3-0.4-0.7-0.6-1.2-0.7c0,0,0-0.2-0.2,0s0-0.3,0-0.5
	c-0.4,0-0.7-0.2-0.8-0.6c-0.1-0.4-0.6-0.1-0.8-0.4c-0.1-0.3,0,0.2,0,0.3c0.5,0,0.4,0.6,0.7,0.8c-0.4,0-0.5-0.4-0.7-0.6
	c0.1,0.4,0.4,0.7,0.8,0.8v-0.3c0.4,0,0.5,0.3,0.9,0.4c0,0.2,0,0.3,0,0.5c-0.2,0,0-0.2-0.2,0c-0.1,0-0.1,0-0.2,0.1s-0.1,0.1-0.1,0.2
	c-0.1,0-0.3,0-0.3,0.2s-0.4-0.5-0.8-0.5c0.2,0.4,0.5,0.7,0.8,0.9c0,0.4,0,0.4,0,0v-0.4v-0.3c0.3-0.1,0.5-0.3,0.7-0.5
	c0.2,0,0.2,0.3,0.2,0.5c0.2,0.3,0.5,0.4,0.8,0.3c0-0.2-0.2-0.1,0-0.4c0.5,0,0.9,0.2,1.1,0.7h0.8h0.2c0,0,0.3,0.2,0.2,0.4
	c-0.1,0-0.2,0-0.3,0c-0.3,0-0.3-0.4-0.7-0.3c0,0,0,0.3,0.1,0.3s-0.1,0,0,0.2c-0.6,0-1.1,0-1.2-0.5s-0.5,0-0.5-0.4c0-0.4-0.4,0-0.5,0
	s0.1,0.3,0.2,0.5c0.5,0,0.7,0.4,1.2,0.4c0.5,0,0.2,0.8,0.1,1.3c0.2,0,0.2-0.3,0.2-0.5h0.2c0.2,0,0,0.3,0,0.5c0,0.2,0.6-0.4,0.9,0
	s0-0.3,0.2-0.2c-0.2-0.3-0.6-0.4-1-0.5s0-0.3,0.2-0.4c0.3,0.1,0.6,0.3,0.9,0.4c0-0.3-0.3-0.2-0.4-0.5c0.5,0.1,0.9,0.3,1.3,0.6
	c-0.1,0-0.2,0-0.3,0c0,0.2,0.3,0.2,0.3,0.4h-0.5c0,0.5,0.6,0.3,0.7,0.6c0.1,0.4,0,0.3,0,0.2H13.4z M14.9,67c0,0.2,0.3,0.2,0.3,0
	H14.9z M17.7,67.2c0.2,0.1,0.4,0.1,0.6,0C18.2,66.9,17.8,67.2,17.7,67.2z M18.9,67.2c0-0.4,0.5-0.2,0.5-0.4c-0.3,0-0.5-0.2-0.9-0.2
	c0-0.3,0.2-0.3,0.3-0.4c0.1-0.1-0.3,0-0.5-0.2c-0.1-0.2,0,0,0-0.2s0.2,0,0.2-0.3c0.1,0.1,0.2,0.1,0.3,0.1c0-0.2,0.2,0,0.1-0.4
	c-0.5-0.1-0.6,0.2-1.1,0.2c0,0.2,0.2,0.3,0,0.4c-0.2,0.1-0.4,0-0.6,0c-0.2,0,0,0,0,0s1,0,1.2,0.3c-0.5,0.5-1.6,0-2.5,0.2
	c-0.3-0.1-0.7,0-1-0.2c-0.3,0.3-0.5,0-0.8,0c0,0.6,0.9,0.3,1.1,0.7c0.4-0.2,0.9-0.2,1.3,0h1.6c0.2,0,0.3,0.3,0.6,0.2L18.9,67.2z
	 M19.3,63.6c0.2,0,0,0.2,0.2,0.2c0.2,0,0.2-0.5,0.5-0.6c0.2-0.1,0-0.7-0.1-0.8c-0.1-0.1,0-0.6-0.1-0.6c0,0.5,0.2,1.1-0.3,1.1
	c0,0.2,0,0.5,0,0.7H19.3z M20.6,62.7c0,0.5-0.1,1-0.3,1.4c0,0-0.2,0-0.3,0c0.2,0.4,0.9,0,1.3,0c0,0.2-0.3,0-0.2,0.3
	c0,0.3,0.2,0.2,0.3,0.2c0.1,0.1,0-0.2,0.1-0.3h0.3c0,0,0.1,0.2,0.1,0.3s0-0.4,0-0.6h-0.1c0.3,0,0.6,0,0.6-0.5c-0.5,0-1-0.4-0.8-1
	c0.2,0,0.3,0,0.5,0c0-0.6-0.9-0.5-1.1-0.9c-0.3,0,0,0.7-0.4,0.8L20.6,62.7z M22.4,62.9c-0.2,0.2,0.2,0.4,0.4,0.4
	C23.1,63.4,22.6,62.9,22.4,62.9z M22.2,65.5H22C22,65.5,22,65.5,22.2,65.5z M20.9,65.8h-0.2V66h0.2V65.8z M20.3,65.2
	c0,0.2,0.4,0.2,0.3,0H20.3z M20.3,67.1c0,0.2,0.2,0.2,0.2,0H20.3L20.3,67.1z M22.9,65.9c0,0,0.2,0,0.1,0H22.9L22.9,65.9
	C22.7,65.9,22.5,65.8,22.9,65.9l-1.7,0.3c0,0-0.2,0.1-0.3,0.2c-0.2,0-0.4,0-0.6,0c-0.2,0-0.4,0.2-0.6,0.1v0.2c0.4,0,0.9,0,1-0.2
	C21.5,66.6,22.2,66.4,22.9,65.9L22.7,66H23L22.9,65.9z M22.8,65.5c0.5-0.3,1.2-0.3,1.5-0.8c-0.4,0-0.7,0-0.7,0.3
	c-0.5,0-0.6,0.3-1,0.3C22.3,65.4,22.7,65.3,22.8,65.5z M23.4,64.7c0.1,0,0.3,0,0.3-0.2h-0.3V64.7L23.4,64.7z M25.1,65.1
	c0-0.2,0.4,0,0.4-0.3h-0.3C25.2,65,25.2,65,25.1,65.1L25.1,65.1z M25.7,62.8c0-0.3,0.2-0.4,0.2-0.7l-1-0.7c-0.2,0-0.1,0.5-0.6,0.3
	c-0.1-0.2-0.1-0.4,0-0.6c0,0,0-0.2,0,0s-0.1,0-0.1-0.2c0-0.2-0.1-0.4-0.1-0.6l0,0c0,0,0-0.3,0-0.4c0-0.1,0,0-0.1,0
	c-0.1,0,0-0.2-0.1-0.2v-0.4c-0.2-0.2-0.3-0.4-0.4-0.6c-0.1,0,0,0-0.3,0s0-0.2,0-0.3c-0.5-0.2-0.4-0.8-0.9-1c0-0.2,0-0.3,0-0.5
	c-0.3-0.3-0.5-0.7-0.6-1.1c-0.4,0-0.5-0.3-0.8-0.4c-0.3-0.1,0,0.3,0,0.5c0,0.1-0.2-0.2-0.3-0.3c0-0.2,0,0.2-0.1,0.3
	c-0.5,0.2-0.2,0.9,0,1.3s-0.2,0,0,0.2c0.2,0.2,0.2,0.4,0.4,0.4s-0.1,0.4-0.3,0.5c-0.1,0.3-0.1,0.7,0,1h0.3c0,0.4,0.7,0.3,0.8,0.7
	h0.3c0.1-0.2,0.1-0.4,0.1-0.7c-0.1,0-0.3-0.5,0-0.6s0.3,0.4,0.5,0.5c0,0.9,0.7,1.2,0.8,2.1h0.6c0,0.2,0,0.3-0.2,0.4
	c0,0.6,0.4,0.7,0.4,1.2c0.2,0,0.3,0,0.5,0c0,0,0,0,0,0c0.3-0.3,0.7-0.3,1.1-0.2L25.7,62.8z M27.1,63.2c0-0.2-0.2,0-0.3,0
	c-0.1,0-0.2,0-0.2,0.3l0.5-0.2V63.2z M27.1,63.9c0,0,0.2,0,0.2,0S27.3,63.9,27.1,63.9z M27.1,61.5c0.1-0.3,0.4-0.4,0.6-0.5
	c0.2-0.3,0.5-0.6,0.8-0.8c0-0.4,0.2-0.4,0.3-0.7c0.1-0.2-0.4-0.2-0.4-0.5c0-0.3,0.4-0.8,0.4-1.2s-0.2,0.4-0.2,0.5s-0.1,0.4-0.2,0.5
	c0,0.1-0.4,0.3-0.7,0.6h-0.6c0,0,0,0.4-0.3,0.4c0,0.6-0.3,0.6-0.5,0.9c-0.2,0.3-0.7-0.3-1.2-0.2c0.3,0.5,0.7,0.9,1.1,1.1
	C26.5,61.6,26.8,61.6,27.1,61.5L27.1,61.5z M37.9,50.7c0-0.3-0.4-0.2-0.6-0.3c-0.2-0.1-0.3-0.3-0.5-0.4h-0.4c-0.1,0-0.2-0.2-0.4,0
	c-0.5,0.2-1,0.3-1.5,0.3c0,0.3-0.2,0.3-0.4,0.3c0,0.4-0.2,0.8-0.5,1c0,0.2-0.1,0.5-0.2,0.7c0.1,0.7,0,1.4-0.3,1.9
	c0,1-0.6,1.5-0.8,2.3c-0.1,0,0,0.3-0.3,0.3c0,0.8-0.6,0.9-0.7,1.6c-0.1,0.7-0.5,0.8-0.8,1.1c-0.3,0.3,0.1,0.1,0.2,0.2
	c0,0.1,0,0.2,0,0.3c-0.4,0.5-0.7,1.1-1.3,1.3c0,0.2-0.1,0.3-0.2,0.4c-0.1,0.1-0.3,0.1-0.5,0.1c0,0,0,0,0-0.2s-0.3,0.2-0.3,0.3
	c0.1,0,0.2-0.1,0.3-0.2c0,0,0,0-0.1,0.6c0.7,0,0.6-1,1.4-0.8c0,0.3-0.3,0.5-0.4,0.8s-0.6,0-0.5,0.4c0.5,0,0.8-0.8,1.3-0.6l0,0
	c0,0,0.8-0.2,0.9-0.7c0.1,0,0.1-0.3,0.3-0.2c0.2-0.6,0.7-0.8,0.9-1.3c0.2,0,0.2-0.3,0.5-0.4c0.2-0.1,0.4-0.5,0.4-0.9
	c0-0.5,0.4-0.6,0.6-0.8c0.2-0.2,0-0.4,0-0.6c0-0.2,0,0,0.1,0c0.1,0,0.2-0.9,0.5-1.1c0-0.3,0.1-0.6,0.4-0.8c0-0.3,0-0.6,0.2-0.7
	c0.2-0.1,0-0.7,0.2-0.8c0-1,0.3-1.7,0.3-2.5c0,0,0-0.2,0.2-0.2c0.4-0.1,0.8,0,1.2,0.2c0,0.2,0,0.3,0,0.5c0,0.4-0.6,0.3-0.8,0.6
	c0.1,0.3,0.2,0.6,0.5,0.8c0.5,0,0.7,0,1.1,0c0-0.4,0.3-0.4,0.4-0.6c0.1-0.4,0.1-0.7,0-1.1c0-0.2,0-0.6,0.1-0.6L37.9,50.7z
	 M35.2,39.3v0.2c0.1,0,0,0,0.2,0c0.2,0,0,0-0.2,0V39.3z M36.8,42c0-0.3,0-0.3,0-0.5c-0.2,0.1-0.2,0.3-0.2,0.5H36.8L36.8,42z
	 M38.2,45.9c0.3,0,0.3,0,0.4-0.2c0.1-0.2,0.5,0,0.7,0c0-0.1,0-0.2,0-0.3c0.4,0,0.7,0,1,0c0,0.2-0.1,0-0.2,0.2v-0.3
	c-0.2,0.1-0.4,0.1-0.6,0c-0.1,0,0,0.4,0,0.5c0,0,0.3-0.2,0.6-0.2v-0.3c0.1,0,0.3,0,0.3-0.3h-0.2c0-0.2-0.3,0-0.3-0.3
	c-0.6,0.5-0.9-0.7-0.2-0.8c0-0.4,0.1-0.7,0.3-1c0-0.3-0.5-0.2-0.6-0.5c0.4-0.4,0.6-1.1,0.5-1.7c-0.3-0.1-0.5-0.4-0.7-0.7
	c-0.5,0-0.7-0.5-1.3-0.6c-0.4-0.3-0.9-0.5-1.4-0.4c0,0.2,0,0.3,0.2,0.4v0.2c-0.2,0,0,0.6-0.3,0.8h-0.2c0-0.1-0.4,0-0.5,0
	s-0.2,0.7,0.2,0.7c0,0.4,0,0.7,0,1c0,0,0,0-0.3-0.9c-0.2,0-0.2,0-0.3,0v0.1c-0.1,0.2,0,0.1,0.2,0.2c0.2,0.1,0,0.3,0,0.3s0,0,0,0
	s0,0.5,0,0.7c0.6-0.3,0.3-0.6,0.3-0.6c0.3,0,0,0.5,0.5,0.4c0.1-0.3,0.1-0.7,0-1c0-0.2-0.2-0.2-0.2-0.3c0-0.1,0-0.2,0-0.3
	c0-0.3,0.1-0.3,0.2-0.4c0.2,0,0,0.3,0.3,0.2c0.3-0.1,0.2-0.2,0.1-0.4H37c0.1,0,0,0.3,0,0.4s0.2,0.9,0,1c-0.2,0.1,0.2,0.2,0.3,0.3
	c0.1,0.1,0,0.2,0,0.3l0.1,0.2c0,0.6-0.2,1.5,0,1.9c0.2,0.5-0.1-0.2-0.1,0.1s0.2-0.6,0.5-0.7c0.1-0.6,0.2-1.3,0.5-1.9
	c0.3,0.2,0.8,0,0.9,0.2c0,0.4-0.1,0.5-0.3,0.6s-0.2-0.2-0.4-0.2c0,0.1,0,0.2,0,0.3c0.1-0.1,0.2-0.1,0.3,0c0.5,0.9-0.4,1.6-0.6,2.4
	L38.2,45.9z M39.7,47c-0.2,0,0,0.2-0.3,0c-0.3-0.2,0,0.2,0.2,0.2c0-0.1,0-0.2,0-0.3L39.7,47z M39.4,46.5v-0.2V46.5L39.4,46.5z
	 M38.5,46.5c0,0.2,0.6,0.2,0.6,0C38.8,46.7,38.8,46.5,38.5,46.5z M43.7,48.2c0,0.2,0.1,0.2,0.3,0.2C44.2,48.4,44,48.2,43.7,48.2z
	 M44.1,46.6c0.2-0.2,0.2-0.6,0.7-0.6c0-0.6,0.6-0.7,0.8-1.2c0.3,0,0.5,0,0.8-0.2c0-0.6,0.3-0.8,0.4-1.2h-0.6c-0.2,0-0.2-0.4-0.2-0.6
	H46c0.1-0.1,0.1-0.4,0.3-0.4c0.1-0.3,0-0.7-0.1-1c-0.5-0.2-0.7-0.7-1.2-0.8s-0.9-0.5-1.1-1c-0.4,0-0.5-0.3-0.8-0.3
	c-0.3,0-0.7,0.6-1.3,0.7c-0.2,0.2-0.5,0.4-0.8,0.4c-0.3,0.5-1.1,0.9-0.7,1.6c0.2,0,0.2-0.3,0.4-0.4c-0.1-0.8,0.4-0.8,0.6-1.2
	c0.3,0.1,0.5-0.1,0.6-0.3c0,0.2,0.4,0.1,0.4,0.4s0.2,0,0.4,0c0.2,0,0,0.3,0,0.5s0-0.2,0.3,0v0.2c0,0,0,0,0.2,0s0.5,0.3,0.7,0.6
	c-0.1,0.2-0.2,0.5-0.2,0.8c0,0,0,0,0.2,0c0,0.9-0.4,1.6-1.2,1.8c0,0.3-0.1,0.5-0.4,0.5c0,0.4-0.3,0.3-0.3,0.6h-0.7
	C41,45.7,40.9,46,40.5,46c-0.4,0,0-0.4,0-0.3c-0.2-0.1-0.5,0.2-0.6,0.3c-0.1,0.1,0.2,0,0.3,0.1c0.1,0.1,0,0.7-0.3,0.7
	c0.2,0.4-0.2,0.4-0.2,0.8c-0.3,0.3-1.1,0.2-1.5,0.4c0.2,0.3,0.7,0,1.1,0.2c0.1,0.1,0.1,0.2,0.2,0.3c-0.5,0.3-1.7-0.2-2,0.3
	c0.4,0.3,0.8,0.2,1.4,0.3c0,0.2,0,0.2,0.2,0.2c0.2,0,0.5-0.3,0.7-0.4c0.2-0.1,0-0.8,0.2-1s0-0.4,0-0.4c0.2,0,0-0.5,0.2-0.6
	c0.3-0.3,0.6-0.4,1-0.4c0.2-0.3,0.6-0.5,0.9-0.5c0.2-0.3,0.5-0.6,0.8-0.8c0-0.1,0-0.2,0-0.3c0.2,0,0.2-0.2,0.4-0.3
	c0.3-0.7,1.1-0.8,1.3-1.6c0.1,0,0.3-0.3,0.5-0.2c-0.2,0-0.1,0.5-0.1,0.7c-0.1,0.6-0.4,1.2-0.7,1.7c-0.1,0.6-0.6,1.1-1.2,1.1v0.1
	C43.4,46.5,43.7,46.5,44.1,46.6L44.1,46.6z M41.5,44c-0.2,0-0.4,0.3-0.7,0.4v0.3h0.3C41.1,44.3,41.5,44.4,41.5,44L41.5,44z
	 M41.2,43.2c0,0,0,0.2,0,0.4c0,0.2,0.4,0,0.3-0.3L41.2,43.2L41.2,43.2z M41.9,43.2c0,0.2-0.1,0.4-0.2,0.5c0.2,0.1,0.4-0.3,0.7-0.2
	V43c0.2-0.5,0.8-0.4,0.8-1.1c0,0,0,0-0.2,0C42.6,42.2,42.7,43.2,41.9,43.2L41.9,43.2z M42.7,41.6c-0.2,0-0.3,0.2-0.3,0.4
	C42.4,42.3,42.7,41.9,42.7,41.6z M56.7,46.2c0-0.2-0.2,0-0.3-0.1C56.3,46,56.6,46.4,56.7,46.2z M56.4,45.4v0.2h0.2v-0.2H56.4
	L56.4,45.4z M56.7,55.2V55h-0.2v0.2L56.7,55.2L56.7,55.2z M57.5,54.9h-0.2v0.2h0.1L57.5,54.9z M58.4,49.7c0-0.1,0.1-0.2,0.2-0.3
	c-0.1-0.5-0.2-1.1-0.3-1.7c0.2-0.2,0-0.9,0.3-1c-0.1-0.1,0-0.5-0.3-0.5c-0.3-0.1,0,0.2,0,0.2c0,0.1-0.2,0-0.1,0.3
	c-0.2,0-0.4,0-0.5-0.1c0,0.2-0.2,0-0.4,0.2c-0.2-0.2-0.5,0-0.7,0c0.1,0.3,0.1,0.5,0,0.8c0.2-0.1,0.5-0.1,0.7-0.2c0-0.3,0-0.3,0-0.5
	c0.5,0,0.9,0,0.6,0.5h-0.5c0,0.2,0.5,0.2,0.7,0.4c0,0.3-0.5,0-0.7,0.3c-0.1,0.3,0.2,0.2,0.2,0.4c-0.2,0.1-0.4,0.2-0.6,0.2
	c-0.1,0-0.1-0.3,0-0.5c-0.2,0.2-0.4,0.3-0.6,0.4c0,0.2,0.2,0.5,0,1c0.3,0,0.2,0.2,0.4,0.1c0,0.2-0.5,0-0.7,0c0,0.4-0.1,1.3,0,1.7
	c-0.2,0.7,0.1,1.7-0.3,2.1c0,0.2,0,0.3,0,0.5s-0.3,0-0.5,0c0-0.2-0.1-0.2-0.3-0.2V54h0.3c0,0,0,0,0,0.2c0,0.2,0.2-0.2,0.4-0.2
	c0.2,0.1,0.3,0.5,0.8,0.4c0.1-0.1,0.2-0.2,0.3-0.3c0.4,0.2,0.9,0.2,1.3,0c-0.1-0.4,0.2-1-0.1-1.3c-0.3-0.3,0.1-0.2,0.1-0.3
	c-0.1-0.9-0.1-1.9,0-2.9L58.4,49.7z M59,47.7c0-0.1,0-0.2-0.1-0.2v0.3H59V47.7z M59.9,46.7c0,0.1,0,0.1,0,0.2h0.1v-0.2H59.9z
	 M61.6,47.8c0.4,0,1.1,0.2,1.1-0.3c-0.7,0.2-1.3-0.1-2.1-0.1c0,0-0.3-0.2-0.4-0.4c-0.2,0-0.3,0-0.5,0c0,0.3,0.6,0.2,0.6,0.6
	c-0.3,0-0.2-0.2-0.5-0.1c-0.3,0.1,0.4,0.3,0.4,0.7c0.3,0,0.5-0.2,0.7,0c0.2-0.3-0.2-0.3-0.3-0.5v0.1c0.3,0.1,0.7,0.1,1,0.2
	L61.6,47.8z M63.1,49.4c0-0.3,0-0.2,0-0.5s-0.2,0-0.3,0c-0.1,0,0.1,0.3,0.3,0.4L63.1,49.4z M62.4,48.3c0,0.2,0.8,0.2,0.8,0
	S62.6,48.3,62.4,48.3z M63.5,48.2c0,0.2,0,0.2,0.2,0.2c0-0.1,0-0.2,0-0.2C63.6,48.1,63.6,48.1,63.5,48.2L63.5,48.2z M64.1,48.8
	c0,0,0-0.2,0.2-0.2s-0.2,0,0-0.2c0.2-0.2-0.2,0.3-0.5,0.2C63.5,48.6,64,48.8,64.1,48.8L64.1,48.8z M64.2,48.1c0,0,0.1,0,0.2,0
	c0.1,0,0.2-0.1,0.2-0.3c0-0.2-0.2,0,0-0.2c0.2-0.2-0.2,0-0.2,0.3c-0.1,0-0.1,0-0.2,0L64.2,48.1z M64.8,52.9L64.8,52.9
	c-0.1-0.1-0.1-0.1-0.3-0.1s0.1,0.2,0.3,0.2V52.9z M64.7,50.3c0.2,0,0.2-0.3,0-0.2S64.7,50.3,64.7,50.3z M66.2,45.9
	c-0.3,0-0.2,0.5-0.2,0.9c0,0.4,0.2,0,0.4,0c-0.2-0.2,0-0.4,0.2-0.5C66.7,46.1,66.4,46,66.2,45.9c0.1,0,0.3,0,0.3-0.2h0.1
	c0,0,0-0.3,0-0.2c-0.2,0-0.2,0-0.3,0V46L66.2,45.9z M66.8,49.8c0.1-0.2,0.3-0.3,0.3-0.6c0-0.1-0.1-0.2-0.3-0.3c0-0.3,0-0.6,0-0.9
	c-0.1,0-0.3,0-0.3-0.3c0,0,0,0,0.2,0s0-0.3,0-0.4c-0.2,0.1-0.4,0.2-0.6,0.2c0.1,0,0.4,0,0.3,0c0,0.2-0.2,0-0.3,0.2
	c-0.1,0.2,0.2,0,0,0.2c0,0.2-0.2,0.3-0.2,0.5s0,0.8-0.1,0.7c-0.1-0.1,0.1,0.2,0.2,0.4c-0.3,0.8,0.2,1.6,0,2.2c-0.2,0.6,0,0.6,0,0.7
	c0,0.1-0.2,0.2-0.1,0.5c0,0.3,0.3,0.2,0.5,0.3c0.2,0-0.2,0-0.2,0.3c0.2,0.2,0.4,0.3,0.6,0.4c0,0-0.3,0.2,0,0.3s0-0.6,0-0.9
	c0-0.4,0.1-0.7,0.2-1.1c-0.3-0.3,0-0.9,0-1.3c0-0.4-0.1-0.9-0.1-1.3L66.8,49.8z M67.2,45.3c0,0,0.1,0,0.3-0.2v11.3
	c-0.1-0.2-0.3-0.4-0.3-0.6c0.1-0.2,0.1-0.4,0-0.5c-0.5-0.2-1.4,0.2-1.7-0.3c0.4-1.7-1.5-1.1-2-2v-0.2l0.4-0.2c0,0,0-0.5,0.2-0.5
	c-0.1-0.3-0.2-0.6-0.2-1l0.3-0.2c0-0.3-0.1-0.6-0.2-0.8c0,0,0,0.2-0.2,0c-0.2-0.2-0.5,0-0.4-0.2c0-0.2,0.7,0,0.9-0.3
	c0-0.1,0-0.2,0-0.3c-0.8,0.1-1.5,0.1-2.3,0c0-0.4,0.3-0.3,0.5-0.4c0.2-0.1,0-0.3-0.2-0.3c-0.7,0.4-1.8,0-2.5-0.3c0,0,0-0.3,0-0.4
	h-0.2c0,0.2,0,0.5,0,0.7h-0.3c0,0,0,0,0,0.3s0.5,0,0.5,0.2c-0.1,0.1-0.3,0.2-0.4,0.2c0,0.6,0,1.2,0,1.9c-0.1,0.8,0,1.7,0.1,2.5
	c0.4,0,0.5-0.2,0.9-0.2c0.3-0.5,0.8-0.7,1.3-0.6c-0.3,0.2-0.7,0.3-0.9,0.6c-0.5,0.1-0.9,0.5-1.1,0.9c0,0,0,0.2,0,0.3l-0.3,0.3
	c-1.1,0.2-2.1,0.2-3.2,0.2c-0.3-0.5-0.9-0.8-1.2-1.2c-0.7,0-1.3-0.1-1.9-0.3c-0.2,0.3-0.7,0.2-1.2,0c-0.4-0.2-0.4-0.4-0.3-0.8
	c0.2,0,0.5-0.1,0.7-0.3c0.4,0.5,1.1,0.7,1.7,0.6c0-0.3,0.4-0.3,0.7-0.4c0.3-0.1,0.3-0.8,0.6-1c0.4-0.2,0.3,0.5,0.6,0.5
	c0.3,0.1-0.2,0-0.2,0.4h0.3c0.2-0.5,0.3-1.1,0.3-1.7h-0.5c0-0.2,0.2-0.2,0.3-0.4c0-0.2,0.1-0.5,0.2-0.6c0-0.5-0.5-1-1-0.7
	c0.1,0.3-0.1,0.5-0.3,0.7c0.1,0.1,0.2,0.3,0.1,0.4l-0.5,0.2c0,0,0.2,0.2,0,0.5c-0.6,0.2-0.9-0.3-1.5-0.2c0-0.2,0-0.3,0-0.5
	c-0.5,0-0.5-0.6-0.7-0.9c-0.6-0.2-1.2-0.3-1.8-0.4c-0.1,0.2-0.3,0.2-0.5,0.2c-0.2-0.4,0-1-0.3-1.4c-0.2,0.2-0.8,0-1.1,0
	c0,0.4-0.2,0.5-0.3,0.7c-0.1,0.2,0,0.5-0.1,0.5c-0.2-0.3-0.2-0.6,0-0.9c-0.2,0,0-0.6-0.4-0.6c-0.2,0.2-0.3,0.5-0.3,0.8
	c-0.4,0.3-0.9,0.4-1.3,0.4c-0.2,0.1-0.3,0.1-0.5,0c-0.1-0.6,0.2-1.7-0.2-2c-0.2,0-0.4,0.1-0.5,0.3s0,0.4,0.2,0.6
	c0,0.5-0.3,0.5-0.4,0.8c-0.6,0-0.9,0-1,0.6c-0.2,0.1-0.5,0.1-0.7,0c0-0.5,0.5-0.8,0-1.1c0.2-0.3,0-0.7,0-1c0-0.3-0.3,0-0.3,0
	s-0.2,0.9-0.5,1.1c0,0,0.3,0,0.2,0.4s-0.5,0.2-0.7,0.3c-0.2,0.1,0.3,0.2,0.3,0.5c-0.4,0-0.8-0.2-1,0.2c0.1,0.2,0.1,0.4,0.1,0.6
	c-0.2,0,0-0.3-0.3-0.4c-0.3-0.1-0.8-0.2-0.8-0.4c-0.6,0-1.3,0.1-1.8,0.5c0,0,0.2,0.3,0.3,0.4c0.1,0.1,0,0.3,0,0.4
	c0.5,0.3,0.3,1.1,0.3,1.7c0.6,0,1.2,0.1,1.8,0.2c0.2-0.2,0.8,0,0.9-0.3c0.2,0,0.4,0,0.5,0.2c0.3-0.2,0.6-0.3,0.9-0.4
	c0.6,0,1.3,0,1.7-0.3h0.6c0-0.4,0.6-0.4,0.7-0.8c0.3,0,0.2,0.6,0.5,0.7c0.3,0.2,0.5,0,0.4,0.4s-0.4,0-0.4,0s0.3,0,0.3,0.2
	s0.1,0,0.2,0c0.5,0.4,1.4,0.3,1.8,0.8c0.4,0.4-0.2,0.3,0,0.3c0.1,0,0.3,0,0.4,0c0,0.1,0,0.4,0,0.6c-0.4-0.1-0.7,0-1,0.2
	c0,0,0.2,0.4,0,0.4c-0.2,0,0-0.2-0.1-0.2c-0.7-0.2-1-0.7-1.4-1.1c-0.2,0.3-0.4,0.4-0.7,0.5c0,0.4,0.6,0.3,0.6,0.7
	c0,0.4-0.1,0.2-0.1,0.3c0.1,0,0.2,0.2,0.3,0.3c0,0.1,0,0.3,0,0.4c-0.3,0.1-0.5,0.1-0.8,0c-0.6-0.8-1.4-1.3-2.3-1.6
	c0,0.7,0.6,0.8,0.8,1.3c0.2,0.5-0.3,0-0.5,0c-0.1,0.2-0.2,0.3-0.4,0.3c-0.1,0-0.2-0.2-0.3-0.2c-0.1,0.3-0.3,0.5-0.6,0.6
	c-0.5-0.4-1-0.8-1.5-1.3c-0.2,0-0.4-0.2-0.5,0c-0.1,0.2,0.5,0.4,0.6,0.8c-0.1,0.1-0.2,0.2-0.3,0.4c0.1,0,0.1,0,0.1,0s0,0,0.1,0
	c0.1,0,0,0.3,0,0.4c0,0.1,0,0,0,0s0,0.7,0.1,1c-0.5,0-0.4-0.7-0.8-0.9c0,0.1-0.1,0.2-0.2,0.3s-0.2,0.1-0.3,0.1
	c-0.7-0.5-0.9-1.3-1.9-1.4c0,0,0,0.4,0,0.6s-0.2,0.2-0.3,0.2c-0.2,0-0.3,0-0.4,0c0.3,0.2,0,0.8,0.2,1c0.2,0.3-0.2,0,0,0.2
	c0.2,0.2-0.1,0.7-0.3,0.7s0,0.5-0.3,0.4c0-0.5,0.4-1.3,0-1.7c0.1-0.4,0-0.7-0.2-1h-0.4c0-0.3-0.3-0.2-0.1-0.6
	c-0.2,0-0.2-0.2-0.4-0.3c0.1-0.4,0.1-0.8,0-1.2c-0.3,0-0.4,0.3-0.4,0.6c0,0.3,0.3,0.5,0.2,1c-0.2,0-0.2,0.2-0.4,0
	c-0.3,0.3-0.2,0.6-0.3,1.1c-0.1,0.5-0.5,1.2-0.8,1.7l0.2,0.2c0,0.2,0,0.4,0,0.6s0,0.3,0.2,0.3c0.2,0,0.1,0.2,0.4,0.2
	c0.2,0.6,0.9,0.8,1.2,1.2c0.5,0,0.9,0,1.1-0.4c0.3,0,0.5-0.1,0.8-0.2c0,0,0-0.3,0.2-0.3c0.2,0,0.2,0,0.3,0s0-0.2,0-0.2
	s0.3,0,0.5-0.2s0-0.4,0.2-0.5c0.2-0.1-0.1-0.3-0.4-0.3c-0.3,0.1,0-0.3-0.1-0.5c-0.1-0.2,0.2,0,0.3-0.2s-0.2-0.2,0-0.4
	c0.2-0.2,0.5,0,1,0c0.4,0,0.3,0.4,0.2,0.8c0.3,0.1,0.4,0.4,0.4,0.8c0.2,0,0.2,0.4,0.4,0.5c0.2,0.1,0.4,0.2,0.5,0.4
	c0.1,0,0.3,0,0.4,0c0,0.3,0.4,0.3,0.7,0.4c0.3,0.1,0.4,0.4,0.6,0.5c0.2,0.2-0.2,0-0.2,0.3c0.1,0.3-0.4,0-0.6,0
	c-0.1,0-0.1-0.2-0.2-0.2s-0.3,0-0.4-0.2c-0.3-0.1-0.6-0.2-0.9-0.2c0-0.2-0.3-0.3-0.4-0.4c-0.1-0.1,0,0-0.1,0s-0.3-0.6-0.6-0.7
	c-0.5,0.3-0.8,0.9-1.5,1c-0.4,0.4-0.9,0.6-1.4,0.6c0,0.3-0.4,0-0.7,0c-0.2-0.3-0.6-0.5-1-0.6c-0.3-0.7-1.1-0.9-1.1-1.9
	c-0.2,0,0-0.2-0.3-0.2c-0.3,0.1,0,0.3,0,0.6c-0.5,0.5-0.7,1.2-1.2,1.7c0,0.2,0,0.2,0,0.3c-0.3,0.2-0.5,0.5-0.7,0.8
	c-0.5,0.3-0.9,0.7-1.1,1.2c-0.2,0-0.4,0.3-0.4,0.5s-0.4,0.3-0.6,0.5c-0.2,0.2-0.2,0-0.3,0s0,0.2-0.2,0.3c-0.2,0.1-0.2,0-0.2,0
	c-0.1,0.1-0.3,0.3-0.3,0.5c-0.9,0.3-1.4,1-2.5,1.2c-0.3,0.3-0.6,0.4-1,0.5c-0.2,0.4-0.7,0.5-1,0.8c-0.6,0.1-1.2,0.2-1.8,0.5
	c-0.3,0-0.6,0-0.8,0c-0.6,0.1-1.2,0.2-1.8,0.4c-0.2-0.3-0.8,0-0.9,0c-1.1,0-2.2,0-3.3-0.2c0,0,0-0.2-0.1-0.1c-0.7,0-1.4-0.1-2-0.3
	c-0.2-0.4-0.8-0.3-1.3-0.4c-1-0.4-1.9-1-2.7-1.6H8.7c-0.5-0.5-1-0.9-1.6-1.2c-0.2-0.3-0.5-0.6-0.8-0.7C6,63,5.5,62.7,5.1,62.4
	c-0.2-0.4-0.6-0.7-1-0.9C4,61,3.5,60.8,3.4,60.1c-0.6-0.5-1.1-1.2-1.3-2c-0.2-0.2-0.3-0.5-0.3-0.8c-0.2,0-0.1-0.2-0.3-0.2
	c0-0.5-0.4-0.7-0.3-1.3c-0.2,0,0-0.2-0.2-0.2c-0.1-0.4-0.1-0.7-0.2-1.1c0-0.4-0.2-0.8-0.3-1.1v-0.7L0,49.9c0-0.2,0-0.3,0-0.5
	l0.2-2.5L0.9,44l0.9-2.5c0.3-0.2,0.4-0.5,0.6-0.7c-0.1-0.5,0.1-1.1,0.5-1.3c0-0.2,0-0.2,0-0.4c0.5-0.4,0.9-1,1.1-1.6
	c0.3,0,0.4-0.4,0.5-0.5c0.1-0.1,0.6-0.4,0.7-0.7c0.6-0.2,0.8-0.9,1.5-1.1c0.3-0.6,1.1-0.7,1.4-1.3c0.9-0.2,1.5-0.9,2.5-1.1
	c0-0.3,0.2,0,0.2-0.3c1.6,0,2.2-1.1,3.9-0.9c0-0.2,0.4-0.2,0.6-0.2c0.2,0,0.6,0,0.8,0c0.3,0,0,0,0.2-0.1c1.2,0,2.5,0.1,3.8,0.2
	c0.2,0.2,0.8,0.2,1.2,0.2c0.4,0.1,0.9,0.2,1.1,0.3c0.2,0.1,0.4,0.1,0.5,0.2c0.1,0.1,0.4,0,0.6,0c0.8,0.5,1.8,0.8,2.5,1.2
	c0.7,0.5,1.4,1.1,2.4,1.3c0.2,0.3,0.4,0.6,0.6,0.8c0.4,0.2,0.8,0.5,1,0.9H30c-0.2-0.1-0.5,0-0.6,0.3c-0.5,0-0.5-0.3-0.7-0.5
	c-0.2-0.2-0.4,0-0.5-0.3c-0.2-0.3-0.3-0.3-0.5-0.4c-0.3-0.1,0,0.2,0,0.3s-0.2,0-0.1,0.3c0.1,0.3-0.4,0-0.4-0.4s-0.4-0.2-0.8-0.2
	c-0.3,0,0.2,0,0.1,0.4c-0.4-0.1-0.7-0.3-1-0.6c0.2,0,0.4,0.2,0.5,0c0.1-0.2-0.2-0.2-0.3-0.4c-0.1-0.1,0.1-0.2,0.2-0.3
	c0.2,0.1,0.4,0.2,0.5,0.2c0.2,0.2,0.3,0.4,0.5,0.6c0.2,0,0-0.3,0-0.4c-0.2,0-0.4-0.2-0.4-0.4c-0.3,0-0.5-0.2-0.6-0.4h-0.3
	C25,34,24.3,33.9,24,33.5c-0.4-0.1-0.8-0.2-1.2-0.4c-0.3,0-0.6,0-0.7-0.2c-0.5,0-0.9,0-0.9-0.5c0-0.5,0.4-0.2,0.5-0.3c0,0,0,0,0.2,0
	s0-0.2-0.2,0c-0.1,0-0.3-0.1-0.3-0.2l-0.5,0.2c0,0.2,0.3,0,0.2,0.4c-0.1,0.4-0.5,0-0.5,0.3c0,0.3,0.9,0.2,1.2,0.5h0.4
	c0,0,0.1,0.2,0.2,0.2c-0.3,0.4-0.9-0.1-1.5,0c0,0.3,0.5,0,0.5,0.4c-0.3,0-0.7,0-1,0c-0.2,0,0-0.3,0-0.5c-0.4,0-0.8-0.2-1.2-0.3
	c0,0,0.1,0,0.2-0.2c0.3,0.1,0.6,0.1,0.8,0c0-0.3-0.4-0.2-0.5-0.2h-0.7c0,0,0,0-0.2,0.1c-0.5,0-1-0.1-1.5,0c0.1,0,0.1,0,0.2,0
	c0,0.2-0.2,0-0.3,0.2c0,0.2,0.2,0.2,0.2,0.4c0.1,0.1-0.9,0.3-1.1,0c0-0.2,0.5,0,0.5,0c0,0-0.7,0-1.1,0c-0.4,0-0.3,0.3-0.5,0
	c0.2-0.3,0.8-0.2,1-0.5c0.2-0.3,0.6,0,0.7,0c-0.2-0.4-0.9,0.3-1.2-0.2h-0.6c0,0,0,0,0-0.3h-0.4c-0.1,0.1-0.1,0.2,0,0.4h-0.5
	c0,0.2-0.2,0.3-0.3,0.4c-1-0.2-1.2,0.6-2.2,0.5c0,0,0,0.2,0,0.3s0.3-0.2,0.7,0c-0.3,0.3-0.6,0.5-1,0.5c0-0.2-0.1-0.5-0.2-0.7
	c0-0.2-0.2,0,0-0.3h-0.8c0,0.2,0,0.2,0,0.4c-0.5,0-0.7,0.3-1.1,0.3c0,0.3-0.2,0.4-0.2,0.7c-0.1,0.2,0.4,0,0.4,0.2
	c-0.4,0.3-0.5,0.8-0.4,1.3c0.2,0,0.3-0.2,0.6,0c0,0.1,0,0.2-0.1,0.3s-0.2,0.1-0.3,0.1c0,0.3-0.3,0.3-0.3,0.5c0,0.2-0.3,0.2-0.7,0.2
	s0-0.3,0-0.3c0,0-0.2,0.3-0.6,0.2c0,0.4-0.5,0.6-0.7,0.9H6.3c0,0.5-0.4,0.5-0.4,0.9h0.2v0.3c-0.4,0-0.3,0.6-0.8,0.6s0-0.4,0-0.6
	c0-0.2-0.2,0.3-0.5,0.2c0-0.4,0.4-0.8,0.6-1c-0.4-0.2-0.7,0.5-0.9,0.7c-0.2,0.2-0.4,0.2-0.3,0.6s0.2,0,0.4,0c0.2,0,0,0.4,0.1,0.4H5
	c0,0.1,0,0.2,0,0.4c-0.3,0.4-0.6,0.8-0.8,1.3c0,0-0.2,0-0.3,0c-0.1,0,0,0.7-0.4,0.8c0-0.3,0.2-0.3,0.2-0.6C3.3,42.5,3.1,43,3,43.6
	c0.2,0,0.1-0.4,0.5-0.3c0.1,0.3,0,0.6-0.1,0.9c0,0.6-0.2,1.2-0.6,1.7c0.1,0.2,0.1,0.4,0.1,0.6c-0.4,0.2-0.6,0.5-0.7,0.7
	c-0.4,0-0.2,0.8-0.2,1c0,0.2,0-0.3,0.2-0.5l0,0c0,0.5-0.1,1.3,0,1.7c0.2-0.2,0-0.7,0.1-1c0.1-0.3,0-0.2,0-0.4c0-0.3,0.2-0.7,0.2-1.2
	c0.2-0.2,0.7,0,1-0.2c0.3-0.2,0,0,0,0s0.8,0,1.2,0s0,0,0.1-0.2C4.9,46.3,5,46,5,45.9c0-0.6-0.7-0.6-0.5-1.4
	c-0.2-0.1-0.4-0.2-0.6-0.2c0.1-0.2,0-0.6,0.4-0.7c0-0.6,0.2-1.1,0.6-1.3c0,0.1-0.1,0.3-0.1,0.4c0.4,0,0.8-0.1,1.2-0.3c0,0,0,0,0,0.2
	c0.2-0.1,0.4-0.2,0.5-0.3c-0.2-0.5-0.6-0.8-0.8-1.3c-0.2,0-0.2,0-0.4,0c-0.2,0,0-0.3,0.2-0.4h0.3c0,0-0.2,0-0.3-0.1
	c0-0.5,0.5-0.7,0.7-1.1s0,0.2,0.3,0.1s0.2-0.3,0.2-0.5c0.3-0.1,0.6,0,0.8,0.2c-0.1,0.3-0.4,0.4-0.6,0.4C7,39.9,7,40.5,6.6,40.6
	c0,0.6,0.2,0.8,0.2,1.3c0.1,0,0.3,0.3,0.1,0.4c0.5,0,1-0.1,1.4-0.4c0-0.3-0.6-0.1-0.7-0.4c0-0.3,0.2,0,0.2-0.2c0-0.2,0.1-0.3,0-0.5
	c-0.1-0.2,0.3-0.4,0.5-0.5s0-0.6,0-1c0-0.3,0.8-0.4,1.4-0.2c0,0.4,0.3,0.6,0.5,0.9c0.2,0.3,0.5,0.4,0.8,0.4v0.3
	c0.4,0,0.4,0.4,0.6,0.6c0.2,0.2-0.2,0.2-0.5,0.2c-0.3,0,0,0.2,0,0.4c-0.6,0-1.1-0.6-0.7-1c0-0.2-0.2-0.4-0.4-0.4
	c-0.2,0,0.2,0.3,0,0.5c-0.3-0.1-0.6-0.2-0.9-0.4c-0.1,0-0.2-0.4-0.4-0.4c0.3,0.3-0.2,1.2,0.4,1.3c0-0.3-0.2-0.4-0.1-0.7h0.2
	c0,0,0.1,0.2,0,0.3c0.4,0,0.3,0.3,0.7,0.3l0.2,0.4c0,0.2-0.2,0.3-0.5,0.2s-0.1,0.2-0.2,0.4S9.3,42.1,9.1,42c0,0.2,0.1,0.3,0.3,0.4
	c0,0.2-0.2,0,0,0.3c0.2,0.3-0.2,0-0.4,0c0.5,0.2,0.9,0.6,1,1.2c0.4,0,0.7,0,0.6,0.6s0.3,0.4,0.3,0.7v0.2c-0.3-0.4-0.7-0.6-1.1-0.6
	c0-0.2-0.3-0.2-0.6-0.2C9,44.3,8.9,44,8.6,43.8c-0.1-0.3-0.5,0.1-0.7,0.2c-0.2-0.2-0.5-0.3-0.8-0.3c0,0.3,0.4,0.2,0.5,0.5
	c0.9,0,1.1,0.5,1.9,0.6h0.1c0,0.3,0.4,0.4,0.3,0.9c0.3,0.3,0.9,0.2,1,0.7c0.3,0.1,0.6,0.3,0.8,0.5c-0.8,0.2-1.2-0.6-2.1-0.5
	c-0.3-0.3-0.8-0.8-1.3-0.7c0.2,0.2,0.5,0.2,0.8,0.4s0,0.3,0,0.5H8.3c0,0,0,0,0-0.2s-0.5,0-0.5-0.2c-0.8,0.1-0.8-0.5-1.6-0.5
	c-0.1-0.2-0.3-0.4-0.5-0.3c0,0.2,0.2,0,0.2,0.3c-0.1,0.2-0.3,0.3-0.5,0.4c0.6,0.4,1.4,0.5,2.1,0.3c0.4,0.6,1.7,0.2,2,0.9
	c0.3-0.2,0.7-0.1,0.9,0.2c0.3,0,1,0,1.1,0.2v0.3h-0.3c0,0,0.3,0,0.2,0.4c0,0.4-0.3,0-0.3,0.2c-0.5-0.3-1.6,0-1.9-0.6
	c-0.8,0-1.5-0.1-2.2-0.4v0.1c-0.8-0.3-2.2-0.5-2.9,0c0,0.3-0.1,0.6-0.3,0.8c0,0.5,0,0.9-0.4,1c0,0.6-0.2,0.8-0.2,1.4
	c0.1,0,0.5,0.4,0.2,0.5c0.3,0.4,0.8,0.5,0.7,1.3c0.7,0,0.8-0.4,1.5-0.4c0-0.2,0.3-0.2,0.2-0.4s0,0.2-0.4,0s-0.7-0.3-1-0.5
	c-0.3-0.2,0-0.4,0-0.4S4.9,50.4,5,50c0-0.4,0.2,0,0.3-0.1c-0.2-0.5-0.5-0.9-0.8-1.2c0-0.2,0-0.4,0-0.6c0-0.3,0.5-0.3,0.5-0.6
	c0.5,0,1.1-0.2,1.7-0.2c0.2,0,0.3,0.3,0.5,0.4c0.2,0.1-0.2,0.1-0.4,0.1s-0.7,0-0.9,0c-0.3,0,0,0.2,0,0.3c0,0.1,0.6,0.2,0.9,0.3
	s0.4,0.3,0.4,0.6c-0.4,0-0.6,0.2-1.1,0.2c0,0.2,0,0.4,0,0.6c0.3,0,0.5,0,0.5,0.4h0.6c0.8,0.5,1.7-0.2,2.7-0.1c0.4-0.1,0.9-0.1,1.3,0
	c0,0.6-0.9,0.4-1.2,0.8c-0.4,0-0.5-0.2-1-0.2c0,0.2,0,0.3,0,0.4c-0.4,0-0.9,0.1-1.2,0.4c0.2,0.2,0.3,0,0.4-0.2c0.3,0,0.5,0,0.8,0
	l0,0c0,0,0.4,0,0.5,0c0.1,0,0,0,0,0s0.4,0,0.5,0s0,0,0-0.1s0.6,0,0.5-0.2c0-0.2,0.5,0.2,0.5,0.5c0.1,0.3,0-0.2,0.2,0
	c0-0.2,0-0.3,0-0.5c1.1,0.2,1.3-0.5,2.2-0.5c0.1-0.2,0.3-0.4,0.6-0.5v-0.6c-0.3,0-0.7,0-1,0s0,0,0,0s-0.9-0.2-1-0.4
	c0-0.5,0.8-0.2,0.9-0.6c0.1-0.4,0.5-0.4,0.8-0.4s0,0.2,0,0.3c0.3,0,0.6,0,0.8-0.1c0-0.2,0.2-0.2,0.2-0.7s-0.3-0.3-0.5-0.5
	s0-0.3,0-0.4c0.2,0,0.5,0,0.6,0.2c0-0.2,0-0.2,0-0.3s0.3,0.2,0.4,0.3s0.6,0,0.8-0.2c-0.2-0.4-0.7,0-1.1-0.2s-0.2-0.4-0.5-0.5
	c-0.1-0.2-0.1-0.4,0-0.6c0-0.3-0.2-0.4-0.1-0.7h0.4h0.2c0.3,0.6,0.7,1.1,1.1,1.6c0.2,0,0.2,0,0.3,0c0-0.4-0.2-0.4-0.3-0.6
	c-0.1-0.2,0-0.7,0.2-0.8c-0.2-0.3,0-1-0.2-1.4c-0.2-0.4,0.2-0.2,0.3-0.3c0.3,0.3,0.6,0.5,0.8,0.8c-0.2,0.3,0,0.8,0,1.3
	S17,45.3,17,45.5s0.6,0.3,0.9,0.3s0,0.2,0.3,0.2c-0.1-0.1-0.1-0.3,0-0.4c0-0.1,0.2-0.2,0.3-0.3c0-0.5,0.2-0.7,0.3-1.1
	c0.1-0.4,0-0.1,0-0.2c0.1-0.3,0.2-0.6,0.1-0.9c0.2-0.2,0.2-0.6,0.5-0.7s0,0,0.2,0s0,1,0,1.5c-0.3,0.6-0.5,1.3-0.4,2
	c0.1,0,0.2,0,0.3,0c0.2,0,0,0,0,0c0.2-0.5,0.4-0.9,0.6-1.4c0,0,0-0.1,0,0v-0.1c0.4-0.6,0.7-1.2,1.2-1.8h0.4c0,0.4,0,0.6-0.4,0.7
	c-0.1,0.8-0.8,1.1-1,2c-0.2,0,0,0.2-0.2,0.3c-0.2,0.1-0.3,0.2-0.2,0.5c0.1,0.3,0.2,0.3,0.4,0.3c0.2,0,0.3-0.3,0.4-0.5
	c0.1-0.2,0.3,0,0.4,0c0.1,0,0.3-0.1,0.3-0.3c0.8,0,0.9-0.9,1.6-1.2c0-0.3,0.2-0.3,0.2-0.5c0.6,0,0.6-0.6,1.2-0.7
	c0-0.3,0.2-0.4,0.2-0.6c0-0.2,0.1,0,0.3,0c0-0.7,0.3-0.9,0.4-1.3c0.2,0,0.2-0.2,0.5,0s0-0.4,0.2-0.5c0.2-0.1-0.3,0.3-0.6,0
	s0,0.2,0,0.2c0,0-0.3,0.3-0.4,0.5c-0.5,0.2-0.9,0.4-1.2,0.8c-0.2,0-0.5-0.1-0.6-0.3c-0.2,0.2-0.6,0.2-0.8,0.4
	c-0.2,0.2-0.2-0.2-0.1-0.5s-0.3,0.3-0.7,0.2h0.1c0-0.5,0.2-0.9,0.6-1.2c0-0.4,0.3-0.9,0.6-0.9h0.2c0.4-0.3,0.7-0.7,0.8-1.2
	c-0.1,0-0.1,0-0.3,0c-0.1,0.5-0.6,0.5-0.6,1.1c0,0,0,0,0,0.1c0,0,0-0.3-0.1-0.2c0.2-0.2,0.2-0.6,0.5-0.7s-0.2-0.1,0-0.3
	c0.2-0.2,0.3-0.8,1-0.7c0-0.3,0-0.3,0-0.6c0.4-0.2,0.9-0.3,0.9-0.9c-0.4-0.4-1.1-0.6-1.5-1c0.9-0.2,1.5,0.5,2,0.9
	c0.4,0,0.7,0,0.6,0.6c-0.2,0-0.2-0.2-0.5-0.2c-0.3,0.1,0.4,0.2,0.4,0.5s0.2,0,0.4,0c0.2,0,0.3-0.1,0.4-0.2c0.1-0.1,0.2,0.3,0,0.3
	c0.1,0.1,0.3,0.2,0.5,0.3c0,0.3,0,0.4,0.3,0.4c0.3-0.1,0,0.3,0,0.5c0,0.2,0.2-0.2,0.4,0c0.5,0.4,0.9,0.9,1.2,1.4
	c0,0.2-0.2,0-0.1,0.3c0.1,0.3,0.3,0,0.5,0c0,0.2,0,0.3,0,0.5c-0.3,0-0.3-0.2-0.7-0.1c-0.1,0.2-0.2,0.5-0.2,0.8
	c-0.1,0.3-0.5,0.3-0.5,0.7c0.6,0,1.2,0.1,1.7,0.4c0.1,0,0.3-0.1,0.3-0.2c0-0.2,0-0.2-0.2-0.2c-0.2,0-0.1-0.4-0.1-0.4
	c0,0,0-0.4-0.1-0.5c-0.1-0.1,0.2,0,0.1-0.2c0.7,0.4,1.2,1.1,1.3,1.9c0.1,0,0.2,0,0.3,0.2s0,0.5,0.2,0.6c0,0.5,0.4,0.5,0.3,1
	c0.2,0,0.1,0.5,0.3,0.6c0.2,0.1,0,0.4,0,0.5c0,0.2,0.3,0.5,0.3,0.6c0,0.1,0,0.7,0.2,0.9c-0.1,0.1-0.1,0.3-0.2,0.4
	c0.3,0.4,0.6,0.8,0.8,1.2c0.2,0,0.2,0,0.4,0s0,0.1,0,0.2c0,0.1,0.4,0.3,0.7,0.4c0.8-0.4,1.6-0.7,2.5-0.8c0-0.4,0-0.7,0.4-0.7
	c-0.2-0.4-0.2-0.9-0.2-1.4c-0.2,0,0-0.2-0.3-0.2v-0.7c-0.1,0-0.2,0-0.3,0c0-0.2-0.4,0-0.4-0.3c0-0.3-0.6,0-0.7-0.2
	c-0.2,0.1-0.5,0-0.7-0.2c-0.1,0.7,0,1.6,0.8,1.6c0.1,0.8-0.5,0.7-0.8,0.9h-0.2c-0.2,0-0.3-0.3-0.5-0.4c0-0.3-0.2-0.5-0.4-0.7
	c0-0.4,0-0.9,0-1.3l0.2-0.2c0-0.1,0-0.2,0-0.3c0,0,0,0-0.1,0s0-0.4,0-0.5c0-0.1,0,0,0,0s0-0.5,0-0.7c0-0.2-0.3-0.7-0.6-0.9
	c-0.3-0.2,0-0.7-0.3-0.8c0-0.2,0-0.3,0-0.5c-0.2,0-0.2,0.2-0.3,0.2c-0.2,0-0.3-0.4-0.4-0.8c0.2,0,0,0.3,0.3,0.2
	c0-0.2-0.2-0.5-0.4-0.6v0.2c-0.4,0-0.4-0.7-0.9-0.8c0,0.2,0,0.2,0,0.4c-0.2,0-0.4-0.2-0.4-0.5s0.2-0.2,0.4-0.2
	c0-0.3-0.1-0.5-0.3-0.7c0,0,0.1-0.2,0.3-0.3c0.1,0-0.3-0.4-0.4-0.7c-0.1-0.2-0.3,0.3-0.6,0.2c0,0,0-0.2-0.2-0.2
	c-0.2-0.1,0,0.3,0,0.2v0.4c-0.4,0-0.4-0.4-0.8-0.4c-0.1-0.1-0.1-0.2,0-0.3c0.1,0,0.3,0,0.3,0s0-0.2,0.2,0c-0.2-0.3-0.4-0.6-0.6-0.9
	c0.1-0.2,0.3-0.3,0.5-0.4c0,0,0,0.2,0,0.2c0,0,0-0.2,0.2,0s0.4,0.3,0.4,0.6c0.5,0,0.5,0.7,0.9,0.9c0,0.2,0,0.2,0,0.4
	s0.2,0.4,0.5,0.5c0.2,0.1,0.2,0,0.3,0c-0.1,0.2-0.1,0.4,0,0.6c0,0.1,0,0.2,0,0.3c0,0,0.3,0.1,0.3,0.2c0.1,0.1,0,0.3,0.1,0.4
	c0.1,0.1,0.5,0.3,0.5,0.5c0,0.2,0.6,0.3,0.6,0h-0.3c0-0.4,0.2-0.4,0.4-0.6c0.2-0.2-0.2,0-0.2-0.3c0-0.3,0.2-0.6,0.5-0.8
	c0.3-0.6,0.7-1.1,1.3-1.3v-0.2c0.5-0.2,1.1,0,1.4,0.5c0.1,0,0.3,0,0.4,0c0.1,0.4,0.6,0.6,1.2,0.6c0.1,0.2,0.3,0.3,0.5,0.4v0.5
	c0.3,0,0.4,0.2,0.6,0.4c0.1-0.2,0.2-0.4,0.1-0.6c0.3,0,0.3-0.4,0.7-0.4c0.4,0,0.3-0.4,0.7-0.3c0.3-0.6,1-0.6,1.7-0.8
	c1,0.6,1.6,1.8,2.8,2.2c0,0.3,0.2,0.2,0.1,0.5c-0.1,0.3,0.2,0.3,0.4,0.5c0.2,0.1,0.5,0.1,0.7,0c0.1,0,0.3,0,0.4,0s0,0,0.1,0
	c0.7,0,1.6,0.2,2,0c0.4,0.2,1.3,0,1.1,0.8c0.5,0.3,0.5,1,0.8,1.6c0.1,0.1,0.3,0.1,0.4,0.3c0,0.2,0.1,0.3,0.1,0.5
	c0,0.2,0.1,0.6,0.1,0.6s0,0.4-0.2,0.4c-0.2-0.3-0.4-0.7-0.5-1c-0.3,0-0.4-0.3-0.5-0.5c-0.5-0.3-0.8-0.8-1.2-1.3
	c-0.5,0-1-0.1-1.4-0.4c-0.4,0.3-1.2,0.2-1.8,0.2c-0.2,0.2-0.5,0.5-0.3,0.8s0.4-0.2,0.5-0.3c0.3,0.1,0.6,0,0.9-0.1
	c0.2,0.3,0.6,0,0.7,0.3c0.1,0.3-0.5,0-0.5,0.4c0,0.4,0.4,0,0.3,0.1s-0.3,0-0.3,0.4s0.3,0,0.5,0c0.1,0,0.2,0.3,0.4,0.4
	c0.2,0.1,0-0.3,0.2-0.2v-0.5c0.3,0,0.4,0,0.6-0.2c0.2-0.2-0.2,0.4,0,0.5c0.2,0.1,0.2-0.3,0.2-0.5c0-0.2,0.1-0.2,0.3,0
	c0.2,0.2,0.2,0.3,0.2,0.5c0.7,0.1,0.2,1-0.2,1.1c-0.4,0.1-0.2-0.3-0.3-0.4c-0.4-0.1-0.8-0.1-1.1,0.2c0,0.7-0.8,0.2-1,0.5
	c-0.2,0.3,0.3,0,0.3,0.1s-0.4,0.3-0.5,0.6c-0.9-0.2-1,0.6-1.7,0.6c0-0.3,0.2-0.3,0-0.5c-0.2-0.2-0.4,0.4-0.7,0.3
	c-0.3-0.2,0.3-0.2,0-0.3c-0.3-0.1,0,0.8-0.6,0.7c0-0.2,0-0.4-0.1-0.4c-0.1,0,0,0.1,0,0.5h0.4c0.3,0.4,0.6,0.2,1.2,0.2
	c0,0,0,0.4,0,0.5c0,0.1,0.2-0.2,0.3-0.3s0.4,0.2,0.5,0.3c0.2-0.3,0.6-0.5,1-0.5c0,0,0,0,0,0.2c0,0.2,0.1,0,0.2,0c0-0.1,0-0.2,0-0.3
	c0-0.3,0.4,0,0.5,0c0.2,0,0-0.1,0-0.2c0.3,0.1,0.6,0.2,0.8,0.4c0,0.2-0.2,0.2-0.2,0.3c0,0.1-0.2-0.1-0.3-0.2
	c-0.1-0.1-0.2,0.5-0.5,0.5c-0.3,0.1,0.1,0,0,0.2c-0.1,0.2,0.5-0.3,0.6,0c0.2-0.2,0.4-0.2,0.7-0.1c0.3-0.5,1.2-0.3,1.8-0.6
	c0.5-0.3,0.2,0.2,0.4,0.2c0.2,0,0,0.3,0,0.3s0.1-0.2,0.2-0.3c-0.3,0-0.3-0.4-0.6-0.5c-0.3-0.1,0.8-0.3,1.1-0.2
	c0.3,0.1-0.1,0-0.1,0.3c0,0.3,0.2,0,0.4,0s0,0.5-0.1,0.5c0.1,0.1,0.2,0.2,0.3,0.4c-0.3,0.3,0.2,0.5,0,0.9c-0.3,0-0.3,0.3-0.6,0.2
	v0.2c0.2,0,0.5,0,0.6-0.2h0.2c0.4,0,0.6,0,0.7,0.4c0,0.4,0.2-0.2,0.1-0.4s0,0,0,0s0-0.4,0-0.5c0,0,0-0.3,0-0.4c0-0.1,0,0,0,0
	s0-0.4-0.2-0.3c0-0.3-0.1-0.5-0.3-0.8c0-0.3,0-0.3,0-0.5c0-0.2-0.4-0.2-0.5-0.3c-0.1-0.2-0.7,0.6-1.1,0.4c-0.4-0.1,0-0.2-0.3-0.2
	c-0.3,0-0.1,0,0-0.3c-0.3,0.3-0.8,0.4-1,0.8c-0.1-0.2-0.3,0-0.3,0.2v-0.5c0.3,0,0.5-0.2,0.4-0.7h0.3c0,0,0-0.3,0-0.4
	c0-0.1,0.4-0.8,0.7-0.7c0.4,0.1,0.2,0.7,0.5,0.8c0.4-0.1,0.6-0.4,0.6-0.8c0.2,0,0,0.2,0.2,0.3c0.2,0.1,0.4,0.1,0.5,0.2
	c0,0,0,0.3,0,0.3c0,0,0.4,0,0.6-0.2c0.2-0.2,0-0.7,0.5-0.6c0.2,0.5-0.5,0.9,0,1.2c0-0.3-0.1-0.2,0-0.4c0.1-0.2,0.5-0.4,0.5-0.7
	s0.3,0,0.3-0.2s-0.4,0-0.3-0.2s0.7-0.3,0.8-0.8c0.9-0.2,1.9-0.2,2.9,0c0,0.5,0.2,0.7,0.3,1.2c0.3,0.3,0.6,0.6,0.9,0.9
	c0.3,0.2,0.6,0.3,1,0.3c0.2,0.3,0.7,0,1.1,0.2c0.3,0.2,0,0.3,0,0.3s0.2,0,0.2-0.3c0.6,0.1,1.2,0,1.7-0.2v0.2c0.2,0,0.5,0,0.4-0.2
	c-0.1-0.2-0.2,0-0.4,0c0.4-0.3,0.8-0.5,1.1-1v-1.1c0.1,0,0.2,0,0.2-0.2h0.7c0-0.1,0-0.2,0-0.4h0.7c0.2-0.3,0.5-0.4,0.4-0.9
	s0.2-0.3,0.3-0.5v2.3c0,0,0,0-0.1,0c0-0.2-0.2,0,0-0.2c0.2-0.2,0,0.2-0.3,0c-0.3-0.2,0-0.4,0-0.6c0-0.2-0.2,0-0.3,0.2s0.4,0.5,0.3,1
	c0.3,0,0.2-0.3,0.4-0.3v0.7H67.2z M38,56.3c0,0.2-0.1,0.5,0,0.5c0.1,0,0,0,0,0.2h-0.2c-0.2,0,0-0.3-0.1-0.5s-0.4-0.3,0-0.3
	C37.9,56.1,37.8,56.3,38,56.3L38,56.3z M40.7,50.2c0.4,0.2,0.4,1.7,0,1.9c0-0.6-0.1-1.2-0.1-1.8L40.7,50.2z M49.7,43.3V43
	c0.3,0,0.6,0,0.5,0.3c-0.2,0-0.2,0-0.4,0L49.7,43.3z M13.6,33.2c-0.2,0.4-0.7,0.4-1.2,0.5c0.3-0.2,0.7-0.5,1.2-0.3L13.6,33.2z
	 M13.8,33.1c0,0,0-0.1,0.1,0c0.3,0.1,0.8,0,1.1,0c-0.3,0.1-0.7,0-1,0.3C13.9,33.7,13.9,33.2,13.8,33.1L13.8,33.1z M24.4,34.7
	c0.2,0.2,0.8,0,0.7,0.5h-0.2C24.9,34.9,24.4,34.9,24.4,34.7L24.4,34.7z M32.1,40.2c0,0.1,0,0.2,0,0.3c-0.1,0-0.3-0.1-0.3-0.2
	c0.1,0,0,0,0.3,0L32.1,40.2z M14.2,43.1c0,0.2,0,0.2,0,0.5h-0.1c-0.2,0-0.2-0.2-0.4-0.2c-0.2,0,0-0.5,0-0.7
	C13.6,42.3,13.9,43,14.2,43.1L14.2,43.1z M12.1,48.1c-0.1,0-0.3,0-0.4,0v-0.2c0,0,0.1,0,0.2,0S12,48.1,12.1,48.1L12.1,48.1z
	 M12.8,45.6c0.1,0.3,0.4,0.5,0.8,0.5c0.1,0.2,0.1,0.4,0,0.6c-0.6-0.1-1.1-0.4-1.4-0.8h-0.3c0-0.3-0.5-0.3-0.6-0.5v-0.1
	c0.4-0.1,0.9,0.1,1.2,0.4L12.8,45.6z M3.2,44.8c-0.2-0.2,0-0.4,0.1-0.5c0,0.3-0.1,0.4-0.3,0.5L3.2,44.8z M4.9,39.9
	c0.4,0.3,0.2,0.3,0,0.3c0,0,0.2,0,0.2-0.2c0-0.2,0,0.2,0.2,0.2L4.9,39.9z M7.9,37.5c-0.4,0.3-0.7,0.6-0.9,1.1H6.5
	c0.3-0.5,0.8-0.8,1.2-1.3H8c0,0.2-0.2,0,0,0.3L7.9,37.5z M11.3,56.8c-0.4,0-0.4,0.2-0.8,0.2c0-0.4,0.7-0.5,1-0.5
	c0.3,0.1-0.2,0.2-0.2,0.5L11.3,56.8z M15.4,54.4c-0.1,0.4-0.3,0.8-0.6,1h-0.2c0-0.5,0.2-1,0.6-1.2L15.4,54.4z M27.5,44.1
	c0-0.2,0.1-0.3,0.4-0.3c0,0.3-0.4,0.3-0.4,0L27.5,44.1z M43.2,40.4c0-0.2,0.1-0.2,0.2-0.3c0-0.1,0.2,0.4,0,0.3L43.2,40.4z
	 M57.8,49.6c0,0-0.6,0.3-0.5,0C57.3,49.4,57.6,49.6,57.8,49.6c0.2,0,0,0,0,0.2V49.6z M2.7,58.3c0-0.1,0-0.3,0-0.4
	C2.7,58,2.7,58.2,2.7,58.3z M23.7,35.7c0,0-0.2,0-0.2,0.2c0,0.2,0.2,0,0.2,0c0,0.7,0.3,1.1,0,1.7c-0.4-0.3-0.1-1.2-0.7-1.2
	c0,0.5-0.4,0.8-0.5,1.2c-0.2,0.4-0.2,0.7-0.4,1c-0.1,0.3,0,0.3,0,0.5c0,0.2,0,0,0,0c-0.2,0.4-0.4,0.8-0.4,1.2
	c-0.2,0.2-0.1,0.6-0.3,0.8c-0.2,0.2-0.3,0-0.3,0.3s0,0.2,0,0.4c-0.4,0.5-0.5,1.4-1,1.7v-0.5c0.4-0.3,0.3-1.1,0.7-1.5
	c0.1-0.8,0.1-1.7,0-2.5c-0.6,0-0.3-0.8,0-1c-0.2-0.2,0-0.4,0.1-0.6c0.4,0.1,0.9,0.1,1.3,0v0.1c-0.2,0.2-0.6,0-0.5-0.4h0.3
	c0,0-0.2-0.2,0-0.4c0.2-0.2,0.3-0.7,0.5-1c0,0,0,0,0.3-0.1h-0.3h0c-0.1,0-0.2-0.1-0.3-0.2c-0.1-0.1-0.1-0.2,0-0.3
	c0.2-0.1,0.7,0,0.7-0.5c0.3,0,0.3,0.2,0.5,0.2c0.2,0-0.2,0.3,0,0.3c0.2,0.1,0.6-0.4,0.7,0s-0.3,0-0.2,0S23.7,35.6,23.7,35.7
	L23.7,35.7z M21.6,37.3c-0.2,0-0.2,0.3-0.3,0.3c-0.1,0.1-0.3,0-0.4,0c0-0.2,0-0.3,0-0.5c0-0.2,0,0.2,0.3,0.2
	c0.2-0.3,0.3-0.6,0.4-0.9c0.4,0.2,0,0.3,0.1,0.7L21.6,37.3z"/>
</svg>
