<?xml version="1.0" encoding="utf-8"?>
<!-- Generator: Adobe Illustrator 22.1.0, SVG Export Plug-In . SVG Version: 6.00 Build 0)  -->
<svg version="1.1" id="Layer_1" xmlns="http://www.w3.org/2000/svg" xmlns:xlink="http://www.w3.org/1999/xlink" x="0px" y="0px"
	 viewBox="0 0 66 68" style="enable-background:new 0 0 66 68;" xml:space="preserve">
<style type="text/css">
	.st0{fill:#FFF5E1;}
	.st1{fill:#7C6742;}
</style>
<polygon class="st0" points="53.4,0 52.2,4 54.2,9.4 53.5,13.1 52.8,14.3 57.6,17.3 57.1,21 59.4,23.2 58.8,26.4 57.7,28.1 
	59.5,31.1 57.5,33.2 63,39.8 65.7,45.6 66.1,48.3 65.7,53.3 65,56.6 63.7,59.6 62.3,61.3 57.4,64.7 51.8,66.9 47.1,67.6 44.2,67.6 
	41.1,66 36.4,62.9 34.2,60 32.9,59.3 30.6,61.1 26.5,59 23.8,61.4 19.8,58.7 16.1,59.1 14.5,57 14.7,55.3 13,54.8 7.6,55.6 
	3.7,53.9 -0.6,55.3 -0.2,45.2 2.3,47.7 6.7,46.1 8.3,46.2 12.9,45.6 15.5,42.2 19.2,42.4 23.3,38.9 26.8,40.6 30.1,38.1 33,41.5 
	35.2,38 38.2,35.1 39.9,34 37,30.7 38.6,26.4 37,23.4 40.1,20.1 39.9,16.1 43.9,13.5 43.5,10.1 45.7,7.8 45.9,3.9 42.4,0 "/>
<path class="st1" d="M43.9,34.8c0,0,0,0,0-0.2s-0.3,0.2-0.4,0.3s0.1,0.2,0.3,0.2C43.9,35.1,44,35.1,43.9,34.8L43.9,34.8z M40.6,36.3
	h-0.2v-0.2h0.1L40.6,36.3L40.6,36.3z M35.1,41.6c0-0.2,0.2-0.3,0.1-0.5c0-0.3,0.2-0.3,0.3-0.5l0.3-0.4c0,0,0-0.2,0.1-0.4
	c0.1-0.1,0.4-0.4,0.6-0.6c0.2-0.2,0.3-0.4,0.4-0.6c0.2,0,0.4,0,0.6,0c0.1,0.3,0.1,0.6,0,0.9c-0.4,0-0.3,0.5-0.6,0.7
	c-0.2,0.2,0.2,0,0.1,0.2c-0.1,0.2,0,0.8,0,1.1c-0.4,0-0.4-0.3-0.7-0.4c-0.3-0.1,0-0.6,0-0.9h0.3c0,0,0-0.2,0-0.4
	c0-0.1-0.3,0.1-0.3,0.3C36.2,40.5,36,40.7,36,41c-0.3,0-0.3,0.5-0.6,0.6L35.1,41.6z M34.9,42.3c-0.5,0-0.4,0.4-0.8,0.5
	c-0.3,0.1,0.1,0.4,0.1,0.6s-0.2,0.3-0.4,0.3c-0.2,0,0,1-0.5,1.2c0,0.3,0,0.4,0,0.7h0.3c0-0.3,0.1-0.6,0.3-0.9c0,0.3,0.2,0.2,0.2,0.5
	c0.5,0.1,0.4-0.5,0.6-0.7s0.2,0.2,0.2,0.5c0.4,0,0.5,0.5,1,0.4c0,0.1,0,0,0.1,0.2c0.1,0.2,0.4,0,0.4,0v-0.2c0,0,0,0-0.2,0
	c-0.2,0,0.1,0,0.2,0s0,0,0,0.2v-0.2c0.6-0.2,0.9,0.4,1.4,0.5c0.5,0.1,0.5-0.2,0.8,0c-0.2-0.4-0.7-0.5-0.8-0.9h-0.8
	c0,0,0,0.3-0.2,0.2s0.3-0.9,0-1.2c-0.3-0.3-0.5-0.3-0.9-0.3c0-0.2-0.2,0,0-0.3c0.5,0.2,0.8,0,1.4,0c0,0.3,0.4,0.1,0.7,0.2
	c0.2,0,0.8,0.4,1.1,0.8c0.2,0,0.2,0,0.3,0c0.2,0.3,0.5,0.4,0.8,0.4c0-0.2-0.2-0.2-0.2-0.4c-0.6-0.3-1.1-0.8-1.5-1.3
	c-0.2,0-0.2,0-0.4,0c-0.2,0-0.5-0.4-0.5-0.8c-0.3,0-0.2-0.2-0.5-0.2c-0.1,0.4,0.1,0.7,0.3,0.9c-0.8,0-1.7-0.2-2.4,0c0,0,0-0.2,0-0.3
	L34.9,42.3z M35.5,43.9c-0.2,0-0.2-0.2-0.1-0.3C35.5,43.4,35.4,43.8,35.5,43.9z M34.7,41.2h-0.2c0,0-0.2-0.2-0.2-0.5
	c0-0.3,0.2,0,0.2,0s0.2,0.2,0.3,0.2C34.9,41,34.6,40.9,34.7,41.2L34.7,41.2z M33.8,41.2c0,0.2,0,0.3,0,0.3c0,0.1,0-0.2-0.2,0
	c-0.2,0.2,0.2,0,0-0.2h0.2V41.2z M34.7,41.6c0-0.2,0.3-0.4,0.4,0c0,0.4-0.1,0.2-0.2,0.3c0,0.1-0.1,0-0.2-0.2V41.6z M34,41.8
	c-0.2,0-0.2,0.4-0.4,0.4c0-0.2,0-0.3,0-0.5c0-0.2,0.2,0,0.2,0s0.2,0.2,0.3,0.3L34,41.8z M33.5,42.7c-0.2,0-0.1-0.4,0-0.4
	C33.5,42.4,33.5,42.5,33.5,42.7L33.5,42.7z M34.3,42c0,0.7-0.4,0.9-0.6,1.3c-0.2,0-0.1-0.3-0.2-0.5C33.9,42.6,33.9,42.1,34.3,42z
	 M48.3,43.6c-0.2,0-0.1-0.6,0-0.7c0.1-0.1,0.2,0.2,0.3,0.2C48.6,43.3,48.5,43.5,48.3,43.6L48.3,43.6z M33.4,44.6
	c-0.1,0.4,0,1-0.5,1.2c-0.2-0.8,0.3-1.2,0.3-2c0.2,0,0.3,0,0.4,0c0.1,0.2,0.1,0.5,0,0.7C33.7,44.4,33.5,44.4,33.4,44.6L33.4,44.6z
	 M39.7,47.7c0.7-0.3,1.3,0.2,1.8,0.4c0,0-0.2,0,0,0.2h-0.2c-0.2,0,0-0.3-0.2-0.2c-0.2,0,0,0-0.2,0s0.3,0.2,0.3,0.4
	c0,0.2-0.5,0.3-0.8,0.3c-0.3-0.1-0.2,0-0.4-0.2c-0.1-0.2-1,0.2-1.2,0c-0.2-0.2,0,0.2-0.3,0c-0.9-0.4-1.5,0.3-2.4,0
	c0-0.2-0.1,0-0.2,0c-0.1,0-0.3-0.3-0.5-0.5c-0.2-0.2,0.5-0.4,0.6-0.6c0.2-0.2,0.8,0.1,1-0.2c-0.5-0.2-1.7-0.3-2,0.2
	c-0.2-0.1-0.3-0.4-0.3-0.6h-0.5c0-0.3-0.2-0.2-0.1-0.5c0,0,0,0.1,0,0.1c0.2-0.2,0.5-0.3,0.7-0.2c-0.2-0.4,0.1-0.7,0-1.3
	c0.4,0,0.5,0.2,0.7,0.3c0,0.2,0,0.3,0,0.5c0.2,0.2,0.4,0.4,0.6,0.7c0.3,0,0.8,0,0.8,0.2c0.3-0.1,0.6,0,0.8,0.2c0,0.2,0,0.5-0.3,0.5
	c0,0.1,0,0.2,0,0.4c0.1-0.2,0.3-0.3,0.5-0.2c0-0.2-0.2-0.2,0-0.5s0.7,0.2,1.1,0c0,0.2,0,0.3,0,0.5h-0.7c0.4,0.2,0.8,0.3,1.2,0.3
	c-0.2-0.2-0.5-0.3-0.4-0.6s0.2,0,0.3,0.2L39.7,47.7z M33.6,45.9v0.3h-0.1v-0.2h0.2L33.6,45.9z M33.3,47.1c-0.2,0,0-0.2,0-0.3h0.2
	c0,0.2,0,0.3,0,0.4L33.3,47.1z M33.3,51.8c0-0.2,0-0.5-0.1-0.6c-0.1-0.1,0.2,0,0.1-0.2c-0.4-0.4,0-0.9-0.2-1.3s0.2-0.6,0-0.7
	c-0.2-0.2,0.3-0.3,0.3-0.5c0-0.2-0.3-0.9,0-1.1c0.3-0.3,0,0.2,0.3,0c0.3-0.2,0.4-0.3,0.7-0.1c0.3,0.2,0.4,0.5,0.4,1
	c-0.5,0-0.5,0.3-0.8,0.4c-0.1,0.8-0.2,1.5-0.1,2.3c0.2,0.3,0.4,0.7,0.8,0.8c0.4,0.2,0,0.2,0,0.4c0,0.2-0.4,0-0.7,0
	c-0.3,0,0.2,0.8,0,1.1c-0.3-0.2-0.5-1.1-0.2-1.3c0.3-0.3,0,0-0.2,0L33.3,51.8z M48.8,47.4c-0.1,0-0.1-0.1-0.2-0.2
	c0.2-0.5,0.8-0.2,1.3-0.2v0.3c-0.1,0.2-0.8,0-0.9-0.2C48.9,47.1,49,47.4,48.8,47.4L48.8,47.4z M50.7,49.1c-0.2-0.5-0.4-0.9-0.8-1.2
	c0-0.2,0-0.3,0-0.5h0.3c0.2,0.7,0.9,0.8,0.9,1.7C50.9,49.1,50.7,49.1,50.7,49.1L50.7,49.1z M35.7,48.8c0,0.1,0,0,0-0.2
	C35.7,48.5,35.7,48.7,35.7,48.8z M39.1,51.4c-0.5,0-1.1,0-1.2,0.4c0.6,0,1.3,0,1.6-0.2c0.4,0,0.9,0,1.3-0.2c0,0,0.4,0,0.4-0.2
	c0-0.2-0.5,0-0.7-0.3c-0.1-0.3,0.5,0,0.5-0.4s-0.4-0.3-0.7-0.2c-0.3,0.1-0.2-0.2-0.2-0.4s-0.4,0-0.5,0.2c0,0.5-0.6,0.2-0.7,0.5
	s-0.2,0-0.4-0.2s0.9,0,0.9-0.3c-0.3-0.4-0.9,0-1.3,0c-0.4,0-0.3-0.3-0.5-0.2c-0.1-0.2-0.3-0.4-0.5-0.4c0-0.8-1-0.4-1.7-0.4
	c0,0.3-0.3,0-0.2,0.4c0.1,0,0.2,0,0.3,0.2s-0.2,0-0.3,0.1v-0.2c-0.4,0-0.5,0.7-0.4,1.3c0.5,0.2,0.7,0,1.1,0v0.3c0.7-0.1,1.5,0,2.2,0
	c0.2,0,0.4-0.2,0.4-0.2c0,0,0.2,0,0.3,0c0.1,0,0.6-0.4,0.8,0c-0.3,0.2-0.5,0.3-0.8,0.4L39.1,51.4z M36.3,50.1c0.1,0,0.2,0.4,0,0.3
	V50.1z M32.1,49.5c0.2,0.1,0.3,0.6,0,0.7c-0.3,0.1-0.1-0.4-0.2-0.6C31.9,49.4,32.1,49.6,32.1,49.5L32.1,49.5z M32.6,50.3
	c-0.3,0,0-0.6,0-0.8c0-0.2,0,0,0.2,0C32.9,49.6,32.8,50.2,32.6,50.3L32.6,50.3z M32.6,50.5c0.2,0,0.2,1,0.1,1.4
	C32.3,51.8,32.4,50.7,32.6,50.5L32.6,50.5z M47.5,49.4c0.2,0,0,0.5-0.1,0.5S47.5,49.6,47.5,49.4z M31.6,50.4c0.1,0,0,0,0.2,0
	S31.6,50.4,31.6,50.4z M36.7,51.9c0,0,0,0,0.1,0c0,0,0,0.2,0.2,0c0.2-0.2-0.1,0.2-0.3,0.2C36.6,52.1,36.7,52.1,36.7,51.9L36.7,51.9z
	 M35.2,52.4c0,0-0.2-0.2-0.1-0.4c0.5,0,0.5-0.4,0.9-0.2c-0.1,0.3-0.4,0.5-0.7,0.5L35.2,52.4z M36.6,51.9c-0.2,0-0.4,0-0.5,0
	C36,51.9,36.7,51.8,36.6,51.9L36.6,51.9z M34.9,52.7c0-0.2,0.2,0,0.3-0.2v0.4h-0.4L34.9,52.7L34.9,52.7z M54.2,52.4
	c0.3,0,0.5,0,0.5,0.3S54.2,52.7,54.2,52.4z M32.9,54.5h0.2v0.1h-0.2V54.5L32.9,54.5z M33.4,55.4v0.2h-0.3c0-0.1,0-0.2,0-0.3h0.3
	L33.4,55.4z M58.3,55.4c0.2,0,0.4,0,0.3,0.3C58.4,55.6,58.3,55.5,58.3,55.4z M33.4,57.5c0-0.2,0-0.6,0.3-0.5v0.5L33.4,57.5
	L33.4,57.5z M43.1,58.5c-0.1-0.1-0.1-0.2,0-0.3c0.1-0.1,0.2-0.1,0.3-0.1C43.3,58.3,43.3,58.4,43.1,58.5z M35.4,59.5v-0.3
	c0.2,0,0.2,0.2,0.2,0.4c0,0.2,0,0.2-0.2,0.1L35.4,59.5z M35.7,60.6h-0.3c-0.2-0.4-0.5-0.6-0.6-1.1h0.3c0,0.4,0.4,0.5,0.5,0.9
	L35.7,60.6z M37,60.8c-0.5,0-0.5-0.3-0.6-0.6C36.7,60.1,37.1,60.5,37,60.8z M53.5,60.4c-0.1-0.2-0.5,0-0.4-0.5c0.2,0,0.5,0,0.7,0.1
	C53.8,60.2,53.6,60.3,53.5,60.4z M41.1,61.7c0-0.2,0-0.3,0.3-0.3c0.1,0.1,0.1,0.3,0,0.4c-0.1,0-0.2,0-0.3,0V61.7z M32.3,45.2
	c-0.1-0.4,0-0.9,0.3-1.3c0,0.5,0,1-0.5,1.2L32.3,45.2z M32.1,45.3c0,0,0.3,0.2,0.3,0.4c0,0.2-0.2,0.7-0.3,1H32c-0.2-0.3,0-0.9,0-1.1
	L32.1,45.3C32,45.3,32,45.3,32.1,45.3L32.1,45.3z M33.7,56.1c0.3,0,0.2,0.5,0.5,0.6v0.2C33.8,56.9,33.9,56.4,33.7,56.1L33.7,56.1z
	 M41.8,45.9c0-0.4-0.3-0.4-0.4-0.7h0.7c0,0.2,0.2,0.2,0.2,0.5c-0.2,0-0.2,0-0.4,0L41.8,45.9z M46.7,43.4c0,0-0.3-0.2-0.3-0.3
	c0-0.2,0-0.2,0-0.2h0.2C46.6,43,46.6,43.2,46.7,43.4L46.7,43.4z M44.2,44c-0.3-0.4-0.4-0.8-0.4-1.3c0.3,0,0.2,0.5,0.5,0.6
	c0,0.1,0,0.2,0,0.3c0.4,0.4,0.7,0.9,0.8,1.5c-0.2,0.1-0.4,0.1-0.5,0c0-0.5-0.2-0.6-0.5-0.8L44.2,44z M43.3,34.9
	c0,0.1-0.1,0.2-0.1,0.2c-0.1,0.1-0.2,0.1-0.3,0.1c0,0,0.3-0.3,0.5-0.1L43.3,34.9z M38.9,36.8c0,0-0.2,0-0.2-0.2s0-0.2,0.1-0.2h0
	c0,0.2,0,0.4-0.1,0.4L38.9,36.8z M36.1,39.2c-0.2,0,0,0.2-0.3,0c0-0.1,0-0.2,0-0.4c0.4-0.4,0.7-0.9,1.2-1.2v0.4
	c-0.4,0.2-0.7,0.6-1,1L36.1,39.2z M54.8,42.8c-0.2,0-0.2,0.2-0.4,0.2s0-1,0.4-1c0,0.4-0.2,0.5-0.2,0.8L54.8,42.8z M52.2,46.7
	c0.2-0.4,0.7-0.7,1.1-0.6C53.1,46.5,52.7,46.7,52.2,46.7L52.2,46.7z M42.5,59.2c0.1,0,0.2,0.5,0,0.5c0-0.3,0.1-0.3,0.3-0.4
	L42.5,59.2z M54.4,31.8c0,0.3-0.2,0.4-0.4,0.3v-0.3C54.1,31.9,54.2,31.9,54.4,31.8L54.4,31.8z M54.8,31.1c0,0.2,0.5,0.2,0.8,0.2
	c0,0.1,0,0.3,0,0.5c-0.5,0-1.5,0.2-1.5-0.4C54.2,31.2,54.5,31.2,54.8,31.1z M56.8,29.9h-0.2H56.8z M43.2,28.3h-0.1H43.2z M38.3,25.3
	c0,0,0-0.2,0-0.3h0.3C38.6,25.3,38.6,25.4,38.3,25.3L38.3,25.3z M49.5,24.1v0.3c-0.5,0-0.7,0.4-1.3,0.3v-0.3
	C48.8,24.4,49,23.9,49.5,24.1z M57.8,22.1c0.6,0.4,1.1,1,1.4,1.7V24c-0.4,0-0.6-0.4-0.9-0.6C58.3,22.9,57.6,22.7,57.8,22.1z
	 M57.1,23c0,0,0,0.2,0,0.3h-0.3C56.8,23.1,57,23,57.1,23L57.1,23z M56.5,22.6h-0.2v-0.1h0.1L56.5,22.6z M56.5,19.8h0.4
	c0,0.5-0.2,0.7-0.2,1.1c0,0.4,0.2,0,0.1,0.2c-0.4,0-0.5-0.2-0.7-0.3C56,20.7,56,20.8,56,21s0.1,0.3,0.1,0.4c0,0.1,0.3,0.2,0.4,0.4
	C56.3,21.9,56,22,55.6,22c0,0,0-0.3-0.3-0.4c-0.3,0-0.2,0-0.2,0.3c-0.3,0-0.5,0-0.7-0.2c0-0.6,0.3-0.8,0.9-0.8
	c0.2-0.2,0.5-0.4,0.8-0.3c0-0.4,0.6-0.3,0.4-1L56.5,19.8z M54.1,20.8h-0.3c0-0.6,0.4-0.7,0.8-0.8C54.5,20.4,54.1,20.4,54.1,20.8z
	 M50.4,18.6c-0.3,0.4-0.5,1-0.4,1.5c-0.3,0-0.3,0.3-0.3,0.5h-0.2c-0.1-0.2,0-0.4-0.2-0.6c-0.2-0.2,0,0,0,0c0.2,0,0.2-0.2,0.4-0.2V19
	c-0.2,0,0-0.2-0.2-0.2c0-0.4,0.1-0.8,0.2-1.1c0-0.4,0.1-0.7,0.4-1c0.1,0,0,0.4,0.1,0.4c0.1-0.3,0.2-0.5,0.2-0.8H51
	c0.2,0.3,0.4,0.7,0.4,1.2c-0.5,0.4-0.8,1-0.9,1.7L50.4,18.6z M48.9,19.5c0-0.1,0-0.4,0.2-0.3c0.1,0.3,0.2,0.6,0.2,0.9
	c-0.3,0-0.4-0.1-0.7-0.2c0-0.2,0-0.4,0.2-0.6L48.9,19.5z M57.1,17.3c0,0.4,0,0.7-0.2,1.1c0.3,0.2,0,0.9,0.1,1.3
	c-0.2,0-0.2-0.2-0.4-0.1c-0.3,0.1,0.1,0,0-0.3c-0.2-0.7-0.2-1.4,0-2.1C56.8,17.1,56.9,17.1,57.1,17.3L57.1,17.3z M41.8,18.3
	L41.8,18.3h-0.1c0-0.1,0-0.1,0-0.2h0.2L41.8,18.3z M41,18.1c-0.1,0-0.2-0.6,0-0.5c0,0.2,0,0.5-0.1,0.5L41,18.1z M41.1,17.3
	c0,0.2,0,0.3-0.2,0.3C41,17.5,41,17.3,41.1,17.3L41.1,17.3z M52,18c-0.1,0,0,0.2-0.3,0.2c0-0.1,0-0.2,0-0.3c0,0,0.1-0.1,0.2-0.2
	S52.1,17.7,52,18L52,18z M45.4,17.6c0,0.2-0.1,0.3-0.2,0.4c0-0.2-0.2-0.2,0-0.5C45.3,17.3,45.4,17.6,45.4,17.6L45.4,17.6z
	 M55.3,17.1c-0.4,0.4-0.7-0.3-1.1-0.3c-0.4-0.1-0.3,0.4-0.7,0.3v-0.3c0,0-0.6,0.4-0.8,0c-0.2-0.4,0.2-0.2,0.3-0.3
	c0.1-0.1,0.1-0.5,0.3-0.6c0.2-0.1,0.3,0.3,0.4,0.5c0.4,0,0.8,0,1.2,0c0,0.3,0.2,0.3,0.3,0.6L55.3,17.1z M55.7,15.7
	c0.3,0,0.5,0,0.5,0.3C56.3,16.3,55.8,16,55.7,15.7z M55.4,15.5v0.4c-0.2,0-0.3-0.1-0.2-0.2h0.2V15.5z M54.8,15.5h-0.3
	c0,0,0-0.2,0-0.2S54.8,15.3,54.8,15.5L54.8,15.5z M51,14.3c0,0.5-0.3,0.6-0.5,0.8c0-0.2-0.2,0-0.3-0.1c-0.1-0.1,0.2-0.5,0.2-0.9
	S50.6,14.4,51,14.3z M50.2,12.4c0.3,0,0.6,0,0.6,0.4c0,0.4-0.2,0-0.4,0C50.4,12.7,50.3,12.5,50.2,12.4L50.2,12.4z M48.8,10.4
	c-0.3,0-0.4,0-0.5-0.3c0-0.3,0.2-0.1,0.3-0.2S48.8,10.1,48.8,10.4z M48.8,3.9C49,3.9,49,4,49.1,4.2s-0.1,0-0.3,0s0-0.2,0-0.4
	L48.8,3.9z M47.9,30.3v-0.1h-0.1L47.9,30.3z M40.5,32.7c0,0,0-0.2,0.2,0v0.2c0,0-0.2,0-0.2,0V32.7z M42.5,18.5c0,0-0.2,0-0.3,0
	c0-0.2,0.2-0.3,0.3-0.3V18.5L42.5,18.5z M42.8,19.2c-0.1,0-0.3,0-0.3,0c0,0,0.2-0.1,0.3-0.2v0.3V19.2z M43,20c0,0.1,0,0.2,0,0.3
	h-0.2C42.8,20.1,43,20.2,43,20L43,20z M41.3,20.5v-0.1V20.5z M44.2,1H44c0-0.1,0-0.2,0-0.3c0-0.2,0.2-0.3,0.2,0s0,0,0,0v0.2
	c0.1,0,0.1,0.2,0.2,0.2c0.1,0,0.2-0.2,0.3-0.3C44.9,0.7,45,1.2,45.2,1c0,0.3,0,0.3,0,0.5c0,0.2-0.7,0-0.8-0.3L44.2,1z M56.3,33.7
	l0.4,0.2c0.9,0,1.1-0.8,1.8-1.1c0.1-0.4,0.3-0.7,0.7-0.9c0-0.3,0.2-0.6,0-0.7c0-0.5-0.3-1-0.6-1.4c0-0.7-0.6-1-0.9-1.5
	c0-0.3,0.5-0.5,0.6-0.7c0.2-0.2,0-0.1,0-0.2c0-0.1,0.1-0.3,0.3-0.4c0-0.3,0.1-0.7,0.2-1c0-0.1,0-0.2,0.1-0.5c0.1-0.3,0.1,0,0.2-0.2
	c0-0.2,0-0.4,0-0.6c-0.2,0,0-0.2-0.3-0.2c-0.3,0.1-0.2,0.4-0.6,0.4c-0.4,0,0,0.7-0.4,0.7c-0.4,0.1,0,0.3,0,0.4
	c0,0.1-0.3,0.3-0.3,0.5c0,0.3-0.3,0.2-0.5,0.4c-0.3-0.1-0.6,0.1-0.7,0.4c-0.4,0-0.5,0.1-0.8,0.3c-0.2,0.1-0.4,0.7,0,1
	c0.4,0.3,0.1-0.2,0.4,0s0,0.3,0.1,0.3s0.2-0.2,0.5-0.2c0.2,0,0.1-0.3,0.2-0.5s0.3,0.1,0.5,0.2c0.1,0.1,0,0.3,0.2,0.5h0.1
	c0,0,0,0.3,0,0.3s0.2,0,0.3,0.2c0.1,0.3,0.2,0.5,0.2,0.8c0.3,0.2,0.4,0.7,0.4,1.1c-0.5,0.4-0.6,1.1-1.2,1.3c0,0.3-0.2,0.2-0.2,0.4
	s-0.3,0-0.3,0.2h-0.6L56.3,33.7z M52.7,32.1l0.7,0.2c0-0.1,0-0.1,0-0.2C53.2,32,53,32,52.7,32.1L52.7,32.1z M41.3,0.2h0.1
	c0.5,0,0.7,0.2,0.9,0.4c0,0.2,0,0.5,0,0.7c0.1,0,0.3,0,0.3,0c0,0.2,0,0.5,0,0.7c0.1,0,0.2,0,0.2,0.2h0.9c0.4,0.3,0.7,0.7,0.9,1.1
	c0-0.2,0-0.3,0-0.4c0-0.2,0.2,0.3,0.2,0.5h-0.2c0.2,0.6,0.2,1.2,0.1,1.8c0.2,0,0,0.3,0.3,0.2c0.3-0.1-0.2,0-0.3,0s0.1,0.9-0.2,1.1
	c0,0.4-0.1,0.7-0.3,1c-0.3,0.3-0.6,0.6-0.8,0.9c-0.4,0-0.7,0.3-1.1,0.3c-0.2,1-0.2,1.9,0,2.9c0.5,0,0.4,0.7,0.8,0.8
	c0.4,0.1,0-0.2,0.2-0.3c0.2-0.1,0,0.3,0.2,0.3c0.2,0.1,0.6,0.2,0.7,0.5s0.1-0.2,0.4,0c-0.3,0.5-0.6-0.2-1.1,0c0,0.5,0.4,0.4,0.6,0.5
	s0,0.5,0.1,0.6c0.1,0.1-0.2,0-0.3,0c0,0.2-0.2,0.3-0.2,0.6c0,0.3-0.3,0-0.3,0.2c0.4,0.1,0.6,0.3,0.8,0.7c-0.1,0.3-0.5,0.4-0.8,0.5
	c-0.3,0.1,0.6,0.5,0.7,0.8s0.2,0,0.4,0s0,0.3,0,0.4c0.4,0,0.6,0.1,0.7,0.4h0.4c-0.2,0-0.3-0.2-0.2-0.4c-0.4-0.2-0.5-0.7-0.7-1.1
	c0.1,0.1,0.2,0.1,0.3,0c0-0.2,0.1-0.2,0.2-0.3s-0.3-0.8-0.4-1.2c0-0.4,0.2-0.4,0.3-0.5c0.1-0.2,0.3,0,0.5,0c0.2-0.2,0.5-0.3,0.7-0.3
	c0-0.2,0.2,0,0.3-0.2s0,0,0-0.1s0.3,0,0.4,0c0,0,0-0.1,0-0.1c0.1,0,0.3,0,0.4,0c0.1,0,0.4,0,0.4,0c0,0-0.5,0.3-0.4,0.7
	c0.2,0,0.1,0.4,0.2,0.6h-0.2c0-0.4-0.2-0.3-0.1-0.6v-0.2c-0.3-0.3-0.6,0.3-0.8,0c-0.1,0.1-0.2,0.2-0.3,0.3c0-0.2-0.4-0.4-0.5-0.2
	c0,0.1,0,0.3,0,0.4c-0.2,0,0-0.2-0.3-0.1s-0.2,1.1,0.2,1.2c0-0.3,0.4-0.3,0.5-0.6c0,0,0.2,0,0.3,0.3c0,0.3-0.2,0-0.3,0
	c-0.1,0-0.1,0.3-0.2,0.4c0.2,0.6,0,1.4,0.5,1.8c-0.1,0.2,0,0.5,0.1,0.7c-0.2,0,0,0.4,0,0.6s0,0-0.2,0c-0.2,0-0.4-0.3-0.5-0.5
	c-0.1-0.3,0.2,0,0.2-0.3s0-0.2-0.3-0.2c-0.2,0.2-0.2,0.6-0.3,0.8c-0.1,0.3,0,0.2,0.2,0.1c0.2-0.1-0.1,0.6,0,0.6h0.2
	c0.1,0,0.1,0,0.2,0v0.2h-0.2c0,0.4,0.1,0.7,0.4,0.9c-0.1,0.2-0.2,0.4-0.3,0.6c0,0.2,0.2,0.3,0.3,0.4c0.1,0.1-0.3,0-0.5,0
	c0,0.5,0.2,0.9-0.2,1.2v0.4c-0.4,0-0.3-0.4-0.5-0.5c-0.3-0.1,0.2-0.2,0.4-0.2c0.1-0.6-0.6-0.2-0.6-0.7c0-0.4,0,0.2,0.3,0
	s-0.1-0.5-0.2-0.8c-0.1-0.3,0.2,0.2,0.4,0c0-0.7-0.7-0.8-0.6-1.7c-0.2,0-0.3-0.4-0.5-0.5c-0.2-0.1,0,0.2-0.1,0.3
	c-0.1,0.1,0.1-1-0.5-1c-0.2-0.3-0.3-0.8-0.2-1.2c0,0,0.3,0,0.3-0.3c0-0.3-0.9-0.9-1-0.2c-0.2,0-0.3,0.1-0.5,0.2c0,0.2,0.2,0,0,0.3
	c-0.2,0.3,0.5,0,0.5,0.2c0,0.2-0.3,0-0.5,0c-0.2,0,0.2,0.3,0.1,0.6h-0.3c0,0.2,0.2,0,0.2,0.2s0,0.5-0.3,0.5s0,0.5,0,0.5
	c0,0.1,0-0.4-0.3-0.3c-0.3,0.1,0,0.2-0.1,0.3c-0.1,0.1-0.2-0.4-0.4-0.5c-0.2-0.1,0,0.6-0.3,0.7c0.2,0.3,0.2,0.6,0.1,0.9
	c0.1,0.2,0.4,0.2,0.3,0.5c-0.1,0.3-0.6-0.2-0.8-0.3c0-0.7,0.1-1.5-0.1-1.9c0.3-0.3,0.4-0.9,0.4-1.5c0.1-0.6,0.9-0.7,1.2-1.2
	c0.3,0,0.5-0.2,0.5-0.5c0.4-0.1,0.7-0.2,1-0.5c0-0.2-0.2-0.2-0.4-0.2h-0.6v0.1c0,0-0.5,0-0.5,0.2c-0.1,0.1-0.2,0.2-0.2,0.4
	c-0.5,0.3-1.2,0.3-1.5,0.8c-0.7,0-0.6,0.7-0.8,1.2c0.2,0.4,0,1.4,0,2.1l0,0c0,0,0,0.3,0,0.4c0.1,0.2,0.1,0.5,0,0.8
	c-0.1,0-0.5,0-0.4,0.4c-0.3,0-0.3,0.2-0.5,0.2c-0.4,1.3-1.5,1.8-2.1,2.9c0.2,0.6,0.2,1.4,0.8,1.7c0,0.4,0,0.6,0.3,0.7
	c0.3,0.1,0.3,0.5,0.3,0.8c0.2-0.1,0.4-0.1,0.6,0c-0.2,0.2-0.3,0.4-0.4,0.7h-0.2c0,0.2-0.1,0.4-0.3,0.5c0,0.6,0,1.1-0.5,1.2
	c0,0.2,0,0.3,0,0.4c-0.5,0.3-0.7,0.9-0.5,1.4h0.1c0.3,0.6,0.7,1,1.3,1.3c0.1,0.3,0.4,0.5,0.8,0.6c0.2,0,0.2-0.2,0.3-0.2
	c0.1-0.1,0.2,0.4,0.5,0.4v-0.3c0.3,0,0,0.3,0,0.5l0.5,0.2c2-0.9,4.2-1.3,6.4-1.4c-0.1-0.3-0.2-0.7-0.8-0.6c0,0.8-0.8,1-1.5,0.8
	c0-0.2,0-0.5-0.1-0.7c0.2-0.1,0.2-0.4,0.2-0.7c0-0.3,0-0.4,0.3-0.4c0-0.1,0-0.2,0-0.3h0.7c0-0.2,0.2,0,0.2-0.3
	c0.4,0.1,0.9,0,1.3-0.2c0,0.4,0.3,0.4,0.7,0.4c0.1,0.6,0.2,1.2,0.3,1.7h0.9c0-0.2,0-0.3,0-0.4c0-0.2,0-0.3,0-0.5
	c0-0.2,0.2-0.3,0.3-0.5c0.1-0.2,0-0.5,0.2-0.6c0.2-0.1,0.4,0,0.6,0.1c0.2,0.1,0.7-0.1,1-0.1c0.4,0,0.3,0.4,0.6,0.4
	c0,0.4,0.2,0.6,0.1,1.1c-0.2,0.3-0.5,0.4-0.8,0.5c-0.3-0.3-0.2-0.7-0.6-0.8c-0.1,0-0.3,0-0.4,0c-0.1,0.2-0.2,0.4-0.2,0.7
	c0.9,0.1,1.7,0.2,2.6,0.4c0.4,0,0.7,0,1.1,0c0-0.2,0.3-0.2,0.3-0.4c0-0.2,0.3-0.2,0.6-0.2v-0.5c0.3-0.2,0.7-0.3,1-0.2
	c0.4-0.3,1.1,0,1.7,0c0-0.3-0.2-0.4-0.4-0.4s-0.4-0.2-0.8-0.2c-0.3,0,0-0.2-0.2,0s-0.8,0-1,0.2s0-0.3,0-0.5c0-0.2-0.2-0.1-0.2-0.4
	c0-0.2-0.4,0-0.5,0c0.1-1,0.9-1.2,1.4-1.9c0.1-0.2,0-0.4-0.1-0.5c0.2-0.4,0.9-0.3,0.9-0.8c-0.3,0.1-0.7,0-0.9,0.2c0,0-0.3,0-0.4,0
	s0,0,0,0s-0.1,0-0.1,0.2l-0.4-0.3c-0.3,0.2-0.5,0.4-0.7,0.7c-0.1,0,0-0.3,0-0.5c0.5-0.4,0.9-1,1.2-1.5c-0.1-0.3-0.2-0.5-0.5-0.6
	c0-0.1,0.1-0.2,0.2-0.3c0-0.2-0.1-0.4-0.3-0.5c0-0.2,0-0.4,0-0.5c0-0.1-0.6,0.8-1.3,0.8c0.3-0.9,0.8-1.8,1.6-2.4
	c0.1-0.3,0.1-0.5,0-0.8c-0.1-0.1-0.3-0.1-0.4-0.1s-0.2,0.2-0.3,0.3c-0.2,0,0-0.2-0.3-0.1c-0.3,0.1-0.2,0.6-0.6,0.7
	c-0.1-0.3-0.3-0.5-0.5-0.7c0.4-0.4,0.8-0.9,1-1.4c0-0.1,0.2,0,0.2-0.2s-0.3,0-0.4,0c-0.2-0.3-0.3-0.7-0.2-1c-0.2,0.2-0.5,0-0.6,0
	c0,0.1,0,0.3,0,0.5c0,0.2-0.2,0-0.3,0c-0.4,0.4-0.4,1.3-0.7,1.8c0,0,0,0.3,0.1,0.3c0.1-0.1-0.1,0.3-0.2,0.3c-0.1,0.1,0-0.3,0-0.5
	s-0.3,0.2-0.3,0.4s-0.5,0.3-0.7,0.6c0.5,0,0.4,0.6,0.8,0.7v0.9c0.4,0.5,0.2,1.2,0.3,1.7c0.1,0.6,0.3,0.6,0.4,0.9
	c-0.1,0.1-0.2,0.3-0.1,0.5c0.2,0.2,0,0.8,0.2,1c-0.1,0.6-0.2,1.2-0.2,1.8c-0.6,0-1.4-0.1-1.7,0.3c0,0-0.2,0-0.4,0
	c-0.1,0.1-0.3,0.2-0.4,0.3c-0.3-0.5-0.5-1.2-0.5-1.8c0.2-0.1,0.4-0.3,0.5-0.6c0-0.1,0.3,0,0.3-0.3c-0.2,0-0.4,0-0.6,0.2
	c-0.4-0.1-0.2-0.6-0.2-1c-0.3,0-0.2,0.3-0.5,0.3c-0.2,0,0-0.7-0.3-0.8c-0.3-0.1-0.2,0.1-0.3,0.2c-0.1-0.4-0.6-0.5-1-0.6
	c-0.4-0.1,0-0.2,0-0.3s0.7-0.3,0.9,0c0.3-0.4,0.6,0.2,1,0c0-0.2,0-0.5,0-0.7c-0.5,0-0.6-0.5-0.6-1c-0.3-0.1-0.3-0.5-0.8-0.4
	c-0.1-0.1-0.2-0.3-0.2-0.4c0.3-0.4,1.3,0,1.9-0.2c0.1-0.2,0.1-0.4,0-0.5c0.1-0.5-0.1-0.9-0.3-1.3c-0.3,0-0.5-0.1-0.8-0.3
	c0-0.3,0.5-0.2,0.6-0.4c0.1,0.2,0.7,0.3,0.9,0c0.2-0.3-0.3,0-0.4-0.1c-0.1-0.1-0.3-0.4-0.6-0.4c-0.4,0,0-0.9-0.1-1.1
	c0.3-0.2,1,0,1.3-0.3c0-0.2,0-0.4-0.2-0.5c0.2-0.5,0.1-1.3,0.4-1.8c0.2-0.5,0.8-0.2,0.9-0.8c0.1,0,0.3,0,0.4,0
	c0-0.6,0.4-0.9,0.2-1.5c-0.2,0-0.3,0-0.4,0c0-0.2-0.1-0.3-0.2-0.5c-0.1,0-0.3,0-0.4,0.2c-0.1-0.2-0.4-0.4-0.7-0.3
	c-0.1-0.2-0.1-0.5,0-0.7c0.1-0.2,0.4-0.3,0.6-0.3c0.2,0.1,0.4,0.2,0.6,0.3c0.1,0,0.1,0.3,0.4,0.3c0-0.2,0-0.3,0-0.5
	c0.6,0,1.1,0.1,1.6,0.3v0.3c-0.2,0,0-0.2-0.3-0.2c-0.3,0.1-0.4,0.4-0.5,0.6c-0.1,0.3,0.6,0.5,0.9,0.7s0,0.7,0.4,0.7
	c0.1,0.6-0.1,1.3-0.6,1.7c0.1,0.2,0.3,0.5,0.3,0.7c0.4,0,0.5-0.2,0.8-0.3s0.1-1-0.1-1.2c0-0.7,0.4-1.1,0.3-2c0.4-0.4,0.6-1,1.1-1.3
	c0.1-1.1,0-2.2-0.1-3.2c-0.1-0.1-0.2-0.2-0.3-0.4h-0.3c-0.4-0.3-0.7-0.7-0.8-1.2C52.1,6.7,52,6.3,51.8,6C51.8,6.5,52,7,52.5,7.3
	c0,0.4,0.2,0.5,0.1,0.9c-0.8,0.2-1.6,0.2-2.4,0.2c-0.6,0-1.2,0-1.8,0c0-0.1,0-0.3-0.2-0.4c-0.2-0.1,0,0.4-0.2,0.5
	c-0.2,0.1,0,0-0.3,0c-0.3,0,0-0.2,0-0.3c-0.2,0-0.4,0-0.7,0V7.9c0,0,0.2,0,0.3,0c0.2-0.6,0.7-1.7,0.3-2.5c0-0.2,0.2,0,0.2-0.2
	c0-0.2,0,0.6,0.4,0.5c0.1-0.8,0.1-1.5,0-2.3c0,0,0.1,0,0.2,0c0.1,0,0,0.9,0.3,0.9c0.3,0.1,0-0.5,0.2-0.5c0.2,0,0,0,0-0.2
	c0.3-0.1,0.5-0.2,0.8-0.3l0.1,0.4c0.3,0,0.6-0.1,0.9-0.3c0,0.2,0.3,0,0.5,0.2c0.1,0.2,0.1,0.3,0.2,0.4c0.8-0.5,0.3-2.4,1.9-2
	c0.4-0.3,0-1.2,0.3-1.8c0.2-0.1,0.3-0.1,0.5,0h0.2h-11c0,0.2,0.4,0.1,0.3,0.4c-0.5,0-0.6,0.2-0.9,0.3s-0.2,0-0.2-0.3
	c0-0.3,0.5,0.1,0.6,0c0.1-0.1,0.1-0.2,0-0.3c0.2,0,0-0.2,0.2-0.1L41.3,0.2z M50.3,1.5c-0.6-0.3-1.4,0.2-2.1,0
	c-0.2,0-0.2,0.2-0.4,0.2s-0.5,0-0.7-0.1c-0.2-0.1-0.2-0.3-0.4-0.3c-0.2,0,0,0.2-0.2,0c-0.2-0.2,0-0.3-0.2-0.3c-0.2,0,0,0.2,0,0.3
	h-0.2c0-0.2-0.1-0.4-0.1-0.6c0,0,0.2-0.1,0.3,0c0.2,0.1,0,0.2,0,0.2c0.2,0,0.2-0.2,0.3-0.3c0.3,0,0.6,0,0.9,0
	c0.1-0.1,0.2-0.2,0.3-0.3c0.3,0,0.4,0.2,0.5,0.3c0.2,0.1,0.7-0.1,1.2-0.1s1,0.3,1.3,0c0.3,0.1,0.7,0.2,1,0.2c0.3,0,0.7-0.2,0.9,0
	c0.2,0.2-0.1-0.1-0.3,0c0,0.2-0.2,0.4-0.3,0.6c-0.2,0-0.1-0.2-0.3-0.2s-0.2,0.2-0.2,0.5c0,0.3-0.3,0-0.4-0.1c-0.1-0.1-0.4,0-0.7,0
	L50.3,1.5z M45.3,7h0.2H45.3z M48.7,2.5h-0.2C48.6,2.5,48.9,2.3,48.7,2.5L48.7,2.5z M51.4,2.5c0,0.2,0,0.3-0.2,0.3
	c-0.2,0,0-0.1,0-0.3H51.4L51.4,2.5z M46.6,2.8c0,0,0.1,0.2,0,0.2S46.5,3,46.6,2.8c-0.2,0-0.2,0-0.3-0.2c-0.1-0.2,0-0.2,0.2,0
	c0.2,0.2,0,0.2,0,0.3L46.6,2.8z M47.3,3.2c0,0.2,0,0.4-0.2,0.5c-0.2,0-0.2-0.3-0.2-0.5c0-0.3,0.1,0,0.2,0c0.1,0,0,0,0.1,0.2V3.2z
	 M46.8,3.7c0,0.2,0,0.3-0.2,0.2c-0.2,0,0-0.1,0-0.2H46.8L46.8,3.7z M47.8,4.5c0,0.1-0.1,0.3-0.3,0.3s-0.2,0,0-0.4S47.6,4.6,47.8,4.5
	L47.8,4.5z M47,4.1c0.1,0,0.2,0.8,0,0.9C46.8,5,47,4.3,47,4.1z M47,7.3c-0.4,0-0.3,0.4-0.7,0.4c-0.4,0,0.2-0.3,0.1-0.5
	c-0.3,0-0.2,0.6-0.5,0.7c-0.3,0.1,0-0.3,0-0.5s0.2-0.3,0.3-0.4c0.1-0.7,0.2-1.4,0.1-2.1c0.4,0,0.2,0.7,0.2,1.1c0,0.3-0.1,0.7-0.1,1
	h-0.3c0.2,0,0.2-0.5,0.4-0.3c0,0.1,0,0.4,0,0.7L47,7.3z M46,8.1v0.2h0.1c0-0.1,0-0.2,0.2-0.2H46z M44.1,11.2V11h0.2v0.2H44
	L44.1,11.2z M44.6,11.2c0-0.1,0-0.4,0.1-0.4C44.9,10.9,44.7,11.1,44.6,11.2z M53.3,10L53.3,10l-0.2,0.1V9.9h0.2V10z M53.3,10.8v0.2
	h-0.2v-0.2h0.3H53.3z M52.3,11.9c0-0.2,0-0.5,0-0.5c0-0.1-0.2,0-0.4,0c-0.3-0.5-1.4,0-2-0.3c-0.5,0.1-1.1,0.1-1.6,0
	c0-0.2,0.1-0.7,0-0.7c0,0.3-0.2,0.2-0.1,0.5c-0.4-0.2-0.7,0-0.9,0c-0.2,0-0.2-0.4-0.4-0.6s0.4,0,0.5,0c0.1-0.2,0-0.5-0.1-0.6
	c-0.2,0-0.2,0-0.3,0.2c-0.1,0.2,0-0.7-0.2-0.7c-0.2,0.1-0.1,0.6-0.3,0.7V9.2c-0.4-0.3-0.6,0.2-0.5,0.7v0.2c0.2,0,0.2,0.2,0.5,0
	c0,0.3,0,0.4,0.1,0.7c-0.3-0.1-0.5-0.1-0.8,0c0-0.2-0.1-0.6,0-0.7c0-0.1,0-0.4-0.2-0.4c0.1-0.1,0.2-0.3,0.1-0.5
	c-0.2,0,0-0.2-0.3-0.1s0,0.2-0.2,0c-0.2-0.2,0.4,0,0.5-0.3c0.1,0.3,0.8,0,1,0.3c0.5-0.1,1.1-0.2,1.6-0.3c0,0,0.2,0.1,0.3,0.2
	c0.9,0.1,1.8,0.1,2.7,0c0.1,0,0,0.2,0.3,0c0.3-0.2,0.9,0,1.3,0c0.2,0.4,0.2,0.9,0,1.4l0.3,0.4c0,0.4-0.3,0.5-0.4,0.8
	c-0.1,0.3,0.2,0.2,0.2,0.4s-0.1,0-0.2,0v0.3H52c0-0.1,0-0.3,0.2-0.3L52.3,11.9z M40,31.1c-0.2,0-0.3,0-0.4-0.2c0.1,0,0.2-0.2,0.5,0
	c0,0.1,0,0.2,0,0.3L40,31.1z M37.6,32.4v-0.2C37.6,32.3,37.7,32.3,37.6,32.4l-0.2,0L37.6,32.4z M40.6,28.4c0.3,0,0.2-0.6,0.5-0.7
	c0.2,0.3,0.6,0.4,0.9,0.3c0,0.7,1.2,0.4,0.7-0.3c0.2,0,0-0.3,0.3-0.3v-0.2c0.2,0,0.2,0.3,0.2,0.4h0.2c0,0.3,0,0.4,0.1,0.6
	s-0.4,0.2-0.4,0c0.1-0.2,0.1-0.4,0-0.6c0,0,0-0.2-0.2-0.2h-0.1c0,0.3,0,0.6,0,1h0.3c0,0.2,0,0.4,0,0.7c0,0.3,0.3,0.2,0.2,0.5
	c-0.8-0.2-1.4-1.2-2.3-0.7c0,0.2,0,0.2,0,0.3c0,0.1-0.3,0-0.3,0s0.3,0,0.2-0.4s-0.2-0.4-0.6-0.3c-0.3,0.2,0,0.6-0.2,1
	c0.6,0.2,1.2,0.4,1.8,0.5c0.1,0.2,0.7,0.1,0.7,0.5c0,0.4-0.2-0.2-0.5-0.2c-0.2,0-1.3-0.2-1.8,0h0.2c-0.1,0-0.2,0-0.3,0
	c0,0,0,0.3-0.2,0.3s-0.8-0.2-0.9,0c-0.1,0.2-0.4,0-0.4,0c0,0.1,0,0.2,0,0.3c0.2,0,0.1,0.2,0.4,0.1c0.2-0.1-0.2,0.2-0.2,0.4
	c0.1,0,0,0.3,0.4,0.2c0.4-0.1,0,0,0,0s0.2,0,0.3,0s0-0.2,0.2-0.2c0.3-0.1,0.7-0.1,1,0c0,0.4-0.4,0.2-0.4,0.5c0,0,0.3-0.4,0.6,0.3
	c-0.2,0-0.5,0-0.7,0c-0.2,0,0,0,0,0s-0.3,0-0.3,0c0,0,0,0.3-0.2,0.2c0,0,0-0.2,0-0.4c0.9-0.2,0.8-0.3,0.8-0.3c-0.3-0.2-0.6,0-0.9,0
	c0,0.4-0.3,0.3-0.7,0.3s0-0.4,0-0.5c-0.2-0.2-0.6,0-0.8-0.3h-0.2c0,0-0.1,0.2-0.3,0.2c0-0.5,0.1-1,0.4-1.4c0-0.6,0.5-0.8,0.5-1.3
	c0.3-0.1,0.5-0.4,0.6-0.7C39.7,27.7,40.3,27.9,40.6,28.4L40.6,28.4z M44.8,29.1c0-0.3,0-0.3,0-0.6C45.1,28.6,45.1,29,44.8,29.1z
	 M45.4,28.3c0-0.2-0.2,0,0-0.3c0.2-0.3,0,0,0.3,0C45.9,28,45.6,28.2,45.4,28.3L45.4,28.3z M45,28.1h-0.1H45z M46.7,23.6
	c0,0.2,0,0.4-0.2,0.3C46.4,23.9,46.5,23.7,46.7,23.6z M47,28.1c-0.1,0.6,0,1-0.3,1.4c-0.5-0.3,0-1.5-0.3-2l-0.3,0.2
	c-0.2,0.3,0,0.8-0.1,1.1c-0.2-0.4,0-1.1-0.4-1.5c-0.4,0-0.4-0.4-0.8-0.2c0-0.3-0.4-0.2-0.7-0.3c-0.3,0,0,0.4-0.1,0.3
	c-0.1-0.1-0.5-0.4-0.3-0.6c0,0.2,0.3,0.2,0.3,0s-0.3-0.5-0.5-0.8c-0.2-0.2,0-0.5,0-0.7c0-0.2-0.2-0.4-0.6-0.4c0-0.3-0.2-0.4-0.5-0.4
	c-0.2-0.8-0.9-1.1-1.8-1.2c0,0,0,0,0,0.2c-0.3,0-0.5,0-0.8-0.2c-0.3,0-0.6,0.3-0.6,0.7s0.2,0,0,0.2c-0.2,0.2-0.1,0-0.2,0
	c0,0.2,0.2,0,0,0.3s-0.5,0-0.5,0c0,0,0.2,0.9,0.2,0.9s-0.2,0.3-0.3,0.4c0.2,0.1,0.4,0.4,0.3,0.6c0.4,0.2,0.4,0.8,1.2,0.6
	c0,0.2,0.3,0.2,0.4,0.4c-0.8,0.4-1.1-0.3-1.6-0.7c0-0.3-0.1-0.6-0.4-0.9c0-0.6-0.4-0.9-0.6-1.3c-0.2-0.5,0.3-0.4,0.2-0.9
	c0.5-0.2,0.6-0.8,1-1.1c0.4-0.3,0.6-0.7,0.8-1.2c0.3-0.1,0.6-0.2,0.9-0.1c0,0.2,0.3,0.2,0.4,0.4c0.2,0,0.5,0,0.6-0.2
	c0-0.2,0-0.4,0-0.6c0.5,0,0.6,0.5,1.2,0.4c0.1,0.3,0.1,0.5,0.1,0.8c0.5,0.2,0.6,0.7,1.1,0.8c0,0.5,0.3,0.5,0.6,0.7c0,0.3,0,0.6,0,1
	h-0.1c0-0.7-0.6-1-1.1-1.2c-0.4-0.6-1-1.1-1.7-1.4c-0.3,0-0.6,0-0.7-0.2h0.2c-0.2,0.2,0,0.4,0.1,0.5c0.7,0.2,0.9,1,1.5,1.3
	c0,0.2,0.2,0.3,0.3,0.5c0.1,0,0.2,0,0.3,0c0.2,0.3,0.5,0.6,0.8,0.8c0.1,0.4,0.2,0.7,0.5,0.9c0,0.4,0.1,0.7,0.3,1
	c0.1,0.1,0.5,0,0.6,0.2c0-0.2,0.2,0,0.4,0c0.1,0,0.6,0.2,0.9,0.2s0.4,0.4,0.4,0.7s0,0.2-0.2,0.2L47,28.1z M43,26.8
	c0-0.3-0.3-0.4-0.4-0.7c0.4,0,0.3,0.5,0.6,0.4v0.3L43,26.8L43,26.8z M41.8,26.2c0.3,0,0.3,0.2,0.3,0.3c-0.1,0-0.2,0-0.3,0V26.2
	L41.8,26.2z M41.8,25.9c0-0.8-1-0.7-1.3-1.2c0,0,0,0,0-0.2c0.6,0,0.6,0.7,1,0.8h0.6c0,0.4,0.3,0.6,0.1,0.7S42,25.8,41.8,25.9
	L41.8,25.9z M40.1,25.1c0.3,0,0.4,0,0.4,0.3C40.6,25.7,40.1,25.4,40.1,25.1z M51.9,19.3c0,0.4-0.3,0.7-0.4,0.7c-0.1,0,0.1,0,0-0.3
	C51.3,19.4,51.5,19.3,51.9,19.3L51.9,19.3z M53.2,27.7c0,0.1,0,0.2,0,0.2h-0.3C52.9,27.7,53.1,27.7,53.2,27.7L53.2,27.7z M56.3,34.2
	c-0.1,0-0.2,0-0.3,0H56.3L56.3,34.2z M54.4,29.6c0.1,0,0.5,0.1,0.5,0c0-0.1,0.1,0,0.2,0v0.2c0,0.2-0.3,0-0.5,0.2
	c-0.2,0.2-0.3,0.4-0.3,0C54.2,29.8,54.4,29.8,54.4,29.6L54.4,29.6z M48.6,26.8c0.1-0.5,1.6-0.5,1.8,0c-0.6,0-1.2,0.1-1.7,0.2
	L48.6,26.8z M41.9,17.6h-0.3c0-0.3,0-0.6,0.3-0.6c0,0.2,0,0.2,0,0.4L41.9,17.6z M39.2,24.2c-0.2,0-0.2,0-0.3-0.2
	c-0.1-0.2,0.4-0.2,0.3,0L39.2,24.2z M48.1,9.4c0,0,0.2,0.6,0,0.5C47.9,9.9,48.1,9.6,48.1,9.4c0-0.2,0.1,0,0.2,0H48.1z M34.6,55.4
	c-0.2,0-0.2,0-0.5,0c-0.2,0,0,0.3,0,0.2c0-0.1,0-0.5,0-0.7s-0.2,0-0.3,0c-0.1,0-0.2-0.2-0.2-0.5c0.4,0,0.3-0.5,0.5-0.7
	c0.1-0.3,0.4,0,0.4,0.3c-0.1,0,0,0.2,0,0.3c0-0.3,0-0.4,0-0.4c0.2-0.3,0.8-0.2,0.9-0.6s0.1,0.2,0.4,0c0.2-0.2,0-0.2,0-0.3
	c0.4,0,0.6,0.3,0.4,0.5h0.3c0.1-0.4,0.1-0.9,0-1.3c0.1,0,0.4-0.4,0.6,0c0.2-0.3,0.9-0.6,0.9,0c0.8,0.1,1.6,0.1,2.4,0
	c0.3-0.4,1.1-0.3,1.4-0.7h0.4c-0.3,0.6-1.2,0.6-1.7,1c-0.2,0-0.3,0-0.3,0s-0.2,0.2-0.3,0.4s-0.6,0-0.8,0.3c-0.4,0.1-0.8,0.2-1.2,0.5
	l0,0c0,0-0.3,0-0.4,0s-0.5,0.5-1,0.4c-0.4,0.3-0.8,0.5-1.2,0.6c0,0.6,0.9,0.4,1.2,0.8c-0.6,0.3-1-0.2-1.7,0c0,0,0-0.2-0.1-0.2
	s0,0.2-0.2,0.3L34.6,55.4z M36.1,53.4c-0.4,0-0.5,0.3-0.7-0.2c0.2-0.2,0.6-0.2,0.8-0.4c0.2-0.2-0.2,0-0.2-0.3c0.2,0,0.3,0,0.5,0
	l-0.1,0.4c0,0-0.3,0.1-0.3,0.4V53.4z M62.4,45.3c-0.2,0-0.1-0.2-0.3-0.2c0-0.1,0.1-0.2,0.1-0.3c0.2,0,0.3,0.2,0.3,0.5
	C62.6,45.6,62.6,45.3,62.4,45.3L62.4,45.3z M61,41.8v-0.2h0.2v0.2H61z M55.9,36.3c0.2,0,0.2,0.2,0.5,0.2s0.3,0.2,0.4,0.3l0.3,0.3
	c0,0,0.2,0,0.3,0.2c0.2,0.2,0.4,0.4,0.6,0.6c0.2,0.2,0.4,0.3,0.6,0.4c0,0.2,0,0.4,0,0.6c-0.3,0.1-0.6,0.1-0.9,0
	c0-0.4-0.5-0.4-0.7-0.6c-0.2-0.2,0,0.2-0.2,0c-0.2-0.2-0.7,0-1,0c0-0.4,0.3-0.4,0.4-0.7H57c0,0.1,0,0.2,0,0.3h0.3
	c0-0.3-0.1-0.3-0.3-0.3c-0.1-0.3-0.4-0.4-0.7-0.5C56.3,36.7,55.9,36.7,55.9,36.3L55.9,36.3z M55.2,36.1c0-0.5-0.4-0.4-0.5-0.8
	c-0.1-0.3-0.3,0.1-0.6,0.1s-0.3-0.2-0.3-0.5c0-0.3-1,0-1.2-0.5c-0.3,0-0.4,0-0.7,0v0.3c0.3,0,0.6,0.1,0.8,0.4
	c-0.3,0-0.2,0.2-0.4,0.2c-0.1,0.6,0.4,0.4,0.6,0.6c0.2,0.2-0.2,0.3-0.4,0.3c0,0.4-0.5,0.5-0.4,1c0,0,0,0-0.1,0c-0.1,0,0,0.4,0,0.4
	c0-0.1,0-0.1,0-0.2c0-0.1,0,0.1,0,0.2h-0.2c0.2,0.6-0.3,0.9-0.4,1.4c-0.1,0.5,0.2,0.5,0,0.8c0.4-0.2,0.4-0.7,0.9-0.8
	c0-0.3,0-0.5,0-0.9s-0.2,0-0.2-0.2c0-0.2,0.8,0.3,1.2,0c0.3-0.3,0.3-0.5,0.3-0.9c0.2,0,0-0.2,0.3-0.1c-0.2,0.5,0,0.9,0,1.5
	c-0.2,0-0.1,0.4-0.1,0.7c0,0.3-0.4,0.8-0.7,1.1c0,0.2,0,0.2,0,0.3c-0.3,0.2-0.4,0.5-0.4,0.8c0.2,0,0.2-0.2,0.4-0.2
	c0.3-0.6,0.7-1.1,1.3-1.5c0-0.2,0-0.2,0-0.4c0-0.2,0.4-0.5,0.8-0.5c0-0.3,0.2-0.2,0.2-0.5c-0.3-0.2-0.6,0.2-0.8,0.3
	c0-0.8,0.2-1.8,0-2.5c0,0,0.2-0.1,0.3-0.1L55.2,36.1z M53.4,36.4c0-0.2,0.2-0.2,0.3,0C53.8,36.6,53.5,36.4,53.4,36.4z M56,35.5
	c0,0,0-0.2,0-0.2c0,0,0.2-0.2,0.5-0.2c0.3,0.1,0,0.2,0,0.2c0,0-0.2,0.2-0.2,0.3s0-0.2-0.3,0V35.5z M56,34.6c-0.2,0-0.3,0-0.3,0
	c0,0,0.2,0,0-0.2c-0.2-0.2,0,0.2,0.2,0v0.2H56z M55.6,35.5c0.2,0,0.4,0.4,0.1,0.4c-0.3,0.1-0.2-0.2-0.3-0.2S55.5,35.7,55.6,35.5z
	 M55.2,35.2c0-0.2-0.4-0.2-0.4-0.4c0.2,0,0.3,0,0.5,0c0.2,0,0,0.2,0,0.2s-0.2,0.2-0.3,0.3L55.2,35.2z M54.3,34.7
	c0-0.2,0.3-0.2,0.3,0C54.5,34.8,54.4,34.8,54.3,34.7L54.3,34.7z M55,35.6c-0.7,0-0.9-0.4-1.3-0.6c0-0.2,0.3-0.2,0.5-0.2
	C54.3,35.2,54.9,35.1,55,35.6z M53.4,50.1c0-0.2,0.6-0.2,0.7,0c0.1,0.2-0.2,0.2-0.2,0.3c-0.2,0-0.3-0.1-0.4-0.2V50.1z M52.5,34.6
	c-0.4-0.2-1,0-1.1-0.5c0.7-0.2,1.2,0.3,1.9,0.3c0,0.3,0,0.3,0,0.5c-0.2,0.1-0.4,0.1-0.7,0L52.5,34.6L52.5,34.6z M50.2,40.8
	c0.3,0.7-0.2,1.4-0.4,1.8c0,0,0-0.2-0.2,0v-0.2c0-0.2,0.2,0,0.2-0.2c0-0.2,0-0.1,0-0.2s-0.2,0.3-0.4,0.3c-0.2,0-0.3-0.5-0.2-0.9
	s0-0.3,0.1-0.4c0.1-0.2-0.2-1,0-1.2c0.2-0.2-0.2,0-0.1-0.4c0.4-0.9-0.3-1.6,0-2.5c0.2,0,0-0.2,0-0.3c0-0.1,0.3-0.3,0.5-0.5
	s0.4,0.5,0.6,0.7c0.2,0.2-0.1,0.8,0.1,1c0.1-0.5,0.3-1.8-0.2-2.1c0.1-0.2,0.4-0.3,0.6-0.3c0-0.2,0-0.4,0-0.6c0.2,0,0.2-0.2,0.5-0.1
	c0.3,0.1,0,0.5-0.1,0.6c0.2,0.2,0.3,0.5,0.2,0.7c0.4-0.2,0.6,0.2,1.2,0c0,0.4-0.2,0.5-0.3,0.8c-0.1,0.2-0.3,0-0.5,0
	c-0.1,0.3-0.4,0.5-0.6,0.6c0,0.4,0,0.8-0.2,0.9c0.1,0.3,0,0.6-0.2,0.8c-0.2,0-0.4,0-0.5-0.3s-0.3,0-0.3,0c0,0,0.3,0.4,0.2,0.6
	c-0.1,0.2,0.2-0.2,0.5-0.1c0.2,0.5,0,0.7,0,1.2c-0.2,0-0.2,0-0.4,0c0-0.2,0-0.5,0-0.7c-0.2,0.4-0.2,0.8-0.2,1.3
	c0.2-0.2,0.2-0.5,0.6-0.4c0.3,0.2,0,0.3-0.1,0.3L50.2,40.8z M51.7,34.8h-0.2v-0.2h0.1C51.7,34.7,51.7,34.7,51.7,34.8L51.7,34.8z
	 M50.7,34.5c0-0.2,0.2,0,0.3-0.1v0.2c-0.1,0-0.3,0-0.3,0V34.5z M46.1,34.1c0.2,0,0.5,0,0.5,0s0,0.2,0.2,0.2c0.3-0.4,0.9,0,1.2-0.2
	s0.6,0.2,0.7,0c0.2-0.2,0.2,0.3,0.4,0.3c0.2,0.1,0.9-0.4,1.1,0c0.2,0.4-0.1,0,0,0.3c0.1,0.3,0.3,0.4,0.1,0.7
	c-0.1,0.3-0.4,0.4-0.9,0.4c0-0.5-0.3-0.5-0.4-0.8c-0.8-0.1-1.5-0.1-2.3,0c-0.3,0.3-0.7,0.4-0.8,0.8c-0.1,0.4-0.2,0-0.3,0
	s0-0.4,0-0.7c0-0.3-0.8,0.2-1,0c0.2-0.3,1-0.5,1.3-0.2c0.3,0.3,0,0,0-0.2L46.1,34.1z M50.3,50.4c0,0,0.1,0,0.2-0.2
	c0.4,0.3,0.2,0.9,0.1,1.4h-0.2c-0.2-0.2,0-0.8,0.1-0.9C50.7,50.5,50.4,50.6,50.3,50.4L50.3,50.4z M48.8,52.4
	c0.4-0.2,0.8-0.5,1.1-0.9h0.5c0,0.1,0,0.2,0,0.3c-0.7,0.2-0.7,1-1.6,0.9c0-0.2,0-0.3,0-0.5V52.4z M49,36.8c0,0,0,0,0.2,0
	C49.3,36.8,49.1,36.8,49,36.8z M46.6,40.3c0-0.5,0-1.2-0.4-1.2c0,0.6,0,1.3,0.2,1.6c0,0.5,0,0.9,0.2,1.4c0,0,0,0.4,0.2,0.4
	s0-0.6,0.3-0.7c0.3-0.2,0,0.5,0.3,0.6s0.2-0.4,0.2-0.7c0-0.3,0.2-0.2,0.4-0.3c0-0.2,0-0.4-0.2-0.6c-0.5,0-0.1-0.7-0.5-0.7
	c-0.3-0.1,0-0.3,0.2-0.4c0.2-0.1,0,0.9,0.3,1c0.3-0.3,0-0.9,0-1.4c0-0.4,0.2-0.3,0.1-0.5c0.2-0.1,0.4-0.3,0.4-0.5
	c0.7,0,0.4-1,0.4-1.7c-0.3,0-0.1-0.3-0.4-0.2c0,0.1,0,0.2-0.1,0.3c-0.1,0.1,0-0.2-0.1-0.3h0.2c-0.1-0.5-0.6-0.5-1.2-0.5
	c-0.2,0.5,0.1,0.7,0,1.2h-0.4c0.1,0.8,0,1.6,0,2.3c0,0.1,0.1,0.3,0.2,0.4c0,0.2,0,0.3,0,0.4c0,0.1,0.4,0.6,0,0.9
	c-0.1-0.3-0.3-0.6-0.3-0.9L46.6,40.3z M47.7,37.4c0,0.2-0.3,0.2-0.3,0H47.7z M48.4,32.7c0,0.2-0.5,0.3-0.7,0
	c-0.1-0.3,0.4-0.2,0.6-0.2C48.6,32.5,48.4,32.7,48.4,32.7L48.4,32.7z M47.7,33.2c0-0.4,0.6,0,0.7,0s0,0,0,0.2S47.8,33.4,47.7,33.2
	L47.7,33.2z M47.5,33.3c0,0.3-0.9,0.2-1.3,0.2C46.2,32.9,47.3,33.1,47.5,33.3L47.5,33.3z M48.6,48.9c0,0.3-0.5,0-0.5-0.2
	S48.4,48.9,48.6,48.9z M47.5,32.7c0,0,0,0,0,0.2S47.5,32.7,47.5,32.7z M46.1,38c0,0,0,0,0,0.2c0,0-0.1,0,0,0.2
	c0.1,0.2-0.1-0.2-0.2-0.3c0-0.1,0,0,0,0L46.1,38z M45.3,36.5v-0.1c0.1,0,0.2-0.2,0.4-0.1c0,0.5,0.3,0.6,0.1,1
	c-0.3-0.1-0.5-0.4-0.5-0.7L45.3,36.5z M45.8,38c0-0.2,0-0.4,0-0.6C45.8,37.4,45.9,38,45.8,38L45.8,38z M45,36.1
	c0.2,0,0.1,0.3,0.2,0.4h-0.2L45,36.1l0.2,0L45,36.1z M45.6,56.3c0,0.3,0,0.5-0.3,0.5S45.2,56.2,45.6,56.3z M43.5,34.2v0.2h-0.2v-0.2
	L43.5,34.2L43.5,34.2z M42.7,34.7h-0.3v-0.4h0.3C42.6,34.4,42.6,34.5,42.7,34.7L42.7,34.7z M42.6,60.4c0,0.2,0,0.4-0.3,0.3
	C42.3,60.6,42.4,60.5,42.6,60.4z M40.6,34.6c0.2-0.1,0.5,0,0.4,0.3h-0.4V34.6L40.6,34.6z M39.6,44.5c0.1-0.1,0.2-0.1,0.3,0
	s0.1,0.2,0.1,0.3c-0.1,0-0.2,0-0.3-0.1C39.7,44.7,39.6,44.6,39.6,44.5z M38.6,36.5h0.2c0,0.2-0.2,0.2-0.4,0.2s-0.2,0,0-0.2
	L38.6,36.5z M37.5,36.8v-0.2c0.4-0.2,0.6-0.5,1.1-0.6v0.4c-0.4,0-0.5,0.4-0.9,0.6L37.5,36.8z M37.3,38.3c0-0.5,0.3-0.5,0.6-0.7
	C38,38,37.6,38.4,37.3,38.3z M37.7,55.4c0.2,0,0.1-0.5,0.5-0.4c0,0.2,0,0.5-0.1,0.7C37.9,55.7,37.9,55.5,37.7,55.4z M36.4,42.5
	c0.1,0,0.2,0,0.3,0.3c0,0.3-0.3,0-0.3,0S36.4,42.6,36.4,42.5z M33.7,42.2c-0.1-0.5,0.1-1.1,0.6-1.4l0,0c-0.2,0.4-0.4,0.9-0.6,1.3
	L33.7,42.2z M30.8,56.3c0-0.2,0-0.3,0-0.5h0.3C31.1,56.2,31.1,56.3,30.8,56.3L30.8,56.3z M30,56.7c0-0.2,0-0.6,0.2-0.7
	s0.3,1,0.4,1.5c-0.1,0-0.3,0-0.4,0C30.2,57.2,30.2,56.8,30,56.7L30,56.7z M28.9,58.8v-0.1H29v0.2L28.9,58.8z M24.6,39.6
	c0,0.2,0,0.3-0.3,0.3s0-0.2,0-0.3H24.6L24.6,39.6z M23.4,51.2c-0.2-0.5,0.3-0.8,0.3-1.3h0.1c0,0.6-0.3,0.8-0.3,1.3h-0.3L23.4,51.2z
	 M21.3,60c0.5-0.2,0.8,0.5,1.3,0.5c0.1,0.4,0.5,0.5,0.5,0.9H23C22.3,61.1,21.8,60.6,21.3,60L21.3,60z M22.2,59.2c0-0.1,0-0.2,0-0.2
	c0.1-0.1,0.1-0.1,0.2-0.1v0.4L22.2,59.2L22.2,59.2z M21.9,58.6v-0.2V58.6z M20.5,56.1c-0.4,0-0.4,0.4-0.8,0.4
	c0.2-0.4,0.2-0.8,0.8-0.8C20.4,55.9,20.4,56,20.5,56.1L20.5,56.1z M18.3,52.2c-0.6,0.1-1.2,0.4-1.6,0.9c-0.4,0-0.8-0.2-1.1-0.4
	c0-0.1,0-0.2,0-0.3c0.3-0.1,0.6-0.2,0.8-0.3c0-0.3-0.3,0-0.3-0.2c0.3-0.2,0.6-0.4,1-0.4c0.3-0.2,0.7-0.2,1.1-0.2
	c0,0.1,0.2,0,0.2,0.2H19c0-0.2,0.3-0.2,0.2-0.4h0.2l0,0c0,0,0.5,0,0.6,0.2v0.2c-0.2,0-0.5,0-0.5,0.4C19.1,51.8,18.6,51.9,18.3,52.2
	L18.3,52.2z M18.7,50.4c0-0.2,0.3-0.2,0.5-0.2s0.2,0.5,0.2,0.8c-0.3,0-0.6-0.1-0.8-0.3c0-0.2,0.2-0.2,0.3-0.2L18.7,50.4z M16.7,59.1
	c-0.1-0.2-0.1-0.3,0-0.5c0.7-0.2,1.4-0.2,2,0c0.2,0,0-0.2,0.3,0c0.3,0.2,0.1,0.2,0,0.5c-0.4,0-1,0.2-1.3,0c-0.3,0.2-0.7,0.2-1,0.2
	V59.1z M17.7,43.4c0,0,0-0.2,0-0.2h0.2l0,0L17.7,43.4z M17.9,42.2c0,0.2-0.3,0-0.4,0.2c0-0.3,0.4-0.2,0.5,0L17.9,42.2z M17.2,42.7
	c0-0.2,0-0.2,0.2-0.2C17.4,42.6,17.2,42.6,17.2,42.7L17.2,42.7z M17.8,53.8c-0.2,0,0-0.2-0.3,0s0.1,0,0.1-0.2s0.3,0,0.3,0
	S17.8,53.7,17.8,53.8L17.8,53.8z M17,47c0,0,0-0.2,0-0.4s0.3,0,0.5,0C17.4,46.9,17.2,47,17,47z M16.6,57.1c-0.2,0-0.2-0.4-0.6-0.3
	c0-0.4,0-0.8,0-1.3c-0.2,0-0.4,0-0.5-0.4c0-0.4,0.4-0.3,0.6-0.4c0.2-0.1,0.1-0.3,0.3-0.4c0.2-0.1-0.2,0.5,0,0.8c0.2,0.3,0.2,0,0.3,0
	c0,0.4-0.2,0.5-0.3,0.8c-0.1,0.3,0.7,0.7,0.3,1.1L16.6,57.1z M15.6,57.4c0.2,0,0.5,0.3,0.3,0.6C15.7,58.3,15.6,57.7,15.6,57.4z
	 M15.4,57.2c0,0,0-0.2,0-0.2c0-0.1,0.3,0,0.2,0.2h-0.4L15.4,57.2z M15,56.5c-0.1,0-0.2-0.2-0.2-0.4c0.1,0,0.2,0,0.2,0v0.6V56.5z
	 M13.9,52.8c0-0.4-0.3-0.3-0.2-0.7c0.4,0,0.5-0.3,0.9-0.2c0,0.1,0,0.4,0,0.3C14.6,52.5,14.4,52.9,13.9,52.8z M12.1,52
	c0.1,0.1,0.2,0.1,0.3,0.2c0,0.2,0,0.2,0,0.5S12.1,52.3,12.1,52z M10,50.4c-0.1,0.1-0.3,0.1-0.5,0c0,0,0.2-0.3,0.2-0.4
	s0.3,0.2,0.3,0.5V50.4z M3.7,50.5c0.2,0,0.2,0,0.4,0c0.1,0.1,0.1,0.2,0,0.3C4.1,50.7,3.8,50.7,3.7,50.5L3.7,50.5z M18,43.8
	c0,0.2,0,0.2,0,0.4h-0.3C17.7,44,17.7,43.8,18,43.8z M18.6,44.2c0.2,0,0.1,0.2,0.1,0.3h-0.3C18.4,44.4,18.4,44.3,18.6,44.2
	L18.6,44.2z M19.6,44.5c0,0.1,0,0.2,0,0.2h-0.2C19.4,44.7,19.4,44.4,19.6,44.5L19.6,44.5z M19.9,42.8L19.9,42.8L19.9,42.8z
	 M31.7,42.4c0-0.2,0-0.2,0-0.2S31.7,42.1,31.7,42.4L31.7,42.4L31.7,42.4z M43.3,41.7v-0.2h0.1v0.2H43.3z M43.2,41.1
	c0-0.3-0.3-0.4-0.2-0.8c0.2,0.2,0.3,0.5,0.5,0.6C43.7,41,43.3,41.1,43.2,41.1z M57.2,41.5v0.2H57v-0.2L57.2,41.5L57.2,41.5z
	 M61.4,43.6c0,0,0-0.1,0-0.2h0.1v0.2H61.4z M38.2,35.5v0.2H38C38,35.4,38,35.4,38.2,35.5L38.2,35.5z M39.6,34.5
	c0-0.3,0.2-0.3,0.4-0.3C40.2,34.3,39.9,34.5,39.6,34.5z M48.6,31.8c0,0.2-0.2,0.2-0.2,0H48.6z M50.2,31.8V32H50v-0.2L50.2,31.8
	L50.2,31.8z M57.5,35.3c0,0,0,0.2,0.2,0c0,0,0,0.1,0,0.2h-0.3c0-0.2,0.1,0,0-0.3L57.5,35.3z M58.4,36L58.4,36c0,0-0.4,0-0.8,0
	c-0.3,0,0,0,0-0.3s0.3-0.2,0.7-0.2s0,0.3,0.2,0.3L58.4,36z M59.5,36.8c0.2,0,0.1,0,0.2,0C59.7,36.8,59.4,36.8,59.5,36.8z M60.3,37.5
	c0,0.1,0,0.2,0,0.2c-0.2,0-0.5,0-0.5-0.4S60,37.6,60.3,37.5L60.3,37.5z M62,41.3c-0.1,0-0.3-0.1-0.3-0.3C61.8,40.8,62,41.2,62,41.3z
	 M62,39.6c0,0.2,0.2,0.4,0,0.5C61.9,40.3,61.8,39.6,62,39.6z M62.6,40.6c0,0.3,0.2,0.3,0.2,0.6c0,0.3-0.4-0.3-0.4-0.6H62.6z
	 M19.4,53.3c0,0.2-0.2,0.5-0.6,0.4c-0.4-0.1,0.3-0.2,0.4-0.4S19.2,53.4,19.4,53.3L19.4,53.3z M27.1,54.9v0.2h-0.4
	c0-0.2,0-0.3,0.2-0.3L27.1,54.9z M33,49c0,0.5,0,0.6,0,1c-0.5,0-1-0.3-0.8-0.8C32.5,49.2,32.5,49,33,49L33,49z M33.6,50
	c0-0.8,0-1.6,0.8-1.6c0-0.2,0-0.4,0-0.6c0.5,0,0.7-0.5,0.9-0.8h0.4l0,0c0.2,0,0.3,0,0.5,0c0.4,0.2,1.2,0,1.6,0.4
	c-0.1,0.6-0.9-0.3-1.2,0.3c-0.3,0-0.3-0.2-0.6,0c0-0.2-0.2-0.2-0.2-0.3c-0.2,0.1-0.4,0.2-0.6,0.2c0,0.3,0,0.6,0,0.9
	c0.2,0,0.4-0.3,0.7-0.3c0.3,0,0.3,0.3,0.4,0.3c-0.1,0.3-0.4,0.5-0.7,0.4c0-0.1-0.1-0.2-0.2-0.3c-0.1,0,0,0.4-0.2,0.5
	c-0.2,0.1,0.2,0.4,0.3,0.6c0,0.2-0.1,0.3-0.2,0.5c0,0-0.1,0-0.2,0c0,0,0,0.2,0,0.3c0,0.1,0,0,0,0.2V51c0.1,0.2,0.3,0.3,0.4,0.6
	s0.6,0,0.8,0.3c0.2,0.3,0.9,0,1-0.2c0.2-0.2,0.4,0,0.5,0c0,0-0.2,0.2-0.1,0.4c-0.5,0.1-1,0.2-1.4,0.5c-0.2,0-0.4,0-0.5,0
	c-0.2,0.1-0.4,0.1-0.5,0c-0.1,0.2,0,0.5,0,0.8c0,0.3-0.4,0.3-0.3,0.7c0,0.4-0.3,0.5-0.5,0.7c-0.2-0.3-0.4-0.7-0.4-1.1
	c-0.2,0-0.2-0.5-0.2-0.8s-0.2,0,0-0.3c0.4,0.2,0.9,0.3,1.3,0.3c0-0.4-0.5-0.4-0.9-0.5c-0.1-0.1-0.2-0.3-0.3-0.3v-0.2
	c-0.4-0.2-0.4-0.8-0.4-1.4c0,0,0-0.2,0.1-0.2c0.1-0.1,0,0-0.2,0H33.6z M39.9,55.4C39.9,55.4,39.8,55.4,39.9,55.4
	c-0.4-0.2-0.8-0.2-1.1,0c-0.2,0-0.4,0.4-0.8,0.4c-0.3-0.1,0,0,0,0s-0.8,0.2-1,0c-0.2-0.2-0.9,0-1.2-0.3s0-0.3-0.2-0.3
	c0.2-0.5,1.2-0.2,1.6,0s0.4-0.5,0.9-0.5c0-0.2,0.1-0.5,0.2-0.7c0.6,0,0.7-0.5,1.4-0.4c0.2-0.2,0.3-0.4,0.8-0.4
	c0.2-0.1,0.4-0.2,0.6-0.2c0,0.2,0.2,0.2,0.2,0.3c0.2-0.1,0.3-0.1,0.5-0.2c0.1-0.1,0.1-0.3,0-0.5c0.2,0,0.6-0.2,0.7-0.4
	c-0.4-0.8-1.5,0.2-2-0.3h-0.2c0,0,0.1-0.3,0.2,0c0.2-0.3,0.9-0.2,1.1-0.5c0.6,0,1-0.4,1.6-0.3c0,0.2,0,0.4,0.2,0.5
	c-0.4,0.1-0.2,0.7-0.1,0.9s-0.3,0.3-0.4,0.3c-0.3,0.3-0.7,0.5-1.1,0.7c0,0-0.3,0.2-0.3,0.4c-0.3,0-0.5,0.2-0.6,0.4
	C40.1,54.5,39.8,54.8,39.9,55.4L39.9,55.4z M41.2,57.9c0-0.3,0-0.6,0-1c-0.3-0.3-0.4-0.8-0.4-1.2c0.7,0,0.8-0.6,0.7-1.2
	c0.2,0,0.4-0.1,0.6-0.3c0.3,0.1,0.6,0.1,0.9,0c0.2,0.2,0.3,0.5,0.3,0.9c0.5,0,0.7-0.4,1.1-0.2c0,0,0,0.1,0,0.2
	c-0.4,0.4-0.3,1.1-0.9,1.2c-0.2,0.5-0.5,0.9-0.9,1.2c-0.3-0.2-0.7,0-1.1,0C41.4,57.6,41.2,57.6,41.2,57.9L41.2,57.9z M43.4,51h-0.2
	v-0.2h0.2V51L43.4,51z M40.8,53c0-0.2,0.2,0,0.3,0c0,0.1,0,0.1,0,0.2h-0.3L40.8,53z M39.5,51.8c0,0.2,0,0.2,0,0.3h-0.3v-0.5
	c0.1-0.1,0.3-0.1,0.4,0L39.5,51.8z M37.8,53.9c0,0.2,0,0.2-0.2,0.2v-0.2L37.8,53.9L37.8,53.9z M37,56.5c0,0.7-0.4,1-0.7,1.4
	c-0.4,0-0.6-0.5-0.8-0.8l-0.2-0.3c0,0-0.1-0.4-0.3-0.5c0.2-0.1,0.4-0.1,0.6,0v0.1c0,0,0.4,0,0.4,0.2C36.4,56.4,36.7,56.4,37,56.5z
	 M35.1,44.4c0,0.2,0,0.2,0,0.4s0.3,0.4,0.3,0.8c0.2,0.2,0.3,0.5,0.3,0.7c-0.5-0.1-1.1,0-1.1,0.5c-0.1-0.2-0.4,0-0.5,0
	c-0.1-1.1,0.2-2.2,0.8-3.2c0.2,0,0,0.3,0.1,0.4C35,44.1,35.1,44.3,35.1,44.4L35.1,44.4z M40.2,39.9c-0.1,0,0,0-0.2,0.2h-1
	c0,0.2,0,0.5-0.3,0.6c0,0.6,0.4,1.2,0.9,1.4c0,0.4,0.2,0.4,0.3,0.6c-0.4,0-0.6-0.4-0.9-0.4c-0.2-0.5-0.7-0.6-1.1-0.9
	c-0.1-0.4-0.3-0.7-0.5-1c0-0.2,0-0.4,0-0.5c0-0.1,0.2-0.8,0.5-1.2s0.4,0,0.6,0c0.1,0,1-0.2,0.8-0.8c0.2,0,0.4,0.3,0.7,0
	c0.2-0.3-0.2-0.2-0.1-0.5s0.3-0.2,0.4-0.2c0.2-0.1,0.4,0,0.5,0.2c0.1,0.2,0,0,0,0.1c0.2,0.1,0.4,0.3,0.3,0.5c-0.3,0.1-0.7,0.2-1,0.4
	C40.2,38.9,40.2,39.4,40.2,39.9L40.2,39.9z M43.6,46.1c-0.1,0.7,0.3,0.7,0.7,0.9c0,0.3-0.3,0-0.5,0c-0.2,0,0,0.4,0,0.3
	c-0.5-0.3-0.9,0.3-1.7,0c0-0.2-0.2,0-0.2-0.3c-0.8,0-1.3-0.3-2,0c-0.2-0.1-0.2-0.4-0.6-0.3s0,0.5-0.4,0.5c0.2,0.4,0.8,0.3,1.1,0.5
	c0.3,0.2,0.5,0,0.6,0.2c0.4,0,0.8,0.1,1.1,0.3c0.3,0,0.6,0,0.8,0s0.4,0.2,0.6,0.2s0,0.2,0,0.4c0,0.2,0.6,0,0.7,0.4h-0.4
	c0,0,0.2,0,0.2,0.1c0,0.1,0,0.2-0.2,0.3v0.7c-0.4,0.1-0.7,0.4-0.7,0.8c-0.7-0.1-2-0.5-2.6,0c-0.6,0.5-1.8-0.4-2.2,0.3
	c-0.1-0.2-0.3-0.3-0.5-0.4c-0.1,0,0-0.2,0-0.3s-0.2-0.3-0.2-0.6c0.7,0,1.2,0,1.9,0c0.2,0,0.2-0.4,0.3-0.7C39.3,49.1,39.2,49,39,49
	c0-0.4-0.4-1.2,0-1.5c-0.2-0.2-0.2-0.4-0.1-0.6c-0.2,0.1-0.4,0.2-0.5,0.3c-0.2,0,0-0.2-0.3-0.2c-0.3,0.1,0.2,0,0-0.3
	c-0.2-0.3-1.1-0.2-1.7-0.4c-0.5-0.2-0.7-0.7-0.7-1.4c-0.3-0.2-0.2-0.8-0.2-1.2c0.7,0,0.5,0.7,1,0.8c0.5,0.1,0.4-0.3,0.7-0.3v0.6
	c0,0.2,0.3,0,0.2,0.2h0.8c0.6,0.2,1.1,0.6,1.5,1c0.2,0,0.5,0,0.7,0c0.1,0.4,0.8,0.2,1.1,0.4c0.2-0.4-0.4-0.8-0.9-0.8
	c0-0.3-0.4-0.3-0.4-0.6c-0.6,0-0.8-0.3-1.3-0.3c0-0.2,0-0.2,0-0.3c-0.2,0-0.3,0-0.5,0c-0.4-0.3-0.6-0.8-1.3-0.7
	c0-0.2-0.2-0.2-0.2-0.3h-0.4c-0.2-0.2-0.3-0.5-0.2-0.8c0.8-0.2,1,0.5,1.7,0.3c0,0.2,0.3,0,0.3,0.3c0,0.3-0.3,0.3-0.7,0.3
	c0.2,0.4,0.6,0.5,1,0.6c0,0-0.1,0,0-0.3h0.4c0,0.3,0.2,0.4,0.5,0.3c0-0.1,0.3,0,0.4,0c0.1,0-0.1,0.2-0.2,0.2c0,0.4,0.7,0.3,0.9,0.5
	c0.2,0.3,0,0.3-0.1,0.4c-0.1,0.1,0.2,0.2,0.4,0.3c0.1,0.1,0.3-0.2,0.4-0.4c0.1,0.2,0.5,0.2,0.8,0.2c0.3,0.8,1,1,1.7,1.3L43.6,46.1z
	 M44.8,47.8c0,0,0,0.2,0.1,0.2c0,0.1-0.2,0.2-0.3,0.2s-0.3-0.1-0.3-0.2c0.2,0,0.3,0,0.5,0V47.8z M44.6,52.1c0,0-0.3-0.4,0-0.3
	C44.6,51.9,44.6,52,44.6,52.1z M45.6,48.5c0,0.3-0.2,0.3-0.1,0.7c0.1,0.4-0.2,0-0.3-0.2C45.1,48.8,45.4,48.6,45.6,48.5z M46.3,47.6
	c0-0.2,0.1-0.3,0.3-0.3S46.4,47.5,46.3,47.6z M51.1,49.9c0.4,0.4,0.1,0.7,0.2,1.2c-0.5,0-0.6,0.6-0.6,1.1c-0.2,0-0.2-0.2-0.4,0
	s-0.2,0.2-0.1,0.5c-0.3,0.5-1.2,0.4-1.6,0.8s-0.2,0-0.3,0s-0.7,0-1.1,0c-0.4,0-0.4-0.2-0.6-0.3c-0.2-0.1,0,0,0,0s-0.3-0.5-0.6-0.6
	s0,0,0-0.2c0-0.2-0.1-0.2-0.3-0.2c0-0.2,0-0.4,0-0.6c-0.1,0-0.1-0.2-0.3-0.2c0-0.6-0.2-1.3,0.2-1.5c0,0.4,0.2,0.8,0.4,1.1
	c0-0.2,0.2,0,0.3-0.3c0.1-0.3-0.1-0.2-0.1-0.3c0-0.2,0.4-0.5,0.4-0.9c0.5,0,1-0.1,1.5-0.4c0.1,0,0.2,0.2,0.3,0.3s0.5,0,0.9,0
	c0,0.4,0.4,0.5,0.4,0.9h0.4c0.2,0,0.2-0.4,0.3-0.5c0.1-0.1,0.3,0.5,0.4,0.8H51c0.1-0.3,0.1-0.5,0-0.8c0.4,0,0.2,0.5,0.2,0.7
	L51.1,49.9z M45.9,54.9c0,0-0.1,0-0.1,0.2c0,0.2,0,0,0-0.2H45.9L45.9,54.9z M46.4,54c0,0.2-0.1,0.2,0,0.4c0.1,0.2-0.2,0-0.2-0.3
	L46.4,54L46.4,54z M46.5,61.5v0.3C46.3,61.7,46.2,61.4,46.5,61.5L46.5,61.5z M47.2,61.2c-0.1-0.5-0.3-0.9-0.4-1.4
	c0.3-0.3,0.3-0.8,0.6-1c0.3-0.3,0-0.2-0.2-0.3c0.2-0.3,0.2-0.7,0-1c0-0.2,0.2-0.3,0.1-0.6c0.6,0,0.2-1.2,0.4-1.5
	c0.6,0,0.5-0.6,0.4-1c0.2,0.1,0.4,0.1,0.5,0c0,0,0,0,0.1,0s0,0.4,0,0.6s0.4,0.2,0.6,0.4c0.2,0.8,0.3,1.7,0.3,2.5
	c0,0.2,0.2,0,0.1,0.2c-0.6,0.5,0,1.9-0.5,2.4c0.1,0.2,0.1,0.5,0,0.8l0,0c0.1,0.2,0.3,0.4,0.4,0.6c-0.2-0.1-0.4-0.3-0.4-0.6
	c0,0,0,0-0.3,0.2c0,0.1,0,0.2,0,0.3c0,0,0,0-0.2,0c-0.2,0,0,0.3,0,0.6c-0.2,0.2-0.2,0.4-0.1,0.7c0.2,0.3,0.5,0.5,0.9,0.4
	c0.3-0.1,0.6-0.3,0.7-0.7c0.2,0,0.1,0,0.3,0c0,0.8,0,1.5-0.8,1.6c0,0-0.2,0-0.2,0.3s-0.5,0-0.5,0.2c0,0.2-0.3,0-0.3,0
	c-0.1,0.1-0.3,0.2-0.4,0.2c0,0-0.2,0,0-0.2c0.2-0.2-0.2,0-0.4,0s-0.2-0.4-0.5-0.5c-0.1-0.2-0.1-0.5,0-0.7c0.4,0.2,0.8,0,1-0.4
	s0.1-0.8-0.2-1.1c0-0.8-0.2-1.7-1-1.4c0,0,0,0.3-0.2,0.4L47.2,61.2z M46.9,66h0.1H46.9z M51.1,59.4c0-0.7-0.1-1.4-0.4-2
	c0-1.3-0.8-1.7-0.7-3.1c0.3,0,0.2-0.5,0.2-0.6c0-0.1,0.2,0.4,0.4,0.4c0-0.3-0.2-0.3-0.3-0.6c0.5-0.2,0.7,0.4,1.4,0.2
	c0,0,0.2,0,0.2,0.2c0.1,0,0.3-0.2,0.3-0.3c0.3,0.1,0.5,0.1,0.8,0c0.3,0.2,0.5,0.5,0.8,0.6c0.4,0.5,0.8,0.9,1.3,1.2
	c0,0.9,0.8,0.6,0.8,1.4c-0.2,0-0.2,0.2-0.5,0c0,0.4,0.3,0.4,0.4,0.6s-1,0-1,0.6c-0.2,0.1-0.4,0.1-0.6,0c-0.2-0.1-0.2-0.3-0.5-0.5
	s-0.3-0.2-0.4-0.4c0-0.2,0,0-0.1,0c-0.1,0-0.1-0.6-0.4-0.7c0-0.6-0.3-0.7-0.6-0.9s0,0.4,0,0.6c0,0.2-0.3,0.4-0.2,0.9
	c0.3,0.4,0.6,0.8,0.7,1.3c-0.2-0.1-0.4-0.2-0.7-0.2c-0.1,0.5,0.1,0.9,0.5,1.2c-0.1,0.3-0.1,0.6,0,1c0,0,0.3,0.2,0.3,0.4
	c0,0.2-0.2-0.2-0.4-0.2c-0.2,0.4,0,0.8,0.3,1.1c0,0,0,0.4,0.1,0.4c0.1-0.1-0.2,0.2,0,0.4c0.2,0.3,0.5,0.6,0.9,0.8
	c0.4,0.2-0.4,0.5-0.4,0.7c-0.3-0.1-0.5-0.3-0.7-0.5c-0.2,0-0.1,0.3-0.3,0.3c0,0.2,0,0.4,0,0.6c-0.3,0.2-0.6,0.3-0.9,0.2
	c0-0.2,0-0.4,0.1-0.3c0-0.4,0-0.5,0-0.9c0.4,0,0.5,0.2,1,0.2c0-0.4-0.3-0.3-0.1-0.6c-0.3-0.1-0.5-0.3-0.7-0.5
	C51.6,61.3,51.8,60,51.1,59.4L51.1,59.4z M53.3,57.6c0,0.5,0.4,0.6,0.2,0.9c-0.2-0.2-0.3-0.5-0.3-0.8l0,0c0,0,0.2,0,0.3,0L53.3,57.6
	z M53.4,61c0,0,0.1-0.1,0.3-0.1S53.7,61.1,53.4,61l0,0.2c-0.2,0-0.1,0-0.3,0V61C53.4,61,53.3,61,53.4,61L53.4,61z M55.9,62.2
	c0,0.2-0.2,0-0.1,0.3c-0.6,0-0.8,0.7-1.4,0.7c-0.1-0.5,0.2-1,0.6-1.3C55.1,62.2,55.6,62,55.9,62.2z M54.6,60.4
	c-0.1,0-0.2-0.3-0.3-0.3c0-0.6-0.6-0.5-0.5-1.1c0.2,0,0.4,0.4,0.5,0.6c0.1,0.2,0,0,0.2,0c0.2,0,0,0.3,0.2,0.4
	c0.3,0.4,0.8,0.6,1.2,0.5c0.6-0.4,0.9-1,1.1-1.7c0.5,0.2,1.2,0.1,1.5-0.4c0-0.2-0.2-0.2-0.1-0.5c0-0.3,0.2,0.3,0.2,0.5
	c-0.1,0.3,0,0.7-0.3,0.9c-0.3,0.2,0.2,0.3,0.2,0.5c0,0.2-0.6,0.6-0.6,1.2c-0.4,0-0.5,0.3-0.6,0.6c-0.4,0.1-0.9,0.2-1.3,0.2
	c-0.5,0-0.8-0.6-1.1-0.8C54.7,60.9,54.7,60.7,54.6,60.4L54.6,60.4z M50.6,61.6c0,0.1,0,0.2,0,0.3c-0.1,0-0.2,0-0.3,0v-0.4L50.6,61.6
	L50.6,61.6z M50.7,65.2H51C51,65.4,50.7,65.4,50.7,65.2z M50.9,65.7c0.2,0,0,0.2,0.3,0c0.3-0.2-0.5,0.3-0.7,0
	c-0.1-0.3-0.7,0.3-0.8,0c0.4,0,0.9,0,1.2-0.2V65.7z M50,65.1c0,0.2-0.5,0.3-0.6,0.1C49.2,65.1,49.8,65.2,50,65.1z M57.4,51.6v0.2
	c-0.1,0-0.3,0-0.3-0.2H57.4z M57.4,53.2c0.1,0.1,0.3,0.2,0.5,0.2c0,0-0.4,0-0.4,0c-0.4-0.2-0.8-0.3-1.2-0.4c0-0.2,0.3-0.2,0.4-0.4
	c0.1-0.2-0.3,0-0.3-0.2c0.1-0.2,0.3-0.3,0.5-0.3c0,0.1,0,0.2,0,0.3c0.2,0,0.4,0,0.5,0c0.1,0-0.2,0-0.2,0.4
	C57.2,53.2,57.4,53,57.4,53.2L57.4,53.2z M60.1,48.8v0.2h-0.2v-0.2L60.1,48.8L60.1,48.8z M63.1,51.2c0.4,0.4,0,1.1-0.1,1.4
	c-0.3-0.2,0-0.5,0-0.8s0,0,0.2,0c0.2,0,0-0.4,0-0.6L63.1,51.2z M63.4,42.1c0.2,0,0.3,0.3,0.3,0.6c0,0.3-0.1-0.3-0.4-0.2
	c0.2,0.4,0.3,0.9,0.4,1.3c-0.4-0.3-0.5-0.9-0.7-1.5C63.3,42.2,63.4,42.1,63.4,42.1L63.4,42.1z M64.2,45.2c0,0.2-0.1,0.2-0.3,0.2
	c-0.1,0,0-0.4,0-0.3s-0.4-0.4-0.4-0.9c0.3,0,0.3,0.5,0.4,0.9C64.1,45.6,64,45.2,64.2,45.2L64.2,45.2z M64.5,45.2
	c0.2,0.1,0.4,0.3,0.4,0.6C64.6,45.6,64.5,45.5,64.5,45.2z M65,50.4c0,0.4-0.2-0.3,0-0.3C65.2,50.2,65,50.4,65,50.4z M65,48.1
	c-0.8,0-0.2,1.4-0.5,1.9c-0.2-0.1-0.2-0.2,0-0.4c0.2-0.2-0.3,0-0.4,0c0-0.2,0-0.4,0-0.6c0.2,0,0.2,0,0.3,0c0.1-0.1,0.2-0.3,0.2-0.5
	c0-0.2-0.1-0.4-0.2-0.5c0-0.7,0-1.5,0-2.2c0,0.2,0.4,0.2,0.7,0.2c0.2,0.7,0.3,1.4,0.2,2.1H65z M64.6,50.4c0,0.2-0.1,0,0,0.3
	S64.6,50.3,64.6,50.4z M64,51.9L64,51.9c0,0.2,0,0.2-0.2,0.2L64,51.9l0-0.5c0.1,0,0.1,0,0.2,0.2h0.2c0.2-0.2,0.3-0.5,0.4-0.8
	c0.2,0,0.1,0.7,0,0.8c0.1,0.4,0,0.9-0.3,1.2c0-0.4,0.2-0.5,0-0.7c0.2,0,0-0.4,0-0.4L64,51.9z M64,54.1c0.1,0.3-0.1,0.6-0.3,0.7
	c-0.1-0.2-0.1-0.4,0-0.6C63.8,54.2,63.8,54.2,64,54.1L64,54.1z M63.3,56.1c0,0,0,0.4-0.3,0.4S63.1,56.2,63.3,56.1L63.3,56.1
	c0,0,0.1-0.2,0.2-0.5v0.1c-0.2,0-0.1,0.2-0.3,0.3L63.3,56.1L63.3,56.1z M62.1,57.9c0.3,0,0.4-0.5,0.6-0.7l0,0c0,0.7-0.3,0.9-0.6,1.2
	L62.1,57.9z M62.1,55.8c-0.1,0,0-0.3-0.2-0.3c0.2-0.4,0.2-1,0.6-1.2c0-0.4,0-0.8,0.3-0.9c0-0.1,0-0.2,0-0.3c0,0,0,0,0.2,0l0,0
	c0,1-0.6,1.5-0.7,2.3L62.1,55.8z M62.1,56.2c-0.4,0-0.2,0.4-0.5,0.4c0-0.4,0.3-0.6,0.5-0.9C62.2,55.4,62,56.1,62.1,56.2L62.1,56.2z
	 M61.6,53.9c-0.2-0.2-0.4-0.4-0.6-0.7c-0.2,0-0.2,0-0.4,0c0-0.4,0-0.5-0.2-0.7c0.7,0,1.1-0.3,1.7-0.2c0,0.4,0.2,0.5,0.2,0.9
	c-0.4,0-0.4,0.6-0.5,1C61.7,54.3,61.6,54.3,61.6,53.9L61.6,53.9z M60.7,58.6c-0.1,0,0-0.2,0-0.2C60.7,58.5,60.6,58.4,60.7,58.6z
	 M60.3,61.1c0,0,0-0.5,0.3-0.5c0.3,0,0,0.2,0,0.4S60.3,60.9,60.3,61.1L60.3,61.1z M60.1,59.5c-0.1,0.3-0.3,0.4-0.5,0.5
	c0-0.2,0.1-0.4,0.2-0.5L60.1,59.5L60.1,59.5z M59.8,58.3c-0.4-0.5-0.8-1.1-1.2-1.6c-0.2-0.1-0.4-0.2-0.6-0.2c0-0.2,0.2,0,0-0.3
	c-0.6-0.4-1.2-0.8-1.8-1.1V55c-0.4,0-0.5-0.6-1-0.6c-0.1-0.3-0.3-0.5-0.6-0.6c0-0.2-0.2-0.4-0.5-0.3c-0.3,0.1,0-0.2,0-0.4
	c-0.4-0.2-0.8-0.4-1.2-0.8c-0.5,0-0.5-0.3-0.9-0.3c0-0.3-0.1-0.5-0.4-0.5c0.1-0.2,0.2-0.4,0.2-0.6c0.7,0,1,0.3,1.7,0.2
	c0.2,0.3,0.7,0.3,0.9,0.6c0.2,0.3,0.6,0,0.7,0c0.3,0.2,0.8,0.2,0.9,0.6c0.1,0.4,0-0.2-0.3,0s0,0-0.1,0.2s0.3,0,0.2,0.5l-0.7-0.3
	c-0.2,0,0,0.2-0.3,0c0,0.3,0,0.5-0.1,0.7c-0.1,0.1,0.2,0,0.2,0.3c0.8-0.3,1.2,0.2,1.8,0.3c0,0.2,0.1,0.2,0.2,0.4h0.5
	c0.3,0,0.5,0.3,0.8,0.3s0.6,0.4,0.8,0.6c0.7,0,0.8,0.6,1.5,0.5c0,0.2,0.5,0,0.7,0.3v-0.1c-0.4,0.3-1.2-0.2-1.4,0.2
	c-0.2,0.4-0.9,0-1.4,0c0,0.2,0.2,0.2,0.1,0.4c0,0,0.5-0.2,0.6,0c0.6-0.2,1.3-0.2,1.9-0.2c0,0.3-0.2,0.5-0.2,0.7
	c0,0.3,0.3,0.3,0.5,0.3c0.2,0,0,0.3,0.2,0.3c0.2,0.1-0.2,0.2-0.3,0.3c0,0.2-0.2-0.4-0.3-0.6c-0.5,0-0.7,0.3-0.6,0.8
	c-0.3,0-0.3,0-0.6,0L59.8,58.3z M52.7,66.6c-0.3,0.3-0.6,0.4-1,0.4c0-0.3,0.5-0.2,0.7-0.4c-0.1-0.3,0-0.6,0.2-0.8c0,0,0-0.3,0-0.4
	c-0.4,0-0.4,0.7-0.8,0.3c-0.3-0.4,0.2,0,0.3-0.1s0-0.2,0-0.3c-0.4,0-0.5,0.2-0.8,0.2c0-0.2,0.4-0.2,0.6-0.2c0.2,0,0.6-0.3,0.8-0.5
	c0.7,0,1.3,0,1.4-0.6c0.1,0,0.4,0,0.4,0c0.4,0,0.4-0.4,0.6-0.6c0.2-0.2,0.2,0,0.2,0c0.2,0,0.5,0,0.7,0c0.3-0.4,0.7-0.6,1.2-0.7
	c0,0,0-0.2,0.2,0c0.2,0.2,0-0.3,0-0.5c0.4,0,0.7-0.2,0.8-0.6s0.6-0.1,0.8-0.4c0.1-0.3,0,0.2,0,0.3c-0.4,0-0.4,0.6-0.7,0.8
	c0.4,0,0.5-0.4,0.7-0.6c-0.1,0.4-0.4,0.7-0.8,0.8v-0.3c-0.4,0-0.5,0.3-0.8,0.4c0,0.2,0,0.3,0,0.5c0.2,0,0-0.2,0.2,0
	c0.1,0,0.1,0,0.2,0.1c0,0.1,0.1,0.1,0.1,0.2c0,0,0.3,0,0.3,0.2c0,0.2,0.4-0.5,0.8-0.5c-0.2,0.4-0.5,0.7-0.8,0.9c0,0.4,0,0.4,0,0
	v-0.3c-0.2-0.1-0.5-0.2-0.6-0.4c-0.2,0-0.2,0.3-0.2,0.5c-0.2,0.2-0.5,0.3-0.8,0.3c0-0.2,0.2-0.1,0-0.4c-0.4,0-0.9,0.2-1.1,0.7h-0.8
	h-0.2c-0.1,0-0.3,0.2-0.2,0.4c0.1,0,0.2,0,0.3,0c0.3,0,0.3-0.4,0.7-0.3c0,0,0,0.3-0.1,0.3s0.1,0,0.1,0.2c0.6,0,1,0,1.2-0.5
	c0.1-0.5,0.5,0,0.5-0.4s0.4,0,0.5,0c0.1,0-0.2,0.3-0.2,0.5c-0.5,0-0.7,0.4-1.2,0.4c-0.3,0.2-0.5,0.5-0.6,0.8c-0.2,0-0.2-0.3-0.2-0.5
	h-0.2c-0.2,0,0,0.3,0,0.5c0,0.2-0.6-0.4-0.9,0c-0.2,0.4,0-0.3-0.2-0.2c0.2-0.3,0.6-0.4,1-0.5c0.4-0.1,0-0.3-0.2-0.4
	c-0.3,0.1-0.7,0.2-1.1,0.3c0-0.3,0.3-0.2,0.4-0.5c-0.5,0.1-0.9,0.3-1.2,0.6c0.1,0,0.2,0,0.3,0c0,0.2-0.3,0.2-0.3,0.4h0.8
	c0,0.5-0.7,0.3-0.8,0.6c-0.1,0.4,0,0.3,0.1,0.2L52.7,66.6z M51.2,67c0,0.2-0.3,0.2-0.3,0H51.2z M48.6,67.2c-0.2,0.1-0.4,0.1-0.6,0
	C48,66.9,48.4,67.2,48.6,67.2z M47.4,67.2c0-0.4-0.5-0.2-0.5-0.4c0.3,0,0.5-0.2,0.9-0.2c0-0.3-0.2-0.3-0.3-0.4
	c-0.1-0.1,0.4,0,0.5-0.2c0.1-0.2,0,0,0-0.2c0-0.2-0.2,0-0.2-0.3c-0.1,0.1-0.2,0.2-0.4,0.2c0-0.2-0.2,0-0.1-0.4s0.5,0.1,1,0.1
	c0,0.2-0.2,0.3,0,0.4c0.2,0.1,0.4,0,0.6,0c0.2,0,0,0,0.1,0s-1,0-1.2,0.3c0.5,0.5,1.6,0,2.4,0.2c0.2-0.2,0.6-0.2,0.8-0.4
	c0.3,0.3,0.5,0,0.8,0c0,0.6-0.9,0.3-1.1,0.7c-0.4-0.2-0.9-0.2-1.3,0h-1.6c-0.2,0-0.3,0.3-0.6,0.2L47.4,67.2z M46.8,63.5
	c-0.2,0,0,0.2-0.2,0.2s-0.2-0.5-0.5-0.6c-0.2-0.1-0.1-0.7,0.1-0.8c0.2-0.1,0-0.6,0.1-0.6c0,0.4,0,0.9,0.4,1.1
	C46.8,63,46.8,63.3,46.8,63.5L46.8,63.5z M45.6,62.6c0,0.5,0.1,1,0.3,1.4c0,0,0.2,0,0.3,0c-0.2,0.4-0.9,0-1.3,0c0,0.2,0.3,0,0.2,0.3
	c0,0.3-0.2,0.2-0.3,0.2c-0.1,0.1,0-0.2-0.1-0.3h-0.3c0,0-0.1,0.2-0.2,0.3c0,0.1,0-0.4,0-0.6h0.2c-0.3,0-0.6,0-0.6-0.5
	c0.5,0,1-0.4,0.8-1c-0.2,0-0.3,0-0.5,0c0-0.6,0.9-0.5,1.1-0.9c0.3,0,0,0.7,0.4,0.8L45.6,62.6z M43.7,63c0.2,0.2-0.2,0.4-0.4,0.4
	C43.1,63.4,43.7,63,43.7,63z M44,65.5h0.2C44.2,65.5,44.2,65.5,44,65.5z M45.2,65.9h0.2V66h-0.2V65.9L45.2,65.9z M45.8,65.2
	c0,0.2-0.4,0.2-0.3,0H45.8z M45.8,67.1c0,0.2-0.2,0.2-0.2,0H45.8z M43.3,65.9c0,0-0.2,0-0.2,0H43.3L43.3,65.9
	C43.6,65.9,43.9,65.8,43.3,65.9l1.6,0.3c0.1,0,0.2,0,0.3,0.2c0.2,0,0.4,0,0.6,0c0.1,0,0.3,0.2,0.5,0.2v0.1c-0.4,0-0.8,0-1-0.2
	C44.6,66.6,43.9,66.4,43.3,65.9L43.3,65.9L43.1,66L43.3,65.9z M43.3,65.5c-0.5-0.3-1.2-0.3-1.5-0.8c0.4,0,0.7,0,0.7,0.3
	c0.5,0,0.6,0.3,0.9,0.3S43.4,65.3,43.3,65.5z M42.7,64.7c-0.1,0-0.3,0-0.3-0.2h0.3V64.7L42.7,64.7z M41.3,65.2c0-0.2-0.4,0-0.4-0.3
	h0.3C41.2,65,41.2,65,41.3,65.2L41.3,65.2z M40.8,62.9c0-0.3-0.2-0.4-0.2-0.7l0.7-0.7c0.2,0,0.1,0.5,0.6,0.3c0.1-0.2,0.1-0.4,0-0.6
	c0,0,0-0.2,0,0s0.1,0,0.1-0.2c0-0.2,0.1-0.4,0.1-0.6l0,0c0,0,0-0.3,0-0.4c0-0.1,0,0,0.1,0c0.1,0,0-0.2,0.1-0.2v-0.4
	c0.2-0.2,0.3-0.4,0.4-0.6c0,0,0,0,0.3,0s0-0.2,0-0.3c0.4-0.2,0.4-0.8,0.9-1c0-0.2,0-0.3,0-0.5c0.3-0.3,0.5-0.7,0.6-1.1
	c0.4,0,0.5-0.3,0.8-0.4c0.3-0.1,0,0.3,0.1,0.5s0.2-0.2,0.3-0.3s0,0.2,0.1,0.3c0.5,0.2,0.2,0.9,0,1.3c-0.2,0.4,0.2,0,0.1,0.2
	c0,0.2-0.2,0.4-0.4,0.4c-0.2,0.1,0.1,0.4,0.3,0.5c0.1,0.2,0.2,0.5,0.3,0.8h-0.3c0,0.4-0.7,0.3-0.8,0.7h-0.3
	c-0.1-0.2-0.2-0.4-0.1-0.7c0,0,0.3-0.5,0-0.6c-0.3-0.2-0.3,0.4-0.5,0.5c0,0.9-0.7,1.2-0.8,2.1h-0.6c0,0.2,0,0.3,0.2,0.4
	c0,0.6-0.4,0.7-0.4,1.2c-0.2,0-0.3,0-0.5,0c-0.1,0.1-0.2,0.2-0.3,0.2c-0.3-0.3-0.7-0.3-1.1-0.2L40.8,62.9z M39.3,63.2
	c0-0.2,0.1,0,0.3,0s0.2,0,0.2,0.3l-0.4-0.2V63.2z M39.1,63.9c0,0-0.2,0-0.2,0C39,63.9,39,63.9,39.1,63.9z M39.1,61.5
	c-0.1-0.3-0.4-0.4-0.6-0.5c-0.2-0.3-0.5-0.6-0.7-0.8c0-0.4-0.3-0.4-0.4-0.7s0.4-0.2,0.4-0.5s-0.4-0.8-0.4-1.2
	c0.1-0.4,0.2,0.4,0.2,0.5c0,0.1,0.1,0.4,0.2,0.5c0,0.1,0.4,0.3,0.7,0.6h0.6c0.1,0,0,0.4,0.3,0.4c0,0.6,0.3,0.6,0.5,0.9
	c0.2,0.3,0.7-0.3,1.2-0.2c-0.3,0.5-0.6,0.9-1.1,1.1C39.7,61.6,39.4,61.6,39.1,61.5L39.1,61.5z M28.6,50.7c0.1-0.3,0.4-0.2,0.6-0.3
	c0.2-0.1,0.3-0.3,0.5-0.4h0.4c0.1,0,0.2-0.2,0.4,0c0.5,0.2,1,0.3,1.5,0.3c0,0.3,0.3,0.3,0.4,0.3c0,0.4,0.2,0.8,0.5,1
	c0,0.2,0.1,0.5,0.2,0.7c-0.1,0.7,0,1.3,0.3,1.9c0,1,0.6,1.5,0.8,2.3c0.1,0,0,0.3,0.3,0.3c0,0.8,0.6,0.9,0.7,1.6s0.5,0.8,0.8,1.1
	c0.3,0.3-0.1,0.1-0.1,0.2v0.2c0.4,0.5,0.7,1.1,1.3,1.3c0,0.2,0.1,0.3,0.2,0.4s0.3,0.1,0.4,0.1c0,0,0,0,0-0.2s0.3,0.2,0.3,0.3
	c-0.1,0-0.2-0.1-0.3-0.2c0,0,0,0,0.1,0.6c-0.7,0-0.6-1-1.4-0.8c0,0.3,0.3,0.5,0.4,0.8c0.1,0.3,0.6,0,0.5,0.4c-0.5,0-0.8-0.8-1.2-0.6
	l0,0c0,0-0.8-0.2-0.9-0.7c-0.1,0-0.1-0.3-0.3-0.2c-0.2-0.6-0.7-0.8-0.9-1.3c-0.2,0-0.2-0.3-0.5-0.4c-0.2-0.1-0.4-0.5-0.4-0.9
	c0-0.5-0.4-0.6-0.6-0.8c0-0.2,0-0.4,0-0.6c0,0,0,0-0.1,0s-0.2-0.9-0.5-1.1c0-0.3-0.1-0.6-0.4-0.8c0-0.3,0-0.6-0.2-0.7
	c-0.2-0.1,0-0.7-0.2-0.8c0-1-0.3-1.7-0.3-2.5c0,0,0-0.2-0.2-0.2c-0.4-0.1-0.8,0-1.1,0.2c0,0.2,0,0.3,0,0.5c0,0.4,0.6,0.3,0.8,0.6
	c-0.1,0.3-0.2,0.6-0.5,0.8c-0.5,0-0.7,0-1.1,0c0-0.4-0.3-0.4-0.4-0.6c-0.1-0.4-0.1-0.7,0-1.1c0-0.2,0-0.6-0.1-0.6L28.6,50.7z
	 M31.2,39.1v0.2c-0.1,0,0,0-0.2,0s0,0,0.2,0V39.1z M29.7,41.8c0-0.3,0-0.3,0-0.5c0.1,0.1,0.2,0.3,0.2,0.5H29.7L29.7,41.8z
	 M28.4,45.7c-0.3,0-0.3,0-0.4-0.2c-0.1-0.2-0.5,0-0.7,0c0-0.1,0-0.2,0-0.3c-0.4,0-0.7,0-1,0c0,0.2,0.1,0,0.2,0.2v-0.1
	c0.2,0.1,0.4,0.1,0.6,0c0,0,0,0.4,0,0.5s-0.3-0.2-0.5-0.2c0-0.1,0.1-0.2,0.1-0.3c0,0-0.3,0-0.3-0.3h0.2c0-0.2,0.3,0,0.3-0.3
	c0.6,0.5,0.9-0.7,0.2-0.8c0.1-0.4-0.1-0.9-0.4-1.2c0.1-0.3,0.5-0.2,0.6-0.5c-0.4-0.4-0.6-1.1-0.5-1.7c0.3-0.1,0.5-0.4,0.7-0.7
	c0.5,0,0.7-0.5,1.2-0.6c0.4-0.3,0.9-0.5,1.4-0.4c0,0.2,0,0.3-0.2,0.4v0.2c0.2,0,0,0.6,0.3,0.8h0.2c0-0.1,0.4,0,0.5,0
	c0.1,0,0.2,0.7-0.2,0.7c0,0.4-0.1,0.7,0,1c0,0,0,0,0.3-0.9c0.2,0,0.2,0,0.3,0v0.1c0,0.2-0.1,0.1-0.2,0.2c0,0.1,0,0.3,0,0.3s0,0,0,0
	s0,0.5,0,0.7c-0.6-0.3-0.3-0.6-0.3-0.6c-0.3,0,0,0.5-0.5,0.4c-0.1-0.3-0.1-0.7,0-1c0-0.2,0.2-0.2,0.2-0.3c0-0.1,0-0.2,0-0.3
	c0-0.3-0.1-0.3-0.2-0.4c-0.2,0,0,0.3-0.3,0.2s-0.2-0.2,0-0.4h-0.4c-0.1,0,0,0.3,0,0.4c0,0.2-0.2,0.9,0,1c0.2,0.1-0.2,0.2-0.3,0.3
	s0,0.2,0,0.3l-0.2-0.1c0,0.6,0.2,1.5,0,1.9c-0.2,0.5,0.2,0.2,0.2,0.5c0,0.3-0.2-0.6-0.5-0.7c-0.1-0.6-0.2-1.3-0.5-1.9
	c-0.3,0.2-0.8,0-0.9,0.2c0,0.4,0.2,0.5,0.3,0.6c0.1,0.2,0.2-0.2,0.4-0.2c0,0.1,0,0.2,0,0.3c-0.1-0.1-0.2-0.1-0.3,0
	c-0.5,0.9,0.4,1.6,0.6,2.4L28.4,45.7z M27,47c0.2,0,0,0.2,0.3,0c0.3-0.2,0,0.2-0.3,0.2c0-0.1,0-0.2,0-0.3L27,47z M27.3,46.5h-0.1
	v-0.2h0.1V46.5L27.3,46.5z M28.2,46.6c0,0.2-0.6,0.2-0.6,0C27.9,46.7,27.9,46.6,28.2,46.6z M23.1,48.2c0,0.2-0.1,0.2-0.3,0.2
	S22.8,48.1,23.1,48.2z M22.7,46.6c-0.2-0.2-0.2-0.6-0.7-0.6c0-0.6-0.6-0.7-0.8-1.2c-0.3,0-0.5,0-0.8-0.2c0-0.6-0.3-0.8-0.4-1.2h0.6
	c0.2,0,0.2-0.4,0.2-0.6c-0.1-0.1-0.1-0.4-0.3-0.4c-0.1-0.3,0-0.7,0.1-1c0.5-0.2,0.7-0.7,1.2-0.8c0.5-0.1,0.9-0.5,1.1-1
	c0.4,0,0.5-0.3,0.8-0.3s0.7,0.6,1.3,0.7c0.2,0.2,0.4,0.3,0.7,0.3c0.3,0.5,1.1,0.9,0.7,1.6c-0.2,0-0.2-0.3-0.4-0.4
	c0.1-0.8-0.4-0.8-0.6-1.2c-0.3,0.1-0.5-0.1-0.6-0.3c0,0.2-0.4,0.1-0.4,0.4c0,0.2-0.2,0-0.4,0c-0.2,0,0,0.3,0,0.5c0,0.2,0-0.2-0.3,0
	v0.2c0,0,0,0-0.1,0c-0.1,0-0.6,0.3-0.7,0.6c0.1,0.2,0.2,0.5,0.2,0.8c0,0,0,0-0.2,0c0,0.9,0.4,1.6,1.2,1.8c0,0.3,0.1,0.5,0.4,0.5
	c0,0.4,0.3,0.3,0.3,0.6h0.7c0.2,0.2,0.3,0.5,0.7,0.5s0-0.4,0-0.3c0,0.1,0.5,0.2,0.6,0.3c0.1,0.1-0.2,0-0.3,0.1
	c-0.1,0.1,0,0.7,0.3,0.7c-0.2,0.4,0.2,0.4,0.2,0.8c0.3,0.3,1.1,0.2,1.5,0.4c-0.2,0.3-0.7,0-1,0.2c-0.1,0.1-0.1,0.2-0.2,0.3
	c0.5,0.3,1.7-0.2,1.9,0.3c-0.4,0.3-0.8,0.2-1.4,0.3c0,0.2,0,0.2-0.2,0.2c-0.2,0-0.5-0.3-0.7-0.4s0-0.8-0.2-1c-0.2-0.2,0-0.4,0-0.4
	c-0.2,0,0-0.5-0.2-0.6c-0.3-0.3-0.6-0.4-0.9-0.4c-0.2-0.3-0.6-0.5-0.9-0.5c-0.2-0.3-0.5-0.6-0.8-0.8c0-0.1,0-0.2,0-0.3
	c-0.2,0-0.2-0.2-0.4-0.3c-0.3-0.7-1-0.8-1.3-1.6c-0.1,0-0.3-0.3-0.5-0.2c0.2,0,0,0.5,0.1,0.7c0.1,0.7,0.3,1.3,0.8,1.8
	c0.1,0.6,0.6,1.1,1.2,1.1v0.1C23.3,46.6,23.1,46.6,22.7,46.6L22.7,46.6z M25.2,44.1c0.2,0,0.4,0.3,0.7,0.4v0.3h-0.3
	C25.6,44.4,25.2,44.5,25.2,44.1L25.2,44.1z M25.5,43.2c0,0,0,0.2,0,0.4s-0.4,0-0.3-0.3L25.5,43.2L25.5,43.2z M24.8,43.2
	c0,0.2,0.1,0.4,0.2,0.5c-0.2,0.1-0.4-0.3-0.7-0.2V43c-0.2-0.5-0.8-0.4-0.8-1.1c0,0,0,0,0.2,0C24.1,42.3,24.1,43.2,24.8,43.2
	L24.8,43.2z M24.1,41.7c0.2,0,0.3,0.2,0.3,0.4C24.3,42.4,24,42,24.1,41.7z M10.3,46.3c0-0.2,0.2,0,0.3-0.1
	C10.8,46,10.5,46.5,10.3,46.3z M10.7,45.5v0.2h-0.2v-0.2H10.7z M10.4,55.2v-0.2h0.2v0.2L10.4,55.2L10.4,55.2z M9.5,55h0.2v0.2H9.6
	L9.5,55z M8.7,49.8c0,0,0-0.2-0.2-0.3c0.1-0.5,0.2-1.1,0.3-1.6c-0.2-0.2,0-0.9-0.3-1c0.1-0.1,0-0.5,0.3-0.5c0.3-0.1,0,0.2,0,0.2
	s0.2,0,0.1,0.3c0.2,0,0.4,0,0.5-0.1c0,0.2,0.2,0,0.4,0.2c0.2-0.2,0.5,0,0.7,0s0,0.5,0,0.8c-0.2-0.1-0.5-0.1-0.7-0.2
	c0-0.3,0-0.3,0-0.5H9.7c-0.5,0-0.9,0-0.6,0.5h0.6c0,0.2-0.5,0.2-0.7,0.4c0,0.3,0.5,0,0.7,0.3c0.1,0.3-0.2,0.2-0.2,0.4
	c0.2,0.2,0.4,0.2,0.6,0.2c0.1,0,0-0.3,0-0.5s0.3,0.3,0.6,0.4s-0.2,0.5,0,1c-0.3,0-0.2,0.2-0.4,0.1c0,0.2,0.5,0,0.7,0
	c0,0.4,0,1.3,0,1.7c0.2,0.7-0.1,1.7,0.3,2.1c0,0.2,0,0.3,0,0.5c0,0.2,0.3,0,0.5,0c0-0.2,0-0.2,0.3-0.2V54h-0.5c0,0,0,0,0,0.2
	s-0.2-0.2-0.4-0.2c-0.2,0.1-0.3,0.5-0.8,0.4c-0.1-0.1-0.2-0.2-0.3-0.3c-0.4,0.2-0.9,0.2-1.3,0c0-0.4-0.2-1,0-1.3s0-0.2,0-0.3
	c0.1-0.9,0.1-1.9,0-2.8L8.7,49.8z M7.8,47.9c0-0.1,0-0.2,0.1-0.2v0.2H7.8z M6.9,46.7c0,0.1,0,0.1,0,0.2H6.8L6.9,46.7L6.9,46.7z
	 M5.6,47.9c-0.4,0-1,0.2-1.1-0.3c0.7,0.2,1.3-0.1,2-0.1c0,0,0.3-0.2,0.4-0.4c0.2,0,0.3,0,0.5,0c0,0.3-0.6,0.2-0.6,0.6
	c0.3,0,0.2-0.2,0.5-0.1s-0.4,0.3-0.4,0.7c-0.3,0-0.5-0.2-0.7,0C6,48,6.4,48,6.5,47.8v0.1C6.2,47.9,5.9,47.9,5.6,47.9z M4.2,49.3
	c0.1-0.3,0-0.2,0-0.5c0-0.3,0.2,0,0.3,0s-0.1,0.3-0.3,0.4L4.2,49.3z M4.9,48.3c0,0.2-0.8,0.2-0.8,0C4,48.2,4.6,48.3,4.9,48.3z
	 M3.7,48.2c0,0.2,0,0.2-0.2,0.2c0-0.1,0-0.2,0-0.2C3.7,48.2,3.7,48.2,3.7,48.2L3.7,48.2z M3.1,48.9c0,0,0-0.2-0.2-0.2
	c-0.2,0.1,0.2,0,0-0.2c-0.2-0.2,0.2,0.3,0.5,0.2C3.7,48.6,3.2,48.8,3.1,48.9L3.1,48.9z M3,48.1c0,0-0.1,0-0.2,0
	c-0.1,0.1-0.2,0.1-0.3,0c0-0.2,0.2,0,0-0.2c-0.2-0.2,0.2,0,0.2,0.3C2.9,48.2,2.9,48.2,3,48.1L3,48.1z M2.5,53.2v-0.3
	c0.1,0,0.1,0,0.3,0s0,0.2-0.3,0.2V53.2z M2.5,50.4c-0.2,0-0.2-0.3,0-0.2C2.7,50.2,2.5,50.4,2.5,50.4z M1.1,46c0.3,0,0.2,0.5,0.2,0.9
	s-0.2,0-0.4,0c0.2-0.2,0-0.4-0.2-0.5S0.9,46.1,1.1,46c-0.1,0-0.3,0-0.3-0.2H0.6c0,0,0-0.3,0-0.2c0.2,0,0.2,0,0.3,0V46H1.1z
	 M0.6,49.8c0-0.2-0.3-0.3-0.3-0.6c0-0.1,0.1-0.2,0.3-0.3c0-0.3,0-0.6,0-0.9c0,0,0.3,0,0.3-0.3c0,0,0,0-0.2,0s0-0.3,0-0.4
	c0.2,0.1,0.4,0.2,0.6,0.2c0,0-0.4,0-0.3,0c0,0.2,0.2,0,0.3,0.2c0.1,0.2-0.2,0,0,0.2c0,0.2,0.2,0.3,0.2,0.5c0,0.2,0,0.8,0.1,0.7
	c0.1-0.1-0.3,0.5-0.3,0.6c0.2,0.8-0.2,1.6,0,2.2s0,0.6,0,0.7s0.1,0.2,0.1,0.5c0,0.3-0.3,0.2-0.5,0.3s0.2,0,0.2,0.3
	c-0.1,0.2-0.4,0.3-0.6,0.4c0,0,0.3,0.2,0,0.3c-0.3,0.1,0-0.6,0-0.9c0-0.4-0.1-0.7-0.2-1.1c0.3-0.3,0-0.9,0-1.3c0-0.4,0.1-0.9,0-1.3
	H0.6z M0.3,45.3c0,0-0.1,0-0.3-0.2v11.3c0.1-0.2,0.2-0.4,0.3-0.6c0-0.1,0-0.3,0.1-0.4c0.5-0.2,1.4,0.2,1.7-0.3
	c-0.4-1.7,1.5-1.1,1.9-2v-0.3l-0.4-0.2c0,0,0-0.5-0.2-0.5c0.1-0.3,0.2-0.6,0.2-1L3.4,51c0.1-0.3,0.1-0.5,0.2-0.8c0,0,0,0.2,0.2,0
	c0.2-0.2,0.5,0,0.4-0.2c0-0.2-0.7,0-0.9-0.3c0-0.1,0-0.2,0-0.3c0.7,0.1,1.5,0.1,2.3,0c0-0.4-0.3-0.3-0.5-0.4c-0.2-0.1,0-0.3,0.2-0.3
	c0.7,0.4,1.7,0,2.4-0.3c0,0,0-0.3,0-0.4h0.2c0,0.2,0,0.5,0,0.7h0.3c0,0,0,0,0,0.3c0,0.3-0.5,0-0.5,0.2c0.1,0.1,0.3,0.2,0.4,0.2
	c0,0.6,0,1.2,0,1.9c0.1,0.8,0,1.7-0.1,2.5c-0.4,0-0.5-0.2-0.8-0.2c-0.3-0.5-0.8-0.7-1.3-0.6c0.3,0.2,0.7,0.3,0.9,0.6
	c0.5,0.1,0.9,0.5,1.1,0.9c0,0,0,0.2,0,0.3l0.3,0.3c1,0.2,2.1,0.2,3.1,0.2c0.3-0.5,0.8-0.8,1.2-1.2c0.7,0.1,1.3,0.1,2,0.1
	c0.2,0.3,0.7,0.2,1.2,0c0.4-0.2,0.4-0.4,0.3-0.8c-0.2,0-0.5-0.1-0.7-0.3c-0.4,0.5-1,0.7-1.6,0.6c0-0.3-0.4-0.3-0.7-0.4
	s-0.3-0.8-0.6-1c-0.4-0.2-0.3,0.6-0.5,0.7c-0.2,0.1,0.2,0,0.2,0.4h-0.3c-0.2-0.5-0.3-1.1-0.3-1.7h0.6c0-0.2-0.2-0.2-0.3-0.4
	c0-0.2-0.1-0.5-0.2-0.6c0-0.5,0.5-1,1-0.7c-0.1,0.3,0.1,0.5,0.3,0.7c-0.1,0.1-0.2,0.3-0.1,0.4l0.5,0.2c0,0-0.2,0.2,0,0.5
	c0.6,0.2,0.9-0.3,1.5-0.2c0-0.1,0-0.3,0-0.5c0.5,0,0.5-0.6,0.7-0.9c0.2-0.4,1.2-0.2,1.7-0.4c0.1,0.2,0.3,0.2,0.5,0.2
	c0.2-0.4,0-1,0.3-1.4c0.2,0.2,0.8,0,1.1,0s0.2,0.5,0.3,0.7c0.1,0.2,0,0.5,0.1,0.5c0.2-0.3,0.2-0.6,0-0.9c0.2,0,0-0.6,0.4-0.6
	c0.2,0.2,0.3,0.5,0.3,0.8c0.4,0.3,0.8,0.4,1.3,0.4c0.2,0.1,0.3,0.1,0.5,0c0.1-0.6-0.2-1.7,0.2-2c0,0.1,0,0.3-0.1,0.4
	c0,0.5,0.3,0.5,0.4,0.8c0.6,0,0.9,0,1,0.6c0.2,0.1,0.5,0.1,0.7,0c0-0.5-0.5-0.8,0-1.1c-0.2-0.3,0-0.7,0-1s0.3,0,0.3,0
	s0.2,0.9,0.5,1.1c0,0-0.3,0-0.2,0.4s0.5,0.2,0.7,0.3c0.2,0.1-0.3,0.2-0.3,0.5c0.4,0,0.8-0.2,0.9,0.2C26,49.7,26,49.9,26,50.1
	c0.2,0,0.1-0.3,0.3-0.4c0.1-0.1,0.4-0.3,0.6-0.5c0.6,0,1.2,0.1,1.8,0.5c-0.1,0-0.2,0.3-0.3,0.4s0,0.3,0,0.4
	c-0.5,0.3-0.3,1.1-0.3,1.7c-0.6,0-1.2,0.1-1.7,0.2c-0.2-0.2-0.8,0-0.9-0.3c-0.2,0-0.4,0-0.5,0.2c-0.3-0.2-0.6-0.3-0.9-0.4
	c-0.6,0-1.2,0-1.7-0.3h-0.4c0-0.4-0.6-0.4-0.7-0.8c-0.3,0-0.2,0.6-0.5,0.7s-0.5,0-0.4,0.4s0.4,0,0.4,0s-0.3,0-0.3,0.2
	c0,0.2-0.1,0-0.2,0c-0.5,0.4-1.3,0.3-1.7,0.8c0,0,0.2,0.3,0,0.3c-0.1,0-0.3,0-0.4,0c0,0.1,0,0.4,0,0.6c0.3-0.1,0.7,0,1,0.2
	c0,0-0.2,0.4,0,0.4c0.2,0,0-0.2,0.2-0.2c0.6-0.2,0.9-0.7,1.4-1.1c0.1,0.3,0.4,0.4,0.7,0.5c0,0.4-0.6,0.3-0.6,0.7c0,0.4,0,0.2,0,0.3
	c-0.1,0.1-0.2,0.2-0.2,0.3c0,0.1,0,0.3,0.1,0.4c0.3,0.1,0.5,0.1,0.8,0c0.6-0.7,1.4-1.3,2.3-1.6c0,0.7-0.6,0.8-0.8,1.3
	c-0.2,0.5,0.3,0,0.5,0c0.1,0.2,0.2,0.3,0.4,0.3c0.1,0,0.2-0.2,0.3-0.2c0.1,0.2,0.3,0.4,0.6,0.5c0.5-0.4,1-0.8,1.4-1.3
	c0.2,0,0.4-0.2,0.5,0c0.1,0.2-0.5,0.4-0.6,0.8c0.1,0.1,0.2,0.2,0.3,0.4c0,0,0,0-0.1,0s0,0,0,0s0,0.3,0,0.4c0,0.1-0.1,0-0.1,0
	s0,0.7-0.1,1c0.5,0,0.4-0.7,0.8-0.9c-0.1,0.1-0.1,0.2,0,0.3c0,0.1,0.1,0.2,0.2,0.2c0.7-0.5,0.9-1.3,1.8-1.4c0,0,0,0.4,0,0.6
	c0,0.2,0.2,0.2,0.3,0.2c0.2,0,0.3,0,0.4,0s0,0.8-0.2,1c-0.2,0.3,0.2,0,0.1,0.2s0,0.7,0.2,0.8c0.2,0.1,0,0.5,0.3,0.4
	c0-0.5-0.4-1.3,0-1.7c-0.1-0.4,0-0.7,0.2-1h0.4c0-0.3,0.3-0.2,0.1-0.6c0.2,0,0.2-0.2,0.4-0.3c0-0.4,0-0.8,0-1.2
	c0.3,0,0.4,0.3,0.4,0.6c0,0.3-0.3,0.5-0.2,1c0.2,0,0.2,0.2,0.4,0c0.3,0.3,0.2,0.6,0.3,1.1c0.1,0.5,0.5,1.2,0.8,1.7
	c-0.1,0.1-0.1,0.1-0.2,0.2c0,0.2,0,0.4,0,0.6c-0.2,0,0,0.3-0.2,0.3c-0.2,0-0.1,0.2-0.4,0.2c-0.2,0.6-0.9,0.8-1.2,1.2
	c-0.5,0-0.9,0-1.1-0.4c-0.3,0-0.5-0.1-0.8-0.2c0,0,0-0.3-0.2-0.3s-0.2,0-0.3,0s0-0.2,0-0.2s-0.3,0-0.4-0.2c-0.1-0.2,0-0.4-0.2-0.5
	c-0.2-0.1,0.1-0.3,0.4-0.3c0.3,0.1,0-0.3,0.1-0.5c0.1-0.2-0.2,0-0.3-0.2s0.2-0.2,0-0.4c-0.2-0.2-0.5,0-1,0c-0.4,0-0.1,0.4-0.1,0.9
	c-0.3,0.1-0.4,0.4-0.4,0.8c-0.2,0-0.2,0.4-0.4,0.5c-0.2,0.1-0.4,0.2-0.5,0.4c-0.1,0-0.3,0-0.4,0c0,0.3-0.4,0.3-0.7,0.4
	c-0.3,0.1-0.4,0.4-0.6,0.5s0.2,0,0.2,0.3c-0.1,0.3,0.4,0,0.6,0c0.1,0,0-0.2,0.2-0.2s0.3,0,0.4-0.2c0.3-0.1,0.6-0.2,0.9-0.2
	c0-0.2,0.3-0.3,0.4-0.4c0.1-0.1,0,0,0.1,0s0.3-0.6,0.7-0.7c0.5,0.3,0.8,0.9,1.5,1c0.4,0.4,0.8,0.6,1.3,0.6c0,0.3,0.4,0,0.7,0
	c0.2-0.4,0.5-0.6,0.9-0.7c0.3-0.7,1.1-0.9,1.1-1.9c0.2,0,0-0.2,0.3-0.2c0.3,0.1,0,0.3,0,0.6c0.5,0.5,0.7,1.2,1.1,1.7
	c0,0.2,0,0.2,0,0.3c0.3,0.2,0.5,0.5,0.7,0.8c0.5,0.2,1,0.7,1.2,1.2c0.2,0,0.4,0.3,0.4,0.5c0,0.3,0.4,0.3,0.6,0.5s0.2,0,0.3,0
	s0,0.2,0.2,0.3c0.2,0.1,0.2,0,0.2,0c0.1,0.1,0.3,0.3,0.3,0.5c0.9,0.3,1.4,1,2.4,1.2c0.2,0.2,0.5,0.4,0.8,0.5c0.2,0.4,0.7,0.5,1,0.8
	c0.6,0.1,1.3,0.2,1.9,0.5c0.3,0,0.6,0,0.9,0c0.6,0,1.1,0.1,1.7,0.3c0.2-0.3,0.8,0,0.9,0c1.1,0.1,2.2,0.1,3.4,0c0,0,0-0.2,0.1-0.1
	c0.7,0,1.3-0.1,2-0.3c0.2-0.4,0.8-0.3,1.3-0.4c0.9-0.4,1.8-1,2.7-1.6h0.3c0.5-0.5,1-0.9,1.6-1.2c0.2-0.3,0.4-0.6,0.8-0.7
	c0.2-0.6,0.7-0.9,1.1-1.2c0.2-0.4,0.5-0.7,0.9-0.9c0.1-0.5,0.6-0.7,0.7-1.3c0.6-0.5,1.1-1.2,1.2-2c0.2-0.2,0.3-0.5,0.3-0.8
	c0.1,0,0.1-0.2,0.3-0.2c0-0.5,0.4-0.7,0.3-1.3c0.2,0,0-0.2,0.2-0.2c0.1-0.4,0.1-0.7,0.3-1.1c0-0.4,0.2-0.8,0.3-1.1v-0.7l0.4-2.8
	c0-0.2,0-0.3,0-0.5l-0.2-2.5L64.8,44l-0.9-2.5c-0.3-0.2-0.4-0.5-0.6-0.7c0.1-0.5-0.1-1.1-0.5-1.3c0-0.2,0-0.2,0-0.4
	c-0.5-0.4-0.9-1-1.1-1.6c-0.3,0-0.4-0.4-0.5-0.5c-0.1-0.1-0.6-0.4-0.7-0.7c-0.6-0.2-0.8-0.9-1.5-1.1c-0.3-0.6-1.1-0.7-1.4-1.3
	c-0.9-0.2-1.4-0.9-2.4-1.1c0-0.3-0.2,0-0.2-0.3c-1.5,0-2.1-1.1-3.8-0.9c0-0.2-0.4-0.2-0.6-0.2c-0.2,0-0.6,0-0.8,0s0,0-0.2-0.1
	c-1.2,0-2.4,0.1-3.7,0.2c-0.2,0.2-0.8,0.2-1.1,0.2c-0.4,0.1-0.9,0.2-1.1,0.3c-0.2,0.1-0.4,0.1-0.5,0.2c-0.1,0.1-0.4,0-0.6,0
	c-0.8,0.5-1.7,0.8-2.4,1.2c-0.7,0.5-1.4,1.1-2.4,1.3c-0.2,0.3-0.4,0.6-0.6,0.8c-0.4,0.2-0.8,0.5-1,0.9c0.2-0.1,0.5,0,0.6,0.3
	c0.5,0,0.5-0.3,0.7-0.5c0.2-0.2,0.4,0,0.5-0.3c0.2-0.3,0.3-0.3,0.5-0.4c0.3-0.1,0,0.2,0,0.3s0.2,0,0.1,0.3c-0.1,0.3,0.4,0,0.4-0.4
	c0-0.4,0.4-0.2,0.8-0.2c0.3,0-0.2,0-0.1,0.4c0.4-0.1,0.7-0.3,1-0.6c-0.2,0-0.4,0.2-0.5,0c-0.1-0.2,0.2-0.2,0.3-0.4
	c0.1-0.1-0.1-0.2-0.2-0.3c-0.2,0.1-0.3,0.2-0.5,0.2c-0.2,0.2-0.3,0.4-0.5,0.6c-0.2,0,0-0.3,0-0.4c0.2,0,0.4-0.2,0.4-0.4
	c0.3,0,0.5-0.2,0.6-0.4h0.3c0.4-0.4,1.1-0.5,1.5-0.9c0.4-0.1,0.8-0.2,1.2-0.4c0.3,0,0.6,0,0.7-0.2c0.5,0,0.8,0,0.9-0.5
	s-0.4-0.2-0.5-0.3c0,0,0,0-0.2,0c-0.2,0,0-0.2,0.2,0c0.1,0,0.2-0.1,0.3-0.2l0.5,0.2c0,0.2-0.3,0-0.2,0.4c0.1,0.4,0.5,0,0.5,0.3
	c0,0.3-0.9,0.2-1.1,0.5h-0.4c0,0-0.1,0.2-0.2,0.2c0.3,0.4,0.9-0.1,1.4,0c0,0.3-0.5,0-0.5,0.4c0.3,0,0.7,0,1,0c0.2,0,0-0.3,0-0.5
	c0.4,0,0.8-0.2,1.1-0.3c0,0-0.1,0-0.2-0.2c-0.3,0.1-0.6,0.1-0.8,0c0-0.3,0.4-0.2,0.5-0.2h0.7c0,0,0,0,0.1,0.1c0.5,0,1-0.1,1.4,0
	c0,0.2,0,0.3-0.1,0.4c0,0.2,0.2,0,0.3,0.2c0,0.2-0.2,0.2-0.2,0.4s0.9,0.3,1,0c0-0.2-0.5,0-0.5,0s0.7,0,1,0c0.4,0,0.3,0.3,0.5,0
	c-0.2-0.3-0.8-0.2-0.9-0.5c-0.2-0.3-0.6,0-0.7,0s0.9,0.3,1.1-0.2H51c0,0,0,0,0-0.3h0.4c0.1,0.1,0.1,0.2,0,0.4h0.4
	c0,0.2,0.2,0.3,0.3,0.4c1-0.2,1.2,0.6,2.1,0.5c0,0,0,0.2,0,0.3s-0.3-0.2-0.7,0c0.3,0.3,0.6,0.5,1,0.5c0-0.2,0.1-0.5,0.2-0.7
	c0-0.2,0.2,0,0-0.3h0.5c0,0.2,0,0.2,0,0.4c0.5,0,0.7,0.3,1.1,0.3c0.1,0.2,0.1,0.4,0.2,0.7c-0.2,0-0.4,0-0.4,0.2
	c0.3,0.3,0.5,0.8,0.4,1.3c-0.2,0-0.3-0.2-0.6,0c0,0.1,0,0.2,0.1,0.3c0.1,0.1,0.2,0.1,0.3,0.1c0,0.3,0.3,0.3,0.3,0.5
	c0,0.2,0.3,0.2,0.7,0.2c0.3-0.1,0-0.3,0-0.3s0.2,0.3,0.6,0.2c0,0.4,0.5,0.6,0.7,0.9h0.3c0,0.5,0.4,0.5,0.4,0.9h0.2v0.3
	c0.4,0,0.3,0.6,0.8,0.6s0-0.4,0-0.6S60.8,40,61,40c0-0.4-0.4-0.8-0.6-1c0.4-0.2,0.7,0.5,0.9,0.7c0.2,0.2,0.4,0.2,0.3,0.6
	c0,0.4-0.2,0-0.4,0c-0.2,0,0.1,0.6,0,0.7h-0.3c0,0.1,0,0.2,0,0.4c0.3,0.4,0.6,0.8,0.8,1.3c0,0,0.2,0,0.3,0c0.1,0,0,0.7,0.4,0.8h0.1
	c0-0.3-0.2-0.3-0.2-0.6c0.4,0.4,0.7,0.9,0.7,1.5c-0.2,0-0.1-0.4-0.4-0.3c-0.1,0.3-0.1,0.6,0.1,0.9c0.1,0.4,0.3,0.8,0.5,1.2
	c-0.1,0.2-0.1,0.4-0.1,0.6c0.3,0,0.4,0.2,0.5,0.5c0.4,0,0.2,0.8,0.2,1c0,0.2-0.1-0.3-0.2-0.5l0,0c0,0.5,0.1,1.3,0,1.7
	c-0.2-0.2,0-0.7-0.1-1s0-0.2,0-0.4c0-0.3-0.2-0.7-0.2-1.2c-0.2-0.2-0.7,0-0.9-0.2s0,0,0,0s-0.8,0-1.1,0c-0.4,0,0,0-0.1-0.2
	c-0.1-0.2,0.2-0.1,0.3-0.2c0-0.6,0.7-0.6,0.5-1.4c0.2-0.1,0.4-0.2,0.6-0.2c-0.1-0.2,0-0.6-0.4-0.7c0-0.6-0.2-1.1-0.6-1.3
	c-0.1,0.1-0.1,0.3-0.2,0.4c-0.4,0-0.8-0.1-1.2-0.3c0,0,0,0,0,0.2c-0.2-0.1-0.3-0.2-0.5-0.3c0.2-0.5,0.6-0.8,0.8-1.3
	c0.2,0,0.2,0,0.4,0s0-0.3-0.2-0.4c0,0-0.3,0-0.3,0c0,0,0.2,0,0.3-0.1c0-0.5-0.5-0.7-0.6-1.1s-0.1,0.2-0.3,0.1s-0.2-0.3-0.2-0.5
	c-0.3-0.1-0.6,0.1-0.8,0.3c0.1,0.3,0.4,0.4,0.6,0.4c-0.1,0.3-0.1,0.9,0.2,0.9c0,0.6-0.2,0.8-0.2,1.3c-0.1,0-0.3,0.3-0.1,0.4
	c-0.5,0-0.9-0.1-1.3-0.4c0-0.3,0.6-0.1,0.7-0.4c0-0.3-0.2,0-0.2-0.2c0-0.2-0.1-0.3-0.1-0.5s-0.3-0.4-0.5-0.5c-0.2-0.2,0-0.6,0-1
	c-0.4-0.3-0.9-0.4-1.3-0.2c0,0.4-0.4,0.6-0.5,0.9c-0.2,0.3-0.5,0.4-0.8,0.4V41c-0.4,0-0.4,0.4-0.6,0.6c-0.2,0.2,0.3,0.2,0.5,0.2
	c0.2,0,0,0.2,0,0.4c0.6,0,1.1-0.6,0.7-1c0-0.2,0.2-0.4,0.4-0.4c0.2,0-0.2,0.3,0,0.5c0.3-0.1,0.6-0.2,0.9-0.4c0.1,0,0.2-0.4,0.4-0.4
	c-0.3,0.3,0.2,1.2-0.4,1.3c0-0.3,0.2-0.4,0.1-0.7h-0.2c0,0-0.1,0.2,0,0.3c-0.4,0-0.3,0.3-0.7,0.3L55.5,42c0,0.2,0.2,0.3,0.5,0.2
	c0.3-0.1,0.1,0.2,0.2,0.4c0,0.2,0.4-0.2,0.6-0.3c0,0.2-0.1,0.3-0.3,0.4c0,0.2,0.2,0,0.1,0.3s0.2,0,0.4,0c-0.4,0.3-0.6,0.7-0.7,1.2
	c-0.4,0-0.7,0-0.6,0.6c0.1,0.6-0.3,0.4-0.3,0.7v-0.2c0.2-0.4,0.7-0.6,1.1-0.6c0-0.2,0.3-0.2,0.6-0.2c0.2-0.3,0.3-0.6,0.6-0.8h0.1
	h0.1c0.1-0.3,0.5,0.1,0.7,0.2c0.2,0,0.4-0.3,0.8-0.3c0,0.3-0.4,0.2-0.5,0.5c-0.9,0-1.1,0.5-1.8,0.6c-0.1,0.3-0.4,0.4-0.3,0.9
	c-0.3,0.3-0.9,0.2-1,0.7c-0.3,0.1-0.5,0.3-0.8,0.5c0.8,0.2,1.2-0.6,2.1-0.5c0.3-0.3,0.8-0.8,1.3-0.7c-0.2,0.2-0.5,0.2-0.8,0.4
	s0,0.3,0,0.5h0.2c0,0,0.1,0,0-0.2s0.5,0,0.5-0.2c0.8,0.1,0.8-0.5,1.5-0.5c0.1-0.1,0.3-0.2,0.4-0.2c0,0.2-0.2,0-0.2,0.3
	c0.1,0.2,0.3,0.3,0.5,0.4c-0.6,0.4-1.3,0.5-2,0.3c-0.4,0.6-1.6,0.2-1.9,0.9c-0.3-0.2-0.7-0.1-0.9,0.2c-0.3,0-0.9,0-1,0.2v0.1h0.2
	c0,0-0.3,0-0.2,0.4c0,0.4,0.3,0,0.3,0.2c0.5-0.3,1.6,0,1.8-0.6c0.7,0,1.5-0.1,2.2-0.4v0.1c0.8-0.3,2.2-0.5,2.8,0
	c0,0.3,0.1,0.6,0.3,0.8c0,0.5,0,0.9,0.4,1c0,0.6,0.2,0.8,0.2,1.4c-0.1,0-0.4,0.4-0.2,0.5c-0.3,0.4-0.8,0.5-0.7,1.3
	c-0.7,0-0.8-0.4-1.5-0.4c0-0.2-0.3-0.2-0.2-0.4s0.1,0.2,0.4,0s0.7-0.3,0.9-0.5c0.3-0.2,0-0.4,0-0.4c0-0.1-0.5-0.3-0.5-0.7
	c0-0.4-0.2,0-0.3-0.1c0.1-0.5,0.4-0.9,0.8-1.2c0-0.2,0-0.4,0-0.6c-0.2-0.2-0.7-0.2-0.8-0.5c-0.5,0-1.1-0.2-1.7-0.2
	c-0.2,0-0.3,0.3-0.5,0.4c-0.2,0.1,0.4,0.2,0.6,0.2c0.2,0,0.7-0.2,0.9,0c0,0.1,0,0.2,0,0.3c-0.3,0-0.6,0.2-0.9,0.3
	c-0.3,0.1-0.4,0.3-0.4,0.6c0.4,0,0.6,0.2,1,0.2c0,0.2,0,0.4,0,0.6c0,0.2-0.5,0-0.5,0.4h-0.4c-0.8,0.5-1.6-0.2-2.6-0.1
	c-0.4-0.1-0.9-0.1-1.3,0c0,0.6,0.9,0.4,1.2,0.8c0.4,0,0.5-0.2,0.9-0.2c0,0.2,0,0.3,0,0.4c0.4-0.1,0.9,0,1.2,0.3
	c-0.2,0.2-0.3,0-0.4-0.2c-0.3,0-0.5,0-0.8,0l0,0c0,0-0.4,0-0.5,0s0,0,0,0s-0.4,0-0.5,0s0,0,0-0.1c0-0.1-0.6,0-0.5-0.2
	c0-0.2-0.5,0.2-0.5,0.5c-0.1,0.3,0-0.2-0.2,0c0-0.2,0-0.3,0-0.5c-1,0.2-1.3-0.5-2.1-0.5c-0.1-0.2-0.3-0.4-0.6-0.5v-0.6
	c0.4,0,0.7,0,1,0s0,0,0,0s0.9-0.2,1-0.4c0-0.5-0.8-0.2-0.9-0.6c-0.1-0.4-0.6-0.5-0.9-0.5s0,0.2,0,0.3c-0.3,0-0.6,0-0.8-0.1
	c0-0.4-0.2-0.4-0.1-0.7c0.1-0.4,0.3-0.3,0.5-0.5s0-0.3,0-0.4c-0.3-0.1-0.6,0-0.8,0.3c0-0.1,0-0.2-0.1-0.3c-0.3,0-0.3,0.2-0.4,0.3
	c-0.1,0.1-0.6,0-0.8-0.2c0.2-0.4,0.7,0,1-0.2c0.3-0.2,0.2-0.4,0.5-0.5c0-0.2,0-0.4-0.1-0.6c0-0.3,0.2-0.4,0.1-0.7H51
	c-0.3,0.6-0.7,1.1-1.1,1.6c-0.2,0-0.2,0-0.3,0c0-0.4,0.2-0.4,0.3-0.6s0-0.7-0.2-0.8c0.2-0.3,0-1,0.2-1.4c0.2-0.4-0.2-0.2-0.3-0.3
	c-0.3,0.2-0.6,0.5-0.8,0.8c0.2,0.3,0,0.8,0,1.3c0,0.5,0.3,0.2,0.3,0.4c0,0.2-0.6,0.3-0.9,0.3s0,0.2-0.3,0.2c0.1-0.1,0.1-0.3,0-0.4
	c0-0.1-0.2-0.2-0.3-0.3c0-0.5-0.2-0.7-0.3-1.1s0-0.1,0-0.2c-0.1-0.3-0.2-0.6-0.1-0.9c-0.2-0.2-0.2-0.6-0.5-0.7s-0.1,0-0.2,0
	c-0.1,0,0,1,0,1.5c0.3,0.6,0.5,1.3,0.4,2c-0.1,0-0.2,0-0.3,0c-0.2,0,0,0,0,0c-0.2-0.5-0.4-0.9-0.6-1.4c0,0,0-0.1-0.1,0v-0.1
	c-0.4-0.6-0.7-1.2-1.2-1.8h-0.4c0,0.4,0,0.6,0.4,0.7c0.2,0.8,0.9,1.1,1.1,2.1c0.2,0,0,0.2,0.2,0.3c0.2,0.1,0.2,0.1,0.2,0.3
	c0,0.3-0.2,0.3-0.4,0.3s-0.3-0.3-0.4-0.5s-0.3,0-0.4,0c-0.1,0-0.2-0.1-0.3-0.3c-0.8,0-0.9-0.9-1.5-1.2c0-0.3-0.2-0.3-0.2-0.5
	c-0.6,0-0.6-0.6-1.1-0.7c0-0.3-0.2-0.4-0.2-0.6c0-0.2-0.3,0-0.3,0c0.1-0.7-0.3-0.9-0.4-1.3c-0.2,0-0.2-0.2-0.5,0s0-0.4-0.2-0.5
	c-0.2-0.1,0.2,0.3,0.5,0s0,0.2,0,0.2c0,0,0.3,0.3,0.4,0.5c0.5,0.2,0.9,0.4,1.2,0.8c0.2,0,0.4-0.1,0.6-0.3c0.2,0.2,0.6,0.2,0.8,0.4
	c0.2,0.2,0.2-0.2,0.1-0.5c-0.1-0.3,0.3,0.3,0.7,0.2c0.4-0.1-0.1,0-0.1,0c0-0.5-0.2-0.9-0.6-1.2c0-0.4-0.3-0.9-0.7-0.9H43
	c-0.4-0.3-0.7-0.7-0.8-1.2c0.1,0,0.1,0,0.3,0c0,0.5,0.6,0.5,0.6,1.1c0,0,0,0,0.1,0.1c0,0,0-0.3,0.1-0.2c-0.2-0.2-0.2-0.6-0.5-0.7
	c-0.3-0.1,0.2-0.1,0-0.3c-0.2-0.2-0.3-0.8-1-0.7c0-0.3,0-0.3,0-0.6c-0.4-0.2-0.8-0.3-0.9-0.9c0.4-0.4,1-0.6,1.4-1
	c-0.9-0.2-1.5,0.5-2,0.9c-0.4,0-0.7,0-0.6,0.6c0.2,0,0.2-0.2,0.5-0.2c0.3,0.1-0.4,0.2-0.4,0.5c0,0.3-0.2,0-0.4,0
	c-0.2,0-0.3-0.1-0.4-0.2c-0.1-0.1-0.2,0.3,0,0.3c-0.1,0.1-0.3,0.2-0.5,0.3c0,0.3,0,0.4-0.3,0.4c-0.3-0.1,0,0.3,0,0.5
	c0,0.2-0.2-0.2-0.4,0C37.4,39,37,39.5,36.7,40c0,0.2,0.2,0,0.1,0.3c-0.1,0.3-0.3,0-0.5,0c0,0,0.1,0,0.1,0c0.3,0,0.3-0.2,0.7-0.1
	c0.1,0.2,0.2,0.5,0.2,0.8c0.1,0.3,0.5,0.3,0.5,0.7c-0.6,0-1.2,0.1-1.7,0.4c-0.1,0-0.2-0.1-0.3-0.2c0-0.2,0-0.2,0.1-0.2
	s0.2-0.4,0.1-0.4c0,0,0-0.4,0.1-0.5c0.1-0.1-0.2,0-0.1-0.2c-0.7,0.4-1.2,1.1-1.2,1.9c-0.1,0-0.2,0-0.3,0.2c-0.1,0.2,0,0.5-0.2,0.6
	c0,0.5-0.4,0.5-0.3,1c-0.2,0-0.1,0.5-0.3,0.6c-0.2,0.1,0,0.4,0,0.5c-0.1,0.2-0.2,0.4-0.3,0.6c-0.1,0.4,0,0.7-0.2,0.9
	c0.1,0.1,0.1,0.3,0.2,0.4c-0.3,0.4-0.6,0.8-0.8,1.2c-0.2,0-0.2,0-0.4,0c-0.2,0,0,0.1,0,0.2c-0.4,0-0.4,0.3-0.7,0.4
	c-0.7-0.4-1.6-0.7-2.4-0.8c0-0.4,0-0.7-0.4-0.7c0.2-0.4,0.2-0.9,0.2-1.4c0.2,0,0-0.2,0.3-0.2v-0.7c0.1,0,0.2,0,0.3,0
	c0-0.2,0.4,0,0.4-0.3c0-0.3,0.6,0,0.7-0.2c0.1,0.1,0.2,0.2,0.4,0.3c0.1,0.7,0,1.6-0.8,1.6c-0.1,0.8,0.5,0.7,0.8,0.9h0.2
	c0.2,0,0.3-0.3,0.5-0.4c0-0.3,0.2-0.5,0.4-0.7c0-0.4,0-0.9,0-1.3l0,0c0-0.1,0-0.2,0-0.3l0,0c0,0,0-0.4,0-0.5s0,0,0,0s0-0.5,0-0.7
	c0-0.2,0.3-0.7,0.6-0.9c0.3-0.2,0-0.7,0.3-0.8c0-0.1,0-0.3,0-0.5c0.2,0,0.2,0.2,0.3,0.2c0.2,0,0.3-0.4,0.4-0.8c-0.2,0,0,0.3-0.3,0.2
	c0-0.2,0.2-0.5,0.4-0.6v0.2c0.4,0,0.4-0.7,0.9-0.8c0,0.2,0,0.2,0,0.4c0.2,0,0.4-0.2,0.4-0.5s-0.2-0.2-0.4-0.2c0-0.3,0.1-0.5,0.3-0.7
	c0,0-0.1-0.2-0.3-0.3s0.3-0.4,0.4-0.7c0.1-0.2,0.3,0.3,0.6,0.2c0,0,0.1-0.2,0.2-0.2c0-0.1,0,0.3-0.1,0.2V39c0.4,0,0.4-0.4,0.8-0.4
	c0.1-0.1,0.1-0.2,0-0.3l0.1-0.5c0,0,0-0.2-0.2,0c0.2-0.3,0.4-0.6,0.6-0.9c-0.1-0.2-0.3-0.3-0.5-0.4c0,0,0,0.2,0,0.2s0-0.2-0.2,0
	c-0.2,0.2-0.4,0.3-0.4,0.6c-0.5,0-0.5,0.7-0.9,0.9c0,0.2,0,0.2,0,0.4c0,0.2-0.2,0.4-0.5,0.5c-0.2,0.1-0.2,0-0.3,0
	c0.1,0.2,0.1,0.4,0,0.6c0,0.1,0,0.2,0,0.3c0,0-0.3,0.1-0.3,0.2c0,0.1,0,0.3-0.2,0.4c-0.2,0.1-0.5,0.3-0.5,0.5c0,0.2-0.6,0.3-0.6,0
	h0.3c0-0.4-0.2-0.4-0.3-0.6s0.2,0,0.2-0.3c0-0.3-0.2-0.6-0.5-0.8c-0.2-0.6-0.7-1.1-1.3-1.3v-0.2c-0.5-0.2-1.1,0-1.4,0.5
	c-0.1,0-0.2,0-0.4,0c-0.1,0.4-0.6,0.6-1.2,0.6c-0.1,0.2-0.3,0.3-0.5,0.4c0,0.2,0,0.3,0,0.5c-0.3,0-0.5,0.2-0.7,0.4
	c-0.1-0.2-0.1-0.4,0-0.6c-0.3,0-0.4-0.4-0.7-0.4c-0.1-0.3-0.4-0.4-0.7-0.3c-0.3-0.6-1-0.6-1.6-0.8c-1,0.6-1.6,1.8-2.8,2.2
	c0,0.3-0.2,0.2-0.1,0.5s-0.2,0.3-0.4,0.5c-0.2,0.1-0.5,0.1-0.7,0c-0.1,0-0.3,0-0.4,0c-0.1,0,0,0,0,0c-0.7,0-1.6,0.2-2,0
	c-0.4,0.2-1.2,0-1.1,0.8c-0.5,0.3-0.5,1-0.8,1.6c-0.3-0.3-0.6-0.4-1-0.3c0,0.2-0.1,0.3-0.1,0.5c0,0.2-0.1,0.6-0.1,0.6s0,0.4,0.2,0.4
	c0.2-0.3,0.4-0.7,0.4-1c0.3,0,0.5-0.3,0.5-0.5c0.5-0.3,0.8-0.8,1.2-1.3c0.5,0,1-0.1,1.4-0.4c0.4,0.3,1.2,0.2,1.8,0.2
	c0.1,0.2,0.5,0.5,0.3,0.8c-0.2,0.4-0.4-0.2-0.5-0.3c-0.3,0.1-0.6,0-0.9-0.1c-0.2,0.3-0.6,0-0.7,0.3s0.5,0,0.5,0.4s-0.4,0-0.3,0.1
	s0.3,0,0.3,0.4c0,0.4-0.3,0-0.5,0c-0.1,0-0.2,0.3-0.4,0.4s0-0.3-0.2-0.2H17v0.4c-0.3,0-0.4,0-0.6-0.2c-0.2-0.2,0.2,0.4,0,0.5
	s-0.2-0.3-0.2-0.5s-0.1-0.2-0.3,0c-0.2,0.2-0.2,0.3-0.2,0.5c-0.7,0.1-0.2,1,0.2,1.1c0.4,0.1,0.2-0.3,0.3-0.4
	c0.4-0.1,0.8-0.1,1.1,0.2c0,0.7,0.8,0.2,1,0.5c0.2,0.3-0.3,0-0.3,0.1c0,0.1,0.4,0.3,0.5,0.6c0.9-0.2,0.9,0.6,1.7,0.6
	c0-0.3-0.2-0.3,0-0.5s0.4,0.4,0.7,0.3c0.3-0.2-0.3-0.2,0-0.3c0.3-0.1,0,0.8,0.6,0.7c0-0.2,0-0.4,0.1-0.4s0.5,0.2,0.5,0.6h-0.5
	c-0.3,0.4-0.6,0.2-1.1,0.2c0,0,0,0.4,0,0.5c0,0.1-0.2-0.2-0.3-0.3s-0.5,0.1-0.7,0.3c-0.2-0.3-0.6-0.5-0.9-0.5c0,0,0,0,0,0.2
	c0,0.2-0.1,0-0.2,0c0-0.1,0-0.2,0-0.3c0-0.3-0.4,0-0.5,0s0-0.1,0-0.2c-0.3,0-0.5,0.1-0.7,0.3c0,0.2,0.2,0.2,0.2,0.3
	c0,0.1,0.2-0.1,0.3-0.2c0.1-0.1,0.2,0.5,0.5,0.5c0.3,0-0.1,0,0,0.2c0.1,0.2-0.4-0.3-0.6,0c-0.2-0.2-0.4-0.2-0.7-0.1
	c-0.3-0.5-1.2-0.3-1.7-0.6s-0.3,0.3-0.5,0.3s0,0.2,0,0.2s-0.1-0.2-0.2-0.3c0.3,0,0.3-0.4,0.6-0.5c0.3-0.1-0.8-0.3-1.1-0.2
	c-0.3,0.1,0.1,0,0,0.3c-0.1,0.3-0.2,0-0.4,0s0,0.5,0,0.5c-0.1,0.1-0.2,0.2-0.3,0.4c0.3,0.3-0.2,0.5,0,0.9c0.3,0,0.3,0.3,0.6,0.2v0.3
	c-0.2,0-0.5,0-0.6-0.2h0.1c-0.4,0-0.6,0-0.7,0.4c0,0.4-0.2-0.2-0.1-0.4c0-0.2,0,0,0,0s0-0.4,0-0.5c0,0,0-0.3,0-0.4c0-0.1,0,0,0,0
	s0-0.4,0.2-0.3c0-0.3,0.1-0.5,0.3-0.8c0-0.3,0-0.3,0-0.5c0-0.2,0.4-0.2,0.5-0.3c0.1-0.2,0.7,0.6,1.1,0.4c0.4-0.1,0-0.2,0.3-0.2
	s0.1,0,0.1-0.3c0.3,0.3,0.8,0.4,1,0.8c0.1-0.2,0.3,0,0.3,0.2v-0.5c-0.3,0-0.5-0.2-0.4-0.7h-0.3c0,0,0-0.3,0-0.4s-0.4-0.8-0.7-0.7
	c-0.4,0.1-0.2,0.7-0.5,0.8c-0.3-0.1-0.6-0.4-0.6-0.8c-0.2,0,0,0.2-0.2,0.3c-0.2,0.1-0.4,0.1-0.5,0.2c0,0,0,0.3,0,0.3s-0.4,0-0.6-0.2
	c-0.2-0.2,0-0.7-0.5-0.6c-0.2,0.5,0.5,0.9,0,1.2c0-0.3,0.1-0.2,0-0.4s-0.5-0.4-0.5-0.7c0-0.4-0.3,0-0.3-0.2c0-0.2,0.4,0,0.3-0.2
	c0-0.2-0.7-0.3-0.8-0.8c-0.9-0.2-1.9-0.2-2.8,0c-0.1,0.4-0.2,0.8-0.3,1.2c-0.1,0.3-0.2,0.5-0.3,0.8c-0.3,0.2-0.6,0.3-1,0.3
	c-0.2,0.3-0.7,0-1,0.2c-0.3,0.2,0,0.3,0,0.3s-0.2,0-0.2-0.3c-0.6,0.1-1.2,0-1.7-0.2v0.3c-0.2,0-0.5,0-0.4-0.2s0.2,0,0.4,0
	c-0.4-0.4-0.9-0.6-1.1-1c-0.2-0.4,0-0.7,0-1.1c-0.1,0-0.2,0-0.2-0.2H1.4c0-0.1,0-0.2,0-0.4H0.8c-0.2-0.3-0.5-0.4-0.4-0.9
	S0.1,42.5,0,42.4v2.3c0,0,0,0,0.2,0c0-0.2,0.2,0,0-0.2c-0.2-0.2,0,0.2,0.3,0c0.3-0.2,0-0.4,0-0.6c0-0.2,0.2,0,0.3,0.2
	c0.1,0.2,0,0.7,0,1.2c-0.3,0-0.2-0.3-0.4-0.3L0.3,45.3L0.3,45.3z M28.6,56.3c0.2,0,0.1-0.3,0.3-0.2c0.3,0,0,0.3,0,0.3s0,0.5-0.1,0.5
	h-0.1c0,0-0.1,0-0.1-0.2C28.6,56.6,28.5,56.4,28.6,56.3L28.6,56.3z M26,50.4c-0.1,0.6-0.1,1.2-0.1,1.8c-0.5-0.2-0.5-1.7,0-1.9
	L26,50.4z M17,43.3c-0.2,0-0.2,0-0.4,0c0-0.4,0.3-0.4,0.5-0.3v0.3L17,43.3z M52.4,33.3c0.5-0.2,0.9,0.1,1.2,0.3c-0.4,0-1,0-1.2-0.5
	L52.4,33.3z M52.3,32.9c0,0.1-0.2,0.3-0.4,0.4c-0.2,0.1-0.7-0.2-0.9-0.3c0.3-0.2,0.8,0,1.1,0L52.3,32.9L52.3,32.9z M41.7,34.5
	c0,0.3-0.5,0.3-0.6,0.5h-0.2C40.9,34.6,41.4,34.7,41.7,34.5L41.7,34.5z M34.4,40.3c0.1,0,0,0,0.3,0c0,0.1-0.2,0.2-0.3,0.2
	c0-0.1,0-0.2,0-0.3L34.4,40.3z M51.8,42.9c0.4,0,0.4-0.4,0.6-0.4s0,0.5,0,0.7c0,0.2-0.2,0.2-0.4,0.2c0-0.2,0-0.3,0-0.5L51.8,42.9z
	 M54.1,48c0.1,0,0.1-0.3,0.3-0.3c0.2,0,0.2,0,0.2,0v0.5c-0.1,0-0.3,0-0.4,0L54.1,48z M53.5,45.7h-0.1c0.3-0.3,0.8-0.5,1.2-0.4v0
	c0,0.3-0.5,0.3-0.6,0.5h-0.1c-0.3,0.4-0.8,0.7-1.4,0.8c-0.1-0.2-0.1-0.4,0-0.6c0.3,0.1,0.6-0.1,0.8-0.5L53.5,45.7z M62.3,44.8
	c-0.2,0-0.3-0.2-0.3-0.5h0.1C62.1,44.3,62.4,44.6,62.3,44.8L62.3,44.8z M60.4,40c0,0,0-0.2,0.2-0.2s0.2,0,0.2,0.2
	c-0.1,0-0.3,0-0.3-0.2L60.4,40z M58,37c0-0.2-0.2,0,0-0.3h0.2c0.4,0.4,0.9,0.7,1.2,1.3H59C58.8,37.6,58.5,37.2,58,37L58,37z
	 M54.7,56.8c0-0.2-0.2-0.2-0.2-0.5s0.9,0,1,0.5c-0.3,0-0.4-0.2-0.8-0.2L54.7,56.8z M50.9,54.1c0.5,0.2,0.7,0.8,0.6,1.3
	c-0.4-0.3-0.6-0.7-0.6-1.2L50.9,54.1z M38.9,44c0,0.2-0.5,0.2-0.4,0c0.2,0,0.3,0.1,0.4,0.3L38.9,44z M23.5,40.6
	c-0.2,0-0.2-0.4,0-0.3c0.2,0,0.2,0,0.2,0.3L23.5,40.6z M9.3,49.7c0,0,0,0,0-0.2c0-0.2,0.5,0,0.5,0H9.7c0,0.3-0.4,0.2-0.5,0L9.3,49.7
	z M63.1,58.3c0-0.1,0-0.3,0-0.4C63.1,58.1,63.1,58.2,63.1,58.3L63.1,58.3z M42.6,35.8c0-0.2,0-0.3,0-0.5s-0.2,0-0.2,0s0.5,0,0.7,0
	c0.1,0,0-0.2,0-0.3s0.2-0.2,0.5-0.2c0,0.5,0.4,0.4,0.7,0.5c0,0.1,0,0.2-0.1,0.3c-0.1,0.1-0.2,0.2-0.3,0.2c0,0-0.2,0-0.3,0
	c0.3,0,0.3,0.1,0.3,0.1c0.2,0.3,0.2,0.8,0.5,1c0.3,0.2-0.2,0.2,0,0.4s0.2,0,0.3,0c0.1,0.4-0.2,0.7-0.5,0.4V38c0.4,0.1,0.8,0.1,1.3,0
	c0,0.2,0.4,0.4,0.1,0.6c0.2,0.2,0.5,1,0,1c-0.1,0.8-0.1,1.7,0,2.5c0.4,0.3,0.2,1.2,0.7,1.5v0.3c-0.5-0.3-0.6-1.2-1-1.7
	c-0.4-0.5,0-0.3,0-0.4c0-0.1-0.2-0.2-0.3-0.3s-0.1-0.7-0.3-0.8c-0.1-0.4-0.2-0.9-0.4-1.2h-0.1c0,0,0-0.3,0-0.5c0-0.1-0.4-0.6-0.4-1
	c0-0.4-0.5-0.7-0.5-1.2c-0.6,0-0.3,1-0.7,1.2c-0.2-0.6,0.2-1,0-1.7h0.2c0,0-0.2,0-0.2-0.2L42.6,35.8z M44.6,37.4
	c0-0.5-0.2-0.6,0.1-0.7c0.1,0.3,0.2,0.6,0.4,0.9c0.2,0,0-0.3,0.3-0.2c0.3,0.1,0,0.3,0,0.5c0,0-0.2,0-0.4,0s-0.1-0.3-0.3-0.3
	L44.6,37.4z"/>
</svg>
