<?xml version="1.0" encoding="utf-8"?>
<!-- Generator: Adobe Illustrator 22.1.0, SVG Export Plug-In . SVG Version: 6.00 Build 0)  -->
<svg version="1.1" id="Layer_1" xmlns="http://www.w3.org/2000/svg" xmlns:xlink="http://www.w3.org/1999/xlink" x="0px" y="0px"
	 preserveAspectRatio="none" viewBox="0 0 870 5" style="enable-background:new 0 0 870 5;" xml:space="preserve">
<style type="text/css">
	.st0{fill:#FFEFD6;}
	.st1{fill:#7C6742;}
</style>
<rect y="0.2" class="st0" width="870" height="4.8"/>
<path class="st1" d="M867.1,4.9C867.2,4.9,867.2,4.9,867.1,4.9L867.1,4.9c-0.8,0.1-1.7,0.1-2.6,0h0.2c0.2,0,0.4,0,0.7,0H863
	c0.3,0,0.5,0,0.8-0.1h0.2c-1.3-0.1-2.7,0.1-4,0c-0.2,0,0,0-0.3,0c-1.5,0-2.9,0-4.4-0.1c0-0.1,0.1-0.1,0.1-0.1c0.6,0,1.2,0,1.8-0.1
	c-0.3,0-0.4,0-0.8,0c-1.7,0.1-3.4,0.1-5.1,0h-0.9c-0.5,0-1.7,0-1.8,0.1c0.5,0,0.9,0.1,1.5,0.1c1.2,0,2.4,0,3.6,0c0.2,0,0.1,0,0.6,0
	c0.1,0.1-0.1,0.1-0.4,0.1c-1.5,0-3.1,0-4.6,0c-0.9,0-2.2,0-2.7,0c0,0.1-0.6,0-0.6,0.1l0.8,0.1h-1.2V4.9c-0.4,0-0.9,0-1.3,0L843.8,5
	h-34.2L809,4.9h-1.2l0.1,0.1h-686c-4.9,0-11.8,0-17.5,0H90.7c0,0,0.1,0,0.1,0h0h-1.2c0,0-0.1,0-0.3,0c0,0,0.1,0,0.1,0h-8.4l0.2,0
	h-1.2c0,0,0,0,0,0h-8.8L71,5h-1.9v0h-1.2l0.3,0H26.1l-0.6-0.1c-0.4,0-0.9,0-1.3,0V5h-1.2l0.8-0.1c0-0.1-0.5,0-0.6-0.1
	c-0.5,0.1-1.8,0-2.7,0c-1.5,0-3.1,0-4.6,0c-0.3,0-0.5-0.1-0.4-0.2c0.5,0,0.3,0,0.6,0c1.2,0,2.4,0,3.6,0c0.6,0,1-0.1,1.5-0.1
	c-0.1-0.1-1.3-0.1-1.8-0.1h-0.9c-1.7,0.1-3.4,0.1-5.1,0c-0.3,0-0.5,0-0.8,0.1c0.5,0.1,1.1,0.2,1.7,0.2c0,0,0.1,0,0.1,0.1
	c-1.4,0.1-2.9,0.2-4.3,0.1c-0.3,0-0.1,0-0.3,0c-1.3,0.1-2.8-0.1-4,0h0.2H6.1c0.3,0,0.5,0,0.8,0.1H4.8c-0.4,0-0.7,0-1.1,0H0.9l0.7,0
	c-0.3,0-0.7-0.1-1-0.1c-0.2,0-0.4,0-0.5,0V4.7h3c0,0,0-0.1,0-0.1H1c-0.3,0-0.7,0-1-0.1V3.7h134V4h536.9H870v0.6c-0.4,0-0.7,0-1,0
	h-2.1c0,0,0,0.1,0,0.1h3.1c-0.2,0-0.4,0-0.5,0c-0.3,0-0.7,0.1-1,0.1l0.6,0.1H867.1z M45.1,2.5H0V0.8h1.4c0,0,0.7,0,0.5-0.1
	c2,0,3,0,4.9,0c-0.1,0-0.4,0-0.3,0.1c1.9,0,3.9,0.1,5.8,0c0.8,0,1.6,0,2.4,0c0.4,0,1.1,0,2.1,0c0.3,0,0.2,0,0.5,0c1.7,0,4.3,0,5.6,0
	c0.8,0.1,3.4,0.1,3.2-0.1l-2-0.1c-2.5,0-5,0-7.2,0c0-0.1,2,0,2.2-0.1c0.6,0.1,2.3,0,3.1,0.1c0.5-0.1,1.1-0.1,1.7-0.2
	c-0.1,0-0.5,0-0.6-0.1c-0.5,0.1-1.8,0-2.7,0c-1.5-0.1-3-0.1-4.6,0c-0.3,0-0.5-0.1-0.4-0.2c0.5,0,0.3,0,0.6,0c1.2,0,2.4,0,3.6,0
	c0.6,0,1-0.1,1.5-0.1C21.1,0,20.9,0,20.8,0H66c-0.1,0-0.1,0-0.2,0h783.3c-0.2,0-0.4,0.1-0.5,0.2c0.5,0,0.9,0.1,1.5,0.1
	c1.2,0,2.4,0,3.6,0c0.2,0,0.1,0,0.6,0c0.1,0.1-0.1,0.2-0.4,0.2c-1.5-0.1-3.1-0.1-4.6,0c-0.9,0-2.2,0.1-2.7,0c0,0.1-0.6,0.1-0.6,0.1
	c0.5,0.1,1.1,0.2,1.6,0.2c0.9-0.1,2.6,0,3.2-0.1c0.2,0.1,2.3-0.1,2.3,0.1c-2.2,0-4.8,0-7.3,0h-1.9c-0.2,0.3,2.4,0.2,3.2,0.1
	c1.3,0.1,3.9,0,5.7,0c0.2,0,0.1,0,0.5,0c1,0,1.6-0.1,2.1-0.1c0.8,0,1.6,0,2.4,0c1.9,0.1,3.9,0,5.8,0c0-0.1-0.2-0.1-0.3-0.1
	c1.9,0,2.9,0,4.9,0c-0.2,0.1,0.5,0.1,0.5,0.1h1.4V3H45C45,2.8,45,2.7,45.1,2.5z M14.5,5h-1.2c0.5-0.1,1.1-0.1,1.6,0
	C14.7,5,14.6,5,14.5,5L14.5,5z M8.3,0.5L8.3,0.5c0.3,0,0.6,0,0.9,0C9.3,0.6,8.8,0.6,8.3,0.5C8.3,0.6,8.3,0.6,8.3,0.5z M14.8,0.6
	c-1.1,0.1-2.2,0.1-3.4,0c0,0,0-0.1,0-0.1c0.4,0,1.1,0,1.8,0c-0.1-0.1,1-0.1,1.6-0.1C14.1,0.5,14.9,0.6,14.8,0.6z M14.8,0h2.3
	C16.4,0,15.6,0,14.8,0z M0,0.7V0.5c0.5,0,1.1-0.1,1.6-0.1c-0.4,0-0.7-0.1-1.1-0.1c-0.2,0-0.4,0-0.5,0V0.2h3.1c0,0,0-0.1,0.1-0.1h1.3
	c0,0-0.1,0,0,0.1c0.7,0,1.5,0,2.2,0c0.5,0,0.2,0.1,0.6,0.1c0.8-0.1,2.7,0,3.4-0.1c-0.1,0-0.2,0-0.3,0h2.4c0.6,0.1,1.2,0.2,1.8,0.1
	c0,0,0.1,0,0.1,0.1c-1.4,0.1-2.9,0.2-4.3,0.1c-0.3,0-0.1,0-0.3,0c-1.3,0.1-2.8,0-4,0h0.2H6.1c0.4,0,0.9,0.1,1.3,0.2H7.3
	c-0.7,0-1.5,0-2.2,0C4.4,0.6,3.8,0.6,3.2,0.7C2.1,0.6,1.1,0.6,0,0.7L0,0.7z M870,0.3V0.1h-3.2c0,0,0-0.1,0-0.1h-1.3
	c0,0,0.1,0.1,0,0.1c-0.8,0-1.5,0-2.3,0c-0.5,0-0.2,0.1-0.6,0.1c-0.9-0.1-2.8,0-3.5-0.1c0.1,0,0.2,0,0.3,0h-2.5
	c-0.6,0.1-1.2,0.2-1.8,0.1c0,0-0.1,0-0.1,0.1c1.5,0.1,3,0.2,4.4,0.1c0.3,0,0.1,0,0.3,0c1.3,0.1,2.8-0.1,4.1,0h-0.2
	c-0.5,0-0.9,0.1-1.3,0.2h0.2c0.8,0,1.5,0,2.3,0c0.6,0,1.2,0,1.8,0c1.1-0.1,2.2-0.1,3.3,0v0c-0.6,0-1.1-0.1-1.6-0.1
	c0.4,0,0.7-0.1,1-0.1C869.5,0.2,869.7,0.3,870,0.3z M864.3,0.4h0.2c0.9,0,2.8-0.1,2.6,0.1C866.2,0.5,865.3,0.5,864.3,0.4L864.3,0.4z
	"/>
</svg>
