<?xml version="1.0" encoding="utf-8"?>
<!-- Generator: Adobe Illustrator 22.0.0, SVG Export Plug-In . SVG Version: 6.00 Build 0)  -->
<svg version="1.1" id="Layer_1" xmlns="http://www.w3.org/2000/svg" xmlns:xlink="http://www.w3.org/1999/xlink" x="0px" y="0px"
	 preserveAspectRatio="none" viewBox="0 0 7 509" style="enable-background:new 0 0 7 509;" xml:space="preserve">
<rect style="fill:#FFEFD6;" width="7" height="508.9"/>
<path style="fill:#7C6742;" d="M0.1,506.9c0,0.5,0,1,0,1.4H0v0.7h3.5V0H0v0.6h0.2c0,0.5,0,1-0.1,1.5V6H0c0-2,0-3.9,0-6l0.2,0.1
	c0,0.2,0,0.4,0,0.5h0.4c0,0.3,0,0.7,0,1C0.5,2.2,0.5,2.9,0.4,3.5C0.3,2.6,0.2,1.8,0.2,0.8v6.5c0-0.2-0.1-0.4-0.1-0.3c0,0,0,0-0.1,0
	c0,1.6,0,3.3,0.1,4.9C0,12.1,0,12,0,12.5c0.1,1.6,0,5.3,0.2,6.5c0.1-1,0.1-2,0.1-3c0-1.2,0-2.3,0-3.5V14c0.1-0.7,0.2-1.4,0.2-2.1
	v-0.4c0.1,2.3-0.1,4.9,0,7.3c0,0.3,0-0.1,0,0.6c-0.1,2.6,0,5.3,0.1,7.9c0.1,0,0.1-0.3,0.1-0.3c-0.1-1.1,0-2.2,0.2-3.2
	C1,24.3,1,24.6,1,25.2c-0.1,3.1-0.1,6.2,0,9.2V36c-0.1,0.9-0.1,3-0.2,3.2c0-0.8-0.1-1.6-0.1-2.7c0.1-2.2,0.1-4.4,0-6.5
	c0-0.4,0-0.2,0-1.1c-0.1-0.2-0.2,0.1-0.2,0.8c0,3.5,0.2,6,0,8.4c0,1.7-0.1,3.9,0,4.9c-0.1,0.1,0,1.2-0.1,1c-0.1-0.8-0.1-1.6-0.2-2.3
	v3.5c0-0.1,0-0.3,0-0.4h0.2c0,0.8,0,1.6,0,2.4l-0.1,1.1H0v319.3c0.1,0.1,0.1,0.2,0.1,1c0.1-0.7,0.1-1.3,0.1-2l0.3,0.3
	c0,4.2,0,8.2-0.1,12.1c-0.2,0.9-0.1-1.7-0.2-1.3c0.1-1.2,0-3.1,0-6.2c-0.1,0.3-0.1,0.7-0.1,1v12.7c0,0.6,0.1,1.2,0.2,1.8
	c0-0.8,0.1-1.2,0.3-1c0.1,2.8,0.1,7.6-0.3,8.1c0,0.9,0,1.8,0,2.6c-0.1,0.8-0.2,1.7-0.2,2.5v36.9c0.2-0.3,0.2-1.8,0.4-1
	c0.1,2.2,0.1,4.4,0,6.6c0,1.4,0.1,0.6,0.1,1.7c-0.2,2.5,0,8.3-0.3,10.3c-0.1-1.6-0.2-3.2-0.1-4.8c0-2.9,0-5.9-0.2-8.8v0.5v45.7
	c0.3-8,0.3-16.1,0.1-24.2c0.1-0.7,0.1-1.4,0.2-2.1c0.3,1.7,0.4,3.5,0.3,5.2c0.1-0.1,0.1,0.4,0.1,0.4C1.2,463.2,1,457,1,452.8
	c0-0.9,0.1-0.4,0.1-0.9c0.2-3.9-0.2-8.2,0-12v0.7l0.1-0.3c0,1.3,0.2,2.6,0.4,3.9c0.1-0.1,0.1-0.5,0.1-0.5c0.1-2.2,0.1-4.4,0.1-6.7
	c0.1-1.8,0.1-3.5,0.1-5.3c-0.1-3.2-0.1-6.5,0-9.7c-0.2-0.7-0.1,14-0.2,12.5V434v-0.4c0.1-3.5,0.2-7.1,0.1-10.7
	c-0.4-1.2-0.4,3.5-0.3,7.1l0,0c0,0.5,0,1,0,1.5c0,0.8,0.1,1.5,0.1,1.9v0.4v0.4c-0.1,1.1,0-14.1,0-12.5c0,1.5-0.2,3.1-0.4,4.5
	c0-1-0.1-2-0.3-2.9c0-1.1,0.1-1.5,0.1-2.7c-0.1-3.7-0.1,9.2-0.1,5c0.1,0.1,0-2,0.1-1.4c-0.1-2.9-0.1-5.9,0-8.8
	c-0.1-2.8,0-5.7,0.2-8.5c0.3-0.4,0.1,3.4,0.5,2.5c0.2-4-0.1-12.7,0-17.7c0-0.7,0-0.9,0.1-0.9c-0.1-1.8-0.2-3.5-0.1-5.3
	c0.1-0.3,0.2-0.7,0.4-0.6c0-1.5-0.1-2.2-0.2-2.2c0-1.1,0-1.6,0-2.6c0-0.9,0-1.8,0-2.7c-0.1-1,0-2.1,0.1-3.1v0.2l0.1-0.2
	c0.1-0.4,0,2.1,0.1,1.7c0.2-1.3,0.3-2.7,0.2-4.1c0-0.2,0.1-0.4,0.1-0.7V412c-0.1-0.5-0.1-1-0.1-1.5C2,411,2.2,413.6,2,414
	c0.2,5.5,0.2,10.9,0,16.4c-0.1,1.4,0.1,1.1,0.1,1.8c-0.1,2.5,0-9.6,0-5.9c-0.1-0.1,0,2-0.1,1.4c0.1,5.9,0.1,9,0,14.6
	c0.1-0.3,0.1-0.9,0.1-0.9c0,5.8,0.1,11.4,0,17.3C2,461.1,2,463.4,2,465.8c0,1.3,0.1,3.2,0.1,6.2c0,1-0.1,0.6-0.1,1.3
	c0,5.1,0.2,21.1,0,25.1c0.1,2.5,0.3,10.1-0.3,9.4c-0.1-9.4,0-27.4-0.1-35.7c-0.3,0.1,0,6.1-0.2,6.7c0.2,1.8,0.1,15.1,0.2,17.6
	c-0.2,1.6-0.4,3.2-0.5,5c-0.2,0.2-0.1-1.7-0.2-1.7C1,498,1,486.2,1,483.4c-0.1-4.6-0.1-9.1,0-13.7c-0.1-1-0.2-1.6-0.4-1.2
	c-0.1,1.4,0.1,1.1,0.1,1.7c-0.1,3.6-0.1,7.1-0.1,10.7c0,1.9-0.2,11.4-0.2,12.8c-0.3-0.4-0.2-12.8-0.4-14v25.5c0,0.3,0.1,0.7,0.1,1
	C0.1,506.4,0.1,506.6,0.1,506.9c0,0.6,0,1-0.1,1c0,0.2,0,0.6,0,1h1.1v0.1c0.1-1.1,0.1-2.1,0.1-3.3S1,504.2,1,503H0.7
	c0,1.7,0,3,0,4.2c-0.1,0-0.2,0.9-0.3,0.6c0-1.4,0-2.8-0.2-4C0.1,504.4,0.1,505.9,0.1,506.9z M0.1,11.7v0.1v-0.3V11.7L0.1,11.7z
	 M5.8,0H4.7v509h1.1V29.2c0,0.1-0.1,0.4-0.1,0.8c0,2.8,0,5.6,0,8.4c0,1.7-0.1,3.9,0,4.9c-0.1,0.1-0.1,0.9-0.1,1l0,0
	c-0.1-1.1-0.1-2.1-0.2-3.1c0.1-1.5,0-4.6,0.1-5.7c-0.1-0.4,0-4.1-0.1-4.1c0,4,0,8.7,0,13.2v3.5c-0.2,0.4-0.2-4.3-0.1-5.9
	c0-2.4,0-7.2,0-10.4c0-0.4,0-0.2,0-0.8c0-1.8,0-3,0-3.8c0-1.5,0-2.9,0-4.4c-0.1-3.5,0-7,0-10.6c0.1-0.1,0.1,0.4,0.1,0.6
	c0-3.4,0-5.3,0-9C5.3,4.5,5.3,3.2,5.3,3.2c0-0.8,0-1.8,0-2.7h0.2c0.1,1.9,0.1,3.9,0,5.9c0,1.1,0,2.2,0,3.3c0,1.4,0,2.7,0,4.1v0.3
	c0.1-0.8,0.1-1.6,0.2-2.4l0.1-0.4c0.1,2.3-0.1,4.9,0,7.3c0,0.3,0-0.1,0,0.6c-0.1,2.6,0,5.2,0.1,7.8L5.8,0L5.8,0z M0,16L0,16L0,16z
	 M0,18v-2C0,16.7,0,17.3,0,18z M0,24v-2C0,22.6,0,23.3,0,24z M0,27.8v-0.1C0,27.3,0.1,27,0.1,28c0.1-1,0-3-0.1-3V27.8z M0,35v-0.5
	c0,0.1,0,0.2,0,0.3V35z M5.9,11.7L5.9,11.7c0.1-1.6,0.2-5,0-4.7c-0.1,1.7-0.1,3.3,0,5V11.7L5.9,11.7z M5.9,16L5.9,16
	c-0.1,1-0.1,2.1,0,2C5.9,17.3,5.9,16.7,5.9,16L5.9,16z M5.9,27.9c0,0.2,0.2-1.3,0.2,0c0.1-1.1,0-3-0.1-2.8C6,24,6,22.8,6,22H5.9
	C5.8,24,5.8,26,5.9,27.9L5.9,27.9z M5.8,0c0,1,0.1,2,0.2,3c0-0.6,0.1-1.3,0.1-1.9c0-0.3,0-0.7,0-1L5.8,0z M1.3,420
	c-0.2-2-0.2-4-0.1-6C1.4,416,1.5,418,1.3,420z M1.2,447L1.2,447c0,1,0,2,0,3c0.1,0.3,0.1-1.5,0.1-3H1.2z M1.5,466L1.5,466
	c0.1-3.3,0.2-6.7,0.1-10H1.4c0,1.3,0,3.3,0,5.2c-0.2-0.2-0.3,3-0.2,4.8C1.3,463.8,1.4,466.3,1.5,466z"/>
</svg>
