<?xml version="1.0" encoding="utf-8"?>
<!-- Generator: Adobe Illustrator 22.1.0, SVG Export Plug-In . SVG Version: 6.00 Build 0)  -->
<svg version="1.1" id="Layer_1" xmlns="http://www.w3.org/2000/svg" xmlns:xlink="http://www.w3.org/1999/xlink" x="0px" y="0px"
	 preserveAspectRatio="none" viewBox="0 0 7 509" style="enable-background:new 0 0 7 509;" xml:space="preserve">
<style type="text/css">
	.st0{fill:#FFF5E1;}
	.st1{fill:#7C6742;}
</style>
<rect x="0" y="0" class="st0" width="7" height="509"/>
<path class="st1" d="M6.1,506.9c0,0.5,0,1,0,1.4h0.1v0.7H2.7V0h3.5v0.6H6c0,0.5,0,1,0.1,1.5V6h0.1c0-2,0-3.9,0-6L6,0.1
	c0,0.2,0,0.4,0,0.5H5.6c0,0.3,0,0.7,0,1c0.1,0.6,0.1,1.2,0.2,1.9C5.9,2.6,5.9,1.8,6,0.8v6.5C6,7.1,6,6.9,6.1,7c0,0,0,0,0.1,0
	c0.1,1.6,0.1,3.2,0,4.9c0,0.2,0.1,0.1,0.1,0.6c-0.1,1.6,0,5.3-0.2,6.5C6,18,5.9,17,6,16c0-1.2,0-2.3,0-3.5V14
	c-0.1-0.7-0.2-1.4-0.2-2.1v-0.4c-0.1,2.3,0.1,4.9,0,7.3c0,0.3,0-0.1,0,0.6c0.1,2.6,0,5.3-0.1,7.9c-0.1,0-0.1-0.3-0.1-0.3
	c0.1-1.1,0-2.2-0.2-3.2c-0.1,0.5-0.1,0.8-0.1,1.4c0.1,3.1,0.1,6.2,0,9.2v1.6c0.1,0.9,0.1,3,0.2,3.2c0-0.8,0.1-1.6,0.1-2.7
	c-0.1-2.2-0.1-4.4,0-6.5c0-0.4,0-0.2,0-1.1c0.1-0.2,0.2,0.1,0.2,0.8c0,3.5-0.2,6,0,8.4c0,1.7,0.1,3.9,0,4.9c0.1,0.1,0,1.2,0.1,1
	c0.1-0.8,0.1-1.6,0.2-2.3v3.5c0-0.1,0-0.3,0-0.4H5.9c0,0.8,0,1.6,0,2.4L6,48.3h0.1v319.3c-0.1,0.1-0.1,0.2-0.1,1
	c-0.1-0.7-0.1-1.3-0.1-2l-0.3,0.3c0,4.2,0,8.2,0.1,12.1c0.2,0.9,0.1-1.7,0.2-1.3c-0.1-1.2,0-3.1,0-6.2c0.1,0.3,0.1,0.7,0.1,1v12.7
	c0,0.6-0.1,1.2-0.2,1.8c0-0.8-0.1-1.2-0.3-1c-0.1,2.8-0.1,7.6,0.3,8.1c0,0.9,0,1.8,0,2.6c0.1,0.8,0.2,1.7,0.2,2.5v36.9
	c-0.2-0.3-0.2-1.8-0.4-1c-0.1,2.2-0.1,4.4,0,6.6c0,1.4-0.1,0.6-0.1,1.7c0.2,2.5,0,8.3,0.3,10.3c0.1-1.6,0.2-3.2,0.1-4.8
	c0-2.9,0-5.9,0.2-8.8v0.5v45.7c-0.3-8-0.3-16.1-0.1-24.2c-0.1-0.7-0.1-1.4-0.2-2.1c-0.3,1.7-0.4,3.5-0.3,5.2
	c-0.1-0.1-0.1,0.4-0.1,0.4c-0.5-2.5-0.2-8.6-0.2-12.9c0-0.9-0.1-0.4-0.1-0.9c-0.2-3.9,0.2-8.2,0-12v0.7L5,440.3
	c0,1.3-0.2,2.6-0.4,3.9c-0.1-0.1-0.1-0.5-0.1-0.5c-0.1-2.2-0.1-4.4-0.1-6.7c-0.1-1.8-0.1-3.5-0.1-5.3c0.1-3.2,0.1-6.5,0-9.7
	c0.2-0.7,0.1,14,0.2,12.5V434v-0.4c-0.1-3.5-0.2-7.1-0.1-10.7c0.4-1.2,0.4,3.5,0.3,7.1c0,0,0,0,0,0c0,0.5,0,1,0,1.5
	c0,0.8-0.1,1.5-0.1,1.9v0.4v0.4c0.1,1.1,0-14.1,0-12.5c0,1.5,0.2,3.1,0.4,4.5c0-1,0.1-2,0.3-2.9c0-1.1-0.1-1.5-0.1-2.7
	c0.1-3.7,0.1,9.2,0.1,5c-0.1,0.1,0-2-0.1-1.4c0.1-2.9,0.1-5.9,0-8.8c0.1-2.8,0-5.7-0.2-8.5c-0.3-0.4-0.1,3.4-0.5,2.5
	c-0.2-4,0.1-12.7,0-17.7c0-0.7,0-0.9-0.1-0.9c0.1-1.8,0.2-3.5,0.1-5.3c-0.1-0.3-0.2-0.7-0.4-0.6c0-1.5,0.1-2.2,0.2-2.2
	c0-1.1,0-1.6,0-2.6c0-0.9,0-1.8,0-2.7c0.1-1,0-2.1-0.1-3.1v0.2l-0.1-0.2c-0.1-0.4,0,2.1-0.1,1.7c-0.2-1.3-0.3-2.7-0.2-4.1
	c0-0.2-0.1-0.4-0.1-0.7v40.8c0.1-0.5,0.1-1,0.1-1.5c0.2,0.2,0.1,2.8,0.2,3.2c-0.2,5.5-0.2,10.9,0,16.4c0.1,1.4-0.1,1.1-0.1,1.8
	c0.1,2.5,0-9.6,0-5.9c0.1-0.1,0,2,0.1,1.4c-0.1,5.9-0.1,9,0,14.6c-0.1-0.3-0.1-0.9-0.1-0.9c0,5.8-0.1,11.4,0,17.3
	c0.1,2.4,0.1,4.7,0.1,7.1c0,1.3-0.1,3.2-0.1,6.2c0,1,0.1,0.6,0.1,1.3c0.1,5.1-0.1,21.2,0.1,25.2c-0.1,2.5-0.3,10.1,0.3,9.4
	c0.1-9.4,0-27.4,0.1-35.7c0.3,0.1,0,6.1,0.2,6.7c-0.2,1.8-0.1,15.1-0.2,17.6c0.2,1.6,0.4,3.2,0.5,5c0.2,0.2,0.1-1.7,0.2-1.7
	c-0.1-1.7-0.1-13.5-0.1-16.3c0.1-4.6,0.1-9.1,0-13.7c0.1-1,0.2-1.6,0.4-1.2c0.1,1.4-0.1,1.1-0.1,1.7c0.1,3.6,0.1,7.1,0.1,10.7
	c0,1.9,0.2,11.4,0.2,12.8c0.3-0.4,0.2-12.8,0.4-14v25.5c0,0.3-0.1,0.7-0.1,1C6.1,506.4,6.1,506.6,6.1,506.9c0,0.6,0,1,0.1,1
	c0,0.2,0,0.6,0,1H5.1l0,0.1C5,507.9,5,506.9,5,505.7s0.1-1.5,0.1-2.7h0.3c0,1.7,0,3,0,4.2c0.1,0,0.2,0.9,0.3,0.6c0-1.4,0-2.8,0.2-4
	C6.1,504.4,6,505.9,6.1,506.9z M6.1,11.7c0,0,0,0.1,0,0.1v-0.3L6.1,11.7L6.1,11.7z M0.3,0h1.2v509H0.4V29.2c0,0.1,0.1,0.4,0.1,0.8
	c0,2.8,0,5.6,0,8.4c0,1.7,0.1,3.9,0,4.9c0.1,0.1,0.1,0.9,0.1,1h0.1c0.1-1.1,0.1-2.1,0.2-3.1c-0.1-1.5,0-4.6-0.1-5.7
	c0.1-0.4,0-4.1,0.1-4.1c0,4,0,8.7,0,13.2v3.5C1,48.6,1,43.9,0.9,42.4c0-2.4,0-7.2,0-10.4c0-0.4,0-0.2,0-0.8c0-1.8,0-3,0-3.8
	c0-1.5,0-2.9,0-4.4c0.1-3.5,0-7,0-10.6c-0.1-0.1-0.1,0.4-0.1,0.6c0-3.4,0-5.3,0-9c0.1,0.4,0.1-0.8,0.1-0.8c0-0.8,0-1.8,0-2.7H0.7
	c-0.1,1.9-0.1,3.9,0,5.9c0,1.1,0,2.2,0,3.3c0,1.4,0,2.7,0,4.1v0.3c-0.1-0.8-0.1-1.6-0.2-2.4l-0.1-0.4c-0.1,2.3,0.1,4.9,0,7.3
	c0,0.3,0-0.1,0,0.6c0.1,2.6,0,5.2-0.1,7.8V0z M6.2,16L6.2,16L6.2,16z M6.2,18v-2C6.1,16.7,6.1,17.3,6.2,18z M6.2,24v-2
	C6.2,22.6,6.2,23.3,6.2,24z M6.2,27.8v-0.1c0-0.3-0.1-0.6-0.1,0.4c-0.1-1,0-3,0.1-3V27.8z M6.2,35v-0.5c0,0.1,0,0.2,0,0.3V35z
	 M0.3,11.7H0.2c0-1.6-0.1-5,0.1-4.7c0.1,1.7,0.1,3.3,0,5v-0.4V11.7z M0.3,16L0.3,16c0.1,1,0.1,2.1,0,2C0.2,17.3,0.2,16.7,0.3,16
	L0.3,16z M0.2,27.9c0,0.2-0.2-1.3-0.2,0c-0.1-1.1,0-3,0.1-2.8c0-1.1,0-2.3,0-3.1h0.1C0.4,24,0.4,26,0.2,27.9L0.2,27.9z M0.3,0
	c0,1-0.1,2-0.2,3c0-0.6-0.1-1.3-0.1-1.9c0-0.3,0-0.7,0-1L0.3,0z M4.8,420c0.2-2,0.2-4,0.1-6C4.7,416,4.7,418,4.8,420z M5,447L5,447
	c0,1,0,2,0,3c-0.1,0.3-0.1-1.5-0.1-3H5z M4.6,466L4.6,466c-0.1-3.3-0.2-6.7-0.1-10h0.2c0,1.3,0,3.3,0,5.2c0.2-0.2,0.3,3,0.2,4.8
	C4.9,463.8,4.7,466.3,4.6,466z"/>
</svg>
