<?xml version="1.0" encoding="utf-8"?>
<!-- Generator: Adobe Illustrator 22.1.0, SVG Export Plug-In . SVG Version: 6.00 Build 0)  -->
<svg version="1.1" id="Layer_1" xmlns="http://www.w3.org/2000/svg" xmlns:xlink="http://www.w3.org/1999/xlink" x="0px" y="0px"
	 preserveAspectRatio="none" viewBox="0 0 7 420" style="enable-background:new 0 0 7 420;" xml:space="preserve">
<style type="text/css">
	.st0{fill:#FFEFD6;}
	.st1{fill:#7C6742;}
</style>
<rect x="0.4" class="st0" width="6.6" height="420"/>
<path class="st1" d="M6.1,1.7c0-0.4,0-0.8,0-1.2h0.1V0H2.7v420h3.5v-0.5H6c0-0.4,0-0.8,0.1-1.2V415h0.1c0,1.6,0,3.2,0,5L6,419.9
	c0-0.1,0-0.3,0-0.4H5.6c0-0.3,0-0.6,0-0.8c0.1-0.5,0.1-1,0.2-1.5c0.1,0.7,0.2,1.5,0.2,2.2v-5.4c0,0.2,0.1,0.3,0.1,0.3c0,0,0,0,0.1,0
	c0.1-1.3,0.1-2.7,0-4c0-0.1,0.1-0.1,0.1-0.5c-0.1-1.4,0-4.4-0.2-5.4C6,405.1,5.9,406,6,406.8c0,1,0,1.9,0,2.9v-1.3
	c-0.1,0.6-0.2,1.1-0.2,1.7v0.3c-0.1-1.9,0.1-4.1,0-6.1c0-0.3,0,0,0-0.5c0.1-2.2,0-4.4-0.1-6.5c-0.1,0-0.1,0.2-0.1,0.2
	c0.1,0.9,0,1.8-0.2,2.6c-0.1-0.4-0.1-0.6-0.1-1.1c0.1-2.5,0.1-5.1,0-7.6v-1.3c0.1-0.8,0.1-2.5,0.2-2.7c0,0.7,0.1,1.4,0.1,2.3
	c-0.1,1.8-0.1,3.6,0,5.4c0,0.4,0,0.2,0,0.9c0.1,0.2,0.2-0.1,0.2-0.6c0-2.9-0.2-4.9,0-6.9c0-1.4,0.1-3.3,0-4.1c0.1,0,0-1,0.1-0.8
	c0.1,0.7,0.1,1.3,0.2,1.9v-2.9c0,0.1,0,0.2,0,0.4H5.9c0-0.7,0-1.3,0-2l0.1-0.9h0.1V116.7c-0.1-0.1-0.1-0.2-0.1-0.8
	C6,116.4,5.9,117,6,117.5l-0.3-0.2c0-3.5,0-6.8,0.1-10c0.2-0.7,0.1,1.4,0.2,1c-0.1,1,0,2.5,0,5.1c0.1-0.3,0.1-0.6,0.1-0.8v-10.5
	c0-0.5-0.1-1-0.2-1.5c0,0.7-0.1,1-0.3,0.8c-0.1-2.3-0.1-6.3,0.3-6.7c0-0.7,0-1.4,0-2.2c0.1-0.7,0.2-1.4,0.2-2.1V60.1
	C6,60.3,6,61.6,5.7,60.9c-0.1-1.8-0.1-3.7,0-5.5c0-1.2-0.1-0.5-0.1-1.4c0.2-2.1,0-6.9,0.3-8.5c0.1,1.3,0.2,2.7,0.1,4
	c0,2.4,0,4.8,0.2,7.2v-0.4V18.7C5.9,25.3,5.8,32,6,38.6c-0.1,0.6-0.1,1.2-0.2,1.8c-0.3-1.4-0.4-2.9-0.3-4.3
	c-0.1,0.1-0.1-0.3-0.1-0.3c-0.5,2.1-0.2,7.1-0.2,10.6c0,0.8-0.1,0.3-0.1,0.8c-0.2,3.2,0.2,6.8,0,9.9v-0.6L5,56.7
	c0-1.1-0.2-2.2-0.4-3.2c-0.1,0.1-0.1,0.4-0.1,0.4c-0.1,1.8-0.1,3.7-0.1,5.5c-0.1,1.5-0.1,2.9-0.1,4.4c0.1,2.7,0.1,5.4,0,8
	c0.2,0.6,0.1-11.6,0.2-10.3v0.4v0.4c-0.1,2.9-0.2,5.9-0.1,8.8c0.4,1,0.4-2.9,0.3-5.9c0,0,0,0,0,0c0-0.4,0-0.8,0-1.2
	c0-0.7-0.1-1.2-0.1-1.6V62v-0.4c0.1-0.9,0,11.7,0,10.3c0-1.3,0.2-2.5,0.4-3.7c0,0.8,0.1,1.6,0.3,2.4c0,0.9-0.1,1.3-0.1,2.2
	c0.1,3,0.1-7.6,0.1-4.1c-0.1-0.1,0,1.7-0.1,1.1c0.1,2.4,0.1,4.8,0,7.2c0.1,2.3,0,4.7-0.2,7c-0.3,0.3-0.1-2.8-0.5-2.1
	c-0.2,3.3,0.1,10.5,0,14.6c0,0.6,0,0.7-0.1,0.7c0.1,1.4,0.2,2.9,0.1,4.4c-0.1,0.2-0.2,0.6-0.4,0.5c0,1.2,0.1,1.8,0.2,1.8
	c0,0.9,0,1.3,0,2.2c0,0.7,0,1.5,0,2.2c0.1,0.9,0,1.7-0.1,2.6v-0.2L4.2,111c-0.1,0.3,0-1.7-0.1-1.4c-0.2,1.1-0.3,2.2-0.2,3.4
	c0,0.2-0.1,0.4-0.1,0.6V79.8c0.1,0.4,0.1,0.8,0.1,1.2c0.2-0.2,0.1-2.3,0.2-2.6c-0.2-4.5-0.2-9,0-13.5C4.2,63.7,4,64,4,63.5
	c0.1-2,0,7.9,0,4.8c0.1,0.1,0-1.7,0.1-1.1c-0.1-4.8-0.1-7.5,0-12.1c-0.1,0.2-0.1,0.8-0.1,0.8c0-4.8-0.1-9.4,0-14.3
	c0.1-2,0.1-3.9,0.1-5.9C4.1,34.6,4,33,4,30.6c0-0.8,0.1-0.5,0.1-1.1C4.2,25.3,4,12,4.2,8.8C4,6.7,3.9,0.4,4.4,1
	c0.1,7.7,0,22.6,0.1,29.5c0.3-0.1,0-5,0.2-5.5c-0.2-1.4-0.1-12.4-0.2-14.5c0.2-1.3,0.4-2.6,0.5-4.1c0.2-0.2,0.1,1.4,0.2,1.4
	C5.1,9.1,5.2,18.9,5.2,21.2c0.1,3.8,0.1,7.5,0,11.3c0.1,0.8,0.2,1.3,0.4,1c0.1-1.2-0.1-0.9-0.1-1.4c0.1-2.9,0.1-5.9,0.1-8.8
	c0-1.5,0.2-9.4,0.2-10.5C6.1,13.1,6,23.3,6.2,24.3V3.2c0-0.3-0.1-0.6-0.1-0.8C6.1,2.2,6.1,1.9,6.1,1.7c0-0.5,0-0.8,0.1-0.8
	c0-0.2,0-0.5,0-0.8H5.1l0-0.1C5,0.9,5,1.8,5,2.7S5.1,3.9,5.1,5h0.3c0-1.4,0-2.5,0-3.4c0.1,0,0.2-0.7,0.3-0.5c0,1.1,0,2.3,0.2,3.3
	C6.1,3.8,6,2.5,6.1,1.7z M6.1,410.3C6.1,410.3,6.1,410.3,6.1,410.3l0,0.1L6.1,410.3L6.1,410.3z M0.3,420h1.2V0H0.4v395.9
	c0,0,0.1-0.3,0.1-0.7c0-2.3,0-4.6,0-6.9c0-1.4,0.1-3.3,0-4.1c0.1,0,0.1-0.7,0.1-0.8h0.1c0.1,0.9,0.1,1.7,0.2,2.5
	c-0.1,1.3,0,3.8-0.1,4.7c0.1,0.3,0,3.4,0.1,3.4c0-3.3,0-7.1,0-10.9v-2.9c0.2-0.3,0.2,3.6,0.1,4.8c0,2,0,5.9,0,8.5c0,0.4,0,0.2,0,0.7
	c0,1.5,0,2.4,0,3.1c0,1.2,0,2.4,0,3.6c0.1,2.9,0,5.8,0,8.7c-0.1,0-0.1-0.3-0.1-0.5c0,2.8,0,4.4,0,7.4c0.1-0.3,0.1,0.7,0.1,0.7
	c0,0.7,0,1.4,0,2.2H0.7c-0.1-1.6-0.1-3.2,0-4.8c0-0.9,0-1.8,0-2.7c0-1.1,0-2.3,0-3.4v-0.2c-0.1,0.6-0.1,1.3-0.2,2l-0.1,0.3
	c-0.1-1.9,0.1-4.1,0-6.1c0-0.3,0,0,0-0.5c0.1-2.2,0-4.3-0.1-6.5V420z M6.2,406.8L6.2,406.8L6.2,406.8z M6.2,405.1v1.7
	C6.1,406.3,6.1,405.7,6.2,405.1z M6.2,400.2v1.7C6.2,401.4,6.2,400.8,6.2,400.2z M6.2,397.1L6.2,397.1c0,0.3-0.1,0.6-0.1-0.2
	c-0.1,0.9,0,2.5,0.1,2.5V397.1z M6.2,391.1v0.4c0-0.1,0-0.2,0-0.3V391.1z M0.3,410.3H0.2c0,1.3-0.1,4.1,0.1,3.9
	c0.1-1.4,0.1-2.7,0-4.1v0.3V410.3z M0.3,406.8L0.3,406.8c0.1-0.8,0.1-1.8,0-1.6C0.2,405.7,0.2,406.2,0.3,406.8L0.3,406.8z M0.2,397
	c0-0.2-0.2,1.1-0.2,0c-0.1,0.9,0,2.5,0.1,2.3c0,0.9,0,1.9,0,2.6h0.1C0.4,400.2,0.4,398.5,0.2,397L0.2,397z M0.3,420
	c0-0.8-0.1-1.7-0.2-2.5c0,0.5-0.1,1.1-0.1,1.6c0,0.3,0,0.6,0,0.9L0.3,420z M4.8,73.4c0.2,1.6,0.2,3.3,0.1,5
	C4.7,76.8,4.7,75.1,4.8,73.4z M5,51.2L5,51.2c0-0.8,0-1.6,0-2.5c-0.1-0.2-0.1,1.3-0.1,2.5H5z M4.6,35.5L4.6,35.5
	c-0.1,2.7-0.2,5.5-0.1,8.2h0.2c0-1.1,0-2.7,0-4.3C5,39.6,5.1,37,5,35.5C4.9,37.3,4.7,35.3,4.6,35.5z"/>
</svg>
