<?xml version="1.0" encoding="utf-8"?>
<!-- Generator: Adobe Illustrator 22.1.0, SVG Export Plug-In . SVG Version: 6.00 Build 0)  -->
<svg version="1.1" id="Layer_1" xmlns="http://www.w3.org/2000/svg" xmlns:xlink="http://www.w3.org/1999/xlink" x="0px" y="0px"
	 preserveAspectRatio="none" viewBox="0 0 7 420" style="enable-background:new 0 0 7 420;" xml:space="preserve">
<style type="text/css">
	.st0{fill:#FFEFD6;}
	.st1{fill:#7C6742;}
</style>
<rect class="st0" width="7" height="420"/>
<path class="st1" d="M0.1,1.7c0-0.4,0-0.8,0-1.2H0V0h3.5v420H0v-0.5h0.2c0-0.4,0-0.8-0.1-1.2V415H0c0,1.6,0,3.2,0,5l0.2-0.1
	c0-0.1,0-0.3,0-0.4h0.4c0-0.3,0-0.6,0-0.8c-0.1-0.5-0.1-1-0.2-1.5c-0.1,0.7-0.2,1.5-0.2,2.2v-5.4c0,0.2-0.1,0.3-0.1,0.3
	c0,0,0,0-0.1,0c-0.1-1.3-0.1-2.7,0-4c0-0.1-0.1-0.1-0.1-0.5c0.1-1.4,0-4.4,0.2-5.4c0.1,0.8,0.1,1.7,0.1,2.5c0,1,0,1.9,0,2.9v-1.3
	c0.1,0.6,0.2,1.1,0.2,1.7v0.3c0.1-1.9-0.1-4.1,0-6.1c0-0.3,0,0,0-0.5c-0.1-2.2,0-4.4,0.1-6.5c0.1,0,0.1,0.2,0.1,0.2
	c-0.1,0.9,0,1.8,0.2,2.6c0.1-0.4,0.1-0.6,0.1-1.1c-0.1-2.5-0.1-5.1,0-7.6v-1.3c-0.1-0.8-0.1-2.5-0.2-2.7c0,0.7-0.1,1.4-0.1,2.3
	c0.1,1.8,0.1,3.6,0,5.4c0,0.4,0,0.2,0,0.9c-0.1,0.2-0.2-0.1-0.2-0.6c0-2.9,0.2-4.9,0-6.9c0-1.4-0.1-3.3,0-4.1c-0.1,0,0-1-0.1-0.8
	c-0.1,0.7-0.1,1.3-0.2,1.9v-2.9c0,0.1,0,0.2,0,0.4h0.2c0-0.7,0-1.3,0-2l-0.1-0.9H0V116.7c0.1-0.1,0.1-0.2,0.1-0.8
	c0.1,0.5,0.1,1.1,0.1,1.7l0.3-0.2c0-3.5,0-6.8-0.1-10c-0.2-0.7-0.1,1.4-0.2,1c0.1,1,0,2.5,0,5.1c-0.1-0.3-0.1-0.6-0.1-0.8v-10.5
	c0-0.5,0.1-1,0.2-1.5c0,0.7,0.1,1,0.3,0.8c0.1-2.3,0.1-6.3-0.3-6.7c0-0.7,0-1.4,0-2.2C0.1,91.9,0,91.2,0,90.5V60.1
	c0.2,0.3,0.2,1.5,0.4,0.8c0.1-1.8,0.1-3.7,0-5.5c0-1.2,0.1-0.5,0.1-1.4c-0.2-2.1,0-6.9-0.3-8.5c-0.1,1.3-0.2,2.7-0.1,4
	c0,2.4,0,4.8-0.2,7.2v-0.4V18.7c0.3,6.6,0.3,13.3,0.1,20c0.1,0.6,0.1,1.2,0.2,1.8c0.3-1.4,0.4-2.9,0.3-4.3c0.1,0.1,0.1-0.3,0.1-0.3
	C1.2,37.8,1,42.9,1,46.4c0,0.8,0.1,0.3,0.1,0.8c0.2,3.2-0.2,6.8,0,9.9v-0.6l0.1,0.2c0-1.1,0.2-2.2,0.4-3.2c0.1,0.1,0.1,0.4,0.1,0.4
	c0.1,1.8,0.1,3.7,0.1,5.5c0.1,1.5,0.1,2.9,0.1,4.4c-0.1,2.7-0.1,5.4,0,8c-0.2,0.6-0.1-11.6-0.2-10.3v0.4v0.4
	c0.1,2.9,0.2,5.9,0.1,8.8c-0.4,1-0.4-2.9-0.3-5.9c0,0,0,0,0,0c0-0.4,0-0.8,0-1.2c0-0.7,0.1-1.2,0.1-1.6V62v-0.4
	c-0.1-0.9,0,11.7,0,10.3c0-1.3-0.2-2.5-0.4-3.7c0,0.8-0.1,1.6-0.3,2.4c0,0.9,0.1,1.3,0.1,2.2c-0.1,3-0.1-7.6-0.1-4.1
	c0.1-0.1,0,1.7,0.1,1.1c-0.1,2.4-0.1,4.8,0,7.2c-0.1,2.3,0,4.7,0.2,7c0.3,0.3,0.1-2.8,0.5-2.1c0.2,3.3-0.1,10.5,0,14.6
	c0,0.6,0,0.7,0.1,0.7c-0.1,1.4-0.2,2.9-0.1,4.4c0.1,0.2,0.2,0.6,0.4,0.5c0,1.2-0.1,1.8-0.2,1.8c0,0.9,0,1.3,0,2.2c0,0.7,0,1.5,0,2.2
	c-0.1,0.9,0,1.7,0.1,2.6v-0.2L2,111c0.1,0.3,0-1.7,0.1-1.4c0.2,1.1,0.3,2.2,0.2,3.4c0,0.2,0.1,0.4,0.1,0.6V79.8
	c-0.1,0.4-0.1,0.8-0.1,1.2C2,80.8,2.2,78.7,2,78.4c0.2-4.5,0.2-9,0-13.5C2,63.7,2.1,64,2.1,63.5c-0.1-2,0,7.9,0,4.8
	c-0.1,0.1,0-1.7-0.1-1.1c0.1-4.8,0.1-7.5,0-12.1C2,55.3,2,55.9,2.1,55.9c0-4.8,0.1-9.4,0-14.3c-0.1-2-0.1-3.9-0.1-5.9
	c0-1.1,0.1-2.7,0.1-5.1c0-0.8-0.1-0.5-0.1-1.1C2,25.3,2.2,12,2,8.8C2.1,6.7,2.3,0.4,1.8,1c-0.1,7.7,0,22.6-0.1,29.5
	c-0.3-0.1,0-5-0.2-5.5c0.2-1.4,0.1-12.4,0.2-14.5C1.4,9.1,1.2,7.8,1.1,6.3C0.9,6.2,1,7.7,0.9,7.7C1,9.1,0.9,18.9,0.9,21.2
	c-0.1,3.8-0.1,7.5,0,11.3c-0.1,0.8-0.2,1.3-0.4,1c-0.1-1.2,0.1-0.9,0.1-1.4c-0.1-2.9-0.1-5.9-0.1-8.8c0-1.5-0.2-9.4-0.2-10.5
	C0.1,13.1,0.2,23.3,0,24.3V3.2C0,3,0.1,2.7,0.1,2.4C0.1,2.2,0.1,1.9,0.1,1.7c0-0.5,0-0.8-0.1-0.8c0-0.2,0-0.5,0-0.8h1.1l0-0.1
	c0.1,0.9,0.1,1.8,0.1,2.7S1,3.9,1,5H0.7c0-1.4,0-2.5,0-3.4c-0.1,0-0.2-0.7-0.3-0.5c0,1.1,0,2.3-0.2,3.3C0.1,3.8,0.1,2.5,0.1,1.7z
	 M0.1,410.3C0.1,410.3,0.1,410.3,0.1,410.3l0,0.1L0.1,410.3L0.1,410.3z M5.8,420H4.7V0h1.1v395.9c0,0-0.1-0.3-0.1-0.7
	c0-2.3,0-4.6,0-6.9c0-1.4-0.1-3.3,0-4.1c-0.1,0-0.1-0.7-0.1-0.8H5.6c-0.1,0.9-0.1,1.7-0.2,2.5c0.1,1.3,0,3.8,0.1,4.7
	c-0.1,0.3,0,3.4-0.1,3.4c0-3.3,0-7.1,0-10.9v-2.9c-0.2-0.3-0.2,3.6-0.1,4.8c0,2,0,5.9,0,8.5c0,0.4,0,0.2,0,0.7c0,1.5,0,2.4,0,3.1
	c0,1.2,0,2.4,0,3.6c-0.1,2.9,0,5.8,0,8.7c0.1,0,0.1-0.3,0.1-0.5c0,2.8,0,4.4,0,7.4c-0.1-0.3-0.1,0.7-0.1,0.7c0,0.7,0,1.4,0,2.2h0.2
	c0.1-1.6,0.1-3.2,0-4.8c0-0.9,0-1.8,0-2.7c0-1.1,0-2.3,0-3.4v-0.2c0.1,0.6,0.1,1.3,0.2,2l0.1,0.3c0.1-1.9-0.1-4.1,0-6.1
	c0-0.3,0,0,0-0.5c-0.1-2.2,0-4.3,0.1-6.5V420z M0,406.8L0,406.8L0,406.8z M0,405.1v1.7C0,406.3,0,405.7,0,405.1z M0,400.2v1.7
	C0,401.4,0,400.8,0,400.2z M0,397.1L0,397.1c0,0.3,0.1,0.6,0.1-0.2c0.1,0.9,0,2.5-0.1,2.5V397.1z M0,391.1v0.4c0-0.1,0-0.2,0-0.3
	V391.1z M5.9,410.3H6c0,1.3,0.1,4.1-0.1,3.9c-0.1-1.4-0.1-2.7,0-4.1v0.3V410.3z M5.9,406.8L5.9,406.8c-0.1-0.8-0.1-1.8,0-1.6
	C5.9,405.7,5.9,406.2,5.9,406.8L5.9,406.8z M5.9,397c0-0.2,0.2,1.1,0.2,0c0.1,0.9,0,2.5-0.1,2.3c0,0.9,0,1.9,0,2.6H5.9
	C5.8,400.2,5.8,398.5,5.9,397L5.9,397z M5.8,420c0-0.8,0.1-1.7,0.2-2.5c0,0.5,0.1,1.1,0.1,1.6c0,0.3,0,0.6,0,0.9L5.8,420z M1.3,73.4
	c-0.2,1.6-0.2,3.3-0.1,5C1.4,76.8,1.5,75.1,1.3,73.4z M1.2,51.2L1.2,51.2c0-0.8,0-1.6,0-2.5c0.1-0.2,0.1,1.3,0.1,2.5H1.2z M1.5,35.5
	L1.5,35.5c0.1,2.7,0.2,5.5,0.1,8.2H1.4c0-1.1,0-2.7,0-4.3c-0.2,0.1-0.3-2.5-0.2-4C1.3,37.3,1.4,35.3,1.5,35.5z"/>
</svg>
