<?xml version="1.0" encoding="utf-8"?>
<!-- Generator: Adobe Illustrator 22.0.0, SVG Export Plug-In . SVG Version: 6.00 Build 0)  -->
<svg version="1.1" xmlns="http://www.w3.org/2000/svg" xmlns:xlink="http://www.w3.org/1999/xlink" x="0px" y="0px"
	 preserveAspectRatio="none" viewBox="0 0 800 9" style="enable-background:new 0 0 800 9;" xml:space="preserve">
<style type="text/css">
	.st0{fill:#7C6742;}
	.st1{display:none;fill:#FFF5E1;}
	.st2{fill:#FFF5E1;}
</style>
<g id="Слой_2">
	<rect x="41.9" y="2.1" class="st0" width="715.3" height="1.6"/>
	<rect x="41.9" y="4.9" class="st0" width="715.3" height="1.6"/>
</g>
<g id="Layer_1">
	<path class="st1" d="M757.1,6.4c0.9,0.5,1.9,0.9,2.8,1.4c0.3-0.6,0.6-1.6,1.1-2.1c0.3-0.3,0-0.1,0.4-0.2c0.4,0,1,0.1,1.4,0.2
		c0.8,0.1,1.4,0.2,2.2,0.5c0.4,0.1,0.4,0.1,0.8,0c0.2-0.1,1-0.4,1.2-0.3c0.6,0.2,0.7,1.6,1.3,1.9c0.3,0.1,1.9-0.2,2.2-0.3
		c0.6-0.3,0.7-1.1,1.2-1.4c0.4-0.3,1.5-0.5,2-0.6c0.8-0.1,2,0.1,2.7,0.3c0.3,0.1,0.3,0,0.6,0.2c0.5,0.3,0.3,0.5,0.8,0.1
		c0.7-0.4,0.5-0.6,1.3-0.6c1,0,1.9,0.1,2.9,0.1c1,0,2,0.1,3,0.1c0.7,0,0.8,0,1.3,0.5c0.3,0.3,0.4,0.5,0.8,0.6c0.5,0.2,0.6,0,1.1-0.2
		c0.5-0.3,1.4-1,1.9-1.1c0.6,0,1.2,0.8,1.9,0.9c1,0.1,1.4,0.1,2.2-0.3c0.9-0.4,1.8-1,2.7-1.3c0.3-0.1,0.8-0.1,1.1-0.2
		c0.4-0.1,0.5-0.4,0.7-0.7c-1.1-0.4-2.2-0.8-3.3-1.1c-0.3-0.1-0.6-0.2-0.8-0.2c-0.6-0.1-1.4-0.4-2-0.4c-0.9,0.1-1.6,1.1-2.6,1.1
		c-0.6,0-0.9-0.3-1.4-0.6c-0.6-0.3-0.4-0.4-0.3-1.1c-0.9,0.7-1.6,1.2-2.7,1.3c-1.7,0.1-3.4,0-5.1,0.1c-0.6,0-1.3,0.1-1.8,0
		c-0.4-0.1-0.8-0.5-1.2-0.4c-0.5,0.1-0.9,0.5-1.5,0.5c-0.8,0.1-1.7,0-2.6,0c-0.4,0-1.5,0.2-1.9,0c-0.4-0.2-0.7-0.9-1.1-1.1
		c-0.4-0.3-1.1-1.1-1.6-1c-0.5,0.1-1.1,0.9-1.3,1.3c-0.1,0.1-0.3,0.8-0.4,0.8c-0.2,0.1-0.9-0.4-1.1-0.4c-0.6-0.1-1.1,0.1-1.7,0.3
		c-0.6,0.1-1.2,0.4-1.8,0.4c-0.2,0-1,0.1-1.1,0c-0.2-0.1-0.2-0.5-0.3-0.7c-0.1-0.2-0.1-0.8-0.3-0.9c-0.2-0.1-1.1,0.1-1.3,0.1
		c-0.8,0.1-1.4,0.2-1.9,0.8c-0.4,0.4-0.2,1.2-0.3,1.7C757.1,5,757.1,5.7,757.1,6.4z"/>
	<path class="st0" d="M764.7,3c0,0,0,0.3,0.2,0.1c0,0.1,0,0.1,0,0C764.8,3.1,764.7,3.1,764.7,3z M763.8,3.2c0.2,0,0.3,0,0.5,0
		C764.2,3,764.1,3.2,763.8,3.2z M783.1,5.5c-0.2,0-0.2,0-0.2,0.2c0.1,0,0.1,0,0.2,0C783.1,5.6,783.1,5.5,783.1,5.5z M793.1,6.8
		L793.1,6.8L793.1,6.8C793,6.8,793,6.8,793.1,6.8L793.1,6.8z M793.8,6.4L793.8,6.4L793.8,6.4L793.8,6.4L793.8,6.4L793.8,6.4z
		 M793.3,2.8c0,0,0.1,0,0.2,0C793.5,2.7,793.2,2.6,793.3,2.8z M788.5,3.7c-0.1,0-0.3,0.2-0.2,0.2c0.1,0,0.1,0,0.2,0
		C788.5,3.8,788.5,3.7,788.5,3.7z M792.4,5.8c0,0,0.5,0,0.3-0.1C792.6,5.7,792.5,5.7,792.4,5.8L792.4,5.8z M790.9,5.9
		c0.1,0,0.2,0,0.2-0.1C791,5.8,790.9,5.8,790.9,5.9z M794.8,5.9c0,0,0.2,0.3,0.2-0.1C795,5.8,794.9,5.8,794.8,5.9z M793.8,5.4
		c-0.3,0.1-1,0-0.9,0.3c0,0.5,2.2-0.1,2.2-0.5C794.5,5,794.3,5.2,793.8,5.4z M794.2,5c0.1,0,0.1,0,0.1-0.1
		C794.2,4.8,794.3,4.9,794.2,5L794.2,5z M790.7,4.1c0.1,0,0.2,0.2,0.3,0.2C791,3.9,790.9,4,790.7,4.1z M791.5,3.5
		C791.4,3.5,791.4,3.5,791.5,3.5C791.4,3.5,791.4,3.5,791.5,3.5L791.5,3.5z M789.1,5.2c0.2,0,0.2-0.1,0.4-0.3c0,0-0.4,0.1-0.4,0.1
		C789.1,5,789.1,5.1,789.1,5.2z M789.5,5.6C789.5,5.6,789.6,5.6,789.5,5.6C789.5,5.5,789.5,5.5,789.5,5.6L789.5,5.6z M790.3,6.1
		c0.2,0,0.3-0.1,0.4-0.2c-0.2-0.2,0-0.5,0-0.9c-0.3-0.2,0.2-1.2-0.2-1.6C790,3,790.1,3.8,790.1,4c0,0.4,0,0.5,0.3,0.8
		C790.6,5.2,790.2,5.6,790.3,6.1z M787.6,6.2c-0.2,0-0.1,0.1-0.1,0.1C787.6,6.4,787.7,6.2,787.6,6.2z M781.7,5.1
		c0-0.1-0.2-0.2-0.3-0.2C781.1,5.1,781.7,5.4,781.7,5.1z M782.9,5.1c0.1,0,0.2-0.1,0.2-0.2C782.9,4.9,782.9,4.9,782.9,5.1L782.9,5.1
		z M784.4,4.9L784.4,4.9C784.3,5,784.3,5,784.4,4.9L784.4,4.9z M782,5.3c0.1,0,0-0.1,0.1-0.1c-0.1,0-0.2-0.1-0.3-0.1
		c0,0,0,0.1,0,0.1C781.9,5.2,781.9,5.3,782,5.3L782,5.3z M784.9,5.6c0,0-0.1-0.5-0.2-0.2C784.7,5.5,784.8,5.6,784.9,5.6z M787.3,5.7
		c-0.1,0-0.1,0.3,0,0.3c0.1,0,0.1-0.1,0.1-0.2C787.4,5.8,787.4,5.7,787.3,5.7z M786.8,5.4c0,0.1,0,0.1,0,0.2c0-0.1,0.1-0.1,0.2-0.2
		C787,5.4,786.9,5.4,786.8,5.4z M787.3,4.5v0.3C787.6,4.8,787.3,4.5,787.3,4.5z M785.6,6c0,0,0.1,0,0.1,0c0.4-0.8,0.1-2.1,0.1-2.9
		c-0.4-0.2-0.2,0.6-0.2,0.6c0,0.2,0.1,0.5,0.1,0.8C785.6,5,785.8,5.5,785.6,6z M778.9,5c0.2,0.1,0.3,0.1,0.5,0
		C779.4,4.8,779,4.9,778.9,5L778.9,5z M778.9,5.6L778.9,5.6C779,5.5,778.8,5.6,778.9,5.6z M778.6,5.5c0-0.1-0.1-0.1-0.1-0.2
		c0,0.2-0.2,0.1-0.2,0.2C778.5,5.5,778.4,5.6,778.6,5.5z M772.6,5.7L772.6,5.7L772.6,5.7L772.6,5.7L772.6,5.7L772.6,5.7z M773.7,5.6
		c0,0-0.2,0-0.1,0H773.7z M775.6,5.7c0-0.1,0-0.1-0.1-0.1C775.5,5.7,775.5,5.6,775.6,5.7L775.6,5.7z M774.8,5.5c0,0-0.3,0.2-0.3,0.2
		c0,0.1,0.1,0.1,0.3,0C774.9,5.6,774.9,5.5,774.8,5.5z M775.7,5.1c0,0.2,0.5,0,0.7,0C776.4,4.7,775.7,4.8,775.7,5.1z M773.7,5.2
		c0.1,0.1,0.5,0,0.5,0c0.1,0.2,1.4-0.1,0.5-0.3c-0.5-0.1-0.7,0.4-0.7-0.1C773.8,4.7,773.5,5,773.7,5.2z M773.1,4.8
		c0,0.7,0.3,0.6,0.3,0C773.3,4.8,773.2,4.8,773.1,4.8z M771.1,6.3c0.6,0.3,0.1-0.4,0.2-0.5c0.1,0,0.1,0.1,0.1,0.1
		c0-0.1,0.4-0.4,0.5-0.5c0.3-0.2,0.5-0.1,0.8-0.1c0-0.2,0-0.3,0-0.5c-0.3,0-0.2,0.2-0.4,0.4c0-0.5-0.2-0.5-0.7-0.4
		c0,0-0.7,0.2-0.3,0.3c-0.3-0.1-0.3,0.4-0.4,0.5C770.8,5.8,771.1,6.3,771.1,6.3z M769.2,7.2c-0.1,0-0.1,0-0.2,0l0,0
		C769.1,7.3,769.2,7.3,769.2,7.2z M767.7,7.1c0,0.1,0,0.3,0,0.4c0.1,0,0.2,0,0.3-0.1C767.9,7.3,767.8,7.2,767.7,7.1z M765.9,4.7
		c-0.1-0.1,0.2-0.6-0.3-0.6c0.1,0,0.1,0,0,0C765.6,4.3,765.5,4.7,765.9,4.7z M762.4,4.8c-0.2,0.1-0.3,0-0.5,0
		C761.9,4.8,762.4,5.2,762.4,4.8z M761.1,5.2c0.1-0.1,0.8,0,0.7-0.2c0-0.2-0.6,0-0.7,0C761.1,5,761.1,5.1,761.1,5.2z M761.3,5.6
		L761.3,5.6L761.3,5.6L761.3,5.6L761.3,5.6z M762.4,5.5L762.4,5.5L762.4,5.5L762.4,5.5L762.4,5.5z M765,4.9L765,4.9
		c0.1-0.1,0.1,0,0.1-0.2c0,0-0.1,0-0.1,0c-0.1,0.3,0.1,0.2,0.3,0.5c0.1,0.2,0.3,1.1,0.5,1.1C766,5.9,765.5,4.6,765,4.9z M767.5,5.9
		c0-0.3-0.3,0-0.2,0C767.4,6,767.4,6,767.5,5.9z M767.1,5.8c0,0-0.3,0.2-0.1,0.2C767,5.9,767,5.8,767.1,5.8L767.1,5.8L767.1,5.8z
		 M767.5,5.6c0,0.3-0.1,1,0.2,1.3c0.3-0.3,0.2-1.5,0.2-1.8C767.5,5.1,767.6,5.3,767.5,5.6z M766.8,4.8c-0.1-0.2-0.3,0.6-0.3,0.6
		c0.1,0,0-0.2,0.2-0.2C766.7,5.1,766.8,4.9,766.8,4.8z M768.8,4.2C769,4.3,769,4.1,768.8,4.2L768.8,4.2L768.8,4.2z M767.7,3.2
		c0,0.1-0.2,1.1,0,1.1c-0.1,0,0,0.5,0.2,0.5c0.1-0.4-0.1-1-0.1-1.4C767.8,3.3,767.9,3.2,767.7,3.2z M768.3,2.5
		c0.1,0,0.1-0.2,0.1-0.4C768.2,2.1,768.2,2.4,768.3,2.5z M767.9,3c0-0.4-0.3-1.1,0-1.4c-0.3,0-0.1,0.8-0.1,0.9
		C767.6,2.6,767.6,3,767.9,3z M760.7,3.1c0.1,0.4,0.3,0.6,0.2,1.1c0.1,0,0.2-0.1,0.3-0.2c0-0.1-0.1-0.2-0.2-0.2
		c0-0.1-0.1-0.2-0.1-0.4c0.2-0.3,1.1-0.2,1.3-0.1c0.3,0.1,0.8-0.2,1,0.1c0.2,0.4-0.1,0.2-0.3,0.3c0.4,0.1,0.8,0.1,1.2,0.1
		c0-0.2-0.2-0.1-0.2-0.3c0.2,0,0.3,0.4,0.6,0.2c0.1-0.1-0.2-0.4,0.3-0.4c0.1,0-0.1,0.2-0.1,0.2c-0.1,0.1,0.4,0.1,0.3,0.1
		c-0.3,0-0.1-0.2-0.1-0.3c0.2,0,0.2-0.1,0.1-0.2c-0.1-0.1-0.1-0.2-0.1-0.4c0.1,0,0.2,0.1,0.2,0.3c0.4-0.1,0.2-0.6,0.1-0.8
		c0.4,0,0.3,0.5,0.5,0.7c0.4,0.3,0.5-0.2,0.7-0.2c0,0.1,0,0.1,0,0.2c0.2,0,0.5,0,0.6-0.2c0,0-0.1,0-0.1,0c0-0.2,0.2,0,0.2,0
		c0.3,0.2,0,1.1-0.3,1.4c0.1,0.1,0.3,0.2,0.4,0.4c-0.3,0.1-0.6,0.1-0.9,0c0-0.1,0.4-0.3,0.4-0.4c-0.1-0.3-0.3,0-0.3-0.1
		c-0.1,0-0.2,0-0.3,0c-0.1-0.1-0.1-0.2-0.2-0.3c-0.2-0.1-0.1-0.2-0.3-0.2c-0.1,0-0.3,0.3-0.5,0.4c-0.4,0.2-0.8,0-1.2,0.1
		c-0.2,0.1-0.3,0.1-0.5,0.1c-0.5,0-0.9,0-1.4,0c-0.4,0-0.8-0.1-1-0.1c-0.3,0.3,0,1.4,0,1.8c0.2-0.1,0.4-0.1,0.6-0.1
		c0-0.1,0-0.2,0.1-0.2c0.1,0,0.2-0.1,0.3-0.1c0,0.2-0.3,0.3,0,0.3c0.3,0,0.1-0.1,0.1-0.2c0,0.2,0.7,0.2,0.8,0.2c0.2,0,0.3,0.1,0.5,0
		c0,0-0.2-0.2-0.2-0.2c0.2-0.2,0.5,0,0.5,0.2c-0.1,0-0.2,0-0.2-0.1c0.1,0.1-0.2,0-0.1,0.1c0.1,0.1,0.6,0,0.8,0h-0.1l0,0
		c0.6,0.3,0.5,0.3,0.8,0.8c0.1,0.1,0.1,0.4,0.4,0.4c0.2,0,0.5-0.6,0.7-0.7c0.3-0.1,0.1,0,0.4,0c0-0.1-0.1-0.3,0-0.3
		c0.4,0.2,0.6,0.2,0.7,0.5c0.1,0.3-0.2,0.1-0.2,0.3c0,0.2,0.3,0.4,0.2,0.7c0.1,0,0.2-0.1,0.2-0.1c0.2,0-0.1,0.3-0.1,0.3
		c0.4,0,0.5,0.7,0.8,0.7c0.2,0,1-0.2,1.1-0.3c0.2-0.2,0.2-0.6,0.3-0.8c0.1-0.1,0.4-0.6,0.1-0.7c0.2,0,0.6-0.5,0.8-0.6
		c0.2-0.1,0.2-0.2,0.5,0c0.1,0.1,0,0.3,0,0.4c0.1,0.3,0.3,0.4,0.6,0.5c0.6,0.1,0.4-0.2,0.5-0.5c0.1-0.6,0.7-0.6,1.3-0.6
		c0-0.2-0.2-0.1,0-0.2c0.1,0,0.1-0.1,0.1-0.2c0,0,0.1,0.1,0.1,0.1c-0.2,0-0.2,0.2-0.3,0.3c0.8,0,2.1-0.3,2.8,0
		c0.3,0.1,0.1-0.1,0.3,0.2c0.1,0.2,0.1,0.2,0.3,0.4c0.2,0.2,0.6,0.4,0.9,0.3c0.1-0.1,0.1-0.2,0.3-0.3c0.2-0.1,0.4,0,0.6-0.1
		c0.2-0.1-0.1-0.2,0.1-0.3c0.1,0,0.3,0,0.4,0c0.2,0,0.7,0.1,0.7-0.1c-0.2,0-0.4-0.2-0.3-0.3c0.1-0.1,0.4,0,0.5,0
		c0.2,0,0.4,0.2,0.5-0.1c0-0.1-0.3-0.3-0.4-0.4c0.2,0,1.3-0.3,1.3,0.1c0,0.1-0.4,0.1-0.5,0.1c-0.2,0.2-0.1,0.1-0.1,0.4
		c0,0,0.1,0,0.1-0.1c0,0,1.9-0.1,1.9,0.1c-0.1,0.2-0.5,0-0.7,0.1c-0.2,0.1,0.9,0.1,1,0.1c0.2,0,0.8,0.3,1,0c-0.1-0.2-0.5,0-0.6-0.3
		c-0.1-0.2,0.4-0.1,0.5-0.2c0.3-0.1,0.2,0,0.4-0.2c0,0,0.2,0.2,0.2,0.3c0,0.1-0.3,0.3-0.3,0.4c0.3,0,1,0.2,1,0.2
		c-0.1,0.2,0.3,0.3,0.5,0.3c0.4,0,0.4-0.1,0.8,0c0.4,0.2,0.6,0.6,0.9,0.8c0,0.2,0.6-0.5,0.7-0.5c0.1,0.4-0.2,1-0.6,0.5
		c0,0.1,0,0.1-0.1,0.1c0.3,0.3,0.1,0.4,0.5,0.5c0.3,0.1,0.4,0,0.6-0.2c0.2-0.2,0.3-0.8,0.3-1.1c0-0.1-0.4-0.9,0.1-0.5
		c0.2,0,0.2-0.2,0.1-0.3c0.2,0.1,0.5,0,0.7,0.1c0,0,0.5,0.4,0.5,0.3c0.3-0.6,1.3,0.8,1.6,0.9c0.8,0.4,1.9,0,2.7-0.3
		c0.4-0.1,0.7-0.3,1.1-0.5c0.2-0.1,0.2-0.1,0.3-0.2c0.2-0.2,0.1-0.2,0.2-0.4c0-0.1,0-0.2,0-0.3c0.1-0.1,0.2-0.1,0.3-0.1
		c0,0,0.3-0.2,0.3-0.1c0.1,0,0-0.1,0.4-0.1c0,0-0.4,0.2-0.4,0.2c0.2,0.1,0.7,0.1,0.8-0.1l0,0c0.1,0,0.4-0.1,0.5,0
		c-0.4,0-0.2,0-0.3,0.2c0.2,0,0.3,0,0.5,0c0-0.1,0.1-0.2-0.1-0.2c0.5-0.5,0.6,0,0.9,0c-0.1,0.1-0.8-0.1-0.7,0.1
		c0.1,0.1,0.5,0.2,0.7,0.1c0.4-0.1,0.4-0.2,0.5-0.5c0.3-1-1.3-0.9-2-0.9c-0.4,0-0.6,0.1-0.9,0.1c-0.2,0-0.7-0.2-0.8-0.2
		c-0.1,0.2-0.2,0.4-0.2,0.6c-0.1,0-0.2,0-0.3,0c-0.2,0.1-0.7,0-0.9,0c-0.6,0-1.1,0.1-1.7,0.1c-0.2,0-0.4,0.1-0.6-0.1
		c-0.2,0-0.3,0-0.3-0.3c0-0.2-0.1-0.3-0.2-0.5c0,0,1.1-0.1,1.1-0.5c-0.4,0-1.5-0.2-0.5-0.4c0.3-0.1,0.6,0.1,0.9,0.1
		c0.1,0,0.1,0,0.1-0.1c0.2,0.2,0.7,0.1,1,0.2c0.4,0.1,0.4,0.4,0.8,0.1c-0.2,0.1,0.7,0.6,0.7,0.6c-0.1-0.2,0.2-0.2,0.2-0.4
		c0-0.1-0.4-0.2-0.3-0.2c-0.4-0.4-0.7-0.4-1.3-0.6c-0.1-0.1-0.2-0.2-0.3-0.3c-0.1,0-0.2,0-0.4,0c-0.2-0.1-0.3-0.2-0.6-0.2
		c-0.4-0.1-0.9,0-1.3,0.1c-0.4,0.1-0.6,0.7-0.9,0.8c-0.2,0.1-0.2-0.2-0.4-0.2c-0.2,0-0.2,0.2-0.4,0.3c-0.5,0.2-0.7,0.1-0.8-0.4
		c-0.2-0.5-0.1-0.5-0.6-0.7c-0.1,0.7-0.1,1.5,0.1,2.2c0-0.1,0-0.1,0-0.2c0.3-0.1,0.1-0.3,0.3-0.4c0.2-0.2,0.5-0.1,0.7,0
		c0.2,0.1,0.3,0.1,0.3,0.3c0,0.5-0.4,0.2-0.6,0.4C789,4.8,789.7,4.8,789,5c-0.2,0.1-0.3-0.2-0.5,0.1c-0.1,0.2,0.2,0.5-0.2,0.5
		c0,0.2,0.3,0.2,0.3,0.4c-0.2,0.1-0.2-0.1-0.3,0.1c-0.1,0.1-0.1,0.3-0.2,0.5c-0.5-0.5-0.3-1.2-0.3-1.8c0-0.1-0.1-1.4,0.1-1.4
		c-0.3-0.1,0-0.8-0.5-0.6c0-0.2,0-0.6,0.1-0.8c-0.2,0-0.5,0.1-0.7,0.3c-0.1,0.1-0.3,0.1-0.3,0.3c0,0.1,0.2,0.1,0.2,0.1
		c0.1,0.7-0.2,1.1-0.2,1.8c-0.4,0-0.2-0.9-0.2-1.1c0-0.4,0.1-0.5,0.1-0.8c-0.8,0-1.2,0.3-1.9,0.4c-0.4,0-0.9,0.2-1.3,0.2
		c-0.2,0-0.5-0.1-0.7-0.1c0,0-0.1-0.3,0.1,0.1c-0.4,0.2-0.7,0-1.1,0c-0.4,0-0.9,0-1.3,0c-0.5,0-1.2,0.2-1.7-0.1
		c-0.1,0-0.1-0.4-0.4-0.4c-0.1,0-0.2,0.1-0.2,0.1c0.4,0,0,0.8,0.1,0.9c0.3,0.5,0.3-0.5,0.3-0.5c0.2-0.1,0.2,0.8,0.2,0.9
		c0,0,0,0.9-0.1,0.9c0.2,0.2,0.2,0,0.3-0.1c0.1-0.3-0.2-0.6,0.3-0.8c0.4-0.1,1.2,0,1.5,0.1c0.2,0,2,0,2-0.1c-0.1,0-0.2-0.1-0.2-0.2
		c0,0,0.1,0,0.1,0c0,0.1,0,0.1,0,0.2c0-0.1,0-0.1,0-0.2c0.2,0.1,1.9,0.1,1.9-0.1c-0.1-0.1,0,0-0.1-0.1c-0.2,0.2-0.7-0.3-0.7,0.1
		c-0.3-0.4-1.3-0.3-1.8-0.3c-0.3,0-0.7,0.2-1,0.2c-0.1,0-0.2-0.2-0.4-0.2c-0.1,0-0.2,0.2-0.3,0.2c0.1,0-0.2-0.2-0.3-0.2
		c-0.3-0.1-1.2,0.3-1.1-0.3c1.1,0,2.3,0,3.5,0.1c0.6,0,1,0,1.5,0.1c0.5,0.1,1.3,0.1,1.8,0.1c0,0.5-0.9,0.2-1,0.5
		c-0.1,0.3,0,0.3,0.2,0.4c0,0,0.5,0.1,0.5,0.1c0,0.7-0.9,0.3-1.4,0.3c-0.2,0-1.6,0.1-1.7,0c0,0.1-0.7,0-0.9,0
		c-0.4,0-0.7-0.1-1.1-0.1c-0.2,0-0.4,0-0.6,0c-0.1,0-0.5-0.1-0.6,0c-0.3,0.2-0.1,0.3-0.2,0.5c0.1,0,0.1,0.1,0.1,0.1
		c0,0.1-0.1,0.1-0.2,0.1c-0.2,0-0.3,0.1-0.3,0.3c0,0.2,0,0.4,0,0.6c-0.1,0-0.2-0.2-0.3-0.1c-0.1,0.1,0.1,0.3,0,0.4
		c-0.1,0.1-0.4,0.2-0.5,0.1c-0.2-0.2,0.2-1,0-1.3c0,0.3-0.6,0.1-0.6,0.3c0.1,0,0.2,0.1,0.3,0.1c-0.1,0-0.2,0.1-0.3,0.2
		c-0.3-0.1-0.1-1-0.1-1.2c0,0,0.8,0.6,0.6,0.6c0-0.4,0.4-0.1,0.5-0.1c0.3-0.2,0.2-0.7,0.1-0.9c-0.1,0.1-0.1,0.3-0.1,0.4
		c-0.1,0-0.3,0-0.4,0.1c0-0.6,0-1.3,0-1.9c0-0.1,0-0.2,0-0.3c0-0.3,0.1-0.3,0.4-0.2c0,0,0.2,0,0.2-0.1c-0.4,0-0.7-0.2-1.1,0.1
		c-0.2,0.1-0.5,0.4-0.6,0.5c-0.2,0.1-0.1,0.2-0.3,0.3c-0.2,0-0.6-0.1-0.8-0.1c-0.7,0-1.1,0-1.8,0c-0.2,0-0.4-0.1-0.6-0.1
		c-0.2,0-0.5,0.1-0.7,0c-0.5-0.2-0.2-0.4-0.2-0.8c0-0.2-0.1-0.4-0.1-0.6c0-0.3,0.1-0.7-0.3-0.8c-0.4-0.1-1,0.2-0.8,0.6
		c0,0.1,0.5,0.3,0.6,0.4c0.1,0.2-0.2,0.5,0.2,0.3c0.1,0-0.2,0.3-0.2,0.3c0.2,0.2,0.2,0.1,0.5,0.3c0.3,0.2,0.6,0.7,1,0.5
		c0-0.1,0-0.1,0.1-0.1c-0.1,0.3,0.6,0.4,0.9,0.3c0.3-0.1,0.4-0.2,0.8-0.1c0.1,0,0.1,0.1,0.2,0.1c0.1,0,0.2-0.1,0.2-0.1
		c0.3,0.1,0.4,0.3,0.8,0.2c0.2,0,0.3-0.3,0.5-0.2c0.1,0,0.1,0.4,0.1,0.5c-0.1,0.3,0.1,0.2-0.2,0.3c-0.3,0.1-0.8-0.1-0.8,0.3
		c0.1,0,0.3-0.2,0.4,0c-0.8,0.2-1.7,0.1-2.5,0c-0.4,0-0.6-0.1-0.8,0c-0.1,0.1-0.1,0.2-0.3,0.3c-0.2,0.1-0.4,0-0.5,0
		c-0.4,0-0.5,0.1-0.6-0.5c0-0.1-0.1-0.4,0-0.5c0.1-0.1,0.3,0.1,0.4,0c0.3-0.1,0.4,0.2,0.3-0.3c-0.1-0.3-0.4-0.6-0.8-0.6
		c0,0.1,0,0.3,0.1,0.4c-0.2,0-0.3,0.9-0.5,1.1c-0.1,0.1-0.4,0-0.4,0.3c0,0.1,0.5,0.1,0.4,0.3c0,0-0.4-0.1-0.4,0
		c0,0.1,0.1,0.2,0.2,0.2c-0.2,0.1-0.8,0.3-0.8,0.8c-0.2-0.2-0.2-0.1-0.3,0.1c0,0,0.1,0.4,0.2,0.4c0,0-0.2,0.2-0.2,0.3
		c0.1,0,0.4-0.1,0.4,0c0,0.1-0.6,0.4-0.6,0.4c0-0.2-0.2-0.4-0.2-0.5c0-0.2,0.1-0.2,0.1-0.4c0.1-0.6-0.1-0.3-0.5-0.6
		c0.4,0,0.4,0,0.6-0.3c0.1-0.2-0.2-0.5,0-0.7c0.2-0.3,0.4,0.3,0.5-0.3c-0.5,0.2,0-0.6-0.1-0.7c-0.2-0.3-0.4,0-0.5-0.2
		c-0.2-0.2,0-0.7,0-0.9c0-0.4-0.1-0.7-0.1-1c0.3,0.1,0-0.1,0.2-0.1c0.1,0.3,0.7,0.2,0.6,0.6c0.5,0-0.1-0.8-0.2-1
		c-0.2-0.2-0.5-1-0.9-0.9c-0.3,0.1-0.3,0.4-0.5,0.6c-0.1,0.1-0.3,0.2-0.4,0.3c0,0.2,0,0.3-0.1,0.5c-0.2,0.5-0.8,1-1.4,1
		c0-0.4,0-0.6-0.3-0.8c-0.3-0.1-0.6-0.1-0.7,0.2c-0.1,0.2,0.1,0.3-0.1,0.5c-0.2,0.2-0.5,0-0.8,0c-0.3,0-3.4,0.5-3.4,0.1
		c0.6,0,0-0.5-0.1-0.6C760.6,2.3,760.6,2.7,760.7,3.1z M757.3,6.1h0.2C757.5,6,757.2,6,757.3,6.1z M758.4,4.9c0,0.2-0.1,0.3-0.1,0.5
		c0.1,0,0.1,0,0.2,0C758.4,5.4,758.6,4.9,758.4,4.9z M758.3,3.7c0,0.2-0.1,0.4,0.1,0.4C758.5,4,758.6,3.7,758.3,3.7z M761.2,5.4
		c0-0.2,0.1-1,0-1.2c-0.4-0.6-0.5,1-0.5,1.2c0,0.2-0.1,1.3,0.1,1.3c0.2,0,0.2-0.1,0.4-0.1C761.2,6.3,761.2,5.8,761.2,5.4z
		 M758.2,7.6c0.3,0.1,0.9,0,1.1,0.1c0.3,0.1-0.3,0.4,0.3,0.3c0.1,0,0.2-0.1,0.2-0.2c0-0.1-0.6-0.3,0.1-0.4c0.3-0.1,0.7,0.2,0.9,0.1
		c0.2-0.1,0.1-0.5,0-0.6c-0.1-0.1-0.4-0.1-0.6-0.1c0-0.1,0.2-0.5,0.1-0.6c-0.1-0.2-0.4-0.1-0.5-0.2c-0.2-0.3,0-0.7,0-1
		c0-0.3-0.3-0.7-0.3-0.9c0-0.2,0.1-0.5,0.1-0.7c0-0.2-0.1-0.4-0.1-0.5c0-0.3-0.2-2.2,0.5-1.7c0.4,0.3-0.1,1.2,0.3,1.6
		c0.1,0.1,0.3,0.1,0.5,0.2c0.2,0.3-0.1,0.7,0.1,1c0.2,0.4,0.2-0.2,0.2-0.4c0-0.4,0.1-0.8,0.1-1.2c0-0.1,0.1-0.5,0-0.6
		c-0.2-0.3-0.3,0-0.5,0c0.3,0,0.3-0.4,0.2-0.6c-0.1-0.2-0.9-0.7-1.2-0.7c-0.8-0.2-1.1,0.8-1.7,1.2c-0.2,0.1-0.9,0.3-1,0.4
		c-0.1,0.1,0,0.5,0,0.6c0,0.2-0.1,0.6,0,0.7c0.1,0.2,0.4,0.2,0.5,0.5c-0.1,0.1-0.4-0.1-0.5,0.1c-0.1,0.1,0.1,0.3,0.1,0.3
		c-0.1,0.3-0.1,0.2-0.1,0.4c-0.1,0.6,0,1.2,0,1.8C757.9,6.4,757.6,7.3,758.2,7.6z"/>
	<path class="st2" d="M42.4,2.5c-0.9-0.5-1.9-0.9-2.8-1.4c-0.3,0.6-0.6,1.6-1.1,2.1c-0.3,0.2,0,0.1-0.4,0.2c-0.4,0-1-0.1-1.4-0.2
		c-0.8-0.1-1.4-0.2-2.2-0.4c-0.4-0.1-0.4-0.1-0.8,0c-0.2,0.1-1,0.4-1.2,0.3c-0.6-0.2-0.7-1.6-1.3-1.8C30.9,1,29.3,1.3,29,1.5
		c-0.6,0.3-0.7,1.1-1.2,1.4c-0.4,0.3-1.5,0.5-2,0.6c-0.8,0.1-2-0.1-2.7-0.3c-0.3-0.1-0.3,0-0.6-0.2c-0.5-0.3-0.3-0.5-0.8-0.1
		c-0.7,0.4-0.5,0.6-1.3,0.6c-1,0-1.9-0.1-2.9-0.1c-1,0-2-0.1-3-0.1c-0.7,0-0.8,0-1.3-0.5c-0.3-0.3-0.4-0.5-0.8-0.6
		c-0.5-0.2-0.6,0-1.1,0.2c-0.5,0.3-1.4,1-1.9,1.1c-0.6,0-1.2-0.8-1.9-0.9C6.6,2.6,6.2,2.6,5.4,3C4.5,3.4,3.6,4,2.6,4.3
		C2.3,4.4,1.9,4.3,1.5,4.4C1.2,4.6,1,4.8,0.8,5.2C1.9,5.5,3,5.9,4.1,6.3C4.4,6.4,4.7,6.5,5,6.5C5.5,6.6,6.4,7,7,6.9
		c0.9-0.1,1.6-1,2.6-1.1c0.6,0,0.9,0.3,1.4,0.6c0.6,0.3,0.4,0.4,0.3,1.1c0.9-0.7,1.6-1.2,2.7-1.3c1.7-0.1,3.4,0,5.1-0.1
		c0.6,0,1.3-0.1,1.8,0c0.4,0.1,0.8,0.5,1.2,0.4C22.7,6.4,23.1,6,23.7,6c0.8-0.1,1.7,0,2.6,0c0.4,0,1.5-0.2,1.9,0
		c0.4,0.2,0.7,0.8,1.1,1.1c0.4,0.3,1.1,1,1.6,1c0.5-0.1,1.1-0.9,1.3-1.3C32.1,6.6,32.4,6,32.5,6c0.2-0.1,0.9,0.4,1.1,0.4
		c0.6,0.1,1.1-0.1,1.7-0.3c0.6-0.1,1.2-0.4,1.8-0.4c0.2,0,1-0.1,1.1,0c0.2,0.1,0.2,0.5,0.3,0.7c0.1,0.2,0.1,0.8,0.3,0.9
		c0.2,0.1,1.1-0.1,1.3-0.1C40.9,7.1,41.5,7,42,6.4c0.4-0.4,0.2-1.2,0.3-1.7C42.4,3.9,42.4,3.2,42.4,2.5z"/>
	<path class="st0" d="M34.6,3.3C34.6,3.4,34.6,3.4,34.6,3.3c0.2,0.2,0.1,0,0.2-0.1C34.8,3.3,34.7,3.3,34.6,3.3z M35.1,3.4
		c0.2,0,0.3,0,0.5,0C35.4,3.4,35.2,3.2,35.1,3.4z M16.4,5.9c0.1,0,0.1,0,0.2,0c0-0.2,0-0.2-0.2-0.2C16.4,5.7,16.4,5.8,16.4,5.9z
		 M6.4,6.9C6.5,6.9,6.5,6.9,6.4,6.9L6.4,6.9L6.4,6.9L6.4,6.9z M5.7,6.5L5.7,6.5L5.7,6.5L5.7,6.5L5.7,6.5L5.7,6.5z M6,3
		c0.1,0,0.2,0,0.2,0C6.3,2.8,6,2.9,6,3z M11,4.1c0.1,0,0.1,0,0.2,0c0.1,0-0.1-0.2-0.2-0.2C11,3.9,11,4,11,4.1z M7.1,6
		C7,5.9,6.9,5.8,6.8,5.8C6.5,5.9,7.1,6,7.1,6L7.1,6z M8.4,6c0,0.1,0.1,0.1,0.2,0.1C8.5,6,8.5,6,8.4,6z M4.4,6C4.4,6.3,4.6,6,4.7,6
		C4.6,6,4.5,6,4.4,6z M4.3,5.4c0,0.4,2.2,1,2.2,0.5c0-0.3-0.7-0.2-0.9-0.3C5.2,5.3,4.9,5.2,4.3,5.4z M5.2,5.2c0-0.1,0-0.1-0.1-0.1
		C5.1,5.1,5.2,5.2,5.2,5.2L5.2,5.2z M8.5,4.5c0.1,0,0.2-0.2,0.3-0.2C8.5,4.2,8.5,4.1,8.5,4.5z M8,3.7C8.1,3.7,8.1,3.7,8,3.7
		C8.1,3.7,8.1,3.7,8,3.7L8,3.7z M10.4,5.2c0,0-0.4-0.1-0.4-0.1c0.1,0.2,0.1,0.3,0.4,0.3C10.4,5.3,10.4,5.2,10.4,5.2z M10,5.8
		C10,5.7,10,5.7,10,5.8C9.9,5.8,10,5.8,10,5.8L10,5.8z M9.1,5c0.3-0.3,0.3-0.3,0.3-0.8c0-0.2,0.1-1-0.4-0.6C8.6,3.9,9.1,5,8.8,5.2
		c0,0.4,0.2,0.6,0,0.9C8.9,6.2,9,6.2,9.2,6.3C9.3,5.8,8.9,5.4,9.1,5z M12,6.4c0,0,0.1-0.1-0.1-0.1C11.8,6.3,11.9,6.5,12,6.4z
		 M18.1,5.1c-0.1,0-0.3,0.1-0.3,0.2C17.8,5.6,18.4,5.3,18.1,5.1z M16.6,5.3c0-0.2,0-0.2-0.2-0.2C16.4,5.2,16.5,5.3,16.6,5.3
		L16.6,5.3z M15.1,5.1C15.2,5.2,15.2,5.2,15.1,5.1L15.1,5.1L15.1,5.1z M17.5,5.5c0.1,0,0.1-0.1,0.2-0.1c0,0,0-0.1,0-0.1
		c-0.1,0-0.2,0.1-0.3,0.1C17.5,5.4,17.4,5.5,17.5,5.5L17.5,5.5z M14.9,5.7c-0.2-0.4-0.2,0.2-0.2,0.2C14.7,5.8,14.8,5.7,14.9,5.7z
		 M12,6c0,0.1,0,0.2,0.1,0.2c0.1,0,0.1-0.3,0-0.3C12.1,5.9,12.1,5.9,12,6z M12.4,5.6c0.1,0.1,0.2,0.1,0.2,0.2c0-0.1,0-0.1,0-0.2
		C12.6,5.6,12.5,5.6,12.4,5.6z M12.1,5V4.7C12.1,4.7,11.9,5,12.1,5z M13.8,4.7c0-0.3,0-0.5,0.1-0.8c0-0.1,0.2-0.8-0.2-0.6
		c0,0.8-0.3,2.1,0.1,2.9c0,0,0.1,0,0.1,0C13.7,5.7,13.9,5.2,13.8,4.7z M20.5,5.2c0-0.1-0.5-0.2-0.5,0C20.2,5.2,20.4,5.2,20.5,5.2
		L20.5,5.2z M20.5,5.8L20.5,5.8C20.6,5.8,20.4,5.7,20.5,5.8z M21.2,5.7c0-0.1-0.2,0-0.2-0.2c0,0.1-0.1,0.1-0.1,0.2
		C21,5.8,21,5.7,21.2,5.7z M26.9,5.9L26.9,5.9L26.9,5.9L26.9,5.9L26.9,5.9L26.9,5.9z M25.9,5.8c0.1,0-0.1,0-0.1,0H25.9z M23.9,5.9
		c0.1,0,0.1,0,0.1-0.1C23.9,5.7,23.9,5.8,23.9,5.9L23.9,5.9z M24.6,5.9c0.2,0.1,0.3,0.1,0.3,0c0,0-0.3-0.2-0.3-0.2
		C24.6,5.7,24.6,5.8,24.6,5.9z M23.1,5.3c0.2,0,0.7,0.2,0.7,0C23.8,5,23.1,4.8,23.1,5.3z M25.5,4.9c0,0.5-0.2,0-0.7,0.1
		c-0.9,0.2,0.4,0.5,0.5,0.3c0,0,0.4,0.1,0.5,0C26,5.2,25.7,4.9,25.5,4.9z M26.1,5c0,0.6,0.3,0.7,0.3,0C26.3,5,26.2,5,26.1,5z
		 M28.7,5.9c-0.1-0.1-0.1-0.6-0.4-0.5c0.4-0.1-0.3-0.2-0.3-0.3c-0.5-0.1-0.7-0.2-0.7,0.4c-0.2-0.2-0.1-0.4-0.4-0.4
		c0,0.2,0,0.3,0,0.5c0.3,0,0.5-0.2,0.8,0.1C27.7,5.7,28.1,6,28,6.1c0-0.1,0-0.1,0.1-0.1c0.1,0.1-0.4,0.9,0.2,0.5
		C28.4,6.5,28.7,6,28.7,5.9z M30.5,7.3L30.5,7.3c-0.1,0-0.1,0-0.2,0C30.3,7.4,30.4,7.4,30.5,7.3z M31.5,7.5c0.1,0.1,0.2,0.1,0.3,0.1
		c0-0.1,0-0.3,0-0.4C31.7,7.4,31.6,7.5,31.5,7.5z M33.9,4.3C33.8,4.3,33.8,4.3,33.9,4.3c-0.6,0-0.2,0.5-0.3,0.6
		C34,4.9,33.9,4.5,33.9,4.3z M37.6,5c-0.2,0-0.3,0.1-0.5,0C37.1,5.4,37.6,5,37.6,5z M38.4,5.2c-0.2,0-0.7-0.2-0.7,0
		c0,0.2,0.6,0.1,0.7,0.2C38.4,5.3,38.4,5.2,38.4,5.2z M38.2,5.8L38.2,5.8L38.2,5.8L38.2,5.8L38.2,5.8z M37.1,5.7L37.1,5.7L37.1,5.7
		L37.1,5.7L37.1,5.7z M33.8,6.4c0.2,0,0.4-0.9,0.5-1.1c0.1-0.2,0.3-0.1,0.3-0.5c0,0-0.1,0-0.1,0c0,0.2,0,0.1,0.1,0.2l0,0
		C33.9,4.8,33.4,6.1,33.8,6.4z M32.2,6.1c0.1,0-0.2-0.3-0.2,0C32,6.2,32.1,6.2,32.2,6.1z M32.4,6L32.4,6c0.1,0.1,0.1,0.1,0.1,0.2
		C32.7,6.2,32.4,5.9,32.4,6L32.4,6z M31.6,5.3c0,0.3-0.1,1.5,0.2,1.8c0.3-0.3,0.2-1,0.2-1.3C31.9,5.4,32,5.3,31.6,5.3z M32.8,5.4
		c0.2,0,0.1,0.2,0.2,0.2c0,0-0.2-0.8-0.3-0.6C32.7,5.1,32.8,5.2,32.8,5.4z M30.7,4.4L30.7,4.4C30.5,4.3,30.5,4.5,30.7,4.4L30.7,4.4z
		 M31.7,3.6c0,0.4-0.2,1-0.1,1.4c0.2,0,0.3-0.5,0.2-0.5c0.2,0,0-1,0-1.1C31.6,3.4,31.7,3.5,31.7,3.6z M31.1,2.3c0,0.2,0,0.4,0.1,0.4
		C31.3,2.6,31.3,2.3,31.1,2.3z M31.7,2.7c0-0.1,0.2-0.9-0.1-0.9c0.3,0.3,0,1,0,1.4C31.9,3.2,31.9,2.8,31.7,2.7z M38.9,2.2
		c-0.1,0.1-0.7,0.6-0.1,0.6c0,0.4-3.1-0.1-3.4-0.1c-0.2,0-0.5,0.2-0.8,0c-0.3-0.2,0-0.3-0.1-0.5C34.3,1.9,34,1.9,33.7,2
		c-0.4,0.2-0.3,0.4-0.3,0.7c-0.6,0-1.2-0.5-1.4-1C32,1.6,32,1.5,32,1.3c-0.2-0.1-0.3-0.1-0.4-0.3c-0.2-0.2-0.1-0.5-0.5-0.6
		c-0.4-0.1-0.7,0.7-0.9,0.9c-0.1,0.1-0.8,0.9-0.2,0.9c-0.1-0.4,0.5-0.3,0.6-0.6c0.2,0,0,0.2,0.2,0.1c0,0.3,0,0.6-0.1,1
		c0,0.2,0.1,0.7,0,0.9c-0.1,0.2-0.3-0.1-0.5,0.2c-0.1,0.1,0.4,0.8-0.1,0.7c0.1,0.6,0.3,0,0.5,0.3c0.1,0.1-0.1,0.5,0,0.7
		c0.1,0.3,0.2,0.3,0.6,0.3c-0.3,0.3-0.5-0.1-0.5,0.6c0,0.2,0.1,0.2,0.1,0.4c0,0.2-0.2,0.3-0.2,0.5C30.5,7.3,30,7,30,6.9
		c0-0.1,0.3,0,0.4,0c0-0.1-0.2-0.3-0.2-0.3c0-0.1,0.2-0.4,0.2-0.4c0-0.1,0-0.3-0.3-0.1c0-0.5-0.6-0.7-0.8-0.8c0.1,0,0.2-0.1,0.2-0.2
		c0-0.1-0.4,0-0.4,0c-0.1-0.2,0.4-0.2,0.4-0.3c0-0.2-0.3-0.2-0.4-0.3c-0.2-0.2-0.3-1.1-0.5-1.1c0.1-0.1,0.1-0.3,0.1-0.4
		c-0.4,0-0.7,0.3-0.8,0.6C27.8,4.2,27.9,4,28.2,4c0.1,0,0.2-0.2,0.4,0c0.1,0.1,0,0.4,0,0.5c-0.1,0.5-0.2,0.4-0.6,0.5
		c-0.2,0-0.3,0.1-0.5,0c-0.2-0.1-0.2-0.3-0.3-0.3c-0.2-0.1-0.4,0-0.8,0c-0.8,0-1.7,0.1-2.5,0c0.1-0.2,0.3,0,0.4,0
		c0-0.4-0.5-0.2-0.8-0.3c-0.3-0.1-0.1,0.1-0.2-0.3c0-0.1,0-0.5,0.1-0.5c0.2-0.1,0.3,0.2,0.5,0.2c0.4,0.1,0.5-0.1,0.8-0.2
		c0.1,0,0.2,0.1,0.2,0.1c0.1,0,0.1-0.1,0.2-0.1c0.4,0,0.4,0.1,0.8,0.1c0.2,0,1,0,0.9-0.3c0.1,0,0.1,0,0.1,0.1c0.5,0.2,0.7-0.3,1-0.5
		c0.2-0.2,0.3,0,0.5-0.3c0,0-0.2-0.4-0.2-0.3c0.4,0.1,0-0.2,0.2-0.3c0.1-0.1,0.6-0.3,0.6-0.4c0.2-0.4-0.4-0.7-0.8-0.6
		c-0.4,0.1-0.3,0.5-0.3,0.8c0,0.2-0.1,0.4-0.1,0.6c0,0.4,0.2,0.5-0.2,0.8c-0.2,0.1-0.5,0-0.7,0c-0.1,0-0.3,0.1-0.6,0.1
		c-0.6,0-1.1,0-1.8,0c-0.2,0-0.6,0.1-0.8,0.1c-0.2-0.1-0.2-0.2-0.3-0.3c-0.2-0.1-0.4-0.4-0.6-0.5c-0.4-0.3-0.6-0.1-1.1-0.1
		c0,0.1,0.2,0.1,0.2,0.1c0.3-0.1,0.4,0,0.4,0.2c0.1,0.1,0.1,0.2,0,0.3c0.1,0.6,0,1.3,0,1.9c-0.1-0.1-0.3-0.1-0.4-0.1
		c0-0.1,0-0.3-0.1-0.4c-0.1,0.2-0.2,0.7,0.1,0.9c0.1,0,0.5-0.3,0.5,0.1c-0.2,0,0.6-0.6,0.6-0.6c0,0.2,0.2,1.1-0.1,1.2
		c-0.1-0.1-0.2-0.2-0.3-0.2c0.1,0,0.2-0.1,0.3-0.1c0-0.2-0.6,0-0.6-0.3c-0.2,0.3,0.2,1.1,0,1.3c-0.1,0.1-0.4,0-0.5-0.1
		c-0.1-0.1,0.1-0.3,0-0.4c-0.1-0.1-0.2,0.1-0.3,0.1c0-0.2,0-0.4,0-0.6c0-0.3,0-0.4-0.3-0.3c-0.1,0-0.2,0-0.2-0.1c0,0,0-0.1,0.1-0.1
		C20.8,5,21,4.8,20.7,4.7c-0.1-0.1-0.5,0-0.6,0c-0.2,0-0.4,0-0.6,0c-0.3,0-0.7,0-1.1,0.1c-0.2,0-0.9,0.1-0.9,0
		c-0.1,0.2-1.5,0.1-1.7,0c-0.5,0-1.4,0.3-1.4-0.3c0,0,0.5-0.1,0.5-0.1c0.2-0.1,0.3-0.1,0.2-0.4c-0.1-0.2-1,0-1-0.5
		c0.5,0,1.3,0,1.8-0.1c0.5-0.1,0.9,0,1.5-0.1c1.2,0,2.4-0.1,3.5-0.1c0.1,0.6-0.8,0.3-1.1,0.3c-0.1,0-0.3,0.2-0.3,0.2
		c-0.2,0-0.2-0.2-0.3-0.2c-0.2,0-0.3,0.2-0.4,0.2c-0.2,0-0.7-0.1-1-0.2c-0.5,0-1.5-0.1-1.8,0.3c0-0.4-0.5,0.1-0.7-0.1
		c-0.1,0.1,0,0-0.1,0.1c0,0.2,1.7,0.2,1.9,0.1c0,0.1,0,0.1,0,0.2c0-0.1,0-0.1,0-0.2c0,0,0.1,0,0.1,0c0,0.1-0.1,0.2-0.2,0.2
		c0,0,1.9,0.1,2,0.1c0.3,0,1.1-0.2,1.5-0.1c0.5,0.2,0.2,0.5,0.3,0.8c0,0.1,0.1,0.3,0.3,0.1c0,0-0.1-0.8-0.1-0.8c0-0.1,0-1,0.2-0.9
		c0,0,0,1,0.3,0.5c0.1-0.1-0.3-0.9,0.1-0.9c0,0-0.1-0.1-0.2-0.1c-0.3,0-0.3,0.4-0.4,0.4c-0.5,0.3-1.3,0.1-1.7,0.1
		c-0.4,0-0.9,0-1.3,0c-0.3,0-0.7,0.2-1.1,0c0.2-0.4,0.1-0.1,0.1-0.1c-0.2,0-0.5,0.1-0.7,0.1c-0.4,0-0.9-0.2-1.3-0.2
		c-0.7-0.1-1.1-0.4-1.9-0.4c0,0.3,0.2,0.5,0.1,0.8c0,0.2,0.1,1.1-0.2,1.1c0-0.7-0.3-1.1-0.2-1.8c0,0,0.2,0,0.2-0.1
		c0-0.2-0.2-0.2-0.3-0.3c-0.2-0.1-0.5-0.3-0.7-0.3c0.1,0.2,0.1,0.5,0.1,0.8c-0.5-0.2-0.2,0.5-0.5,0.6c0.2,0,0.1,1.3,0.1,1.4
		c-0.1,0.6,0.2,1.3-0.3,1.8c-0.1-0.2-0.1-0.3-0.2-0.5c-0.1-0.2-0.1,0-0.3-0.1c0-0.2,0.3-0.2,0.3-0.4c-0.4,0.1-0.1-0.3-0.2-0.5
		c-0.2-0.4-0.3-0.1-0.5-0.1C9.8,5,10.5,5,10.3,4.6c-0.1-0.2-0.6,0-0.6-0.4c0-0.3,0.1-0.3,0.3-0.3c0.2-0.1,0.5-0.2,0.7,0
		c0.2,0.1,0,0.4,0.3,0.4c0,0.1,0,0.1,0,0.2c0.2-0.7,0.2-1.5,0.1-2.2c-0.5,0.2-0.4,0.2-0.6,0.7c-0.2,0.5-0.4,0.6-0.8,0.4
		C9.5,3.3,9.5,3.1,9.3,3.1c-0.2,0-0.1,0.2-0.4,0.2C8.5,3.2,8.4,2.6,8,2.5C7.6,2.4,7.1,2.3,6.7,2.4C6.5,2.4,6.3,2.5,6.1,2.6
		c-0.1,0-0.2,0-0.4,0c-0.2,0-0.3,0.1-0.3,0.3C4.9,3.1,4.6,3,4.2,3.5c0,0-0.3,0.1-0.3,0.2C3.8,3.9,4.1,3.9,4,4.1c0,0,0.9-0.4,0.7-0.6
		c0.4,0.3,0.4,0,0.8-0.1c0.3-0.1,0.8,0,1-0.2c0,0.1,0,0.1,0.1,0.1c0.3,0,0.6-0.2,0.9-0.1c0.9,0.2-0.2,0.4-0.5,0.4
		c0,0.4,1.1,0.5,1.1,0.5C8.1,4.2,8,4.4,8,4.5c0,0.2-0.1,0.3-0.3,0.3C7.4,5,7.3,4.9,7,4.9c-0.6,0-1.1-0.1-1.7-0.1
		c-0.2,0-0.7,0.1-0.9,0c-0.1,0-0.2,0-0.3,0c0-0.2-0.1-0.4-0.2-0.6C3.8,4.2,3.3,4.4,3.1,4.4c-0.3,0-0.6-0.1-0.9-0.1
		c-0.7,0-2.3,0-2,0.9c0.1,0.3,0.2,0.4,0.5,0.5c0.2,0,0.6,0,0.7-0.1c0.1-0.2-0.6,0-0.7-0.1c0.3,0,0.4-0.5,0.9,0
		c-0.2,0-0.1,0.1-0.1,0.2c0.2,0,0.3,0,0.5,0C1.9,5.4,2.1,5.4,1.7,5.4c0.1-0.1,0.4,0,0.5,0l0,0C2.3,5.5,2.8,5.6,3,5.5
		c0,0-0.4-0.2-0.4-0.2C3,5.3,2.9,5.4,3,5.4c0,0,0.3,0.1,0.3,0.1c0.1,0,0.2,0,0.3,0.1c0,0.1,0,0.2,0,0.3c0.1,0.2,0,0.2,0.2,0.4
		C3.9,6.5,4,6.5,4.1,6.5c0.4,0.2,0.7,0.4,1.1,0.5c0.8,0.3,1.8,0.7,2.7,0.3c0.3-0.1,1.3-1.5,1.6-0.9c0,0,0.5-0.3,0.5-0.3
		c0.2-0.1,0.5,0,0.7-0.1c-0.1,0.1-0.1,0.3,0.1,0.3c0.5-0.4,0.1,0.4,0.1,0.5c0,0.2,0.1,0.9,0.3,1.1c0.1,0.1,0.3,0.2,0.6,0.2
		C12.1,8,12,7.9,12.2,7.6c-0.1,0-0.1,0-0.1-0.1C11.7,8,11.4,7.4,11.5,7c0.1,0,0.7,0.6,0.7,0.5c0.3-0.3,0.5-0.7,0.9-0.8
		c0.3-0.2,0.4,0,0.8,0c0.2,0,0.6-0.1,0.5-0.3c0,0,0.7-0.2,1-0.2c0-0.1-0.3-0.3-0.3-0.4c0-0.1,0.2-0.3,0.2-0.3
		c0.2,0.2,0.1,0.1,0.4,0.2c0.1,0,0.6,0,0.5,0.2c-0.1,0.2-0.5,0-0.6,0.3c0.2,0.3,0.8,0,1,0c0.1,0,1.2,0.1,1-0.1
		c-0.2-0.1-0.6,0.1-0.7-0.1c0.1-0.1,1.9-0.1,1.9-0.1c0,0,0,0.1,0.1,0.1c0-0.3,0.2-0.2-0.1-0.4c-0.1-0.1-0.5,0-0.5-0.1
		c0-0.3,1.1-0.1,1.3-0.1c-0.1,0-0.5,0.2-0.4,0.3c0.1,0.3,0.3,0.1,0.5,0.1c0.1,0,0.4-0.1,0.5,0c0.1,0.2-0.1,0.3-0.3,0.3
		c0.1,0.2,0.6,0.1,0.7,0.1c0.1,0,0.3,0,0.4,0c0.2,0.1-0.1,0.2,0.1,0.3c0.2,0.1,0.4,0,0.6,0.1c0.1,0.1,0.1,0.2,0.3,0.3
		c0.4,0.1,0.7-0.1,0.9-0.3c0.2-0.2,0.2-0.2,0.3-0.4c0.2-0.4,0-0.1,0.3-0.2c0.8-0.2,2,0,2.8,0C26.2,6,26.2,5.8,26,5.8
		c0,0,0.1-0.1,0.1-0.1c0,0.1,0.1,0.1,0.1,0.2c0.1,0.1,0,0.1,0,0.2c0.6,0,1.2,0,1.3,0.6C27.6,7,27.4,7.3,28,7.2
		c0.3-0.1,0.5-0.2,0.6-0.5c0-0.1-0.1-0.3,0-0.4c0.3-0.3,0.2-0.1,0.5,0c0.2,0.1,0.6,0.6,0.8,0.6c-0.4,0,0,0.5,0.1,0.7
		c0.1,0.2,0.1,0.6,0.3,0.8c0.1,0.1,0.9,0.4,1.1,0.3c0.4-0.1,0.4-0.7,0.8-0.7c0,0-0.4-0.3-0.1-0.3c0.1,0,0.2,0.1,0.2,0.1
		c-0.1-0.3,0.2-0.4,0.2-0.7c0-0.2-0.3,0-0.2-0.3c0.1-0.3,0.3-0.3,0.7-0.5c0.1,0,0,0.2,0,0.3c0.3,0,0.1-0.1,0.4,0
		c0.2,0.1,0.5,0.7,0.7,0.7c0.2,0,0.3-0.3,0.4-0.4c0.3-0.5,0.2-0.5,0.8-0.8l0,0h-0.1c0.2,0,0.7,0.1,0.8,0C36,6,35.8,6,35.8,6
		c0,0.1-0.1,0.1-0.2,0.1c0-0.2,0.3-0.4,0.5-0.2c0,0-0.3,0.2-0.2,0.2c0.2,0.1,0.3,0,0.5,0c0.1,0,0.8,0,0.8-0.2c0,0.2-0.1,0.3,0.1,0.2
		c0.3,0,0-0.2,0-0.3c0.1,0,0.2,0,0.3,0.1c0.1,0.1,0.1,0.1,0.1,0.2c0.2,0,0.4,0,0.6,0.1c0-0.4,0.3-1.5,0-1.8c-0.2,0-0.6,0.2-1,0.1
		c-0.5,0-0.9,0-1.4,0c-0.2,0-0.3-0.1-0.5-0.1c-0.4-0.1-0.8,0.1-1.2-0.1c-0.2-0.1-0.4-0.4-0.5-0.4c-0.2,0-0.1,0.1-0.3,0.2
		c-0.1,0.1-0.1,0.2-0.2,0.3c-0.1,0-0.2,0-0.3,0c-0.1,0-0.3-0.2-0.3,0.1c0,0.2,0.4,0.4,0.4,0.4c-0.3,0.1-0.6,0.1-0.9,0
		c0.1-0.2,0.3-0.3,0.4-0.4C32.3,4.1,32,3.2,32.3,3c0,0,0.2-0.2,0.2,0c0,0-0.1,0-0.1,0c0.1,0.2,0.4,0.2,0.6,0.2c0-0.1,0-0.1,0-0.2
		c0.2,0,0.3,0.5,0.7,0.2c0.2-0.2,0.1-0.7,0.5-0.7c-0.1,0.2-0.3,0.7,0.1,0.8c0-0.2,0.1-0.3,0.2-0.3c0,0.1,0,0.3-0.1,0.4
		c-0.1,0.1-0.1,0.2,0.1,0.2c0,0.1,0.2,0.3-0.1,0.3c-0.1,0,0.5,0,0.3-0.1c0,0-0.2-0.2-0.1-0.2c0.4,0,0.1,0.3,0.3,0.4
		c0.3,0.2,0.4-0.2,0.6-0.2c0,0.2-0.2,0.1-0.2,0.3c0.4,0,0.8,0,1.2-0.1c-0.2-0.2-0.5,0-0.3-0.3c0.2-0.3,0.7,0,1-0.1
		c0.2-0.1,1.1-0.2,1.3,0.1c0.1,0.1-0.1,0.3-0.1,0.4c-0.1,0-0.1,0.1-0.2,0.2c0.1,0.1,0.2,0.2,0.3,0.2c0-0.5,0.2-0.7,0.2-1.1
		C38.9,2.9,38.9,2.6,38.9,2.2z M42,6.3h0.2C42.3,6.2,42,6.2,42,6.3z M41,5.6c0.1,0,0.1,0,0.2,0c0-0.2-0.1-0.3-0.1-0.5
		C40.9,5.1,41.1,5.6,41,5.6z M41.1,4.3c0.2,0,0.1-0.2,0.1-0.4C40.9,3.9,41,4.2,41.1,4.3z M38.3,6.8c0.1,0,0.2,0.1,0.4,0.1
		c0.2,0,0.1-1.1,0.1-1.3c0-0.2-0.1-1.8-0.5-1.2c-0.1,0.2,0,1,0,1.2C38.3,6,38.3,6.4,38.3,6.8z M42.4,6.5c0-0.6,0.1-1.2,0-1.8
		c0-0.3-0.1-0.2-0.1-0.4c0,0,0.2-0.2,0.1-0.3c-0.1-0.2-0.4,0.1-0.5-0.1c0.1-0.3,0.4-0.3,0.5-0.5c0.1-0.2,0-0.6,0-0.7
		c0-0.1,0.1-0.5,0-0.6c-0.1-0.1-0.8-0.3-1-0.4c-0.6-0.4-0.9-1.5-1.7-1.2c-0.2,0.1-1.1,0.5-1.2,0.7c-0.1,0.3-0.1,0.6,0.2,0.6
		c-0.2,0-0.2-0.3-0.5,0c-0.1,0.1,0,0.5,0,0.6c0,0.4,0.1,0.8,0.1,1.2c0,0.2,0,0.7,0.2,0.4c0.2-0.3-0.1-0.7,0.1-0.9
		c0.1-0.2,0.3-0.1,0.5-0.2c0.4-0.4-0.1-1.2,0.3-1.6C40.1,0.7,40,2.6,40,3c0,0.2-0.1,0.4-0.1,0.5c0,0.2,0.1,0.5,0.1,0.7
		c0,0.2-0.4,0.6-0.3,0.9c0,0.3,0.2,0.7,0,1c-0.1,0.2-0.4,0.1-0.5,0.2c-0.1,0.1,0.1,0.5,0.1,0.6c-0.2,0-0.4,0-0.6,0.1
		c-0.2,0.1-0.3,0.5,0,0.6c0.2,0.1,0.7-0.2,0.9-0.1c0.6,0.2,0.1,0.3,0.1,0.4c0,0.1,0.2,0.2,0.2,0.2c0.6,0.1,0-0.1,0.3-0.3
		c0.3-0.1,0.9,0,1.1-0.1C41.9,7.4,41.6,6.5,42.4,6.5z"/>
</g>
</svg>
