<svg xmlns="http://www.w3.org/2000/svg"  preserveAspectRatio="none" viewBox="0 0 40.74 6.64"><defs><style>.cls-1{fill:#623c25;fill-rule:evenodd;}</style></defs><title>9_d</title><g id="Layer_2" data-name="Layer 2"><g id="Layer_1-2" data-name="Layer 1"><path class="cls-1" d="M.73,5.41C.63,5,0,4.17,0,3.82V3.21A2.83,2.83,0,0,1,2.9.4h.24A3.4,3.4,0,0,1,6.27,2l-.47.5C4.91,2.4,1.69,1,1.69,3.21v.37c0,.55.93,1.1,1.57,1.1h.13a5.62,5.62,0,0,0,2.75-1.5A10.28,10.28,0,0,1,8.67,1.34a5.58,5.58,0,0,1,2.91-1,5.46,5.46,0,0,1,1.67.12C13.94.6,14.5,1,14.87,1c.08.34.24.5.24.74,0,.07-.16.25-.24.33l-2.78.16A19.78,19.78,0,0,0,9.52,3.92,13.46,13.46,0,0,1,6.93,5.69a7.1,7.1,0,0,1-3.06.95C2,6.63,1.26,5.45.73,5.41"/><path class="cls-1" d="M10.88,6.28C10.5,6,9.31,5.64,9.31,5.17V5c0-.27.09-.26.24-.49,4.15,0,4.42-1.06,6.82-2.87A7.63,7.63,0,0,1,19.69.13c.78-.17,3.4.47,3.4,1.25A1.62,1.62,0,0,1,23,2c-.48,0-.29.12-.6.12-1.38,0-1.12-.52-2.68.35a11.79,11.79,0,0,0-2.07,1.45c-.71.67-3.21,2.73-4.44,2.61Z"/><path class="cls-1" d="M17.53,5V4.92c0-.23.22-.49.36-.49,1.92,0,1.1.43,2.95-.19a9.19,9.19,0,0,0,2.1-1.55,21,21,0,0,1,2.11-1.53,15.31,15.31,0,0,1,2.4-1L28.53,0a3.22,3.22,0,0,1,2.91,1.34l-.25.49c-1.62,0-2.74-.29-3.83.64-.94.81-1.92,1.44-2.85,2.26A7.83,7.83,0,0,1,21,6.36c-.93.24-3.48-.45-3.48-1.32"/><path class="cls-1" d="M25.75,5V4.8c0-.24.22-.49.37-.49.75,0,1.25.1,1.87.08s1.27-.49,1.63-.32C30.25,3.12,34,.71,35.1.32c2.62-.92,5.64.13,5.64,3,0,4.14-6.28,3-6.28,1.47V4.56a.46.46,0,0,1,.48-.49h.12c.89,0,1.65.73,2.3.73a1.58,1.58,0,0,0,1.69-1.47A1.6,1.6,0,0,0,37.6,1.87h-.24c-1,0-2,1.14-2.71,1.66-.89.68-1.66,1.17-2.54,1.83-1.11.84-1.84.69-3.41,1-.7.12-2.95-.65-2.95-1.28"/></g></g></svg>