<svg xmlns="http://www.w3.org/2000/svg"  preserveAspectRatio="none" viewBox="0 0 6.64 46.59"><defs><style>.cls-1{fill:#623c25;fill-rule:evenodd;}</style></defs><title>9_l</title><g id="Layer_2" data-name="Layer 2"><g id="Layer_1-2" data-name="Layer 1"><path class="cls-1" d="M5.41,45.76c-.41.11-1.24.83-1.59.83H3.21A3.07,3.07,0,0,1,.4,43.27V43A4.06,4.06,0,0,1,2,39.42l.5.53c-.08,1-1.51,4.7.73,4.7h.37c.55,0,1.1-1,1.1-1.79v-.14a6.72,6.72,0,0,0-1.5-3.15,11.7,11.7,0,0,1-1.84-2.89,7.61,7.61,0,0,1-.89-5.24C.6,30.66,1,30,1,29.59c.34-.09.5-.28.74-.28.07,0,.25.19.33.28l.16,3.17A22.52,22.52,0,0,0,3.92,35.7a15.46,15.46,0,0,1,1.77,3,9,9,0,0,1,.95,3.5c0,2.1-1.19,3-1.23,3.6"/><path class="cls-1" d="M6.28,34.15C6,34.58,5.64,36,5.17,36H5c-.27,0-.26-.11-.49-.28,0-4.75-1.06-5.06-2.87-7.8A9.37,9.37,0,0,1,.13,24.08c-.17-.9.47-3.9,1.25-3.9a1.61,1.61,0,0,1,.61.14c0,.55.12.34.12.69,0,1.57-.52,1.28.35,3.07a13.54,13.54,0,0,0,1.45,2.36c.67.82,2.73,3.67,2.61,5.08Z"/><path class="cls-1" d="M5,26.54H4.92a.54.54,0,0,1-.49-.41c0-2.19.43-1.26-.19-3.37a10.7,10.7,0,0,0-1.55-2.4,24.1,24.1,0,0,1-1.53-2.42,18.27,18.27,0,0,1-1-2.74L0,14a3.87,3.87,0,0,1,1.34-3.32l.49.28c0,1.86-.29,3.14.64,4.39C3.32,16.38,4,17.5,4.77,18.56a9.63,9.63,0,0,1,1.59,4c.24,1.07-.45,4-1.32,4"/><path class="cls-1" d="M5,17.14H4.8a.53.53,0,0,1-.49-.41c0-.86.1-1.44.08-2.14s-.49-1.46-.32-1.87c-1-.72-3.36-5-3.75-6.27C-.6,3.46.45,0,3.33,0c4.14,0,3,7.19,1.47,7.19H4.56a.5.5,0,0,1-.49-.55V6.5c0-1,.73-1.88.73-2.63,0-1-.6-1.94-1.47-1.94A1.73,1.73,0,0,0,1.87,3.59v.28C1.87,5,3,6.18,3.53,7c.68,1,1.17,1.9,1.83,2.9.84,1.27.69,2.11,1,3.9.12.81-.65,3.37-1.28,3.37"/></g></g></svg>