<svg xmlns="http://www.w3.org/2000/svg"  preserveAspectRatio="none" viewBox="0 0 6.64 46.59"><defs><style>.cls-1{fill:#623c25;fill-rule:evenodd;}</style></defs><title>9_r</title><g id="Layer_2" data-name="Layer 2"><g id="Layer_1-2" data-name="Layer 1"><path class="cls-1" d="M1.23,45.76c.41.11,1.24.83,1.59.83h.61a3.06,3.06,0,0,0,2.8-3.32V43a4.06,4.06,0,0,0-1.57-3.58l-.5.53c.07,1,1.51,4.7-.73,4.7H3.06c-.55,0-1.1-1-1.1-1.79v-.14a6.8,6.8,0,0,1,1.49-3.15A11.45,11.45,0,0,0,5.3,36.68a7,7,0,0,0,1-3.34,7.06,7.06,0,0,0-.12-1.9C6,30.66,5.66,30,5.62,29.59c-.33-.09-.49-.28-.73-.28-.07,0-.25.19-.33.28L4.4,32.76A22.52,22.52,0,0,1,2.72,35.7a16,16,0,0,0-1.78,3A9.16,9.16,0,0,0,0,42.16c0,2.1,1.18,3,1.23,3.6"/><path class="cls-1" d="M.36,34.15C.63,34.58,1,36,1.47,36h.12c.28,0,.27-.11.49-.28,0-4.75,1.07-5.06,2.88-7.8a9.37,9.37,0,0,0,1.55-3.79c.17-.9-.47-3.9-1.25-3.9a1.61,1.61,0,0,0-.61.14c0,.55-.13.34-.13.69,0,1.57.53,1.28-.34,3.07a13,13,0,0,1-1.46,2.36c-.67.82-2.72,3.67-2.6,5.08Z"/><path class="cls-1" d="M1.59,26.54h.13a.54.54,0,0,0,.49-.41c0-2.19-.43-1.26.19-3.37a10.66,10.66,0,0,1,1.54-2.4,24.18,24.18,0,0,0,1.54-2.42,20.87,20.87,0,0,0,1-2.74L6.6,14a3.85,3.85,0,0,0-1.35-3.32l-.48.28c0,1.86.29,3.14-.64,4.39-.81,1.07-1.44,2.19-2.26,3.25a9.77,9.77,0,0,0-1.6,4c-.23,1.07.46,4,1.32,4"/><path class="cls-1" d="M1.59,17.14h.25a.54.54,0,0,0,.49-.41c0-.86-.1-1.44-.09-2.14s.5-1.46.33-1.87c1-.72,3.36-5,3.74-6.27.92-3-.12-6.45-3-6.45C-.84,0,.36,7.19,1.84,7.19h.24a.5.5,0,0,0,.49-.55V6.5c0-1-.73-1.88-.73-2.63,0-1,.6-1.94,1.46-1.94A1.73,1.73,0,0,1,4.77,3.59v.28C4.77,5,3.63,6.18,3.11,7c-.68,1-1.18,1.9-1.83,2.9-.84,1.27-.69,2.11-1,3.9-.12.81.65,3.37,1.27,3.37"/></g></g></svg>