<svg xmlns="http://www.w3.org/2000/svg"  preserveAspectRatio="none" viewBox="0 0 40.74 6.64"><defs><style>.cls-1{fill:#623c25;fill-rule:evenodd;}</style></defs><title>9_u</title><g id="Layer_2" data-name="Layer 2"><g id="Layer_1-2" data-name="Layer 1"><path class="cls-1" d="M.73,1.23C.63,1.64,0,2.47,0,2.82v.61a2.82,2.82,0,0,0,2.9,2.8h.24A3.39,3.39,0,0,0,6.27,4.66l-.47-.5c-.89.07-4.11,1.51-4.11-.73V3.06c0-.55.93-1.1,1.57-1.1h.13A5.68,5.68,0,0,1,6.14,3.45,10.06,10.06,0,0,0,8.67,5.3a5.58,5.58,0,0,0,2.91,1,5.46,5.46,0,0,0,1.67-.12c.69-.16,1.25-.53,1.62-.57.08-.33.24-.49.24-.73,0-.07-.16-.25-.24-.33L12.09,4.4A20.87,20.87,0,0,1,9.52,2.72,14,14,0,0,0,6.93.94,7.23,7.23,0,0,0,3.87,0C2,0,1.26,1.18.73,1.23"/><path class="cls-1" d="M10.88.36C10.5.63,9.31,1,9.31,1.47v.12c0,.28.09.27.24.49C13.7,2.08,14,3.15,16.37,5a7.63,7.63,0,0,0,3.32,1.55c.78.17,3.4-.47,3.4-1.25A1.62,1.62,0,0,0,23,4.65c-.48,0-.29-.13-.6-.13-1.38,0-1.12.53-2.68-.34a11.33,11.33,0,0,1-2.07-1.46C16.91,2.05,14.41,0,13.18.12Z"/><path class="cls-1" d="M17.53,1.59v.13c0,.23.22.48.36.48,1.92,0,1.1-.42,2.95.2a9.15,9.15,0,0,1,2.1,1.54,21.07,21.07,0,0,0,2.11,1.54,17.6,17.6,0,0,0,2.4,1l1.08.15a3.21,3.21,0,0,0,2.91-1.35l-.25-.48c-1.62,0-2.74.29-3.83-.64-.94-.81-1.92-1.44-2.85-2.26A8,8,0,0,0,21,.27c-.93-.23-3.48.46-3.48,1.32"/><path class="cls-1" d="M25.75,1.59v.25c0,.23.22.49.37.49.75,0,1.25-.1,1.87-.09s1.27.5,1.63.33c.63,1,4.39,3.36,5.48,3.74,2.62.92,5.64-.12,5.64-3,0-4.14-6.28-2.94-6.28-1.46v.24a.46.46,0,0,0,.48.49h.12c.89,0,1.65-.73,2.3-.73A1.58,1.58,0,0,1,39.05,3.3,1.6,1.6,0,0,1,37.6,4.77h-.24c-1,0-2-1.14-2.71-1.66-.89-.68-1.66-1.18-2.54-1.83C31,.44,30.27.59,28.7.32,28,.2,25.75,1,25.75,1.59"/></g></g></svg>