<?xml version="1.0" encoding="utf-8"?>
<!-- Generator: Adobe Illustrator 22.0.0, SVG Export Plug-In . SVG Version: 6.00 Build 0)  -->
<svg version="1.1" id="Layer_1" xmlns="http://www.w3.org/2000/svg" xmlns:xlink="http://www.w3.org/1999/xlink" x="0px" y="0px"
	 preserveAspectRatio="none" viewBox="0 0 11.6 7.5" style="enable-background:new 0 0 11.6 7.5;" xml:space="preserve">
<style type="text/css">
	.st0{fill:#623C25;}
</style>
<g id="Layer_2_1_">
	<g id="Layer_1-2">
		<path class="st0" d="M11.6,1.6v0.2l-0.1,2.5v0.2c-0.1,0-0.4-0.1-0.4-0.3V3.5c0-0.4,0-0.8,0.1-1.1c0-0.1,0-0.2,0-0.4h0.3V1.5
			C11.6,1.5,11.6,1.5,11.6,1.6z"/>
		<path class="st0" d="M9.6,3.5c0-0.3-0.1-1.1,0-1.6h0.5v1.6C10.1,3.9,9.8,3.6,9.6,3.5z"/>
		<path class="st0" d="M2.8,2.9L4.6,2h1C5.3,2.2,5,2.3,4.7,2.5C4.3,2.7,3.9,2.9,3.5,3L3.4,3.3c0.2,0,0.7,0.4,1,0.5
			C4.8,3.9,5.1,4,5.4,4h0.3v0.3v0.5V6c0.9,0,1.8-0.2,2.6-0.6C8.7,5.2,9,5,9.3,4.7c0.2,0,0.8-0.7,0.9-0.7c0.3,0,0.5,0.5,0.6,0.2
			L11,4.3c0,0.2,0.2,0.2,0.4,0.4C10.8,6,7.9,7.5,5.8,7.5c-1.2,0-2.4-0.4-3.5-0.9C1.9,6.3,0,5,0,4.5C0.9,3.9,1.9,3.3,2.8,2.9z"/>
		<path class="st0" d="M8.5,3L8.1,2.8V2h0.4v0.2v0.4V3C8.6,2.9,8.5,3,8.5,3z"/>
		<polygon class="st0" points="6.9,2.1 6.5,2 6.9,2 		"/>
	</g>
</g>
<rect class="st0" width="11.5" height="2"/>
</svg>
