<?xml version="1.0" encoding="utf-8"?>
<!-- Generator: Adobe Illustrator 22.0.0, SVG Export Plug-In . SVG Version: 6.00 Build 0)  -->
<svg version="1.1" id="Layer_1" xmlns="http://www.w3.org/2000/svg" xmlns:xlink="http://www.w3.org/1999/xlink" x="0px" y="0px"
	 preserveAspectRatio="none" viewBox="0 0 8.1 12.2" style="enable-background:new 0 0 8.1 12.2;" xml:space="preserve">
<style type="text/css">
	.st0{fill:#623C25;}
</style>
<g id="Layer_2_1_">
	<g id="Layer_1-2">
		<path class="st0" d="M4.6,10h0.3h0.2h0.8h0.2v0.3c0,0.3-0.6,0.1-0.8,0.1s-0.6,0-0.8,0H3.8L4,10H4.6z"/>
		<path class="st0" d="M5.7,6.7L5.7,6.7C5.9,6.7,6,6.8,6,6.9l0,0v0.2c0,0.3-0.7,0.2-0.7,0.1S5.6,6.7,5.7,6.7z"/>
		<path class="st0" d="M4.8,8.5H5h1.1V9C5.9,9,5.9,8.9,5.7,8.9H4.5C4.5,8.8,4.7,8.5,4.8,8.5z"/>
		<path class="st0" d="M3.2,11.6h0.6h2.3v0.3v0.2l-0.2,0.1c-0.6-0.1-1.2-0.1-1.8-0.1C3.1,12.1,2.9,12.3,3.2,11.6z"/>
		<path class="st0" d="M1,2.4C1.2,1.9,2.6,0,3,0s1.4,2.5,1.6,2.9c0.5,1,1,2,1.4,3.1c0,0.1-0.1,0.1-0.2,0.1l0,0
			C5.6,6.1,5.2,5,5.1,4.9C4.9,4.5,4.7,4,4.5,3.6C4.2,3.7,3.9,4.4,3.8,4.7S3.7,6.1,3.4,6.1H2.1c-0.2,0-0.7-0.2-0.7,0.1
			C1.5,7,1.7,7.9,2.1,8.8c0.2,0.4,0.4,0.7,0.7,1.1c0.2,0.2,0.8,0.8,0.8,0.9c-0.2,0.5-0.4,0.9-0.7,1.3c-0.5,0-1.8-2.1-2-2.5
			C0.3,8.3,0,7.1,0,5.8C0.1,4.6,0.4,3.4,1,2.4z"/>
		<path class="st0" d="M3.1,12.2L3.1,12.2L3.1,12.2L3.1,12.2z"/>
	</g>
</g>
<rect x="6.1" class="st0" width="2" height="12.2"/>
</svg>
