<?xml version="1.0" encoding="utf-8"?>
<!-- Generator: Adobe Illustrator 22.0.0, SVG Export Plug-In . SVG Version: 6.00 Build 0)  -->
<svg version="1.1" id="Layer_1" xmlns="http://www.w3.org/2000/svg" xmlns:xlink="http://www.w3.org/1999/xlink" x="0px" y="0px"
	 preserveAspectRatio="none" viewBox="0 0 17.5 18.4" style="enable-background:new 0 0 17.5 18.4;" xml:space="preserve">
<style type="text/css">
	.st0{fill:#623C25;}
</style>
<g id="Layer_2_1_">
	<g id="Layer_1-2">
		<path class="st0" d="M12.9,5.4c-0.1,0-0.2,0.1-0.3,0.1L12.9,5.4L12.9,5.4z"/>
		<path class="st0" d="M17.5,4.4V3.3c0-0.1,0.2-0.4-0.2-0.1c-0.1,0-0.3,0.1-0.3,0.2v2.1h0.5V4.4z"/>
		<path class="st0" d="M0,12.4c0.1,1.2,0.4,2.4,0.9,3.5c0.3,0.5,1.5,2.4,2,2.4l0.6-1.4c-0.1-0.2-0.6-0.6-0.8-0.9
			c-0.2-0.3-0.5-0.7-0.7-1.1c-0.2-0.4-0.3-0.9-0.4-1.3c0-0.5-0.1-0.9-0.2-1.4l2,0.1l0.2-0.1c0-0.5,0.1-0.9,0.2-1.4
			c0.1-0.2,0.5-1,0.5-1.1c0.4,0.2,1.1,2.5,1.4,2.5h0.2v-0.6c-0.4-0.8-1.1-2.4-1.2-2.5c-0.2-0.5-1.4-2.6-1.5-3C2.6,6.2,1.3,8,1,8.5
			C0.4,9.6,0.1,10.8,0,12l0.1,0.2C0.1,12.3,0,12.3,0,12.4z"/>
		<path class="st0" d="M17.4,3c0-0.5-1.8-1.8-2.3-2c-1-0.6-2.2-0.9-3.3-1c-0.1,0-0.1,0.1-0.1,0.1L11.5,0c-1.2,0.1-2.3,0.4-3.4,1
			C7.6,1.3,5.9,2.6,5.9,3.2c0.4,0.1,2.4,1.2,2.8,1.5l1.6,0.8h1c-0.7-0.3-1.4-0.7-2.1-1.1c0.1,0,0.8-0.4,1-0.5
			c0.4-0.2,0.9-0.2,1.3-0.2l0.1-0.2l-0.1-2c0.2,0.2,0.9,0.1,1.3,0.2C13.2,1.8,13.6,2,14,2.2s0.7,0.4,1,0.7c0.5,0.1,0.8,0.6,1,0.7
			L17.4,3z"/>
		<path class="st0" d="M15.6,4.1v1.4H16V3.8C15.9,3.8,15.6,3.9,15.6,4.1z"/>
		<path class="st0" d="M14.1,5.5h0.5V4.6L14,4.8C14,5,14,5.3,14.1,5.5z"/>
		<path class="st0" d="M5.9,13H5.7c-0.2,0-0.3,0.4-0.3,0.5h0.5C5.9,13.5,5.9,13,5.9,13z"/>
		<path class="st0" d="M5.9,14.8c-0.3-0.1-0.8,0-1.1-0.1l-0.3,0.5h1.2h0.1v-0.4H5.9z"/>
		<path class="st0" d="M4.9,17.9H3.4c-0.2,0-0.2,0.1-0.3,0.3c-0.2,0.4,0,0.2,0.1,0.2h1.1h1.5v-0.5H4.9L4.9,17.9z"/>
		<path class="st0" d="M5.9,16.3H4.1c-0.2,0-0.3,0.3-0.3,0.5h1.8c0.1,0,0.2,0,0.3,0V16.3z"/>
	</g>
</g>
<rect x="5.9" y="5.4" class="st0" width="2" height="12.9"/>
<rect x="5.9" y="5.4" class="st0" width="11.6" height="2"/>
</svg>
