<?xml version="1.0" encoding="utf-8"?>
<!-- Generator: Adobe Illustrator 22.0.0, SVG Export Plug-In . SVG Version: 6.00 Build 0)  -->
<svg version="1.1" id="Layer_1" xmlns="http://www.w3.org/2000/svg" xmlns:xlink="http://www.w3.org/1999/xlink" x="0px" y="0px"
	 preserveAspectRatio="none" viewBox="0 0 17.5 18.1" style="enable-background:new 0 0 17.5 18.1;" xml:space="preserve">
<style type="text/css">
	.st0{fill:#623C25;}
</style>
<g id="Layer_2_1_">
	<g id="Layer_1-2">
		<path class="st0" d="M3.8,10.6h1.8c0.1,0,0.2,0,0.3,0v-0.5H4.1C3.9,10.1,3.8,10.4,3.8,10.6z"/>
		<path class="st0" d="M3.1,12c-0.2,0.4,0,0.2,0.1,0.2l1.1,0.1H6l0,0H5.9v-0.5H5.4H4.9H4.4h-1C3.3,11.7,3.2,11.8,3.1,12z"/>
		<path class="st0" d="M8.1,17.1c1,0.6,2.2,0.9,3.4,1l0.1-0.1c0,0,0,0.1,0.1,0.1c1.2-0.1,2.3-0.4,3.3-0.9c0.5-0.2,2.3-1.5,2.3-2
			L16,14.6c-0.2,0.1-0.5,0.6-0.8,0.9c-0.3,0.2-0.6,0.5-1,0.7s-0.8,0.3-1.3,0.4c-0.4,0.1-1.1,0.1-1.3,0.3l0.1-2l-0.1-0.2
			c-0.4,0-0.9-0.1-1.3-0.2c-0.2-0.1-0.9-0.5-1-0.5c0.2-0.4,2.4-1.1,2.4-1.4v-0.2h-0.4l-2.6,1.2c-0.4,0.2-2.5,1.4-2.8,1.5
			C5.9,15.6,7.6,16.8,8.1,17.1z"/>
		<path class="st0" d="M17.5,12.2H17c0,0,0,0,0,0.1v2.5c0,0.2,0.1,0.2,0.3,0.3c0.4,0.2,0.2,0,0.2-0.1v-1.1V12.2z"/>
		<path class="st0" d="M4.6,9h1.2h0.1V8.6c-0.3-0.1-0.8,0-1.1-0.1L4.6,9z"/>
		<path class="st0" d="M5.9,6.8H5.7c-0.2,0-0.3,0.4-0.3,0.5h0.5C5.9,7.3,5.9,6.8,5.9,6.8z"/>
		<path class="st0" d="M0,6.2c0.1,1.2,0.4,2.4,0.9,3.5c0.3,0.5,1.5,2.4,2,2.4l0.6-1.4c0-0.2-0.5-0.6-0.8-0.9
			C2.5,9.5,2.3,9.1,2.1,8.7C1.9,8.3,1.7,7.9,1.6,7.4c0-0.5-0.1-1-0.2-1.4l2,0.1L3.6,6c0-0.5,0.1-0.9,0.2-1.4c0.1-0.2,0.5-1,0.5-1.1
			C4.7,3.8,5.4,6,5.7,6h0.1V5.5C5.5,4.7,4.8,3.2,4.7,3C4.4,2.5,3.3,0.4,3.2,0C2.6,0,1.3,1.8,1,2.3C0.4,3.4,0.1,4.6,0,5.9l0.1,0.2
			C0.1,6.1,0,6.1,0,6.2z"/>
		<path class="st0" d="M12.9,12.2h-0.5v0.2c0,0.2,0.4,0.3,0.5,0.3V12.2z"/>
		<path class="st0" d="M14.5,12.4c0-0.1,0-0.1,0-0.2h-0.4c0,0.4-0.1,0.8-0.1,1.1l0.5,0.3V12.4z"/>
		<path class="st0" d="M16,12.6c0-0.1,0-0.3,0-0.4h-0.5v1.9c0,0.2,0.3,0.3,0.4,0.3L16,12.6z"/>
	</g>
</g>
<rect x="5.9" class="st0" width="2" height="12.2"/>
<rect x="5.9" y="10.2" class="st0" width="11.7" height="2"/>
</svg>
