<?xml version="1.0" encoding="utf-8"?>
<!-- Generator: Adobe Illustrator 22.0.0, SVG Export Plug-In . SVG Version: 6.00 Build 0)  -->
<svg version="1.1" id="Layer_1" xmlns="http://www.w3.org/2000/svg" xmlns:xlink="http://www.w3.org/1999/xlink" x="0px" y="0px"
	 preserveAspectRatio="none" viewBox="0 0 8.1 12.2" style="enable-background:new 0 0 8.1 12.2;" xml:space="preserve">
<style type="text/css">
	.st0{fill:#623C25;}
</style>
<rect class="st0" width="2" height="12.2"/>
<g id="Layer_2_1_">
	<g id="Layer_1-2">
		<path class="st0" d="M3.5,10H3.2H3H2.2H2v0.3c0,0.3,0.6,0.1,0.8,0.1s0.6,0,0.8,0h0.6L4.1,10H3.5z"/>
		<path class="st0" d="M2.4,6.7H2.2C2.1,6.7,2,6.8,2,6.9l0,0v0.2c0,0.3,0.7,0.2,0.8,0.1C2.8,7.2,2.5,6.7,2.4,6.7z"/>
		<path class="st0" d="M3.2,8.5H3.1H2V9c0.2,0,0.2-0.1,0.4-0.1h1.2C3.5,8.8,3.4,8.5,3.2,8.5z"/>
		<path class="st0" d="M4.9,11.6H4.3H2v0.5l0.2,0.1c0.6-0.1,1.2-0.1,1.8-0.1C5,12.1,5.2,12.3,4.9,11.6z"/>
		<path class="st0" d="M7.1,2.4C6.8,1.9,5.5,0,5,0S3.7,2.5,3.4,2.9C2.9,3.9,2.4,5,2,6c0,0.1,0.1,0.1,0.2,0.1h0.1
			C2.5,6.1,2.9,5,3,4.9C3.2,4.5,3.4,4,3.6,3.6c0.3,0.1,0.6,0.8,0.7,1.1C4.4,5,4.4,6.1,4.7,6.1H6c0.2,0,0.7-0.2,0.7,0.1
			C6.6,7,6.4,7.9,6,8.8c-0.2,0.3-0.4,0.7-0.7,1c-0.1,0.2-0.8,0.8-0.8,0.9C4.7,11.2,5,11.6,5.3,12c0.5,0,1.8-2.1,2-2.5
			c0.6-1.1,0.8-2.4,0.8-3.6C8,4.6,7.6,3.4,7.1,2.4z"/>
		<path class="st0" d="M5,12.2L5,12.2L5,12.2L5,12.2z"/>
	</g>
</g>
</svg>
