<?xml version="1.0" encoding="utf-8"?>
<!-- Generator: Adobe Illustrator 22.0.0, SVG Export Plug-In . SVG Version: 6.00 Build 0)  -->
<svg version="1.1" id="Layer_1" xmlns="http://www.w3.org/2000/svg" xmlns:xlink="http://www.w3.org/1999/xlink" x="0px" y="0px"
	 preserveAspectRatio="none" viewBox="0 0 17.5 18.5" style="enable-background:new 0 0 17.5 18.5;" xml:space="preserve">
<style type="text/css">
	.st0{fill:#623C25;}
</style>
<g id="Layer_2_1_">
	<g id="Layer_1-2">
		<path class="st0" d="M13.4,16.4h-1.8h-0.1v0.5c0.1,0.1,0.3,0,0.5,0h1.8C13.8,16.7,13.6,16.4,13.4,16.4z"/>
		<path class="st0" d="M11.5,15v0.3c0,0.1,0.2,0,0.3,0H13l-0.3-0.5C12.4,14.9,11.6,14.8,11.5,15z"/>
		<path class="st0" d="M11.5,18.5h1.7h1.1c0.1,0,0.4,0.2,0.1-0.2c-0.1-0.1-0.1-0.3-0.3-0.3h-1h-0.5H12h-0.5c-0.1,0-0.1,0-0.2,0.1
			L11.5,18.5z"/>
		<path class="st0" d="M11.6,5.9V5.7l-0.1-2.5V3.1c-0.1,0-0.4,0.1-0.4,0.3v0.7c0,0.4,0,0.8,0.1,1.1c0,0.1,0,0.2,0,0.3h0.3L11.6,5.9
			C11.6,6.1,11.6,6,11.6,5.9z"/>
		<path class="st0" d="M8.5,4.5L8.1,4.7v0.9h0.4V5.4V5V4.7C8.6,4.7,8.5,4.5,8.5,4.5z"/>
		<polygon class="st0" points="6.9,5.4 6.5,5.6 6.9,5.6 		"/>
		<path class="st0" d="M16.5,8.6c-0.3-0.5-1.6-2.3-2.2-2.3c-0.1,0.4-1.2,2.5-1.5,3c-0.1,0.2-1.2,2.5-1.4,2.9v0.1h0.1h0.2
			c0.3,0,1-2.3,1.4-2.5c0,0.1,0.4,0.9,0.5,1.1c0.2,0.5,0.3,0.9,0.3,1.4l0.2,0.1l2-0.1c-0.1,0.5-0.2,0.9-0.2,1.4
			c-0.1,0.5-0.3,0.9-0.4,1.3c-0.2,0.4-0.4,0.7-0.6,1.1c-0.2,0.3-0.7,0.7-0.9,0.9l0.6,1.4c0.5,0,1.8-1.9,2-2.4
			c0.5-1.1,0.9-2.3,0.9-3.5c0-0.1-0.1-0.1-0.1-0.1l0.1-0.2C17.5,10.9,17.1,9.7,16.5,8.6z"/>
		<path class="st0" d="M5.8,0C4.6,0,3.4,0.4,2.4,0.9C1.9,1.2,0,2.5,0,3.1c0.9,0.6,1.9,1.1,2.8,1.6c0.2,0,1.1,0.5,1.8,0.9h1
			C5.3,5.4,5,5.2,4.7,5.1C4.3,4.9,3.9,4.7,3.5,4.5V4.3c0.2,0,0.7-0.4,1-0.5s0.7-0.2,1-0.2h0.3V3.3V2.8V1.5c0.9,0,1.8,0.2,2.6,0.6
			c0.4,0.2,0.7,0.4,1,0.7c0.2,0.1,0.7,0.8,0.8,0.8c0.3,0,0.5-0.4,0.6-0.2L11,3.3c0-0.2,0.2-0.2,0.4-0.4C10.8,1.5,7.9,0,5.8,0z"/>
		<path class="st0" d="M9.6,4c0,0.3-0.1,1.1,0,1.6h0.5V4C10.1,3.7,9.8,3.9,9.6,4z"/>
		<path class="st0" d="M11.8,13.1h-0.2h-0.1v0.5h0.7C12.1,13.4,12,13.1,11.8,13.1z"/>
	</g>
</g>
<rect x="9.5" y="5.6" class="st0" width="2" height="12.9"/>
<rect y="5.6" class="st0" width="11.5" height="2"/>
</svg>
