<?xml version="1.0" encoding="utf-8"?>
<!-- Generator: Adobe Illustrator 22.0.0, SVG Export Plug-In . SVG Version: 6.00 Build 0)  -->
<svg version="1.1" id="Layer_1" xmlns="http://www.w3.org/2000/svg" xmlns:xlink="http://www.w3.org/1999/xlink" x="0px" y="0px"
	 preserveAspectRatio="none" viewBox="0 0 17.5 18.2" style="enable-background:new 0 0 17.5 18.2;" xml:space="preserve">
<style type="text/css">
	.st0{fill:#623C25;}
</style>
<g id="Layer_2_1_">
	<g id="Layer_1-2">
		<path class="st0" d="M13.4,10.1h-1.8h-0.1v0.4c0.1,0.1,0.3,0,0.5,0h1.8C13.8,10.4,13.6,10.1,13.4,10.1z"/>
		<path class="st0" d="M14.3,12.2c0.1,0,0.4,0.2,0.1-0.2c-0.1-0.1-0.1-0.3-0.3-0.3h-1h-0.5H12h-0.5c-0.1,0-0.1,0-0.2,0.1v0.4
			c0,0,0.1,0,0.1,0.1H13L14.3,12.2z"/>
		<polygon class="st0" points="11.4,-0.7 11.4,-0.7 11.5,-0.7 11.5,-0.7 		"/>
		<path class="st0" d="M11.5,8.7V9c0,0.1,0.2,0,0.3,0H13l-0.3-0.5C12.4,8.6,11.6,8.5,11.5,8.7z"/>
		<path class="st0" d="M11.4,12.2h-0.3c-0.1,0.1,0,0.5,0,0.8S11,13.7,11,14.1v0.7c0,0.2,0.3,0.3,0.4,0.3V15l0.1-2.5v-0.2L11.4,12.2
			L11.4,12.2L11.4,12.2z"/>
		<path class="st0" d="M2.4,17.3c1.1,0.6,2.2,0.9,3.5,1c2.1,0,5-1.6,5.7-2.9c-0.2-0.1-0.4-0.2-0.4-0.4L11,14.9
			c-0.1,0.2-0.3-0.2-0.6-0.2c-0.3,0.3-0.6,0.5-0.8,0.8c-0.3,0.3-0.6,0.5-1,0.7c-0.8,0.4-1.7,0.6-2.6,0.6v-1.3V15v-0.3H5.4
			c-0.3,0-0.7-0.1-1-0.2c-0.2-0.1-0.8-0.5-1-0.5l0.1-0.2c0.4-0.2,0.8-0.4,1.2-0.6C5,13,5.8,12.7,5.8,12.3v-0.1v-0.1H5.5
			c-0.6,0.3-2.4,1.2-2.7,1.4c-1,0.5-1.9,1-2.8,1.6C0,15.7,1.9,17,2.4,17.3z"/>
		<path class="st0" d="M6.4,12.6l0.5,0.2v-0.6v-0.1H6.4V12.6z"/>
		<path class="st0" d="M8.6,12.2H8.1v1.3l0.4,0.2c0,0,0-0.1,0.1-0.1v-0.4v-0.4V12.2z"/>
		<path class="st0" d="M16.5,2.3C16.2,1.8,15,0,14.4,0c-0.1,0.4-1.2,2.5-1.5,3c-0.1,0.2-1.2,2.5-1.4,2.9v0.2h0.1h0.2
			c0.3,0,1-2.3,1.4-2.5c0,0.1,0.4,0.9,0.5,1.1C13.9,5,14,5.5,14,6l0.2,0.1l2-0.1C16,6.5,16,7,15.9,7.4s-0.3,0.9-0.4,1.3
			c-0.2,0.4-0.4,0.7-0.6,1.1c-0.2,0.3-0.7,0.7-0.9,0.9l0.6,1.4c0.5,0,1.8-1.9,2-2.4c0.5-1.1,0.9-2.3,0.9-3.5c0-0.1-0.1-0.1-0.1-0.1
			l0.1-0.2C17.5,4.6,17.1,3.4,16.5,2.3z"/>
		<path class="st0" d="M11.8,6.8h-0.2h-0.1v0.5h0.7C12.1,7.2,12,6.8,11.8,6.8z"/>
		<path class="st0" d="M9.6,14.2c0.1,0.1,0.4,0.3,0.4,0v-2H9.7C9.6,12.9,9.5,13.6,9.6,14.2z"/>
	</g>
</g>
<rect x="9.6" class="st0" width="2" height="12.2"/>
<rect y="10.2" class="st0" width="11.6" height="2"/>
</svg>
