<svg xmlns="http://www.w3.org/2000/svg"  preserveAspectRatio="none" viewBox="0 0 51.48 18.16"><defs><style>.cls-1{fill:#623c25;fill-rule:evenodd;}</style></defs><title>10_d</title><g id="Layer_2" data-name="Layer 2"><g id="Layer_1-2" data-name="Layer 1"><path class="cls-1" d="M29.62,14.69l-.21-.12-3.74.73c.11-1.36,1.88-1,1.88-2.73,0-.94-1.43-1.54-2.25-1.74-1.1.61-4,4.49-4.7,4.5-.26,0-.38-.27-.38-.58v-.39c0-.56,3.45-3.15,4.14-4.49-.36-.7-.88-2.52-1.69-2.52h-.38c-1.5,0-1.42,1.37-2.25,2l-.22,0,.59-3.65c.26-1.57-2.29-3.76-3.57-4.06-.79.56-3.24,2.33-3.12,3.73l.68,4.06C13.16,9,13.67,7.41,12,7.42h-.37c-.52,0-1.32,1.28-1.32,1.95V10c0,.87,3.73,3.53,4.32,4.44-.11.18-.3.59-.56.59-1.46,0-3.52-4.25-4.7-4.24H9.13c-.18,0-2.44,1-2.44,1.56v.2c0,1.7,1.41,1.62,1.69,2.71-1.37,0-2.12-.57-3.19-.57H5c-1.35,0-3.54,2.14-3.57,3.52H2.55l5.27-.23,7.33-.05c1.17,0,1.88-1.08,1.88-2.34L17,13.6l-.14-5.43,0-1.56L17,4.48h.37v6c0,1.71-.55,7.38,1.51,7.37l7-.14L33,18c-.11-1.37-2-3.29-3.39-3.28"/><path class="cls-1" d="M34.7,12.91c0,.56-.06.36-.38.59C33,10.71,35.74,2.31,32.82.3L25.3.47,24,.55,19.1.13,18.53.2c.33,1.44,2,3.48,3.57,3.47h.57c1,0,1-.37,2.07-.41-.11,1.33-1.51,1.21-1.51,2.34s1.42,1.68,2.26,2.13c3.25-.81,3-4.68,4.7-4.69a5.1,5.1,0,0,1,.94.58c-.57,2.49-3.95,2.86-3.95,5.26,0,1.08.81,2.91,1.88,2.9s1-1.07,1.69-1.56c.94.7-.74,2.42.79,4,.52.53,2.22,2.36,3,2.35s3.2-2.47,3.2-3.71V12.7l-.22-2.52c1,.26,1.18,1.35,1.91,1.34H40c.69,0,1.69-1.73,1.69-2.34,0-1.85-4.51-3.62-4.51-4.44V4.36a.75.75,0,0,1,.75-.79c1.53,0,2.17,2.63,3.34,3.52,1.53,1.18,3.73,0,4.37-1.23-.21-.92-.48-1.66-1.5-1.74V3.54l1.68.22.95,0c1.17,0,3.13-2.55,3.38-3.51-.49-.25.16-.2-.56-.19-4.4,0-7,.86-11.86.28-4.59-.56-3,5.77-3,9.9Z"/><path class="cls-1" d="M.11,13.9V2.64C.11,1.13,1.21.49,2.74.49l.75.06L6.88.46l.75.1L15.71.21C15.43,1.46,13.35,3.92,12,3.92L11.57,4,9.44,3.82,11.3,5.77l0,.23L9.7,7.63c-1.61,0-2.67.2-3.62-1.1-.52-.72-1.37-2.76-2.4-2.75a.86.86,0,0,0-.94.78V5c0,.77,1.89,1.44,2.58,2A5.63,5.63,0,0,1,7.25,9.58c-.4.62-1.07,2.34-1.88,2.34H5.19c-.8,0-1.45-1.31-2.16-1.73l.28,2.9v.2c0,1.42-2.43,2.82-3.2,3.51C-.14,16.69.11,13.9.11,13.9Z"/><path class="cls-1" d="M39.59,14.44c1.07,0,2,.57,3.38.56-.29-1.13-1.32-.24-1.88-2.71a3.73,3.73,0,0,1,2.82-1.76c.81,0,3.18,4.25,4.51,4.24.43,0,.56-.14.56-.59a34.31,34.31,0,0,0-3.14-3.13c-.71-.72-1.31-.71-1.05-1.93.13-.58.71-1.9,1.19-1.91,1.8,0,1.65,1.78,3,1.93,0-1.14-.56-2.06-.56-2.72V4.48c0-.74,2.18-2.87,3.06-3.1V5.24h0c0,3.3,0,6.6,0,9.91S47.37,17.69,45,17.7L43,17.6l-7.13.46C35.94,16.49,38.24,14.44,39.59,14.44Z"/></g></g></svg>