<svg xmlns="http://www.w3.org/2000/svg"  preserveAspectRatio="none" viewBox="0 0 35.03 35.77"><defs><style>.cls-1{fill:#623c25;fill-rule:evenodd;}</style></defs><title>10_l_d</title><g id="Layer_2" data-name="Layer 2"><g id="Layer_1-2" data-name="Layer 1"><path class="cls-1" d="M17.68,28.49v-5a2.79,2.79,0,0,0-.19-1c-.74.55-.38,8-.38,9.7,0,4.63-2.57,3.29-6.39,3.26l-2.07,0-7.13.19v-.2c.27-1.06,2.06-3.1,3.38-3.09H6c1.22,0,1.42.59,2.82.6C8.7,31.53,7,31.88,7,30c0-.43,1.35-1.35,2.07-1.34H9.4c.52,0,4,4.3,4.33,4.3s.56-.13.56-.58V32a24.54,24.54,0,0,0-4.13-3.91c0-1,.85-3.1,1.69-3.09h.56c.95,0,1.37,1.7,2.26,2a33.55,33.55,0,0,1-.57-3.7V23c0-1.45,2.1-3.68,3.58-3.67,1,0,3.16,2.57,3.05,3.91L20.5,25.4c-.38.58-.75,1.32-.19,1.74,1.13-.85.23-1.55,2.63-2.12.38.27,1.31,1.19,1.31,1.76v1c0,.69-4.32,3.95-4.32,4.44,0,2.2,2.65-1.27,2.68-1.3a30.52,30.52,0,0,1,2.58-2.55c.44,0,2.64,1.08,2.64,1.76v.2C27.83,32,26.21,32,26,33c1.38,0,1.87-.57,3-.56h.94c.74,0,3.2,2.28,3.2,3.13,0,.47-9.05-.06-10.9-.07-6.51,0-4.51-1.73-4.51-7"/><path class="cls-1" d="M5.46,29.58,3.75,27.84l-.22,0v1.55l.05,1.56c0,.89-2.6,3.06-3.39,3.28C0,33.69,0,34.36,0,33.62V32.26c0-.52.27-.57.56-.77l0-7L.39,20.42C.33,19.28.91,18.1,2.07,18.1l11.09.07v-.39L10,17.52l-4.51,0-3.38.2c-.74-.54-1.7-.7-1.7-2V13.63l0-1.56,0-2.52L.25,2c-.07-.26.21-.38.51-.38.57,0,2.82,2.6,2.82,3.51,0,1.44-.73,2.46.18,2.72.14-.54.7-1.35,1.32-1.35h.56c.59,0,1.7,1.74,1.7,2.15C7.34,11.58,3,12,3,13.25v.39a.73.73,0,0,0,.75.78c1.7,0,2.3-3.87,4.52-3.85H9a3.09,3.09,0,0,1,2.44,1.76l-1.8,2,1.8-.11.94,0c1.23,0,3.29,2.43,3.46,3.42.21,1.24-2.09,3.58-3.08,3.57h-.57L9.78,21c.26,1,1.5,1.42,1.5,2.18,0,1.13-1.62,2.12-2.25,2.12H8.65c-1.81,0-3.14-4.49-3.95-4.49H4.14c-.51,0-.75.52-.75,1,0,1.44,4,2,4,5.26a3.49,3.49,0,0,1-1.88,2.52"/><path class="cls-1" d="M34.78,31.89c-.88-.67-.37-2.91-.37-3.89V19.85c0-.6-1.11-1.56-1.88-1.56l-2.64.07L19,18c.11,1.32,2.47,3.7,3.76,3.71h.56c.88,0,.57-.35,1.7-.37l.14.14-1.84,2c.4.85,1.18,2,2.26,2h.94c2.26,0,2.61-3.86,4.7-3.85.86,0,.73,1.12.42,1.59-.42.65-1,.63-1.68,1-.91.47-2.5,1.79-2.5,3v.19c0,.41,1,2.14,1.5,2.14h.38c1.52,0,.9-1,2.07-1.35,0,2-.55,2.54.41,4,.41.64,1.75,2.18,2.6,2.18h.37a.74.74,0,0,0,.25-.06Z"/><path class="cls-1" d="M17.11,6.54c0-2.47.91-5.63-1.5-6-1.3-.22-5-.22-6.39-.23L9,.4,5.46.26H4.33A16.74,16.74,0,0,0,1.51,0c0,.94,2,2.75,2.63,3.13C5.61,4,6.8,3,8.65,3,8.32,4.29,7,3.89,7,5.51V5.9c0,.72,2,1.56,2.26,1.57h.37c1.06,0,3.43-4.25,4.51-4.25.44,0,.57.14.57.59V4c0,.59-4.14,3.19-4.14,4.64V9c0,.41.7,1.75,1.32,1.75h.56c1,0,1.11-1.82,2.45-1.93,0,1.39-.76,1.81-.76,3.3,0,1.88,1.64,4.14,3.24,4.28l-.27-6Z"/></g></g></svg>