<svg xmlns="http://www.w3.org/2000/svg"  preserveAspectRatio="none" viewBox="0 0 18.16 51.48"><defs><style>.cls-1{fill:#623c25;fill-rule:evenodd;}</style></defs><title>10_l</title><g id="Layer_2" data-name="Layer 2"><g id="Layer_1-2" data-name="Layer 1"><path class="cls-1" d="M14.69,21.86l-.12.2.73,3.74c-1.36-.11-1-1.88-2.73-1.88-.94,0-1.54,1.44-1.74,2.26.61,1.1,4.49,4,4.5,4.7,0,.26-.27.37-.58.37h-.39c-.56,0-3.15-3.44-4.49-4.13-.7.36-2.52.88-2.52,1.69v.38c0,1.5,1.37,1.42,2,2.25l0,.22-3.65-.59c-1.57-.26-3.76,2.29-4.06,3.57.56.79,2.33,3.24,3.73,3.12l4.06-.68c-.34,1.24-1.94.73-1.93,2.45v.37c0,.52,1.28,1.32,1.95,1.32H10c.87,0,3.53-3.73,4.44-4.33.18.12.59.31.59.57,0,1.45-4.25,3.51-4.24,4.7v.19c0,.18,1,2.44,1.56,2.44h.2c1.7,0,1.62-1.41,2.71-1.69,0,1.36-.57,2.12-.57,3.19v.19c0,1.34,2.14,3.54,3.52,3.57V48.92l-.23-5.26-.05-7.33c0-1.18-1.08-1.88-2.34-1.88l-1.94,0-5.43.15-1.56,0-2.13-.23v-.38h6c1.71,0,7.38.56,7.37-1.5l-.14-7L18,18.47c-1.37.11-3.29,2-3.28,3.39"/><path class="cls-1" d="M12.91,16.78c.56,0,.36.06.59.38C10.71,18.45,2.31,15.74.3,18.66l.17,7.52.08,1.31L.13,32.38.2,33c1.44-.33,3.48-2,3.47-3.58v-.56c0-1-.37-1-.41-2.07,1.33.11,1.21,1.51,2.34,1.51S7.28,26.82,7.73,26c-.81-3.25-4.68-3-4.69-4.7a5.1,5.1,0,0,1,.58-.94c2.49.56,2.86,3.95,5.26,3.95,1.08,0,2.91-.81,2.9-1.88s-1.07-1.05-1.56-1.69c.7-.94,2.42.74,4-.8.53-.51,2.36-2.21,2.35-3s-2.47-3.2-3.71-3.2H12.7L10.18,14c.26-1,1.35-1.19,1.34-1.91v-.56c0-.69-1.73-1.7-2.34-1.7-1.85,0-3.62,4.52-4.44,4.52H4.36a.75.75,0,0,1-.79-.76c0-1.52,2.63-2.17,3.52-3.33,1.18-1.53,0-3.73-1.23-4.37-.92.2-1.66.48-1.74,1.5H3.54L3.76,5.7l0-1C3.71,3.58,1.16,1.61.2,1.37,0,1.86,0,1.21,0,1.93c0,4.4.86,7,.28,11.86-.56,4.59,5.77,3,9.9,3Z"/><path class="cls-1" d="M13.9,51.37H2.64c-1.51,0-2.15-1.1-2.15-2.63L.55,48,.46,44.6l.1-.76L.21,35.77c1.25.28,3.71,2.36,3.71,3.75l.05.39L3.82,42l1.95-1.86.23,0,1.63,1.62c0,1.61.2,2.67-1.1,3.61-.72.53-2.76,1.38-2.75,2.41a.86.86,0,0,0,.78.94H5c.77,0,1.44-1.89,2-2.59a5.77,5.77,0,0,1,2.65-1.93c.62.4,2.34,1.08,2.34,1.88v.19c0,.8-1.31,1.45-1.73,2.16l2.9-.28h.2c1.42,0,2.82,2.43,3.51,3.2C16.69,51.62,13.9,51.37,13.9,51.37Z"/><path class="cls-1" d="M14.44,11.89c0-1.07.57-2,.56-3.38-1.13.29-.24,1.32-2.71,1.88a3.75,3.75,0,0,1-1.76-2.82c0-.81,4.25-3.18,4.24-4.51,0-.44-.14-.57-.59-.57a34.54,34.54,0,0,0-3.13,3.15c-.72.71-.71,1.31-1.93,1C8.54,6.56,7.22,6,7.21,5.5c0-1.81,1.78-1.65,1.93-3-1.14,0-2.06.57-2.72.57H4.48C3.74,3.06,1.61.88,1.38,0H5.24V.05h9.91c3.46,0,2.54,4.06,2.55,6.39l-.1,2.08.46,7.13C16.49,15.53,14.44,13.24,14.44,11.89Z"/></g></g></svg>