<svg xmlns="http://www.w3.org/2000/svg"  preserveAspectRatio="none" viewBox="0 0 34.81 35.35"><defs><style>.cls-1{fill:#623c25;fill-rule:evenodd;}</style></defs><title>10_l_u</title><g id="Layer_2" data-name="Layer 2"><g id="Layer_1-2" data-name="Layer 1"><path class="cls-1" d="M17.68,7.2v5.05a2.88,2.88,0,0,1-.19,1c-.74-.56-.38-8-.38-9.71,0-4.63-2.57-3.3-6.39-3.3L8.65.24,1.52,0v.2c.27,1.06,2.06,3.11,3.38,3.11H6c1.22,0,1.42-.58,2.82-.58C8.7,4.1,7,3.74,7,5.65,7,6.08,8.31,7,9,7H9.4c.52,0,4-4.27,4.33-4.27s.56.13.56.58v.39a24,24,0,0,1-4.13,3.88c0,1,.85,3.11,1.69,3.11h.56c.95,0,1.37-1.7,2.26-1.95a33.36,33.36,0,0,0-.57,3.69v.2c0,1.45,2.1,3.69,3.58,3.69,1,0,3.16-2.55,3.05-3.89l-.23-2.13c-.38-.59-.75-1.33-.19-1.75,1.13.86.23,1.56,2.63,2.14.38-.27,1.31-1.18,1.31-1.75V8c0-.7-4.32-4-4.32-4.47,0-2.2,2.65,1.29,2.68,1.32a30.77,30.77,0,0,0,2.58,2.56c.44,0,2.64-1.07,2.64-1.74v-.2c0-1.7-1.62-1.71-1.88-2.71,1.38,0,1.87.58,3,.58h.94c.74,0,3.2-2.26,3.2-3.11,0-.47-9.05,0-10.9,0-6.51,0-4.51,1.71-4.51,7"/><path class="cls-1" d="M5.46,6,3.75,7.77H3.53V6.23l.05-1.55c0-.9-2.6-3.09-3.39-3.3C0,1.89,0,1.22,0,2V3.32c0,.52.27.57.56.77l0,7L.39,15.16c-.06,1.14.52,2.33,1.68,2.33H13.16v.39L10,18.12l-4.51-.05-3.38-.22c-.74.54-1.7.69-1.7,2V22l0,1.55L.38,26,.25,33.61c-.07.26.21.38.51.38.57,0,2.82-2.58,2.82-3.49,0-1.44-.73-2.47.18-2.72.14.54.7,1.36,1.32,1.36h.56c.59,0,1.7-1.73,1.7-2.14C7.34,24,3,23.59,3,22.34V22a.73.73,0,0,1,.75-.78c1.7,0,2.3,3.88,4.52,3.88H9a3,3,0,0,0,2.44-1.75l-1.8-2,1.8.12.94-.05c1.23,0,3.29-2.41,3.46-3.4.21-1.23-2.09-3.59-3.08-3.59h-.57l-2.44.23c.26-1,1.5-1.41,1.5-2.17,0-1.13-1.62-2.13-2.25-2.13H8.65c-1.81,0-3.14,4.46-3.95,4.46H4.14c-.51,0-.75-.51-.75-1,0-1.43,4-2,4-5.24A3.48,3.48,0,0,0,5.46,6"/><path class="cls-1" d="M34.78,1.38h-.37c-.85,0-2.19,1.52-2.6,2.16-1,1.51-.41,2.06-.41,4.05-1.17-.32-.55-1.36-2.07-1.36H29c-.54,0-1.5,1.73-1.5,2.14v.19c0,1.24,1.59,2.58,2.5,3,.7.35,1.26.34,1.68,1,.31.48.44,1.59-.42,1.59-2.09,0-2.44-3.88-4.7-3.88h-.94c-1.08,0-1.86,1.09-2.26,1.94l1.84,2-.14.14c-1.13,0-.82-.38-1.7-.38h-.56c-1.29,0-3.65,2.36-3.76,3.68l10.9-.28,2.64.09c.77,0,1.88-.95,1.88-1.55V7.78c0-1-.51-3.22.37-3.88C34.78,3.9,34.84,1.38,34.78,1.38Z"/><path class="cls-1" d="M5.61,35.35,9,35.24l.18.11h2.3a36.06,36.06,0,0,0,4.1-.19c2.41-.38,1.5-3.55,1.5-6l0-3.89.27-6c-1.6.13-3.24,2.39-3.24,4.27,0,1.48.73,1.91.76,3.3-1.34-.12-1.41-1.94-2.45-1.94h-.56c-.62,0-1.32,1.33-1.32,1.75V27c0,1.45,4.14,4.07,4.14,4.66v.2c0,.44-.13.58-.57.58-1.08,0-3.45-4.27-4.51-4.27H9.22C9,28.17,7,29,7,29.72v.39c0,1.63,1.36,1.23,1.69,2.52-1.85,0-3-1-4.51-.2-.63.35-2.37,1.94-2.59,2.92Z"/></g></g></svg>