<svg xmlns="http://www.w3.org/2000/svg"  preserveAspectRatio="none" viewBox="0 0 18.16 51.48"><defs><style>.cls-1{fill:#623c25;fill-rule:evenodd;}</style></defs><title>10_r</title><g id="Layer_2" data-name="Layer 2"><g id="Layer_1-2" data-name="Layer 1"><path class="cls-1" d="M3.47,21.86l.12.2L2.86,25.8c1.36-.11,1-1.88,2.73-1.88.94,0,1.54,1.44,1.74,2.26-.61,1.1-4.49,4-4.5,4.7,0,.26.27.37.58.37H3.8c.56,0,3.15-3.44,4.49-4.13.7.36,2.52.88,2.52,1.69v.38c0,1.5-1.37,1.42-2,2.25l0,.22,3.65-.59c1.57-.26,3.76,2.29,4.06,3.57-.56.79-2.33,3.24-3.73,3.12l-4-.68c.33,1.24,1.93.73,1.92,2.45v.37c0,.52-1.28,1.32-2,1.32H8.21c-.87,0-3.53-3.73-4.44-4.33-.18.12-.59.31-.59.57,0,1.45,4.25,3.51,4.24,4.7v.19c0,.18-1,2.44-1.56,2.44h-.2C4,44.79,4,43.38,3,43.1c0,1.36.57,2.12.57,3.19v.19C3.51,47.82,1.38,50,0,50.05V48.92l.23-5.26.05-7.33c0-1.18,1.08-1.88,2.34-1.88l1.94,0,5.43.15,1.56,0,2.13-.23v-.38h-6C6,34.07.29,34.63.3,32.57l.14-7L.19,18.47c1.37.11,3.29,2,3.28,3.39"/><path class="cls-1" d="M5.25,16.78c-.56,0-.36.06-.59.38,2.79,1.29,11.19-1.42,13.2,1.5l-.17,7.52-.08,1.31L18,32.38,18,33c-1.44-.33-3.48-2-3.47-3.58v-.56c0-1,.38-1,.41-2.07-1.33.11-1.21,1.51-2.34,1.51S10.89,26.82,10.44,26c.8-3.25,4.67-3,4.68-4.7a5,5,0,0,0-.57-.94c-2.5.56-2.87,3.95-5.27,3.95-1.08,0-2.91-.81-2.9-1.88s1.07-1.05,1.56-1.69c-.7-.94-2.42.74-4-.8-.53-.51-2.36-2.21-2.35-3s2.47-3.2,3.71-3.2h.19L8,14c-.26-1-1.35-1.19-1.34-1.91v-.56c0-.69,1.73-1.7,2.34-1.7,1.85,0,3.62,4.52,4.44,4.52h.39a.75.75,0,0,0,.78-.76c0-1.52-2.62-2.17-3.52-3.33C9.89,8.72,11,6.52,12.3,5.88c.92.2,1.66.48,1.74,1.5h.58L14.4,5.7l0-1C14.45,3.58,17,1.61,18,1.37c.25.49.2-.16.19.56,0,4.4-.86,7-.28,11.86.56,4.59-5.76,3-9.9,3Z"/><path class="cls-1" d="M4.26,51.37H15.52c1.52,0,2.15-1.1,2.16-2.63L17.61,48l.09-3.38-.1-.76L18,35.77c-1.24.28-3.7,2.36-3.71,3.75l-.05.39L14.34,42l-1.95-1.86-.23,0-1.63,1.62c0,1.61-.2,2.67,1.1,3.61.73.53,2.76,1.38,2.75,2.41a.86.86,0,0,1-.78.94h-.39c-.77,0-1.44-1.89-2-2.59a5.77,5.77,0,0,0-2.65-1.93c-.62.4-2.34,1.08-2.34,1.88v.19c0,.8,1.3,1.45,1.72,2.16l-2.9-.28H4.87c-1.43,0-2.83,2.43-3.52,3.2C1.47,51.62,4.26,51.37,4.26,51.37Z"/><path class="cls-1" d="M3.73,11.89c0-1.07-.57-2-.57-3.38,1.13.29.24,1.32,2.71,1.88A3.75,3.75,0,0,0,7.63,7.57c0-.81-4.25-3.18-4.24-4.51,0-.44.14-.57.59-.57A35.86,35.86,0,0,1,7.12,5.64c.71.71.7,1.31,1.92,1C9.62,6.56,10.94,6,11,5.5c0-1.81-1.78-1.65-1.93-3,1.14,0,2.06.57,2.72.57h1.94c.74,0,2.87-2.18,3.1-3.06H12.92V.05H3C-.45,0,.47,4.11.46,6.44l.1,2.08L.1,15.65C1.67,15.53,3.72,13.24,3.73,11.89Z"/></g></g></svg>