<svg xmlns="http://www.w3.org/2000/svg"  preserveAspectRatio="none" viewBox="0 0 34.59 35.73"><defs><style>.cls-1{fill:#623c25;fill-rule:evenodd;}</style></defs><title>10_r_d</title><g id="Layer_2" data-name="Layer 2"><g id="Layer_1-2" data-name="Layer 1"><path class="cls-1" d="M22.75,32c.9,0,2.42.75,2.14,0-.2-.57-1.39-.72-1.39-2.09,0-.69,1.56-1.73,2.25-1.73,2.38,0,3.36,4.29,4.33,4.3h.56c.43,0,.57-.13.57-.58v-.39c0-1.13-3.76-2.7-3.76-4.1v-.58c0-1.1.66-2.91,1.69-2.9.84,0,1.33,1.34,2,1.75L31,23.73v-1C31,21.68,33,20,33.73,19.53c1.53-1,.48,2.42.48,3.63l0,3.11V28l.17,4.08v1.55c0,.43-.78,1.55-1.31,1.54h-.57c-.42,0-.41-.16-.71-.35l-.42.34c-3.33,0-7,.13-9.95.14-2,0-3.69.79-1.86-1.34.79-.93,1.53-2,3.17-2"/><path class="cls-1" d="M17.08,31.41a1.81,1.81,0,0,0,.4-1.36v-6.6l-.1-4.27c.66-.86.9-1.36,2.36-1.35h.75l3.76.22h2.26l2.07-.15.93,0,.76,0v-.39H28.76l-6.39-.16-2.63.11c-3.29,0-2.61-5.29-2.45-8.17l.17-2.72L17,1.33c1.17.08,3.65,2.7,3.52,3.5l-.43,2.9c1.35-.09,1.1-1.54,2.12-1.53,1.29,0,1.83,1.41,2.26,2.34a5.12,5.12,0,0,1-1.85,2.55c-.66.54-2.48,1.13-2.48,1.89v.39a.75.75,0,0,0,.76.78h.18c1.29,0,2.09-3.87,4.33-3.85h.56c.95,0,2.45,1,2.45,2.15,0,.5-.95,1.11-1.51,1.16v.58L29.32,14c1.29-.09,3.76,3.1,3.76,3.76,0,1.14-2,3.29-3.75,3.28h-.57a16,16,0,0,1-3-.79V21c.74.4,1.88,1,1.88,2.14,0,.86-1.31,1.74-2.06,1.74s-4.11-3.67-4.33-4.49h-.56c-.43,0-.57.14-.57.58v.39c0,.91,4.33,3.05,4.33,4.88,0,.27-.93,2.32-1.51,2.32-1.94,0-1.69-1.53-2.82-2,0,1.63.57,2.67.57,3.69,0,1.22-2.18,3.87-3.2,3.87-1.66,0-3.57-2.47-3.57-4.49,0-.52.38-.85.38-1.94-1.43.12-.95,1.55-2.26,1.54-1,0-1.68-1.59-2.07-2.34a6,6,0,0,1,1.85-2.55c.63-.51,2.48-1.29,2.48-1.89v-.58a.74.74,0,0,0-.76-.78c-1.63,0-2.29,4.06-4.32,4H8.08c-.67,0-2.06-.86-2.06-1.95,0-.69.82-1.3,1.5-1.35-.11-1.43-.59-.4-1.88-.4H4.89c-1.29,0-3.28-2.57-3.57-3.71l14.28.34L17,19.3l-.1,6.28-.06,1.17Z"/><path class="cls-1" d="M34.21,1.61C33-.34,31.38.24,28.39.22,27,.21,23.33.64,21.91,0H18.49c.39,1.51,2.63,3.37,3.32,3.33l2.06-.23c.34-.23.33-.38.76-.38h1.12c-.24,1-1.88,1.25-1.88,2.51s2.07,2.15,2.64,2.15S30.15,3,30.83,3H31c.52,0,.45.24.75.59-.39.75-4.32,4.1-4.32,4.44,0,.93.79,2.72,1.5,2.73,1.62,0,1.52-2,2.82-2.12v.58c0,.8-.57,1.34-.57,2.71a4.36,4.36,0,0,0,1.88,3.71c2,1.47,1.55-.66,1.21-2.6C33.89,10.75,34.21,4.3,34.21,1.61Z"/><path class="cls-1" d="M12.22,32.16c-1.5,0-1.8.57-3.38.56.26-1,1.5-1.15,1.5-2.13v-.78c0-.76-1.78-1.56-2.44-1.56S4.37,32,3.57,32.69c-.52-.27-.94-.1-.94-.79,0-.43,4.33-3.51,4.33-4.82v-.2c0-.5-1.16-1.95-1.7-1.95H5.08c-1.36,0-1.19,1.82-2.45,1.93,0-1.38.57-2.32.57-3.88,0-2.29-2.29-2.88-3-3.91L0,19.16v2.63H0v.58c0,.88,0,10.29.22,11.43.5,2.6,6.74,1.43,9,1.44h.38l6,.48a1.76,1.76,0,0,1,.38-.25C15.67,34.28,13.64,32.16,12.22,32.16Z"/></g></g></svg>