<svg xmlns="http://www.w3.org/2000/svg"  preserveAspectRatio="none" viewBox="0 0 34.59 35.81"><defs><style>.cls-1{fill:#623c25;fill-rule:evenodd;}</style></defs><title>10_r_u</title><g id="Layer_2" data-name="Layer 2"><g id="Layer_1-2" data-name="Layer 1"><path class="cls-1" d="M22.75,3.75c.9,0,2.42-.73,2.14.06-.2.57-1.39.71-1.39,2.08,0,.69,1.56,1.74,2.25,1.74,2.38,0,3.36-4.27,4.33-4.27h.56c.43,0,.57.14.57.59v.38c0,1.14-3.76,2.69-3.76,4.08V9c0,1.11.66,2.92,1.69,2.92.84,0,1.33-1.34,2-1.74L31,12.1v1c0,1.07,1.94,2.74,2.71,3.24,1.53,1,.48-2.41.48-3.63l0-3.1V7.83l.17-4.08V2.2c0-.44-.78-1.55-1.31-1.55h-.57c-.42,0-.41.15-.71.34L31.39.65c-3.33,0-7-.18-9.95-.21-2,0-3.69-.8-1.86,1.34.79.93,1.53,2,3.17,2"/><path class="cls-1" d="M17.08,4.33a1.82,1.82,0,0,1,.4,1.36v6.6l-.1,4.27c.66.87.9,1.36,2.36,1.36h.75l3.76-.19h2.26l2.07.16h.93l.76,0v.39H28.76l-6.39.12-2.63-.12c-3.29,0-2.61,5.27-2.45,8.16l.17,2.72L17,34.41c1.17-.07,3.65-2.68,3.52-3.48L20.06,28c1.35.1,1.1,1.54,2.12,1.54,1.29,0,1.83-1.4,2.26-2.33a5.19,5.19,0,0,0-1.85-2.56c-.66-.54-2.48-1.14-2.48-1.9v-.39a.75.75,0,0,1,.76-.78h.18c1.29,0,2.09,3.89,4.33,3.89h.56c.95,0,2.45-1,2.45-2.14,0-.5-.95-1.12-1.51-1.16v-.59l2.44.24c1.29.1,3.76-3.07,3.76-3.73,0-1.15-2-3.3-3.75-3.3h-.57a16.77,16.77,0,0,0-3,.77v-.77c.74-.4,1.88-1,1.88-2.14,0-.85-1.31-1.74-2.06-1.74s-4.11,3.63-4.33,4.46h-.56c-.43,0-.57-.13-.57-.58v-.39c0-.91,4.33-3,4.33-4.85,0-.27-.93-2.33-1.51-2.33-1.94,0-1.69,1.52-2.82,1.94,0-1.63.57-2.67.57-3.69,0-1.22-2.18-3.88-3.2-3.88-1.66,0-3.57,2.44-3.57,4.46,0,.52.38.85.38,1.94C12.86,7.9,13.34,6.47,12,6.47c-1,0-1.68,1.58-2.07,2.33a5.94,5.94,0,0,0,1.85,2.56c.63.52,2.48,1.3,2.48,1.9v.59a.74.74,0,0,1-.76.77c-1.63,0-2.29-4.07-4.32-4.07H8.08c-.67,0-2.06.85-2.06,1.94,0,.69.82,1.3,1.5,1.36-.11,1.42-.59.39-1.88.39H4.89c-1.29,0-3.28,2.55-3.57,3.68l14.28-.24L17,16.44l-.1-6.28L16.83,9Z"/><path class="cls-1" d="M15.6,0l-6,.45H9.21C7,.45.72-.76.22,1.84,0,3,0,12.39,0,13.26v.59H0v2.63l.19.09c.72-1,3-1.61,3-3.89,0-1.57-.54-2.51-.57-3.88,1.26.11,1.09,1.94,2.45,1.94h.18C5.8,10.74,7,9.3,7,8.8V8.6C7,7.3,2.63,4.19,2.63,3.75c0-.69.42-.51.94-.78.8.72,3.61,4.47,4.33,4.47s2.44-.79,2.44-1.55V5.11c0-1-1.24-1.12-1.5-2.14,1.58,0,1.88.59,3.38.59S15.67,1.45,16,.26A2.35,2.35,0,0,1,15.6,0Z"/><path class="cls-1" d="M21.83,35.81c1.35-.69,5.19-.22,6.56-.22,3,0,4.56.58,5.82-1.36,0-2.69-.32-9.14.08-11.37.34-1.94.8-4.07-1.21-2.61a4.32,4.32,0,0,0-1.88,3.69c0,1.37.57,1.92.57,2.72v.58c-1.3-.11-1.2-2.13-2.82-2.13-.71,0-1.5,1.79-1.5,2.72,0,.34,3.93,3.7,4.32,4.46-.3.35-.23.58-.75.58h-.19c-.68,0-3.87-4.46-4.32-4.46s-2.64,1-2.64,2.13,1.64,1.57,1.88,2.53H24.63c-.43,0-.42-.16-.76-.39l-2.06-.24c-.7,0-3,1.86-3.34,3.37Z"/></g></g></svg>