<svg xmlns="http://www.w3.org/2000/svg"  preserveAspectRatio="none" viewBox="0 0 51.48 18.16"><defs><style>.cls-1{fill:#623c25;fill-rule:evenodd;}</style></defs><title>10_u</title><g id="Layer_2" data-name="Layer 2"><g id="Layer_1-2" data-name="Layer 1"><path class="cls-1" d="M29.62,3.47l-.21.12-3.74-.73c.11,1.36,1.88,1,1.88,2.73,0,.94-1.43,1.54-2.25,1.74-1.1-.61-4-4.49-4.7-4.5-.26,0-.38.27-.38.58V3.8c0,.56,3.45,3.15,4.14,4.49-.36.7-.88,2.52-1.69,2.52h-.38c-1.5,0-1.42-1.37-2.25-2l-.22,0,.59,3.65c.26,1.57-2.29,3.76-3.57,4.06-.79-.56-3.24-2.33-3.12-3.73l.68-4c-1.24.33-.73,1.93-2.45,1.92h-.37c-.52,0-1.32-1.28-1.32-2V8.21c0-.87,3.73-3.53,4.32-4.44-.11-.18-.3-.59-.56-.59-1.46,0-3.52,4.25-4.7,4.24H9.13c-.18,0-2.44-1-2.44-1.56v-.2C6.69,4,8.1,4,8.38,3,7,3,6.26,3.52,5.19,3.52H5C3.65,3.51,1.46,1.38,1.43,0H2.55L7.82.23l7.33.05C16.32.28,17,1.36,17,2.62L17,4.56,16.84,10l0,1.56L17,13.68h.37v-6C17.4,6,16.85.29,18.91.3l7,.14L33,.19c-.11,1.37-2,3.29-3.39,3.28"/><path class="cls-1" d="M34.7,5.25c0-.56-.06-.36-.38-.59-1.3,2.79,1.42,11.19-1.5,13.2l-7.52-.17L24,17.61,19.1,18,18.53,18c.33-1.44,2-3.48,3.57-3.47h.57c1,0,1,.38,2.07.41-.11-1.33-1.51-1.21-1.51-2.34s1.42-1.67,2.26-2.12c3.25.8,3,4.67,4.7,4.68a5,5,0,0,0,.94-.57c-.57-2.5-3.95-2.87-3.95-5.27,0-1.08.81-2.91,1.88-2.9s1,1.07,1.69,1.56c.94-.7-.74-2.42.79-4,.52-.53,2.22-2.36,3-2.35s3.2,2.47,3.2,3.71v.19L37.49,8c1-.26,1.18-1.35,1.91-1.34H40c.69,0,1.69,1.73,1.69,2.34,0,1.85-4.51,3.62-4.51,4.44v.39a.74.74,0,0,0,.75.78c1.53,0,2.17-2.62,3.34-3.52C42.76,9.89,45,11,45.6,12.3c-.21.92-.48,1.66-1.5,1.74v.58l1.68-.22.95,0c1.17,0,3.13,2.55,3.38,3.51-.49.25.16.2-.56.19-4.4,0-7-.86-11.86-.28-4.59.56-3-5.76-3-9.9Z"/><path class="cls-1" d="M.11,4.26V15.52c0,1.52,1.1,2.15,2.63,2.16l.75-.07,3.39.09.75-.1,8.08.35c-.28-1.24-2.36-3.7-3.76-3.71l-.38-.05-2.13.15,1.86-1.95,0-.23L9.7,10.53c-1.61,0-2.67-.2-3.62,1.1-.52.73-1.37,2.76-2.4,2.75a.86.86,0,0,1-.94-.78v-.39c0-.77,1.89-1.44,2.58-2A5.63,5.63,0,0,0,7.25,8.58C6.85,8,6.18,6.24,5.37,6.24H5.19C4.39,6.23,3.74,7.54,3,8l.28-2.9V4.87C3.31,3.44.88,2,.11,1.35-.14,1.47.11,4.26.11,4.26Z"/><path class="cls-1" d="M39.59,3.73c1.07,0,2-.57,3.38-.57-.29,1.13-1.32.24-1.88,2.71a3.73,3.73,0,0,0,2.82,1.76c.81,0,3.18-4.25,4.51-4.24.43,0,.56.14.56.59a35.62,35.62,0,0,1-3.14,3.14c-.71.71-1.31.7-1.05,1.92.13.58.71,1.9,1.19,1.91,1.8,0,1.65-1.78,3-1.93,0,1.14-.56,2.06-.56,2.72v1.94c0,.74,2.18,2.87,3.06,3.1V12.92h0c0-3.3,0-6.6,0-9.9C51.45-.45,47.37.47,45,.46L43,.56,35.83.1C35.94,1.67,38.24,3.72,39.59,3.73Z"/></g></g></svg>