<svg xmlns="http://www.w3.org/2000/svg" preserveAspectRatio="none" viewBox="0 0 16.11 8.51"><defs><style>.cls-1{fill:#623c25;fill-rule:evenodd;}</style></defs><title>2_d</title><g id="Layer_2" data-name="Layer 2"><g id="Layer_1-2" data-name="Layer 1"><path class="cls-1" d="M10.4,6.94c.29-1.84.67-1.84,2.83-1.84l.39.46c.28-.49-.93-1.62-1.52-1.83a8.26,8.26,0,0,0-3-.74c-1,0-3.21-.34-4.38.25s-2.33.85-2.37,2.21h.44L3.41,5c.91.37,2-.07,2.08,1.53,0,.8-.86,1.87-1.62,1.74C3.24,9,1,7.92.45,7.06a4,4,0,0,1,0-3.73A5.61,5.61,0,0,1,3.38.93,9.39,9.39,0,0,1,7.68,0h.43a5.28,5.28,0,0,1,1.7.13,10.88,10.88,0,0,0,1.78.31c.79.42,2.6,1,2.83,1.84h.44c.07.22.6.87.8,1.2A3.32,3.32,0,0,1,16.07,5c.26,1.71-.66,1.71-.78,2.82-1.12.21-.65.81-3,.67-1.17-.07-1.36-.94-1.86-1.55M9,.71c-1-.44-3.9.15-4.58.43A6.85,6.85,0,0,0,1.13,3.25a2.81,2.81,0,0,0-.07,3.59c.71.7.53.66,1.76.94s1.34-.41,1.92-.58V6.94a1.38,1.38,0,0,1,.11-.53c-.5-.75-.63-.61-1.53-1-.23.28-.87.51-.87.79s.57.52.11.79l-.1-.27c-1.09.36-1.33-2-.58-2.65a7.6,7.6,0,0,1,1.33-1c.52-.31,1.08-.4,1.64-.7l1.65-.3,0-.08,3.59.09.31.22,2.29.46a1.3,1.3,0,0,0,1,.66c.14.49.74.91.9,1.37.3.87,0,.84,0,1.61-.78.42-.39,1-1.85,1.14-.18-.1-.43-.19-.43-.44s1-.13,1-.87c0-.47-.28-.79-.87-.79H12c0,.42-.41.42-.65.52s-.33.45-.33.79a1.9,1.9,0,0,0,.33.88c.71,0,.6.18.76.18a.47.47,0,0,0,.32-.09l.32.19.88-.11A3.26,3.26,0,0,0,15,7a2.78,2.78,0,0,0,.63-1.41V4.92c0-1.13-1.49-2.38-2.31-2.87a8.16,8.16,0,0,0-1.79-.93A12.32,12.32,0,0,1,9.31.54Z"/></g></g></svg>