<svg xmlns="http://www.w3.org/2000/svg" preserveAspectRatio="none" viewBox="0 0 10.71 12.98"><defs><style>.cls-1{fill:#623c25;fill-rule:evenodd;}</style></defs><title>2_l</title><g id="Layer_2" data-name="Layer 2"><g id="Layer_1-2" data-name="Layer 1"><path class="cls-1" d="M2,4.6c2.32-.23,2.32-.54,2.32-2.27L3.71,2c.62-.22,2,.76,2.3,1.24a4.71,4.71,0,0,1,.93,2.42c0,.8.44,2.58-.31,3.52s-1.07,1.88-2.78,1.91v-.35l.58-.5C4,9.5,4.53,8.63,2.52,8.55c-1,0-2.37.7-2.2,1.31-.95.51.42,2.28,1.5,2.76a7.62,7.62,0,0,0,4.7,0,5.73,5.73,0,0,0,3-2.34A5.42,5.42,0,0,0,10.69,6.8V6.45a2.9,2.9,0,0,0-.15-1.37,5.54,5.54,0,0,1-.4-1.44C9.61,3,8.83,1.55,7.82,1.36V1C7.54,1,6.72.53,6.32.37A5.82,5.82,0,0,0,4.41,0C2.27-.17,2.26.57.87.66c-.26.9-1,.52-.84,2.44C.11,4.05,1.21,4.2,2,4.6M9.81,5.74c.56.84-.18,3.15-.53,3.7-1,1.65-1,1.49-2.66,2.63a5.16,5.16,0,0,1-4.52.06c-.88-.57-.83-.43-1.19-1.42s.52-1.08.73-1.55H2a3.07,3.07,0,0,0,.67-.08c.94.39.77.5,1.21,1.22-.36.19-.64.7-1,.7s-.66-.45-1-.08L2.2,11c-.46.88,2.52,1.07,3.34.47a7.54,7.54,0,0,0,1.29-1.08c.4-.42.5-.86.88-1.31l.38-1.33H8.2L8.08,4.87l-.27-.25L7.22,2.78c-.35-.18-.78-.36-.83-.81-.62-.11-1.14-.59-1.72-.72-1.1-.24-1.06,0-2,0-.53.63-1.32.32-1.44,1.49.13.15.24.35.55.35s.17-.78,1.11-.78c.58,0,1,.22,1,.7v.26c-.53,0-.53.33-.66.53s-.56.26-1,.26a3.42,3.42,0,0,1-1.1-.26c0-.58-.22-.49-.22-.62s0-.15.11-.26L.74,2.69.88,2c.35-.43.45-.76,1.08-1.07A4.51,4.51,0,0,1,3.74.4h.77A5.89,5.89,0,0,1,8.13,2.26,5.57,5.57,0,0,1,9.29,3.7c.25.52.4,1.47.74,1.78Z"/></g></g></svg>