<svg xmlns="http://www.w3.org/2000/svg" preserveAspectRatio="none" viewBox="0 0 10.71 12.98"><defs><style>.cls-1{fill:#623c25;fill-rule:evenodd;}</style></defs><title>2_r</title><g id="Layer_2" data-name="Layer 2"><g id="Layer_1-2" data-name="Layer 1"><path class="cls-1" d="M8.73,4.6c-2.31-.23-2.31-.54-2.31-2.27L7,2c-.62-.22-2,.76-2.3,1.24a4.71,4.71,0,0,0-.93,2.42c0,.8-.44,2.58.31,3.52s1.07,1.88,2.78,1.91v-.35l-.58-.5c.47-.74-.09-1.61,1.92-1.69,1,0,2.36.7,2.2,1.31.95.51-.42,2.28-1.5,2.76a7.62,7.62,0,0,1-4.7,0,5.73,5.73,0,0,1-3-2.34A5.42,5.42,0,0,1,0,6.8V6.45A2.9,2.9,0,0,1,.17,5.08a5.54,5.54,0,0,0,.4-1.44C1.1,3,1.87,1.55,2.89,1.36V1C3.16,1,4,.53,4.39.37A5.72,5.72,0,0,1,6.3,0C8.44-.17,8.45.57,9.84.66c.26.9,1,.52.84,2.44-.09.95-1.18,1.1-1.95,1.5M.9,5.74c-.56.84.18,3.15.53,3.7,1,1.65,1,1.49,2.66,2.63a5.16,5.16,0,0,0,4.52.06c.88-.57.83-.43,1.19-1.42s-.52-1.08-.73-1.55H8.73a3.05,3.05,0,0,1-.66-.08c-.94.39-.77.5-1.21,1.22.36.19.64.7,1,.7s.66-.45,1-.08L8.51,11c.46.88-2.52,1.07-3.34.47a7.54,7.54,0,0,1-1.29-1.08c-.4-.42-.5-.86-.88-1.31L2.62,7.75H2.51l.12-2.89.27-.25.59-1.84c.35-.18.78-.36.83-.81.62-.11,1.14-.59,1.72-.72,1.1-.24,1,0,2,0,.53.63,1.31.32,1.44,1.49-.13.15-.24.35-.55.35s-.17-.78-1.11-.78c-.58,0-1,.22-1,.7v.26c.53,0,.53.33.66.53s.56.26,1,.26a3.42,3.42,0,0,0,1.11-.26c0-.58.22-.49.22-.62s0-.15-.11-.26L10,2.69,9.83,2c-.35-.43-.45-.76-1.08-1.07A4.57,4.57,0,0,0,7,.4H6.2A5.89,5.89,0,0,0,2.58,2.26,5.57,5.57,0,0,0,1.42,3.7C1.17,4.22,1,5.17.68,5.48Z"/></g></g></svg>