<?xml version="1.0" encoding="utf-8"?>
<!-- Generator: Adobe Illustrator 22.0.0, SVG Export Plug-In . SVG Version: 6.00 Build 0)  -->
<svg version="1.1" id="Слой_1" xmlns="http://www.w3.org/2000/svg" xmlns:xlink="http://www.w3.org/1999/xlink" x="0px" y="0px"
	 preserveAspectRatio="none" viewBox="0 0 31.9 24.5" style="enable-background:new 0 0 31.9 24.5;" xml:space="preserve">
<style type="text/css">
	.st0{fill:#623C25;}
</style>
<g id="Layer_2">
	<g id="Layer_1-2">
		<path class="st0" d="M27.1,15.4c0.6,0,1.2,0.2,1.7,0.6c-1.3,0-2.3,0.7-2,1.6c0.3,1,1.1,1.6,2.1,1.6h0.3c1.4,0.1,2.6-1,2.6-2.4
			c0-0.1,0-0.1,0-0.2c-0.1-0.7-0.4-1.3-0.8-1.7c-0.5-0.5-1-0.9-1.7-1.2c-1.6-0.6-3.4-0.8-5.1-0.4c-1.5,0.2-3,0.7-4.3,1.5
			c-0.6,0.4-1.1,0.8-1.6,1.3c-0.3,0.3-1.1,1.4-1.4,1.5V18c0,0.2-0.1,0.2-0.2,0.4c0,0.7-0.4,1.3-0.4,1.8c0,2.5,1.9,4.6,5.1,4.6
			c0.5,0,1.5-0.3,1.5-0.7c0.8,0,1.1-0.8,1.1-1.5V22c0-0.5-1.2-1.5-1.9-1.5h-0.5c-1.1,0-1.3,0.6-1.9,1c-0.9-1.4,0.9-2.8,1.7-3.7
			c0.5-0.7,1.2-1.1,2-1.4c0.4-0.2,0.8-0.4,1.2-0.6c0.4-0.1,0.9-0.2,1.3-0.4H27.1z M24.8,15h-0.6c-0.1,0.2-2.4,1.1-2.9,1.5
			c-0.8,0.6-1.6,1.3-2.1,2.1c-0.4,0.9-1.2,1.7-0.8,3c0,0,0.9,1.1,1,1.1c0.5,0.3,1.1,0.5,1.7,0.6h0.5c0.5,0,1.1-0.4,1.1-0.8
			s-1-0.1-1.1-0.1c-0.3,0-0.8-0.3-0.8-0.5v-0.4c0-0.3,0.6-0.6,1-0.4l0.3-0.2l1.1,0.9l0.1,0.7c-0.9,1.3-2.7,1.6-4,0.8
			c-0.9-0.5-1.1-0.5-1.5-1.4c-0.2-0.3-0.3-0.6-0.4-0.9s-0.2-0.9-0.2-1c0.5-0.8,0.1-1.5,0.8-2.1c0.5-0.5,0.6-1.1,1.4-1.7
			c0.5-0.6,1.2-1,1.8-1.3c0.8-0.3,1.5-0.6,2.3-1l1.5-0.3l0.3,0.2c0.1-0.1-0.2-0.1,0.2-0.1h0.7c0.5,0,0,0,0.2,0.1l0.3-0.2l1,0.3
			c1-0.4,3.1,1.8,3.1,2.8v0.6c0,0.5-1,1.3-1.9,1.3c-0.4,0-0.3-0.1-0.7-0.1l-0.5-0.3l0.1-1.1c0.3-0.1,0.6-0.3,0.9-0.4h0.2
			c0.6,0,0.8,0.6,0.7,1l0.6-0.5l0.1-0.6c-0.5-0.7-0.9-1.7-2-1.8c-0.5-0.1-1.1-0.1-1.6,0C26,14.8,24.9,15,24.8,15"/>
		<path class="st0" d="M29.9,4.6c-2.3-0.2-2.3-0.5-2.3-2.3L28.1,2c-0.6-0.2-2,0.8-2.3,1.2c-0.5,0.7-0.8,1.5-0.9,2.4
			c0,0.8-0.4,2.6,0.3,3.5S26.3,11,28,11v-0.4l-0.6-0.5c0.5-0.7-0.1-1.6,1.9-1.7c1,0,2.4,0.7,2.2,1.3c0.9,0.5-0.4,2.3-1.5,2.8
			c-1.5,0.5-3.2,0.5-4.7,0c-1.2-0.4-2.3-1.2-3-2.3c-0.8-1-1.2-2.2-1.2-3.5V6.4c-0.1-0.5,0-0.9,0.2-1.4s0.3-0.9,0.4-1.4
			C22.2,3,23,1.5,24,1.4V1c0.3-0.1,1.1-0.5,1.5-0.6C26.1,0.1,26.8,0,27.4,0c2.1-0.2,2.1,0.5,3.5,0.6c0.3,0.9,1,0.5,0.8,2.4
			C31.7,4,30.6,4.2,29.9,4.6 M22,5.7c-0.6,0.8,0.2,3.1,0.5,3.7c1,1.6,1,1.5,2.6,2.6c1.4,0.7,3.1,0.7,4.5,0.1
			c0.9-0.6,0.8-0.4,1.2-1.4s-0.5-1.1-0.7-1.6h-0.3c-0.2,0-0.4,0-0.7-0.1c-1,0.4-0.8,0.5-1.2,1.2c0.4,0.2,0.6,0.7,1,0.7
			s0.7-0.4,1-0.1L29.6,11c0.5,0.9-2.5,1.1-3.3,0.5c-0.5-0.3-0.9-0.7-1.3-1.1c-0.4-0.4-0.5-0.9-0.9-1.3l-0.4-1.3h-0.1l0.1-2.9L24,4.6
			l0.6-1.8c0.3-0.2,0.8-0.4,0.8-0.8c0.6-0.1,1.1-0.6,1.7-0.7c1.1-0.2,1,0,2,0c0.5,0.6,1.3,0.3,1.4,1.5c-0.1,0.2-0.2,0.3-0.6,0.3
			s-0.2-0.8-1.1-0.8c-0.6,0-1,0.2-1,0.7v0.3c0.5,0,0.5,0.3,0.7,0.5s0.5,0.3,1,0.3c0.4,0,0.8-0.1,1.1-0.3c0-0.6,0.2-0.5,0.2-0.6
			s0-0.2-0.1-0.3L31,2.7V2c-0.3-0.4-0.4-0.8-1.1-1.1c-0.6-0.3-1.2-0.5-1.8-0.5h-0.8c-1.4,0.2-2.7,0.8-3.6,1.9
			c-0.5,0.4-0.9,0.9-1.2,1.4c-0.2,0.5-0.4,1.5-0.7,1.8L22,5.7z"/>
		<path class="st0" d="M10.4,21.9c0.3-1.8,0.7-1.8,2.8-1.8l0.4,0.5c0.3-0.5-0.9-1.6-1.5-1.8c-0.9-0.4-2-0.7-3-0.7s-3.2-0.4-4.4,0.2
			s-2.3,0.9-2.4,2.2h0.4L3.4,20c0.9,0.4,2-0.1,2.1,1.5c0,0.8-0.9,1.9-1.6,1.8C3.2,24,1,22.9,0.4,22c-0.6-1.2-0.6-2.6,0-3.7
			c0.7-1.1,1.7-2,2.9-2.4C4.7,15.3,6.1,15,7.6,15H8c0.6,0,1.1,0,1.7,0.1c0.6,0.2,1.2,0.3,1.8,0.3c0.8,0.4,2.6,1,2.8,1.8h0.4
			c0.2,0.4,0.5,0.8,0.8,1.2c0.3,0.5,0.4,1,0.4,1.5c0.3,1.7-0.7,1.7-0.8,2.8c-1.1,0.2-0.6,0.8-3,0.7C11.1,23.4,10.9,22.5,10.4,21.9
			 M9,15.7c-1-0.4-3.9,0.1-4.6,0.4c-1.3,0.4-2.4,1.1-3.3,2.1S0.2,20.7,1,21.8c0.7,0.7,0.5,0.7,1.8,1s1.3-0.4,1.9-0.6V22
			c0-0.2,0-0.4,0.1-0.5c-0.5-0.8-0.6-0.6-1.5-1c-0.2,0.3-0.9,0.5-0.9,0.8S3,21.8,2.6,22l-0.1-0.3c-1.1,0.4-1.3-2-0.6-2.6
			c0.4-0.4,0.8-0.7,1.3-1s1.1-0.4,1.6-0.7l1.7-0.3V17l3.6,0.1l0.3,0.2l2.3,0.5c0.2,0.4,0.6,0.6,1,0.7c0.1,0.5,0.7,0.9,0.9,1.4
			c0.3,0.9,0,0.8,0,1.6c-0.8,0.4-0.4,1-1.9,1.1c-0.2-0.1-0.4-0.2-0.4-0.4s1-0.1,1-0.9c0-0.4-0.3-0.8-0.7-0.8h-0.1H12
			c0,0.4-0.4,0.4-0.6,0.5S11,21.4,11,21.8c0,0.3,0.2,0.6,0.3,0.9c0.7,0,0.6,0.2,0.8,0.2c0.1,0,0.2,0,0.3-0.1l0.3,0.2l0.9-0.1
			c0.5-0.2,1-0.5,1.4-0.9c0.3-0.4,0.6-0.9,0.6-1.4V20c0-1.1-1.5-2.4-2.3-2.9c-0.6-0.4-1.2-0.7-1.8-0.9c-0.8-0.1-1.5-0.3-2.2-0.6
			L9,15.7z"/>
	</g>
</g>
</svg>
