<svg xmlns="http://www.w3.org/2000/svg" preserveAspectRatio="none" viewBox="0 0 16.11 8.51"><defs><style>.cls-1{fill:#623c25;fill-rule:evenodd;}</style></defs><title>2_u</title><g id="Layer_2" data-name="Layer 2"><g id="Layer_1-2" data-name="Layer 1"><path class="cls-1" d="M10.4,1.57c.29,1.84.67,1.84,2.83,1.84L13.62,3c.28.49-.93,1.61-1.52,1.83a8.27,8.27,0,0,1-3,.73c-1,0-3.21.35-4.38-.24S2.38,4.41,2.34,3.06h.44l.63.46c.91-.38,2,.07,2.08-1.53,0-.8-.86-1.88-1.62-1.75C3.24-.5,1,.59.45,1.45a4,4,0,0,0,0,3.73,5.66,5.66,0,0,0,2.91,2.4,9.51,9.51,0,0,0,4.3.91h.43a5.24,5.24,0,0,0,1.7-.12,9.91,9.91,0,0,1,1.78-.31c.79-.43,2.6-1,2.83-1.84h.44a11.85,11.85,0,0,1,.8-1.2,3.32,3.32,0,0,0,.41-1.51c.26-1.71-.66-1.71-.78-2.82-1.12-.21-.65-.81-3-.67C11.09.09,10.9,1,10.4,1.57M9,7.79c-1,.45-3.9-.14-4.58-.42A6.92,6.92,0,0,1,1.13,5.26a2.81,2.81,0,0,1-.07-3.59C1.77,1,1.59,1,2.82.72s1.34.42,1.92.59v.26a1.38,1.38,0,0,0,.11.53c-.5.75-.63.61-1.53,1-.23-.29-.87-.51-.87-.79s.57-.52.11-.79l-.1.27c-1.09-.37-1.33,2-.58,2.65a7.6,7.6,0,0,0,1.33,1c.52.31,1.08.4,1.64.7l1.65.3,0,.08,3.59-.09.31-.22,2.29-.47a1.29,1.29,0,0,1,1-.65c.14-.5.74-.91.9-1.37.3-.87,0-.84,0-1.61-.78-.43-.39-1-1.85-1.14-.18.1-.43.19-.43.43s1,.14,1,.88c0,.47-.28.79-.87.79H12c0-.42-.41-.42-.65-.53s-.33-.44-.33-.79a1.86,1.86,0,0,1,.33-.87c.71,0,.6-.18.76-.18a.47.47,0,0,1,.32.09l.32-.19.88.11A3.34,3.34,0,0,1,15,1.55,2.85,2.85,0,0,1,15.62,3v.62c0,1.13-1.49,2.38-2.31,2.87a7.73,7.73,0,0,1-1.79.92A13.16,13.16,0,0,0,9.31,8Z"/></g></g></svg>