<?xml version="1.0" encoding="utf-8"?>
<!-- Generator: Adobe Illustrator 22.0.0, SVG Export Plug-In . SVG Version: 6.00 Build 0)  -->
<svg version="1.1" id="Слой_1" xmlns="http://www.w3.org/2000/svg" xmlns:xlink="http://www.w3.org/1999/xlink" x="0px" y="0px"
	 preserveAspectRatio="none" viewBox="0 0 12 6" style="enable-background:new 0 0 12 6;" xml:space="preserve">
<style type="text/css">
	.st0{fill:#623C25;}
</style>
<title>12_d</title>
<g id="Layer_2">
	<g id="Layer_1-2">
		<path class="st0" d="M8.6,0.1L8.6,0.1C8.1,0.3,7.7,0.6,7.3,0.9C7,1.1,5.8,2,5.6,2c-1-0.6-2-1.2-2.9-1.9L0,1.9v1.6
			c0.5-0.3,2.6-1.9,2.6-1.9s2,1.3,3,2l2.9-2C9.1,1.7,12,4,12,4V2.2C11.5,1.8,9.3,0.4,8.6,0.1z"/>
		<path class="st0" d="M0,5.2V6l12,0l0-0.8C11.8,5.1,0,5.2,0,5.2z"/>
		<path class="st0" d="M5.5,4.4c-1.1,0.1-2.1,0-3.2,0c-0.5,0-1,0-1.5,0c-0.2,0-0.5,0-0.7,0v0.4c0.9-0.1,1.8-0.1,2.6,0h6l1.1-0.1H12
			V4.5l0-0.2L9.4,4.4H5.5z"/>
		<polygon class="st0" points="12,5.2 12,5.2 12,6.1 12,6.1 12,5.1 12,5.1 		"/>
		<polygon class="st0" points="12,3.3 12,3.2 12,2.9 12,2.9 		"/>
		<polygon class="st0" points="12,4.4 12,4.5 12,4.5 12,4.4 12,4.4 		"/>
	</g>
</g>
</svg>
