<?xml version="1.0" encoding="utf-8"?>
<!-- Generator: Adobe Illustrator 22.0.0, SVG Export Plug-In . SVG Version: 6.00 Build 0)  -->
<svg version="1.1" id="Слой_1" xmlns="http://www.w3.org/2000/svg" xmlns:xlink="http://www.w3.org/1999/xlink" x="0px" y="0px"
	 preserveAspectRatio="none" viewBox="0 0 18 18" style="enable-background:new 0 0 18 18;" xml:space="preserve">
<style type="text/css">
	.st0{fill:#623C25;}
</style>
<title>12_r_u</title>
<g id="Layer_2">
	<g id="Layer_1-2">
		<path class="st0" d="M15.1,16.4h-1.2l-0.1,0l-0.9,0.1c-1,0.1-1.9,0-2.8,0c-0.4,0-2.3,0-2.3,0v0.3c0,0,2.2,0,2.7,0h5.2l1,0H18v-0.3
			l-1.8,0.1L15.1,16.4z"/>
		<path class="st0" d="M5.2,11.8c0-0.1-1.6-1.4-1.9-1.6l-1.5,0.1l1.9,1.7c-0.3,0.6-1.2,3.1-1.3,3.2c-0.1,0.2-0.2,0.3-0.3,0.4
			c0,0.4,1.3-0.4,1.7-0.6c0.4-0.2,1.8-0.8,1.9-0.8c0.2,0,1.8,1.4,1.9,1.5L7.8,16l1.4-1.3l1.1-0.8c0,0,1.8,1.2,2.6,1.8l2.5-1.7v0
			c0.5,0,2.6,1.7,2.6,1.7v-1.5c-0.8-0.6-1.6-1.2-2.5-1.7h-0.1c-0.1,0-2.3,1.8-2.5,1.8c-0.8-0.5-1.6-1.1-2.4-1.7l-0.4,0.1l-2.4,1.9
			c0,0,0.3,0.1-0.6-0.6c-0.3-0.3-0.7-0.6-1.1-0.9L4,14.1V14C4.1,13.7,5.2,11.9,5.2,11.8z"/>
		<path class="st0" d="M10.2,18l7.8,0.1v-1c-0.2,0-0.4,0.1-0.5,0.1l-0.9,0h-2.9l-12.9,0l-0.1-6.8l-0.1,0H0L0,18H10.2z"/>
		<path class="st0" d="M0,10.4l0.8,0c0,0,0-0.7,0-0.9L0.8-0.1H0L0,10.4z"/>
		<path class="st0" d="M1.3,10.3l0.3,0.2c0,0-0.1-10.3-0.1-10.6H1.1c0,0,0,10.5,0,10.5L1.3,10.3C1.2,10.3,1.3,10.3,1.3,10.3z"/>
		<path class="st0" d="M1.8,10.3h0.5l0.3,0h0.5C3.5,10,3.8,9.5,4,9.1C4.4,8.6,4.7,8,5,7.5V7.3C4.8,7,4.5,6.6,4.3,6.3
			C4.1,6,3.4,4.9,3.4,4.8s1.5-2.3,1.6-2.4L4.9,2L3.4,0H2.1c0.2,0.4,1.2,1.9,1.5,2.2C3.1,3.1,2.6,3.9,2,4.8l1.6,2.5L2.8,8.8L1.8,10.3
			z"/>
		<path class="st0" d="M1.2,10.4c0,0.1-0.1,0.1-0.1,0.1l0.1,6c0,0,0,0,0,0.1c0,0.1,0.1,0.2,0.3,0.2h3c1.1,0,2.1,0.1,3.2,0v-0.3
			c-0.7,0-1.5,0-2.2,0H1.7l-0.1-1v-5l-0.2-0.1l0-0.1h0l0,0H1.2z"/>
		<polygon class="st0" points="4,1.8 4.2,1.8 4.1,1.5 4.3,1.4 4.3,1.3 4,1.5 		"/>
	</g>
</g>
</svg>
