<?xml version="1.0" encoding="utf-8"?>
<!-- Generator: Adobe Illustrator 22.0.0, SVG Export Plug-In . SVG Version: 6.00 Build 0)  -->
<svg version="1.1" id="Слой_1" xmlns="http://www.w3.org/2000/svg" xmlns:xlink="http://www.w3.org/1999/xlink" x="0px" y="0px"
	 preserveAspectRatio="none" viewBox="0 0 18 18" style="enable-background:new 0 0 18 18;" xml:space="preserve">
<style type="text/css">
	.st0{fill:#623C25;}
</style>
<title>12_r_u</title>
<g id="Layer_2">
	<g id="Layer_1-2">
		<path class="st0" d="M1.6,15.1v-1.2l0-0.1l-0.1-0.9c-0.1-1,0-1.9,0-2.8c0-0.4,0-2.3,0-2.3H1.2c0,0,0,2.2,0,2.7v5.2l0,1V18h0.3
			l-0.1-1.8L1.6,15.1z"/>
		<path class="st0" d="M6.2,5.1c0.1,0,1.4-1.6,1.6-1.9L7.7,1.8L5.9,3.7C5.3,3.4,2.9,2.5,2.7,2.4C2.6,2.3,2.4,2.2,2.3,2.1
			c-0.4,0,0.4,1.3,0.6,1.7C3,4.1,3.7,5.6,3.7,5.6c0,0.2-1.4,1.8-1.5,1.9L2,7.8l1.3,1.4l0.8,1.1c0,0-1.2,1.8-1.8,2.6L4,15.4h0
			C4,15.9,2.3,18,2.3,18h1.5c0.6-0.8,1.2-1.6,1.7-2.5v-0.1c0-0.1-1.8-2.3-1.8-2.5c0.5-0.8,1.1-1.6,1.7-2.4l-0.1-0.4L3.6,7.7
			c0,0-0.1,0.3,0.6-0.6c0.3-0.3,0.6-0.7,0.9-1.1L3.9,4H4C4.3,4.1,6,5.1,6.2,5.1z"/>
		<path class="st0" d="M0,10.2L-0.1,18h1c0-0.2-0.1-0.4-0.1-0.5l0-0.9v-2.9l0-12.9l6.8-0.1l0-0.1V0H0V10.2z"/>
		<path class="st0" d="M7.6,0l0,0.8c0,0,0.7,0,0.9,0l9.6-0.1V0L7.6,0z"/>
		<path class="st0" d="M7.7,1.3L7.5,1.6c0,0,10.3-0.1,10.6-0.1V1.1c0,0-10.5,0-10.5,0L7.7,1.3C7.7,1.2,7.7,1.2,7.7,1.3z"/>
		<path class="st0" d="M7.7,1.8v0.5l0,0.3v0.5C8,3.5,8.5,3.8,8.9,4c0.5,0.4,1,0.7,1.6,0.9h0.1c0.4-0.2,0.7-0.4,1.1-0.7
			c0.3-0.2,1.4-0.9,1.5-0.9c0.1,0,2.3,1.5,2.4,1.6L16,4.9L18,3.4V2.1c-0.4,0.2-1.9,1.2-2.2,1.5c-0.9-0.5-1.8-1-2.6-1.6l-2.5,1.6
			L9.2,2.8L7.7,1.8z"/>
		<path class="st0" d="M7.6,1.2c-0.1,0-0.1-0.1-0.1-0.1l-6,0.1c0,0,0,0-0.1,0c-0.1,0-0.2,0.1-0.2,0.3v3c0,1.1-0.1,2.1,0,3.2h0.3
			c0-0.7,0-1.5,0-2.2V1.7l1-0.1h5l0.1-0.2l0.1,0v0l0,0V1.2z"/>
		<polygon class="st0" points="16.2,4 16.2,4.2 16.5,4.1 16.6,4.3 16.7,4.2 16.5,4 		"/>
	</g>
</g>
</svg>
