<?xml version="1.0" encoding="utf-8"?>
<!-- Generator: Adobe Illustrator 22.0.0, SVG Export Plug-In . SVG Version: 6.00 Build 0)  -->
<svg version="1.1" id="Слой_1" xmlns="http://www.w3.org/2000/svg" xmlns:xlink="http://www.w3.org/1999/xlink" x="0px" y="0px"
	 preserveAspectRatio="none" viewBox="0 0 6 12" style="enable-background:new 0 0 6 12;" xml:space="preserve">
<style type="text/css">
	.st0{fill:#623C25;}
</style>
<title>12_d</title>
<g id="Layer_2">
	<g id="Layer_1-2">
		<path class="st0" d="M3.8,0H2c0,0,2.2,3,2.3,3.5l-2,2.9c0.7,1,2,3,2,3S2.7,11.5,2.4,12h1.6l1.8-2.7C5.2,8.5,4.6,7.4,4,6.4
			C4,6.2,4.9,5,5.1,4.7c0.3-0.4,0.6-0.8,0.8-1.2V3.4C5.6,2.7,4.2,0.5,3.8,0z"/>
		<path class="st0" d="M0.8,12H0L0,0l0.8,0C0.9,0.3,0.8,12,0.8,12z"/>
		<path class="st0" d="M1.6,6.6c-0.1,1.1,0,2.1,0,3.2c0,0.5,0,1,0,1.5c0,0.2,0,0.5,0,0.7H1.2c0.1-0.9,0.1-1.8,0-2.6v-6l0.1-1.1V0
			h0.2l0.2,0L1.6,2.6V6.6z"/>
		<polygon class="st0" points="0.9,0 0.9,0 -0.1,0 -0.1,0 0.8,0 0.8,0 		"/>
		<polygon class="st0" points="3.1,0 3.1,0 2.8,0 2.7,0 		"/>
		<polygon class="st0" points="1.6,0 1.6,0 1.5,0 1.5,0 1.6,0 		"/>
	</g>
</g>
</svg>
