<?xml version="1.0" encoding="utf-8"?>
<!-- Generator: Adobe Illustrator 22.0.0, SVG Export Plug-In . SVG Version: 6.00 Build 0)  -->
<svg version="1.1" id="Слой_1" xmlns="http://www.w3.org/2000/svg" xmlns:xlink="http://www.w3.org/1999/xlink" x="0px" y="0px"
	 preserveAspectRatio="none" viewBox="0 0 18 18" style="enable-background:new 0 0 18 18;" xml:space="preserve">
<style type="text/css">
	.st0{fill:#623C25;}
</style>
<title>12_r_u</title>
<g id="Layer_2">
	<g id="Layer_1-2">
		<path class="st0" d="M2.9,1.6h1.2l0.1,0l0.9-0.1c1-0.1,1.9,0,2.8,0c0.4,0,2.3,0,2.3,0V1.2c0,0-2.2,0-2.7,0H2.5l-1,0H0v0.3l1.8-0.1
			L2.9,1.6z"/>
		<path class="st0" d="M12.8,6.2c0,0.1,1.6,1.4,1.9,1.6l1.5-0.1l-1.9-1.7c0.3-0.6,1.2-3.1,1.3-3.2c0.1-0.2,0.2-0.3,0.3-0.4
			c0-0.4-1.3,0.4-1.7,0.6c-0.4,0.2-1.8,0.8-1.9,0.8c-0.2,0-1.8-1.4-1.9-1.5L10.2,2L8.7,3.3L7.7,4.1c0,0-1.8-1.2-2.6-1.8L2.6,4v0
			C2.1,4,0,2.3,0,2.3v1.5C0.8,4.5,1.6,5,2.5,5.5h0.1c0.1,0,2.3-1.8,2.5-1.8c0.8,0.5,1.6,1.1,2.4,1.7l0.4-0.1l2.4-1.9
			c0,0-0.3-0.1,0.6,0.6c0.3,0.3,0.7,0.6,1.1,0.9L14,3.9V4C13.9,4.3,12.8,6,12.8,6.2z"/>
		<path class="st0" d="M7.8,0L0-0.1v1c0.2,0,0.4-0.1,0.5-0.1l0.9,0h2.9l12.9,0l0.1,6.8l0.1,0H18V0H7.8z"/>
		<path class="st0" d="M18,7.6l-0.8,0c0,0,0,0.7,0,0.9l0.1,9.6H18L18,7.6z"/>
		<path class="st0" d="M16.7,7.7l-0.3-0.2c0,0,0.1,10.3,0.1,10.6h0.3c0,0,0-10.5,0-10.5L16.7,7.7C16.8,7.7,16.7,7.7,16.7,7.7z"/>
		<path class="st0" d="M16.2,7.7h-0.5l-0.3,0h-0.5C14.5,8,14.2,8.5,14,8.9c-0.4,0.5-0.7,1-0.9,1.6v0.1c0.2,0.4,0.4,0.7,0.7,1.1
			c0.2,0.3,0.9,1.4,0.9,1.5c0,0.1-1.5,2.3-1.6,2.4l0.1,0.4l1.4,2.1h1.3c-0.2-0.4-1.2-1.9-1.5-2.2c0.5-0.9,1-1.8,1.6-2.6l-1.6-2.5
			l0.8-1.5L16.2,7.7z"/>
		<path class="st0" d="M16.8,7.6c0-0.1,0.1-0.1,0.1-0.1l-0.1-6c0,0,0,0,0-0.1c0-0.1-0.1-0.2-0.3-0.2h-3c-1.1,0-2.1-0.1-3.2,0v0.3
			c0.7,0,1.5,0,2.2,0h3.8l0.1,1v5l0.2,0.1l0,0.1h0l0,0H16.8z"/>
		<polygon class="st0" points="14,16.2 13.8,16.2 13.9,16.5 13.7,16.6 13.7,16.7 14,16.5 		"/>
	</g>
</g>
</svg>
