<?xml version="1.0" encoding="utf-8"?>
<!-- Generator: Adobe Illustrator 22.0.0, SVG Export Plug-In . SVG Version: 6.00 Build 0)  -->
<svg version="1.1" id="Слой_1" xmlns="http://www.w3.org/2000/svg" xmlns:xlink="http://www.w3.org/1999/xlink" x="0px" y="0px"
	 preserveAspectRatio="none" viewBox="0 0 18 18" style="enable-background:new 0 0 18 18;" xml:space="preserve">
<style type="text/css">
	.st0{fill:#623C25;}
</style>
<title>12_r_u</title>
<g id="Layer_2">
	<g id="Layer_1-2">
		<path class="st0" d="M16.4,2.9v1.2l0,0.1l0.1,0.9c0.1,1,0,1.9,0,2.8c0,0.4,0,2.3,0,2.3h0.3c0,0,0-2.2,0-2.7V2.5l0-1V0h-0.3
			l0.1,1.8L16.4,2.9z"/>
		<path class="st0" d="M11.8,12.8c-0.1,0-1.4,1.6-1.6,1.9l0.1,1.5l1.7-1.9c0.6,0.3,3.1,1.2,3.2,1.3c0.2,0.1,0.3,0.2,0.4,0.3
			c0.4,0-0.4-1.3-0.6-1.7c-0.2-0.4-0.8-1.8-0.8-1.9c0-0.2,1.4-1.8,1.5-1.9l0.2-0.3l-1.3-1.4l-0.8-1.1c0,0,1.2-1.8,1.8-2.6L14,2.6h0
			C14,2.1,15.7,0,15.7,0h-1.5c-0.6,0.8-1.2,1.6-1.7,2.5v0.1c0,0.1,1.8,2.3,1.8,2.5c-0.5,0.8-1.1,1.6-1.7,2.4l0.1,0.4l1.9,2.4
			c0,0,0.1-0.3-0.6,0.6c-0.3,0.3-0.6,0.7-0.9,1.1l1.2,2.1H14C13.7,13.9,12,12.8,11.8,12.8z"/>
		<path class="st0" d="M18,7.8L18.1,0h-1c0,0.2,0.1,0.4,0.1,0.5l0,0.9v2.9l0,12.9l-6.8,0.1l0,0.1V18H18V7.8z"/>
		<path class="st0" d="M10.4,18l0-0.8c0,0-0.7,0-0.9,0l-9.6,0.1V18L10.4,18z"/>
		<path class="st0" d="M10.3,16.7l0.2-0.3c0,0-10.3,0.1-10.6,0.1v0.3c0,0,10.5,0,10.5,0L10.3,16.7C10.3,16.7,10.3,16.7,10.3,16.7z"
			/>
		<path class="st0" d="M10.3,16.2v-0.5l0-0.3v-0.5c-0.4-0.3-0.8-0.6-1.3-0.9c-0.5-0.4-1-0.7-1.6-0.9H7.3c-0.4,0.2-0.7,0.4-1.1,0.7
			c-0.3,0.2-1.4,0.9-1.5,0.9s-2.3-1.5-2.4-1.6L2,13.1L0,14.6v1.3c0.4-0.2,1.9-1.2,2.2-1.5c0.9,0.5,1.8,1,2.6,1.6l2.5-1.6l1.5,0.8
			L10.3,16.2z"/>
		<path class="st0" d="M10.4,16.8c0.1,0,0.1,0.1,0.1,0.1l6-0.1c0,0,0,0,0.1,0c0.1,0,0.2-0.1,0.2-0.3v-3c0-1.1,0.1-2.1,0-3.2h-0.3
			c0,0.7,0,1.5,0,2.2v3.8l-1,0.1h-5l-0.1,0.2l-0.1,0v0l0,0V16.8z"/>
		<polygon class="st0" points="1.8,14 1.8,13.8 1.5,13.9 1.4,13.7 1.3,13.7 1.5,14 		"/>
	</g>
</g>
</svg>
