<?xml version="1.0" encoding="utf-8"?>
<!-- Generator: Adobe Illustrator 22.0.0, SVG Export Plug-In . SVG Version: 6.00 Build 0)  -->
<svg version="1.1" id="Слой_1" xmlns="http://www.w3.org/2000/svg" xmlns:xlink="http://www.w3.org/1999/xlink" x="0px" y="0px"
	 preserveAspectRatio="none" viewBox="0 0 6 12" style="enable-background:new 0 0 6 12;" xml:space="preserve">
<style type="text/css">
	.st0{fill:#623C25;}
</style>
<title>12_d</title>
<g id="Layer_2">
	<g id="Layer_1-2">
		<path class="st0" d="M0.1,3.4L0.1,3.4c0.2,0.5,0.5,0.9,0.8,1.3C1.1,5,2,6.2,2,6.4c-0.6,1-1.2,2-1.9,2.9L1.9,12h1.6
			c-0.3-0.5-1.9-2.6-1.9-2.6s1.3-2,2-3l-2-2.9C1.7,2.9,3.9,0,3.9,0H2.2C1.8,0.5,0.4,2.7,0.1,3.4z"/>
		<path class="st0" d="M5.2,12H6L6,0L5.2,0C5.1,0.2,5.2,12,5.2,12z"/>
		<path class="st0" d="M4.4,6.5c0.1,1.1,0,2.1,0,3.2c0,0.5,0,1,0,1.5c0,0.2,0,0.5,0,0.7h0.4c-0.1-0.9-0.1-1.8,0-2.6v-6L4.7,2.2V0
			H4.5L4.3,0l0.1,2.6V6.5z"/>
		<polygon class="st0" points="5.2,0 5.2,0 6.1,0 6.1,0 5.1,0 5.1,0 		"/>
		<polygon class="st0" points="3.3,0 3.2,0 2.9,0 2.9,0 		"/>
		<polygon class="st0" points="4.4,0 4.5,0 4.5,0 4.4,0 4.4,0 		"/>
	</g>
</g>
</svg>
