<?xml version="1.0" encoding="utf-8"?>
<!-- Generator: Adobe Illustrator 22.0.0, SVG Export Plug-In . SVG Version: 6.00 Build 0)  -->
<svg version="1.1" id="Слой_1" xmlns="http://www.w3.org/2000/svg" xmlns:xlink="http://www.w3.org/1999/xlink" x="0px" y="0px"
	 preserveAspectRatio="none" viewBox="0 0 12 6" style="enable-background:new 0 0 12 6;" xml:space="preserve">
<style type="text/css">
	.st0{fill:#623C25;}
</style>
<title>12_d</title>
<g id="Layer_2">
	<g id="Layer_1-2">
		<path class="st0" d="M12,3.7V2c0,0-3,2.2-3.5,2.3l-2.9-2c-1,0.7-3,2-3,2S0.5,2.7,0,2.4V4l2.7,1.8c0.9-0.7,2-1.3,2.9-1.9
			C5.8,4,7,4.9,7.3,5.1c0.4,0.3,0.8,0.6,1.2,0.8h0.1C9.3,5.6,11.5,4.1,12,3.7z"/>
		<path class="st0" d="M0,0.8V0l12,0l0,0.8C11.8,0.9,0,0.8,0,0.8z"/>
		<path class="st0" d="M5.5,1.6c-1.1-0.1-2.1,0-3.2,0c-0.5,0-1,0-1.5,0c-0.2,0-0.5,0-0.7,0V1.2c0.9,0.1,1.8,0.1,2.6,0h6l1.1,0.1H12
			v0.2l0,0.2L9.4,1.6H5.5z"/>
		<polygon class="st0" points="12,0.8 12,0.8 12,-0.1 12,-0.1 12,0.8 12,0.8 		"/>
		<polygon class="st0" points="12,3.1 12,3.1 12,2.8 12,2.7 		"/>
		<polygon class="st0" points="12,1.6 12,1.6 12,1.5 12,1.5 12,1.6 		"/>
	</g>
</g>
</svg>
