<?xml version="1.0" encoding="utf-8"?>
<!-- Generator: Adobe Illustrator 22.0.0, SVG Export Plug-In . SVG Version: 6.00 Build 0)  -->
<svg version="1.1" id="Слой_1" xmlns="http://www.w3.org/2000/svg" xmlns:xlink="http://www.w3.org/1999/xlink" x="0px" y="0px"
	 preserveAspectRatio="none" viewBox="0 0 140 6" style="enable-background:new 0 0 140 6;" xml:space="preserve">
<style type="text/css">
	.st0{fill:#7C6742;}
</style>
<g id="Layer_2_1_">
	<g id="Layer_1-2_1_">
		<path class="st0" d="M57.2,3.2c-0.2,0-0.6,0-0.8,0c-1.8,0-3.5-0.1-4.4-0.1c-0.4,0-0.4-0.1,0-0.1c0.9-0.1,2.5-0.1,4.4-0.1h0.9
			C55.4,2.1,51.5,2.1,50,3c1.1,0.4,2.3,0.7,3.6,0.7C54.8,3.7,56,3.6,57.2,3.2"/>
		<path class="st0" d="M50,1.3c1.1,0.5,2.3,0.7,3.6,0.7c1.2,0,2.5-0.1,3.6-0.5c-0.2,0-0.6,0-0.8,0c-1.8,0-3.5-0.1-4.3-0.2
			c-0.4,0-0.4-0.1,0-0.1C52.9,1.1,54.5,1,56.4,1c0.3,0,0.6,0,0.9,0C55.4,0.4,51.5,0.4,50,1.3"/>
		<path class="st0" d="M57.2,5c-0.2,0-0.6,0-0.8,0c-1.8,0-3.5-0.1-4.4-0.1c-0.4,0-0.4-0.1,0-0.1c0.9-0.1,2.5-0.2,4.4-0.2
			c0.3,0,0.6,0,0.9,0c-1.8-0.7-5.8-0.7-7.2,0.2c1.1,0.5,2.3,0.7,3.6,0.7C54.8,5.5,56,5.4,57.2,5"/>
		<path class="st0" d="M48.1,4c-0.9,0.1-2.5,0.1-4.3,0.1h-0.9c1.2,0.3,2.4,0.5,3.6,0.4c1.2,0,2.4-0.2,3.6-0.7
			C48.7,3,44.7,3,42.9,3.7c0.3,0,0.6,0,0.9,0c1.8,0,3.5,0.1,4.3,0.1C48.5,3.8,48.5,3.9,48.1,4"/>
		<path class="st0" d="M48.1,2.2c-0.9,0.1-2.5,0.1-4.3,0.1h-0.9c1.2,0.3,2.4,0.5,3.6,0.5c1.2,0,2.4-0.2,3.6-0.7
			c-1.5-0.9-5.4-0.9-7.2-0.2c0.3,0,0.6,0,0.9,0c1.8,0,3.5,0.1,4.3,0.1C48.5,2.1,48.5,2.2,48.1,2.2"/>
		<path class="st0" d="M47.2,0.5c-0.9,0-2.1,0.1-3.3,0.1h-0.9c1.2,0.3,2.4,0.5,3.6,0.5c1.1,0,2.2-0.2,3.3-0.6H47.2z"/>
		<path class="st0" d="M43.8,5.5c0.7,0,1.4,0,2,0h4c-2.2-0.7-4.6-0.7-6.9,0C43.2,5.5,43.5,5.5,43.8,5.5"/>
	</g>
</g>
<g id="Layer_2_6_">
	<g id="Layer_1-2_6_">
		<path class="st0" d="M42.9,3.2c-0.2,0-0.6,0-0.8,0c-1.8,0-3.5-0.1-4.4-0.1c-0.4,0-0.4-0.1,0-0.1c0.9-0.1,2.5-0.1,4.4-0.1h0.9
			c-1.8-0.7-5.8-0.7-7.2,0.2c1.1,0.4,2.3,0.7,3.6,0.7C40.5,3.7,41.7,3.6,42.9,3.2"/>
		<path class="st0" d="M35.7,1.3c1.1,0.5,2.3,0.7,3.6,0.7c1.2,0,2.5-0.1,3.6-0.5c-0.2,0-0.6,0-0.8,0c-1.8,0-3.5-0.1-4.3-0.2
			c-0.4,0-0.4-0.1,0-0.1C38.6,1.1,40.2,1,42.1,1c0.3,0,0.6,0,0.9,0C41.1,0.4,37.2,0.4,35.7,1.3"/>
		<path class="st0" d="M42.9,5c-0.2,0-0.6,0-0.8,0c-1.8,0-3.5-0.1-4.4-0.1c-0.4,0-0.4-0.1,0-0.1c0.9-0.1,2.5-0.2,4.4-0.2
			c0.3,0,0.6,0,0.9,0c-1.8-0.7-5.8-0.7-7.2,0.2c1.1,0.5,2.3,0.7,3.6,0.7C40.5,5.5,41.7,5.4,42.9,5"/>
		<path class="st0" d="M33.8,4c-0.9,0.1-2.5,0.1-4.3,0.1h-0.9c1.2,0.3,2.4,0.5,3.6,0.4c1.2,0,2.4-0.2,3.6-0.7
			C34.4,3,30.4,3,28.6,3.7c0.3,0,0.6,0,0.9,0c1.8,0,3.5,0.1,4.3,0.1C34.2,3.8,34.2,3.9,33.8,4"/>
		<path class="st0" d="M33.8,2.2c-0.9,0.1-2.5,0.1-4.3,0.1h-0.9c1.2,0.3,2.4,0.5,3.6,0.5c1.2,0,2.4-0.2,3.6-0.7
			c-1.5-0.9-5.4-0.9-7.2-0.2c0.3,0,0.6,0,0.9,0c1.8,0,3.5,0.1,4.3,0.1C34.2,2.1,34.2,2.2,33.8,2.2"/>
		<path class="st0" d="M32.9,0.5c-0.9,0-2.1,0.1-3.3,0.1h-0.9C29.8,0.9,31,1.1,32.2,1c1.1,0,2.2-0.2,3.3-0.6H32.9z"/>
		<path class="st0" d="M29.5,5.5c0.7,0,1.4,0,2,0h4c-2.2-0.7-4.6-0.7-6.9,0C28.9,5.5,29.2,5.5,29.5,5.5"/>
	</g>
</g>
<g id="Layer_2_7_">
	<g id="Layer_1-2_7_">
		<path class="st0" d="M28.6,3.2c-0.2,0-0.6,0-0.8,0c-1.8,0-3.5-0.1-4.4-0.1C23,3.1,23,3,23.4,3c0.9-0.1,2.5-0.1,4.4-0.1h0.9
			c-1.8-0.7-5.8-0.7-7.2,0.2c1.1,0.4,2.3,0.7,3.6,0.7C26.2,3.7,27.4,3.6,28.6,3.2"/>
		<path class="st0" d="M21.4,1.3c1.1,0.5,2.3,0.7,3.6,0.7c1.2,0,2.5-0.1,3.6-0.5c-0.2,0-0.6,0-0.8,0c-1.8,0-3.5-0.1-4.3-0.2
			c-0.4,0-0.4-0.1,0-0.1C24.3,1.1,25.9,1,27.8,1c0.3,0,0.6,0,0.9,0C26.8,0.4,22.9,0.4,21.4,1.3"/>
		<path class="st0" d="M28.6,5c-0.2,0-0.6,0-0.8,0c-1.8,0-3.5-0.1-4.4-0.1c-0.4,0-0.4-0.1,0-0.1c0.9-0.1,2.5-0.2,4.4-0.2
			c0.3,0,0.6,0,0.9,0c-1.8-0.7-5.8-0.7-7.2,0.2c1.1,0.5,2.3,0.7,3.6,0.7C26.2,5.5,27.4,5.4,28.6,5"/>
		<path class="st0" d="M19.5,4C18.6,4,17,4.1,15.2,4.1h-0.9c1.2,0.3,2.4,0.5,3.6,0.4c1.2,0,2.4-0.2,3.6-0.7C20.1,3,16.1,3,14.3,3.7
			c0.3,0,0.6,0,0.9,0c1.8,0,3.5,0.1,4.3,0.1C19.9,3.8,19.9,3.9,19.5,4"/>
		<path class="st0" d="M19.5,2.2c-0.9,0.1-2.5,0.1-4.3,0.1h-0.9c1.2,0.3,2.4,0.5,3.6,0.5c1.2,0,2.4-0.2,3.6-0.7
			c-1.5-0.9-5.4-0.9-7.2-0.2c0.3,0,0.6,0,0.9,0c1.8,0,3.5,0.1,4.3,0.1C19.9,2.1,19.9,2.2,19.5,2.2"/>
		<path class="st0" d="M18.6,0.5c-0.9,0-2.1,0.1-3.3,0.1h-0.9c1.2,0.3,2.4,0.5,3.6,0.5c1.1,0,2.2-0.2,3.3-0.6H18.6z"/>
		<path class="st0" d="M15.2,5.5c0.7,0,1.4,0,2,0h4c-2.2-0.7-4.6-0.7-6.9,0C14.6,5.5,14.9,5.5,15.2,5.5"/>
	</g>
</g>
<g id="Layer_2_8_">
	<g id="Layer_1-2_8_">
		<path class="st0" d="M14.3,3.2c-0.2,0-0.6,0-0.8,0c-1.8,0-3.5-0.1-4.4-0.1C8.7,3.1,8.7,3,9.1,3c0.9-0.1,2.5-0.1,4.4-0.1h0.9
			C12.5,2.1,8.6,2.1,7.1,3c1.1,0.4,2.3,0.7,3.6,0.7C11.9,3.7,13.1,3.6,14.3,3.2"/>
		<path class="st0" d="M7.1,1.3c1.1,0.5,2.3,0.7,3.6,0.7c1.2,0,2.5-0.1,3.6-0.5c-0.2,0-0.6,0-0.8,0c-1.8,0-3.5-0.1-4.3-0.2
			c-0.4,0-0.4-0.1,0-0.1C10,1.1,11.6,1,13.4,1c0.3,0,0.6,0,0.9,0C12.5,0.4,8.6,0.4,7.1,1.3"/>
		<path class="st0" d="M14.3,5c-0.2,0-0.6,0-0.8,0C11.6,5,10,4.9,9.1,4.8c-0.4,0-0.4-0.1,0-0.1c0.9-0.1,2.5-0.2,4.4-0.2
			c0.3,0,0.6,0,0.9,0c-1.8-0.7-5.8-0.7-7.2,0.2c1.1,0.5,2.3,0.7,3.6,0.7C11.9,5.5,13.1,5.4,14.3,5"/>
		<path class="st0" d="M5.2,4C4.3,4,2.7,4.1,0.9,4.1H0c1.2,0.3,2.4,0.5,3.6,0.4c1.2,0,2.4-0.2,3.6-0.7C5.7,3,1.8,3,0,3.7
			c0.3,0,0.6,0,0.9,0c1.8,0,3.5,0.1,4.3,0.1C5.6,3.8,5.6,3.9,5.2,4"/>
		<path class="st0" d="M5.2,2.2C4.3,2.3,2.7,2.3,0.9,2.3H0c1.2,0.3,2.4,0.5,3.6,0.5c1.2,0,2.4-0.2,3.6-0.7C5.7,1.2,1.8,1.2,0,1.9
			c0.3,0,0.6,0,0.9,0c1.8,0,3.5,0.1,4.3,0.1C5.6,2.1,5.6,2.2,5.2,2.2"/>
		<path class="st0" d="M4.2,0.5c-0.9,0-2.1,0.1-3.3,0.1H0C1.2,0.9,2.4,1.1,3.6,1c1.1,0,2.2-0.2,3.3-0.6H4.2z"/>
		<path class="st0" d="M0.9,5.5c0.7,0,1.4,0,2,0h4C4.6,4.8,2.2,4.8,0,5.5C0.3,5.5,0.6,5.5,0.9,5.5"/>
	</g>
</g>
<g id="Layer_2_2_">
	<g id="Layer_1-2_2_">
		<path class="st0" d="M82.8,3.2c0.2,0,0.6,0,0.8,0c1.8,0,3.5-0.1,4.4-0.1c0.4,0,0.4-0.1,0-0.1c-0.9-0.1-2.5-0.1-4.4-0.1h-0.9
			C84.6,2.1,88.5,2.1,90,3c-1.1,0.4-2.3,0.7-3.6,0.7C85.2,3.7,83.9,3.6,82.8,3.2"/>
		<path class="st0" d="M90,1.3c-1.1,0.5-2.3,0.7-3.6,0.7c-1.2,0-2.5-0.1-3.6-0.5c0.2,0,0.6,0,0.8,0c1.8,0,3.5-0.1,4.3-0.2
			c0.4,0,0.4-0.1,0-0.1C87.1,1.1,85.5,1,83.6,1c-0.3,0-0.6,0-0.9,0C84.6,0.4,88.5,0.4,90,1.3"/>
		<path class="st0" d="M82.8,5c0.2,0,0.6,0,0.8,0c1.8,0,3.5-0.1,4.4-0.1c0.4,0,0.4-0.1,0-0.1c-0.9-0.1-2.5-0.2-4.4-0.2
			c-0.3,0-0.6,0-0.9,0c1.8-0.7,5.8-0.7,7.2,0.2c-1.1,0.5-2.3,0.7-3.6,0.7C85.2,5.5,83.9,5.4,82.8,5"/>
		<path class="st0" d="M91.9,4c0.9,0.1,2.5,0.1,4.3,0.1h0.9c-1.2,0.3-2.4,0.5-3.6,0.4c-1.2,0-2.4-0.2-3.6-0.7
			C91.3,3,95.3,3,97.1,3.7c-0.3,0-0.6,0-0.9,0c-1.8,0-3.5,0.1-4.3,0.1C91.5,3.8,91.5,3.9,91.9,4"/>
		<path class="st0" d="M91.9,2.2c0.9,0.1,2.5,0.1,4.3,0.1h0.9c-1.2,0.3-2.4,0.5-3.6,0.5c-1.2,0-2.4-0.2-3.6-0.7
			c1.5-0.9,5.4-0.9,7.2-0.2c-0.3,0-0.6,0-0.9,0c-1.8,0-3.5,0.1-4.3,0.1C91.5,2.1,91.5,2.2,91.9,2.2"/>
		<path class="st0" d="M92.8,0.5c0.9,0,2.1,0.1,3.3,0.1h0.9c-1.2,0.3-2.4,0.5-3.6,0.5c-1.1,0-2.2-0.2-3.3-0.6H92.8z"/>
		<path class="st0" d="M96.2,5.5c-0.7,0-1.4,0-2,0h-4c2.2-0.7,4.6-0.7,6.9,0C96.8,5.5,96.5,5.5,96.2,5.5"/>
	</g>
</g>
<g id="Layer_2_3_">
	<g id="Layer_1-2_3_">
		<path class="st0" d="M97.1,3.2c0.2,0,0.6,0,0.8,0c1.8,0,3.5-0.1,4.4-0.1c0.4,0,0.4-0.1,0-0.1c-0.9-0.1-2.5-0.1-4.4-0.1h-0.9
			c1.8-0.7,5.8-0.7,7.2,0.2c-1.1,0.4-2.3,0.7-3.6,0.7C99.5,3.7,98.3,3.6,97.1,3.2"/>
		<path class="st0" d="M104.3,1.3c-1.1,0.5-2.3,0.7-3.6,0.7c-1.2,0-2.5-0.1-3.6-0.5c0.2,0,0.6,0,0.8,0c1.8,0,3.5-0.1,4.3-0.2
			c0.4,0,0.4-0.1,0-0.1C101.4,1.1,99.8,1,97.9,1c-0.3,0-0.6,0-0.9,0C98.9,0.4,102.8,0.4,104.3,1.3"/>
		<path class="st0" d="M97.1,5c0.2,0,0.6,0,0.8,0c1.8,0,3.5-0.1,4.4-0.1c0.4,0,0.4-0.1,0-0.1c-0.9-0.1-2.5-0.2-4.4-0.2
			c-0.3,0-0.6,0-0.9,0c1.8-0.7,5.8-0.7,7.2,0.2c-1.1,0.5-2.3,0.7-3.6,0.7C99.5,5.5,98.3,5.4,97.1,5"/>
		<path class="st0" d="M106.2,4c0.9,0.1,2.5,0.1,4.3,0.1h0.9c-1.2,0.3-2.4,0.5-3.6,0.4c-1.2,0-2.4-0.2-3.6-0.7
			c1.5-0.9,5.4-0.9,7.2-0.2c-0.3,0-0.6,0-0.9,0c-1.8,0-3.5,0.1-4.3,0.1C105.8,3.8,105.8,3.9,106.2,4"/>
		<path class="st0" d="M106.2,2.2c0.9,0.1,2.5,0.1,4.3,0.1h0.9c-1.2,0.3-2.4,0.5-3.6,0.5c-1.2,0-2.4-0.2-3.6-0.7
			c1.5-0.9,5.4-0.9,7.2-0.2c-0.3,0-0.6,0-0.9,0c-1.8,0-3.5,0.1-4.3,0.1C105.8,2.1,105.8,2.2,106.2,2.2"/>
		<path class="st0" d="M107.1,0.5c0.9,0,2.1,0.1,3.3,0.1h0.9c-1.2,0.3-2.4,0.5-3.6,0.5c-1.1,0-2.2-0.2-3.3-0.6H107.1z"/>
		<path class="st0" d="M110.5,5.5c-0.7,0-1.4,0-2,0h-4c2.2-0.7,4.6-0.7,6.9,0C111.1,5.5,110.8,5.5,110.5,5.5"/>
	</g>
</g>
<g id="Layer_2_4_">
	<g id="Layer_1-2_4_">
		<path class="st0" d="M111.4,3.2c0.2,0,0.6,0,0.8,0c1.8,0,3.5-0.1,4.4-0.1c0.4,0,0.4-0.1,0-0.1c-0.9-0.1-2.5-0.1-4.4-0.1h-0.9
			c1.8-0.7,5.8-0.7,7.2,0.2c-1.1,0.4-2.3,0.7-3.6,0.7C113.8,3.7,112.6,3.6,111.4,3.2"/>
		<path class="st0" d="M118.6,1.3c-1.1,0.5-2.3,0.7-3.6,0.7c-1.2,0-2.5-0.1-3.6-0.5c0.2,0,0.6,0,0.8,0c1.8,0,3.5-0.1,4.3-0.2
			c0.4,0,0.4-0.1,0-0.1c-0.9-0.1-2.5-0.2-4.3-0.2c-0.3,0-0.6,0-0.9,0C113.2,0.4,117.1,0.4,118.6,1.3"/>
		<path class="st0" d="M111.4,5c0.2,0,0.6,0,0.8,0c1.8,0,3.5-0.1,4.4-0.1c0.4,0,0.4-0.1,0-0.1c-0.9-0.1-2.5-0.2-4.4-0.2
			c-0.3,0-0.6,0-0.9,0c1.8-0.7,5.8-0.7,7.2,0.2c-1.1,0.5-2.3,0.7-3.6,0.7C113.8,5.5,112.6,5.4,111.4,5"/>
		<path class="st0" d="M120.5,4c0.9,0.1,2.5,0.1,4.3,0.1h0.9c-1.2,0.3-2.4,0.5-3.6,0.4c-1.2,0-2.4-0.2-3.6-0.7
			c1.5-0.9,5.4-0.9,7.2-0.2c-0.3,0-0.6,0-0.9,0c-1.8,0-3.5,0.1-4.3,0.1C120.1,3.8,120.1,3.9,120.5,4"/>
		<path class="st0" d="M120.5,2.2c0.9,0.1,2.5,0.1,4.3,0.1h0.9c-1.2,0.3-2.4,0.5-3.6,0.5c-1.2,0-2.4-0.2-3.6-0.7
			c1.5-0.9,5.4-0.9,7.2-0.2c-0.3,0-0.6,0-0.9,0c-1.8,0-3.5,0.1-4.3,0.1C120.1,2.1,120.1,2.2,120.5,2.2"/>
		<path class="st0" d="M121.4,0.5c0.9,0,2.1,0.1,3.3,0.1h0.9c-1.2,0.3-2.4,0.5-3.6,0.5c-1.1,0-2.2-0.2-3.3-0.6H121.4z"/>
		<path class="st0" d="M124.8,5.5c-0.7,0-1.4,0-2,0h-4c2.2-0.7,4.6-0.7,6.9,0C125.4,5.5,125.1,5.5,124.8,5.5"/>
	</g>
</g>
<g id="Layer_2_5_">
	<g id="Layer_1-2_5_">
		<path class="st0" d="M125.7,3.2c0.2,0,0.6,0,0.8,0c1.8,0,3.5-0.1,4.4-0.1c0.4,0,0.4-0.1,0-0.1c-0.9-0.1-2.5-0.1-4.4-0.1h-0.9
			c1.8-0.7,5.8-0.7,7.2,0.2c-1.1,0.4-2.3,0.7-3.6,0.7C128.1,3.7,126.9,3.6,125.7,3.2"/>
		<path class="st0" d="M132.9,1.3c-1.1,0.5-2.3,0.7-3.6,0.7c-1.2,0-2.5-0.1-3.6-0.5c0.2,0,0.6,0,0.8,0c1.8,0,3.5-0.1,4.3-0.2
			c0.4,0,0.4-0.1,0-0.1C130,1.1,128.4,1,126.5,1c-0.3,0-0.6,0-0.9,0C127.5,0.4,131.4,0.4,132.9,1.3"/>
		<path class="st0" d="M125.7,5c0.2,0,0.6,0,0.8,0c1.8,0,3.5-0.1,4.4-0.1c0.4,0,0.4-0.1,0-0.1c-0.9-0.1-2.5-0.2-4.4-0.2
			c-0.3,0-0.6,0-0.9,0c1.8-0.7,5.8-0.7,7.2,0.2c-1.1,0.5-2.3,0.7-3.6,0.7C128.1,5.5,126.9,5.4,125.7,5"/>
		<path class="st0" d="M134.8,4c0.9,0.1,2.5,0.1,4.3,0.1h0.9c-1.2,0.3-2.4,0.5-3.6,0.4c-1.2,0-2.4-0.2-3.6-0.7
			c1.5-0.9,5.4-0.9,7.2-0.2c-0.3,0-0.6,0-0.9,0c-1.8,0-3.5,0.1-4.3,0.1C134.4,3.8,134.4,3.9,134.8,4"/>
		<path class="st0" d="M134.8,2.2c0.9,0.1,2.5,0.1,4.3,0.1h0.9c-1.2,0.3-2.4,0.5-3.6,0.5c-1.2,0-2.4-0.2-3.6-0.7
			c1.5-0.9,5.4-0.9,7.2-0.2c-0.3,0-0.6,0-0.9,0c-1.8,0-3.5,0.1-4.3,0.1C134.4,2.1,134.4,2.2,134.8,2.2"/>
		<path class="st0" d="M135.7,0.5c0.9,0,2.1,0.1,3.3,0.1h0.9c-1.2,0.3-2.4,0.5-3.6,0.5c-1.1,0-2.2-0.2-3.3-0.6H135.7z"/>
		<path class="st0" d="M139.1,5.5c-0.7,0-1.4,0-2,0h-4c2.2-0.7,4.6-0.7,6.9,0C139.7,5.5,139.4,5.5,139.1,5.5"/>
	</g>
</g>
<g id="Layer_2">
	<g id="Layer_1-2">
		<path class="st0" d="M76.9,2.8c1.7,0,3.2,0.1,4,0.2c0.4,0,0.4,0.1,0,0.1c-0.8,0.1-2.3,0.2-4,0.2h-0.1l1.2,0.5
			c1.7,0.2,3.8,0,4.7-0.7c-1-0.5-2.2-0.8-3.3-0.7c-0.5,0-0.9,0-1.4,0.1L76.9,2.8"/>
		<path class="st0" d="M82.8,5c-1-0.5-2.2-0.8-3.3-0.8h-0.1c1,0.4,1.9,0.7,2.9,1C82.5,5.2,82.6,5.1,82.8,5"/>
		<path class="st0" d="M79.4,1.8c1.2,0.1,2.3-0.2,3.3-0.8c-0.1-0.1-0.3-0.2-0.5-0.2C81.3,1.1,80.4,1.4,79.4,1.8"/>
		<path class="st0" d="M62.8,2.8c-1.4,0-2.5,0.1-3.2,0.2c-0.4,0-0.4,0.1,0,0.1c0.7,0.1,1.9,0.1,3.3,0.2l-1.1,0.4l-0.2,0.1
			c-1.3,0.1-2.6-0.1-3.8-0.8c1-0.5,2.2-0.8,3.3-0.7h0.5l0.2,0.1L62.8,2.8"/>
		<path class="st0" d="M57.7,5c0.8-0.4,1.6-0.6,2.5-0.7l-1.8,0.6l-0.6,0.2L57.7,5"/>
		<path class="st0" d="M60.2,1.8c-0.9,0-1.8-0.3-2.5-0.7l0.2-0.1l0.6,0.2L60.2,1.8"/>
		<path class="st0" d="M82.8,6c-2.1-0.6-5-1.7-7.3-2.7c-0.9,0.4-1.8,0.8-2.4,1l-0.7,0.3c-0.5,0.2-0.9,0.4-1.4,0.6
			C72.5,5.8,74.1,6,75.7,6C79,6,82.8,6,82.8,6 M82.8,0c-3.5,1.1-6.9,2.4-10.3,4C69.3,5.4,69,6.1,57.2,6c0,0,2.4-0.8,4.9-1.7
			c1.8-0.7,6.6-2.7,7.6-3.1c1.9-0.8,4-1.2,6-1.1C79,0,82.8,0,82.8,0 M69.3,0.7C67.4,0.2,64.5,0,57.2,0c0,0,2.4,0.8,4.9,1.7l2.4,1
			l4.3-1.8l0.4-0.2L69.3,0.7z"/>
	</g>
</g>
</svg>
