<?xml version="1.0" encoding="utf-8"?>
<!-- Generator: Adobe Illustrator 22.0.0, SVG Export Plug-In . SVG Version: 6.00 Build 0)  -->
<svg version="1.1" id="Слой_1" xmlns="http://www.w3.org/2000/svg" xmlns:xlink="http://www.w3.org/1999/xlink" x="0px" y="0px"
	 preserveAspectRatio="none" viewBox="0 0 12 12" style="enable-background:new 0 0 12 12;" xml:space="preserve">
<style type="text/css">
	.st0{fill:#7C6742;}
</style>
<title>19_l_u</title>
<g id="Layer_2">
	<g id="Layer_1-2">
		<path class="st0" d="M1.9,2.5L1.8,4.3L1.3,5V4.5c0-1.5,0.2-3,0.7-4.5c0.4,1.1,0.6,2.2,0.7,3.3L2.1,4L2,2.5C2,2,1.9,2,1.9,2.5"/>
		<path class="st0" d="M3.6,2L3.6,2L3.1,2.7C3.1,1.8,3.3,0.9,3.7,0c0.2,0.4,0.4,0.9,0.5,1.3L3.8,1.9C3.8,1.6,3.7,1.6,3.6,2"/>
		<path class="st0" d="M0.3,6.1V0.3C0.8,2,0.9,3.7,0.9,5.4L0.7,5.7C0.6,5.9,0.5,6,0.3,6.1"/>
		<path class="st0" d="M12,8.8c-1.3,0.5-2.7,0.8-4.1,0.8l0.6-0.6c0.3,0,0.7,0,0.9,0c0.5,0,0.5-0.1,0-0.1c-0.2,0-0.4,0-0.7,0l0.5-0.5
			c0.9,0.1,1.8,0.3,2.7,0.6"/>
		<path class="st0" d="M6.6,10.9c0.9,0,1.7-0.1,2.2-0.1c0.6,0,0.6-0.1,0-0.1c-0.6,0-1.2-0.1-2-0.1L7.4,10c1.5,0,3.1,0.3,4.6,0.7
			c-2,0.6-4,0.9-6,0.8l0.3-0.3L6.6,10.9z"/>
		<path class="st0" d="M2.2,9.4c0.6-0.8,1.2-1.5,1.6-1.9c1.4-1.5,2-1.7,2-7.4C5.2,0.9,4.7,1.7,4.1,2.4c-0.7,0.9-2.6,3.2-3,3.7
			C0.4,6.9,0,7.9,0,9c0,0.8,0,1.6,0,2.3C0.8,10.7,1.5,10.1,2.2,9.4 M0.1,12c1.6-1.3,3.1-2.7,4.5-4.2C6,6.3,6.1,5.6,11.4,5.5
			c0,0-1.1,0.8-2.1,1.9c-0.8,0.8-2.9,2.9-3.3,3.3c-0.7,0.8-1.7,1.2-2.7,1.2C1.8,12,0.1,12,0.1,12"/>
	</g>
</g>
</svg>
