<?xml version="1.0" encoding="utf-8"?>
<!-- Generator: Adobe Illustrator 22.0.0, SVG Export Plug-In . SVG Version: 6.00 Build 0)  -->
<svg version="1.1" id="Слой_1" xmlns="http://www.w3.org/2000/svg" xmlns:xlink="http://www.w3.org/1999/xlink" x="0px" y="0px"
	 preserveAspectRatio="none" viewBox="0 0 12 12" style="enable-background:new 0 0 12 12;" xml:space="preserve">
<style type="text/css">
	.st0{fill:#7C6742;}
</style>
<title>19_l_u</title>
<g id="Layer_2">
	<g id="Layer_1-2">
		<path class="st0" d="M9.4,1.9L7.6,1.8L7,1.3h0.5c1.5,0,3,0.2,4.5,0.7c-1.1,0.3-2.3,0.6-3.4,0.6L7.9,2.2l1.5-0.1
			C9.9,2.1,9.9,1.9,9.4,1.9"/>
		<path class="st0" d="M10.1,3.7L10.1,3.7L9.3,3.1c0.9,0.1,1.9,0.3,2.7,0.6c-0.4,0.2-0.9,0.4-1.3,0.5L10,3.8
			C10.3,3.9,10.3,3.8,10.1,3.7"/>
		<path class="st0" d="M5.8,0.4h5.8C10,0.8,8.3,1,6.6,0.9L6.4,0.7C6.1,0.7,5.9,0.6,5.8,0.4"/>
		<path class="st0" d="M3.1,12.1C2.6,10.8,2.3,9.4,2.3,8L3,8.6c0,0.3,0,0.7,0,0.9c0,0.6,0.1,0.6,0.1,0.1c0-0.2,0-0.4,0-0.7l0.5,0.5
			c-0.1,0.9-0.3,1.8-0.6,2.7"/>
		<path class="st0" d="M1,6.7c0,0.9,0.1,1.7,0.1,2.2c0,0.6,0.1,0.6,0.1,0c0-0.6,0.1-1.2,0.1-2l0.6,0.6c-0.1,1.5-0.3,3.1-0.7,4.6
			c-0.6-2-0.9-4-0.8-6l0.3,0.3L1,6.7z"/>
		<path class="st0" d="M2.5,2.3c0.8,0.6,1.5,1.2,2,1.6c1.5,1.4,1.7,2,7.4,2c-0.8-0.5-1.6-1.1-2.4-1.7c-0.9-0.7-3.2-2.6-3.7-3
			C5,0.4,4,0.1,2.9,0.1c-0.8,0-1.6,0-2.3,0C1.2,0.9,1.9,1.6,2.5,2.3 M-0.1,0.2c1.3,1.6,2.7,3.1,4.2,4.5c1.6,1.4,2.2,1.5,2.3,6.8
			c0,0-0.8-1.1-1.9-2.1C3.7,8.6,1.6,6.5,1.2,6.1C0.4,5.4,0,4.4,0,3.4C-0.1,1.9-0.1,0.2-0.1,0.2"/>
	</g>
</g>
</svg>
