<?xml version="1.0" encoding="utf-8"?>
<!-- Generator: Adobe Illustrator 22.0.0, SVG Export Plug-In . SVG Version: 6.00 Build 0)  -->
<svg version="1.1" id="Слой_1" xmlns="http://www.w3.org/2000/svg" xmlns:xlink="http://www.w3.org/1999/xlink" x="0px" y="0px"
	 preserveAspectRatio="none" viewBox="0 0 12 12" style="enable-background:new 0 0 12 12;" xml:space="preserve">
<style type="text/css">
	.st0{fill:#7C6742;}
</style>
<title>19_l_u</title>
<g id="Layer_2">
	<g id="Layer_1-2">
		<path class="st0" d="M2.5,10.1l1.8,0.1L5,10.7H4.5c-1.5,0-3-0.2-4.5-0.7c1.1-0.4,2.2-0.6,3.3-0.7L4,10L2.5,10
			C2,10,2,10.1,2.5,10.1"/>
		<path class="st0" d="M2,8.4L2,8.4l0.8,0.6C1.8,8.9,0.9,8.7,0,8.3c0.4-0.2,0.9-0.4,1.3-0.5l0.6,0.4C1.6,8.3,1.6,8.3,2,8.4"/>
		<path class="st0" d="M6.1,11.7H0.3c1.7-0.4,3.4-0.6,5.1-0.5l0.2,0.2C5.9,11.5,6,11.6,6.1,11.7"/>
		<path class="st0" d="M8.8,0c0.5,1.3,0.8,2.7,0.8,4.1L8.9,3.5c0-0.3,0-0.7,0-0.9c0-0.5-0.1-0.5-0.1,0c0,0.2,0,0.4,0,0.7L8.3,2.7
			C8.4,1.8,8.6,0.9,8.9,0"/>
		<path class="st0" d="M10.9,5.4c0-0.9-0.1-1.7-0.1-2.2c0-0.6-0.1-0.6-0.1,0c0,0.6-0.1,1.2-0.1,2L10,4.6c0-1.5,0.3-3.1,0.7-4.6
			c0.6,2,0.9,4,0.8,6l-0.3-0.3L10.9,5.4z"/>
		<path class="st0" d="M9.4,9.8C8.6,9.2,7.9,8.6,7.5,8.2c-1.5-1.4-1.7-2-7.4-2c0.8,0.5,1.6,1.1,2.4,1.7c0.9,0.7,3.2,2.6,3.7,3
			C6.9,11.6,7.9,12,9,12c0.8,0,1.6,0,2.3,0C10.7,11.2,10.1,10.5,9.4,9.8 M12,11.9c-1.3-1.6-2.7-3.1-4.2-4.5C6.3,6,5.6,5.9,5.5,0.7
			c0,0,0.8,1.1,1.9,2.1c0.8,0.8,2.9,2.9,3.3,3.3c0.8,0.7,1.2,1.7,1.2,2.7C12,10.3,12,11.9,12,11.9"/>
	</g>
</g>
</svg>
