<?xml version="1.0" encoding="utf-8"?>
<!-- Generator: Adobe Illustrator 22.0.0, SVG Export Plug-In . SVG Version: 6.00 Build 0)  -->
<svg version="1.1" id="Слой_1" xmlns="http://www.w3.org/2000/svg" xmlns:xlink="http://www.w3.org/1999/xlink" x="0px" y="0px"
	 preserveAspectRatio="none" viewBox="0 0 12 12" style="enable-background:new 0 0 12 12;" xml:space="preserve">
<style type="text/css">
	.st0{fill:#7C6742;}
</style>
<title>19_l_u</title>
<g id="Layer_2">
	<g id="Layer_1-2">
		<path class="st0" d="M10.1,9.5l0.1-1.8l0.5-0.6v0.5c0,1.5-0.2,3-0.7,4.5C9.7,11,9.4,9.8,9.4,8.7L9.9,8L10,9.5
			C10,10,10.1,10,10.1,9.5"/>
		<path class="st0" d="M8.4,10.1L8.4,10.1l0.6-0.8c-0.1,0.9-0.3,1.9-0.6,2.7c-0.2-0.4-0.4-0.9-0.5-1.3l0.4-0.6
			C8.2,10.4,8.3,10.4,8.4,10.1"/>
		<path class="st0" d="M11.7,5.9v5.8c-0.4-1.7-0.6-3.4-0.5-5.1l0.2-0.2C11.4,6.2,11.5,6,11.7,5.9"/>
		<path class="st0" d="M0,3.2c1.3-0.5,2.7-0.8,4.1-0.8L3.5,3.1c-0.3,0-0.7,0-0.9,0C2,3.1,2,3.2,2.5,3.2c0.2,0,0.4,0,0.7,0L2.7,3.7
			C1.8,3.6,0.9,3.4,0,3.1"/>
		<path class="st0" d="M5.4,1.1c-0.9,0-1.7,0.1-2.2,0.1c-0.6,0-0.6,0.1,0,0.1s1.2,0.1,2,0.1L4.6,2C3.1,1.9,1.5,1.7,0,1.3
			c2-0.6,4-0.9,6-0.8L5.7,0.8L5.4,1.1z"/>
		<path class="st0" d="M9.8,2.6C9.2,3.4,8.6,4.1,8.2,4.6c-1.4,1.5-2,1.7-2,7.4c0.5-0.8,1.1-1.6,1.7-2.4c0.7-0.9,2.6-3.2,3-3.7
			C11.6,5.1,12,4.1,12,3c0-0.8,0-1.6,0-2.3C11.2,1.3,10.5,2,9.8,2.6 M11.9,0c-1.6,1.3-3.1,2.7-4.5,4.2C6,5.8,5.9,6.4,0.6,6.5
			c0,0,1.1-0.8,2.1-1.9c0.8-0.8,2.9-2.9,3.3-3.3c0.7-0.8,1.7-1.2,2.7-1.2C10.2,0,11.9,0,11.9,0"/>
	</g>
</g>
</svg>
