<svg xmlns="http://www.w3.org/2000/svg" preserveAspectRatio="none" viewBox="0 0 35 12.6"><defs><style>.cls-1{fill:#613c25;}</style></defs><title>14_d</title><g id="Layer_2" data-name="Layer 2"><g id="Layer_1-2" data-name="Layer 1"><path class="cls-1" d="M35,2.83V0H0V2.83H1.17A3.8,3.8,0,0,0,.8,5.3c.48,3-1.41,5.21,2.1,6.73,5.87,2.54,10.73-4.17,12.38-4.19L16,9.56l-.33.64-1.15-.6C14,9.88,13,10.23,13,11s.73,1.58,1.15,1.58c2.25,0,2.22-.64,3.09-2C17,10,17,9.28,16.6,8.48c-.18-.39-1.1-1.53-1.1-1.64,0-.45,1.74-2.87,1.74-3.36a3.42,3.42,0,0,0-.06-.65h.56c-.06,1.49,1.43,2.82,1.43,3.49v.2c0,1.14-2.35,2.17-1,5.13a3.73,3.73,0,0,0,2.12.79c.73,0,1.16-.79,1.16-1.58,0-2.11-1.83-1-2.7-.79,0-1,.72-2.37,1.35-2.37,0,0,4.44,3,5,3.39,2.08,1.41,3.68,1.15,6.21,1.15,2.55-1.75,2.9-1.39,2.89-5.72,0-2.09.11-3.06-.15-3.69ZM21.1,6.72c.29-1.3,3.6-2.57,5-2.57h1c.16.63.59,1.38,1.34,1.38.39,0,1.15-1.86,1.6-2.7h2.52a7.77,7.77,0,0,1,1,1.81L31.9,6.32c1,2,1.21.41,1.08,3.09l-.88,1-1.36-.16c-1.25-.82-1.68-2.92-2.12-2.92-.68,0-1.21,1-1.36,1.53l-.76.25a17.26,17.26,0,0,0-2.88-1C22.8,7.77,21.62,6.86,21.1,6.72Zm.47-3.89h1.65a9.48,9.48,0,0,0-.86.64c-.76.66-1.51,1.77-2.61,1.87-.24-.92-.78-.65-.78-1.78V3c.89.24.49.59,1.16.59A2.12,2.12,0,0,0,21.57,2.83Zm-10.45,0h2.32a1.86,1.86,0,0,0,.74.94l1.71-.68s.19.37.19.39a2.64,2.64,0,0,1-1.54,2.17A10.82,10.82,0,0,0,11.12,2.83Zm-7.7,0h.7c1.43.94,1.93,3,2.13,3,1.33,0,1-1.77,1.92-1.77,1.2,0,4.39,1.88,5.6,2.17C13.73,7.89,9.94,9,8.17,9H7.6c-.14-.59-.5-1.38-1.16-1.38-1.07,0,0,1.83-2,2.87-1.57.8-2.46-.44-3-1.49.2-.42.2-1,.46-1.32.45-.54.89,0,.89-.85v-.2c0-.93-1.15-.65-1.15-1.77C1.62,3.59,2.42,3.12,3.42,2.83Z"/></g></g></svg>