<svg xmlns="http://www.w3.org/2000/svg" preserveAspectRatio="none" viewBox="0 0 29.08 31.34"><defs><style>.cls-1{fill:#613c25;}</style></defs><title>14_l_d</title><g id="Layer_2" data-name="Layer 2"><g id="Layer_1-2" data-name="Layer 1"><path class="cls-1" d="M29.08,18.35H13.52V0H10.69V1.39a.8.8,0,0,0-.34-.07h-.2c-1.69,0-3,1.39-3.94,1.39H6c-.47,0-1.34-1.39-3.75-1.39-.48,0-1.77.8-1.77,1.39V3.3c0,.8.21,1.78,1,1.78a7.36,7.36,0,0,0,1.35-.21L3.25,3.7c-1.71-3.25,2-.49,2-.2S1.28,8.77.76,10.71C0,13.57.67,18.15,3.84,18.09l3.75.07h1a2.9,2.9,0,0,0,2.12-1v2.51A1.26,1.26,0,0,0,10,19.5a8.08,8.08,0,0,0-4,1.58c-1.51-.36-2.21-1.38-3.86-1.38a2.34,2.34,0,0,0-2.12,2v.2a1.59,1.59,0,0,0,1.35,1.58h.39c.44,0,1.24-.65,1.19-1.19L2.7,20.69c.32.17,1.74.85,1.74,1.18C4.44,22.8.19,26,.19,30v.39c0,.46.14.59.58.59h.58c2.7,0,5.92-3.67,7.52-4.53l.19-.11,1.17,2.16-.21.15-1.73-.43c-.33.23-1,.64-1,1.18v.4C7.33,31.6,11,31.42,11,29v-.59c0-1.79-1.15-2.07-1.15-3.35a16.05,16.05,0,0,0,1.3-3.85h.68a1.93,1.93,0,0,0-.06.49c0,1.83,1.55,3,1.55,3.36,0,.71-1.55,2.21-1.55,3.74,0,.89,1.32,2.57,1.93,2.57a1.76,1.76,0,0,0,1.74-1.58v-.59c0-.64-.68-.73-1.18-1l-1.52.64c0-.79.81-2.36,1.35-2.36.23,0,4,3.12,5.28,3.67a14.44,14.44,0,0,0,3.32,1c1.29.11,2.08-.32,3.55-.32.74-1.14,1.85-1,1.82-3.16l.3-4.54v-.19a2.69,2.69,0,0,0-.72-1.68h1.45ZM4,27.42,3.49,27c.42-.83,1.17-3.92,2.1-3.92s.56,1.56,2.32,2C7.6,26.21,5.34,27.09,4,27.42Zm5.61-5.35c0,1.09-.38,1.32-.57,2.17l-.65-.11L6.7,21.91l2.56-.83c.23.36.38.35.38.79Zm-1.07-4.7C7.1,17.37,6.9,16,6.4,16c-.67,0-1.14,1.19-1.77,1.19a3.18,3.18,0,0,1-2.13-1L2.26,15c.42-.79.35-1.09,1.24-1.53.5-.24,1.92-.5,1.92-1,0-1.31-1.78-1.17-1.78-1.79,0-.92.59-1.1.59-2.57.45-.67,1.14-3.37,2-3.37,1.41,0,2.56,5,2.56,6.34-.63.05-1.58.34-1.58,1v.59c1.29.3,3.16,1.08,3.16,2.58C10.35,15.94,9.34,17.37,8.57,17.37ZM7.39,3.7c0-.88,1.38-1.4,2.17-1.59.11.16.39.49.39.6,0,.72-.59.46-.59,1.19a1.5,1.5,0,0,0,1.33,1.57V8.3C9.41,6.14,7.39,4.05,7.39,3.7ZM25.07,29.17c-1.63,0-2-3-2.51-3-1,0-1,1.58-1.54,1.58-1.6,0-5.85-1.37-6-3,.79-.29,1.1-.85,2-1.11a9.64,9.64,0,0,0,2.45-.81l1.37-.27,1.7,1.79c.72-1.09.79-3.15,2.51-3.15,2.71,0,2.95,3.4,1.16,3.55v1c1.12.31.76.74,1.16,1.58A2.86,2.86,0,0,1,25.07,29.17Zm-8.85-6.69a23.37,23.37,0,0,1-2.14,1.76,2.37,2.37,0,0,1-1.35-2.37c1.34-.29.71.39,1.54.39h.39c.44,0,.89-.66,1.07-1.08h2.4A8.94,8.94,0,0,0,16.22,22.48Z"/></g></g></svg>