<svg xmlns="http://www.w3.org/2000/svg" preserveAspectRatio="none" viewBox="0 0 29.08 30.55"><defs><style>.cls-1{fill:#613c25;}</style></defs><title>14_l_u</title><g id="Layer_2" data-name="Layer 2"><g id="Layer_1-2" data-name="Layer 1"><path class="cls-1" d="M28,9.73a2.44,2.44,0,0,0,.39-1.25v-.2l-.3-4.53c0-2.14-1.08-2-1.82-3.16C24.76.59,24,.15,22.68.26a14.48,14.48,0,0,0-3.32,1c-1.25.55-5,3.67-5.28,3.67-.54,0-1.33-1.57-1.35-2.37l1.52.65c.5-.32,1.18-.4,1.18-1V1.58A1.75,1.75,0,0,0,13.69,0c-.61,0-1.93,1.68-1.93,2.56,0,1.54,1.55,3,1.55,3.75,0,.33-1.55,1.52-1.55,3.35,0,0,0,0,0,.07h-.69A18.94,18.94,0,0,0,9.84,6.31C9.84,5,11,4.75,11,3V2.37C11-.08,7.33-.27,7.33,1.58V2c0,.55.63,1,1,1.19L10,2.73l.21.14L9.06,5l-.19-.11C7.27,4.06,4.05.39,1.35.39H.77C.33.39.19.53.19,1v.39c0,3.94,4.25,7.16,4.25,8.09,0,.33-1.42,1-1.74,1.18l.23-1.57c0-.54-.75-1.19-1.19-1.19H1.35A1.59,1.59,0,0,0,0,9.47v.19a2.34,2.34,0,0,0,2.12,2c1.65,0,2.35-1,3.86-1.38a8.07,8.07,0,0,0,4,1.57,1.26,1.26,0,0,0,.66-.17v2a4.33,4.33,0,0,0-.71-.57c-1.16-.73-1.53-.48-3-.34a25.54,25.54,0,0,1-3.16-.21c-2,0-3.35,2.65-3.35,4.76v1c0,1.76,1.19,3.69,1.84,4.88,1,1.78,2.21,2.74,2.89,4a3,3,0,0,1-2,1.19c-.76,0-.07.06-.59-.2.24-.91.59-.5.59-1.18v-.4c0-.85-1-1.1-1.58-1.39C1,25.81.47,25.78.47,27a2.31,2.31,0,0,0,2.44,2.47c2.21-.38,1.84-.82,3.47-1.68.78.52,1.94,1.78,3.16,1.78h.59a1.56,1.56,0,0,0,.56-.12v1.06h2.83v-18H29.08V9.73ZM5.59,8.28c-.93,0-1.68-3.09-2.1-3.91L4,3.92c1.31.33,3.57,1.21,3.88,2.39C6.15,6.73,6.47,8.28,5.59,8.28ZM9.64,9.47c0,.44-.15.43-.38.79L6.7,9.43,8.42,7.21l.65-.11c.19.85.57,1.08.57,2.17ZM21,3.55c.5,0,.57,1.58,1.54,1.58.55,0,.88-3,2.51-3A2.86,2.86,0,0,1,27.39,4c-.4.84,0,1.27-1.16,1.57v1c1.44.12,1.57,2.36.13,3.22H24.07c-.79-.63-1-2-1.51-2.83l-1.7,1.8-1.37-.27A9.64,9.64,0,0,0,17,7.62c-.9-.26-1.21-.82-2-1.11C15.17,4.92,19.42,3.55,21,3.55ZM14.66,9.07h-.39c-.83,0-.2.69-1.54.4A2.36,2.36,0,0,1,14.08,7.1a21.83,21.83,0,0,1,2.14,1.76,6.94,6.94,0,0,0,1.17.87h-1.9C15.27,9.39,15,9.07,14.66,9.07ZM6.38,26.24c-1.27,0-2.64-4.46-2.75-5.94l.19-.6c.88,0,1.38-.36,1.38-1.19C5.2,17.93,2,18,2,15.34a2.44,2.44,0,0,1,2-1.78h.39c1.52,0,1,1.19,2,1.19s.48-1,1.38-1h.79a1.7,1.7,0,0,1,1.58,1.39v.59c0,2-2.19,1.62-3,2.77L9,20.1C8.47,21.1,7.31,26.24,6.38,26.24Zm4.14-.59C9.84,26,9.34,26,9.34,27v.19a2,2,0,0,0,.4,1.19l-.1.21-2.47-1.2c.07-.81,2.09-2.6,3.52-5.39v3.65Z"/></g></g></svg>