<svg xmlns="http://www.w3.org/2000/svg" preserveAspectRatio="none" viewBox="0 0 13.05 36"><defs><style>.cls-1{fill:#613c25;}</style></defs><title>14_l</title><g id="Layer_2" data-name="Layer 2"><g id="Layer_1-2" data-name="Layer 1"><path class="cls-1" d="M10.22,0V1L10.06.85c-1.16,0-1.2-.29-2.13.24-.28.15-1.75,1.15-1.82,1.15C5.18,2.24,3.78.66,2,.66a2.23,2.23,0,0,0-2,2c0,.9.41,2,1.18,2A1.8,1.8,0,0,0,2.76,3.43c-.11-.47-.67-1.78,0-1.78,1.1,0,1.42.88,2.17,1.38C3.08,5.82.3,8.1,0,12.37c-.1,1.47.68,4,2,4.74a3.39,3.39,0,0,0,2.72.34c1.81-.3,1.83.25,3.2.25a3.29,3.29,0,0,0,2.33-1v2.32a2.88,2.88,0,0,0-2.6-1c-2,.15-2.81,0-4.93,0C2,18.09.52,20.28.24,21.19a8.37,8.37,0,0,0,.19,4.52c.57,2.47,4.23,6.78,4.23,7,0,.52-.87,1.19-1.18,1.19-.75,0-.38-.13-1.19-.2l.59-1.19C2.61,32,2.52,31,1.7,31H1.11c-.64,0-1,.72-1,1.39v.2c0,1.53.61,1.51,1.19,2.33l1.38.25C3,35,5.41,33.55,5.45,33.55h.39c.57,0,2,1.59,3.95,1.59a1,1,0,0,0,.43-.15v1h2.83V0ZM9.64,15.91c-.56.31-1,.8-1.75.8a1.5,1.5,0,0,1-1.58-1.19l-.1-.18L3.55,16.71c-.66-.35-1.58-1-1.58-2a11.05,11.05,0,0,1,.2-1.39c.88-.21,2.74-.87,2.74-1.95L3.16,10.17c.31-.66.58-2.17.92-3C4.31,6.58,5.3,4.3,5.33,4.22c2.05,0,2.75,3.83,3.23,5.64L6.72,11.55l.18.6c1,.22,3.13.89,3,2Zm.54-8.44c-.41-.61-1.12-2-1.45-2.31A15.17,15.17,0,0,1,6.9,3.23c0-.63,1-1.38,1.78-1.38h.59c0,1.09-.39,1-.39,1.58a1.67,1.67,0,0,0,1.34,1.38V7.55A.59.59,0,0,0,10.18,7.47Zm-6.84,18,1.52-1.08v-.79c-1.73-.4-2.26-.44-3.18-1.78l.22-1.78c.47-.32.88-1,1.38-1h.59c1.52,0,1,1.19,2,1.19.15,0,1.57-1,2-1.19,1.84.89,1,.06,2,2-.62,2.64-3.16,2-3.16,2.77s1.06,1.22,1.78,1.39v.59c0,.25-.68,2.58-.83,3.14-.41,1.6-1.26,1.57-1.34,2.61C4.5,31.53,3.28,27.38,3.34,25.51ZM10,31.17a1.85,1.85,0,0,0-1,1.39A9.68,9.68,0,0,0,9.2,34c-1,0-2.17-.53-2.17-1.39,0-.36,2.36-3.05,3.19-4.61v3.27Z"/></g></g></svg>