<svg xmlns="http://www.w3.org/2000/svg" preserveAspectRatio="none" viewBox="0 0 13.05 36"><defs><style>.cls-1{fill:#613c25;}</style></defs><title>14_r</title><g id="Layer_2" data-name="Layer 2"><g id="Layer_1-2" data-name="Layer 1"><path class="cls-1" d="M0,0V36H2.83V35a1,1,0,0,0,.44.15c2,0,3.37-1.59,3.94-1.59H7.6c.05,0,2.41,1.4,2.77,1.59l1.37-.25c.58-.82,1.19-.8,1.19-2.33v-.2c0-.67-.35-1.39-1-1.39h-.59c-.81,0-.9,1-1.18,1.59l.59,1.19c-.81.07-.44.2-1.18.2-.31,0-1.19-.67-1.19-1.19,0-.27,3.67-4.58,4.23-7a8.37,8.37,0,0,0,.19-4.52c-.28-.91-1.76-3.1-2.44-3.1-2.12,0-2.92.15-4.94,0a2.88,2.88,0,0,0-2.6,1V16.73a3.29,3.29,0,0,0,2.33,1c1.37,0,1.39-.55,3.21-.25a3.37,3.37,0,0,0,2.71-.34c1.28-.78,2.06-3.27,2-4.74C12.75,8.1,10,5.82,8.12,3c.75-.5,1.07-1.38,2.17-1.38.67,0,.11,1.31,0,1.78a1.81,1.81,0,0,0,1.58,1.19c.77,0,1.18-1.08,1.18-2a2.22,2.22,0,0,0-2-2c-1.81,0-3.2,1.58-4.14,1.58-.07,0-1.54-1-1.81-1.15C4.19.56,4.15.85,3,.85L2.83,1V0ZM3.15,14.14c-.12-1.1,2-1.77,3-2l.19-.6L4.5,9.86C5,8.05,5.67,4.27,7.73,4.22c0,.08,1,2.36,1.24,2.92.35.86.61,2.37.93,3L8.14,11.39c0,1.08,1.87,1.74,2.74,1.95a11.05,11.05,0,0,1,.2,1.39c0,1-.92,1.63-1.58,2L6.84,15.34l-.1.18a1.5,1.5,0,0,1-1.58,1.19c-.74,0-1.19-.49-1.75-.8ZM2.83,7.55V4.81A1.67,1.67,0,0,0,4.18,3.43c0-.57-.37-.49-.4-1.58h.59c.77,0,1.78.75,1.78,1.38A15.17,15.17,0,0,1,4.32,5.16c-.33.32-1,1.7-1.45,2.31A.59.59,0,0,0,2.83,7.55Zm4,24c-.09-1-.93-1-1.35-2.61-.14-.56-.82-2.89-.82-3.14v-.59c.71-.17,1.77-.57,1.77-1.39s-2.54-.13-3.15-2.77c1-1.93.13-1.1,2-2,.4.22,1.82,1.19,2,1.19,1,0,.45-1.19,2-1.19h.59c.51,0,.91.68,1.39,1l.22,1.78c-.92,1.34-1.46,1.38-3.18,1.78v.79l1.51,1.08C9.77,27.38,8.55,31.53,6.82,31.57Zm-4-.35V28C3.66,29.51,6,32.2,6,32.56c0,.86-1.22,1.37-2.17,1.39a11.38,11.38,0,0,0,.19-1.39,1.85,1.85,0,0,0-1-1.39Z"/></g></g></svg>