<svg xmlns="http://www.w3.org/2000/svg" preserveAspectRatio="none" viewBox="0 0 30.17 30.21"><defs><style>.cls-1{fill:#613c25;}</style></defs><title>14_r_u</title><g id="Layer_2" data-name="Layer 2"><g id="Layer_1-2" data-name="Layer 1"><path class="cls-1" d="M14.1,1c.23-.34.63-1,1.16-1h.39A2.2,2.2,0,0,1,18,2.22c0,.78-.23,1.3-1,1.38L17.19,2a4.26,4.26,0,0,0-1.74.59C14.31,2.62,14.39,1.69,14.1,1Zm5.36,10.27v1.86a2.66,2.66,0,0,1,1.94-.94c1.44,0,1.71.34,3.16.21s1.85-.39,3,.34a4.68,4.68,0,0,1,2,4.67c-.6,5.3-4.74,8.47-4.84,9.64l2.47,1.2.1-.21a2,2,0,0,1-.4-1.19v-.2c0-1.08.5-1,1.19-1.38.73.17,1.58.53,1.58,1.38v.2a2.26,2.26,0,0,1-2,2.38h-.59c-1.22,0-2.38-1.26-3.15-1.78-1.64.86-1.26,1.3-3.48,1.68a1.88,1.88,0,0,1-1-.13v1.17H16.63v-18H0V9.39H2.05a4.87,4.87,0,0,1-.29-2.24V4.79c0-1.69-.48-2.16.78-3.35A4.36,4.36,0,0,1,5.81.05H7.74a11.41,11.41,0,0,1,3.48,1.38,33.68,33.68,0,0,1,2.88,2c0,.52-.28.58-.6.81L13,3.77l-.08.28-4.11-1L7.52,4.91l-.19-.09-.56-.43C6.77,3.17,6,1.63,5,1.63H4.46A1.86,1.86,0,0,0,2.53,3.41V3.6c0,1.28,1.16,1.55,1.16,2,0,.79-1,.78-1,1.57v.6a1.93,1.93,0,0,0,1,1.64H5.62c.7-.65,1-2.08,1.35-2.83l.73,0,.81,1.76c2.54,0,5.51-1.15,6.3-2.92l-.51-1,.38-.19c.29,0,.85.42,1.16.59l.81-.39-.23,1.18C16.77,6.26,18,8.09,18,8.93a3.67,3.67,0,0,1,0,.46h1.16A18.94,18.94,0,0,1,20.33,6c0-1.28-1.15-1.56-1.15-3.35V2c0-2.45,3.66-2.64,3.66-.79v.39c0,.55-.63,1-1,1.19l-1.73-.43-.21.14L21.11,4.7l.19-.11C22.9,3.72,26.12.05,28.82.05h.58c.44,0,.58.14.58.6V1C30,5,25.73,8.2,25.73,9.13c0,.33,1.42,1,1.74,1.18l-.23-1.57c0-.54.75-1.19,1.19-1.19h.39a1.59,1.59,0,0,1,1.35,1.58v.19a2.33,2.33,0,0,1-2.12,2c-1.65,0-2.35-1-3.86-1.38a8.07,8.07,0,0,1-4.05,1.57A1.24,1.24,0,0,1,19.46,11.31ZM22.26,6c1.76.42,1.45,2,2.32,2S26.26,4.85,26.68,4l-.54-.45C24.83,3.91,22.57,4.79,22.26,6ZM20.53,9.13c0,.44.15.43.38.79l2.56-.83L21.75,6.87l-.64-.11c-.2.85-.58,1.08-.58,2.17Zm-8.59.26h2.77A1.38,1.38,0,0,0,14.88,9l1-.28,1.11.7h.22V8.93c0-.7-1-2.17-1.35-2.17C15.24,6.76,13.8,8.12,11.94,9.39ZM19.63,15c0,2.7,3.15,2.59,3.15,3.17,0,.83-.5,1.17-1.38,1.19l-.19.6c.12,1.48,1.49,5.94,2.76,5.94.92,0,2.08-5.15,2.56-6.14l-1.78-1.59c.77-1.15,3-.76,3-2.77v-.6a1.69,1.69,0,0,0-1.58-1.38h-.78c-.91,0-.4,1-1.38,1s-.45-1.19-2-1.19H21.6A2.43,2.43,0,0,0,19.63,15Zm-.17,7.09V25c.59.26,1.35.54,1.35,1.29v.39c0,.69-.35.28-.59,1.19.52.26-.16.2.59.2a2.94,2.94,0,0,0,2-1.19c-.68-1.29-1.92-2.25-2.89-4C19.77,22.63,19.62,22.37,19.46,22.09Z"/></g></g></svg>