<svg xmlns="http://www.w3.org/2000/svg" preserveAspectRatio="none" viewBox="0 0 29.17 31"><defs><style>.cls-1{fill:#613c25;}</style></defs><title>14_r_d</title><g id="Layer_2" data-name="Layer 2"><g id="Layer_1-2" data-name="Layer 1"><path class="cls-1" d="M17,28.77a2.2,2.2,0,0,1-2.31,2.17h-.39c-.53,0-.93-.64-1.16-1,.29-.65.21-1.58,1.35-1.58a4.26,4.26,0,0,0,1.74.59L16,27.39C16.73,27.48,17,28,17,28.77Zm9.28-6.51.23-1.57c-.32.17-1.74.85-1.74,1.18C24.73,22.8,29,26,29,30v.39c0,.46-.14.59-.58.59h-.58c-2.7,0-5.92-3.67-7.52-4.53l-.19-.11-1.17,2.16.21.15,1.73-.43c.33.23,1,.64,1,1.18v.4c0,1.84-3.66,1.66-3.66-.79v-.59c0-1.79,1.15-2.07,1.15-3.35A16.05,16.05,0,0,1,18,21.18H16.84a3.41,3.41,0,0,1,.12.89c0,.83-1.19,2.67-1.54,3.35l.23,1.18-.81-.39c-.31.17-.87.59-1.16.59a3.39,3.39,0,0,1-.38-.2l.51-1c-.79-1.78-3.76-2.92-6.3-2.92L6.7,24.41l-.73,0c-.46-1-.83-3.15-2.12-3.15a2.06,2.06,0,0,0-2.13,2v.59c0,.8,1,.78,1,1.58,0,.43-1.16.7-1.16,2v.2a1.87,1.87,0,0,0,1.93,1.78H4c1,0,1.73-1.54,1.73-2.77l.56-.42.19-.09,1.26,1.84,4.11-1,.08.27.53-.45c.32.24.6.29.6.82a33.68,33.68,0,0,1-2.88,2,11.39,11.39,0,0,1-3.48,1.37H4.81a4.33,4.33,0,0,1-3.27-1.39C.28,28.37.76,27.9.76,26.21V23.84a3.66,3.66,0,0,1,.58-2.66H0V18.35H15.63V0h2.83V1.42a1.19,1.19,0,0,1,.38-.1c2.41,0,3.28,1.39,3.75,1.39h.2c1,0,2.26-1.39,3.94-1.39h.2c.9,0,1.58,1.31,1.58,2.38v.2c0,.72-.54,1.58-1.18,1.58A1.5,1.5,0,0,1,26,3.9c0-.73.59-.47.59-1.19,0-.11-.29-.44-.4-.6C25.35,2.3,24,2.82,24,3.7c0,.57,5.37,5.76,4.14,8.32,1.39,1,.11,6.14-2.95,6.14h-1l-3.75-.07a2.67,2.67,0,0,1-2-.76v2.36a1.24,1.24,0,0,1,.68-.19,8.08,8.08,0,0,1,4.05,1.58c1.51-.36,2.21-1.38,3.86-1.38a2.33,2.33,0,0,1,2.12,2v.2a1.59,1.59,0,0,1-1.35,1.58h-.39C27,23.45,26.19,22.8,26.24,22.26ZM20.82,8.06c0,1.47-.59,1.65-.59,2.57,0,.62,1.77.48,1.77,1.79,0,.54-1.42.8-1.91,1-.9.44-.83.74-1.25,1.53l.25,1.18a3.16,3.16,0,0,0,2.12,1c.63,0,1.1-1.19,1.78-1.19.5,0,.69,1.39,2.17,1.39.76,0,1.77-1.43,1.77-2.18,0-1.5-1.87-2.28-3.15-2.58V12c0-.65.94-.94,1.57-1,0-1.33-1.15-6.34-2.56-6.34C22,4.69,21.26,7.39,20.82,8.06Zm-2.36-3V8.49c1.34-2.14,3.34-4.69,3.34-5s-3.68-3-2,.2L19.4,4.87C19,4.92,18.81,5,18.46,5.06Zm-5,16.12H10.27c2.19,1.36,3.9,3.06,4.57,3.06.38,0,1.35-1.47,1.35-2.17v-.59l-1.33.82-1-.28C13.67,21.28,13.51,21.66,13.49,21.18Zm7.26,2.95,1.72-2.22-2.56-.83c-.23.36-.38.35-.38.79v.2c0,1.09.38,1.32.58,2.17Zm2.83-1.08c-.87,0-.56,1.56-2.32,2,.31,1.18,2.57,2.06,3.88,2.39l.54-.45C25.26,26.14,24.51,23.05,23.58,23.05Z"/></g></g></svg>