<svg xmlns="http://www.w3.org/2000/svg" preserveAspectRatio="none" viewBox="0 0 35 12.6"><defs><style>.cls-1{fill:#613c25;}</style></defs><title>14_u</title><g id="Layer_2" data-name="Layer 2"><g id="Layer_1-2" data-name="Layer 1"><path class="cls-1" d="M34.06,9.77c.26-.63.15-1.6.15-3.69,0-4.33-.34-4-2.89-5.72-2.53,0-4.13-.26-6.21,1.15-.54.37-4.95,3.39-5,3.39-.63,0-1.33-1.37-1.35-2.37.87.21,2.7,1.32,2.7-.79,0-.78-.43-1.57-1.16-1.57A3.81,3.81,0,0,0,18.2,1c-1.38,3,1,4,1,5.13v.2c0,.67-1.49,2-1.43,3.49h-.56a3.34,3.34,0,0,0,.06-.65c0-.49-1.74-2.91-1.74-3.35,0-.11.92-1.26,1.1-1.64.37-.81.35-1.5.64-2.11-.87-1.33-.84-2-3.09-2C13.73.05,13,1,13,1.62S14,2.73,14.54,3l1.15-.6L16,3l-.74,1.73C13.63,4.74,8.77-2,2.9.57-.61,2.09,1.28,4.29.8,7.3a3.79,3.79,0,0,0,.37,2.47H0V12.6H35V9.77ZM23.62,4.53a17.26,17.26,0,0,0,2.88-1l.76.24c.15.57.68,1.53,1.36,1.53.44,0,.87-2.1,2.12-2.91l1.36-.16.88,1c.13,2.68-.06,1.1-1.08,3.08L33.54,8a7.77,7.77,0,0,1-1,1.81H30c-.45-.84-1.21-2.7-1.6-2.7-.75,0-1.18.76-1.34,1.38h-1c-1.41,0-4.72-1.27-5-2.56C21.62,5.74,22.8,4.83,23.62,4.53ZM20.13,9c-.67,0-.27.35-1.16.59V9c0-1.13.54-.86.78-1.77,1.1.09,1.85,1.21,2.61,1.86a7.91,7.91,0,0,0,.86.64H21.57A2.12,2.12,0,0,0,20.13,9ZM14.54,7a2.66,2.66,0,0,1,1.54,2.17s-.19.39-.19.39l-1.71-.67a1.88,1.88,0,0,0-.74.93H11.12A10.69,10.69,0,0,0,14.54,7ZM1.62,7.74c0-1.13,1.15-.85,1.15-1.78V5.77c0-.86-.44-.32-.89-.86-.26-.3-.26-.89-.46-1.31.55-1.05,1.44-2.3,3-1.5,2,1,.94,2.88,2,2.88.66,0,1-.8,1.16-1.38h.57c1.77,0,5.56,1.11,5.6,2.76-1.21.29-4.4,2.17-5.6,2.17-.93,0-.59-1.78-1.92-1.78-.2,0-.7,2.09-2.13,3h-.7C2.42,9.48,1.62,9,1.62,7.74Z"/></g></g></svg>