<?xml version="1.0" encoding="utf-8"?>
<!-- Generator: Adobe Illustrator 22.0.0, SVG Export Plug-In . SVG Version: 6.00 Build 0)  -->
<svg version="1.1" id="Слой_1" xmlns="http://www.w3.org/2000/svg" xmlns:xlink="http://www.w3.org/1999/xlink" x="0px" y="0px"
	 preserveAspectRatio="none" viewBox="0 0 12 12" style="enable-background:new 0 0 12 12;" xml:space="preserve">
<style type="text/css">
	.st0{fill:#613C25;}
</style>
<title>16_u</title>
<g id="Layer_2">
	<g id="Layer_1-2">
		<path class="st0" d="M0.7,3.2c0.7,1.6,3.4,4.2,3.4,6.3v0.2c-0.1,0.8-0.7,1.4-1.5,1.3C2,10.9,1.4,10.4,1.4,9.7
			c0-0.4,0.3-0.5,0.6-0.6l0.1,1l0.6,0.1C3,10,3.4,9.9,3.4,9.4c0-2.2-2.9-1.5-2.9,0.4c0,1.2,0.9,2.1,2,2.2c1.6,0,2.8-0.7,2.8-2.4V9.1
			c0-2-1.3-3.2-1.3-5.2V3.3c0-0.1,0-0.1,0-0.2h4.1c0.3,1.2-0.7,3.5-0.9,4.3C6.7,9.4,7.1,11.9,9,11.9h0.6c1,0.1,1.9-0.7,2-1.8
			c0-0.1,0-0.1,0-0.2V9.7c0-0.7-0.6-1.5-1.1-1.5h-0.3C9.6,8.1,8.8,8.4,8.8,9s0.1,0.9,0.6,0.9h0.3c0.6,0,0.2-0.3,0.7-0.8
			c0.4,0.4,0.4,1,0.1,1.5C10.2,10.9,9.9,11,9.6,11H9.3C8.6,11,8,10.4,8,9.6V9.5C8,8,9.9,5.6,10.6,4.5c0.3-0.4,0.5-0.9,0.7-1.4H12V0
			L0,0v3.2H0.7z"/>
	</g>
</g>
</svg>
