<?xml version="1.0" encoding="utf-8"?>
<!-- Generator: Adobe Illustrator 22.0.0, SVG Export Plug-In . SVG Version: 6.00 Build 0)  -->
<svg version="1.1" id="Слой_1" xmlns="http://www.w3.org/2000/svg" xmlns:xlink="http://www.w3.org/1999/xlink" x="0px" y="0px"
	 preserveAspectRatio="none" viewBox="0 0 22 22" style="enable-background:new 0 0 22 22;" xml:space="preserve">
<style type="text/css">
	.st0{fill:#623C25;}
</style>
<title>16_r_u</title>
<g id="Layer_2">
	<g id="Layer_1-2">
		<path class="st0" d="M2.5,20.5v0.1c0,0.8-0.4,0.9-1,1.2c-0.6-0.1-1.5-0.4-1.5-1.1c0-0.7,0.4-1.4,1-1.4h0.4c0.6,0,1,0.4,1.1,1
			C2.5,20.4,2.5,20.4,2.5,20.5z M1.3,16.3c-0.9,0-1,0.5-1.2,1c0.3,0.6,0.3,1.3,1.2,1.3c0.7,0,1.2-0.5,1.2-1.2c0,0,0,0,0,0
			C2.5,16.7,2,16.2,1.3,16.3C1.4,16.3,1.3,16.3,1.3,16.3z M2.2,4.6h0.4c1.7,0,2.8-1.2,4.6-1.2h0.5c0.1,0,0.1,0,0.2,0.1v3.7
			C7,7.5,4.8,6.6,4.1,6.4C2.4,6,0.2,6.3,0.2,8.1v0.5c-0.1,1,0.6,1.8,1.6,1.9c0.1,0,0.1,0,0.2,0h0.3c0.6,0,1.4-0.6,1.4-1V9.3
			c0-0.6-0.2-1.4-0.8-1.4S1.9,8,1.9,8.5v0.3c0,0.6,0.3,0.2,0.7,0.7C2.2,9.8,1.7,9.8,1.3,9.5C1.1,9.3,0.9,9,1,8.7V8.4
			c0-0.7,0.6-1.2,1.2-1.2h0.1c1.3,0,3.4,1.8,4.4,2.4c0.4,0.3,0.8,0.5,1.3,0.6v1.1c-1.5,0.8-3.8,3.3-5.5,3.2c-0.8,0-1.4-0.6-1.5-1.4
			c0-0.7,0.5-1.3,1.2-1.3c0,0,0.1,0,0.1,0c0.3,0,0.6,0.2,0.7,0.6H2.5c-0.5,0-0.5,0.4-0.6,0.8l0.8,0.6c0.5-0.3,1-0.5,1-1.2
			c0.1-0.7-0.4-1.4-1.1-1.5c-0.1,0-0.2,0-0.4,0c-1-0.1-1.9,0.7-2,1.7c0,0.1,0,0.2,0,0.3v0.4c0.1,1.1,1,1.9,2,2.1h1
			c1.5,0,3.7-1.5,4.8-1.8v0.3h0.1c-0.5,1.2-1.8,2.7-1.8,4.6V19c-0.1,1.4,0.9,2.6,2.2,2.7c0,0,0.1,0,0.1,0h0.3c1.1-0.1,1.9-1,2-2.1
			c0-0.6-0.5-1.5-1.1-1.5H9.4c-0.6-0.1-1.1,0.4-1.1,0.9c0,0,0,0.1,0,0.1c0,0.4,0.4,0.5,0.8,0.6c0.4,0,0.1-0.5,0.8-0.5v0.5
			c0,0.5-0.4,1.1-0.8,1H8.6c-0.8,0-1.4-0.8-1.4-1.6c0,0,0,0,0-0.1c0-1.7,2-3.5,3-5h0.9c0.6,1.5,3.2,3.8,3.2,5.6V20
			c-0.1,0.7-0.7,1.3-1.4,1.2c-0.6-0.1-1.1-0.6-1.2-1.2c0-0.3,0.3-0.5,0.6-0.5l0.1,0.9l0.6,0.1c0.3-0.1,0.7-0.2,0.7-0.7
			c0-2-2.8-1.3-2.8,0.4c0.1,1.1,0.9,1.9,2,1.9c1.5,0,2.6-0.7,2.6-2.2v-0.4c0-1.7-1.2-2.8-1.2-4.6v-0.5c0,0,0-0.1,0-0.1h3.9
			c0.3,1-0.7,3.1-0.8,3.9c-0.4,1.7-0.1,3.9,1.7,3.9h0.5c1,0.1,1.8-0.6,1.9-1.6c0-0.1,0-0.1,0-0.2V20c0-0.6-0.6-1.4-1.1-1.4h-0.3
			c-0.6,0-1.4,0.2-1.4,0.8s0.1,0.8,0.5,0.8h0.3c0.6,0,0.2-0.3,0.7-0.7c0.7,0.5,0.3,1.6-0.7,1.6h-0.3c-0.7,0-1.2-0.5-1.2-1.2v-0.1
			c0-1.3,1.8-3.4,2.5-4.4c0.3-0.4,0.5-0.8,0.6-1.2h0.8v-2.8H10.7V0H8v0.3C6.5,0.9,4.2,3.6,2.4,3.5H2.1C1.4,3.5,0.8,3,0.8,2.3
			S1.4,1,2.1,1c0,0,0,0,0,0c0.3,0,0.5,0.3,0.5,0.5L1.8,1.6L1.7,2.2c0.1,0.3,0.2,0.7,0.7,0.7c2,0,1.3-2.7-0.4-2.7
			C0.9,0.2,0.1,1,0.1,2C0.1,3.5,0.7,4.6,2.2,4.6z M4.4,19.4c-0.7,0-1.2,0.5-1.2,1.2c0,0.7,0.5,1.2,1.2,1.3c0.1,0,0.1,0,0.2,0h0.1
			c0.4,0,1-0.7,1-1.2v-0.1C5.6,19.9,5.1,19.4,4.4,19.4C4.5,19.4,4.4,19.4,4.4,19.4z M4.6,16.3H4.3c-0.6,0-1,0.4-1.1,1
			c0,0,0,0.1,0,0.1v0.2c0,1.6,2.4,1.5,2.4-0.1C5.6,16.8,5.2,16.3,4.6,16.3L4.6,16.3z"/>
	</g>
</g>
</svg>
