<?xml version="1.0" encoding="utf-8"?>
<!-- Generator: Adobe Illustrator 22.0.0, SVG Export Plug-In . SVG Version: 6.00 Build 0)  -->
<svg version="1.1" id="Слой_1" xmlns="http://www.w3.org/2000/svg" xmlns:xlink="http://www.w3.org/1999/xlink" x="0px" y="0px"
	 preserveAspectRatio="none" viewBox="0 0 12 12" style="enable-background:new 0 0 12 12;" xml:space="preserve">
<style type="text/css">
	.st0{fill:#613C25;}
</style>
<title>16_u</title>
<g id="Layer_2">
	<g id="Layer_1-2">
		<path class="st0" d="M8.8,0.7C7.2,1.4,4.7,4.1,2.6,4.1H2.3C1.5,4.1,0.9,3.4,1,2.6C1.1,2,1.6,1.4,2.3,1.4c0.4,0,0.5,0.3,0.6,0.6
			L2,2.1L1.9,2.7C2,3,2.1,3.4,2.6,3.4c2.2,0,1.5-2.9-0.4-2.9C1,0.6,0.1,1.4,0,2.5c0,1.6,0.7,2.8,2.4,2.8h0.5c2,0,3.2-1.3,5.2-1.3
			h0.6c0.1,0,0.1,0,0.2,0v4.1C7.7,8.4,5.3,7.4,4.5,7.2C2.6,6.7,0.1,7.1,0.1,9v0.6c-0.1,1,0.7,1.9,1.8,2c0.1,0,0.1,0,0.2,0h0.3
			c0.7,0,1.5-0.6,1.5-1.1v-0.3c0-0.7-0.3-1.5-0.9-1.5S2.1,8.9,2.1,9.3v0.3c0,0.6,0.3,0.2,0.8,0.7c-0.4,0.4-1,0.4-1.5,0.1
			C1.1,10.2,1,9.9,1,9.6V9.3C1,8.6,1.6,8,2.4,8h0.2C4,8,6.4,9.9,7.5,10.6c0.4,0.3,0.9,0.5,1.4,0.7V12H12V0H8.8V0.7z"/>
	</g>
</g>
</svg>
