<?xml version="1.0" encoding="utf-8"?>
<!-- Generator: Adobe Illustrator 22.0.0, SVG Export Plug-In . SVG Version: 6.00 Build 0)  -->
<svg version="1.1" id="Слой_1" xmlns="http://www.w3.org/2000/svg" xmlns:xlink="http://www.w3.org/1999/xlink" x="0px" y="0px"
	 preserveAspectRatio="none" viewBox="0 0 22 22" style="enable-background:new 0 0 22 22;" xml:space="preserve">
<style type="text/css">
	.st0{fill:#623C25;}
</style>
<title>16_r_u</title>
<g id="Layer_2">
	<g id="Layer_1-2">
		<path class="st0" d="M1.6,2.5H1.5c-0.8,0-0.9-0.4-1.2-1c0.1-0.6,0.4-1.5,1.1-1.5s1.4,0.4,1.4,1v0.4c0,0.6-0.4,1-1,1.1
			C1.7,2.5,1.6,2.5,1.6,2.5z M5.8,1.3c0-0.9-0.5-1-1-1.2C4.2,0.4,3.5,0.4,3.5,1.3C3.5,2,4,2.5,4.7,2.5c0,0,0,0,0,0
			C5.4,2.5,5.9,2,5.8,1.3C5.8,1.3,5.8,1.3,5.8,1.3z M17.5,2.2v0.4c0,1.7,1.2,2.8,1.2,4.6v0.5c0,0.1,0,0.1-0.1,0.2h-3.7
			c-0.3-1,0.6-3.2,0.8-3.9c0.4-1.7,0.1-3.9-1.7-3.9h-0.5c-1-0.1-1.8,0.6-1.9,1.6c0,0.1,0,0.1,0,0.2v0.3c0,0.6,0.6,1.4,1,1.4h0.3
			c0.6,0,1.4-0.2,1.4-0.8s-0.1-0.8-0.5-0.8h-0.3c-0.6,0-0.2,0.3-0.7,0.7c-0.4-0.3-0.4-0.9-0.1-1.3c0.2-0.2,0.5-0.3,0.8-0.3h0.3
			c0.7,0,1.2,0.6,1.2,1.2v0.1c0,1.3-1.8,3.4-2.4,4.4c-0.3,0.4-0.5,0.8-0.6,1.3h-1.1C9.9,6.5,7.4,4.2,7.4,2.5c0-0.8,0.6-1.4,1.4-1.5
			c0.7,0,1.3,0.5,1.3,1.2c0,0,0,0.1,0,0.1c0,0.3-0.2,0.6-0.6,0.7V2.5C9.6,2,9.2,2,8.8,1.9L8.2,2.7c0.3,0.5,0.5,1,1.2,1
			c0.7,0.1,1.4-0.4,1.5-1.1c0-0.1,0-0.2,0-0.4c0.1-1-0.7-1.9-1.7-2c-0.1,0-0.2,0-0.3,0H8.6c-1.1,0.1-1.9,1-2.1,2v1
			c0,1.5,1.5,3.7,1.8,4.8H7.9v0.1C6.7,7.6,5.2,6.3,3.3,6.3H3.1C1.7,6.2,0.5,7.2,0.3,8.5c0,0,0,0.1,0,0.1v0.3c0.1,1.1,1,1.9,2.1,2
			c0.6,0,1.5-0.5,1.5-1.1V9.3C4,8.8,3.6,8.3,3,8.2c0,0-0.1,0-0.1,0C2.5,8.2,2.3,8.6,2.3,9c0,0.4,0.5,0.1,0.5,0.8H2.4
			c-0.5,0-1.1-0.4-1-0.8V8.6c0-0.8,0.8-1.4,1.6-1.4c0,0,0,0,0.1,0c1.7,0,3.5,2,5,3v0.9c-1.5,0.6-3.8,3.2-5.6,3.2H2.1
			c-0.7-0.1-1.3-0.7-1.2-1.4c0.1-0.6,0.6-1.1,1.2-1.2c0.3,0,0.5,0.3,0.5,0.6l-0.9,0.1L1.7,13c0.1,0.3,0.2,0.7,0.7,0.7
			c2,0,1.3-2.8-0.4-2.8c-1.1,0.1-1.9,0.9-1.9,2c0,1.5,0.7,2.6,2.2,2.6h0.4c1.7,0,2.8-1.2,4.6-1.2h0.5c0,0,0.1,0,0.1,0v3.9
			c-1,0.3-3.1-0.7-3.9-0.8c-1.7-0.4-3.9-0.1-3.9,1.7v0.5c-0.1,1,0.6,1.8,1.6,1.9c0.1,0,0.1,0,0.2,0h0.2c0.6,0,1.4-0.6,1.4-1.1v-0.3
			c0-0.6-0.2-1.4-0.8-1.4S1.9,19,1.9,19.4v0.3c0,0.6,0.3,0.2,0.7,0.7c-0.5,0.7-1.6,0.3-1.6-0.7v-0.3c0-0.7,0.5-1.2,1.2-1.2h0.1
			c1.3,0,3.4,1.8,4.4,2.5c0.4,0.3,0.8,0.5,1.2,0.6V22h2.8V10.7h11.3V8h-0.3c-0.6-1.5-3.2-3.8-3.2-5.6V2.1c0-0.7,0.6-1.3,1.3-1.3
			s1.3,0.6,1.3,1.3c0,0,0,0,0,0c0,0.3-0.3,0.5-0.5,0.5l-0.1-0.8l-0.6-0.1c-0.3,0.1-0.7,0.2-0.7,0.7c0,2,2.7,1.3,2.7-0.4
			c0-1-0.9-1.8-1.9-1.9C18.6,0.1,17.5,0.7,17.5,2.2z M2.7,4.4c0-0.7-0.5-1.2-1.2-1.2c-0.7,0-1.2,0.5-1.3,1.2c0,0.1,0,0.1,0,0.2v0.1
			c0,0.4,0.7,1,1.2,1h0.1C2.2,5.6,2.7,5.1,2.7,4.4C2.7,4.5,2.7,4.4,2.7,4.4z M5.8,4.6V4.3c0-0.6-0.4-1-1-1.1c0,0-0.1,0-0.1,0H4.6
			C3,3.2,3.1,5.6,4.7,5.6C5.3,5.6,5.8,5.2,5.8,4.6L5.8,4.6z"/>
	</g>
</g>
</svg>
