<?xml version="1.0" encoding="utf-8"?>
<!-- Generator: Adobe Illustrator 22.0.0, SVG Export Plug-In . SVG Version: 6.00 Build 0)  -->
<svg version="1.1" id="Слой_1" xmlns="http://www.w3.org/2000/svg" xmlns:xlink="http://www.w3.org/1999/xlink" x="0px" y="0px"
	 preserveAspectRatio="none" viewBox="0 0 12 12" style="enable-background:new 0 0 12 12;" xml:space="preserve">
<style type="text/css">
	.st0{fill:#613C25;}
</style>
<title>16_u</title>
<g id="Layer_2">
	<g id="Layer_1-2">
		<path class="st0" d="M3.2,11.3c1.6-0.7,4.2-3.4,6.3-3.4h0.2c0.8,0.1,1.4,0.7,1.3,1.5c-0.1,0.7-0.6,1.2-1.3,1.3
			c-0.4,0-0.5-0.3-0.6-0.6l1-0.1l0.1-0.6C10,9,9.9,8.6,9.4,8.6c-2.2,0-1.5,2.9,0.4,2.9c1.2,0,2.1-0.9,2.2-2c0-1.6-0.7-2.8-2.4-2.8
			H9.1C7.2,6.7,5.9,8,3.9,8H3.3C3.3,8,3.2,8,3.2,8V3.9c1.2-0.3,3.5,0.7,4.3,0.9c1.9,0.5,4.4,0.1,4.4-1.8V2.4c0.1-1-0.7-1.9-1.8-2
			c-0.1,0-0.1,0-0.2,0H9.7C9,0.3,8.1,0.9,8.1,1.5v0.3c0,0.7,0.3,1.5,0.9,1.5s0.9-0.1,0.9-0.6V2.4c0-0.6-0.3-0.2-0.8-0.7
			c0.4-0.4,1-0.4,1.5-0.1C10.9,1.8,11,2.1,11,2.4v0.3C11,3.4,10.4,4,9.6,4H9.5C8,4,5.6,2.1,4.5,1.4C4.1,1.1,3.6,0.9,3.2,0.7V0L0,0
			l0,12h3.2V11.3z"/>
	</g>
</g>
</svg>
