<?xml version="1.0" encoding="utf-8"?>
<!-- Generator: Adobe Illustrator 22.0.0, SVG Export Plug-In . SVG Version: 6.00 Build 0)  -->
<svg version="1.1" id="Слой_1" xmlns="http://www.w3.org/2000/svg" xmlns:xlink="http://www.w3.org/1999/xlink" x="0px" y="0px"
	 preserveAspectRatio="none" viewBox="0 0 22 22" style="enable-background:new 0 0 22 22;" xml:space="preserve">
<style type="text/css">
	.st0{fill:#623C25;}
</style>
<title>16_r_u</title>
<g id="Layer_2">
	<g id="Layer_1-2">
		<path class="st0" d="M20.5,19.6h0.1c0.8,0,0.9,0.4,1.2,1c-0.1,0.6-0.4,1.5-1.1,1.5c-0.7,0-1.4-0.4-1.4-1v-0.4c0-0.6,0.4-1,1-1.1
			C20.4,19.6,20.5,19.6,20.5,19.6z M16.3,20.8c0,0.9,0.5,1,1,1.2c0.6-0.3,1.3-0.3,1.3-1.2c0-0.7-0.5-1.2-1.2-1.2c0,0,0,0,0,0
			C16.7,19.6,16.3,20.1,16.3,20.8C16.3,20.7,16.3,20.8,16.3,20.8z M4.6,19.9v-0.4c0-1.7-1.2-2.8-1.2-4.6v-0.5c0-0.1,0-0.1,0.1-0.2
			h3.7c0.3,1-0.6,3.2-0.8,3.9c-0.4,1.7-0.1,3.9,1.7,3.9h0.5c1,0.1,1.8-0.6,1.9-1.6c0-0.1,0-0.1,0-0.2v-0.3c0-0.6-0.6-1.4-1-1.4H9.3
			c-0.6,0-1.4,0.2-1.4,0.8c0,0.5,0.1,0.8,0.5,0.8h0.3c0.6,0,0.2-0.3,0.7-0.7c0.4,0.3,0.4,0.9,0.1,1.3C9.3,21,9,21.2,8.7,21.1H8.5
			c-0.7,0-1.2-0.6-1.2-1.2v-0.1c0-1.3,1.8-3.4,2.4-4.4c0.3-0.4,0.5-0.8,0.6-1.3h1.1c0.8,1.5,3.3,3.8,3.2,5.5c0,0.8-0.6,1.4-1.4,1.5
			c-0.7,0-1.3-0.5-1.3-1.2c0,0,0-0.1,0-0.1c0-0.3,0.2-0.6,0.6-0.7v0.4c0,0.5,0.4,0.5,0.8,0.6l0.6-0.8c-0.3-0.5-0.5-1-1.2-1
			c-0.7-0.1-1.4,0.4-1.5,1.1c0,0.1,0,0.2,0,0.4c-0.1,1,0.7,1.9,1.7,2c0.1,0,0.2,0,0.3,0h0.4c1.1-0.1,1.9-1,2.1-2v-1
			c0-1.5-1.5-3.7-1.8-4.8h0.3V14c1.2,0.5,2.7,1.8,4.6,1.8H19c1.4,0.1,2.6-0.9,2.7-2.2c0,0,0-0.1,0-0.1v-0.3c-0.1-1.1-1-1.9-2.1-2
			c-0.6,0-1.5,0.5-1.5,1.1v0.4c-0.1,0.6,0.4,1.1,0.9,1.1c0,0,0.1,0,0.1,0c0.4,0,0.5-0.4,0.6-0.8c0-0.4-0.5-0.1-0.5-0.8h0.5
			c0.5,0,1.1,0.4,1,0.8v0.4c0,0.8-0.8,1.4-1.6,1.4c0,0,0,0-0.1,0c-1.7,0-3.5-2-5-3v-0.9c1.5-0.6,3.8-3.2,5.6-3.2H20
			c0.7,0.1,1.3,0.7,1.2,1.4c-0.1,0.6-0.6,1.1-1.2,1.2c-0.3,0-0.5-0.3-0.5-0.6l0.9-0.1l0.1-0.6c-0.1-0.3-0.2-0.7-0.7-0.7
			c-2,0-1.3,2.8,0.4,2.8c1.1-0.1,1.9-0.9,1.9-2c0-1.5-0.7-2.6-2.2-2.6h-0.4c-1.7,0-2.8,1.2-4.6,1.2h-0.5c0,0-0.1,0-0.1,0V3.9
			c1-0.3,3.1,0.7,3.9,0.8C19.7,5.1,21.9,4.8,22,3V2.4c0.1-1-0.6-1.8-1.6-1.9c-0.1,0-0.1,0-0.2,0H20c-0.6,0-1.4,0.6-1.4,1.1v0.3
			c0,0.6,0.2,1.4,0.8,1.4s0.8-0.1,0.8-0.5V2.4c0-0.6-0.3-0.2-0.7-0.7c0.5-0.7,1.6-0.3,1.6,0.7v0.3c0,0.7-0.5,1.2-1.2,1.2h-0.1
			c-1.3,0-3.4-1.8-4.4-2.5C15,1.2,14.6,1,14.2,0.8V0h-2.8v11.4H0.1v2.7h0.3c0.6,1.5,3.2,3.8,3.2,5.6V20c0,0.7-0.6,1.3-1.3,1.3
			S1,20.7,1,20c0,0,0,0,0,0c0-0.3,0.3-0.5,0.5-0.5l0.1,0.8l0.6,0.1c0.3-0.1,0.7-0.2,0.7-0.7c0-2-2.7-1.3-2.7,0.4C0.2,21.2,1,22,2,22
			C3.5,22,4.6,21.4,4.6,19.9z M19.4,17.7c0,0.7,0.5,1.2,1.2,1.2s1.2-0.5,1.3-1.2c0-0.1,0-0.1,0-0.2v-0.1c0-0.4-0.7-1-1.2-1h-0.1
			C19.9,16.5,19.4,17,19.4,17.7C19.4,17.6,19.4,17.7,19.4,17.7z M16.3,17.5v0.3c0,0.6,0.4,1,1,1.1c0,0,0.1,0,0.1,0h0.2
			c1.6,0,1.5-2.4-0.1-2.4C16.8,16.5,16.3,16.9,16.3,17.5L16.3,17.5z"/>
	</g>
</g>
</svg>
