<?xml version="1.0" encoding="utf-8"?>
<!-- Generator: Adobe Illustrator 22.0.0, SVG Export Plug-In . SVG Version: 6.00 Build 0)  -->
<svg version="1.1" id="Слой_1" xmlns="http://www.w3.org/2000/svg" xmlns:xlink="http://www.w3.org/1999/xlink" x="0px" y="0px"
	 preserveAspectRatio="none" viewBox="0 0 22 22" style="enable-background:new 0 0 22 22;" xml:space="preserve">
<style type="text/css">
	.st0{fill:#623C25;}
</style>
<title>16_r_u</title>
<g id="Layer_2">
	<g id="Layer_1-2">
		<path class="st0" d="M19.6,1.6V1.5c0-0.8,0.4-0.9,1-1.2C21.1,0.4,22,0.7,22,1.3s-0.4,1.4-1,1.4h-0.4c-0.6,0-1-0.4-1.1-1
			C19.6,1.7,19.6,1.6,19.6,1.6z M20.8,5.8c0.9,0,1-0.5,1.2-1c-0.3-0.6-0.3-1.3-1.2-1.3c-0.7,0-1.2,0.5-1.2,1.2c0,0,0,0,0,0
			C19.6,5.4,20.1,5.8,20.8,5.8C20.7,5.8,20.8,5.8,20.8,5.8z M19.9,17.5h-0.4c-1.7,0-2.8,1.2-4.6,1.2h-0.5c-0.1,0-0.1,0-0.2-0.1v-3.7
			c1-0.3,3.2,0.6,3.9,0.8c1.7,0.4,3.9,0.1,3.9-1.7v-0.5c0.1-1-0.6-1.8-1.6-1.9c-0.1,0-0.1,0-0.2,0h-0.3c-0.6,0-1.4,0.6-1.4,1v0.3
			c0,0.6,0.2,1.4,0.8,1.4c0.5,0,0.8-0.1,0.8-0.5v-0.3c0-0.6-0.3-0.2-0.7-0.7c0.3-0.4,0.9-0.4,1.3-0.1c0.2,0.2,0.3,0.5,0.3,0.8v0.3
			c0,0.7-0.6,1.2-1.2,1.2h-0.1c-1.3,0-3.4-1.8-4.4-2.4c-0.4-0.3-0.8-0.5-1.3-0.6v-1.1c1.5-0.8,3.8-3.3,5.5-3.2
			c0.8,0,1.4,0.6,1.5,1.4c0,0.7-0.5,1.3-1.2,1.3c0,0-0.1,0-0.1,0c-0.3,0-0.6-0.2-0.7-0.6h0.4c0.5,0,0.5-0.4,0.6-0.8l-0.8-0.6
			c-0.5,0.3-1,0.5-1,1.2c-0.1,0.7,0.4,1.4,1.1,1.5c0.1,0,0.2,0,0.4,0c1,0.1,1.9-0.7,2-1.7c0-0.1,0-0.2,0-0.3V8.6
			c-0.1-1.1-1-1.9-2-2.1h-1c-1.5,0-3.7,1.5-4.8,1.8V7.9H14c0.5-1.2,1.8-2.7,1.8-4.6V3.1c0.1-1.4-0.9-2.6-2.2-2.7c0,0-0.1,0-0.1,0
			h-0.3c-1.1,0.1-1.9,1-2,2.1c0,0.6,0.5,1.5,1.1,1.5h0.4C13.3,4,13.8,3.6,13.9,3c0,0,0-0.1,0-0.1c0-0.4-0.4-0.5-0.8-0.6
			c-0.4,0-0.1,0.5-0.8,0.5V2.4c0-0.5,0.4-1.1,0.8-1h0.4c0.8,0,1.4,0.8,1.4,1.6c0,0,0,0,0,0.1c0,1.7-2,3.5-3,5h-0.9
			c-0.6-1.5-3.2-3.8-3.2-5.6V2.1c0.1-0.7,0.7-1.3,1.4-1.2c0.6,0.1,1.1,0.6,1.2,1.2c0,0.3-0.3,0.5-0.6,0.5L9.6,1.8L9.1,1.7
			C8.8,1.8,8.4,1.9,8.4,2.4c0,2,2.8,1.3,2.8-0.4c-0.1-1.1-0.9-1.9-2-1.9C7.7,0,6.6,0.7,6.6,2.2v0.4c0,1.7,1.2,2.8,1.2,4.6v0.5
			c0,0,0,0.1,0,0.1H3.9c-0.3-1,0.7-3.1,0.8-3.9C5.1,2.4,4.8,0.1,3,0.1H2.4C1.5,0,0.6,0.7,0.5,1.7c0,0.1,0,0.1,0,0.2v0.2
			c0,0.6,0.6,1.4,1.1,1.4h0.3c0.6,0,1.4-0.2,1.4-0.8S3.1,1.9,2.7,1.9H2.4c-0.6,0-0.2,0.3-0.7,0.7C1,2,1.4,0.9,2.4,0.9h0.3
			c0.7,0,1.2,0.5,1.2,1.2v0.1c0,1.3-1.8,3.4-2.5,4.4C1.2,7.1,1,7.5,0.8,7.9H0.1v2.8h11.4V22h2.7v-0.3c1.5-0.6,3.8-3.2,5.6-3.2H20
			c0.7,0,1.3,0.6,1.3,1.3s-0.6,1.3-1.3,1.3c0,0,0,0,0,0c-0.3,0-0.5-0.3-0.5-0.5l0.8-0.1l0.1-0.6c-0.1-0.3-0.2-0.7-0.7-0.7
			c-2,0-1.3,2.7,0.4,2.7c1,0,1.8-0.9,1.9-1.9C22,18.6,21.4,17.5,19.9,17.5z M17.7,2.7c0.7,0,1.2-0.5,1.2-1.2s-0.5-1.2-1.2-1.3
			c-0.1,0-0.1,0-0.2,0h-0.1c-0.4,0-1,0.7-1,1.2v0.1C16.5,2.2,17,2.7,17.7,2.7C17.6,2.7,17.7,2.7,17.7,2.7z M17.5,5.8h0.3
			c0.6,0,1-0.4,1.1-1c0,0,0-0.1,0-0.1V4.6c0-1.6-2.4-1.5-2.4,0.1C16.5,5.3,16.9,5.8,17.5,5.8L17.5,5.8z"/>
	</g>
</g>
</svg>
