<?xml version="1.0" encoding="utf-8"?>
<!-- Generator: Adobe Illustrator 22.0.0, SVG Export Plug-In . SVG Version: 6.00 Build 0)  -->
<svg version="1.1" id="Слой_1" xmlns="http://www.w3.org/2000/svg" xmlns:xlink="http://www.w3.org/1999/xlink" x="0px" y="0px"
	 preserveAspectRatio="none" viewBox="0 0 12 12" style="enable-background:new 0 0 12 12;" xml:space="preserve">
<style type="text/css">
	.st0{fill:#613C25;}
</style>
<title>16_u</title>
<g id="Layer_2">
	<g id="Layer_1-2">
		<path class="st0" d="M11.3,8.8c-0.7-1.6-3.4-4.2-3.4-6.3V2.3C7.9,1.5,8.6,0.9,9.4,1c0.7,0.1,1.2,0.6,1.3,1.3
			c0,0.4-0.3,0.5-0.6,0.6L9.9,2L9.3,1.9C9,2,8.6,2.1,8.6,2.6c0,2.2,2.9,1.5,2.9-0.4c0-1.2-0.9-2.1-2-2.2C7.9,0,6.7,0.7,6.7,2.4v0.5
			c0,2,1.3,3.2,1.3,5.2v0.6c0,0.1,0,0.1,0,0.2H3.9C3.6,7.7,4.6,5.3,4.8,4.5C5.3,2.6,4.9,0.1,3,0.1H2.4c-1-0.1-1.9,0.7-2,1.8
			c0,0.1,0,0.1,0,0.2v0.3c0,0.7,0.6,1.5,1.1,1.5h0.3c0.7,0,1.5-0.3,1.5-0.9S3.1,2.1,2.7,2.1H2.4c-0.6,0-0.2,0.3-0.7,0.8
			c-0.4-0.4-0.4-1-0.1-1.5C1.8,1.1,2.1,1,2.4,1h0.3C3.4,1,4,1.6,4,2.4v0.2C4,4,2.1,6.4,1.4,7.5C1.1,7.9,0.9,8.4,0.7,8.8H0V12h12V8.8
			H11.3z"/>
	</g>
</g>
</svg>
