<?xml version="1.0" encoding="utf-8"?>
<!-- Generator: Adobe Illustrator 22.0.0, SVG Export Plug-In . SVG Version: 6.00 Build 0)  -->
<svg version="1.1" id="Слой_2" xmlns="http://www.w3.org/2000/svg" xmlns:xlink="http://www.w3.org/1999/xlink" x="0px" y="0px"
	 preserveAspectRatio="none" viewBox="0 0 36.5 17.6" style="enable-background:new 0 0 36.5 17.6;" xml:space="preserve">
<style type="text/css">
	.st0{fill:#623C25;}
</style>
<g id="Слой_1">
	<g id="Layer_2">
		<g id="Layer_1-2">
			<path class="st0" d="M11.2,5.7v0.1C9.6,6,9.2,6.6,8.8,8.1H8.7C8.6,8,8.6,7.8,8.6,7.7V7.6c-0.1-1,0.7-1.9,1.8-2c0,0,0,0,0.1,0h0.3
				C10.9,5.6,11.1,5.6,11.2,5.7 M11.5,6.4v0.4c-0.1,0.6-0.4,1.1-0.9,1.4c-0.3,0.2-1.4,0.7-1.4-0.1V8c0.2-0.9,1-1.6,1.9-1.8
				C11.3,6.2,11.5,6.2,11.5,6.4 M12.2,7.1L12.1,8c-0.4,0.5-0.7,1.1-1.6,1.1h-0.1c-0.3,0-0.7,0-0.7-0.3c1.1,0.1,2.1-0.8,2.2-2
				c0-0.1,0-0.1,0-0.2C12,6.7,12.2,6.8,12.2,7.1 M6.9,11.3L6.9,11.3c0,0.4-0.2,0.7-0.6,0.7c-0.4,0-0.7-0.2-0.7-0.6c0,0,0,0,0-0.1
				v-0.1C5.6,10.6,6.9,10.6,6.9,11.3 M2.7,0.7c0,0.5,0.2,1,0.5,1.4c0.3,0.3,0.6,0.6,1,0.9C4.2,2.7,3.6,2.1,3.6,1.6V1.3
				c0-0.4,0.4-0.8,0.8-0.8h0.2c0.3,0,0.6,0.2,0.6,0.5S4.7,1.4,4.7,2.3l0,0c0,0.9,1.3,2.3,1.8,2.9c0.7,1,1.1,2.3,1,3.5
				c0.8-0.9,0.3-2.7-0.2-3.6C6.9,4.6,6.8,4,6.7,3.4C6.7,2.5,6.7,1.9,6,1.7V1.6c0-0.1,0.3-0.4,0.4-0.4h0.3c0.5,0,0.9,0.4,1,0.9
				c0.2-0.1,0.3-0.7,0.5-1c0.5-0.7,0.2-0.2,0.4-1.1c0.6,0,0.9,0.3,0.9,1l0.1,0.1c0-0.4,0.8-0.9,1.3-0.9h0.4c0.2,0,0.4,0.2,0.6,0.2
				c0.3,0,0.5-0.1,0.8-0.2c0.1,0.1,0.2,0,0.2,0.2v0.4c-0.1,0.5-0.5,0.9-1.1,0.9C12,2,13,2.5,12.8,3.6c0,0.4-0.2,0.7-0.4,1
				c-0.2,0.3-0.5,0.5-0.8,0.6H11C10.3,5,9.7,4.3,9.9,3.5c0-0.1,0.1-0.3,0.1-0.4c0.3-0.4,0.8-0.6,1.2-0.5c0.5,0.1,0.8,0.5,0.9,1v0.1
				c0,0.5-0.4,0.9-0.9,0.9c0,0,0,0,0,0l0,0c-0.4-0.1-0.7-0.4-0.8-0.8V3.6c0-0.2,0.1-0.4,0.2-0.5c0.1-0.1,0.4,0.1,0.5-0.2
				c-0.7,0-1.1,0.3-1.1,0.9c0,0.6,0.4,1,1,1.1h0.4c0.7-0.1,1.2-0.7,1.2-1.4c0.1-0.7-0.3-1.3-0.9-1.6c-0.6-0.3-1.4-0.3-2,0.1
				c-0.5,0.4-0.9,1-1,1.6C8.4,4.9,8.6,7,8.2,8.1C8,8.7,7.7,9.3,7.2,9.7c-0.5,0.5-1.1,0.8-1.7,0.9H4.8c0,0.3,0.6,0.5,0.6,1.7
				c0.3,0.1,0.6,0.2,0.8,0.3C6.7,12.7,6.8,12.9,7,13c0.2,0,0-0.4,0.1-0.7c0.1-0.3,0.1-0.6,0.3-0.9c0.6-1,1.5-1.7,2.7-1.9
				c0.7-0.1,1.3-0.2,2-0.3c0.7-0.1,1.2-0.1,1.9-0.3c0.5-0.2,1-0.4,1.4-0.8c0.4-0.4,0.6-1,0.5-1.6c0-0.9-0.7-1.6-1.6-1.6l0,0
				c-0.8,0-1.4,0.6-1.5,1.4c0,0,0,0,0,0c0.1,0.5,0.1,0.8,0.5,1c0.5,0.4,0.6,0.2,1.1,0.1L14.9,7h-0.1c-0.1,0-0.4,0.4-0.7,0.4h-0.4
				C13.3,7.3,13,6.9,13,6.5c0-1.1,2.1-1.1,2.1,0.3V7c-0.1,0.6-0.6,1-1.2,1c-1.9,0-1.9-3.2,0.2-3.2c1.2,0,1.2,0.6,1.7,0.7
				c0.1-0.5,0.4-1,1-1H17c0.2,0,0.3,0.2,0.4,0.3c0,0.3-0.2,0.3-0.1,0.8c0.1,0.3,0.1,0.6,0,0.9c-0.1,0.4-0.1,0.4-0.3,0.7
				c-0.1,0.1-0.4,0.4-0.4,0.6c0.5,0,1,0.4,1.1,0.9c-0.2,0.3-0.6,0.1-1,0.5c-0.3,0.3-0.9,0.5-1,0.6h0.2c0.2,0.3,0.6,0.4,0.6,1V11
				c0,0.3-0.1,0.6-0.3,0.6h0c-0.2,0-0.2-0.5-1.3-0.5c-0.5,0-1,0-1.5-0.2c-0.9-0.3-1.4-1-2.6-1c-0.6,0-1.6,0.1-1.9,0.4
				c0.6-0.1,1.3-0.1,1.9,0.1c0.6,0.2,1.1,0.4,1.6,0.7c0.6,0.4,2.3,1.7,2.9,1.7h0.1c1.1,0,1-0.6,1.4-0.6s0.6,0.7,0.6,1
				s-0.6,0.8-1,0.8c-0.7,0-1.1-0.6-1.6-0.7c0.2,0.3,0.4,0.6,0.7,0.8c0.3,0.3,0.7,0.4,0.9,0.7l0.7-0.1h0.3c0.3,0,0.4,0.5,0.4,0.8
				s-0.3,0.5-0.6,0.6c-0.3,0.1-0.7,0-0.9-0.2c-0.3-0.2-1-1.2-1.2-1.2c0.2,0.4,0.3,0.7,0.4,1.1c0,0.6-0.3,0.6-0.3,1
				c0,0.4,0.3,0.5,0,0.5c-0.2,0-0.4-0.1-0.5-0.2C14,17,14,16.7,13.7,16.5c-0.3,0.3-0.6,0.9-1.1,0.9h-0.1c-0.9,0-1.5-1.3-0.7-1.6
				c0.2,0.1,0.4,0.3,0.7,0.3h0.4c0.4,0,0.9-0.5,1-0.9c0.2-0.5,0.2-1,0.2-1.5c-0.2-0.9-0.7-1.7-1.6-2.2c0,0.3,0.9,0.9,0.9,2.1v0.2
				c0,0.6-0.7,1.6-1.2,1.6c-0.5,0-1.6-0.5-1.6-1.2l0.6,0.1c0.4,0,1.2-0.7,1.2-1.1V13c0-0.2-0.1-0.5-0.3-0.6c0,0.4-0.1,1-0.7,1
				c-0.4,0-0.8-0.2-0.8-0.6c0-0.1,0.3-0.3,0.3-0.8V12c-0.1-0.9-0.8-1.5-1.7-1.4c-0.1,0-0.1,0-0.2,0c-0.9,0.1-1.8,0.8-1.8,1.6v0.2
				c0,0.4,0.2,0.6,0.2,0.9C7.9,13.6,8,14,8.9,14H9c0.4,0,0.7-0.2,0.9-0.5c0.3-0.5,0.1-0.9,0.2-1.3c0.2,0.1,0.3,0.3,0.3,0.5
				c0,0.9-0.7,1.6-1.5,1.6c-0.3,0-0.6-0.1-0.8-0.2c-0.4-0.3-0.8-0.6-1.1-1c-0.4-0.4-1-0.6-1.6-0.5l-0.1-0.1c0-2.3-1.9-1.9-1.9-3.5
				V8.9c0-0.9,0.7-1.6,1.5-1.7c0.6,0,1.3,0.5,1.3,1v0.1C6.1,9,5.5,9.7,5,9.6L4.5,9.6C4.3,9.3,4,9.3,4,8.7V8.6
				c0.1-0.4,0.4-0.7,0.8-0.7h0.3c0.2,0,0.5,0.3,0.6,0.4c0-0.9-2.2-0.9-2.2,0.8v0c0,0.6,0.3,0.7,0.5,1s1.1,0.2,1.3,0.4
				c0.6-0.4,0.8-0.1,1.4-0.8c0.5-0.6,0.4-0.9,0.3-1.7c-0.1-0.6-0.5-1-1-1.2C5.1,6.2,4.6,7,4.5,7H4.3C4.1,7,3.8,6.6,3.8,6.3V6.2
				c0-0.4,0.2-0.4,0.4-0.7L3.8,5.6C3.6,5.9,3.4,5.8,3.2,6.3s0.1,0.8,0.1,1S2.1,6.8,2.1,6V5.9c0.1-0.7,0.7-1.3,1.4-1.4h0.6
				c0.3,0,0.3,0,0.4,0.2l0.1-0.1C5,4.7,5.2,4.8,5.4,4.9s0.3,0.3,0.7,0.4C5.5,4.4,4.5,3.8,3.5,3.8c-0.8,0-2.2,0.4-2.2,1.4v0.2
				c0,0.4,0.4,0.5,0.4,0.6v0.1c0,0.1-0.1,0.2-0.3,0.2H1.2c-0.1,0-0.2,0-0.3-0.1c-0.1,0-0.2,0.1-0.3,0.1l0,0C0.4,6.3,0,5.8,0.1,5.5
				l0.1-0.6c0.1-0.2,0.3-0.3,0.4-0.5C0.8,4.2,1,4.2,1,3.9C0.6,3.8,0.2,3.5,0.1,3c0.2-0.1,0.6-0.2,0.8-0.3c0.2-0.2,0.5-0.3,0.8-0.4
				c0.5,0,0.8,0.2,1.2,0.2c0-0.4-1.6-0.7-1.6-1.8c0-0.5,0.3-0.7,0.8-0.7h0.3C2.8,0.1,2.7,0.5,2.7,0.7 M4.3,3L4.3,3 M9.3,11.8
				c0.1,0.3,0.5,0.3,0.5,1s-0.4,0.8-1,0.8c-0.2-0.1-0.4-0.2-0.6-0.4C8,13,8,12.7,8,12.5c0.1-0.5,0.5-0.9,1-1c0.4,0,0.8,0.2,1,0.5
				C10.3,12.5,9.4,11.8,9.3,11.8 M7.6,16.4c0.2,0.5,0.7,0.8,1.2,0.9h0.3c0.1,0,0.1,0,0.1,0c-0.1-0.1-0.7-0.3-0.7-0.9v-0.1
				c0-1.4,2-1.1,2-0.2v0.3c-0.1,0.7-0.7,1.2-1.4,1.1c-1.3,0-1.4-0.9-1.8-1c0,0.3-0.3,0.9-0.6,0.9s-0.8-1-1-1c0,0.2-0.5,0.8-0.7,0.8
				l0,0c-0.4,0-0.6-1.1-0.5-1.6c0.1-0.3,1-1.5,0.5-1.5S4.2,15.3,4.1,16c-0.1,0.6-0.5,1.2-1,1.5c-0.4-0.2-0.6-0.6-0.5-1v-0.3
				c-0.3,0-0.3,0.6-0.8,0.9c-0.1,0.1-1.2,0.4-1.3,0.4H0.4c-0.3,0,0-1.2,0.1-1.4c0.2-0.5,0.9-0.6,0.9-0.9c-0.4,0-1.2-0.3-1.2-0.6
				c0-0.6,0.9-1,1.5-1.1c0.6-0.2,1.8-0.2,1.8-0.8v-0.2c-0.1,0-0.1,0-0.2,0c-0.3,0-0.9,0.7-1.5,0.8c-0.3,0.1-0.5,0-0.8-0.1
				C1,13,0.5,12.8,0.5,12.7c0-0.2,0.4-0.5,0.7-0.6c0-0.3-0.9-0.4-0.9-1c0-0.3,0.6-0.4,0.9-0.6C1,10.4,0.6,10.1,0.4,9.8
				C0.1,9.5,0,9.2,0.1,8.8C0.2,8,0.6,7.4,1.4,7.4h0c0.5,0.1,0.8,0.4,0.9,0.9v0.2C2.4,8.9,2,9,1.8,9.3c-0.5-0.1-1.2,0-1.3-0.8H0.4
				C0.3,9.1,0.5,9.7,1,9.9c0.7,0.5,0.6,0.3,1.6,0.4c0.5,0.1,1,0.3,1.4,0.6c0.4,0.3,0.6,0.8,0.7,1.3l-0.1,0.8c1.4,0,2.1,0.3,2.6,1.5
				C7.5,15.1,7.5,15.9,7.6,16.4 M15.1,0.8c0,0.8-0.5,0.8-0.6,1.3l0.1,0.1c1.2-0.3,0.2-2.1,2.7-2.1c0.1,0,0.3,0.2,0.3,0.3l-0.3,0.9
				c-0.1,0.3-0.3,0.5-0.5,0.7c-0.6,0.3-1.3,0.3-1.3,1.1c0.3,0,0.3-0.2,0.5-0.4c0.2-0.1,0.4-0.2,0.7-0.2c0.4-0.1,0.8,0.3,0.9,0.7
				c0,0,0,0.1,0,0.1v0.1c0,0.2-0.4,0.1-0.6,0.1c-0.3,0.2-0.7,0.4-1,0.5c-0.4,0.2-0.9,0.2-1.4,0.2c-1.6,0-1.6,0.9-2.1,1
				c-0.1-0.3,0.5-0.6,0.6-1c0.2-0.5,0.3-1,0.3-1.5c0-0.5,0.1-0.9,0.3-1.3c0.1-0.2,0.2-0.4,0.3-0.6c0.2-0.4-0.1-0.3-0.1-0.6
				c0-0.2,0.1-0.2,0.3-0.3C14.5,0.2,15.1,0.1,15.1,0.8"/>
		</g>
	</g>
</g>
<g id="Layer_2_2_">
	<g id="Layer_1-2_2_">
		<path class="st0" d="M29.7,11.8v-0.2c-1.6-0.1-2.1-0.8-2.5-2.3h-0.1C27,9.5,27,9.7,27,9.8V10c0,1.1,0.8,1.9,1.9,1.9c0,0,0,0,0.1,0
			h0.3C29.4,11.9,29.6,11.9,29.7,11.8 M30,11.1v-0.4c-0.1-0.6-0.4-1.1-0.9-1.4c-0.3-0.2-1.5-0.7-1.5,0v0.2c0.2,0.9,1,1.7,2,1.8
			C29.8,11.3,30,11.3,30,11.1 M30.7,10.4l-0.1-0.9C30.3,9,30,8.4,29,8.4h-0.2c-0.3,0-0.7,0-0.7,0.2c1.3,0.1,2.3,0.8,2.3,2.2
			C30.6,10.8,30.7,10.6,30.7,10.4 M25.2,6.2L25.2,6.2c0-0.4-0.2-0.7-0.6-0.7c-0.4,0-0.7,0.2-0.7,0.6c0,0,0,0.1,0,0.1v0.1
			C23.9,6.9,25.2,6.9,25.2,6.2 M20.8,16.8c0-0.5,0.2-1,0.6-1.4c0.3-0.3,0.7-0.7,1.1-0.9c-0.1,0.3-0.7,0.9-0.7,1.4v0.3
			c0.1,0.4,0.4,0.8,0.8,0.8h0.2c0.3,0,0.6-0.2,0.6-0.5c0-0.3-0.4-0.4-0.4-1.3l0,0c0-0.9,1.4-2.3,1.8-2.9c0.8-1,1.1-2.3,1-3.5
			c0.9,0.9,0.3,2.7-0.2,3.6c-0.3,0.5-0.5,1.1-0.6,1.7c0.1,0.9,0,1.5-0.7,1.7v0.2c0,0.1,0.3,0.3,0.5,0.3h0.4c0.5,0,1-0.4,1.1-0.9
			c0.2,0.1,0.3,0.7,0.5,1c0.5,0.7,0.3,0.2,0.4,1.1c0.5,0.1,0.9-0.3,1-0.8c0-0.1,0-0.2,0-0.2l0.1-0.1c0,0.4,0.8,0.9,1.3,0.9H30
			c0.2,0,0.4-0.2,0.6-0.2c0.3,0,0.6,0.1,0.8,0.2c0.1-0.1,0.2,0,0.2-0.2v-0.3c-0.1-0.5-0.5-0.9-1.1-0.9c0,0,0,0,0,0
			c0.1-0.3,1.1-0.8,0.9-1.9c0-0.4-0.2-0.7-0.4-1c-0.2-0.3-0.5-0.5-0.9-0.6h-0.6c-0.8,0-1.4,0.7-1.4,1.5c0,0.2,0.1,0.4,0.2,0.6
			c0.3,0.4,0.8,0.6,1.3,0.5c0.5-0.1,0.8-0.5,0.9-1v-0.1c0-0.5-0.4-0.9-0.9-0.9c0,0,0,0,0,0h-0.1c-0.4,0-0.7,0.4-0.8,0.8v0.2
			c0,0.2,0.1,0.4,0.2,0.5c0.1,0.1,0.4,0,0.5,0.2c-0.8,0-1.2-0.3-1.2-0.9c0.1-0.6,0.5-1.1,1.1-1.2H30c0.7,0.1,1.2,0.7,1.2,1.4
			c0,0.7-0.4,1.3-1,1.6c-0.7,0.3-1.5,0.3-2.1-0.1c-0.5-0.4-0.9-1-1-1.6c-0.4-1.2-0.1-3.3-0.6-4.4c-0.2-0.6-0.6-1.2-1.1-1.6
			c-0.5-0.5-1.1-0.8-1.8-0.9H23c0-0.3,0.6-0.5,0.6-1.7c0.2-0.1,0.7-0.2,0.9-0.3c0.4-0.1,0.6-0.3,0.8-0.4s0,0.4,0.1,0.7
			c0.1,0.3,0.1,0.6,0.3,0.9c0.3,1,1.6,1.6,2.8,1.9c0.7,0.1,1.4,0.2,2.1,0.3c0.7,0.1,1.3,0.1,2,0.2C33.1,8.7,33.6,9,34,9.4
			c0.4,0.4,0.6,1,0.6,1.6c0,0.9-0.8,1.6-1.7,1.6h0c-0.8,0-1.6-0.6-1.5-1.4c0-0.4,0.2-0.8,0.5-1C32.3,9.7,32.4,10,33,10l0.5,0.6l0,0
			c-0.1,0-0.5-0.4-0.7-0.4h-0.3c-0.5,0-0.9,0.5-0.8,1c0,1.1,2.1,1.1,2.1-0.3v-0.3c-0.1-0.6-0.6-1-1.3-1c-2,0-2,3.2,0.2,3.2
			c1.3,0,1.3-0.6,1.7-0.7c0.1,0.5,0.4,1,1,1h0.3c0.2,0,0.3-0.2,0.4-0.4c0-0.3-0.2-0.3-0.1-0.8c0.1-0.3,0.1-0.6,0-0.9
			c-0.1-0.4-0.1-0.4-0.3-0.7c-0.1-0.1-0.4-0.4-0.4-0.6c0.5,0,1-0.4,1.1-0.9c-0.2-0.3-0.6-0.1-1.1-0.5c-0.3-0.3-0.9-0.5-1-0.6h0.2
			c0.2-0.3,0.6-0.4,0.6-0.9V6.6c0-0.3-0.1-0.6-0.3-0.6h-0.1c-0.3,0-0.2,0.5-1.3,0.5c-0.5,0-1.1,0-1.6,0.2c-1,0.3-1.5,1-2.8,1
			c-0.6,0-1.7-0.1-1.9-0.4c0.7,0.1,1.3,0.1,2-0.1c0.6-0.2,1.2-0.4,1.7-0.7c0.6-0.4,2.4-1.7,3.1-1.7h0.1c1.2,0,1.1,0.6,1.4,0.6
			c0.3,0,0.7-0.6,0.7-0.9S35.5,3.5,35,3.5c-0.7,0-1.2,0.6-1.6,0.7c0.2-0.3,0.4-0.6,0.7-0.8C34.4,3.1,34.8,3,35,2.7l0.7,0.1H36
			c0.3,0,0.4-0.5,0.4-0.8S36,1.5,35.8,1.4c-0.3-0.1-0.7,0-1,0.2c-0.4,0.2-1.1,1.2-1.3,1.2c0.2-0.4,0.3-0.8,0.4-1.1
			c0-0.8-0.3-0.8-0.3-1.2s0.3-0.5,0-0.5c-0.2,0-0.4,0.1-0.6,0.2c-0.5,0.3-0.5,0.6-0.8,0.8c-0.2-0.4-0.6-1-1.1-1H31
			c-0.9,0-1.5,1.2-0.7,1.6c0.2-0.1,0.4-0.3,0.7-0.3h0.5c0.4,0,0.9,0.5,1.1,0.9c0.2,0.5,0.3,1,0.2,1.5c-0.2,1-0.8,1.8-1.7,2.2
			c0-0.3,0.9-0.9,0.9-2.1V3.7c0-0.6-0.7-1.6-1.3-1.6S29,2.6,29,3.3l0.7-0.1c0.6,0.1,1.1,0.5,1.2,1.1v0.2c0,0.2-0.1,0.5-0.3,0.5
			c0-0.4-0.1-1-0.7-1c-0.4,0-0.8,0.2-0.8,0.6c0,0.1,0.3,0.3,0.3,0.8v0.1c-0.1,0.9-0.9,1.5-1.8,1.4c-0.1,0-0.1,0-0.2,0
			c-0.9-0.1-1.9-0.8-1.9-1.6V5.1c0-0.4,0.2-0.6,0.2-0.9c0.4-0.3,0.5-0.7,1.4-0.7h0.1c0.4,0,0.8,0.2,1,0.5c0.4,0.5,0.1,0.9,0.2,1.3
			c0.2-0.1,0.3-0.2,0.3-0.5c0-0.9-0.7-1.6-1.6-1.6c-0.3,0-0.6,0.1-0.8,0.2c-0.4,0.3-0.8,0.6-1.2,1c-0.5,0.4-1.1,0.6-1.7,0.5L23.3,5
			c0,2.3-2,1.9-2,3.5v0c0,0.9,0.7,1.7,1.6,1.7c0.6,0,1.4-0.5,1.4-1V9.1c0-0.6-0.6-1.3-1.2-1.2L22.7,8c-0.2,0.3-0.5,0.3-0.5,0.9V9
			c0.1,0.4,0.4,0.7,0.8,0.8h0.3c0.2,0,0.5-0.3,0.6-0.4c0,1-2.3,0.9-2.3-0.8v0c0-0.6,0.3-0.7,0.6-1s1.1-0.2,1.4-0.4
			c0.6,0.4,0.8,0.1,1.5,0.8c0.6,0.8,0.4,0.9,0.3,1.7c0,0.6-0.6,1-1,1.2c-0.6,0.2-1.3,0.1-1.7-0.4h-0.2c-0.2,0-0.5,0.4-0.5,0.7v0.1
			c0,0.4,0.2,0.4,0.4,0.7h-0.5c-0.2-0.3-0.4-0.2-0.6-0.7c-0.2-0.5,0.1-0.8,0.1-1c-0.1-0.2-1.2,0.5-1.2,1.3v0.1
			c0.1,0.8,0.7,1.4,1.5,1.4h0.6c0.3,0,0.3,0,0.4-0.2l0.1,0.1c0.3-0.1,0.5-0.2,0.8-0.3c0.3-0.1,0.4-0.3,0.7-0.4
			c-0.2,0.7-1.7,1.5-2.7,1.5c-0.9,0-2.3-0.4-2.3-1.4v-0.2c0-0.4,0.4-0.5,0.4-0.6v-0.1c0-0.2-0.1-0.2-0.3-0.2h-0.2
			c-0.1,0-0.2,0-0.3,0.1c-0.1,0-0.2,0-0.3,0h-0.1C18.3,11.2,18,11.8,18,12l0.1,0.6c0.1,0.2,0.3,0.3,0.4,0.5c0.2,0.2,0.5,0.2,0.5,0.4
			c-0.5,0.1-0.8,0.5-0.9,0.9c0.2,0.1,0.7,0.2,0.8,0.3c0.2,0.2,0.5,0.3,0.8,0.4c0.5,0,0.9-0.2,1.3-0.2c0,0.4-1.7,0.7-1.7,1.8
			c0,0.5,0.3,0.7,0.8,0.7h0.4C20.8,17.4,20.8,17,20.8,16.8 M22.5,14.5L22.5,14.5 M27.7,5.7c0.1-0.3,0.5-0.3,0.5-0.9S27.7,4,27.1,4
			c-0.2,0.1-0.4,0.2-0.6,0.4c-0.2,0.2-0.3,0.5-0.2,0.7c0.1,0.5,0.5,0.9,1.1,1c0.4,0,0.8-0.2,1.1-0.5C28.8,5,27.9,5.7,27.7,5.7
			 M26,1.2c0.2-0.5,0.7-0.8,1.3-0.9h0.3c0.1,0,0.1,0,0.1,0c-0.1,0.1-0.7,0.3-0.7,0.8v0.1c0,1.4,2,1.1,2,0.2V1.1
			c-0.1-0.7-0.7-1.2-1.4-1.1c-1.3,0-1.4,0.9-1.9,1c0-0.3-0.3-0.9-0.6-0.9c-0.3,0-0.8,1-1,1c0-0.2-0.5-0.9-0.7-0.9h-0.1
			c-0.4,0-0.7,1.1-0.6,1.6c0.1,0.3,1.1,1.5,0.6,1.5c-0.5,0-0.8-1.1-0.9-1.7c-0.2-0.6-0.5-1.2-1.1-1.5c-0.4,0.2-0.6,0.6-0.6,1v0.4
			c-0.3,0-0.3-0.6-0.8-0.9c-0.1,0-1.3-0.4-1.3-0.4h-0.1c-0.3,0,0,1.2,0.1,1.4c0.3,0.5,0.9,0.7,1,0.9c-0.4,0-1.3,0.3-1.3,0.6
			c0,0.6,1,1,1.6,1.1c0.6,0.1,1.9,0.2,1.9,0.8v0.2c-0.2,0-0.1,0.1-0.2,0.1c-0.3,0-0.9-0.7-1.5-0.8c-0.3-0.1-0.6,0-0.8,0.1
			c-0.2,0.1-0.7,0.3-0.7,0.4s0.5,0.6,0.7,0.6c0,0.3-0.9,0.5-0.9,1c0,0.3,0.7,0.4,0.9,0.6c-0.1,0.1-0.6,0.4-0.8,0.7
			c-0.2,0.3-0.3,0.6-0.3,1c0.1,0.9,0.5,1.5,1.4,1.5h0.1c0.5,0,0.9-0.4,1-0.9V9.1c0-0.5-0.4-0.6-0.6-0.9c-0.5,0.1-1.3,0-1.3,0.7h-0.2
			c-0.1-0.5,0.1-1.1,0.6-1.4c0.8-0.5,0.6-0.3,1.6-0.4c0.6-0.1,1.1-0.3,1.5-0.6c0.4-0.3,0.7-0.8,0.8-1.3l-0.1-0.8
			c1.5,0,2.2-0.3,2.8-1.5C25.9,2.5,25.8,1.6,26,1.2 M33.8,16.7c0-0.7-0.5-0.8-0.6-1.3l0.1-0.1c1.3,0.3,0.2,2.1,2.8,2.1
			c0.1,0,0.3-0.2,0.3-0.3l-0.3-0.9c-0.1-0.3-0.3-0.5-0.5-0.7c-0.6-0.3-1.4-0.3-1.4-1.1c0.3,0,0.3,0.2,0.5,0.4
			c0.2,0.1,0.5,0.2,0.7,0.2c0.5,0.1,0.9-0.2,1-0.7c0,0,0-0.1,0-0.1v-0.1c0-0.2-0.4-0.2-0.7-0.2c-0.3-0.2-0.7-0.4-1-0.5
			c-0.5-0.2-0.9-0.2-1.4-0.2c-1.7,0-1.7-0.9-2.2-1c-0.1,0.3,0.5,0.6,0.6,1c0.2,0.5,0.3,1,0.3,1.5c0,0.5,0.1,0.9,0.3,1.3
			c0.1,0.2,0.2,0.4,0.3,0.6c0.2,0.4,0,0.3,0,0.6c0,0.2,0.1,0.2,0.3,0.3C33.2,17.4,33.9,17.5,33.8,16.7"/>
	</g>
</g>
</svg>
