<svg xmlns="http://www.w3.org/2000/svg"  preserveAspectRatio="none" viewBox="0 0 35.1 36.08"><defs><style>.cls-1{fill:#623c25;fill-rule:evenodd;}</style></defs><title>4_l_u</title><g id="Layer_2" data-name="Layer 2"><g id="Layer_1-2" data-name="Layer 1"><path class="cls-1" d="M11.87,11.19h-.15c-.13-1.57-.8-2-2.3-2.4v-.1a1.29,1.29,0,0,1,.45-.1H10a1.88,1.88,0,0,1,2,1.85v.3a1.49,1.49,0,0,1-.1.45m-.7.31h-.4a2.34,2.34,0,0,1-1.4-.86c-.24-.31-.72-1.45.05-1.45h.15a2.37,2.37,0,0,1,1.8,1.9c0,.18,0,.41-.2.41m-.7.65-.9-.05c-.52-.36-1.14-.68-1.14-1.56v-.15c0-.31,0-.68.25-.7a2.06,2.06,0,0,0,2.14,2.16c0,.17-.13.31-.35.3M6.23,6.88H6.18c-.4,0-.69-.2-.69-.55a.64.64,0,0,1,.64-.7h.1c.69,0,.69,1.25,0,1.25M16.85,2.67a2,2,0,0,0-1.39.55,4.69,4.69,0,0,0-.9,1c.33-.08.9-.65,1.35-.65h.35a.87.87,0,0,1,.79.8v.15c0,.27-.23.61-.49.61s-.42-.46-1.3-.46h0c-.86,0-2.27,1.32-2.9,1.75a5.44,5.44,0,0,1-3.53,1c.94.83,2.67.27,3.57-.22a6.34,6.34,0,0,1,1.73-.55c.88.06,1.51.06,1.68-.68h.15c.14,0,.35.27.35.45v.35a1.05,1.05,0,0,1-.9,1c.1.16.68.31,1,.5.68.45.22.21,1.08.41,0,.64-.34.95-1,1l-.1.14c.37,0,.89.78.89,1.25v.36c0,.22-.2.39-.2.6a2.68,2.68,0,0,0,.2.8c-.05.11,0,.2-.2.2h-.34a1,1,0,0,1-.9-1.05c-.28.07-.81,1-1.87.87a2.08,2.08,0,0,1-1-.41,2,2,0,0,1-.58-.81v-.56A1.44,1.44,0,0,1,14.47,10a1.1,1.1,0,0,1,.47,1.25,1.23,1.23,0,0,1-1,.87h-.1a.89.89,0,0,1-.89-.91v0a.87.87,0,0,1,.79-.75H14a1.5,1.5,0,0,1,.53.23c.14.11-.05.36.17.52,0-.74-.26-1.1-.95-1.1a1.26,1.26,0,0,0-1.14,1v.41a1.37,1.37,0,0,0,1.37,1.18,1.6,1.6,0,0,0,1.59-.91,2,2,0,0,0-.14-2,2.91,2.91,0,0,0-1.6-1c-1.18-.4-3.29-.16-4.41-.58a3.87,3.87,0,0,1-1.59-1,3.32,3.32,0,0,1-.91-1.74V4.77c-.3,0-.54.61-1.69.61a6.53,6.53,0,0,0-.25.85c-.1.41-.35.55-.38.77s.43,0,.68.07a4.85,4.85,0,0,1,.9.25A3.8,3.8,0,0,1,8.06,10a13.51,13.51,0,0,1,.27,2c.09.71.14,1.23.25,1.91a3.61,3.61,0,0,0,.83,1.42,1.88,1.88,0,0,0,1.56.54,1.6,1.6,0,0,0,1.55-1.61v0a1.41,1.41,0,0,0-1.41-1.46c-.54.06-.76.13-1,.47-.4.53-.18.59-.15,1.13l.64.51,0-.05c0-.12-.45-.44-.45-.7V13.8a.93.93,0,0,1,.95-.8c1.07,0,1.06,2.06-.3,2.06h-.25a1.16,1.16,0,0,1-1-1.21c0-1.93,3.2-1.9,3.2.2,0,1.24-.59,1.23-.7,1.66.49.11,1,.39,1,.95V17a.5.5,0,0,1-.34.35c-.29,0-.31-.21-.78-.13a1.9,1.9,0,0,1-.88,0c-.42-.13-.36-.06-.68-.32-.14-.11-.42-.37-.61-.39a1.25,1.25,0,0,1-.89,1.1c-.32-.21-.08-.55-.52-1-.25-.27-.46-.88-.6-1l0,.2c-.33.22-.4.6-1,.6h-.2c-.25,0-.6-.06-.6-.3v-.05c0-.24.51-.18.48-1.26a6.08,6.08,0,0,1,.16-1.51c.3-.92,1-1.44,1-2.65,0-.56-.13-1.64-.45-1.85a4.42,4.42,0,0,1-.12,1.88,6.68,6.68,0,0,1-.74,1.62c-.35.56-1.73,2.31-1.73,2.92v.1c0,1.1.6,1,.6,1.35s-.66.65-1,.65-.75-.57-.75-1c0-.65.59-1.13.7-1.55a3.39,3.39,0,0,0-.84.66c-.31.29-.35.68-.69.89l.08.7v.3c0,.27-.51.35-.8.35s-.5-.34-.57-.62a.91.91,0,0,1,.19-.92c.22-.34,1.18-1,1.23-1.21a4.81,4.81,0,0,1-1.14.35C1,15.25.93,15,.55,15s-.46.25-.49,0a1,1,0,0,1,.17-.54c.34-.51.65-.47.82-.73C.71,13.47.1,13.09.1,12.6v-.15c0-.9,1.24-1.47,1.64-.7-.1.19-.34.42-.34.65v.45c0,.42.53.9.86,1a3,3,0,0,0,1.53.17A3.14,3.14,0,0,0,6,12.45c-.33,0-.87.9-2.09.9h-.2c-.61,0-1.57-.7-1.58-1.24s.52-1.57,1.21-1.56l-.08.64c0,.44.68,1.16,1.1,1.16h.15c.23,0,.5-.06.55-.25-.44,0-1-.12-1-.65,0-.37.19-.76.55-.76.15,0,.33.3.85.3h.1a1.55,1.55,0,0,0,1.4-1.86c-.1-.86-.76-1.8-1.6-1.8h-.2c-.43,0-.59.15-.95.15-.28.42-.7.48-.7,1.36v.1A1.18,1.18,0,0,0,4,9.86c.48.34.91.06,1.27.23-.06.22-.25.25-.5.25A1.57,1.57,0,0,1,3.36,8a9.33,9.33,0,0,1,1-1.13,2,2,0,0,0,.52-1.63l.09-.12c2.26,0,1.92-1.9,3.54-1.9h.1a1.67,1.67,0,0,1,1.69,1.55c0,.59-.46,1.31-1,1.31h-.1c-.61,0-1.33-.56-1.26-1.11L8,4.52c.29-.19.3-.5.9-.5H9a.88.88,0,0,1,.74.75v.31c0,.16-.32.48-.4.6,1,0,.89-2.16-.79-2.16H8.53c-.56,0-.74.31-1,.55s-.22,1.1-.35,1.31c.37.55.06.79.82,1.37s.89.37,1.67.33a1.62,1.62,0,0,0,1.22-1c.47-.94-.37-1.49-.37-1.63V4.32c0-.22.42-.5.7-.5h.1c.43,0,.44.23.7.4l-.05-.45c-.3-.2-.24-.39-.72-.58s-.82.13-1,.06.54-1.13,1.33-1.13h.1a1.52,1.52,0,0,1,1.39,1.4v.6c0,.27,0,.31-.2.41l.1.14c-.14.28-.18.49-.29.76s-.33.35-.4.65a3.17,3.17,0,0,0,1.49-2.61c0-.83-.36-2.16-1.39-2.16h-.2c-.37,0-.47.36-.65.36h-.1c-.15,0-.2-.15-.2-.31V1.21a.54.54,0,0,1,.1-.3.85.85,0,0,1-.05-.3v0c0-.23.52-.58.8-.56l.65.06a3.14,3.14,0,0,1,.48.42c.16.22.15.46.41.48a1.2,1.2,0,0,1,.9-.9c.11.23.19.64.3.8a1.35,1.35,0,0,1,.35.8c0,.51-.2.82-.2,1.21.44,0,.72-1.61,1.79-1.61.46,0,.7.28.7.76v.35c0,.33-.42.3-.6.3M14.56,4.32h0M5.78,9.24c-.31.08-.28.5-.94.5S4,9.31,4,8.74a1.07,1.07,0,0,1,.38-.57A.87.87,0,0,1,5.1,8a1.23,1.23,0,0,1,1,1,1.16,1.16,0,0,1-.48,1c-.54.3.17-.56.18-.77M1.19,7.62A1.53,1.53,0,0,0,.3,8.84v.25c0,.09,0,.09,0,.15.15-.12.32-.7.85-.7h.1c1.4,0,1.08,2,.2,2H1.15A1.28,1.28,0,0,1,0,9.14C0,7.89.91,7.77,1,7.33.66,7.31.1,7,.1,6.73s1-.8,1-1C.91,5.71.3,5.24.3,5V5c0-.41,1.14-.64,1.58-.54.25.06,1.46,1,1.46.54S2.23,4.19,1.6,4.12A2.41,2.41,0,0,1,.1,3.07a1.09,1.09,0,0,1,1-.55h.35c0-.25-.65-.32-.92-.78C.48,1.65.15.51.15.46V.36c0-.31,1.21,0,1.37.13.46.24.65.86.87.92,0-.42.29-1.2.6-1.2.62,0,1,.94,1.15,1.51s.2,1.8.75,1.8h.2c0-.14,0-.09,0-.2,0-.3-.72-.88-.8-1.45a.84.84,0,0,1,.13-.77c.09-.16.3-.64.47-.64s.54.43.6.65c.33,0,.45-.85,1-.85.28,0,.44.64.55.85.14-.09.41-.56.69-.76a1.24,1.24,0,0,1,1-.27c.83.11,1.47.46,1.47,1.33v.05a1.08,1.08,0,0,1-.9.91H9.13c-.52,0-.6-.35-.9-.55.09-.46,0-1.2.75-1.26V.41A1.3,1.3,0,0,0,7.61,1c-.53.72-.28.6-.45,1.56A2.83,2.83,0,0,1,6.55,4a2.31,2.31,0,0,1-1.26.73l-.8-.06C4.49,6.05,4.21,6.8,3,7.3c-.52.21-1.35.15-1.82.32m15.56,7.49c-.75,0-.77-.48-1.28-.6l-.11.1c.28,1.19,2.14.15,2.14,2.7,0,.13-.18.25-.25.25l-.94-.25a1.33,1.33,0,0,1-.69-.52c-.27-.59-.26-1.33-1.11-1.33,0,.31.23.31.38.52a2,2,0,0,1,.23.67.81.81,0,0,1-.81.91h-.15c-.23,0-.15-.4-.15-.65a8.35,8.35,0,0,1-.51-1,3.21,3.21,0,0,1-.19-1.37c0-1.61-.86-1.6-1-2.1.26-.12.61.46,1,.62a4,4,0,0,0,1.46.28,2.6,2.6,0,0,1,1.33.27,6,6,0,0,1,.57.28c.4.19.31-.05.64-.05.17,0,.2.14.25.25-.17.37-.12,1-.8,1"/><path class="cls-1" d="M29.42,6.42h-.15C29.14,8,28.48,8.48,27,8.83v.1a1.42,1.42,0,0,0,.45.1h.15a1.89,1.89,0,0,0,1.94-1.86v-.3a1.49,1.49,0,0,0-.1-.45m-.7-.3h-.4A2.32,2.32,0,0,0,26.93,7c-.25.32-.73,1.46.05,1.46h.15a2.38,2.38,0,0,0,1.79-1.91c0-.18,0-.4-.2-.4M28,5.47l-.89,0C26.6,5.87,26,6.2,26,7.07v.15c0,.32,0,.68.25.71a2.06,2.06,0,0,1,2.14-2.16c0-.18-.13-.32-.35-.3m-4.23,5.26h-.06c-.4,0-.69.2-.69.56a.64.64,0,0,0,.65.7h.1c.68,0,.68-1.26,0-1.26M34.41,15A2.09,2.09,0,0,1,33,14.4a4.74,4.74,0,0,1-.9-1.06c.34.08.9.65,1.35.65h.35a.88.88,0,0,0,.8-.8V13c0-.26-.24-.6-.5-.6s-.42.45-1.3.45h-.05c-.86,0-2.26-1.32-2.9-1.74a5.44,5.44,0,0,0-3.53-1c.94-.82,2.67-.27,3.57.22a5.78,5.78,0,0,0,1.74.55c.87-.06,1.5,0,1.67.69h.15c.15,0,.35-.28.35-.46v-.35a1.06,1.06,0,0,0-.9-1.05c.11-.16.68-.31,1-.49.68-.46.23-.21,1.08-.41,0-.65-.34-1-1-1l-.11-.15c.38,0,.89-.78.9-1.25V6.17c0-.23-.2-.39-.2-.6a2.35,2.35,0,0,1,.2-.8c-.06-.12,0-.21-.2-.2h-.35a1,1,0,0,0-.9,1c-.28-.08-.8-1-1.87-.88a2.12,2.12,0,0,0-1,.41,2.14,2.14,0,0,0-.58.82v.55A1.44,1.44,0,0,0,32,7.63a1.09,1.09,0,0,0,.47-1.24,1.21,1.21,0,0,0-1-.87h-.1a.89.89,0,0,0-.89.9v0a.86.86,0,0,0,.79.75h.25A1.48,1.48,0,0,0,32,7c.15-.11-.05-.37.17-.53,0,.74-.26,1.1-.95,1.1a1.25,1.25,0,0,1-1.14-1v-.4A1.39,1.39,0,0,1,31.5,5a1.6,1.6,0,0,1,1.58.92,2,2,0,0,1-.14,2,2.92,2.92,0,0,1-1.6,1c-1.18.39-3.28.15-4.41.57a4,4,0,0,0-1.59,1,3.35,3.35,0,0,0-.91,1.75v.6c-.3,0-.53-.6-1.69-.6a6.53,6.53,0,0,1-.25-.85c-.1-.41-.35-.56-.38-.78s.43,0,.68-.07a4,4,0,0,0,.9-.25,3.74,3.74,0,0,0,1.92-2.64,13.32,13.32,0,0,0,.27-2c.09-.7.15-1.23.25-1.91A3.68,3.68,0,0,1,27,2.34a1.92,1.92,0,0,1,1.56-.53,1.6,1.6,0,0,1,1.55,1.6v0a1.43,1.43,0,0,1-1.41,1.47c-.54-.06-.76-.13-1-.48-.4-.53-.18-.59-.15-1.12l.64-.52,0,0c0,.13-.45.45-.45.7v.25a.93.93,0,0,0,1,.81c1.07,0,1.06-2.06-.3-2.06h-.25a1.15,1.15,0,0,0-1,1.2c0,1.93,3.19,1.9,3.19-.2,0-1.24-.59-1.23-.7-1.66.49-.11,1.05-.38,1.05-.95V.65A.51.51,0,0,0,30.32.3c-.29,0-.31.22-.78.13a2.22,2.22,0,0,0-.88,0A1.31,1.31,0,0,0,28,.71c-.14.12-.42.38-.6.39a1.27,1.27,0,0,0-.9-1.1c-.32.21-.08.56-.51,1-.26.28-.47.88-.61,1l0-.2c-.32-.22-.4-.61-.95-.61h-.2c-.25,0-.59.06-.59.31v.05c0,.23.5.17.47,1.26a6.45,6.45,0,0,0,.16,1.5c.3.93,1,1.45,1,2.65,0,.57-.13,1.65-.45,1.86a4.47,4.47,0,0,0-.12-1.89A6.25,6.25,0,0,0,24,5.33c-.35-.56-1.73-2.32-1.73-2.92v-.1c0-1.11.6-1.06.6-1.36S22.18.3,21.89.3s-.75.58-.75,1.05c0,.65.59,1.13.7,1.56A3.93,3.93,0,0,1,21,2.25c-.31-.3-.35-.69-.69-.9l.08-.7V.35c0-.27-.51-.35-.79-.35s-.51.35-.58.62a.91.91,0,0,0,.19.92c.22.34,1.19,1,1.23,1.22a4,4,0,0,0-1.14-.35c-.78,0-.82.25-1.2.25s-.46-.25-.49,0a1,1,0,0,0,.17.53c.35.51.65.48.82.73-.34.18-1,.56-1,1.06v.15c0,.89,1.25,1.46,1.65.7-.11-.2-.35-.42-.35-.65V4.77c0-.43.53-.9.86-1a3.13,3.13,0,0,1,1.53-.17,3.19,3.19,0,0,1,2.25,1.61c-.33,0-.88-.91-2.1-.91h-.2c-.6,0-1.57.7-1.57,1.24s.51,1.57,1.2,1.57l-.08-.65c0-.44.68-1.15,1.1-1.15h.15c.23,0,.5.06.55.25-.44,0-1.05.12-1.05.65,0,.37.2.75.55.75.15,0,.33-.3.85-.3h.1a1.55,1.55,0,0,1,1.4,1.86c-.1.86-.76,1.8-1.6,1.8h-.2c-.43,0-.59-.15-1-.15-.28-.41-.7-.48-.7-1.35v-.1a1.19,1.19,0,0,1,.53-.93c.48-.33.91,0,1.27-.23-.06-.21-.24-.25-.5-.25a1.57,1.57,0,0,0-1.43,2.34,8.74,8.74,0,0,0,1,1.13,2,2,0,0,1,.52,1.64l.09.11c2.26,0,1.92,1.91,3.54,1.91h.1a1.67,1.67,0,0,0,1.69-1.56c0-.58-.46-1.3-1-1.3h-.1c-.61,0-1.33.55-1.25,1.1l.05.45c.29.2.3.5.9.5h.15a.88.88,0,0,0,.75-.75v-.3c0-.16-.33-.49-.4-.6.95,0,.88,2.15-.8,2.15h-.05c-.56,0-.74-.3-1-.55s-.22-1.09-.35-1.3c.37-.55.06-.79.83-1.38.62-.48.88-.36,1.67-.33a1.63,1.63,0,0,1,1.21,1c.47.94-.37,1.48-.37,1.62v.15c0,.23.43.5.7.5h.1c.44,0,.44-.22.71-.4l-.06.45c-.29.2-.23.39-.72.59s-.82-.14-1-.07.54,1.14,1.33,1.14h.1a1.53,1.53,0,0,0,1.4-1.41v-.6c0-.27,0-.31-.21-.4l.11-.15a5.4,5.4,0,0,1-.29-.76c-.11-.27-.34-.35-.41-.64.69.18,1.49,1.6,1.49,2.6,0,.84-.36,2.16-1.39,2.16h-.2c-.36,0-.46-.35-.65-.35H29c-.15,0-.2.15-.2.3v.15a.54.54,0,0,0,.1.3.9.9,0,0,0-.05.3v.05c0,.23.52.59.8.56l.65-.05a3.8,3.8,0,0,0,.48-.42c.16-.23.15-.47.42-.49a1.18,1.18,0,0,0,.89.91,7.07,7.07,0,0,1,.31-.8,1.43,1.43,0,0,0,.34-.81c0-.5-.2-.81-.2-1.2.44,0,.73,1.6,1.8,1.6.45,0,.69-.27.69-.75v-.35c0-.33-.41-.3-.59-.3m-2.3-1.66h0M23.34,8.38c-.32-.09-.29-.51-.95-.51s-.85.43-.85,1a1,1,0,0,0,.39.56.87.87,0,0,0,.72.21,1.24,1.24,0,0,0,1-1,1.2,1.2,0,0,0-.49-1c-.54-.3.17.57.19.78M18.74,10a1.51,1.51,0,0,1-.89-1.21V8.53c0-.1,0-.09,0-.15.15.11.33.7.85.7h.1c1.4,0,1.08-2,.2-2H18.7a1.28,1.28,0,0,0-1.15,1.36c0,1.24.91,1.36.95,1.8-.29,0-.85.31-.85.6s1,.8,1.05,1c-.24,0-.85.49-.85.7v.05c0,.41,1.14.64,1.58.53.26-.06,1.46-1,1.46-.53s-1.11.79-1.74.86a2.34,2.34,0,0,0-1.5,1.05,1.09,1.09,0,0,0,1,.55H19c0,.24-.65.31-.92.78,0,.08-.38,1.22-.38,1.27v.1c0,.31,1.21-.05,1.37-.13.46-.23.65-.86.88-.92,0,.42.28,1.2.59,1.2.62,0,1-.94,1.15-1.5s.2-1.81.75-1.81h.2c0,.15.05.09.05.2,0,.3-.72.88-.8,1.46a.84.84,0,0,0,.13.77c.1.15.3.63.47.63s.55-.43.6-.65c.33,0,.46.86,1,.86.28,0,.44-.65.55-.86.14.1.41.57.69.76a1.3,1.3,0,0,0,1,.28c.82-.11,1.46-.47,1.46-1.34v-.05a1.07,1.07,0,0,0-.89-.9h-.25c-.51,0-.59.34-.9.55.1.45,0,1.19.75,1.25v.15a1.3,1.3,0,0,1-1.37-.58c-.53-.72-.28-.59-.45-1.55a2.91,2.91,0,0,0-.61-1.45,2.24,2.24,0,0,0-1.26-.73L22,13c0-1.38-.28-2.13-1.48-2.63-.52-.22-1.34-.16-1.82-.33M34.31,2.51c-.76,0-.78.48-1.29.59L32.91,3c.28-1.2,2.14-.15,2.14-2.71a.31.31,0,0,0-.24-.25l-1,.26a1.21,1.21,0,0,0-.68.51c-.28.59-.27,1.34-1.12,1.34,0-.31.23-.32.38-.52A1.76,1.76,0,0,0,32.67,1a.82.82,0,0,0-.81-.91h-.15c-.23,0-.15.4-.15.65s-.43.79-.51,1a3.24,3.24,0,0,0-.18,1.37c0,1.62-.87,1.61-1,2.11.26.12.61-.46,1-.62a4,4,0,0,1,1.46-.29A2.6,2.6,0,0,0,33.64,4c.22-.08.37-.2.57-.29.4-.19.32,0,.64,0s.2-.14.25-.25c-.17-.36-.12-1-.79-1"/><path class="cls-1" d="M5.68,29.35h.15c.14-1.66.8-2.16,2.3-2.53v-.1a1.56,1.56,0,0,0-.45-.11H7.53a1.93,1.93,0,0,0-1.95,1.95v.31a1.7,1.7,0,0,0,.1.48m.7.31h.4a2.33,2.33,0,0,0,1.4-.89c.24-.33.72-1.53,0-1.53H8a2.45,2.45,0,0,0-1.8,2c0,.19,0,.42.2.42m.7.69.9-.06c.53-.37,1.14-.71,1.14-1.63v-.15c0-.33,0-.72-.24-.74C8.77,29.1,8.09,30,6.73,30c0,.18.14.33.35.32m4.24-5.52h0c.4,0,.7-.21.7-.58a.66.66,0,0,0-.65-.74h-.1c-.69,0-.69,1.32,0,1.32M.7,20.41A2.05,2.05,0,0,1,2.1,21,4.94,4.94,0,0,1,3,22.09c-.33-.08-.9-.68-1.35-.68H1.3a.9.9,0,0,0-.8.84v.16c0,.27.23.63.5.63s.41-.47,1.29-.47h0c.86,0,2.27,1.38,2.91,1.83a5.26,5.26,0,0,0,3.53,1c-.95.87-2.68.29-3.58-.22a5.52,5.52,0,0,0-1.73-.58c-.88.06-1.5.06-1.68-.72H1.64c-.14,0-.34.29-.34.47v.37a1.08,1.08,0,0,0,.89,1.1c-.1.17-.68.33-.95.52-.69.48-.23.22-1.09.43a.89.89,0,0,0,1,1l.11.15c-.38,0-.9.82-.9,1.31v.37c0,.24.2.41.2.63a2.59,2.59,0,0,1-.2.84c.06.12,0,.21.2.21H.9a1,1,0,0,0,.89-1.1c.28.08.81,1.08,1.87.92a2,2,0,0,0,1-.43,2.19,2.19,0,0,0,.58-.86v-.58c0-1-1.34-1.82-2.15-1.17a1.2,1.2,0,0,0-.47,1.31,1.24,1.24,0,0,0,1,.91h.1a.92.92,0,0,0,.9-.94v-.06a.89.89,0,0,0-.8-.78H3.59a1.58,1.58,0,0,0-.53.23c-.14.12,0,.38-.17.56,0-.78.26-1.16.95-1.16A1.29,1.29,0,0,1,5,29.19v.42a1.4,1.4,0,0,1-1.38,1.24,1.58,1.58,0,0,1-1.59-1,2.18,2.18,0,0,1,.14-2.1,2.92,2.92,0,0,1,1.6-1.05c1.18-.41,3.29-.16,4.41-.6a3.91,3.91,0,0,0,1.59-1.06,3.5,3.5,0,0,0,.91-1.83v-.63c.3,0,.54.63,1.7.63.07.17.2.68.25.89.09.43.34.58.38.81s-.44,0-.69.08a4.17,4.17,0,0,0-.9.26c-1,.36-1.61,1.63-1.92,2.76a16.61,16.61,0,0,0-.27,2.08c-.08.74-.14,1.29-.24,2a4,4,0,0,1-.84,1.49,1.83,1.83,0,0,1-1.56.56A1.63,1.63,0,0,1,5,32.5v0c0-.82.65-1.63,1.4-1.54a1.19,1.19,0,0,1,1,.5c.4.55.17.62.15,1.18L7,33.13l0-.05c0-.13.45-.47.45-.74v-.26a.94.94,0,0,0-1-.84c-1.07,0-1.06,2.16.3,2.16H7a1.21,1.21,0,0,0,1-1.27c0-2-3.19-2-3.19.21,0,1.3.58,1.29.69,1.74-.49.12-1,.41-1,1v.31a.52.52,0,0,0,.35.37c.28,0,.3-.23.77-.14a1.9,1.9,0,0,0,.88,0c.42-.13.37-.06.68-.33.14-.12.42-.39.61-.41a1.32,1.32,0,0,0,.9,1.16c.32-.23.07-.59.51-1.09.25-.3.47-.93.61-1l0,.2c.33.23.41.64.95.64h.2c.26,0,.6-.06.6-.32v0c0-.25-.51-.19-.48-1.33a6.53,6.53,0,0,0-.16-1.57c-.3-1-1-1.52-1-2.78,0-.59.14-1.72.45-1.95a4.9,4.9,0,0,0,.12,2,7,7,0,0,0,.74,1.69c.35.59,1.73,2.43,1.73,3.06v.11c0,1.16-.59,1.1-.59,1.42s.65.68.94.68.75-.6.75-1.1c0-.68-.58-1.19-.7-1.63a3.59,3.59,0,0,1,.84.69c.31.31.35.72.69.94l-.08.73v.32c0,.28.51.37.8.37s.5-.37.58-.65a1,1,0,0,0-.2-1c-.22-.35-1.18-1.08-1.23-1.27a4,4,0,0,0,1.15.36c.77.05.82-.26,1.19-.26s.46.26.5,0a1.14,1.14,0,0,0-.18-.56c-.34-.53-.65-.5-.82-.77.35-.19.95-.58.95-1.1v-.16c0-.94-1.24-1.53-1.64-.73.1.2.35.44.35.68v.47c0,.45-.54.94-.87,1.09a2.9,2.9,0,0,1-1.53.17,3.15,3.15,0,0,1-2.24-1.68c.33,0,.88.95,2.09.95h.2c.61,0,1.57-.74,1.58-1.3s-.51-1.65-1.21-1.64l.08.68a1.48,1.48,0,0,1-1.1,1.21H13c-.23,0-.49-.07-.54-.27.43,0,1-.12,1-.68,0-.39-.19-.79-.55-.79-.14,0-.32.32-.84.32H12a1.61,1.61,0,0,1-1.4-1.95c.09-.91.76-1.89,1.6-1.89h.2c.43,0,.58.16.94.16.28.43.7.5.7,1.42V27a1.25,1.25,0,0,1-.53,1c-.48.35-.91.06-1.26.24.05.23.24.26.49.26A1.64,1.64,0,0,0,14.19,26a8.86,8.86,0,0,0-1-1.18,2.13,2.13,0,0,1-.51-1.72L12.62,23c-2.27,0-1.93-2-3.54-2H9a1.71,1.71,0,0,0-1.7,1.63c0,.61.46,1.36,1,1.36h.1c.61,0,1.33-.58,1.25-1.15l-.06-.48c-.29-.2-.29-.52-.89-.52H8.53a.9.9,0,0,0-.75.79v.31c0,.18.32.51.4.63-1,0-.89-2.26.8-2.26H9c.57,0,.75.32,1.05.58s.22,1.15.35,1.37c-.36.58-.06.83-.82,1.44s-.89.38-1.67.35a1.67,1.67,0,0,1-1.22-1c-.47-1,.37-1.55.37-1.7v-.16c0-.23-.42-.52-.7-.52h-.1c-.43,0-.43.23-.7.42l0-.47c.3-.21.24-.41.72-.62s.82.14,1,.07S6.77,19.83,6,19.83h-.1A1.56,1.56,0,0,0,4.49,21.3v.63c0,.29,0,.33.2.43l-.1.15c.14.29.18.51.29.8s.34.37.41.67c-.7-.19-1.5-1.68-1.5-2.73,0-.87.37-2.26,1.4-2.26h.2c.36,0,.46.37.64.37h.1c.16,0,.2-.16.2-.32v-.16a.54.54,0,0,0-.1-.31,1,1,0,0,0,0-.32V18.2c0-.24-.51-.61-.8-.59l-.64.07a2.51,2.51,0,0,0-.48.44c-.17.23-.16.48-.42.5a1.23,1.23,0,0,0-.9-.94c-.11.23-.19.66-.3.83a1.54,1.54,0,0,0-.35.85c0,.53.2.85.2,1.26-.43,0-.72-1.68-1.79-1.68-.46,0-.7.28-.7.79v.36c0,.35.42.32.6.32M3,22.14H3m8.78,5.16c.31.09.29.52,1,.52s.84-.45.84-1.05a1.12,1.12,0,0,0-.38-.59.82.82,0,0,0-.73-.21,1.2,1.2,0,0,0-.5,2.14c.54.31-.17-.6-.18-.81m4.59-1.7a1.58,1.58,0,0,1,.89,1.28v.26a.21.21,0,0,1-.05.16c-.15-.12-.32-.74-.84-.74h-.1c-1.41,0-1.09,2.05-.2,2.05h.34a1.32,1.32,0,0,0,1.15-1.42c0-1.3-.91-1.43-.95-1.89.3,0,.85-.32.85-.63,0-.46-1-.84-1.05-1.05.24,0,.85-.52.85-.74v-.05c0-.43-1.14-.67-1.57-.56-.26.06-1.47,1.07-1.47.56s1.11-.83,1.74-.9a2.37,2.37,0,0,0,1.5-1.1,1.06,1.06,0,0,0-1-.58H16.1c0-.25.66-.33.92-.82.05-.08.38-1.28.38-1.33V18c0-.32-1.21.06-1.36.14-.47.24-.66.9-.88,1,0-.44-.29-1.26-.6-1.26-.62,0-1,1-1.14,1.58s-.21,1.89-.75,1.89h-.2c0-.15-.05-.09-.05-.21,0-.31.71-.92.8-1.52a1,1,0,0,0-.14-.81c-.09-.16-.3-.66-.46-.66s-.55.45-.6.68c-.34,0-.46-.89-1-.89-.27,0-.44.67-.55.89-.14-.1-.41-.59-.69-.8a1.25,1.25,0,0,0-1-.29c-.82.12-1.47.49-1.47,1.4v.06a1.12,1.12,0,0,0,.9.94h.25c.51,0,.59-.36.9-.57-.1-.48,0-1.25-.75-1.32V18a1.27,1.27,0,0,1,1.36.61c.53.76.29.62.45,1.63A3.19,3.19,0,0,0,11,21.8a2.31,2.31,0,0,0,1.27.77l.79-.07c0,1.45.28,2.24,1.48,2.76.53.23,1.35.16,1.82.34M.8,33.45c.75,0,.77-.5,1.28-.62l.11.09c-.27,1.26-2.14.16-2.14,2.84A.31.31,0,0,0,.3,36s.86-.23.94-.26a1.37,1.37,0,0,0,.69-.54c.27-.62.27-1.4,1.11-1.4,0,.32-.23.33-.38.54a2.37,2.37,0,0,0-.23.71.85.85,0,0,0,.81,1h.15c.23,0,.15-.42.15-.69s.43-.82.52-1a3.74,3.74,0,0,0,.18-1.44c0-1.69.86-1.69,1-2.21-.26-.13-.61.49-1,.65a3.79,3.79,0,0,1-1.46.3,2.59,2.59,0,0,0-1.33.28,5,5,0,0,0-.56.3c-.4.2-.32-.06-.65-.06-.16,0-.19.15-.25.27.17.38.12,1.05.8,1.05"/></g></g></svg>