<svg xmlns="http://www.w3.org/2000/svg"  preserveAspectRatio="none" viewBox="0 0 35.23 36.13"><defs><style>.cls-1{fill:#623c25;fill-rule:evenodd;}</style></defs><title>4_r_d</title><g id="Layer_2" data-name="Layer 2"><g id="Layer_1-2" data-name="Layer 1"><path class="cls-1" d="M11.87,29.71h-.15c-.13-1.58-.8-2.06-2.29-2.41v-.1a1.42,1.42,0,0,1,.44-.1H10A1.88,1.88,0,0,1,12,29v.31a1.56,1.56,0,0,1-.1.45m-.7.3h-.4a2.37,2.37,0,0,1-1.4-.85c-.24-.32-.72-1.46.06-1.46h.14a2.38,2.38,0,0,1,1.8,1.91c0,.17,0,.4-.2.4m-.7.65-.9-.05c-.52-.36-1.14-.68-1.14-1.56V28.9c0-.31,0-.68.25-.7a2.06,2.06,0,0,0,2.14,2.16c0,.17-.14.32-.35.3M6.23,25.39H6.18c-.4,0-.69-.19-.69-.55a.64.64,0,0,1,.64-.7h.1c.69,0,.69,1.25,0,1.25m10.62-4.21a2,2,0,0,0-1.39.55,4.92,4.92,0,0,0-.9,1.05c.34-.07.9-.65,1.35-.65h.35a.88.88,0,0,1,.79.81v.15c0,.26-.23.6-.49.6s-.42-.45-1.3-.45h0c-.86,0-2.27,1.31-2.9,1.74a5.44,5.44,0,0,1-3.53,1c.94.83,2.67.28,3.57-.21a6,6,0,0,1,1.73-.56c.88.07,1.51.06,1.68-.68h.15c.14,0,.35.28.35.45v.35a1.07,1.07,0,0,1-.9,1.06c.1.15.68.3,1,.49.68.45.22.21,1.08.41,0,.64-.34.95-1,1l-.1.14c.37,0,.89.78.89,1.26V30c0,.22-.2.39-.2.6a2.68,2.68,0,0,0,.2.8c-.05.11,0,.2-.2.2h-.35a1,1,0,0,1-.89-1c-.28.07-.81,1-1.87.87a1.9,1.9,0,0,1-1-.41,2,2,0,0,1-.58-.81v-.55a1.44,1.44,0,0,1,2.15-1.12,1.1,1.1,0,0,1,.47,1.25,1.23,1.23,0,0,1-1,.87h-.1a.9.9,0,0,1-.9-.9v-.05a.88.88,0,0,1,.8-.76H14a1.5,1.5,0,0,1,.53.23c.14.11-.05.36.17.53,0-.75-.26-1.11-.95-1.11a1.26,1.26,0,0,0-1.14,1V30a1.37,1.37,0,0,0,1.37,1.18,1.59,1.59,0,0,0,1.59-.91,2,2,0,0,0-.14-2,2.91,2.91,0,0,0-1.6-1c-1.18-.4-3.28-.15-4.41-.58a3.87,3.87,0,0,1-1.59-1,3.22,3.22,0,0,1-.91-1.74v-.6c-.3,0-.53.6-1.69.6a6.53,6.53,0,0,0-.25.85c-.1.41-.35.55-.38.78s.43,0,.68.07a3.56,3.56,0,0,1,.9.25,3.74,3.74,0,0,1,1.92,2.63,13.7,13.7,0,0,1,.27,2c.08.71.14,1.24.25,1.92a3.64,3.64,0,0,0,.83,1.41,1.89,1.89,0,0,0,1.56.54,1.6,1.6,0,0,0,1.55-1.6v0a1.42,1.42,0,0,0-1.41-1.47c-.54.06-.76.13-1,.48-.4.52-.18.59-.15,1.12l.64.52,0,0c0-.13-.45-.45-.45-.7v-.26a.93.93,0,0,1,.95-.8c1.07,0,1.06,2.06-.3,2.06h-.25a1.16,1.16,0,0,1-1-1.21c0-1.92,3.2-1.9,3.2.21,0,1.23-.59,1.22-.7,1.65.49.12,1,.39,1,1v.3a.5.5,0,0,1-.34.36c-.29,0-.31-.22-.78-.14a1.9,1.9,0,0,1-.88,0c-.42-.13-.36-.06-.68-.31a1.62,1.62,0,0,0-.61-.4,1.25,1.25,0,0,1-.89,1.11c-.32-.22-.08-.56-.52-1-.25-.28-.46-.88-.6-1l0,.2c-.32.22-.4.6-1,.6h-.2c-.25,0-.6-.05-.6-.3v0c0-.24.51-.18.48-1.26a6.08,6.08,0,0,1,.16-1.51c.3-.92,1-1.44,1-2.65,0-.56-.13-1.64-.45-1.85a4.48,4.48,0,0,1-.12,1.89,6.78,6.78,0,0,1-.74,1.61c-.35.56-1.73,2.31-1.73,2.92v.1c0,1.1.6,1,.6,1.35s-.66.66-1,.66-.75-.58-.75-1.06c0-.65.59-1.13.7-1.55a3.39,3.39,0,0,0-.84.66c-.31.3-.35.68-.69.89l.08.7v.31c0,.26-.51.35-.8.35s-.5-.35-.57-.63a.89.89,0,0,1,.19-.91c.22-.34,1.18-1,1.23-1.22a4.81,4.81,0,0,1-1.14.35c-.78,0-.82-.25-1.2-.25s-.46.25-.49,0a.94.94,0,0,1,.17-.53c.34-.51.65-.48.82-.74C.71,32,.1,31.6.1,31.11V31c0-.9,1.25-1.46,1.64-.7-.1.2-.34.42-.34.65v.45c0,.43.53.9.86,1a3.13,3.13,0,0,0,1.53.17A3.16,3.16,0,0,0,6,31c-.33,0-.87.9-2.09.9h-.2c-.61,0-1.57-.7-1.58-1.24s.52-1.57,1.21-1.56l-.08.65c0,.43.68,1.15,1.1,1.15h.15c.23,0,.5-.06.55-.25-.44,0-1-.12-1-.65,0-.37.19-.76.55-.76.15,0,.33.31.84.31h.11a1.56,1.56,0,0,0,1.4-1.86c-.1-.87-.76-1.81-1.6-1.81h-.2c-.43,0-.59.15-.95.15-.28.42-.7.49-.7,1.36v.1a1.17,1.17,0,0,0,.53.92c.48.34.91.06,1.27.23-.06.22-.25.25-.5.25a1.56,1.56,0,0,1-1.43-2.33,8.67,8.67,0,0,1,1-1.14,2,2,0,0,0,.52-1.63l.09-.11c2.26,0,1.92-1.91,3.54-1.91h.1a1.67,1.67,0,0,1,1.69,1.56c0,.58-.46,1.3-1,1.3h-.1c-.61,0-1.33-.55-1.26-1.1L8,23c.29-.2.3-.51.9-.51H9a.88.88,0,0,1,.74.76v.3c0,.16-.32.48-.4.6,1,0,.89-2.16-.79-2.16H8.53c-.56,0-.74.31-1,.55s-.22,1.1-.35,1.31c.37.55.06.79.83,1.38.61.47.88.36,1.66.32a1.62,1.62,0,0,0,1.22-1c.47-.94-.37-1.49-.37-1.62v-.16c0-.22.43-.5.7-.5h.1c.43,0,.44.23.7.4l-.05-.45c-.3-.19-.24-.38-.72-.58s-.82.13-1,.06.54-1.13,1.33-1.13h.1a1.53,1.53,0,0,1,1.4,1.4v.6c0,.28,0,.32-.21.41l.1.15a7,7,0,0,0-.29.76c-.1.26-.33.35-.4.64A3.17,3.17,0,0,0,13.76,22c0-.83-.36-2.15-1.39-2.15h-.2c-.37,0-.46.35-.65.35h-.1c-.15,0-.2-.15-.2-.3v-.15a.54.54,0,0,1,.1-.31.81.81,0,0,1-.05-.3v-.05c0-.23.52-.58.8-.56l.65.06a3.8,3.8,0,0,1,.48.42c.16.22.15.46.41.48a1.21,1.21,0,0,1,.9-.9c.11.23.19.64.3.8a1.35,1.35,0,0,1,.35.81c0,.5-.2.81-.2,1.2.44,0,.72-1.6,1.8-1.6.45,0,.69.27.69.75v.35c0,.33-.42.3-.6.3m-2.29,1.65c.09-.08-.09.09,0,0M5.78,27.75c-.31.09-.28.5-.94.5s-.85-.43-.85-1a1,1,0,0,1,.39-.57.88.88,0,0,1,.72-.2,1.23,1.23,0,0,1,1,1,1.19,1.19,0,0,1-.48,1c-.54.29.17-.57.18-.78M1.19,26.14A1.48,1.48,0,0,0,.3,27.35v.25c0,.1,0,.09,0,.15.15-.11.33-.7.85-.7h.1c1.4,0,1.08,1.95.2,1.95H1.15A1.28,1.28,0,0,1,0,27.65c0-1.24.91-1.37,1-1.81-.29,0-.85-.3-.85-.6s1-.8,1-1c-.24,0-.85-.49-.85-.7v-.05c0-.41,1.14-.64,1.58-.54.25.06,1.46,1,1.46.54s-1.11-.79-1.74-.86A2.37,2.37,0,0,1,.1,21.58a1.09,1.09,0,0,1,1-.55h.35c0-.24-.66-.31-.92-.78C.48,20.17.15,19,.15,19v-.1c0-.31,1.21.05,1.37.13.46.24.65.87.87.92,0-.42.29-1.2.6-1.2.62,0,1,1,1.15,1.51s.2,1.8.75,1.8h.2c0-.14,0-.08,0-.2,0-.29-.72-.88-.8-1.45a.84.84,0,0,1,.13-.77c.09-.16.3-.64.47-.64s.54.43.6.65c.33,0,.45-.85,1-.85.28,0,.44.64.55.85.14-.09.41-.56.69-.76a1.28,1.28,0,0,1,1-.27c.83.11,1.47.46,1.47,1.33V20a1.07,1.07,0,0,1-.9.9H9.13c-.52,0-.6-.35-.9-.55.09-.46,0-1.19.75-1.26v-.15a1.3,1.3,0,0,0-1.37.58c-.53.72-.28.6-.45,1.56a2.83,2.83,0,0,1-.61,1.44,2.27,2.27,0,0,1-1.26.74l-.8-.06c0,1.38-.28,2.13-1.48,2.63-.52.22-1.35.15-1.82.33m15.57,7.48c-.76,0-.78-.48-1.29-.59l-.11.09c.28,1.2,2.14.15,2.14,2.71,0,.13-.18.25-.25.25l-.94-.26a1.31,1.31,0,0,1-.69-.51c-.27-.6-.26-1.34-1.11-1.34,0,.31.23.32.38.52a2,2,0,0,1,.23.67.82.82,0,0,1-.81.92h-.15c-.23,0-.15-.4-.15-.66a9,9,0,0,1-.51-1,3.23,3.23,0,0,1-.19-1.37c0-1.62-.86-1.61-1-2.11.26-.12.61.46,1,.62a3.84,3.84,0,0,0,1.46.28,2.7,2.7,0,0,1,1.33.27,3.71,3.71,0,0,1,.56.29c.41.19.32-.06.65-.06.17,0,.2.15.25.26-.17.36-.12,1-.79,1"/><path class="cls-1" d="M23.36,11.73h.15c.13-1.65.79-2.15,2.29-2.52v-.1A1.19,1.19,0,0,0,25.35,9H25.2A1.92,1.92,0,0,0,23.26,11v.31a1.56,1.56,0,0,0,.1.47m.7.32h.4a2.28,2.28,0,0,0,1.39-.89c.25-.33.73-1.53-.05-1.53h-.15a2.44,2.44,0,0,0-1.79,2c0,.19,0,.42.2.42m.7.68.89-.05c.53-.37,1.15-.71,1.15-1.63v-.16c0-.32,0-.71-.25-.73-.1,1.32-.78,2.26-2.14,2.26,0,.18.13.33.35.31M29,7.21h.06c.4,0,.69-.2.69-.58a.65.65,0,0,0-.65-.73H29c-.68,0-.68,1.31,0,1.31M18.37,2.8a2,2,0,0,1,1.4.57,5,5,0,0,1,.9,1.11c-.34-.08-.9-.68-1.35-.68H19a.9.9,0,0,0-.8.84v.15c0,.28.24.64.5.64S19.09,5,20,5H20c.86,0,2.26,1.38,2.9,1.83a5.24,5.24,0,0,0,3.53,1c-.94.87-2.67.29-3.57-.23A6.15,6.15,0,0,0,21.14,7c-.87.07-1.5.06-1.67-.71h-.15c-.15,0-.35.29-.35.47v.37a1.09,1.09,0,0,0,.9,1.1c-.1.17-.68.32-1,.52-.68.47-.23.22-1.08.43a.88.88,0,0,0,1,1l.11.16c-.38,0-.89.82-.9,1.31V12c0,.24.2.41.2.63a2.66,2.66,0,0,1-.2.84c.06.12.05.21.2.21h.35a1,1,0,0,0,.9-1.1c.28.07.8,1.07,1.87.91a2,2,0,0,0,1-.43,2.09,2.09,0,0,0,.58-.85v-.58a1.44,1.44,0,0,0-2.15-1.17,1.18,1.18,0,0,0-.47,1.31,1.24,1.24,0,0,0,1,.91h.1a.91.91,0,0,0,.89-.95v-.05a.89.89,0,0,0-.79-.79h-.25a1.51,1.51,0,0,0-.53.24c-.15.11.05.38-.17.55,0-.78.26-1.15.95-1.15a1.27,1.27,0,0,1,1.14,1.05V12a1.4,1.4,0,0,1-1.38,1.24,1.58,1.58,0,0,1-1.58-1,2.15,2.15,0,0,1,.14-2.1,2.92,2.92,0,0,1,1.6-1c1.18-.42,3.28-.16,4.41-.61a3.78,3.78,0,0,0,1.59-1.06,3.5,3.5,0,0,0,.91-1.82V5c.3,0,.53.63,1.69.63a6.72,6.72,0,0,1,.25.89c.1.43.35.58.38.81s-.43,0-.68.08a3.55,3.55,0,0,0-.9.26,3.9,3.9,0,0,0-1.92,2.76,14.74,14.74,0,0,0-.27,2.08c-.09.74-.15,1.29-.25,2A3.89,3.89,0,0,1,25.82,16a1.85,1.85,0,0,1-1.56.56,1.63,1.63,0,0,1-1.55-1.68v-.05c0-.82.66-1.63,1.41-1.54a1.16,1.16,0,0,1,1,.5c.4.55.18.62.15,1.18l-.64.54,0,0c0-.14.45-.47.45-.74v-.26a.94.94,0,0,0-.95-.84c-1.07,0-1.06,2.15.3,2.15h.25c.54,0,1-.62,1-1.26,0-2-3.19-2-3.19.21,0,1.3.59,1.29.7,1.74-.49.12-1.05.41-1.05,1v.31a.52.52,0,0,0,.35.37c.29,0,.31-.23.78-.14a1.9,1.9,0,0,0,.88,0,1.25,1.25,0,0,0,.68-.33c.14-.12.42-.4.6-.41a1.31,1.31,0,0,0,.9,1.15c.32-.22.08-.58.51-1.09.26-.29.47-.92.61-1l0,.21c.32.23.4.63,1,.63h.2c.25,0,.59-.06.59-.31v-.06c0-.25-.5-.18-.47-1.32a7.23,7.23,0,0,0-.16-1.58c-.3-1-1-1.51-1-2.77,0-.6.13-1.73.45-1.95a4.9,4.9,0,0,0,.12,2,6.65,6.65,0,0,0,.74,1.69c.35.59,1.73,2.43,1.73,3.06v.11c0,1.15-.6,1.1-.6,1.42s.66.68.95.68.75-.6.75-1.11c0-.67-.59-1.18-.7-1.63a3.59,3.59,0,0,1,.84.7c.31.31.35.72.69.94l-.08.73v.32c0,.28.51.36.79.36s.51-.36.58-.65a1,1,0,0,0-.19-1c-.22-.36-1.19-1.08-1.23-1.28a4.36,4.36,0,0,0,1.14.37c.78,0,.82-.26,1.2-.26s.46.26.49,0a1.12,1.12,0,0,0-.17-.56c-.35-.54-.65-.5-.82-.77.34-.19,1-.59,1-1.1v-.16c0-.94-1.25-1.54-1.65-.74.11.21.35.44.35.69v.47A1.49,1.49,0,0,1,33,14.55a2.82,2.82,0,0,1-1.53.18,3.2,3.2,0,0,1-2.25-1.68c.33,0,.88.95,2.1.95h.2c.6,0,1.57-.74,1.57-1.3s-.51-1.65-1.2-1.65l.08.68a1.49,1.49,0,0,1-1.1,1.21h-.15c-.23,0-.5-.06-.55-.26.44,0,1.05-.13,1.05-.68,0-.39-.2-.79-.55-.79-.15,0-.33.31-.85.31h-.1a1.61,1.61,0,0,1-1.4-1.95c.1-.9.76-1.88,1.6-1.88h.2c.43,0,.59.15.95.15.28.44.7.51.7,1.42v.11a1.26,1.26,0,0,1-.53,1c-.48.35-.91.06-1.27.24.06.22.24.26.5.26a1.64,1.64,0,0,0,1.43-2.45,9.77,9.77,0,0,0-1-1.19,2.1,2.1,0,0,1-.52-1.71l-.09-.12c-2.26,0-1.92-2-3.54-2h-.1A1.7,1.7,0,0,0,25,5c0,.61.46,1.36,1,1.36h.1c.61,0,1.33-.58,1.25-1.16l-.05-.47c-.29-.2-.3-.52-.9-.52H26.2a.9.9,0,0,0-.75.79v.31c0,.17.33.51.4.63-1,0-.88-2.26.8-2.26h.05c.56,0,.74.32,1.05.58s.22,1.15.35,1.37c-.37.57-.06.83-.83,1.44s-.88.38-1.67.34c-.56,0-1-.58-1.21-1a1.56,1.56,0,0,1,.37-1.7V4.53c0-.24-.43-.52-.7-.52H24c-.44,0-.44.23-.71.42L23.31,4c.29-.2.23-.4.72-.61s.82.14,1,.07-.54-1.19-1.33-1.19h-.1a1.57,1.57,0,0,0-1.4,1.47v.63c0,.29,0,.33.21.43l-.11.15a6.42,6.42,0,0,1,.29.8c.11.28.34.36.41.67-.69-.19-1.49-1.68-1.49-2.73,0-.87.36-2.26,1.39-2.26h.2c.36,0,.46.37.65.37h.1c.15,0,.2-.16.2-.32V1.27a.54.54,0,0,0-.1-.31A1,1,0,0,0,24,.64V.59c0-.24-.52-.61-.8-.59l-.65.06A3.29,3.29,0,0,0,22,.5c-.16.23-.15.49-.42.51a1.21,1.21,0,0,0-.89-.95,7.93,7.93,0,0,1-.31.84,1.53,1.53,0,0,0-.34.84c0,.53.2.86.2,1.27-.44,0-.73-1.69-1.8-1.69-.45,0-.69.29-.69.79v.37c0,.35.41.32.59.32m2.3,1.73c-.09-.09.09.1,0,0m8.77,5.15c.32.09.29.53.95.53s.85-.45.85-1.05a1.11,1.11,0,0,0-.39-.6.87.87,0,0,0-.72-.21,1.28,1.28,0,0,0-1,1.07,1.28,1.28,0,0,0,.49,1.08c.54.31-.17-.6-.19-.82M34,8a1.6,1.6,0,0,1,.89,1.27v.27c0,.1,0,.09,0,.15C34.73,9.57,34.55,9,34,9h-.1c-1.4,0-1.08,2.05-.2,2.05h.35a1.32,1.32,0,0,0,1.15-1.42c0-1.3-.91-1.43-.95-1.89.29,0,.85-.32.85-.63s-1-.84-1.05-1.06c.24,0,.85-.51.85-.73v0c0-.43-1.14-.67-1.58-.56-.26.06-1.46,1.06-1.46.56s1.11-.83,1.74-.9a2.4,2.4,0,0,0,1.5-1.1,1.07,1.07,0,0,0-1-.58h-.35c0-.26.65-.33.92-.82,0-.09.38-1.28.38-1.34V.38c0-.32-1.21,0-1.37.14-.46.24-.65.9-.88,1,0-.44-.28-1.26-.59-1.26-.62,0-1,1-1.15,1.58s-.2,1.89-.75,1.89h-.2c0-.15-.05-.09-.05-.21,0-.31.72-.92.8-1.52a.92.92,0,0,0-.13-.81c-.1-.16-.3-.67-.47-.67s-.55.45-.6.69c-.33,0-.46-.9-1-.9-.28,0-.44.67-.55.9-.14-.1-.41-.6-.69-.8a1.23,1.23,0,0,0-1-.29C25.6.2,25,.57,25,1.48v.05a1.11,1.11,0,0,0,.89,1h.25c.51,0,.59-.36.9-.58-.1-.47,0-1.25-.75-1.31V.43A1.28,1.28,0,0,1,27.62,1c.53.75.28.62.45,1.63a3.13,3.13,0,0,0,.61,1.52A2.23,2.23,0,0,0,29.94,5l.8-.06c0,1.45.28,2.24,1.48,2.76.52.23,1.34.16,1.82.34M18.47,15.84c.76,0,.78-.51,1.29-.62l.11.09c-.28,1.26-2.14.16-2.14,2.84a.31.31,0,0,0,.24.26l1-.27a1.24,1.24,0,0,0,.68-.53c.28-.63.27-1.41,1.12-1.41,0,.33-.23.34-.38.55a2.12,2.12,0,0,0-.23.71.84.84,0,0,0,.81.95h.15c.23,0,.15-.42.15-.68a11.19,11.19,0,0,0,.51-1,3.51,3.51,0,0,0,.18-1.43c0-1.7.87-1.69,1-2.21-.26-.13-.61.48-1,.65a3.83,3.83,0,0,1-1.46.3,2.41,2.41,0,0,0-1.33.28,5.07,5.07,0,0,0-.57.29c-.4.2-.31-.05-.64-.05-.17,0-.2.15-.25.26.17.38.12,1.06.79,1.06"/><path class="cls-1" d="M29.54,24.93h-.15c-.13,1.58-.79,2.06-2.29,2.41v.1a1.49,1.49,0,0,0,.45.1h.15a1.87,1.87,0,0,0,1.94-1.85v-.31a1.56,1.56,0,0,0-.1-.45m-.7-.3h-.39a2.34,2.34,0,0,0-1.4.85c-.24.32-.72,1.46.05,1.46h.15A2.37,2.37,0,0,0,29,25c0-.18,0-.4-.2-.4M28.15,24l-.9.05c-.53.36-1.15.68-1.15,1.55v.16c0,.31,0,.67.25.7a2.07,2.07,0,0,1,2.15-2.16c0-.17-.14-.32-.35-.3m-4.24,5.27h-.05c-.4,0-.7.19-.7.55a.64.64,0,0,0,.65.7h.1c.68,0,.69-1.25,0-1.25m10.62,4.21a2.08,2.08,0,0,1-1.4-.55,5,5,0,0,1-.89-1.06c.33.08.9.66,1.34.66h.35a.89.89,0,0,0,.8-.81v-.15c0-.26-.24-.6-.5-.6s-.41.45-1.3.45h0c-.86,0-2.26-1.31-2.9-1.74a5.44,5.44,0,0,0-3.53-1c.95-.82,2.68-.27,3.57.22a6.1,6.1,0,0,0,1.74.56c.88-.07,1.5-.06,1.67.68h.15c.15,0,.35-.28.35-.45v-.35a1.05,1.05,0,0,0-.9-1.06c.11-.15.69-.3,1-.49.69-.45.23-.21,1.09-.41a.87.87,0,0,0-1-1L34,26.29c.38,0,.9-.79.9-1.26v-.35c0-.23-.2-.39-.2-.6a2.41,2.41,0,0,1,.2-.8c-.06-.11-.05-.2-.2-.2h-.35a1,1,0,0,0-.9,1.05c-.28-.07-.8-1-1.86-.88a2.08,2.08,0,0,0-1,.41,2.16,2.16,0,0,0-.59.82V25a1.45,1.45,0,0,0,2.16,1.12,1.13,1.13,0,0,0,.47-1.25,1.25,1.25,0,0,0-1-.87h-.1a.9.9,0,0,0-.9.9V25a.88.88,0,0,0,.8.76h.25a1.67,1.67,0,0,0,.53-.23c.14-.11-.06-.36.17-.53,0,.75-.26,1.11-1,1.11a1.27,1.27,0,0,1-1.15-1v-.4a1.38,1.38,0,0,1,1.38-1.18,1.58,1.58,0,0,1,1.58.91,2,2,0,0,1-.14,2,2.92,2.92,0,0,1-1.59,1c-1.18.39-3.29.15-4.42.58a3.84,3.84,0,0,0-1.58,1,3.22,3.22,0,0,0-.91,1.74v.6c-.31,0-.54-.6-1.7-.6a8.59,8.59,0,0,1-.25-.85c-.1-.41-.35-.56-.38-.78s.44,0,.68-.07a3.76,3.76,0,0,0,.91-.25,3.73,3.73,0,0,0,1.91-2.63,15.23,15.23,0,0,0,.28-2c.08-.71.14-1.24.24-1.92a3.66,3.66,0,0,1,.84-1.41,1.87,1.87,0,0,1,1.56-.54,1.59,1.59,0,0,1,1.54,1.6v0a1.41,1.41,0,0,1-1.4,1.47c-.55-.06-.77-.13-1-.48-.4-.52-.17-.59-.15-1.12l.65-.52,0,.05c0,.13-.45.45-.45.7v.25a.92.92,0,0,0,.95.81c1.06,0,1.06-2.06-.3-2.06h-.25a1.16,1.16,0,0,0-1,1.2c0,1.93,3.19,1.9,3.19-.2,0-1.23-.58-1.23-.7-1.65.49-.12,1.05-.39,1.05-1v-.31a.51.51,0,0,0-.35-.35c-.28,0-.31.22-.78.13a2,2,0,0,0-.87,0c-.42.13-.37.06-.68.31a1.62,1.62,0,0,1-.61.4,1.26,1.26,0,0,0-.9-1.11c-.32.22-.07.56-.51,1-.25.28-.47.88-.61,1l0-.2c-.32-.22-.4-.6-.94-.6h-.2c-.26,0-.6.05-.6.3v.05c0,.24.51.18.48,1.26a6,6,0,0,0,.16,1.5c.3.93,1,1.45,1,2.65,0,.57-.13,1.65-.44,1.86a4.63,4.63,0,0,0-.12-1.89,7,7,0,0,0-.74-1.61c-.35-.56-1.74-2.31-1.74-2.92v-.1c0-1.11.6-1.05.6-1.35s-.65-.66-.95-.66-.75.58-.75,1.06c0,.64.59,1.13.7,1.55a3.35,3.35,0,0,1-.83-.66c-.31-.3-.35-.68-.69-.9l.08-.7v-.3c0-.26-.51-.35-.8-.35s-.51.35-.58.62a.88.88,0,0,0,.2.92c.21.34,1.18,1,1.23,1.22a4.35,4.35,0,0,0-1.15-.35c-.77,0-.82.25-1.2.25-.23,0-.46-.25-.49,0a1,1,0,0,0,.17.53c.35.51.65.48.82.74-.34.18-.95.55-.95,1.05v.15c0,.89,1.25,1.46,1.65.7-.1-.2-.35-.42-.35-.65v-.45c0-.43.54-.9.87-1a3.08,3.08,0,0,1,1.52-.17,3.17,3.17,0,0,1,2.25,1.61c-.33,0-.88-.9-2.1-.9h-.19c-.61,0-1.58.7-1.58,1.23s.51,1.57,1.21,1.57L21,24.93c0-.43.68-1.15,1.09-1.15h.15c.23,0,.5.06.55.25-.43,0-1.05.12-1.05.65,0,.37.2.76.55.76.15,0,.33-.31.85-.31h.1A1.55,1.55,0,0,1,24.61,27c-.09.87-.76,1.81-1.6,1.81h-.2c-.43,0-.59-.16-.95-.16-.27-.41-.69-.48-.69-1.35v-.1a1.17,1.17,0,0,1,.52-.92c.49-.34.92-.06,1.27-.23-.06-.22-.24-.25-.5-.25A1.56,1.56,0,0,0,21,28.12a9.52,9.52,0,0,0,1,1.14,1.91,1.91,0,0,1,.52,1.63l.09.11c2.26,0,1.92,1.91,3.54,1.91h.1A1.68,1.68,0,0,0,28,31.35c0-.58-.46-1.3-1-1.3h-.1c-.61,0-1.33.55-1.25,1.1l0,.45c.29.2.3.51.9.5h.15a.88.88,0,0,0,.75-.76v-.3c0-.16-.32-.48-.4-.6.95,0,.89,2.16-.8,2.16H26.2c-.56,0-.74-.31-1.05-.55s-.21-1.1-.34-1.31c.36-.55.06-.79.82-1.38s.88-.36,1.67-.32a1.6,1.6,0,0,1,1.21,1c.47.94-.36,1.48-.36,1.62v.15c0,.23.42.51.69.51h.1c.44,0,.44-.23.71-.4l-.06.45c-.29.19-.23.38-.71.58s-.82-.13-1-.06S28.45,34,29.24,34h.1a1.53,1.53,0,0,0,1.4-1.4V32c0-.27,0-.31-.21-.4l.11-.15a7,7,0,0,1-.29-.76c-.11-.26-.34-.35-.41-.64a3.16,3.16,0,0,1,1.5,2.61c0,.83-.37,2.15-1.4,2.15h-.2c-.36,0-.46-.35-.65-.35h-.1c-.15,0-.19.15-.2.3v.15a.54.54,0,0,0,.1.31,1.09,1.09,0,0,0,0,.3v0c0,.22.52.58.8.56l.65-.06a3.21,3.21,0,0,0,.48-.42c.16-.22.16-.46.42-.48a1.2,1.2,0,0,0,.9.9,5.61,5.61,0,0,1,.3-.8,1.4,1.4,0,0,0,.34-.81c0-.5-.2-.81-.2-1.2.44,0,.73,1.6,1.8,1.6.46,0,.7-.27.7-.75v-.35c0-.33-.42-.3-.6-.3M32.24,31.8c.08.09-.09-.08,0,0m-8.78-4.91c-.32-.09-.29-.5-.95-.5s-.85.43-.85,1c0,.17.25.46.39.57a.89.89,0,0,0,.72.2,1.24,1.24,0,0,0,1-1,1.22,1.22,0,0,0-.48-1c-.54-.29.16.57.18.78m-4.6,1.61A1.51,1.51,0,0,1,18,27.29V27c0-.1,0-.09.05-.15.16.11.33.7.85.7H19c1.4,0,1.09-1.95.2-1.95h-.35A1.27,1.27,0,0,0,17.67,27c0,1.24.92,1.37.95,1.81-.29,0-.85.3-.85.6s1,.79,1.05,1c-.24,0-.85.49-.85.7v0c0,.41,1.14.64,1.58.54.26-.06,1.47-1,1.47-.54s-1.12.79-1.75.86a2.42,2.42,0,0,0-1.5,1.05,1.09,1.09,0,0,0,1,.55h.35c0,.24-.65.31-.92.78,0,.08-.38,1.22-.38,1.28v.1c0,.3,1.21-.06,1.37-.13.47-.24.65-.87.88-.93,0,.43.28,1.21.6,1.21.61,0,1-1,1.14-1.51s.2-1.8.75-1.8h.2c0,.14,0,.08,0,.2,0,.29-.71.87-.8,1.45a.82.82,0,0,0,.14.77c.09.16.29.64.46.64s.55-.43.6-.66c.34,0,.46.86,1.05.86.27,0,.43-.64.55-.86.14.1.41.57.68.77a1.31,1.31,0,0,0,1,.27c.82-.11,1.47-.47,1.47-1.34v-.05a1.08,1.08,0,0,0-.9-.9H26.8c-.51,0-.59.35-.9.55.1.46,0,1.19.75,1.26v.15a1.32,1.32,0,0,1-1.37-.58c-.53-.72-.28-.6-.44-1.56a3.1,3.1,0,0,0-.61-1.45A2.3,2.3,0,0,0,23,31.4l-.8.06c0-1.38-.27-2.13-1.48-2.63-.52-.22-1.34-.15-1.82-.33M34.43,21c-.75,0-.77.48-1.29.59L33,21.52c.28-1.2,2.15-.15,2.15-2.71,0-.13-.18-.25-.25-.25s-.87.23-.94.26a1.24,1.24,0,0,0-.69.51c-.28.6-.27,1.34-1.11,1.34,0-.31.22-.32.38-.52a2.21,2.21,0,0,0,.23-.67.83.83,0,0,0-.81-.92h-.15c-.24,0-.15.4-.15.66s-.43.78-.52,1A3.4,3.4,0,0,0,31,21.57c0,1.62-.87,1.61-1,2.11.27.12.61-.46,1-.62a3.88,3.88,0,0,1,1.46-.28,2.65,2.65,0,0,0,1.33-.27,5.07,5.07,0,0,0,.57-.29c.4-.19.32.05.65.05.16,0,.19-.14.25-.25-.18-.36-.12-1-.8-1"/></g></g></svg>