<svg xmlns="http://www.w3.org/2000/svg"  preserveAspectRatio="none" viewBox="0 0 35.23 36.08"><defs><style>.cls-1{fill:#623c25;fill-rule:evenodd;}</style></defs><title>4_r_u</title><g id="Layer_2" data-name="Layer 2"><g id="Layer_1-2" data-name="Layer 1"><path class="cls-1" d="M11.87,11.19h-.15c-.13-1.58-.8-2-2.29-2.4v-.1a1,1,0,0,1,.44-.1H10a1.9,1.9,0,0,1,2,1.86v.3a1.49,1.49,0,0,1-.1.45m-.7.3h-.4a2.33,2.33,0,0,1-1.4-.85c-.24-.31-.72-1.45.06-1.45h.14a2.37,2.37,0,0,1,1.8,1.9c0,.18,0,.4-.2.4m-.7.66-.9-.05c-.52-.36-1.14-.68-1.14-1.56v-.15c0-.31,0-.68.25-.7a2.06,2.06,0,0,0,2.14,2.16.33.33,0,0,1-.35.3M6.23,6.88H6.18c-.4,0-.69-.2-.69-.55a.64.64,0,0,1,.64-.7h.1c.69,0,.69,1.25,0,1.25M16.85,2.67a2,2,0,0,0-1.39.55,4.69,4.69,0,0,0-.9,1c.34-.08.9-.65,1.35-.65h.35a.87.87,0,0,1,.79.8v.15c0,.27-.23.6-.49.6s-.42-.45-1.3-.45h0c-.86,0-2.27,1.32-2.9,1.75a5.44,5.44,0,0,1-3.53,1c.94.83,2.67.27,3.57-.22a6.34,6.34,0,0,1,1.73-.55c.88.06,1.51.06,1.68-.68h.15c.14,0,.35.27.35.45v.35a1.05,1.05,0,0,1-.9,1c.1.16.68.31,1,.49.68.46.22.21,1.08.42,0,.64-.34.95-1,.95l-.1.15c.37,0,.89.78.89,1.25v.35c0,.23-.2.4-.2.61a2.68,2.68,0,0,0,.2.8c-.05.11,0,.2-.2.2h-.35A1,1,0,0,1,15.76,12c-.28.07-.81,1-1.87.87a2.08,2.08,0,0,1-1-.41,2,2,0,0,1-.58-.82v-.55A1.44,1.44,0,0,1,14.47,10a1.09,1.09,0,0,1,.47,1.24,1.22,1.22,0,0,1-1,.88h-.1a.9.9,0,0,1-.9-.91v0a.88.88,0,0,1,.8-.75H14a1.69,1.69,0,0,1,.53.22c.14.12-.05.37.17.53,0-.74-.26-1.1-.95-1.1a1.26,1.26,0,0,0-1.14,1v.4a1.37,1.37,0,0,0,1.37,1.19,1.6,1.6,0,0,0,1.59-.91,2,2,0,0,0-.14-2,2.85,2.85,0,0,0-1.6-1c-1.18-.4-3.28-.16-4.41-.58a4,4,0,0,1-1.59-1,3.25,3.25,0,0,1-.91-1.74V4.77c-.3,0-.53.61-1.69.61a6.1,6.1,0,0,0-.25.85c-.1.41-.35.55-.38.77s.43,0,.68.07a4.64,4.64,0,0,1,.9.25A3.78,3.78,0,0,1,8.06,10a13.51,13.51,0,0,1,.27,2c.08.71.14,1.23.25,1.91a3.68,3.68,0,0,0,.83,1.42,1.89,1.89,0,0,0,1.56.54,1.6,1.6,0,0,0,1.55-1.61v0a1.43,1.43,0,0,0-1.41-1.47c-.54.07-.76.14-1,.48-.4.53-.18.59-.15,1.13l.64.51,0-.05c0-.12-.45-.44-.45-.7V13.8a.93.93,0,0,1,.95-.8c1.07,0,1.06,2.06-.3,2.06h-.25a1.17,1.17,0,0,1-1-1.21c0-1.93,3.2-1.9,3.2.2,0,1.24-.59,1.23-.7,1.66.49.11,1,.39,1,.95V17a.5.5,0,0,1-.34.35c-.29,0-.31-.21-.78-.13a2.22,2.22,0,0,1-.88,0c-.42-.13-.36-.06-.68-.32-.14-.11-.42-.37-.61-.39a1.25,1.25,0,0,1-.89,1.1c-.32-.21-.08-.56-.52-1-.25-.28-.46-.88-.6-1l0,.2c-.32.22-.4.6-1,.6h-.2c-.25,0-.6-.06-.6-.3v-.05c0-.24.51-.18.48-1.27a6.06,6.06,0,0,1,.16-1.5c.3-.92,1-1.44,1-2.65,0-.56-.13-1.64-.45-1.85a4.42,4.42,0,0,1-.12,1.88,6.68,6.68,0,0,1-.74,1.62c-.35.56-1.73,2.31-1.73,2.92v.1c0,1.1.6,1,.6,1.35s-.66.65-1,.65-.75-.57-.75-1c0-.65.59-1.13.7-1.56a3.69,3.69,0,0,0-.84.67c-.31.29-.35.68-.69.89l.08.7v.3c0,.27-.51.35-.8.35s-.5-.34-.57-.62a.91.91,0,0,1,.19-.92c.22-.34,1.18-1,1.23-1.22a4.37,4.37,0,0,1-1.14.36C1,15.25.93,15,.55,15s-.46.26-.49,0a1,1,0,0,1,.17-.54c.34-.51.65-.47.82-.73C.71,13.47.1,13.09.1,12.6v-.15c0-.9,1.25-1.47,1.64-.71-.1.2-.34.43-.34.66v.45c0,.42.53.9.86,1a3.13,3.13,0,0,0,1.53.17A3.14,3.14,0,0,0,6,12.45c-.33,0-.87.9-2.09.9h-.2c-.61,0-1.57-.7-1.58-1.24s.52-1.57,1.21-1.57l-.08.65c0,.44.68,1.16,1.1,1.16h.15c.23,0,.5-.06.55-.25-.44,0-1-.13-1-.66,0-.36.19-.75.55-.75.15,0,.33.3.84.3h.11a1.55,1.55,0,0,0,1.4-1.86c-.1-.86-.76-1.8-1.6-1.8h-.2c-.43,0-.59.15-.95.15-.28.42-.7.48-.7,1.36v.1A1.18,1.18,0,0,0,4,9.86c.48.33.91.06,1.27.23-.06.21-.25.25-.5.25A1.57,1.57,0,0,1,3.36,8a8.63,8.63,0,0,1,1-1.13,2,2,0,0,0,.52-1.64l.09-.11c2.26,0,1.92-1.9,3.54-1.9h.1a1.67,1.67,0,0,1,1.69,1.55c0,.59-.46,1.31-1,1.31h-.1c-.61,0-1.33-.56-1.26-1.11L8,4.52c.29-.19.3-.5.9-.5H9a.88.88,0,0,1,.74.75v.3c0,.17-.32.49-.4.61,1,0,.89-2.16-.79-2.16H8.53c-.56,0-.74.31-1,.55s-.22,1.1-.35,1.31c.37.55.06.79.83,1.37.61.48.88.37,1.66.33a1.62,1.62,0,0,0,1.22-1c.47-.95-.37-1.49-.37-1.63V4.32c0-.22.43-.5.7-.5h.1c.43,0,.44.23.7.4l-.05-.45c-.3-.2-.24-.39-.72-.58s-.82.13-1,.06.54-1.13,1.33-1.13h.1a1.53,1.53,0,0,1,1.4,1.4v.6c0,.27,0,.31-.21.41l.1.14c-.14.28-.18.49-.29.76s-.33.35-.4.65a3.17,3.17,0,0,0,1.49-2.61c0-.83-.36-2.16-1.39-2.16h-.2c-.37,0-.46.35-.65.35h-.1c-.15,0-.2-.14-.2-.3V1.21a.54.54,0,0,1,.1-.3.9.9,0,0,1-.05-.3v0c0-.23.52-.58.8-.56l.65.06a2.68,2.68,0,0,1,.48.42c.16.22.15.46.41.48a1.2,1.2,0,0,1,.9-.9c.11.23.19.64.3.8a1.35,1.35,0,0,1,.35.8c0,.51-.2.81-.2,1.21.44,0,.72-1.61,1.8-1.61.45,0,.69.27.69.76v.35c0,.33-.42.3-.6.3M14.56,4.32h0M5.78,9.24c-.31.08-.28.5-.94.5S4,9.31,4,8.74a1,1,0,0,1,.39-.57A.82.82,0,0,1,5.1,8a1.22,1.22,0,0,1,1,1,1.16,1.16,0,0,1-.48,1c-.54.3.17-.57.18-.77M1.19,7.62A1.51,1.51,0,0,0,.3,8.84v.25c0,.09,0,.09,0,.15.15-.12.33-.7.85-.71h.1c1.4,0,1.08,2,.2,2H1.15A1.28,1.28,0,0,1,0,9.14C0,7.89.91,7.77,1,7.33.66,7.31.1,7,.1,6.73s1-.8,1-1C.91,5.71.3,5.24.3,5V5c0-.4,1.14-.63,1.58-.53.25.06,1.46,1,1.46.53S2.23,4.19,1.6,4.12A2.41,2.41,0,0,1,.1,3.07a1.09,1.09,0,0,1,1-.55h.35c0-.25-.66-.32-.92-.78C.48,1.65.15.51.15.46V.36c0-.31,1.21,0,1.37.13.46.24.65.86.87.92,0-.42.29-1.2.6-1.2.62,0,1,.94,1.15,1.51s.2,1.8.75,1.8h.2c0-.14,0-.09,0-.2,0-.3-.72-.88-.8-1.46a.82.82,0,0,1,.13-.76c.09-.16.3-.64.47-.64s.54.43.6.65c.33,0,.45-.85,1-.85.28,0,.44.64.55.85.14-.09.41-.56.69-.76a1.24,1.24,0,0,1,1-.27c.83.11,1.47.46,1.47,1.33v.05a1.08,1.08,0,0,1-.9.91H9.13c-.52,0-.6-.35-.9-.56.09-.45,0-1.19.75-1.25V.41A1.3,1.3,0,0,0,7.61,1c-.53.72-.28.59-.45,1.56A2.87,2.87,0,0,1,6.55,4a2.31,2.31,0,0,1-1.26.73l-.8-.06C4.49,6.05,4.21,6.8,3,7.3c-.52.21-1.35.15-1.82.32m15.57,7.49c-.76,0-.78-.48-1.29-.6l-.11.09c.28,1.2,2.14.16,2.14,2.71,0,.13-.18.25-.25.25l-.94-.25a1.33,1.33,0,0,1-.69-.52c-.27-.59-.26-1.33-1.11-1.33,0,.31.23.31.38.52a2,2,0,0,1,.23.67.81.81,0,0,1-.81.91h-.15c-.23,0-.15-.4-.15-.65a8.35,8.35,0,0,1-.51-1,3.21,3.21,0,0,1-.19-1.37c0-1.61-.86-1.6-1-2.1.26-.13.61.46,1,.62a4,4,0,0,0,1.46.28,2.6,2.6,0,0,1,1.33.27,4.87,4.87,0,0,1,.56.28c.41.19.32-.05.65-.05.17,0,.2.14.25.25-.17.37-.12,1-.79,1"/><path class="cls-1" d="M23.36,11.19h.15c.13-1.58.79-2,2.29-2.4v-.1a1,1,0,0,0-.45-.1H25.2a1.89,1.89,0,0,0-1.94,1.86v.3a1.49,1.49,0,0,0,.1.45m.7.3h.4a2.27,2.27,0,0,0,1.39-.85c.25-.31.73-1.45-.05-1.45h-.15a2.37,2.37,0,0,0-1.79,1.9c0,.18,0,.4.2.4m.7.66.89-.05c.53-.36,1.15-.68,1.15-1.56v-.15c0-.31,0-.68-.25-.7a2.06,2.06,0,0,1-2.14,2.16c0,.17.13.31.35.3M29,6.88h.06c.4,0,.69-.2.69-.55a.64.64,0,0,0-.65-.7H29c-.68,0-.68,1.25,0,1.25M18.37,2.67a2,2,0,0,1,1.4.55,4.69,4.69,0,0,1,.9,1c-.34-.08-.9-.65-1.35-.65H19a.88.88,0,0,0-.8.8v.15c0,.27.24.6.5.6s.42-.45,1.3-.45H20c.86,0,2.26,1.32,2.9,1.75a5.44,5.44,0,0,0,3.53,1c-.94.83-2.67.27-3.57-.22a6.41,6.41,0,0,0-1.74-.55c-.87.06-1.5.06-1.67-.68h-.15c-.15,0-.35.27-.35.45v.35a1.05,1.05,0,0,0,.9,1c-.1.16-.68.31-1,.49-.68.46-.23.21-1.08.42a.86.86,0,0,0,1,.95l.11.15c-.38,0-.89.78-.9,1.25v.35c0,.23.2.4.2.61a2.41,2.41,0,0,1-.2.8c.06.11.05.2.2.2h.35a1,1,0,0,0,.9-1.05c.28.07.8,1,1.87.87a2.12,2.12,0,0,0,1-.41,2,2,0,0,0,.58-.82v-.55A1.44,1.44,0,0,0,20.76,10a1.09,1.09,0,0,0-.47,1.24,1.22,1.22,0,0,0,1,.88h.1a.89.89,0,0,0,.89-.91v0a.87.87,0,0,0-.79-.75h-.25a1.69,1.69,0,0,0-.53.22c-.15.12.05.37-.17.53,0-.74.26-1.1.95-1.1a1.26,1.26,0,0,1,1.14,1v.4a1.38,1.38,0,0,1-1.38,1.19,1.6,1.6,0,0,1-1.58-.91,2,2,0,0,1,.14-2,2.85,2.85,0,0,1,1.6-1c1.18-.4,3.28-.16,4.41-.58a4,4,0,0,0,1.59-1,3.32,3.32,0,0,0,.91-1.74V4.77c.3,0,.53.61,1.69.61a6.1,6.1,0,0,1,.25.85c.1.41.35.55.38.77s-.43,0-.68.07a4.64,4.64,0,0,0-.9.25A3.78,3.78,0,0,0,27.17,10a13.51,13.51,0,0,0-.27,2c-.09.71-.15,1.23-.25,1.91a3.68,3.68,0,0,1-.83,1.42,1.89,1.89,0,0,1-1.56.54,1.6,1.6,0,0,1-1.55-1.61v0a1.43,1.43,0,0,1,1.41-1.47c.54.07.76.14,1,.48.4.53.18.59.15,1.13l-.64.51,0-.05c0-.12.45-.44.45-.7V13.8a.93.93,0,0,0-.95-.8c-1.07,0-1.06,2.06.3,2.06h.25a1.16,1.16,0,0,0,1-1.21c0-1.93-3.19-1.9-3.19.2,0,1.24.59,1.23.7,1.66-.49.11-1.05.39-1.05.95V17a.51.51,0,0,0,.35.35c.29,0,.31-.21.78-.13a2.22,2.22,0,0,0,.88,0c.41-.13.36-.06.68-.32.14-.11.42-.37.6-.39a1.27,1.27,0,0,0,.9,1.1c.32-.21.08-.56.51-1,.26-.28.47-.88.61-1l0,.2c.32.22.4.6,1,.6h.2c.25,0,.59-.06.59-.3v-.05c0-.24-.5-.18-.47-1.27a6.57,6.57,0,0,0-.16-1.5c-.3-.92-1-1.44-1-2.65,0-.56.13-1.64.45-1.85a4.42,4.42,0,0,0,.12,1.88,6.32,6.32,0,0,0,.74,1.62c.35.56,1.73,2.31,1.73,2.92v.1c0,1.1-.6,1-.6,1.35s.66.65.95.65.75-.57.75-1c0-.65-.59-1.13-.7-1.56a3.69,3.69,0,0,1,.84.67c.31.29.35.68.69.89l-.08.7v.3c0,.27.51.35.79.35s.51-.34.58-.62a.91.91,0,0,0-.19-.92c-.22-.34-1.19-1-1.23-1.22a4.37,4.37,0,0,0,1.14.36c.78,0,.82-.26,1.2-.26s.46.26.49,0a1.08,1.08,0,0,0-.17-.54c-.35-.51-.65-.47-.82-.73.34-.18,1-.56,1-1.05v-.15c0-.9-1.25-1.47-1.65-.71.11.2.35.43.35.66v.45c0,.42-.53.9-.86,1a3.13,3.13,0,0,1-1.53.17,3.18,3.18,0,0,1-2.25-1.6c.33,0,.88.9,2.1.9h.2c.6,0,1.57-.7,1.57-1.24s-.51-1.57-1.2-1.57l.08.65c0,.44-.68,1.16-1.1,1.16h-.15c-.23,0-.5-.06-.55-.25.44,0,1.05-.13,1.05-.66,0-.36-.2-.75-.55-.75-.15,0-.33.3-.85.3h-.1a1.55,1.55,0,0,1-1.4-1.86c.1-.86.76-1.8,1.6-1.8h.2c.43,0,.59.15.95.15.28.42.7.48.7,1.36v.1a1.18,1.18,0,0,1-.53.92c-.48.33-.91.06-1.27.23.06.21.24.25.5.25A1.57,1.57,0,0,0,31.87,8a9.47,9.47,0,0,0-1-1.13,2,2,0,0,1-.52-1.64l-.09-.11c-2.26,0-1.92-1.9-3.54-1.9h-.1A1.67,1.67,0,0,0,25,4.77c0,.59.46,1.31,1,1.31h.1c.61,0,1.33-.56,1.25-1.11l-.05-.45C27,4.33,27,4,26.35,4H26.2a.89.89,0,0,0-.75.75v.3c0,.17.33.49.4.61-1,0-.88-2.16.8-2.16h.05c.56,0,.74.31,1.05.55s.22,1.1.35,1.31c-.37.55-.06.79-.83,1.37s-.88.37-1.67.33a1.62,1.62,0,0,1-1.21-1c-.47-.95.37-1.49.37-1.63V4.32c0-.22-.43-.5-.7-.5H24c-.44,0-.44.23-.71.4l.06-.45c.29-.2.23-.39.72-.58s.82.13,1,.06-.54-1.13-1.33-1.13h-.1a1.53,1.53,0,0,0-1.4,1.4v.6c0,.27,0,.31.21.41l-.11.14a6.53,6.53,0,0,1,.29.76c.11.27.34.35.41.65a3.17,3.17,0,0,1-1.49-2.61c0-.83.36-2.16,1.39-2.16h.2c.36,0,.46.35.65.35h.1c.15,0,.2-.14.2-.3V1.21a.54.54,0,0,0-.1-.3A.9.9,0,0,0,24,.61v0c0-.23-.52-.58-.8-.56l-.65.06A2.68,2.68,0,0,0,22,.48c-.16.22-.15.46-.42.48a1.17,1.17,0,0,0-.89-.9,7.07,7.07,0,0,1-.31.8,1.4,1.4,0,0,0-.34.8c0,.51.2.81.2,1.21-.44,0-.73-1.61-1.8-1.61-.45,0-.69.27-.69.76v.35c0,.33.41.3.59.3m2.3,1.65h0m8.77,4.92c.32.08.29.5.95.5s.85-.43.85-1a1,1,0,0,0-.39-.57.83.83,0,0,0-.72-.2,1.23,1.23,0,0,0-1,1,1.17,1.17,0,0,0,.49,1c.54.3-.17-.57-.19-.77M34,7.62a1.53,1.53,0,0,1,.89,1.22v.25c0,.09,0,.09,0,.15-.15-.12-.33-.7-.85-.71h-.1c-1.4,0-1.08,2-.2,2h.35a1.28,1.28,0,0,0,1.15-1.35c0-1.25-.91-1.37-.95-1.81.29,0,.85-.3.85-.6s-1-.8-1.05-1c.24,0,.85-.49.85-.71V5c0-.4-1.14-.63-1.58-.53-.26.06-1.46,1-1.46.53s1.11-.78,1.74-.85a2.41,2.41,0,0,0,1.5-1.05,1.09,1.09,0,0,0-1-.55h-.35c0-.25.65-.32.92-.78,0-.09.38-1.23.38-1.28V.36c0-.31-1.21,0-1.37.13-.46.24-.65.86-.88.92,0-.42-.28-1.2-.59-1.2-.62,0-1,.94-1.15,1.51s-.2,1.8-.75,1.8h-.2c0-.14-.05-.09-.05-.2,0-.3.72-.88.8-1.46a.82.82,0,0,0-.13-.76c-.1-.16-.3-.64-.47-.64s-.55.43-.6.65c-.33,0-.46-.85-1-.85-.28,0-.44.64-.55.85C28,1,27.69.55,27.41.35a1.26,1.26,0,0,0-1-.27C25.6.19,25,.54,25,1.41v.05a1.08,1.08,0,0,0,.89.91h.25c.51,0,.59-.35.9-.56-.1-.45,0-1.19-.75-1.25V.41A1.3,1.3,0,0,1,27.62,1c.53.72.28.59.45,1.56A2.87,2.87,0,0,0,28.68,4a2.24,2.24,0,0,0,1.26.73l.8-.06c0,1.39.28,2.14,1.48,2.64.52.21,1.34.15,1.82.32M18.47,15.11c.76,0,.78-.48,1.29-.6l.11.09c-.28,1.2-2.14.16-2.14,2.71a.31.31,0,0,0,.24.25l1-.25a1.27,1.27,0,0,0,.68-.52c.28-.59.27-1.33,1.12-1.33,0,.31-.23.31-.38.52a2,2,0,0,0-.23.67.81.81,0,0,0,.81.91h.15c.23,0,.15-.4.15-.65a10.16,10.16,0,0,0,.51-1,3.21,3.21,0,0,0,.18-1.37c0-1.61.87-1.6,1-2.1-.26-.13-.61.46-1,.62a4,4,0,0,1-1.46.28,2.6,2.6,0,0,0-1.33.27,5,5,0,0,0-.57.28c-.4.19-.31-.05-.64-.05-.17,0-.2.14-.25.25.17.37.12,1,.79,1"/><path class="cls-1" d="M29.54,29.35h-.15c-.13-1.66-.79-2.16-2.29-2.53v-.1a1.24,1.24,0,0,1,.45-.11h.15a1.93,1.93,0,0,1,1.94,1.95v.31a1.7,1.7,0,0,1-.1.48m-.7.31h-.39a2.3,2.3,0,0,1-1.4-.89c-.24-.33-.72-1.53.05-1.53h.15a2.43,2.43,0,0,1,1.79,2c0,.19,0,.42-.2.42m-.69.69-.9-.06c-.53-.37-1.15-.71-1.15-1.63v-.15c0-.33,0-.72.25-.74.11,1.33.79,2.26,2.15,2.26,0,.18-.14.33-.35.32m-4.24-5.52h-.05c-.4,0-.7-.21-.7-.58a.66.66,0,0,1,.65-.74h.1c.68,0,.69,1.32,0,1.32m10.62-4.42a2,2,0,0,0-1.4.58,4.94,4.94,0,0,0-.89,1.1c.33-.08.9-.68,1.34-.68h.35a.9.9,0,0,1,.8.84v.16c0,.27-.24.63-.5.63s-.41-.48-1.3-.48h0c-.86,0-2.26,1.38-2.9,1.83a5.24,5.24,0,0,1-3.53,1c.95.87,2.68.29,3.57-.23a6.15,6.15,0,0,1,1.74-.58c.88.07,1.5.07,1.67-.71h.15c.15,0,.35.29.35.47v.37a1.08,1.08,0,0,1-.9,1.1c.11.17.69.33,1,.52.69.48.23.22,1.09.43a.89.89,0,0,1-1,1l-.11.15c.38,0,.9.82.9,1.31v.37c0,.24-.2.41-.2.63a2.59,2.59,0,0,0,.2.84c-.06.12-.05.21-.2.21h-.35a1,1,0,0,1-.9-1.1c-.28.08-.8,1.07-1.86.92a2.09,2.09,0,0,1-1-.43,2.21,2.21,0,0,1-.59-.86v-.58c0-1,1.35-1.82,2.16-1.17a1.21,1.21,0,0,1,.47,1.31,1.27,1.27,0,0,1-1,.91h-.1a.92.92,0,0,1-.9-.94v-.06a.88.88,0,0,1,.8-.78h.25a2,2,0,0,1,.53.24c.14.12-.06.38.17.55,0-.77-.26-1.15-1-1.15a1.29,1.29,0,0,0-1.15,1.05v.42a1.4,1.4,0,0,0,1.38,1.24,1.58,1.58,0,0,0,1.58-1,2.12,2.12,0,0,0-.14-2.1,2.93,2.93,0,0,0-1.59-1.05c-1.18-.41-3.29-.16-4.42-.6a3.94,3.94,0,0,1-1.58-1.06,3.5,3.5,0,0,1-.91-1.83v-.63c-.31,0-.54.63-1.7.63a8.69,8.69,0,0,0-.25.89c-.1.43-.35.58-.38.81s.44,0,.68.08a3.75,3.75,0,0,1,.91.26c1,.36,1.61,1.63,1.91,2.76A16.33,16.33,0,0,1,26,30.13c.08.74.14,1.29.24,2a3.83,3.83,0,0,0,.84,1.49,1.82,1.82,0,0,0,1.56.56,1.63,1.63,0,0,0,1.54-1.68v0c0-.82-.65-1.63-1.4-1.54a1.17,1.17,0,0,0-1,.5c-.4.55-.17.62-.15,1.18l.65.54,0-.05c0-.14-.45-.47-.45-.74v-.26a.94.94,0,0,1,.95-.84c1.06,0,1.06,2.15-.3,2.15h-.25a1.19,1.19,0,0,1-1-1.26c0-2,3.19-2,3.19.21,0,1.3-.58,1.29-.7,1.74.49.12,1.05.41,1.05,1v.31a.52.52,0,0,1-.35.37c-.28,0-.31-.23-.78-.14a1.86,1.86,0,0,1-.87,0c-.42-.13-.37-.06-.68-.33-.14-.12-.42-.39-.61-.41a1.32,1.32,0,0,1-.9,1.16c-.32-.23-.07-.59-.51-1.09-.25-.3-.47-.93-.61-1l0,.2c-.32.23-.4.63-.94.63h-.2c-.26,0-.6-.06-.6-.31v0c0-.25.51-.19.48-1.33a6.53,6.53,0,0,1,.16-1.57c.3-1,1-1.52,1-2.78,0-.6-.13-1.73-.44-1.95a5.08,5.08,0,0,1-.12,2,7.44,7.44,0,0,1-.74,1.69c-.35.59-1.74,2.43-1.74,3.06v.11c0,1.16.6,1.1.6,1.42s-.65.68-.95.68-.75-.6-.75-1.1c0-.68.59-1.19.7-1.63a3.76,3.76,0,0,0-.83.69c-.31.31-.35.72-.69.94l.08.73v.32c0,.28-.51.37-.8.37s-.51-.37-.58-.66a1,1,0,0,1,.2-1c.21-.35,1.18-1.08,1.23-1.28a4,4,0,0,1-1.15.37c-.77.05-.82-.26-1.2-.26-.23,0-.46.26-.49,0a1.12,1.12,0,0,1,.17-.56c.35-.53.65-.5.82-.77-.34-.19-.95-.58-.95-1.1v-.16c0-.94,1.25-1.53,1.65-.74-.1.21-.35.45-.35.69v.47c0,.45.54.94.87,1.09a2.86,2.86,0,0,0,1.52.17,3.18,3.18,0,0,0,2.25-1.68c-.33,0-.88.95-2.1.95h-.19c-.61,0-1.58-.74-1.58-1.3s.51-1.65,1.21-1.64l-.08.68a1.5,1.5,0,0,0,1.09,1.21h.15c.23,0,.5-.07.55-.27-.43,0-1.05-.12-1.05-.68,0-.39.2-.79.55-.79.15,0,.33.32.85.32h.1a1.61,1.61,0,0,0,1.4-1.95c-.09-.91-.76-1.89-1.6-1.89h-.2c-.43,0-.59.16-.95.16-.27.43-.69.5-.69,1.42V27a1.27,1.27,0,0,0,.52,1c.49.35.92.06,1.27.24-.06.22-.24.26-.5.26A1.64,1.64,0,0,1,21,26a9,9,0,0,1,1-1.18,2.11,2.11,0,0,0,.52-1.72l.09-.12c2.26,0,1.92-2,3.54-2h.1A1.71,1.71,0,0,1,28,22.62c0,.61-.46,1.36-1,1.36h-.1c-.61,0-1.33-.58-1.25-1.15l0-.48c.29-.2.3-.52.9-.52h.15a.9.9,0,0,1,.75.79v.31c0,.17-.32.51-.4.63.95,0,.89-2.26-.8-2.26H26.2c-.56,0-.74.32-1.05.58s-.21,1.15-.34,1.37c.36.58.06.83.82,1.44s.88.38,1.67.35a1.65,1.65,0,0,0,1.21-1c.47-1-.36-1.55-.36-1.7v-.16c0-.23.42-.52.69-.52h.1c.44,0,.44.23.71.42l-.06-.48c-.29-.2-.23-.4-.71-.61s-.82.14-1,.07.54-1.19,1.33-1.19h.1a1.57,1.57,0,0,1,1.4,1.47v.63c0,.29,0,.33-.21.43l.11.15c-.14.29-.18.51-.29.8s-.34.37-.41.67c.7-.19,1.5-1.68,1.5-2.73,0-.87-.37-2.26-1.4-2.26h-.2c-.36,0-.46.37-.65.37h-.1c-.15,0-.19-.16-.2-.32v-.16a.54.54,0,0,1,.1-.31,1.34,1.34,0,0,1,0-.32V18.2c0-.24.52-.61.8-.59l.65.06a2.85,2.85,0,0,1,.48.44c.16.24.16.49.42.51a1.23,1.23,0,0,1,.9-.95,6.25,6.25,0,0,0,.3.84,1.53,1.53,0,0,1,.34.85c0,.53-.2.85-.2,1.26.44,0,.73-1.68,1.8-1.68.46,0,.7.28.7.79v.36c0,.35-.42.32-.6.32m-2.29,1.73h0M23.46,27.3c-.32.09-.29.52-.95.52s-.85-.45-.85-1.05a1.14,1.14,0,0,1,.39-.59.8.8,0,0,1,.72-.21,1.27,1.27,0,0,1,1,1.06,1.31,1.31,0,0,1-.48,1.08c-.54.31.16-.6.18-.81m-4.6-1.7A1.6,1.6,0,0,0,18,26.88v.26c0,.1,0,.09.05.16.16-.12.33-.74.85-.74H19c1.4,0,1.09,2.05.2,2.05h-.35a1.32,1.32,0,0,1-1.15-1.42c0-1.3.92-1.43.95-1.89-.29,0-.85-.32-.85-.63,0-.46,1-.84,1.05-1.05-.24,0-.85-.52-.85-.74v-.05c0-.43,1.14-.67,1.58-.56.26.06,1.47,1.07,1.47.56s-1.12-.83-1.75-.9a2.46,2.46,0,0,1-1.5-1.1,1.07,1.07,0,0,1,1-.58h.35c0-.26-.65-.33-.92-.82,0-.08-.38-1.28-.38-1.33V18c0-.32,1.21.05,1.37.14.47.24.65.9.88,1,0-.44.28-1.26.6-1.26.61,0,1,1,1.14,1.58s.2,1.89.75,1.89h.2c0-.15,0-.09,0-.21,0-.31-.71-.92-.8-1.52a.9.9,0,0,1,.14-.81c.09-.16.29-.66.46-.66s.55.45.6.68c.34,0,.46-.9,1.05-.9.27,0,.43.68.55.9.14-.1.41-.59.68-.8a1.28,1.28,0,0,1,1-.29c.82.12,1.47.49,1.47,1.4v.06a1.12,1.12,0,0,1-.9.94H26.8c-.51,0-.59-.36-.9-.58.1-.47,0-1.24.75-1.31V18a1.29,1.29,0,0,0-1.37.61c-.53.75-.28.62-.44,1.63a3.29,3.29,0,0,1-.61,1.52,2.29,2.29,0,0,1-1.27.76l-.8-.06c0,1.45-.27,2.24-1.48,2.76-.52.23-1.34.16-1.82.34m15.57,7.85c-.75,0-.77-.51-1.29-.62l-.11.09c.28,1.26,2.15.16,2.15,2.84a.32.32,0,0,1-.25.26s-.87-.23-.94-.26a1.29,1.29,0,0,1-.69-.54c-.28-.63-.27-1.41-1.11-1.4,0,.32.22.33.38.54a2.37,2.37,0,0,1,.23.71A.85.85,0,0,1,32,36h-.15c-.24,0-.15-.42-.15-.68s-.43-.82-.52-1A3.74,3.74,0,0,1,31,32.87c0-1.69-.87-1.69-1-2.21.27-.13.61.48,1,.65a3.87,3.87,0,0,0,1.46.3,2.37,2.37,0,0,1,1.33.28,3.86,3.86,0,0,1,.57.3c.4.2.32-.06.65-.06.16,0,.19.15.25.27-.18.38-.12,1.05-.8,1.05"/></g></g></svg>