<?xml version="1.0" encoding="utf-8"?>
<!-- Generator: Adobe Illustrator 22.0.0, SVG Export Plug-In . SVG Version: 6.00 Build 0)  -->
<svg version="1.1" id="Слой_2" xmlns="http://www.w3.org/2000/svg" xmlns:xlink="http://www.w3.org/1999/xlink" x="0px" y="0px"
	  preserveAspectRatio="none" viewBox="0 0 17.5 36.5" style="enable-background:new 0 0 17.5 36.5;" xml:space="preserve">
<style type="text/css">
	.st0{fill:#623C25;}
</style>
<g id="Слой_1">
	<g id="Layer_2">
		<g id="Layer_1-2">
			<path class="st0" d="M11.9,11.2h-0.1c-0.1-1.6-0.8-2-2.3-2.4V8.7c0.1-0.1,0.3-0.1,0.4-0.1H10c1-0.1,1.9,0.7,2,1.8c0,0,0,0,0,0.1
				v0.3C12,10.9,12,11.1,11.9,11.2 M11.2,11.5h-0.4c-0.6-0.1-1.1-0.4-1.4-0.9c-0.2-0.3-0.7-1.4,0.1-1.4h0.1c0.9,0.2,1.6,1,1.8,1.9
				C11.4,11.3,11.4,11.5,11.2,11.5 M10.5,12.2l-0.9-0.1c-0.5-0.4-1.1-0.7-1.1-1.6v-0.1c0-0.3,0-0.7,0.3-0.7c-0.1,1.1,0.8,2.1,2,2.2
				c0.1,0,0.1,0,0.2,0C10.9,12,10.7,12.2,10.5,12.2 M6.2,6.9L6.2,6.9c-0.5,0-0.7-0.2-0.7-0.6c0-0.4,0.2-0.7,0.6-0.7c0,0,0,0,0.1,0
				h0.1C6.9,5.6,6.9,6.9,6.2,6.9 M16.9,2.7c-0.5,0-1,0.2-1.4,0.5c-0.3,0.3-0.6,0.6-0.9,1c0.3-0.1,0.9-0.7,1.4-0.7h0.3
				c0.4,0,0.8,0.4,0.8,0.8v0.2c0,0.3-0.2,0.6-0.5,0.6s-0.4-0.4-1.3-0.4l0,0c-0.9,0-2.3,1.3-2.9,1.8c-1,0.7-2.3,1.1-3.5,1
				c0.9,0.8,2.7,0.3,3.6-0.2c0.5-0.3,1.1-0.5,1.7-0.6C15,6.7,15.6,6.7,15.8,6H16c0.1,0,0.4,0.3,0.4,0.4v0.3c0,0.5-0.4,0.9-0.9,1
				c0.1,0.2,0.7,0.3,1,0.5c0.7,0.5,0.2,0.2,1.1,0.4c0,0.6-0.3,0.9-1,0.9l-0.1,0.1c0.4,0,0.9,0.8,0.9,1.3v0.4c0,0.2-0.2,0.4-0.2,0.6
				c0,0.3,0.1,0.5,0.2,0.8c-0.1,0.1,0,0.2-0.2,0.2h-0.4c-0.5-0.1-0.9-0.5-0.9-1.1c-0.3,0.1-0.8,1-1.9,0.9c-0.4,0-0.7-0.2-1-0.4
				c-0.3-0.2-0.5-0.5-0.6-0.8V11c0.1-0.8,0.9-1.3,1.7-1.2c0.1,0,0.3,0.1,0.4,0.1c0.4,0.3,0.6,0.8,0.5,1.2c-0.1,0.5-0.5,0.8-1,0.9
				h-0.1c-0.5,0-0.9-0.4-0.9-0.9c0,0,0,0,0,0l0,0c0.1-0.4,0.4-0.7,0.8-0.8H14c0.2,0,0.4,0.1,0.5,0.2c0.1,0.1-0.1,0.4,0.2,0.5
				c0-0.7-0.3-1.1-0.9-1.1c-0.6,0-1,0.4-1.1,1v0.4c0.1,0.7,0.7,1.2,1.4,1.2c0.7,0.1,1.3-0.3,1.6-0.9c0.3-0.6,0.3-1.4-0.1-2
				c-0.4-0.5-1-0.9-1.6-1c-1.2-0.4-3.3-0.2-4.4-0.6C8.8,8,8.3,7.7,7.8,7.2C7.4,6.7,7,6.1,6.9,5.5V4.8c-0.3,0-0.5,0.6-1.7,0.6
				C5.1,5.7,5,5.9,5,6.2C4.9,6.6,4.6,6.8,4.6,7S5,7,5.3,7.1c0.3,0.1,0.6,0.1,0.9,0.3c1,0.6,1.7,1.5,1.9,2.7c0.1,0.7,0.2,1.3,0.3,2
				c0.1,0.7,0.1,1.2,0.3,1.9c0.2,0.5,0.4,1,0.8,1.4c0.4,0.4,1,0.6,1.6,0.5c0.9,0,1.6-0.7,1.6-1.6l0,0c0-0.8-0.6-1.4-1.4-1.5
				c0,0,0,0,0,0c-0.5,0.1-0.8,0.1-1,0.5c-0.4,0.5-0.2,0.6-0.1,1.1l0.6,0.5v-0.1c0-0.1-0.4-0.4-0.4-0.7v-0.4c0.1-0.5,0.5-0.8,0.9-0.8
				c1.1,0,1.1,2.1-0.3,2.1h-0.3c-0.6-0.1-1-0.6-1-1.2c0-1.9,3.2-1.9,3.2,0.2c0,1.2-0.6,1.2-0.7,1.7c0.5,0.1,1,0.4,1,1V17
				c0,0.2-0.2,0.3-0.3,0.4c-0.3,0-0.3-0.2-0.8-0.1c-0.3,0.1-0.6,0.1-0.9,0c-0.4-0.1-0.4-0.1-0.7-0.3c-0.1-0.1-0.4-0.4-0.6-0.4
				c0,0.5-0.4,1-0.9,1.1c-0.3-0.2-0.1-0.6-0.5-1c-0.3-0.3-0.5-0.9-0.6-1v0.2c-0.3,0.2-0.4,0.6-1,0.6H6.6c-0.3,0-0.6-0.1-0.6-0.3v0
				c0-0.2,0.5-0.2,0.5-1.3c0-0.5,0-1,0.2-1.5c0.3-0.9,1-1.4,1-2.6c0-0.6-0.1-1.6-0.4-1.9c0.1,0.6,0.1,1.3-0.1,1.9
				c-0.2,0.6-0.4,1.1-0.7,1.6c-0.3,0.6-1.7,2.3-1.7,2.9v0.1c0,1.1,0.6,1,0.6,1.4s-0.7,0.6-1,0.6s-0.8-0.6-0.8-1
				c0-0.6,0.6-1.1,0.7-1.6c-0.3,0.2-0.6,0.4-0.8,0.7c-0.3,0.3-0.3,0.7-0.7,0.9L2.7,17v0.3c0,0.3-0.5,0.4-0.8,0.4S1.4,17.3,1.3,17
				c-0.1-0.3,0-0.7,0.2-0.9c0.2-0.3,1.2-1,1.2-1.2c-0.4,0.2-0.7,0.3-1.1,0.4c-0.6,0-0.6-0.3-1-0.3s-0.5,0.3-0.5,0
				c0-0.2,0.1-0.4,0.2-0.5C0.6,13.9,0.9,14,1,13.7c-0.3-0.3-0.9-0.6-0.9-1.1v-0.1c0-0.9,1.3-1.5,1.6-0.7c-0.1,0.2-0.3,0.4-0.3,0.7
				v0.4c0,0.4,0.5,0.9,0.9,1c0.5,0.2,1,0.2,1.5,0.2c0.9-0.2,1.7-0.7,2.2-1.6c-0.3,0-0.9,0.9-2.1,0.9H3.7c-0.6,0-1.6-0.7-1.6-1.2
				s0.5-1.6,1.2-1.6l-0.1,0.6c0,0.4,0.7,1.2,1.1,1.2h0.2c0.2,0,0.5-0.1,0.6-0.3c-0.4,0-1-0.1-1-0.7c0-0.4,0.2-0.8,0.6-0.8
				c0.2,0,0.3,0.3,0.8,0.3h0.1c0.9-0.1,1.5-0.8,1.4-1.7c0-0.1,0-0.1,0-0.2C6.9,8.3,6.2,7.3,5.4,7.3H5.2c-0.4,0-0.6,0.2-0.9,0.2
				C3.9,7.9,3.5,8,3.5,8.8v0.1c0,0.4,0.2,0.7,0.5,0.9c0.5,0.3,0.9,0.1,1.3,0.2c-0.1,0.2-0.3,0.3-0.5,0.3c-0.9,0-1.6-0.7-1.6-1.5
				c0-0.3,0.1-0.6,0.2-0.8c0.3-0.4,0.6-0.8,1-1.1c0.4-0.4,0.6-1,0.5-1.6L5,5.1c2.3,0,1.9-1.9,3.5-1.9h0.1c0.9,0,1.6,0.7,1.7,1.5
				c0,0.6-0.5,1.3-1,1.3H9.2C8.6,6.1,7.9,5.5,7.9,5L8,4.5C8.3,4.3,8.3,4,8.9,4H9c0.4,0.1,0.7,0.4,0.7,0.8v0.3c0,0.2-0.3,0.5-0.4,0.6
				c0.9,0,0.9-2.2-0.8-2.2h0c-0.6,0-0.7,0.3-1,0.5S7.3,5.2,7.2,5.4C7.5,5.9,7.2,6.2,8,6.8c0.6,0.5,0.9,0.4,1.7,0.3
				c0.6-0.1,1-0.5,1.2-1c0.5-0.9-0.4-1.5-0.4-1.6V4.3c0-0.2,0.4-0.5,0.7-0.5h0.1c0.4,0,0.4,0.2,0.7,0.4L12,3.8
				c-0.3-0.2-0.2-0.4-0.7-0.6s-0.8,0.1-1,0.1s0.5-1.1,1.3-1.1h0.1c0.7,0.1,1.3,0.7,1.4,1.4v0.6c0,0.3,0,0.3-0.2,0.4L13,4.7
				c-0.1,0.3-0.2,0.5-0.3,0.8s-0.3,0.3-0.4,0.7c0.9-0.6,1.5-1.5,1.5-2.6c0-0.8-0.4-2.2-1.4-2.2h-0.2c-0.4,0-0.5,0.4-0.6,0.4h-0.1
				c-0.1,0-0.2-0.1-0.2-0.3V1.2c0-0.1,0-0.2,0.1-0.3c0-0.1-0.1-0.2-0.1-0.3l0,0c0-0.2,0.5-0.6,0.8-0.6l0.6,0.1
				c0.2,0.1,0.3,0.3,0.5,0.4C13.4,0.8,13.4,1,13.6,1c0.1-0.4,0.5-0.8,0.9-0.9c0.1,0.2,0.2,0.6,0.3,0.8c0.2,0.2,0.3,0.5,0.4,0.8
				c0,0.5-0.2,0.8-0.2,1.2c0.4,0,0.7-1.6,1.8-1.6c0.5,0,0.7,0.3,0.7,0.8v0.3C17.5,2.8,17,2.7,16.9,2.7 M14.6,4.3L14.6,4.3 M5.8,9.2
				c-0.3,0.1-0.3,0.5-1,0.5S4,9.3,4,8.7c0.1-0.2,0.2-0.4,0.4-0.6C4.6,8,4.8,7.9,5.1,8c0.5,0.1,0.9,0.5,1,1c0,0.4-0.2,0.8-0.5,1
				C5.1,10.3,5.8,9.4,5.8,9.2 M1.2,7.6C0.7,7.8,0.4,8.3,0.3,8.8v0.3c0,0.1,0,0.1,0,0.1c0.2-0.1,0.3-0.7,0.9-0.7h0.1
				c1.4,0,1.1,2,0.2,2H1.1C0.4,10.5-0.1,9.8,0,9.1c0-1.3,0.9-1.4,1-1.8C0.7,7.3,0.1,7,0.1,6.7s1-0.8,1-1C0.9,5.7,0.3,5.2,0.3,5l0,0
				c0-0.4,1.1-0.6,1.6-0.5c0.3,0.1,1.5,1,1.5,0.5S2.2,4.2,1.6,4.1C1,4,0.4,3.6,0.1,3.1c0.2-0.4,0.6-0.6,1-0.5h0.4
				c0-0.3-0.6-0.3-0.9-0.8C0.5,1.6,0.2,0.5,0.2,0.5V0.4c0-0.3,1.2,0,1.4,0.1C2,0.7,2.2,1.4,2.4,1.4C2.4,1,2.7,0.2,3,0.2
				c0.6,0,1,0.9,1.2,1.5s0.2,1.8,0.8,1.8h0.2c0-0.1,0-0.1,0-0.2c0-0.3-0.7-0.9-0.8-1.5c-0.1-0.3,0-0.5,0.1-0.8
				c0.1-0.2,0.3-0.6,0.5-0.6s0.5,0.4,0.6,0.6c0.3,0,0.4-0.9,1-0.9c0.3,0,0.4,0.6,0.6,0.9C7.2,1,7.4,0.5,7.7,0.3C8,0.1,8.4,0,8.7,0.1
				c0.8,0.1,1.5,0.5,1.5,1.3v0c-0.1,0.5-0.4,0.8-0.9,0.9H9.1C8.6,2.4,8.5,2,8.2,1.8c0.1-0.5,0-1.2,0.8-1.3V0.4
				C8.4,0.3,7.9,0.5,7.6,1C7.1,1.7,7.3,1.6,7.2,2.6C7.1,3.1,6.9,3.6,6.6,4C6.2,4.4,5.8,4.6,5.3,4.7L4.5,4.7c0,1.4-0.3,2.1-1.5,2.6
				C2.5,7.5,1.6,7.5,1.2,7.6 M16.8,15.1c-0.8,0-0.8-0.5-1.3-0.6l-0.1,0.1c0.3,1.2,2.1,0.2,2.1,2.7c0,0.1-0.2,0.3-0.3,0.3l-0.9-0.3
				c-0.3-0.1-0.5-0.3-0.7-0.5c-0.3-0.6-0.3-1.3-1.1-1.3c0,0.3,0.2,0.3,0.4,0.5c0.1,0.2,0.2,0.4,0.2,0.7c0.1,0.4-0.3,0.8-0.7,0.9
				c0,0-0.1,0-0.1,0h-0.1c-0.2,0-0.1-0.4-0.1-0.6c-0.2-0.3-0.4-0.7-0.5-1c-0.2-0.4-0.2-0.9-0.2-1.4c0-1.6-0.9-1.6-1-2.1
				c0.3-0.1,0.6,0.5,1,0.6c0.5,0.2,1,0.3,1.5,0.3c0.5,0,0.9,0.1,1.3,0.3c0.2,0.1,0.4,0.2,0.6,0.3c0.4,0.2,0.3-0.1,0.6-0.1
				c0.2,0,0.2,0.1,0.3,0.3C17.4,14.5,17.4,15.1,16.8,15.1"/>
		</g>
	</g>
</g>
<g id="Layer_2_1_">
	<g id="Layer_1-2_1_">
		<path class="st0" d="M5.7,29.7h0.2c0.1-1.6,0.8-2.1,2.3-2.5v-0.1C8,27,7.9,27,7.7,27H7.6c-1.1,0-1.9,0.8-1.9,1.9c0,0,0,0,0,0.1
			v0.3C5.6,29.4,5.7,29.6,5.7,29.7 M6.4,30h0.4c0.6-0.1,1.1-0.4,1.4-0.9c0.2-0.3,0.7-1.5,0-1.5H8c-0.9,0.2-1.7,1-1.8,2
			C6.2,29.8,6.2,30,6.4,30 M7.1,30.7L8,30.7c0.5-0.4,1.1-0.7,1.1-1.6v-0.2c0-0.3,0-0.7-0.2-0.7c-0.1,1.3-0.8,2.3-2.2,2.3
			C6.8,30.6,6.9,30.7,7.1,30.7 M11.4,25.2L11.4,25.2c0.4,0,0.7-0.2,0.7-0.6c0-0.4-0.2-0.7-0.6-0.7c0,0-0.1,0-0.1,0h-0.1
			C10.6,23.9,10.6,25.2,11.4,25.2 M0.7,20.8c0.5,0,1,0.2,1.4,0.6C2.5,21.7,2.8,22,3,22.5c-0.3-0.1-0.9-0.7-1.4-0.7H1.3
			c-0.4,0.1-0.8,0.4-0.8,0.9v0.1c0,0.3,0.2,0.6,0.5,0.6S1.4,23,2.3,23l0,0c0.9,0,2.3,1.4,2.9,1.8c1,0.8,2.3,1.1,3.5,1
			c-0.9,0.9-2.7,0.3-3.6-0.2c-0.5-0.3-1.1-0.5-1.7-0.6C2.6,25,2,25,1.8,24.2H1.7c-0.1,0-0.3,0.3-0.3,0.5v0.4c0,0.5,0.4,1,0.9,1.1
			c-0.1,0.2-0.7,0.3-1,0.5C0.6,27.2,1,27,0.2,27.1c-0.1,0.5,0.3,0.9,0.8,1c0.1,0,0.2,0,0.2,0l0.1,0.1c-0.4,0-0.9,0.8-0.9,1.3V30
			c0,0.2,0.2,0.4,0.2,0.6c0,0.3-0.1,0.6-0.2,0.8c0.1,0.1,0,0.2,0.2,0.2h0.3c0.5-0.1,0.9-0.5,0.9-1.1c0,0,0,0,0,0
			c0.3,0.1,0.8,1.1,1.9,0.9c0.4,0,0.7-0.2,1-0.4c0.3-0.2,0.5-0.5,0.6-0.9v-0.6c0-0.8-0.7-1.4-1.5-1.4c-0.2,0-0.4,0.1-0.6,0.2
			c-0.4,0.3-0.6,0.8-0.5,1.3c0.1,0.5,0.5,0.8,1,0.9h0.1c0.5,0,0.9-0.4,0.9-0.9c0,0,0,0,0,0v-0.1c0-0.4-0.4-0.7-0.8-0.8H3.6
			c-0.2,0-0.4,0.1-0.5,0.2c-0.1,0.1,0,0.4-0.2,0.5c0-0.8,0.3-1.2,1-1.2C4.4,28.5,4.9,29,5,29.6V30c-0.1,0.7-0.7,1.2-1.4,1.2
			c-0.7,0-1.3-0.4-1.6-1c-0.3-0.7-0.3-1.5,0.1-2.1c0.4-0.5,1-0.9,1.6-1C5,26.7,7.1,27,8.2,26.5c0.6-0.2,1.2-0.6,1.6-1.1
			c0.5-0.5,0.8-1.1,0.9-1.8V23c0.3,0,0.5,0.6,1.7,0.6c0.1,0.2,0.2,0.7,0.3,0.9c0.1,0.4,0.3,0.6,0.4,0.8c0,0.2-0.4,0-0.7,0.1
			c-0.3,0.1-0.6,0.1-0.9,0.3c-1,0.3-1.6,1.6-1.9,2.8c-0.1,0.7-0.2,1.4-0.3,2.1c-0.1,0.7-0.1,1.3-0.2,2C8.8,33,8.5,33.5,8.2,34
			c-0.4,0.4-1,0.6-1.6,0.6c-0.9,0-1.6-0.8-1.6-1.7v0c0-0.8,0.7-1.6,1.4-1.5c0.4,0,0.8,0.2,1,0.5c0.4,0.5,0.2,0.6,0.2,1.2L7,33.5l0,0
			c0-0.1,0.4-0.5,0.4-0.7v-0.3c0-0.5-0.5-0.9-1-0.8c-1.1,0-1.1,2.1,0.3,2.1H7c0.6-0.1,1-0.6,1-1.3c0-2-3.2-2-3.2,0.2
			c0,1.3,0.6,1.3,0.7,1.7c-0.5,0.1-1,0.4-1,1v0.3c0,0.2,0.2,0.3,0.3,0.4c0.3,0,0.3-0.2,0.8-0.1c0.3,0.1,0.6,0.1,0.9,0
			C7,35.9,6.9,36,7.2,35.7c0.1-0.1,0.4-0.4,0.6-0.4c0,0.5,0.4,1,0.9,1.1c0.3-0.2,0.1-0.6,0.5-1.1c0.3-0.3,0.5-0.9,0.6-1v0.2
			c0.3,0.2,0.4,0.6,0.9,0.6H11c0.3,0,0.6-0.1,0.6-0.3v-0.1c0-0.3-0.5-0.2-0.5-1.3c0-0.5,0-1.1-0.2-1.6c-0.3-1-1-1.5-1-2.8
			c0-0.6,0.1-1.7,0.4-1.9c-0.1,0.7-0.1,1.3,0.1,2c0.2,0.6,0.4,1.2,0.7,1.7c0.4,0.6,1.7,2.4,1.7,3.1v0.1c0,1.2-0.6,1.1-0.6,1.4
			c0,0.3,0.6,0.7,0.9,0.7S14,35.5,14,35c0-0.7-0.6-1.2-0.7-1.6c0.3,0.2,0.6,0.4,0.8,0.7c0.3,0.3,0.4,0.7,0.7,0.9l-0.1,0.7V36
			c0,0.3,0.5,0.4,0.8,0.4s0.5-0.4,0.6-0.6c0.1-0.3,0-0.7-0.2-1c-0.2-0.4-1.2-1.1-1.2-1.3c0.4,0.2,0.8,0.3,1.1,0.4
			c0.8,0,0.8-0.3,1.2-0.3s0.5,0.3,0.5,0c0-0.2-0.1-0.4-0.2-0.6c-0.3-0.5-0.6-0.5-0.8-0.8c0.4-0.2,1-0.6,1-1.1V31
			c0-0.9-1.2-1.5-1.6-0.7c0.1,0.2,0.3,0.4,0.3,0.7v0.5c0,0.4-0.5,0.9-0.9,1.1c-0.5,0.2-1,0.3-1.5,0.2c-1-0.2-1.8-0.8-2.2-1.7
			c0.3,0,0.9,0.9,2.1,0.9h0.2c0.6,0,1.6-0.7,1.6-1.3S14.9,29,14.2,29l0.1,0.7c-0.1,0.6-0.5,1.1-1.1,1.2H13c-0.2,0-0.5-0.1-0.5-0.3
			c0.4,0,1-0.1,1-0.7c0-0.4-0.2-0.8-0.6-0.8c-0.1,0-0.3,0.3-0.8,0.3H12c-0.9-0.1-1.5-0.9-1.4-1.8c0-0.1,0-0.1,0-0.2
			c0.1-0.9,0.8-1.9,1.6-1.9h0.2c0.4,0,0.6,0.2,0.9,0.2c0.3,0.4,0.7,0.5,0.7,1.4v0.1c0,0.4-0.2,0.8-0.5,1c-0.5,0.4-0.9,0.1-1.3,0.2
			c0.1,0.2,0.2,0.3,0.5,0.3c0.9,0,1.6-0.7,1.6-1.6c0-0.3-0.1-0.6-0.2-0.8c-0.3-0.4-0.6-0.8-1-1.2c-0.4-0.5-0.6-1.1-0.5-1.7l-0.1-0.1
			c-2.3,0-1.9-2-3.6-2h0c-0.9,0-1.7,0.7-1.7,1.6c0,0.6,0.5,1.4,1,1.4h0.1c0.6,0,1.3-0.6,1.3-1.2l-0.1-0.5c-0.3-0.2-0.3-0.5-0.9-0.5
			H8.6c-0.4,0.1-0.7,0.4-0.7,0.8v0.3c0,0.2,0.3,0.5,0.4,0.6c-1,0-0.9-2.3,0.8-2.3h0c0.6,0,0.8,0.3,1.1,0.6s0.2,1.2,0.4,1.4
			c-0.4,0.6-0.1,0.8-0.8,1.5s-0.9,0.4-1.7,0.3c-0.6,0-1-0.6-1.2-1c-0.2-0.6-0.1-1.3,0.4-1.7v-0.2c0-0.2-0.4-0.5-0.7-0.5H6.3
			c-0.4,0-0.4,0.2-0.7,0.4v-0.5c0.3-0.2,0.2-0.4,0.7-0.6c0.5-0.2,0.8,0.1,1,0.1c0.2-0.1-0.5-1.2-1.3-1.2H5.9
			c-0.8,0.1-1.4,0.7-1.4,1.5v0.6c0,0.3,0,0.3,0.2,0.4l-0.1,0.2c0.1,0.3,0.2,0.5,0.3,0.8s0.3,0.4,0.4,0.7c-0.7-0.2-1.5-1.7-1.5-2.7
			c0-0.9,0.4-2.3,1.4-2.3h0.2c0.4,0,0.5,0.4,0.6,0.4h0.1c0.2,0,0.2-0.1,0.2-0.3v-0.2c0-0.1,0-0.2-0.1-0.3c0-0.1,0-0.2,0-0.3v-0.1
			C6.3,18.3,5.8,18,5.5,18L4.9,18c-0.2,0.1-0.3,0.3-0.5,0.4C4.2,18.7,4.2,19,4,19C3.9,18.5,3.5,18.1,3,18c-0.1,0.2-0.2,0.7-0.3,0.8
			c-0.2,0.2-0.3,0.5-0.3,0.8c0,0.5,0.2,0.8,0.2,1.3c-0.4,0-0.7-1.7-1.8-1.7c-0.5,0-0.7,0.3-0.7,0.8v0.4C0.1,20.8,0.5,20.8,0.7,20.8
			 M3,22.5L3,22.5 M11.8,27.7c0.3,0.1,0.3,0.5,0.9,0.5s0.9-0.5,0.9-1.1c-0.1-0.2-0.2-0.4-0.4-0.6c-0.2-0.2-0.5-0.3-0.7-0.2
			c-0.5,0.1-0.9,0.5-1,1.1c0,0.4,0.2,0.8,0.5,1.1C12.6,28.8,11.9,27.9,11.8,27.7 M16.4,26c0.5,0.2,0.8,0.7,0.9,1.3v0.3
			c0,0.1,0,0.1,0,0.1c-0.1-0.1-0.3-0.7-0.8-0.7h-0.1c-1.4,0-1.1,2-0.2,2h0.3c0.7-0.1,1.2-0.7,1.1-1.4c0-1.3-0.9-1.4-1-1.9
			c0.3,0,0.9-0.3,0.9-0.6c0-0.3-1-0.8-1-1c0.2,0,0.9-0.5,0.9-0.7v-0.1c0-0.4-1.1-0.7-1.6-0.6c-0.3,0.1-1.5,1.1-1.5,0.6
			s1.1-0.8,1.7-0.9c0.6-0.2,1.2-0.5,1.5-1.1c-0.2-0.4-0.6-0.6-1-0.6h-0.4c0-0.3,0.6-0.3,0.9-0.8c0-0.1,0.4-1.3,0.4-1.3v-0.1
			c0-0.3-1.2,0-1.4,0.1c-0.5,0.3-0.7,0.9-0.9,1c0-0.4-0.3-1.3-0.6-1.3c-0.6,0-1,1-1.1,1.6c-0.1,0.6-0.2,1.9-0.8,1.9h-0.2
			c0-0.1-0.1-0.1-0.1-0.2c0-0.3,0.7-0.9,0.8-1.5c0.1-0.3,0-0.6-0.1-0.8c-0.1-0.2-0.3-0.7-0.4-0.7s-0.6,0.4-0.6,0.7
			c-0.3,0-0.5-0.9-1-0.9c-0.3,0-0.4,0.7-0.6,0.9c-0.1-0.1-0.4-0.6-0.7-0.8c-0.3-0.2-0.6-0.3-1-0.3c-0.8,0.1-1.5,0.5-1.5,1.4v0
			c0,0.5,0.4,0.9,0.9,1h0.3c0.5,0,0.6-0.4,0.9-0.6c-0.1-0.5,0-1.3-0.7-1.3v-0.2c0.5-0.1,1.1,0.1,1.4,0.6c0.5,0.8,0.3,0.6,0.4,1.6
			c0.1,0.6,0.3,1.1,0.6,1.5c0.3,0.4,0.8,0.7,1.3,0.8l0.8-0.1c0,1.5,0.3,2.2,1.5,2.8C15.1,25.9,15.9,25.8,16.4,26 M0.8,33.8
			c0.7,0,0.8-0.5,1.3-0.6l0.1,0.1c-0.3,1.3-2.1,0.2-2.1,2.8c0,0.1,0.2,0.3,0.3,0.3l0.9-0.3C1.6,36,1.8,35.8,2,35.6
			C2.2,35,2.2,34.2,3,34.2c0,0.3-0.2,0.3-0.4,0.5c-0.1,0.2-0.2,0.5-0.2,0.7c-0.1,0.5,0.2,0.9,0.7,1c0,0,0.1,0,0.1,0h0.2
			c0.2,0,0.2-0.4,0.2-0.7c0.2-0.3,0.4-0.7,0.5-1c0.2-0.5,0.2-0.9,0.2-1.4c0-1.7,0.9-1.7,1-2.2c-0.3-0.1-0.6,0.5-1,0.6
			c-0.5,0.2-1,0.3-1.5,0.3c-0.5,0-0.9,0.1-1.3,0.3c-0.2,0.1-0.4,0.2-0.6,0.3c-0.4,0.2-0.3,0-0.6,0c-0.2,0-0.2,0.1-0.3,0.3
			C0.1,33.2,0.1,33.9,0.8,33.8"/>
	</g>
</g>
</svg>
