<svg xmlns="http://www.w3.org/2000/svg" preserveAspectRatio="none" viewBox="0 0 85.25 17.98"><defs><style>.cls-1{fill:#7c6742;fill-rule:evenodd;}</style></defs><title>venz_u</title><g id="Layer_2" data-name="Layer 2"><g id="Layer_1-2" data-name="Layer 1"><path class="cls-1" d="M43.11,12.64a.47.47,0,1,0,.47.47.47.47,0,0,0-.47-.47M43.24,14H43a3.45,3.45,0,0,1,.14.34c0-.11.09-.23.14-.34M43.1.93a2.66,2.66,0,0,0-.28.56,7.49,7.49,0,0,0-.28,1.57l0,.37-.19-.33a2.9,2.9,0,0,0-.39-.53,3.38,3.38,0,0,0-.35-.31,3.65,3.65,0,0,0,0,.74,9.45,9.45,0,0,0,.58,1.93l.18.49L42,5.05a6.09,6.09,0,0,1-.46-.55,2.67,2.67,0,0,0-.73-.58c0,.15,0,.3,0,.42a2.39,2.39,0,0,0,.21.75l.22.44-.39-.3A1.08,1.08,0,0,0,40.19,5a.66.66,0,0,0-.31.09,2.53,2.53,0,0,1,.71.3A1.82,1.82,0,0,0,42,5.74a.81.81,0,0,0,.8-.51,1.63,1.63,0,0,0-.1-.84c-.1-.19-.48-.58-.64-.8a2.72,2.72,0,0,1-.35-.65c-.13-.35.16-.42.27-.13a1.85,1.85,0,0,0,.45.66,2.74,2.74,0,0,0,.45.38c0-.52.09-1.05.08-1.56,0-.12,0-.82.17-.82s.16.7.16.81c0,.52.05,1.05.09,1.57a3.32,3.32,0,0,0,.46-.38,2.15,2.15,0,0,0,.45-.66c.1-.29.39-.22.26.13a3.09,3.09,0,0,1-.34.65,9.72,9.72,0,0,0-.64.8,1.44,1.44,0,0,0-.1.84.79.79,0,0,0,.79.51,1.82,1.82,0,0,0,1.38-.33,2.53,2.53,0,0,1,.71-.3A.66.66,0,0,0,46,5a1.08,1.08,0,0,0-.62.21l-.39.3.22-.44a2.39,2.39,0,0,0,.21-.75c0-.12,0-.27,0-.42a2.67,2.67,0,0,0-.73.58,6.09,6.09,0,0,1-.46.55l-.37.37.18-.49A8.86,8.86,0,0,0,44.63,3a3.65,3.65,0,0,0,0-.74,2.51,2.51,0,0,0-.35.31,2.9,2.9,0,0,0-.39.53l-.18.33,0-.37a6.89,6.89,0,0,0-.28-1.57A2.25,2.25,0,0,0,43.1.93M43.1,6a.48.48,0,0,0-.48.47A.49.49,0,0,0,43.1,7a.48.48,0,0,0,.47-.48A.47.47,0,0,0,43.1,6m-.05,1.42-.19,0a7.11,7.11,0,0,1-1.43,1.71,6.1,6.1,0,0,1-4.3,1.67,4.63,4.63,0,0,1-2.62-.9,1.31,1.31,0,0,0,.56.89c1.07.76,3,.42,4.16,0A10.36,10.36,0,0,0,43,7.5ZM51.7,9.89a4.66,4.66,0,0,1-2.63.9,6.12,6.12,0,0,1-4.3-1.67,7.11,7.11,0,0,1-1.43-1.71l-.19,0,0,.06A10.36,10.36,0,0,0,47,10.78c1.13.42,3.09.76,4.16,0a1.36,1.36,0,0,0,.57-.89M38.92,8.72a1.2,1.2,0,0,1,.45-1.12c.71-.46,1.78.11,2.34.64l.11-.12a3,3,0,0,0-1.85-1,6,6,0,0,0-2.62.46,2.47,2.47,0,0,1-1.45,0c-.32-.14-.17-.45.1-.4l.3,0a.27.27,0,0,0,0-.31.5.5,0,0,0-.85-.08A.68.68,0,0,0,36,8a2.67,2.67,0,0,0,1.25-.16l.46-.19L37.35,8a3.68,3.68,0,0,0-.45.59,2.53,2.53,0,0,0-.14.29,2.15,2.15,0,0,0,.86-.41,5.65,5.65,0,0,0,.83-.71l.31-.46-.11.55a1,1,0,0,0,.07.65.88.88,0,0,0,.2.24m4.54-.14-.36-.41-.36.41a4.41,4.41,0,0,1,.36.64,4.41,4.41,0,0,1,.36-.64m-1,.33L42.31,9a8,8,0,0,1,.79,1.75A8.47,8.47,0,0,1,43.89,9l-.12-.12a4.83,4.83,0,0,0-.56,1.33l-.11.51L43,10.24a4.83,4.83,0,0,0-.56-1.33m4.85-.19a.73.73,0,0,0,.2-.24,1,1,0,0,0,.07-.65l-.11-.55.31.46a5.65,5.65,0,0,0,.83.71,2.22,2.22,0,0,0,.86.41c0-.09-.08-.19-.13-.29A4.44,4.44,0,0,0,48.85,8l-.32-.37L49,7.8A2.7,2.7,0,0,0,50.24,8a.68.68,0,0,0,.47-1.1.5.5,0,0,0-.85.08.27.27,0,0,0,0,.31l.3,0c.28,0,.42.26.1.4a2.47,2.47,0,0,1-1.45,0,6,6,0,0,0-2.62-.46,3,3,0,0,0-1.85,1l.11.12c.56-.53,1.63-1.1,2.34-.64a1.2,1.2,0,0,1,.45,1.12M43,12.19l0-.3a8.32,8.32,0,0,0-1-2.56,8.67,8.67,0,0,1-2.87,1.94,5,5,0,0,1,1.92.62,4.59,4.59,0,0,1,1.17,1,.93.93,0,0,1,.81-.68m1.15-2.86a8.32,8.32,0,0,0-1,2.56l-.05.3a.91.91,0,0,1,.83.66,4.63,4.63,0,0,1,1.15-1,5,5,0,0,1,1.93-.62,8.61,8.61,0,0,1-2.88-1.94m-9,5.1a4.17,4.17,0,0,0,1-.35,3.59,3.59,0,0,0,1.18-1l.21-.26v.33a1.55,1.55,0,0,0,.37,1,1,1,0,0,0,.63.23,1.64,1.64,0,0,1-.32-.89,1.26,1.26,0,0,1,1.61-1.22c1.15.18,2.1,1.46,2.57,2.43a13.85,13.85,0,0,1,.68,1.65,13.85,13.85,0,0,1,.68-1.65c.47-1,1.43-2.25,2.57-2.43A1.26,1.26,0,0,1,48,13.51a1.56,1.56,0,0,1-.32.89,1,1,0,0,0,.64-.23,1.6,1.6,0,0,0,.36-1v-.33l.21.26a3.69,3.69,0,0,0,1.18,1,4.24,4.24,0,0,0,1,.35,2.21,2.21,0,0,0-.12-.65,2.69,2.69,0,0,0-.58-.77L50,12.65l.48.18a2.46,2.46,0,0,0,1.75.06.73.73,0,0,0-.19-1.37c-.55-.06-.75.64-.78,1.06v.18l-.16-.08a11.1,11.1,0,0,0-1.75-.82,5.37,5.37,0,0,0-4,.42,5,5,0,0,0-2.13,3.16L43.1,16,43,15.44a5,5,0,0,0-2.12-3.16,5.4,5.4,0,0,0-4-.42,11.54,11.54,0,0,0-1.75.82l-.16.08v-.18c0-.42-.23-1.12-.78-1.06A.73.73,0,0,0,34,12.89a2.46,2.46,0,0,0,1.75-.06l.48-.18-.36.36a2.49,2.49,0,0,0-.57.77,1.71,1.71,0,0,0-.12.65m-.09-3.12a1.12,1.12,0,0,1,.32.64l.75-.3a3.18,3.18,0,0,1-1.07-.34m16.1,0a3.18,3.18,0,0,1-1.07.34l.75.3a1.12,1.12,0,0,1,.32-.64M44,2.11a2.42,2.42,0,0,1,.31-.25,3.41,3.41,0,0,1,.5-.28L45,1.53l0,.13a3.81,3.81,0,0,1,.14,1.06,4,4,0,0,1-.12.87l.18-.11a3.11,3.11,0,0,1,.49-.16l.12,0,0,.12a3.41,3.41,0,0,1,.1.64,2.8,2.8,0,0,1,0,.5,1.37,1.37,0,0,1,.82.22,1.21,1.21,0,0,1,.45.8l0,.26L47,5.66a.92.92,0,0,0-1,.08,2.63,2.63,0,0,1-1.9.46l-.13,0a.81.81,0,0,1,0,.31.9.9,0,0,1-.32.71,5.57,5.57,0,0,0,.37.57,3.69,3.69,0,0,1,1.2-.83,3.91,3.91,0,0,1,2.27-.17c.54.11,1,.32,1.53.42l.27,0a.79.79,0,0,1,.09-.54,1,1,0,0,1,1.61-.11,1.16,1.16,0,0,1-.36,1.78,2.05,2.05,0,0,1-.9.12,1.69,1.69,0,0,1,.12.28,3.78,3.78,0,0,1,.1.46l0,.12-.12,0a2.56,2.56,0,0,1-1.25-.29,4.18,4.18,0,0,1-.7-.46,1,1,0,0,1-1.08.69h-.12l0-.12c.07-.33.12-1-.22-1.24-.54-.35-1.37.2-1.78.61l.26.24a5.54,5.54,0,0,0,4,1.55A4.4,4.4,0,0,0,51.9,9.16L52.05,9l0,.2a1.89,1.89,0,0,1-.56,1.86A1.23,1.23,0,0,1,52.93,13a1.86,1.86,0,0,1-1.52.58,2.93,2.93,0,0,1,.13.57,4.52,4.52,0,0,1,.06.74V15l-.13,0a6,6,0,0,1-1.5-.42,4.09,4.09,0,0,1-1-.6,1.25,1.25,0,0,1-.86.85,1.28,1.28,0,0,1-1.25-.26l-.11-.11.14-.07a1.13,1.13,0,0,0,.57-.73c.11-.61-.4-1-1-.93-1,.08-2,1.45-2.38,2.26a16.12,16.12,0,0,0-.91,2.52l-.11.4L43,17.5A15,15,0,0,0,42.07,15c-.38-.8-1.41-2.17-2.37-2.25-.57,0-1.08.32-1,.93a1.16,1.16,0,0,0,.57.73l.14.07-.11.11a1.27,1.27,0,0,1-1.24.26,1.24,1.24,0,0,1-.87-.85,4.24,4.24,0,0,1-1,.6,6,6,0,0,1-1.51.42l-.13,0v-.13a4.52,4.52,0,0,1,.06-.74,3.9,3.9,0,0,1,.13-.57A1.83,1.83,0,0,1,33.28,13a1.22,1.22,0,0,1,.87-2,1.24,1.24,0,0,1,.52.08,1.92,1.92,0,0,1-.56-1.86l0-.2.14.15a4.4,4.4,0,0,0,2.83,1.18,5.54,5.54,0,0,0,4-1.55l.26-.24c-.41-.41-1.24-1-1.78-.61-.34.21-.29.91-.22,1.24l0,.12h-.12a1,1,0,0,1-1.08-.69,4.58,4.58,0,0,1-.69.46,2.62,2.62,0,0,1-1.26.29l-.12,0,0-.11a3.57,3.57,0,0,1,.11-.47,1.62,1.62,0,0,1,.11-.28,2,2,0,0,1-.89-.12,1.15,1.15,0,0,1-.37-1.78,1,1,0,0,1,1.62.11.85.85,0,0,1,.08.54l.27,0c.51-.1,1-.31,1.53-.42a3.91,3.91,0,0,1,2.27.17,3.59,3.59,0,0,1,1.2.83,5.57,5.57,0,0,0,.37-.57.91.91,0,0,1-.33-.71.81.81,0,0,1,.06-.31l-.13,0a2.63,2.63,0,0,1-1.9-.46.92.92,0,0,0-1-.08l-.2.16,0-.26a1.21,1.21,0,0,1,.45-.8,1.37,1.37,0,0,1,.82-.22,2.8,2.8,0,0,1,0-.5,3.55,3.55,0,0,1,.1-.64l0-.12.12,0a3.11,3.11,0,0,1,.49.16l.18.11a4,4,0,0,1-.12-.87,3.81,3.81,0,0,1,.14-1.06l0-.13.12.05a4.16,4.16,0,0,1,.51.28,3.31,3.31,0,0,1,.3.25c0-.19.08-.4.12-.57A5.6,5.6,0,0,1,43,.14L43.1,0l.1.14a5.92,5.92,0,0,1,.7,1.4c0,.17.09.38.12.57M80.19,8.85A2.63,2.63,0,0,1,82.47,8C84,8,85.16,9.31,85.24,11.37a1.22,1.22,0,0,1,0,.27v0a4.53,4.53,0,0,1-3.75,4.21,11.12,11.12,0,0,1-2.89-.05,5.45,5.45,0,0,1,.35.76c.1.34.25.79.25.79l-.09,0,.09.29s-1.28.19-2.39.25a7,7,0,0,1-3.82-.6A6.39,6.39,0,0,1,70.72,15a4.55,4.55,0,0,0-.67-.7,3.11,3.11,0,0,1,.21.7c0,.39,0,.86,0,1.07h0v.41a11.49,11.49,0,0,1-3.24-.35,6.15,6.15,0,0,1-2.78-2,3.45,3.45,0,0,1-1,2,3.75,3.75,0,0,1-4.72-.08,3.41,3.41,0,0,1-1.3-2.73,4.2,4.2,0,0,1,.05-.77,3.41,3.41,0,0,1-2,.17,2.17,2.17,0,0,1-1.66-2.27,2.37,2.37,0,0,1,.13-1,2.09,2.09,0,0,1,3-1.3,1.32,1.32,0,0,1,.58,1.25,1.43,1.43,0,0,1-.21.92l.17,0a4.18,4.18,0,0,0,.53-.21,3.16,3.16,0,0,0,.73-.46,5.14,5.14,0,0,1,2.65-1.6,12.49,12.49,0,0,1,7.06.63c2.54.94,4.64,3,7.67,3.67s5.1.12,5.59-1a2,2,0,0,0,.18-.63,1.61,1.61,0,0,0-.62-1.14c-.16-.1-.7-.42-.91-.52A.94.94,0,0,1,80.38,9l-.19-.1m-13.1,2.32c.25.14.28.36.18.46.16.23,0,.49-.38.29a11.44,11.44,0,0,0-1.58-.87,7.44,7.44,0,0,0-1.9-.46c-.42,0-.44-.15.13-.15a8.55,8.55,0,0,1,1.85.34l-.08,0a7.44,7.44,0,0,0-1.9-.46c-.42,0-.44-.14.13-.14a9.54,9.54,0,0,1,2.68.61c.66.3.87.42.87.42m-7,4.33a2.59,2.59,0,0,0,.61.15l-.17,0a1.6,1.6,0,0,1-.44-.13m3.12-2.68c-.16-.3-.33-.13-.24.13,0,0,0,0,0,0a.25.25,0,0,0,0,.26.9.9,0,0,1,0,.22,1.91,1.91,0,0,1-.57,1.25,2.36,2.36,0,0,1-1.92.61,2,2,0,0,1-1.15-.68c-.24-.31-.35-.14-.19.13h0c-.1,0-.12.11,0,.3a2.15,2.15,0,0,0,1.92.89,2.43,2.43,0,0,0,2.27-1.75,2.54,2.54,0,0,0,0-.47,1.48,1.48,0,0,0-.18-.94m5.47,1.95c.35,0,.45.14,0,.14a4.81,4.81,0,0,1-1.65-.34l.26.13a4,4,0,0,0,1.35.38c.35,0,.45.13,0,.13a4.53,4.53,0,0,1-2.27-.66c-.79-.53-.77-.61-.92-.8a.22.22,0,0,1,0-.28l0,0c-.14-.18.11-.55.44-.18a3.61,3.61,0,0,0,1.36,1.14,4.11,4.11,0,0,0,1.35.37m7.92,1.84c.24-.08.18-.31-.2-.35a11.81,11.81,0,0,1-1.78-.3,7.6,7.6,0,0,1-1.78-.82c-.34-.24-.44-.16,0,.2a9.26,9.26,0,0,0,1.89,1l-.12,0a7.22,7.22,0,0,1-1.78-.82c-.34-.24-.44-.15,0,.2a8.84,8.84,0,0,0,2.19,1.06,6.82,6.82,0,0,0,1.32.25c.41,0,.49-.23.24-.34m.1-2.59c.33.19.23.37-.11.25l.11.05c.33.2.23.38-.13.25s-1-.48-1.69-.72-1.25-.64-.26-.3c.62.21,1.15.39,1.54.54-.36-.16-.83-.37-1.28-.54-.66-.24-1.25-.64-.26-.31a18.59,18.59,0,0,1,2.08.78M77,15.3c.28.25.2.4-.1.21l.1.09c.29.27.19.41-.12.2s-.49-.47-.79-.65-.6-.55-.17-.3c.26.15.5.3.71.45a3.31,3.31,0,0,0-.54-.45c-.3-.18-.6-.56-.17-.31A6.72,6.72,0,0,1,77,15.3m-15.8-1.22c-.61,0-.9-.48-.84-1.15a1.52,1.52,0,0,1,0-.37A1.54,1.54,0,0,1,62.06,11c1.21,0,1.71,1,2.3,2.13a5.12,5.12,0,0,0,2.78,2.32,6.07,6.07,0,0,0,2.72.27.45.45,0,0,1,0-.08,4.09,4.09,0,0,0-.25-1.18,8.76,8.76,0,0,0-1.21-1.92s.18.1.44.27c-.24-.34-.44-.57-.44-.57a11.14,11.14,0,0,1,2.16,1.64c.92.94,1.24,2.07,2.57,2.77a6.52,6.52,0,0,0,3.68.62A7,7,0,0,0,78.46,17a4.92,4.92,0,0,0-.3-.86c-.22-.45-.72-1.25-.72-1.25l.24.09-.24-.39a9,9,0,0,0,3.72.55,4.1,4.1,0,0,0,3.65-3.58A3.29,3.29,0,0,0,84,9.39a2.65,2.65,0,0,1,.49,1.7v.31a2.19,2.19,0,0,1-.86,1.87c-.24.14-.39,0-.11-.19A.8.8,0,0,0,83.6,13h0c-.24.15-.39,0-.11-.19a1.93,1.93,0,0,0,.64-1.12,2,2,0,0,0,0-.26A2.57,2.57,0,0,0,83.66,10a1.9,1.9,0,0,0-1.56-.78c-.3,0-.59-.09-.26-.21A2.59,2.59,0,0,1,82.45,9a1.59,1.59,0,0,0-.35,0c-.28,0-.56-.07-.31-.19a3.1,3.1,0,0,0-.67.17l.28.17a2,2,0,0,1,.73,1.76,2.43,2.43,0,0,1-.16,1c-.5,1.34-3,2-6,1.31s-5.37-2.84-7.78-3.74a12.43,12.43,0,0,0-6.73-.62,4.61,4.61,0,0,0-2.52,1.46,3.16,3.16,0,0,1-2,.84c-.42,0-.71-.26-.53-.52-.1-.12-.08-.29.15-.44a1,1,0,0,0,.41-.62,1.12,1.12,0,0,0-.48-.67c-.78-.54-2,.13-2.31,1.2a1.47,1.47,0,0,0-.08.35,1.81,1.81,0,0,0,.59,1.13,1.84,1.84,0,0,1-.33-1.2,1.33,1.33,0,0,1,.14-.75,1.64,1.64,0,0,1,1.25-.91.25.25,0,0,1,.23.4.22.22,0,0,1-.19.37,1.43,1.43,0,0,0-1.13,1,.69.69,0,0,0,0,.13,1,1,0,0,0,.35.71c.28.23.11.3-.16.09l-.07-.06a1,1,0,0,0,.23.27c.16.13.17.21.1.22a2.07,2.07,0,0,0,.64.2,4.23,4.23,0,0,0,2.25-.59c0,.12,0,.23-.08.35l.08,0a7.09,7.09,0,0,0-.21,1.37,3.2,3.2,0,0,0,5.3,2.3,2.07,2.07,0,0,0,.76-1.48c0-.14,0-.27,0-.39-.07-.63-.72-1.74-1.68-1.77a1.14,1.14,0,0,0-1.27,1v0c0,.29.18.56.41.6s.35.3.13.35c.2.11.18.33-.12.31M5.06,8.85A2.67,2.67,0,0,0,2.77,8C1.26,8,.09,9.31,0,11.37v.31a4.55,4.55,0,0,0,3.76,4.21,11.12,11.12,0,0,0,2.89-.05,5.45,5.45,0,0,0-.35.76l-.25.79.09,0-.09.29s1.28.19,2.39.25a6.93,6.93,0,0,0,3.81-.6A6.36,6.36,0,0,0,14.53,15a4.55,4.55,0,0,1,.67-.7A3.11,3.11,0,0,0,15,15a7.07,7.07,0,0,0,0,1.07h0c0,.25,0,.42,0,.42a11.49,11.49,0,0,0,3.24-.35,6.07,6.07,0,0,0,2.77-2,3.55,3.55,0,0,0,1,2,3.74,3.74,0,0,0,4.71-.08A3.35,3.35,0,0,0,28,13.37a3.4,3.4,0,0,0,0-.77,3.38,3.38,0,0,0,2,.17,2.17,2.17,0,0,0,1.66-2.27,2.55,2.55,0,0,0-.13-1,2.1,2.1,0,0,0-3-1.3,1.34,1.34,0,0,0-.57,1.25,1.43,1.43,0,0,0,.21.92l-.17,0a4.33,4.33,0,0,1-.54-.21,3.65,3.65,0,0,1-.73-.46A5,5,0,0,0,24,8.1,12.52,12.52,0,0,0,17,8.73c-2.54.94-4.64,3-7.66,3.67s-5.1.12-5.59-1a1.78,1.78,0,0,1-.18-.63,1.64,1.64,0,0,1,.61-1.14c.16-.1.7-.42.92-.52A1.31,1.31,0,0,0,4.87,9l.19-.1m13.1,2.32c-.26.14-.28.36-.18.46-.16.23,0,.49.37.29a11.59,11.59,0,0,1,1.59-.87,7.44,7.44,0,0,1,1.9-.46c.42,0,.44-.15-.14-.15a8.48,8.48,0,0,0-1.84.34l.08,0a7.44,7.44,0,0,1,1.9-.46c.42,0,.44-.14-.14-.14a9.62,9.62,0,0,0-2.68.61c-.65.3-.86.42-.86.42m7,4.33a2.56,2.56,0,0,1-.62.15l.18,0a1.71,1.71,0,0,0,.44-.13M22,12.82c.17-.3.34-.13.24.13,0,0,0,0,0,0a.26.26,0,0,1,0,.26c0,.05,0,.13,0,.22a1.91,1.91,0,0,0,.57,1.25,2.36,2.36,0,0,0,1.92.61,2,2,0,0,0,1.15-.68c.24-.31.34-.14.19.13h0c.1,0,.11.11,0,.3a2.16,2.16,0,0,1-1.92.89,2.42,2.42,0,0,1-2.27-1.75,4.11,4.11,0,0,1,0-.47,1.48,1.48,0,0,1,.18-.94m-5.47,1.95c-.34,0-.45.14,0,.14a4.81,4.81,0,0,0,1.66-.34,1.69,1.69,0,0,1-.27.13,3.94,3.94,0,0,1-1.35.38c-.34,0-.45.13,0,.13a4.48,4.48,0,0,0,2.27-.66c.8-.53.78-.61.92-.8a.21.21,0,0,0,0-.28v0c.15-.19-.1-.55-.44-.19a3.38,3.38,0,0,1-1.36,1.15,4,4,0,0,1-1.35.37M8.63,16.61c-.24-.08-.18-.31.2-.35a12,12,0,0,0,1.78-.3,7.6,7.6,0,0,0,1.78-.82c.34-.24.44-.16,0,.2a8.77,8.77,0,0,1-1.89,1l.13,0a7.22,7.22,0,0,0,1.78-.82c.34-.24.44-.15,0,.2a9,9,0,0,1-2.18,1.06A6.77,6.77,0,0,1,8.86,17c-.4,0-.48-.23-.23-.34M8.53,14c-.33.19-.24.37.11.24l-.11.06c-.34.2-.23.38.12.24s1-.47,1.7-.71,1.24-.64.26-.3c-.62.21-1.15.39-1.55.54.37-.16.83-.38,1.29-.54.66-.24,1.24-.64.26-.31A17.82,17.82,0,0,0,8.53,14M8.22,15.3c-.28.25-.19.4.11.21l-.11.09c-.28.27-.19.41.13.2s.49-.47.79-.65.6-.55.16-.3c-.25.15-.49.3-.7.45a3.45,3.45,0,0,1,.54-.46c.3-.17.6-.55.16-.3a7.2,7.2,0,0,0-1.08.76M24,14.08c.6,0,.9-.48.84-1.15a1.55,1.55,0,0,0,0-.37A1.54,1.54,0,0,0,23.19,11c-1.21,0-1.71,1-2.3,2.13a5.12,5.12,0,0,1-2.78,2.32,6.07,6.07,0,0,1-2.72.27.28.28,0,0,1,0-.08,4.09,4.09,0,0,1,.25-1.18,8.48,8.48,0,0,1,1.2-1.92l-.43.27c.24-.34.43-.57.43-.57a11.48,11.48,0,0,0-2.16,1.64c-.92.94-1.23,2.07-2.56,2.77a6.54,6.54,0,0,1-3.68.62A6.86,6.86,0,0,1,6.79,17a4.84,4.84,0,0,1,.29-.86c.22-.45.73-1.25.73-1.25L7.57,15c.13-.23.24-.39.24-.39a9,9,0,0,1-3.73.55A4.1,4.1,0,0,1,.43,11.6,3.3,3.3,0,0,1,1.3,9.39a2.65,2.65,0,0,0-.49,1.7v.07a1,1,0,0,0,0,.24,2.2,2.2,0,0,0,.85,1.87c.25.14.39,0,.12-.19L1.64,13h0c.25.15.39,0,.12-.19a2,2,0,0,1-.65-1.12l0-.26A2.57,2.57,0,0,1,1.59,10a1.89,1.89,0,0,1,1.56-.78c.3,0,.59-.09.26-.21A2.59,2.59,0,0,0,2.8,9a1.59,1.59,0,0,1,.35,0c.28,0,.56-.07.31-.19a3,3,0,0,1,.66.17l-.27.17a2,2,0,0,0-.73,1.76,2.28,2.28,0,0,0,.16,1c.5,1.34,3,2,6,1.31s5.38-2.84,7.79-3.74a12.42,12.42,0,0,1,6.73-.62,4.66,4.66,0,0,1,2.52,1.46,3.16,3.16,0,0,0,2,.84c.41,0,.71-.26.53-.52.1-.13.07-.29-.15-.44a1,1,0,0,1-.41-.62,1.08,1.08,0,0,1,.48-.67c.77-.54,1.95.13,2.31,1.2a2.21,2.21,0,0,1,.08.35,1.86,1.86,0,0,1-.59,1.13,2,2,0,0,0,.33-1.2,1.33,1.33,0,0,0-.14-.75,1.64,1.64,0,0,0-1.26-.91.24.24,0,0,0-.22.4.22.22,0,0,0,.19.37,1.43,1.43,0,0,1,1.13,1s0,.09,0,.13a1.05,1.05,0,0,1-.35.71c-.29.23-.11.3.15.09l.07-.07a.88.88,0,0,1-.22.28c-.16.13-.18.21-.11.22a1.94,1.94,0,0,1-.63.2,4.23,4.23,0,0,1-2.25-.59c0,.12.05.23.07.35l-.07,0a8,8,0,0,1,.21,1.37,3.21,3.21,0,0,1-5.3,2.3,2,2,0,0,1-.76-1.48c0-.14,0-.27,0-.39.08-.63.72-1.74,1.69-1.77a1.14,1.14,0,0,1,1.27,1v0c0,.29-.18.56-.41.6s-.35.3-.13.35c-.2.11-.18.33.12.31"/></g></g></svg>