<svg xmlns="http://www.w3.org/2000/svg" preserveAspectRatio="none" viewBox="0 0 16.92 16.31"><defs><style>.cls-1{fill:#b32d27;fill-rule:evenodd;}</style></defs><title>8_h</title><g id="Layer_2" data-name="Layer 2"><g id="Layer_1-2" data-name="Layer 1"><path class="cls-1" d="M2.78,6.59,2.4,8.29C3,9.5,2.46,9.22,3.69,10c.32.2,2,1.05,2,1.06,1.42,1.22.11,2.33,3.38,2.9,2.1.37,2.24-1.69,2.91-2.86.28-.47,3-.88,3-3.21a6.44,6.44,0,0,0-.77-2.06c-.5-.72-1.43-.51-2.11-.94s-.76-1.48-.92-1.76A4.73,4.73,0,0,0,9.27,2.07H8.13c-1.12,0-2,1.79-2.42,2.7s-.8.65-1.32.8a5.17,5.17,0,0,0-1.61,1m4-2.07c0-.37.26-.61.41-1.06l1.69-.64c.67.35,1.72.91,1.72,1.89V4.9c0,.87-.35.56-.38,1.69,1.77,0,.49-.87,3.44-.19.07.83.38.83.38,1.32A1.87,1.87,0,0,1,12.14,9.6h-.38c-.7,0-.67-.22-1.46-.32L11,10.73c-.67,1.39.1,1-1.32,2.18l-1.54-.14L8,12.91,6.8,10.74l.56-1.32C6.35,9.5,6,10,5.26,10H5.07c-.42,0-1.26-1-1.38-1.47A3,3,0,0,1,4.31,6.4c1.09.23.62-.19,1.33-.19s.73.54,1.91.57c0-1.13-.76-1.33-.76-2.26"/><path class="cls-1" d="M3.16,1.51c-.41,0-.65-.94-1.34-.94-.33,0-1.34.67-1.34.94,0,.53,1,1.26,1.34,1.5A10.39,10.39,0,0,0,.51,7.93L0,8.52l2,4.8-.93.43v1.13c0,.47.79.94,1.14.94.69,0,.93-.94,1.34-.94.14,0,2,.84,2.42,1a14.85,14.85,0,0,0,3.09.36c2.65.4,3-1.1,5-1.55.41.21,1,.75,1.34.75h.38c.54,0,.74-.43,1-.75-.39-1.65-1.14-.9-.89-2.18a14.28,14.28,0,0,1,1.08-2.72c0-3.95.13-3.75-1.34-6.78.31-.45,1-.84,1-1.31,0-.91-.37-1-1-1.35L14,1.69l-.16-.18A9.2,9.2,0,0,0,8.7,0C7,0,3.59,1.51,3.16,1.51m1.34.75c.76.34,2.6-.94,4.2-.94,4.05,0,7.35,2.53,7.47,6.22.14,4.88-3.3,5.76-6.32,7.34l-.76-.39a2.65,2.65,0,0,1-1,.2,6.21,6.21,0,0,1-4.55-2.11A9.39,9.39,0,0,1,2.2,10.73a14.76,14.76,0,0,0-1-2.26l.41-.54c0-4.29,1.48-3.68,2.84-5.67"/></g></g></svg>