<?xml version="1.0" encoding="utf-8"?>
<!-- Generator: Adobe Illustrator 22.0.0, SVG Export Plug-In . SVG Version: 6.00 Build 0)  -->
<svg version="1.1" id="Layer_1" xmlns="http://www.w3.org/2000/svg" xmlns:xlink="http://www.w3.org/1999/xlink" x="0px" y="0px"
	 preserveAspectRatio="none"  viewBox="0 0 13 13" style="enable-background:new 0 0 13 13;" xml:space="preserve">
<style type="text/css">
	.st0{fill:#FFFFFF;}
	.st1{fill:#7C6742;}
</style>
<path class="st0" d="M0,0l0,12.6h13c0-4.3,0-8.3,0-12.6L0,0z"/>
<path class="st1" d="M0,10.9l0,0.6h13c0-0.2,0-0.4,0-0.6H0z"/>
<path class="st1" d="M0,12.6L0,13h13c0-0.1,0-0.3,0-0.4H0z"/>
<path class="st1" d="M0,0l0,0.4h13c0-0.1,0-0.3,0-0.4L0,0z"/>
<path class="st1" d="M0,9.1l0,0.9h13c0-0.3,0-0.6,0-0.9H0z"/>
<path class="st1" d="M0,3.4L0,4h13c0-0.2,0-0.4,0-0.6H0z"/>
<path class="st1" d="M0,6.9l0,1.2h13c0-0.4,0-0.8,0-1.2H0z"/>
<path class="st1" d="M0,1l0,0.3h0.3v0.9H0l0,0.3h13c0-0.5,0-1,0-1.4L0,1z M1.3,2.1H0.8V1.2h0.5V2.1z M1.8,2.1V1.2h0.5l0.1,0.9H1.8z
	 M3.4,2.1H2.9V1.2h0.5V2.1z M4.4,2.1H3.9V1.2h0.5V2.1z M5.5,2.1H5L4.9,1.2h0.6V2.1z M6.4,2.1H6L5.9,1.2h0.5V2.1z M7.5,2.1H7.1L7,1.2
	h0.5V2.1z M8.5,2.1H8.1L8,1.2h0.5V2.1z M9.5,2.1H9.2L9,1.2h0.5V2.1z M10.5,2.1H10V1.2h0.5V2.1z M11.8,2.1h-0.6V1.2h0.6V2.1z
	 M12.3,2.1l-0.1-0.9h0.5v0.9H12.3z"/>
<path class="st1" d="M0,5.1l0,0.8h13c0-0.3,0-0.5,0-0.8H0z"/>
</svg>
