<?xml version="1.0" encoding="utf-8"?>
<!-- Generator: Adobe Illustrator 22.0.0, SVG Export Plug-In . SVG Version: 6.00 Build 0)  -->
<svg version="1.1" id="Layer_1" xmlns="http://www.w3.org/2000/svg" xmlns:xlink="http://www.w3.org/1999/xlink" x="0px" y="0px"
	 preserveAspectRatio="none"  viewBox="0 0 13 13" style="enable-background:new 0 0 13 13;" xml:space="preserve">
<style type="text/css">
	.st0{fill:#FFFFFF;}
	.st1{fill:#7C6742;}
</style>
<path class="st0" d="M13,0L0.4,0v13c4.3,0,8.3,0,12.6,0V0z"/>
<path class="st1" d="M2.1,0L1.5,0v13c0.2,0,0.4,0,0.6,0V0z"/>
<path class="st1" d="M0.4,0L0,0l0,13c0.1,0,0.3,0,0.4,0V0z"/>
<path class="st1" d="M13,0l-0.4,0v13c0.1,0,0.3,0,0.4,0V0z"/>
<path class="st1" d="M3.9,0L3.1,0v13c0.3,0,0.6,0,0.9,0V0z"/>
<path class="st1" d="M9.6,0L9,0v13c0.2,0,0.4,0,0.6,0V0z"/>
<path class="st1" d="M6.1,0L4.9,0v13c0.4,0,0.8,0,1.2,0V0z"/>
<path class="st1" d="M12,0l-0.3,0v0.3h-0.9V0l-0.3,0v13c0.5,0,1,0,1.4,0V0z M10.9,1.3V0.8h0.9v0.5H10.9z M10.9,1.8h0.9v0.5l-0.9,0.1
	V1.8z M10.9,3.4V2.9h0.9v0.5H10.9z M10.9,4.4V3.9h0.9v0.5H10.9z M10.9,5.5V5l0.9-0.1v0.6H10.9z M10.9,6.4V6l0.9-0.1v0.5H10.9z
	 M10.9,7.5V7.1L11.8,7v0.5H10.9z M10.9,8.5V8.1L11.8,8v0.5H10.9z M10.9,9.5V9.2L11.8,9v0.5H10.9z M10.9,10.5V10h0.9v0.5H10.9z
	 M10.9,11.8v-0.6h0.9v0.6H10.9z M10.9,12.3l0.9-0.1v0.5h-0.9V12.3z"/>
<path class="st1" d="M7.9,0L7.2,0v13c0.3,0,0.5,0,0.8,0V0z"/>
</svg>
