<?xml version="1.0" encoding="utf-8"?>
<!-- Generator: Adobe Illustrator 22.0.0, SVG Export Plug-In . SVG Version: 6.00 Build 0)  -->
<svg version="1.1" id="Layer_1" xmlns="http://www.w3.org/2000/svg" xmlns:xlink="http://www.w3.org/1999/xlink" x="0px" y="0px"
	 preserveAspectRatio="none"  viewBox="0 0 42 42" style="enable-background:new 0 0 42 42;" xml:space="preserve">
<style type="text/css">
	.st0{fill:#FFFFFF;}
	.st1{fill:#7C6742;}
</style>
<polygon class="st0" points="6.1,0 6.4,5.3 4.9,6.6 4,8 4.4,9.8 5.3,11.1 5.9,12.3 6.3,12.8 6.4,15.9 5,17.6 4,19.7 3.6,21.2 
	1.4,22.5 0.7,24 0.4,25.6 0.5,26.5 1.3,27.9 1.8,28.9 2.5,29.3 2.9,30.9 3.7,30.6 3.4,32.3 3.2,34.1 2.9,36.7 3.9,37.5 4.9,38.4 
	5.7,39.4 7.3,39.3 8.1,39.2 9.2,39.1 10.1,39 10.9,38.7 11.4,38.7 11.8,39.5 13.4,40.1 14.6,41.1 15.9,41.9 17.3,42 18.3,41.7 
	19.3,41 20.2,39.7 20.9,39 23,37.9 24.7,37.3 27.2,36.1 30,36.1 31.2,37 32.5,37.9 33.9,38 35.4,37.7 36.1,37.2 37.1,36.5 42,36.5 
	42,22.9 19.4,22.9 19,0 "/>
<path class="st1" d="M6.8,23.7c2,1.4,2.6,0.4,4.4-1.3c-1.2,1.1-2.9,1.3-4.4,0.6c0.2,0.3,0.6,0.6,1,0.7C7.4,23.9,7.1,23.8,6.8,23.7z
	 M31.9,26c-0.4,0.9-1.7,2.7-2,0.3c0,1.3-0.9,3-4.4,4.1c1.9,0.2,6.9-1.7,7.7-4.3C33.1,26.3,31.2,28.7,31.9,26z M41.8,24v0.9H42v0.4
	h-2.1c0.1,0.3-0.7,0.8-1,1.1H42v0.4h-3.4c-0.2,0.3-0.3,0.7-0.3,1.1H42v0.9h-3.7c0.1,0.4,0.2,0.7,0.3,1H42V31h-2.8
	c0.2,0.3,0.4,0.7,0.5,1.1H42v0.8h-2.2c0.1,0.4,0,0.8-0.3,1.1H42v0.5h-3c-0.3,0.1-0.6-0.1-0.8-0.3c-3.6-5.1-8.3-1.9-11.1,1.5h2.3
	c-0.4-0.3-0.9-0.5-1.4-0.6c0.6,0,1.1,0.1,1.6,0.4v-2.1l0.3-0.2v2.5l0.8,0.7l0.1-3.8l0.2-0.2l-0.1,4.3c0.3,0.3,0.6,0.5,1,0.7l0.1-5.2
	h0.2l0.1,5.3c0.3,0.1,0.7,0.1,1,0.2l-0.2-5.7h0.1l0.4,5.7c0.3,0,0.6,0,0.8-0.1L34,31.9h0.2l0.6,5.6c0.3-0.1,0.5-0.2,0.7-0.4
	l-0.3-5.1l0.2,0.1l0.5,4.7c0.3-0.4,0.6-0.8,0.9-1.2l-0.5-3l0.3,0.2l0.5,2.4c0.7-0.8,1.9-0.8,1.8-0.6c-0.2,0.1-0.4,0.2-0.6,0.2
	c-0.1,0-0.1,0.1-0.2,0.1c-0.3,0.2-0.6,0.4-0.9,0.7h4.7v0.4h-4.9c-0.6,1.3-2,2.1-3.4,2c-1.9,0.1-2.6-1.2-3.7-2h-3.1
	c-0.9,0.9-2.1,1.5-3.3,1.9c-3.5,0.7-7.3-1.7-7.6-5.4l0.1-0.1c0.7,3.4,4.4,5.4,7.5,4.8c2.8-0.7,4.2-3.1,6.4-4.9
	c1.6-1.3,3.6-1.7,5.5-1.1c2,0.6,2.7,2.4,3.4,2.7s0.9-0.8,0.8-1.4c0.1-1.3-2.2-2.7-1.3-5.5c0.2-0.7,0.7-1.2,1.3-1.5
	c0.3-0.1-0.1-1.2-1.7-0.3c-0.1,2.3-1.6,2-1.5,1.8c0.7-1.3-0.4-2.3-1.2-1.7c-0.3,0.3-0.5,0.6-0.8,0.9c-0.7,1.1-1.5,2-2.4,2.9
	c-0.4,0.3-0.8,0.5-1.3,0.8c-3.1,1.8-7.3,2.6-10.3,0.7h-0.3c-0.5,0.2-1,0.4-1.6,0.4c-0.4,0-0.7,0.2-0.9,0.6c-0.1,0.1,0,0.4,0.2,0.4
	c0.4-0.1,0.3-0.3,0.3-0.5c0.2,0.1,0.2,0.4,0.1,0.6c-0.1,0.1-0.2,0.1-0.3,0.2c-0.3,0.1-0.6-0.1-0.6-0.4l0,0c0-0.5,0.3-0.9,0.7-1
	c0.8-0.4,2-0.4,2.5-1.3c0.2-0.6,0.1-1.3-0.2-1.9c-1-2.6-3.1-4.7-5.6-5.6c-0.6-0.3-1.3-0.4-1.9-0.2c-0.9,0.4-0.9,1.6-1.3,2.5
	c-0.2,0.4-0.5,0.8-1,0.7c-0.3,0-0.5-0.3-0.4-0.6c0,0,0,0,0-0.1c0.1-0.2,0.3-0.4,0.5-0.3c0.1,0,0.2,0.1,0.2,0.2
	c-0.2,0-0.4-0.1-0.5,0.3c0,0.2,0.3,0.2,0.4,0.2c0.3-0.2,0.5-0.5,0.6-0.9c0-0.5,0.2-1.1,0.4-1.6v-0.3c-1.9-3-1.1-7.2,0.7-10.3
	c0.3-0.5,0.5-0.9,0.8-1.3c0.8-1,1.8-1.8,2.8-2.5c0.3-0.2,0.6-0.4,0.9-0.7c0.5-0.8-0.4-2-1.7-1.2c-0.2,0.1-0.5-1.3,1.8-1.4
	c0.9-1.6-0.1-2-0.3-1.7c-0.3,0.6-0.9,1.1-1.5,1.3C12.4,5.1,11,2.8,9.7,2.9C8.9,2.4,7.8,2.6,8,3.2c0.2,0.6,2.1,1.4,2.7,3.4
	c0.6,1.9,0.1,4-1.1,5.5c-1.8,2.3-4.2,3.7-4.9,6.4c-0.7,3.2,1.4,6.9,4.8,7.5l-0.1,0.1c-3.8-0.3-6.1-4.3-5.4-7.6
	c0.4-1.3,1-2.4,1.9-3.3V12c-0.8-1.1-2.1-1.8-2-3.7C4,6,5,5.6,5.9,5V0h0.4v4.7C6.6,4.5,6.8,4.2,7,3.8c0-0.1,0-0.1,0-0.2
	C7,3.4,7.1,3.1,7.2,3c0.1-0.1,0.2,1.1-0.6,1.8l2.4,0.5l0.2,0.3l-3-0.5C5.9,5.3,5.5,5.6,5.1,5.9l4.7,0.5l0.1,0.2l-5-0.3
	C4.7,6.5,4.5,6.7,4.5,7L10,7.6v0.2L4.3,7.4c0,0.2,0,0.5-0.1,0.8l5.7,0.4v0.1L4.2,8.6c0,0.3,0.1,0.6,0.2,0.9l5.4,0.1v0.2L4.5,9.9
	c0.2,0.4,0.4,0.7,0.7,1l4.3-0.1L9.2,11l-3.8,0.1l0.7,0.8h2.5l-0.2,0.3h-2c0.3,0.5,0.5,1,0.4,1.5c-0.1-0.5-0.3-1-0.6-1.4v2.6
	c3.4-2.8,6.5-7.4,1.5-11C7.4,3.6,7.4,3.3,7.4,3V0H8v2.5c0.3-0.3,0.7-0.4,1.1-0.3V0h0.8v2.3c0.4,0.1,0.7,0.3,1.1,0.5V0h1.3v3.4
	c0.3,0.2,0.7,0.3,1.1,0.3V0h0.8v3.7c0.4,0,0.7-0.1,1.1-0.3V0h0.6v3.1c0.3-0.2,0.7-1,1.1-1V0h0.4v0.2h0.9V0h0.4v5.7
	c0.2,0.5,0.2,1,0,1.5v2.7c0.3,0.4,0.3,0.9,0,1.3V12c0.2,0.2,0.4,0.4,0.6,0.6V0h0.4v13.5c0.3,0.6,0.3,1.3,0,1.8v7.3h7.1
	c0.6-0.3,1.3-0.3,1.8,0H42V23H29.3c0.2,0.2,0.4,0.4,0.6,0.6h0.8c0.4-0.3,0.9-0.3,1.3,0h2.8c0.5-0.2,1-0.2,1.5,0h5.6L41.8,24L41.8,24
	z M37,24c0.1,0.1,0.2,0.2,0.3,0.3V24H37z M33.7,24.5c0.2-0.2,0.3-0.4,0.5-0.5h-0.5V24.5z M32.7,24.2c0.1,0.2,0.2,0.4,0.3,0.7h0.2V24
	h-0.5V24.2z M33.1,25.2v0.2V25.2L33.1,25.2z M30.7,23.9v0.9h0.6c0-0.3-0.2-0.7-0.4-0.9H30.7z M30.7,25.2c0,0.3,0,0.5,0,0.8
	c0.3-0.1,0.5-0.4,0.6-0.8H30.7z M17.2,1.3H18V0.8h-0.9V1.3z M17.3,2.3H18V1.8h-0.9L17.3,2.3L17.3,2.3z M17.5,3.3H18V2.8h-0.5
	C17.6,3,17.6,3.1,17.5,3.3L17.5,3.3z M17.3,4.3h0.9V3.8h-0.7L17.3,4.3z M17.8,4.8l0.3,0.3V4.8H17.8z M13.3,15.4
	c-0.5,0.7-0.8,1.5-1.1,2.4v3.5c0.3-0.2,0.7-0.4,1.1-0.3V15.4z M15.2,13.2c-0.5,0.2-0.8,0.5-1.1,0.9V21l1.1,0.5V13.2z M16.9,16.6
	c-0.6-0.2-0.5-0.8,0-1v-2.2c-0.3-0.3-0.7-0.4-1.1-0.3v8.6l1.1,0.7V16.6z M18.1,23h-0.5l0.5,0.5V23z M18.1,22h-0.9v0.5h0.9V22z
	 M18.1,21h-0.9v0.5h0.9V21z M18.1,20h-0.9v0.5h0.9V20z M18.1,19h-0.9v0.5h0.9V19z M18.1,18h-0.9v0.5h0.9V18z M18.1,17h-0.9v0.5h0.9
	V17z M18.9,13.2c-1.1-1.4-1.6-1.5-3.4-1.6c0,0,0.6-1.7,2.1-1c0.2,0.1,0.3,0.2,0.5,0.4c0.3,0.1,0.2-0.6,0.1-0.8
	c-0.5-0.7-1.4-1-2.2-0.9c1.6-0.8,2-1.4,2.3-2.6c0.1-1-0.8-2.8-2.5-2.1c-0.4,0.2-0.7,0.4-0.5,0.6s1.4-0.6,2.1,0.5
	c0.3,0.6,0.1,1.3-0.4,1.7c-2.4,1.6-2.9,1.5-4.4,4c-1.5,2.6-2,5.6-1.3,8.6c0.1-2.6,1.2-5,3-6.8c0,0,1.2-1.2,3,0.1
	c0.6,0.5,0.7,1.4,0.2,2c0,0.1-0.1,0.1-0.2,0.2c-0.2,0.1-0.6,0.4-0.6,0.7c0,0.5,1,0.2,1.2,0.1C19,15.7,19.4,14.3,18.9,13.2L18.9,13.2
	z M17.2,14.9v0.5c0.1-0.1,0.2-0.3,0.3-0.5H17.2z M17.4,14.4c0-0.3-0.1-0.5-0.3-0.7v0.7H17.4z M18,8.3V7.8c-0.1,0.2-0.3,0.4-0.5,0.5
	H18z M17.2,8.8V9c0.2,0.1,0.5,0.2,0.7,0.3H18V8.8H17.2z M16.7,8.9h0.2V8.8L16.7,8.9z M17.2,10.7v0.6H18v-0.2
	C17.8,10.9,17.5,10.8,17.2,10.7L17.2,10.7z M16.1,11.3c0.3,0,0.5,0,0.8,0v-0.6C16.5,10.7,16.2,11,16.1,11.3L16.1,11.3z M18.4,23.6
	h7.2c0.1-0.2,0.3-0.4,0.5-0.6H19v-7.1c-0.2,0.2-0.4,0.3-0.6,0.5V23.6z M24.6,23.9v0.9h0.5v-0.9H24.6z M24.1,23.9h-0.5v0.9h0.5V23.9z
	 M22.6,23.9v0.9h0.5v-0.9H22.6z M21.6,23.9v0.9h0.5v-0.9H21.6z M20.6,23.9v0.9h0.5v-0.9H20.6z M19,23.9h-0.5l0.5,0.5V23.9z
	 M19.5,24.8H20v-0.9h-0.5V24.8z M28.9,26.3c0.1-0.4,0-0.8-0.3-1.1h-2.2c-0.2,0.5-0.8,0.6-1,0h-5.8l0.6,1.1H28.9z M27.2,24.8v-0.2
	c-0.2,0-0.4,0.1-0.5,0.3L27.2,24.8z M28.3,24.8c-0.2-0.2-0.4-0.3-0.7-0.3v0.3H28.3z M21,27.8h6.9c0.4-0.3,0.7-0.6,0.8-1.1h-8.2
	L21,27.8z M20.8,29.7h3.5c0.8-0.2,1.6-0.6,2.4-1h-5.4C21.2,29.1,21,29.5,20.8,29.7z M35.5,23.8c-1.2,0.3-1.8,0.7-2.6,2.3
	c0.2-0.9-0.2-1.7-0.9-2.2c-0.2-0.2-0.9-0.3-0.8,0.1c0,0,0.2,0.3,0.4,0.5c0.7,1.5-1,2.1-1,2.1c-0.1-1.8-0.2-2.3-1.6-3.4
	c-1.1-0.6-2.5-0.2-3.1,0.9c-0.1,0.2-0.5,1.2,0.1,1.2c0.3,0,0.5-0.5,0.7-0.6c0.5-0.6,1.4-0.7,2-0.2c0.1,0,0.1,0.1,0.2,0.2
	c1.4,1.8,0.1,3,0.1,3c-1.8,1.8-4.3,2.9-6.8,3c3,0.7,6,0.2,8.6-1.3c2.5-1.5,2.4-2,4-4.4c0.4-0.5,1.1-0.7,1.7-0.4c1,0.6,0.3,2,0.5,2.1
	c0.2,0.1,0.4-0.1,0.6-0.5C38.1,24.6,36.4,23.6,35.5,23.8z M38.2,24h-0.5v0.8l0.5-0.2V24z M39.2,24h-0.5v0.5c0.2,0,0.3,0,0.5,0V24z
	 M40.2,24h-0.5v0.8l0.1,0.1h0.4V24z M41.2,24.9V24h-0.5v0.9H41.2z M7.3,15.5c0,0.5-0.4,2.1,3.3,1.6l-0.2-0.1c-1.4,0.2-2.2-0.8-2.7-2
	c0,0.4,0.1,0.8,0.3,1.1C7.7,16,7.2,15.6,7.3,15.5z M5.6,17.7c0,0.5-0.1,2.4,4.9,1.5L10.3,19c-2.6,0.1-3.8-0.8-4.4-1.9
	c0,0.4,0.2,0.8,0.5,1.1C6.1,18.2,5.8,18,5.6,17.7z M5,20.6c0.1,0.5,1.4,2.6,5.9,0.2h-0.2C8,21.4,6,21,5.2,20.1
	C5.3,20.5,5.6,20.8,6,21C5.6,20.9,5.3,20.8,5,20.6z M10.3,11.2c-0.1,1.2,1.4,1.1,1.4,1.1c-0.5-0.2-0.9-0.7-1-1.3
	c-0.1,0.3,0,0.6,0.2,0.8C10.7,11.7,10.5,11.5,10.3,11.2z M9,13.4c-0.3,1.3,1.6,1.5,1.6,1.5l0.1-0.1c-0.7-0.3-1.2-1-1.3-1.9
	c-0.1,0.4,0,0.9,0.2,1.2C9.5,14.1,9,13.5,9,13.4z M11,22.5L11,22.5C11.1,22.4,11.1,22.4,11,22.5L11,22.5z M29.1,32.5
	c-0.8,0-1.6-0.5-1.9-1.3l-0.1,0.2c0,0,0.2,1.9,1.5,1.6c-0.1,0-0.7-0.5-0.7-0.8C28.2,32.5,28.7,32.6,29.1,32.5L29.1,32.5z M21.2,31.1
	c-2.4,4.6-0.3,5.8,0.2,5.9c-0.2-0.3-0.4-0.6-0.3-1c0.2,0.4,0.5,0.7,0.9,0.8c-0.9-0.8-1.3-2.9-0.7-5.5C21.3,31.2,21.3,31.2,21.2,31.1
	L21.2,31.1z M19.5,31L19.5,31L19.5,31z M23,31.7l-0.2-0.2c-0.9,5.1,1,5,1.5,5c-0.3-0.2-0.5-0.5-0.6-0.8c0.3,0.3,0.7,0.5,1.1,0.5
	C23.8,35.5,22.9,34.2,23,31.7L23,31.7z M25,31.6c-0.5,3.6,1.1,3.3,1.6,3.3c-0.1,0-0.6-0.5-0.6-0.8c0.3,0.3,0.7,0.4,1.1,0.4
	c-1.2-0.5-2.2-1.3-2-2.7L25,31.6z M31.1,31.3c-0.6-0.1-1.1-0.5-1.3-1c0,0-0.1,1.5,1.1,1.4c-0.1,0-0.6-0.4-0.6-0.6
	C30.4,31.3,30.8,31.4,31.1,31.3L31.1,31.3z M18.3,35.4c-0.1-0.3-0.2-0.7-0.1-1c0.1,0.4,0.3,0.8,0.7,1c-0.7-1.5-0.4-3.2,0.6-4.4
	C17.9,32.7,17,33.4,18.3,35.4z M21.5,38.3c-0.1,0-0.3,0-0.4,0.1c-0.3,0.2-0.5,0.4-0.7,0.6l-0.3-1.1l-0.4-0.1l0.4,1.6
	c-0.3,0.4-0.6,0.8-0.9,1.2l-0.5-3.3l-0.2-0.1l0.4,3.7c-0.2,0.2-0.5,0.3-0.7,0.4l-0.8-5l-0.1-0.1l0.6,5.2c-0.3,0.1-0.5,0.1-0.8,0.2
	l-0.9-6.9l0.6,6.9c-0.3,0-0.7,0-1-0.1l-0.2-4.1h-0.2v3.9c-0.4-0.2-0.7-0.4-1-0.6l0.1-2.7h-0.2l-0.2,2.4l-0.9-0.7l0.2-1.1l-0.3,0.1
	L13,39.6c-0.4-0.2-0.8-0.3-1.2-0.4c-0.2-0.1-0.3-0.1-0.4,0c0.2,0.1,0.3,0.2,0.5,0.3c2.1,0.2,2.7,2.7,5.1,2.4
	c3.2-0.3,2.6-2.2,4.3-3.3c0.1-0.1,0.2-0.1,0.4-0.1c0.2,0,0.5-0.1,0.5-0.2C21.9,38.3,21.7,38.3,21.5,38.3z M5.5,36.6L5.6,37l3.8-4.4
	L5,36.5L5.5,36.6z M16.1,10.1c-2.7,0.7-0.4-1.2-0.1-1.3c-2.6,0.7-4.5,5.8-4.3,7.7c1.1-3.4,2.8-4.4,4.1-4.4
	C13.4,11.8,15.2,10.5,16.1,10.1z M13.4,28.9l-0.3-0.3c-1.1,1.1-2.2,2.3-3.2,3.5C11.2,31.2,12.4,30.1,13.4,28.9L13.4,28.9z M2.8,30.7
	c0.1-0.1,0.1-0.2,0-0.4c-0.1-0.4-0.2-0.8-0.4-1.2L3.3,29l0.1-0.3H2.2l-0.7-0.9l2.4-0.1v-0.2l-2.7,0.1c-0.3-0.3-0.5-0.6-0.6-1h3.9
	v-0.2l-4-0.2c-0.1-0.3-0.1-0.7-0.1-1l6.9,0.6L0.4,25c0-0.3,0.1-0.6,0.2-0.8l5.1,0.6l-0.1-0.1l-4.9-0.8c0.1-0.3,0.2-0.5,0.4-0.7
	l3.7,0.4l-0.1-0.2l-3.3-0.6c0.4-0.3,0.8-0.6,1.3-0.9l1.6,0.4L4.2,22L3,21.6c0.2-0.2,0.4-0.5,0.6-0.8c0.1-0.1,0.1-0.2,0.1-0.4
	c0-0.2,0-0.6,0-0.6s-0.2,0.3-0.2,0.5c0,0.1-0.1,0.2-0.1,0.4c-1.2,1.7-3,1.1-3.4,4.3c-0.3,2.5,2.2,3.2,2.4,5.2
	C2.5,30.3,2.6,30.5,2.8,30.7z M13.5,28.1c-1.7-1.6-2.1-3.8-0.9-4.9s3.5-0.7,5,0.9l0.1,0.1l0.1,0.1c1.6,1.7,2,4,0.9,5.2
	c-1.1,1.2-3.3,0.7-4.9-0.9l-0.2-0.2L13.5,28.1z M13.7,28l0.2,0.2l0.2,0.2c1.3,1.4,3.2,1.7,4.3,0.6c1.1-1.1,0.8-3.1-0.6-4.5l-0.1-0.1
	l-0.1-0.1c-1.4-1.3-3.4-1.6-4.5-0.6S12.3,26.6,13.7,28L13.7,28z M11.9,38.9c0.2-0.2,0.4-0.5,0.5-0.8c0.4,0.7,0.8,0.5,1,0.3
	c0.2-0.2,0.3-0.5,0.4-0.8c0.4,0.5,0.8,0.3,0.9,0.1c0.1-0.2,0.2-0.5,0.2-0.8c0.4,0.5,0.7,0.2,0.8,0c0.2-0.3,0.2-0.7,0.2-1
	c0-0.4-0.1-0.9-0.2-1.3c-0.1-0.7-0.5-3.1-0.5-4.5l0,0l-0.1-0.1c0,1.5,0.1,2.9,0.3,4.4c0.2,0.7,0.2,1.5,0.1,2.2
	c-0.1,0.2-0.2,0.3-0.5-0.1c0-0.4,0-1,0-1.4c-0.1-1.7,0-3.4,0.1-5.2l-0.2-0.1l0,0c-0.2,1.7-0.3,3.3-0.3,5c0.1,0.8,0,1.6-0.2,2.4
	c-0.1,0.2-0.3,0.3-0.6-0.2c0.1-0.3,0.1-1,0.1-1.4c0.1-1.9,0.4-3.8,0.8-5.7l-0.1-0.1c-0.5,1.8-0.8,3.6-0.9,5.4c0,0.9-0.2,1.8-0.5,2.7
	c-0.1,0.2-0.3,0.3-0.6-0.2c0.2-0.5,0.3-1.2,0.4-1.6c0.4-2.1,0.9-4.2,1.6-6.2l-0.3-0.2c-0.8,1.9-1.3,3.9-1.8,5.8
	c-0.1,1-0.4,2-0.9,2.8c-0.2,0.2-0.4,0.3-0.6-0.3c0.2-0.5,0.4-1.3,0.6-1.8c0.7-2.3,1.6-4.6,2.6-6.7L14,29.4c-1.1,2-2,4.1-2.7,6.2
	c-0.3,1.1-0.7,2.1-1.4,3c-0.2,0.2-0.4,0.2-0.6-0.3c0.3-0.6,0.6-1.2,0.9-1.9c1.1-2.5,2.3-4.9,3.7-7.1l-0.2-0.2
	c-1.5,2.1-2.7,4.3-3.8,6.5c-0.5,1-1,2.5-1.9,3.2c-0.1,0.3-0.3,0.3-0.5-0.2c0.5-0.6,0.9-1.3,1.2-2c0.8-1.2,3.2-5.6,4.9-7.4L13.5,29
	c-1.9,2-3.6,4.3-4.9,6.6c-0.7,1-1.4,2.7-2.5,3.3c-0.4,0.2-0.8,0-0.8-1.3c-0.3,0-0.5,0-0.8-0.1c-0.1-0.3-0.1-0.5-0.1-0.8
	c-1.4,0-1.5-0.4-1.3-0.8c0.6-1.1,2.2-1.8,3.3-2.5c2.4-1.4,4.7-3.1,6.6-5c0-0.1-0.1-0.1-0.2-0.2c-1.8,1.7-6.1,4.2-7.4,5
	c-0.7,0.4-1.4,0.8-2,1.2C3,34.4,3,34.2,3.1,33.9C3.8,33,5.3,32.5,6.3,32c2.3-1,4.6-2.3,6.5-3.8L12.6,28c-2.2,1.4-4.7,2.7-7.1,3.7
	c-0.5,0.2-1.3,0.5-1.9,0.9C3,32.4,3,32.2,3.2,32c0.9-0.6,1.9-1.1,3-1.4c2.2-0.7,4.3-1.6,6.2-2.7c0-0.1-0.1-0.1-0.1-0.2
	c-2.2,1-4.5,1.9-6.7,2.6c-0.4,0.2-1.2,0.4-1.8,0.6c-0.6-0.2-0.6-0.5-0.3-0.6c0.9-0.5,1.9-0.8,2.9-0.9c2-0.4,4-1,5.8-1.7l-0.1-0.2
	C10.2,28.2,8,28.7,6,29.1c-0.4,0.1-1.1,0.2-1.6,0.4c-0.5-0.3-0.5-0.5-0.2-0.6c0.8-0.3,1.7-0.5,2.7-0.5c1.8-0.2,3.7-0.5,5.4-0.9
	l-0.1-0.2c-1.9,0.4-3.8,0.6-5.7,0.8c-0.4,0-1,0.1-1.5,0.2c-0.4-0.3-0.4-0.5-0.2-0.5c0.8-0.2,1.6-0.3,2.4-0.2c1.7,0,3.3,0,4.9-0.3
	l0,0c0-0.1-0.1-0.1-0.1-0.2c-1.7,0.1-3.4,0.1-5.1,0.1c-0.3,0-0.9,0-1.4,0c-0.4-0.3-0.3-0.5-0.1-0.5c0.7-0.1,1.5-0.1,2.2,0.1
	c1.5,0.2,2.9,0.3,4.4,0.3L11.8,27l0,0c-1.4,0-3.8-0.4-4.5-0.5c-0.4-0.1-0.9-0.1-1.3-0.1c-0.3,0-0.6,0-0.9,0.1
	c-0.2,0.1-0.4,0.4,0,0.8c-0.3,0-0.5,0.1-0.8,0.2C4.2,27.6,4,28,4.5,28.4c-0.3,0.1-0.6,0.2-0.8,0.4c-0.2,0.2-0.4,0.6,0.3,1
	c-0.3,0.1-0.6,0.3-0.8,0.5c-0.2,0.2-0.3,0.7,0.4,1C3.3,31.5,3,31.7,2.7,32c-0.2,0.2-0.3,0.8,0.5,1c-0.3,0.2-0.6,0.5-0.8,0.9
	C2.2,34.2,2.3,34.7,3,35c-0.3,0.3-0.6,0.7-0.7,1.1c-0.1,0.4,0.1,1.3,1.6,1.3c0,0.3,0.1,0.5,0.2,0.8c0.2,0.1,0.5,0.1,0.8,0.2
	c0.1,1.5,0.9,1.8,1.3,1.6c0.4-0.2,0.8-0.4,1.1-0.7C7.5,40,8,40,8.3,39.9c0.4-0.2,0.7-0.5,0.9-0.8c0.2,0.8,0.8,0.7,1,0.5
	c0.3-0.2,0.5-0.5,0.7-0.9C11.1,39.2,11.6,39.1,11.9,38.9z"/>
</svg>
