<?xml version="1.0" encoding="utf-8"?>
<!-- Generator: Adobe Illustrator 22.0.0, SVG Export Plug-In . SVG Version: 6.00 Build 0)  -->
<svg version="1.1" id="Layer_1" xmlns="http://www.w3.org/2000/svg" xmlns:xlink="http://www.w3.org/1999/xlink" x="0px" y="0px"
	 preserveAspectRatio="none"  viewBox="0 0 42 42" style="enable-background:new 0 0 42 42;" xml:space="preserve">
<style type="text/css">
	.st0{fill:#FFFFFF;}
	.st1{fill:#7C6742;}
</style>
<polygon class="st0" points="42,6.1 36.7,6.4 35.4,4.9 34,4 32.2,4.4 30.9,5.3 29.7,5.9 29.2,6.3 26.1,6.4 24.4,5 22.3,4 20.8,3.6 
	19.5,1.4 18,0.7 16.4,0.4 15.5,0.5 14.1,1.3 13.1,1.8 12.7,2.5 11.1,2.9 11.4,3.7 9.7,3.4 7.9,3.2 5.3,2.9 4.5,3.9 3.6,4.9 2.6,5.7 
	2.7,7.3 2.8,8.1 2.9,9.2 3,10.1 3.3,10.9 3.3,11.4 2.5,11.8 1.9,13.4 0.9,14.6 0.1,15.9 0,17.3 0.3,18.3 1,19.3 2.3,20.2 3,20.9 
	4.1,23 4.7,24.7 5.9,27.2 5.9,30 5,31.2 4.1,32.5 4,33.9 4.3,35.4 4.8,36.1 5.5,37.1 5.5,42 19.1,42 19.1,19.4 42,19 "/>
<path class="st1" d="M18.3,6.8c-1.4,2-0.4,2.6,1.3,4.4c-1.1-1.2-1.3-2.9-0.6-4.4c-0.3,0.2-0.6,0.6-0.7,1C18.1,7.4,18.2,7.1,18.3,6.8
	z M16,31.9c-0.9-0.4-2.7-1.7-0.3-2c-1.3,0-3-0.9-4.1-4.4c-0.2,1.9,1.7,6.9,4.3,7.7C15.7,33.1,13.3,31.2,16,31.9z M18,41.8h-0.9V42
	h-0.4v-2.1c-0.3,0.1-0.8-0.7-1.1-1V42h-0.4v-3.4c-0.3-0.2-0.7-0.3-1.1-0.3V42h-0.9v-3.7c-0.4,0.1-0.7,0.2-1,0.3V42H11v-2.8
	c-0.3,0.2-0.7,0.4-1.1,0.5V42H9.1v-2.2c-0.4,0.1-0.8,0-1.1-0.3V42H7.5v-3c-0.1-0.3,0.1-0.6,0.3-0.8c5.1-3.6,1.9-8.3-1.5-11.1v2.3
	C6.6,29,6.8,28.5,6.9,28c0,0.6-0.1,1.1-0.4,1.6h2.1l0.2,0.3H6.3l-0.7,0.8l3.8,0.1L9.6,31l-4.3-0.1c-0.3,0.3-0.5,0.6-0.7,1L9.9,32
	v0.2l-5.3,0.1c-0.1,0.3-0.1,0.7-0.2,1l5.7-0.2v0.1l-5.7,0.4c0,0.3,0,0.6,0.1,0.8l5.6-0.4v0.2l-5.6,0.6c0.1,0.3,0.2,0.5,0.4,0.7
	l5.1-0.3l-0.1,0.2l-4.7,0.5c0.4,0.3,0.8,0.6,1.2,0.9l3-0.5l-0.2,0.3l-2.4,0.5c0.8,0.7,0.8,1.9,0.6,1.8c-0.1-0.2-0.2-0.4-0.2-0.6
	C7.1,38.1,7,38.1,7,38c-0.2-0.3-0.4-0.6-0.7-0.9v4.7H5.9v-4.9c-1.3-0.6-2.1-2-2-3.4c-0.1-1.9,1.2-2.6,2-3.7v-3.1
	c-0.9-0.9-1.5-2.1-1.9-3.3c-0.7-3.5,1.7-7.3,5.4-7.6L9.6,16c-3.4,0.7-5.4,4.4-4.8,7.5c0.7,2.8,3.1,4.2,4.9,6.4
	c1.3,1.6,1.7,3.6,1.1,5.5c-0.6,2-2.4,2.7-2.7,3.4c-0.3,0.7,0.8,0.9,1.4,0.8c1.3,0.1,2.7-2.2,5.5-1.3c0.7,0.2,1.2,0.7,1.5,1.3
	c0.1,0.3,1.2-0.1,0.3-1.7c-2.3-0.1-2-1.6-1.8-1.5c1.3,0.7,2.3-0.4,1.7-1.2c-0.3-0.3-0.6-0.5-0.9-0.8c-1.1-0.7-2-1.5-2.9-2.4
	c-0.3-0.4-0.5-0.8-0.8-1.3c-1.8-3.1-2.6-7.3-0.7-10.3v-0.3c-0.2-0.5-0.4-1-0.4-1.6c0-0.4-0.2-0.7-0.6-0.9c-0.1-0.1-0.4,0-0.4,0.2
	c0.1,0.4,0.3,0.3,0.5,0.3c-0.1,0.2-0.4,0.2-0.6,0.1c-0.1-0.1-0.1-0.2-0.2-0.3c-0.1-0.3,0.1-0.6,0.4-0.6l0,0c0.5,0,0.9,0.3,1,0.7
	c0.4,0.8,0.4,2,1.3,2.5c0.6,0.2,1.3,0.1,1.9-0.2c2.6-1,4.7-3.1,5.6-5.6c0.3-0.6,0.4-1.3,0.2-1.9c-0.4-0.9-1.6-0.9-2.5-1.3
	c-0.4-0.2-0.8-0.5-0.7-1c0-0.3,0.3-0.5,0.6-0.4c0,0,0,0,0.1,0c0.2,0.1,0.4,0.3,0.3,0.5c0,0.1-0.1,0.2-0.2,0.2c0-0.2,0.1-0.4-0.3-0.5
	c-0.2,0-0.2,0.3-0.2,0.4c0.2,0.3,0.5,0.5,0.9,0.6c0.5,0,1.1,0.2,1.6,0.4h0.3c3-1.9,7.2-1.1,10.3,0.7c0.5,0.3,0.9,0.5,1.3,0.8
	c1,0.8,1.8,1.8,2.5,2.8c0.2,0.3,0.4,0.6,0.7,0.9c0.8,0.5,2-0.4,1.2-1.7c-0.1-0.2,1.3-0.5,1.4,1.8c1.6,0.9,2-0.1,1.7-0.3
	c-0.6-0.3-1.1-0.9-1.3-1.5c-0.9-2.9,1.4-4.3,1.3-5.5c0.5-0.8,0.3-1.9-0.3-1.7c-0.6,0.2-1.4,2.1-3.4,2.7c-1.9,0.6-4,0.1-5.5-1.1
	c-2.3-1.8-3.7-4.2-6.4-4.9c-3.2-0.7-6.9,1.4-7.5,4.8l-0.1-0.1c0.3-3.8,4.3-6.1,7.6-5.4c1.3,0.4,2.4,1,3.3,1.9H30
	c1.1-0.8,1.8-2.1,3.7-2C36,4,36.4,5,37,5.9h5v0.4h-4.7c0.2,0.3,0.5,0.5,0.9,0.7c0.1,0,0.1,0,0.2,0c0.2,0,0.5,0.1,0.6,0.2
	c0.1,0.1-1.1,0.2-1.8-0.6l-0.5,2.4l-0.3,0.2l0.5-3c-0.3-0.3-0.6-0.7-0.9-1.1l-0.5,4.7l-0.2,0.1l0.3-5c-0.2-0.1-0.4-0.3-0.7-0.3
	L34.4,10h-0.2l0.4-5.7c-0.2,0-0.5,0-0.8-0.1l-0.4,5.7h-0.1l0.1-5.7c-0.3,0-0.6,0.1-0.9,0.2l-0.1,5.4h-0.2l-0.1-5.3
	c-0.4,0.2-0.7,0.4-1,0.7l0.1,4.3L31,9.2l-0.1-3.8l-0.8,0.7v2.5l-0.3-0.2v-2c-0.5,0.3-1,0.5-1.5,0.4c0.5-0.1,1-0.3,1.4-0.6h-2.6
	c2.8,3.4,7.4,6.5,11,1.5c0.3-0.3,0.6-0.4,0.9-0.3h3V8h-2.5c0.3,0.3,0.4,0.7,0.3,1.1H42v0.8h-2.3c-0.1,0.4-0.3,0.7-0.5,1.1H42v1.3
	h-3.4c-0.2,0.3-0.3,0.7-0.3,1.1H42v0.8h-3.7c0,0.4,0.1,0.7,0.3,1.1H42v0.6h-3.1c0.2,0.3,1,0.7,1,1.1H42v0.4h-0.2v0.9H42v0.4h-5.7
	c-0.5,0.2-1,0.2-1.5,0h-2.7c-0.4,0.3-0.9,0.3-1.3,0H30c-0.2,0.2-0.4,0.4-0.6,0.6H42v0.4H28.5c-0.6,0.3-1.3,0.3-1.8,0h-7.3v7.1
	c0.3,0.6,0.3,1.3,0,1.8V42H19V29.3c-0.2,0.2-0.4,0.4-0.6,0.6v0.8c0.3,0.4,0.3,0.9,0,1.3v2.8c0.2,0.5,0.2,1,0,1.5v5.6L18,41.8
	L18,41.8z M18,37c-0.1,0.1-0.2,0.2-0.3,0.3H18V37z M17.5,33.7c0.2,0.2,0.4,0.3,0.5,0.5v-0.5H17.5z M17.8,32.7
	c-0.2,0.1-0.4,0.2-0.7,0.3v0.2H18v-0.5H17.8z M16.8,33.1h-0.2H16.8L16.8,33.1z M18.1,30.7h-0.9v0.6c0.3,0,0.7-0.2,0.9-0.4V30.7z
	 M16.8,30.7c-0.3,0-0.5,0-0.8,0c0.1,0.3,0.4,0.5,0.8,0.6V30.7z M40.7,17.2V18h0.5v-0.9H40.7z M39.7,17.3V18h0.5v-0.9L39.7,17.3
	L39.7,17.3z M38.7,17.5V18h0.5v-0.5C39,17.6,38.9,17.6,38.7,17.5L38.7,17.5z M37.7,17.3v0.9h0.5v-0.7L37.7,17.3z M37.2,17.8
	l-0.3,0.3h0.3V17.8z M26.6,13.3c-0.7-0.5-1.5-0.8-2.4-1.1h-3.5c0.2,0.3,0.4,0.7,0.3,1.1H26.6z M28.8,15.2c-0.2-0.5-0.5-0.8-0.9-1.1
	H21l-0.5,1.1H28.8z M25.4,16.9c0.2-0.6,0.8-0.5,1,0h2.2c0.3-0.3,0.4-0.7,0.3-1.1h-8.6l-0.7,1.1H25.4z M19,18.1v-0.5l-0.5,0.5H19z
	 M20,18.1v-0.9h-0.5v0.9H20z M21,18.1v-0.9h-0.5v0.9H21z M22,18.1v-0.9h-0.5v0.9H22z M23,18.1v-0.9h-0.5v0.9H23z M24,18.1v-0.9h-0.5
	v0.9H24z M25,18.1v-0.9h-0.5v0.9H25z M28.8,18.9c1.4-1.1,1.5-1.6,1.6-3.4c0,0,1.7,0.6,1,2.1c-0.1,0.2-0.2,0.3-0.4,0.5
	c-0.1,0.3,0.6,0.2,0.8,0.1c0.7-0.5,1-1.4,0.9-2.2c0.8,1.6,1.4,2,2.6,2.3c1,0.1,2.8-0.8,2.1-2.5c-0.2-0.4-0.4-0.7-0.6-0.5
	s0.6,1.4-0.5,2.1c-0.6,0.3-1.3,0.1-1.7-0.4c-1.6-2.4-1.5-2.9-4-4.4c-2.6-1.5-5.6-2-8.6-1.3c2.6,0.1,5,1.2,6.8,3c0,0,1.2,1.2-0.1,3
	c-0.5,0.6-1.4,0.7-2,0.2c-0.1,0-0.1-0.1-0.2-0.2c-0.1-0.2-0.4-0.6-0.7-0.6c-0.5,0-0.2,1-0.1,1.2C26.3,19,27.7,19.4,28.8,18.9
	L28.8,18.9z M27.1,17.2h-0.5c0.1,0.1,0.3,0.2,0.5,0.3V17.2z M27.6,17.4c0.3,0,0.5-0.1,0.7-0.3h-0.7V17.4z M33.7,18h0.5
	c-0.2-0.1-0.4-0.3-0.5-0.5V18z M33.2,17.2H33c-0.1,0.2-0.2,0.5-0.3,0.7V18h0.5V17.2z M33.1,16.7v0.2h0.1L33.1,16.7z M31.3,17.2h-0.6
	V18h0.2C31.1,17.8,31.2,17.5,31.3,17.2L31.3,17.2z M30.7,16.1c0,0.3,0,0.5,0,0.8h0.6C31.3,16.5,31,16.2,30.7,16.1L30.7,16.1z
	 M18.4,18.4v7.2c0.2,0.1,0.4,0.3,0.6,0.5V19h7.1c-0.2-0.2-0.3-0.4-0.5-0.6H18.4z M18.1,24.6h-0.9v0.5h0.9V24.6z M18.1,24.1v-0.5
	h-0.9v0.5H18.1z M18.1,22.6h-0.9v0.5h0.9V22.6z M18.1,21.6h-0.9v0.5h0.9V21.6z M18.1,20.6h-0.9v0.5h0.9V20.6z M18.1,19v-0.5L17.6,19
	H18.1z M17.2,19.5V20h0.9v-0.5H17.2z M15.8,28.9c0.4,0.1,0.8,0,1.1-0.3v-2.2c-0.5-0.2-0.6-0.8,0-1v-5.8l-1.1,0.6V28.9z M17.2,27.2
	h0.2c0-0.2-0.1-0.4-0.3-0.5L17.2,27.2z M17.2,28.3c0.2-0.2,0.3-0.4,0.3-0.7h-0.3V28.3z M14.2,21v6.9c0.3,0.4,0.6,0.7,1.1,0.8v-8.2
	L14.2,21z M12.3,20.8v3.5c0.2,0.8,0.6,1.6,1,2.4v-5.4C12.9,21.2,12.5,21,12.3,20.8z M18.2,35.5c-0.3-1.2-0.7-1.8-2.3-2.6
	c0.9,0.2,1.7-0.2,2.2-0.9c0.2-0.2,0.3-0.9-0.1-0.8c0,0-0.3,0.2-0.5,0.4c-1.5,0.7-2.1-1-2.1-1c1.8-0.1,2.3-0.2,3.4-1.6
	c0.6-1.1,0.2-2.5-0.9-3.1c-0.2-0.1-1.2-0.5-1.2,0.1c0,0.3,0.5,0.5,0.6,0.7c0.6,0.5,0.7,1.4,0.2,2c0,0.1-0.1,0.1-0.2,0.2
	c-1.8,1.4-3,0.1-3,0.1c-1.8-1.8-2.9-4.3-3-6.8c-0.7,3-0.2,6,1.3,8.6c1.5,2.5,2,2.4,4.4,4c0.5,0.4,0.7,1.1,0.4,1.7
	c-0.6,1-2,0.3-2.1,0.5c-0.1,0.2,0.1,0.4,0.5,0.6C17.4,38.1,18.4,36.4,18.2,35.5z M18,38.2v-0.5h-0.8l0.2,0.5H18z M18,39.2v-0.5h-0.5
	c0,0.2,0,0.3,0,0.5H18z M18,40.2v-0.5h-0.8l-0.1,0.1v0.4H18z M17.1,41.2H18v-0.5h-0.9V41.2z M26.5,7.3c-0.5,0-2.1-0.4-1.6,3.3
	l0.1-0.2c-0.2-1.4,0.8-2.2,2-2.7c-0.4,0-0.8,0.1-1.1,0.3C26,7.7,26.4,7.2,26.5,7.3z M24.3,5.6c-0.5,0-2.4-0.1-1.5,4.9l0.2-0.2
	c-0.1-2.6,0.8-3.8,1.9-4.4c-0.4,0-0.8,0.2-1.1,0.5C23.8,6.1,24,5.8,24.3,5.6z M21.4,5c-0.5,0.1-2.6,1.4-0.2,5.9v-0.2
	C20.6,8,21,6,21.9,5.2C21.5,5.3,21.2,5.6,21,6C21.1,5.6,21.2,5.3,21.4,5z M30.8,10.3c-1.2-0.1-1.1,1.4-1.1,1.4
	c0.2-0.5,0.7-0.9,1.3-1c-0.3-0.1-0.6,0-0.8,0.2C30.3,10.7,30.5,10.5,30.8,10.3z M28.6,9c-1.3-0.3-1.5,1.6-1.5,1.6l0.1,0.1
	c0.3-0.7,1-1.2,1.9-1.3c-0.4-0.1-0.9,0-1.2,0.2C27.9,9.5,28.5,9,28.6,9z M19.5,11L19.5,11C19.6,11.1,19.6,11.1,19.5,11L19.5,11z
	 M9.5,29.1c0-0.8,0.5-1.6,1.3-1.9l-0.2-0.1c0,0-1.9,0.2-1.6,1.5c0-0.1,0.5-0.7,0.8-0.7C9.5,28.2,9.4,28.7,9.5,29.1L9.5,29.1z
	 M10.9,21.2c-4.6-2.4-5.8-0.3-5.9,0.2c0.3-0.2,0.6-0.4,1-0.3c-0.4,0.2-0.7,0.5-0.8,0.9c0.8-0.9,2.9-1.3,5.5-0.7
	C10.8,21.3,10.8,21.3,10.9,21.2L10.9,21.2z M11,19.5L11,19.5L11,19.5z M10.3,23l0.2-0.2c-5.1-0.9-5,1-5,1.5C5.7,24,6,23.8,6.3,23.7
	C6,24,5.8,24.4,5.8,24.8C6.5,23.8,7.8,22.9,10.3,23L10.3,23z M10.4,25c-3.6-0.5-3.3,1.1-3.3,1.6c0-0.1,0.5-0.6,0.8-0.6
	c-0.3,0.3-0.4,0.7-0.4,1.1c0.5-1.2,1.3-2.2,2.7-2L10.4,25z M10.7,31.1c0.1-0.6,0.5-1.1,1-1.3c0,0-1.5-0.1-1.4,1.1
	c0-0.1,0.4-0.6,0.6-0.6C10.7,30.4,10.6,30.8,10.7,31.1L10.7,31.1z M6.6,18.3c0.3-0.1,0.7-0.2,1-0.1c-0.4,0.1-0.8,0.3-1,0.7
	c1.5-0.7,3.2-0.4,4.4,0.6C9.3,17.9,8.6,17,6.6,18.3z M3.7,21.5c0-0.1,0-0.3-0.1-0.4c-0.2-0.3-0.4-0.5-0.6-0.7l1.1-0.3l0.1-0.4
	l-1.6,0.4c-0.4-0.3-0.8-0.6-1.2-0.9l3.3-0.5l0.1-0.2l-3.7,0.4c-0.2-0.2-0.3-0.5-0.4-0.7l5-0.8l0.1-0.1l-5.2,0.6
	c-0.1-0.3-0.1-0.5-0.2-0.8l6.9-0.9l-6.9,0.6c0-0.3,0-0.7,0.1-1l4.1-0.2v-0.2H0.7c0.2-0.4,0.4-0.7,0.6-1L4,14.6v-0.2l-2.4-0.2
	l0.7-0.9l1.1,0.2l-0.1-0.3L2.4,13c0.2-0.4,0.3-0.8,0.4-1.2c0.1-0.2,0.1-0.3,0-0.4c-0.1,0.2-0.2,0.3-0.3,0.5
	c-0.2,2.1-2.7,2.7-2.4,5.1c0.3,3.2,2.2,2.6,3.3,4.3c0.1,0.1,0.1,0.2,0.1,0.4c0,0.2,0.1,0.5,0.2,0.5C3.7,21.9,3.7,21.7,3.7,21.5z
	 M5.4,5.5L5,5.6l4.4,3.8L5.5,5L5.4,5.5z M31.9,16.1c-0.7-2.7,1.2-0.4,1.3-0.1c-0.7-2.6-5.8-4.5-7.7-4.3c3.4,1.1,4.4,2.8,4.4,4.1
	C30.2,13.4,31.5,15.2,31.9,16.1z M13.1,13.4l0.3-0.3c-1.1-1.1-2.3-2.2-3.5-3.2C10.8,11.2,11.9,12.4,13.1,13.4L13.1,13.4z M11.3,2.8
	c0.1,0.1,0.2,0.1,0.4,0c0.4-0.1,0.8-0.2,1.2-0.4L13,3.3l0.3,0.1V2.2l0.9-0.7l0.1,2.4h0.2l-0.1-2.7c0.3-0.3,0.6-0.5,1-0.6v3.9h0.2
	l0.2-4c0.3-0.1,0.7-0.1,1-0.1l-0.6,6.9L17,0.4c0.3,0,0.6,0.1,0.8,0.2l-0.6,5.1l0.1-0.1l0.8-4.9c0.3,0.1,0.5,0.2,0.7,0.4l-0.4,3.7
	l0.2-0.1l0.6-3.3c0.3,0.4,0.6,0.8,0.9,1.3l-0.4,1.6L20,4.2L20.4,3c0.2,0.2,0.5,0.4,0.8,0.6c0.1,0.1,0.2,0.1,0.4,0.1
	c0.2,0,0.6,0,0.6,0s-0.3-0.2-0.5-0.2c-0.1,0-0.2-0.1-0.4-0.1c-1.7-1.2-1.1-3-4.3-3.4c-2.5-0.3-3.2,2.2-5.2,2.4
	C11.7,2.5,11.5,2.6,11.3,2.8z M13.9,13.5c1.6-1.7,3.8-2.1,4.9-0.9s0.7,3.5-0.9,5l-0.1,0.1l-0.1,0.1c-1.7,1.6-4,2-5.2,0.9
	s-0.7-3.3,0.9-4.9l0.2-0.2L13.9,13.5z M14,13.7l-0.2,0.2l-0.2,0.2c-1.4,1.3-1.7,3.2-0.6,4.3c1.1,1.1,3.1,0.8,4.5-0.6l0.1-0.1
	l0.1-0.1c1.3-1.4,1.6-3.4,0.6-4.5S15.4,12.3,14,13.7L14,13.7z M3.1,11.9c0.2,0.2,0.5,0.4,0.8,0.5c-0.7,0.4-0.5,0.8-0.3,1
	c0.2,0.2,0.5,0.3,0.8,0.4c-0.5,0.4-0.3,0.8-0.1,0.9c0.2,0.1,0.5,0.2,0.8,0.2c-0.5,0.4-0.2,0.7,0,0.8c0.3,0.2,0.7,0.2,1,0.2
	c0.4,0,0.9-0.1,1.3-0.2c0.7-0.1,3.1-0.5,4.5-0.5l0,0l0.1-0.1c-1.5,0-2.9,0.1-4.4,0.3c-0.7,0.2-1.5,0.2-2.2,0.1
	c-0.2-0.1-0.3-0.2,0.1-0.5c0.4,0,1,0,1.4,0c1.7-0.1,3.4,0,5.2,0.1l0.1-0.2l0,0c-1.7-0.2-3.3-0.3-5-0.3c-0.8,0.1-1.6,0-2.4-0.2
	c-0.2-0.1-0.3-0.3,0.2-0.6c0.3,0.1,1,0.1,1.4,0.1c1.9,0.1,3.8,0.4,5.7,0.8l0.1-0.1c-1.8-0.5-3.6-0.8-5.4-0.9c-0.9,0-1.8-0.2-2.7-0.5
	c-0.2-0.1-0.3-0.3,0.2-0.6c0.5,0.2,1.2,0.3,1.6,0.4c2.1,0.4,4.2,0.9,6.2,1.6l0.2-0.3c-1.9-0.8-3.9-1.3-5.8-1.8c-1-0.1-2-0.4-2.8-0.9
	C3.5,11.4,3.4,11.2,4,11c0.5,0.2,1.3,0.4,1.8,0.6c2.3,0.7,4.6,1.6,6.7,2.6l0.1-0.2c-2-1.1-4.1-2-6.2-2.7c-1.1-0.3-2.1-0.7-3-1.4
	C3.2,9.7,3.2,9.5,3.7,9.3c0.6,0.3,1.2,0.6,1.9,0.9c2.5,1.1,4.9,2.3,7.1,3.7l0.2-0.2c-2.1-1.5-4.3-2.7-6.5-3.8c-1-0.5-2.5-1-3.2-1.9
	C2.9,7.9,2.9,7.7,3.4,7.5C4,8,4.7,8.4,5.3,8.7c1.2,0.8,5.6,3.2,7.4,4.9l0.2-0.2c-2-1.9-4.3-3.6-6.6-4.9c-1-0.7-2.7-1.4-3.3-2.5
	c-0.2-0.4,0-0.8,1.3-0.8c0-0.3,0-0.5,0.1-0.8C4.8,4.4,5,4.4,5.2,4.4C5.2,3,5.6,2.9,6,3.1c1.1,0.6,1.8,2.2,2.5,3.3
	c1.4,2.4,3.1,4.7,5,6.6c0.1,0,0.1-0.1,0.2-0.2C12,11,9.5,6.7,8.7,5.4C8.3,4.7,7.9,4,7.5,3.4C7.6,3,7.8,3,8.1,3.1
	C9,3.8,9.5,5.3,10,6.3c1,2.3,2.3,4.6,3.8,6.5l0.2-0.2c-1.4-2.2-2.7-4.7-3.7-7.1C10.1,5,9.8,4.2,9.4,3.6C9.6,3,9.8,3,10,3.2
	c0.6,0.9,1.1,1.9,1.4,3c0.7,2.2,1.6,4.3,2.7,6.2c0.1,0,0.1-0.1,0.2-0.1c-1-2.2-1.9-4.5-2.6-6.7c-0.2-0.4-0.4-1.2-0.6-1.8
	c0.2-0.6,0.5-0.6,0.6-0.3c0.5,0.9,0.8,1.9,0.9,2.9c0.4,2,1,4,1.7,5.8l0.2-0.1C13.8,10.2,13.3,8,12.9,6c-0.1-0.4-0.2-1.1-0.4-1.6
	c0.3-0.5,0.5-0.5,0.6-0.2c0.3,0.8,0.5,1.7,0.5,2.7c0.2,1.8,0.5,3.7,0.9,5.4l0.2-0.1c-0.4-1.9-0.6-3.8-0.8-5.7c0-0.4-0.1-1-0.2-1.5
	c0.3-0.4,0.5-0.4,0.5-0.2c0.2,0.8,0.3,1.6,0.2,2.4c0,1.7,0,3.3,0.3,4.9l0,0c0.1,0,0.1-0.1,0.2-0.1c-0.1-1.7-0.1-3.4-0.1-5.1
	c0-0.3,0-0.9,0-1.4c0.3-0.4,0.5-0.3,0.5-0.1c0.1,0.7,0.1,1.5-0.1,2.2c-0.2,1.5-0.3,2.9-0.3,4.4l0.1-0.1l0,0c0-1.4,0.4-3.8,0.5-4.5
	c0.1-0.4,0.1-0.9,0.1-1.3c0-0.3,0-0.6-0.1-0.9c-0.1-0.2-0.4-0.4-0.8,0c0-0.3-0.1-0.5-0.2-0.8C14.4,4.2,14,4,13.6,4.5
	c-0.1-0.3-0.2-0.6-0.4-0.8c-0.2-0.2-0.6-0.4-1,0.3c-0.1-0.3-0.3-0.6-0.5-0.8c-0.2-0.2-0.7-0.3-1,0.4C10.5,3.3,10.3,3,10,2.7
	C9.8,2.5,9.2,2.4,9,3.2C8.8,2.9,8.5,2.6,8.1,2.4C7.8,2.2,7.3,2.3,7,3C6.7,2.7,6.3,2.4,5.9,2.3C5.5,2.2,4.7,2.4,4.7,3.9
	C4.4,3.9,4.2,4,3.9,4.1C3.8,4.3,3.8,4.6,3.7,4.9C2.2,5,1.9,5.8,2.1,6.2S2.5,7,2.8,7.3C2,7.5,2,8,2.1,8.3C2.3,8.7,2.6,9,2.9,9.2
	c-0.8,0.2-0.7,0.8-0.5,1c0.2,0.3,0.5,0.5,0.9,0.7C2.8,11.1,2.9,11.6,3.1,11.9z"/>
</svg>
