<?xml version="1.0" encoding="utf-8"?>
<!-- Generator: Adobe Illustrator 22.0.0, SVG Export Plug-In . SVG Version: 6.00 Build 0)  -->
<svg version="1.1" id="Layer_1" xmlns="http://www.w3.org/2000/svg" xmlns:xlink="http://www.w3.org/1999/xlink" x="0px" y="0px"
	 preserveAspectRatio="none"  viewBox="0 0 13 13" style="enable-background:new 0 0 13 13;" xml:space="preserve">
<style type="text/css">
	.st0{fill:#FFFFFF;}
	.st1{fill:#7C6742;}
</style>
<path class="st0" d="M0,13h12.6V0C8.3,0,4.3,0,0,0L0,13z"/>
<path class="st1" d="M10.9,13h0.6V0c-0.2,0-0.4,0-0.6,0V13z"/>
<path class="st1" d="M12.6,13H13V0c-0.1,0-0.3,0-0.4,0V13z"/>
<path class="st1" d="M0,13h0.4V0C0.3,0,0.1,0,0,0L0,13z"/>
<path class="st1" d="M9.1,13h0.9V0C9.7,0,9.4,0,9.1,0V13z"/>
<path class="st1" d="M3.4,13H4V0C3.8,0,3.6,0,3.4,0V13z"/>
<path class="st1" d="M6.9,13h1.2V0C7.7,0,7.3,0,6.9,0V13z"/>
<path class="st1" d="M1,13h0.3v-0.3h0.9V13h0.3V0C1.9,0,1.4,0,1,0L1,13z M2.1,11.7v0.5H1.2v-0.5H2.1z M2.1,11.2H1.2v-0.5l0.9-0.1
	V11.2z M2.1,9.6v0.5H1.2V9.6H2.1z M2.1,8.6v0.5H1.2V8.6H2.1z M2.1,7.5V8L1.2,8.1V7.5H2.1z M2.1,6.6V7L1.2,7.1V6.6H2.1z M2.1,5.5v0.4
	L1.2,6V5.5H2.1z M2.1,4.5v0.4L1.2,5V4.5H2.1z M2.1,3.5v0.3L1.2,4V3.5H2.1z M2.1,2.5V3H1.2V2.5H2.1z M2.1,1.2v0.6H1.2V1.2H2.1z
	 M2.1,0.7L1.2,0.8V0.3h0.9V0.7z"/>
<path class="st1" d="M5.1,13h0.8V0C5.6,0,5.3,0,5.1,0V13z"/>
</svg>
