<?xml version="1.0" encoding="utf-8"?>
<!-- Generator: Adobe Illustrator 22.0.0, SVG Export Plug-In . SVG Version: 6.00 Build 0)  -->
<svg version="1.1" id="Layer_1" xmlns="http://www.w3.org/2000/svg" xmlns:xlink="http://www.w3.org/1999/xlink" x="0px" y="0px"
	 preserveAspectRatio="none"  viewBox="0 0 42 42" style="enable-background:new 0 0 42 42;" xml:space="preserve">
<style type="text/css">
	.st0{fill:#FFFFFF;}
	.st1{fill:#7C6742;}
</style>
<polygon class="st0" points="0,35.9 5.3,35.6 6.6,37.1 8,38 9.8,37.6 11.1,36.7 12.3,36.1 12.8,35.7 15.9,35.6 17.6,37 19.7,38 
	21.2,38.4 22.5,40.6 24,41.3 25.6,41.6 26.5,41.5 27.9,40.7 28.9,40.2 29.3,39.5 30.9,39.1 30.6,38.3 32.3,38.6 34.1,38.8 
	36.7,39.1 37.5,38.1 38.4,37.1 39.4,36.3 39.3,34.7 39.2,33.9 39.1,32.8 39,31.9 38.7,31.1 38.7,30.6 39.5,30.2 40.1,28.6 
	41.1,27.4 41.9,26.1 42,24.7 41.7,23.7 41,22.7 39.7,21.8 39,21.1 37.9,19 37.3,17.3 36.1,14.8 36.1,12 37,10.8 37.9,9.5 38,8.1 
	37.7,6.6 37.2,5.9 36.5,4.9 36.5,0 22.9,0 22.9,22.6 0,23 "/>
<path class="st1" d="M23.7,35.2c1.4-2,0.4-2.6-1.3-4.4c1.1,1.2,1.3,2.9,0.6,4.4c0.3-0.2,0.6-0.6,0.7-1
	C23.9,34.6,23.8,34.9,23.7,35.2z M26,10.1c0.9,0.4,2.7,1.7,0.3,2c1.3,0,3,0.9,4.1,4.4c0.2-1.9-1.7-6.9-4.3-7.7
	C26.3,8.9,28.7,10.8,26,10.1z M24,0.2h0.9V0l0.4,0v2.1c0.3-0.1,0.8,0.7,1.1,1V0l0.4,0v3.4c0.3,0.2,0.7,0.3,1.1,0.3V0l0.9,0v3.7
	c0.4-0.1,0.7-0.2,1-0.3V0L31,0v2.8c0.3-0.2,0.7-0.4,1.1-0.5V0l0.8,0v2.2c0.4-0.1,0.8,0,1.1,0.3V0l0.5,0v3c0.1,0.3-0.1,0.6-0.3,0.8
	c-5.1,3.6-1.9,8.3,1.5,11.1v-2.3c-0.3,0.4-0.5,0.9-0.6,1.4c0-0.6,0.1-1.1,0.4-1.6h-2.1l-0.2-0.3h2.5l0.7-0.8l-3.8-0.1L32.4,11
	l4.3,0.1c0.3-0.3,0.5-0.6,0.7-1L32.1,10V9.8l5.3-0.1c0.1-0.3,0.1-0.7,0.2-1l-5.7,0.2V8.8l5.7-0.4c0-0.3,0-0.6-0.1-0.8L31.9,8V7.8
	l5.6-0.6c-0.1-0.3-0.2-0.5-0.4-0.7l-5.1,0.3l0.1-0.2l4.7-0.5c-0.4-0.3-0.8-0.6-1.2-0.9l-3,0.5l0.2-0.3l2.4-0.5
	c-0.8-0.7-0.8-1.9-0.6-1.8c0.1,0.2,0.2,0.4,0.2,0.6C34.9,3.9,35,3.9,35,4c0.2,0.3,0.4,0.6,0.7,0.9V0.2h0.4v4.9c1.3,0.6,2.1,2,2,3.4
	c0.1,1.9-1.2,2.6-2,3.7v3.1c0.9,0.9,1.5,2.1,1.9,3.3c0.7,3.5-1.7,7.3-5.4,7.6L32.4,26c3.4-0.7,5.4-4.4,4.8-7.5
	c-0.7-2.8-3.1-4.2-4.9-6.4c-1.3-1.6-1.7-3.6-1.1-5.5c0.6-2,2.4-2.7,2.7-3.4s-0.8-0.9-1.4-0.8c-1.3-0.1-2.7,2.2-5.5,1.3
	c-0.7-0.2-1.2-0.7-1.5-1.3c-0.1-0.3-1.2,0.1-0.3,1.7c2.3,0.1,2,1.6,1.8,1.5c-1.3-0.7-2.3,0.4-1.7,1.2c0.3,0.3,0.6,0.5,0.9,0.8
	c1.1,0.7,2,1.5,2.9,2.4c0.3,0.4,0.5,0.8,0.8,1.3c1.8,3.1,2.6,7.3,0.7,10.3v0.3c0.2,0.5,0.4,1,0.4,1.6c0,0.4,0.2,0.7,0.6,0.9
	c0.1,0.1,0.4,0,0.4-0.2c-0.1-0.4-0.3-0.3-0.5-0.3c0.1-0.2,0.4-0.2,0.6-0.1c0.1,0.1,0.1,0.2,0.2,0.3c0.1,0.3-0.1,0.6-0.4,0.6l0,0
	c-0.5,0-0.9-0.3-1-0.7c-0.4-0.8-0.4-2-1.3-2.5c-0.6-0.2-1.3-0.1-1.9,0.2c-2.6,1-4.7,3.1-5.6,5.6c-0.3,0.6-0.4,1.3-0.2,1.9
	c0.4,0.9,1.6,0.9,2.5,1.3c0.4,0.2,0.8,0.5,0.7,1c0,0.3-0.3,0.5-0.6,0.4c0,0,0,0-0.1,0c-0.2-0.1-0.4-0.3-0.3-0.5
	c0-0.1,0.1-0.2,0.2-0.2c0,0.2-0.1,0.4,0.3,0.5c0.2,0,0.2-0.3,0.2-0.4c-0.2-0.3-0.5-0.5-0.9-0.6c-0.5,0-1.1-0.2-1.6-0.4h-0.3
	c-3,1.9-7.2,1.1-10.3-0.7c-0.5-0.3-0.9-0.5-1.3-0.8c-1-0.8-1.8-1.8-2.5-2.8c-0.2-0.3-0.4-0.6-0.7-0.9c-0.8-0.5-2,0.4-1.2,1.7
	c0.1,0.2-1.3,0.5-1.4-1.8c-1.6-0.9-2,0.1-1.7,0.3c0.6,0.3,1.1,0.9,1.3,1.5c0.9,2.9-1.4,4.3-1.3,5.5c-0.5,0.8-0.3,1.9,0.3,1.7
	c0.6-0.2,1.4-2.1,3.4-2.7c1.9-0.6,4-0.1,5.5,1.1c2.3,1.8,3.7,4.2,6.4,4.9c3.2,0.7,6.9-1.4,7.5-4.8l0.1,0.1c-0.3,3.8-4.3,6.1-7.6,5.4
	c-1.3-0.4-2.4-1-3.3-1.9H12c-1.1,0.8-1.8,2.1-3.7,2C6,38,5.6,37,5,36.1H0l0-0.4h4.7c-0.2-0.3-0.5-0.5-0.9-0.7c-0.1,0-0.1,0-0.2,0
	c-0.2,0-0.5-0.1-0.6-0.2s1.1-0.2,1.8,0.6l0.5-2.4l0.3-0.2l-0.5,3c0.3,0.3,0.6,0.7,0.9,1.1l0.5-4.7l0.2-0.1l-0.3,5
	c0.2,0.1,0.4,0.3,0.7,0.3L7.6,32h0.2l-0.4,5.7c0.2,0,0.5,0,0.8,0.1l0.4-5.7h0.1l-0.1,5.7c0.3,0,0.6-0.1,0.9-0.2l0.1-5.4h0.2l0.1,5.3
	c0.4-0.2,0.7-0.4,1-0.7l-0.1-4.3l0.2,0.2l0.1,3.8l0.8-0.7v-2.5l0.3,0.2v2c0.5-0.3,1-0.5,1.5-0.4c-0.5,0.1-1,0.3-1.4,0.6h2.6
	c-2.8-3.4-7.4-6.5-11-1.5c-0.3,0.3-0.6,0.4-0.9,0.3H0L0,34h2.5c-0.3-0.3-0.4-0.7-0.3-1.1H0l0-0.8h2.3c0.1-0.4,0.3-0.7,0.5-1.1H0
	l0-1.3h3.4c0.2-0.3,0.3-0.7,0.3-1.1H0l0-0.8h3.7c0-0.4-0.1-0.7-0.3-1.1H0l0-0.6h3.1c-0.2-0.3-1-0.7-1-1.1H0l0-0.4h0.2v-0.9H0l0-0.4
	h5.7c0.5-0.2,1-0.2,1.5,0h2.7c0.4-0.3,0.9-0.3,1.3,0H12c0.2-0.2,0.4-0.4,0.6-0.6H0l0-0.4h13.5c0.6-0.3,1.3-0.3,1.8,0h7.3v-7.1
	c-0.3-0.6-0.3-1.3,0-1.8V0L23,0v12.7c0.2-0.2,0.4-0.4,0.6-0.6v-0.8c-0.3-0.4-0.3-0.9,0-1.3V7.2c-0.2-0.5-0.2-1,0-1.5V0.1L24,0.2
	L24,0.2z M24,5c0.1-0.1,0.2-0.2,0.3-0.3H24V5z M24.5,8.3C24.3,8.1,24.1,8,24,7.8v0.5H24.5z M24.2,9.3c0.2-0.1,0.4-0.2,0.7-0.3V8.8
	H24v0.5H24.2z M25.2,8.9h0.2H25.2L25.2,8.9z M23.9,11.3h0.9v-0.6c-0.3,0-0.7,0.2-0.9,0.4V11.3z M25.2,11.3c0.3,0,0.5,0,0.8,0
	c-0.1-0.3-0.4-0.5-0.8-0.6V11.3z M1.3,24.8V24H0.8v0.9H1.3z M2.3,24.7V24H1.8v0.9L2.3,24.7L2.3,24.7z M3.3,24.5V24H2.8v0.5
	C3,24.4,3.1,24.4,3.3,24.5L3.3,24.5z M4.3,24.7v-0.9H3.8v0.7L4.3,24.7z M4.8,24.2l0.3-0.3H4.8V24.2z M15.4,28.7
	c0.7,0.5,1.5,0.8,2.4,1.1h3.5c-0.2-0.3-0.4-0.7-0.3-1.1H15.4z M13.2,26.8c0.2,0.5,0.5,0.8,0.9,1.1H21l0.5-1.1H13.2z M16.6,25.1
	c-0.2,0.6-0.8,0.5-1,0h-2.2c-0.3,0.3-0.4,0.7-0.3,1.1h8.6l0.7-1.1H16.6z M23,23.9v0.5l0.5-0.5H23z M22,23.9v0.9h0.5v-0.9H22z
	 M21,23.9v0.9h0.5v-0.9H21z M20,23.9v0.9h0.5v-0.9H20z M19,23.9v0.9h0.5v-0.9H19z M18,23.9v0.9h0.5v-0.9H18z M17,23.9v0.9h0.5v-0.9
	H17z M13.2,23.1c-1.4,1.1-1.5,1.6-1.6,3.4c0,0-1.7-0.6-1-2.1c0.1-0.2,0.2-0.3,0.4-0.5c0.1-0.3-0.6-0.2-0.8-0.1
	c-0.7,0.5-1,1.4-0.9,2.2c-0.8-1.6-1.4-2-2.6-2.3c-1-0.1-2.8,0.8-2.1,2.5c0.2,0.4,0.4,0.7,0.6,0.5c0.2-0.2-0.6-1.4,0.5-2.1
	c0.6-0.3,1.3-0.1,1.7,0.4c1.6,2.4,1.5,2.9,4,4.4c2.6,1.5,5.6,2,8.6,1.3c-2.6-0.1-5-1.2-6.8-3c0,0-1.2-1.2,0.1-3
	c0.5-0.6,1.4-0.7,2-0.2c0.1,0,0.1,0.1,0.2,0.2c0.1,0.2,0.4,0.6,0.7,0.6c0.5,0,0.2-1,0.1-1.2C15.7,23,14.3,22.6,13.2,23.1L13.2,23.1z
	 M14.9,24.8h0.5c-0.1-0.1-0.3-0.2-0.5-0.3V24.8z M14.4,24.6c-0.3,0-0.5,0.1-0.7,0.3h0.7V24.6z M8.3,24H7.8c0.2,0.1,0.4,0.3,0.5,0.5
	V24z M8.8,24.8H9c0.1-0.2,0.2-0.5,0.3-0.7V24H8.8V24.8z M8.9,25.3v-0.2H8.8L8.9,25.3z M10.7,24.8h0.6V24h-0.2
	C10.9,24.2,10.8,24.5,10.7,24.8L10.7,24.8z M11.3,25.9c0-0.3,0-0.5,0-0.8h-0.6C10.7,25.5,11,25.8,11.3,25.9L11.3,25.9z M23.6,23.6
	v-7.2c-0.2-0.1-0.4-0.3-0.6-0.5V23h-7.1c0.2,0.2,0.3,0.4,0.5,0.6H23.6z M23.9,17.4h0.9v-0.5h-0.9V17.4z M23.9,17.9v0.5h0.9v-0.5
	H23.9z M23.9,19.4h0.9v-0.5h-0.9V19.4z M23.9,20.4h0.9v-0.5h-0.9V20.4z M23.9,21.4h0.9v-0.5h-0.9V21.4z M23.9,23v0.5l0.5-0.5H23.9z
	 M24.8,22.5V22h-0.9v0.5H24.8z M26.3,13.1c-0.4-0.1-0.8,0-1.1,0.3v2.2c0.5,0.2,0.6,0.8,0,1v5.8l1.1-0.6V13.1z M24.8,14.8h-0.2
	c0,0.2,0.1,0.4,0.3,0.5L24.8,14.8z M24.8,13.7c-0.2,0.2-0.3,0.4-0.3,0.7h0.3V13.7z M27.8,21v-6.9c-0.3-0.4-0.6-0.7-1.1-0.8v8.2
	L27.8,21z M29.7,21.2v-3.5c-0.2-0.8-0.6-1.6-1-2.4v5.4C29.1,20.8,29.5,21,29.7,21.2z M23.8,6.5c0.3,1.2,0.7,1.8,2.3,2.6
	c-0.9-0.2-1.7,0.2-2.2,0.9c-0.2,0.2-0.3,0.9,0.1,0.8c0,0,0.3-0.2,0.5-0.4c1.5-0.7,2.1,1,2.1,1c-1.8,0.1-2.3,0.2-3.4,1.6
	c-0.6,1.1-0.2,2.5,0.9,3.1c0.2,0.1,1.2,0.5,1.2-0.1c0-0.3-0.5-0.5-0.6-0.7c-0.6-0.5-0.7-1.4-0.2-2c0-0.1,0.1-0.1,0.2-0.2
	c1.8-1.4,3-0.1,3-0.1c1.8,1.8,2.9,4.3,3,6.8c0.7-3,0.2-6-1.3-8.6c-1.5-2.5-2-2.4-4.4-4c-0.5-0.4-0.7-1.1-0.4-1.7
	c0.6-1,2-0.3,2.1-0.5s-0.1-0.4-0.5-0.6C24.6,3.9,23.6,5.6,23.8,6.5z M24,3.8v0.5h0.8l-0.2-0.5H24z M24,2.8v0.5h0.5
	c0-0.2,0-0.3,0-0.5H24z M24,1.8v0.5h0.8l0.1-0.1V1.8H24z M24.9,0.8H24v0.5h0.9V0.8z M15.5,34.7c0.5,0,2.1,0.4,1.6-3.3l-0.1,0.2
	c0.2,1.4-0.8,2.2-2,2.7c0.4,0,0.8-0.1,1.1-0.3C16,34.3,15.6,34.8,15.5,34.7z M17.7,36.4c0.5,0,2.4,0.1,1.5-4.9L19,31.7
	c0.1,2.6-0.8,3.8-1.9,4.4c0.4,0,0.8-0.2,1.1-0.5C18.2,35.9,18,36.2,17.7,36.4z M20.6,37c0.5-0.1,2.6-1.4,0.2-5.9v0.2
	c0.6,2.7,0.2,4.8-0.7,5.5c0.4-0.1,0.7-0.4,0.9-0.8C20.9,36.4,20.8,36.7,20.6,37z M11.2,31.7c1.2,0.1,1.1-1.4,1.1-1.4
	c-0.2,0.5-0.7,0.9-1.3,1c0.3,0.1,0.6,0,0.8-0.2C11.7,31.3,11.5,31.5,11.2,31.7z M13.4,33c1.3,0.3,1.5-1.6,1.5-1.6l-0.1-0.1
	c-0.3,0.7-1,1.2-1.9,1.3c0.4,0.1,0.9,0,1.2-0.2C14.1,32.5,13.5,33,13.4,33z M22.5,31L22.5,31C22.4,30.9,22.4,30.9,22.5,31L22.5,31z
	 M32.5,12.9c0,0.8-0.5,1.6-1.3,1.9l0.2,0.1c0,0,1.9-0.2,1.6-1.5c0,0.1-0.5,0.7-0.8,0.7C32.5,13.8,32.6,13.3,32.5,12.9L32.5,12.9z
	 M31.1,20.8c4.6,2.4,5.8,0.3,5.9-0.2c-0.3,0.2-0.6,0.4-1,0.3c0.4-0.2,0.7-0.5,0.8-0.9c-0.8,0.9-2.9,1.3-5.5,0.7
	C31.2,20.7,31.2,20.7,31.1,20.8L31.1,20.8z M31,22.5L31,22.5L31,22.5z M31.7,19l-0.2,0.2c5.1,0.9,5-1,5-1.5
	c-0.2,0.3-0.5,0.5-0.8,0.6c0.3-0.3,0.5-0.7,0.5-1.1C35.5,18.2,34.2,19.1,31.7,19L31.7,19z M31.6,17c3.6,0.5,3.3-1.1,3.3-1.6
	c0,0.1-0.5,0.6-0.8,0.6c0.3-0.3,0.4-0.7,0.4-1.1c-0.5,1.2-1.3,2.2-2.7,2L31.6,17z M31.3,10.9c-0.1,0.6-0.5,1.1-1,1.3
	c0,0,1.5,0.1,1.4-1.1c0,0.1-0.4,0.6-0.6,0.6C31.3,11.6,31.4,11.2,31.3,10.9L31.3,10.9z M35.4,23.7c-0.3,0.1-0.7,0.2-1,0.1
	c0.4-0.1,0.8-0.3,1-0.7c-1.5,0.7-3.2,0.4-4.4-0.6C32.7,24.1,33.4,25,35.4,23.7z M38.3,20.5c0,0.1,0,0.3,0.1,0.4
	c0.2,0.3,0.4,0.5,0.6,0.7l-1.1,0.3l-0.1,0.4l1.6-0.4c0.4,0.3,0.8,0.6,1.2,0.9l-3.3,0.5l-0.1,0.2l3.7-0.4c0.2,0.2,0.3,0.5,0.4,0.7
	l-5,0.8l-0.1,0.1l5.2-0.6c0.1,0.3,0.1,0.5,0.2,0.8l-6.9,0.9l6.9-0.6c0,0.3,0,0.7-0.1,1l-4.1,0.2v0.2h3.9c-0.2,0.4-0.4,0.7-0.6,1
	L38,27.4v0.2l2.4,0.2l-0.7,0.9l-1.1-0.2l0.1,0.3l0.9,0.2c-0.2,0.4-0.3,0.8-0.4,1.2c-0.1,0.2-0.1,0.3,0,0.4c0.1-0.2,0.2-0.3,0.3-0.5
	c0.2-2.1,2.7-2.7,2.4-5.1c-0.3-3.2-2.2-2.6-3.3-4.3c-0.1-0.1-0.1-0.2-0.1-0.4c0-0.2-0.1-0.5-0.2-0.5C38.3,20.1,38.3,20.3,38.3,20.5z
	 M36.6,36.5l0.5-0.1l-4.4-3.8l3.8,4.4L36.6,36.5z M10.1,25.9c0.7,2.7-1.2,0.4-1.3,0.1c0.7,2.6,5.8,4.5,7.7,4.3
	c-3.4-1.1-4.4-2.8-4.4-4.1C11.8,28.6,10.5,26.8,10.1,25.9z M28.9,28.6l-0.3,0.3c1.1,1.1,2.3,2.2,3.5,3.2
	C31.2,30.8,30.1,29.6,28.9,28.6L28.9,28.6z M30.7,39.2c-0.1-0.1-0.2-0.1-0.4,0c-0.4,0.1-0.8,0.2-1.2,0.4L29,38.7l-0.3-0.1v1.2
	l-0.9,0.7l-0.1-2.4h-0.2l0.1,2.7c-0.3,0.3-0.6,0.5-1,0.6v-3.9h-0.2l-0.2,4c-0.3,0.1-0.7,0.1-1,0.1l0.6-6.9L25,41.6
	c-0.3,0-0.6-0.1-0.8-0.2l0.6-5.1l-0.1,0.1l-0.8,4.9c-0.3-0.1-0.5-0.2-0.7-0.4l0.4-3.7l-0.2,0.1l-0.6,3.3c-0.3-0.4-0.6-0.8-0.9-1.3
	l0.4-1.6L22,37.8L21.6,39c-0.2-0.2-0.5-0.4-0.8-0.6c-0.1-0.1-0.2-0.1-0.4-0.1c-0.2,0-0.6,0-0.6,0s0.3,0.2,0.5,0.2
	c0.1,0,0.2,0.1,0.4,0.1c1.7,1.2,1.1,3,4.3,3.4c2.5,0.3,3.2-2.2,5.2-2.4C30.3,39.5,30.5,39.4,30.7,39.2z M28.1,28.5
	c-1.6,1.7-3.8,2.1-4.9,0.9s-0.7-3.5,0.9-5l0.1-0.1l0.1-0.1c1.7-1.6,4-2,5.2-0.9c1.2,1.1,0.7,3.3-0.9,4.9l-0.2,0.2L28.1,28.5z
	 M28,28.3l0.2-0.2l0.2-0.2c1.4-1.3,1.7-3.2,0.6-4.3c-1.1-1.1-3.1-0.8-4.5,0.6l-0.1,0.1l-0.1,0.1c-1.3,1.4-1.6,3.4-0.6,4.5
	S26.6,29.7,28,28.3L28,28.3z M38.9,30.1c-0.2-0.2-0.5-0.4-0.8-0.5c0.7-0.4,0.5-0.8,0.3-1s-0.5-0.3-0.8-0.4c0.5-0.4,0.3-0.8,0.1-0.9
	c-0.2-0.1-0.5-0.2-0.8-0.2c0.5-0.4,0.2-0.7,0-0.8c-0.3-0.2-0.7-0.2-1-0.2c-0.4,0-0.9,0.1-1.3,0.2c-0.7,0.1-3.1,0.5-4.5,0.5l0,0
	l-0.1,0.1c1.5,0,2.9-0.1,4.4-0.3c0.7-0.2,1.5-0.2,2.2-0.1c0.2,0.1,0.3,0.2-0.1,0.5c-0.4,0-1,0-1.4,0c-1.7,0.1-3.4,0-5.2-0.1
	l-0.1,0.2l0,0c1.7,0.2,3.3,0.3,5,0.3c0.8-0.1,1.6,0,2.4,0.2c0.2,0.1,0.3,0.3-0.2,0.6c-0.3-0.1-1-0.1-1.4-0.1
	c-1.9-0.1-3.8-0.4-5.7-0.8l-0.1,0.1c1.8,0.5,3.6,0.8,5.4,0.9c0.9,0,1.8,0.2,2.7,0.5c0.2,0.1,0.3,0.3-0.2,0.6
	c-0.5-0.2-1.2-0.3-1.6-0.4c-2.1-0.4-4.2-0.9-6.2-1.6l-0.2,0.3c1.9,0.8,3.9,1.3,5.8,1.8c1,0.1,2,0.4,2.8,0.9c0.2,0.2,0.3,0.4-0.3,0.6
	c-0.5-0.2-1.3-0.4-1.8-0.6c-2.3-0.7-4.6-1.6-6.7-2.6L29.4,28c2,1.1,4.1,2,6.2,2.7c1.1,0.3,2.1,0.7,3,1.4c0.2,0.2,0.2,0.4-0.3,0.6
	c-0.6-0.3-1.2-0.6-1.9-0.9c-2.5-1.1-4.9-2.3-7.1-3.7l-0.2,0.2c2.1,1.5,4.3,2.7,6.5,3.8c1,0.5,2.5,1,3.2,1.9c0.3,0.1,0.3,0.3-0.2,0.5
	c-0.6-0.5-1.3-0.9-2-1.2c-1.2-0.8-5.6-3.2-7.4-4.9L29,28.5c2,1.9,4.3,3.6,6.6,4.9c1,0.7,2.7,1.4,3.3,2.5c0.2,0.4,0,0.8-1.3,0.8
	c0,0.3,0,0.5-0.1,0.8c-0.3,0.1-0.5,0.1-0.8,0.1c0,1.4-0.4,1.5-0.8,1.3c-1.1-0.6-1.8-2.2-2.5-3.3c-1.4-2.4-3.1-4.7-5-6.6
	c-0.1,0-0.1,0.1-0.2,0.2c1.7,1.8,4.2,6.1,5,7.4c0.4,0.7,0.8,1.4,1.2,2c-0.1,0.4-0.3,0.4-0.6,0.3c-0.9-0.7-1.4-2.2-1.9-3.2
	c-1-2.3-2.3-4.6-3.8-6.5L28,29.4c1.4,2.2,2.7,4.7,3.7,7.1c0.2,0.5,0.5,1.3,0.9,1.9C32.4,39,32.2,39,32,38.8c-0.6-0.9-1.1-1.9-1.4-3
	c-0.7-2.2-1.6-4.3-2.7-6.2c-0.1,0-0.1,0.1-0.2,0.1c1,2.2,1.9,4.5,2.6,6.7c0.2,0.4,0.4,1.2,0.6,1.8c-0.2,0.6-0.5,0.6-0.6,0.3
	c-0.5-0.9-0.8-1.9-0.9-2.9c-0.4-2-1-4-1.7-5.8l-0.2,0.1c0.7,1.9,1.2,4.1,1.6,6.1c0.1,0.4,0.2,1.1,0.4,1.6c-0.3,0.5-0.5,0.5-0.6,0.2
	c-0.3-0.8-0.5-1.7-0.5-2.7c-0.2-1.8-0.5-3.7-0.9-5.4l-0.2,0.1c0.4,1.9,0.6,3.8,0.8,5.7c0,0.4,0.1,1,0.2,1.5
	c-0.3,0.4-0.5,0.4-0.5,0.2c-0.2-0.8-0.3-1.6-0.2-2.4c0-1.7,0-3.3-0.3-4.9l0,0c-0.1,0-0.1,0.1-0.2,0.1c0.1,1.7,0.1,3.4,0.1,5.1
	c0,0.3,0,0.9,0,1.4c-0.3,0.4-0.5,0.3-0.5,0.1c-0.1-0.7-0.1-1.5,0.1-2.2c0.2-1.5,0.3-2.9,0.3-4.4L27,30.2l0,0c0,1.4-0.4,3.8-0.5,4.5
	c-0.1,0.4-0.1,0.9-0.1,1.3c0,0.3,0,0.6,0.1,0.9c0.1,0.2,0.4,0.4,0.8,0c0,0.3,0.1,0.5,0.2,0.8c0.1,0.2,0.5,0.4,0.9-0.1
	c0.1,0.3,0.2,0.6,0.4,0.8c0.2,0.2,0.6,0.4,1-0.3c0.1,0.3,0.3,0.6,0.5,0.8c0.2,0.2,0.7,0.3,1-0.4c0.2,0.3,0.4,0.6,0.7,0.9
	c0.2,0.2,0.8,0.3,1-0.5c0.2,0.3,0.5,0.6,0.9,0.8c0.3,0.2,0.8,0.1,1.1-0.6c0.3,0.3,0.7,0.6,1.1,0.7c0.4,0.1,1.3-0.1,1.3-1.6
	c0.3,0,0.5-0.1,0.8-0.2c0.1-0.2,0.1-0.5,0.2-0.8c1.5-0.1,1.8-0.9,1.6-1.3c-0.2-0.4-0.4-0.8-0.7-1.1c0.8-0.3,0.8-0.8,0.7-1.1
	c-0.2-0.4-0.5-0.7-0.8-0.9c0.8-0.2,0.7-0.8,0.5-1c-0.2-0.3-0.5-0.5-0.9-0.7C39.2,30.9,39.1,30.4,38.9,30.1z"/>
</svg>
