<?xml version="1.0" encoding="utf-8"?>
<!-- Generator: Adobe Illustrator 22.0.0, SVG Export Plug-In . SVG Version: 6.00 Build 0)  -->
<svg version="1.1" id="Layer_1" xmlns="http://www.w3.org/2000/svg" xmlns:xlink="http://www.w3.org/1999/xlink" x="0px" y="0px"
	  preserveAspectRatio="none" viewBox="0 0 42 42" style="enable-background:new 0 0 42 42;" xml:space="preserve">
<style type="text/css">
	.st0{fill:#FFFFFF;}
	.st1{fill:#7C6742;}
</style>
<polygon class="st0" points="35.9,42 35.6,36.7 37.1,35.4 38,34 37.6,32.2 36.7,30.9 36.1,29.7 35.7,29.2 35.6,26.1 37,24.4 
	38,22.3 38.4,20.8 40.6,19.5 41.3,18 41.6,16.4 41.5,15.5 40.7,14.1 40.2,13.1 39.5,12.7 39.1,11.1 38.3,11.4 38.6,9.7 38.8,7.9 
	39.1,5.3 38.1,4.5 37.1,3.6 36.3,2.6 34.7,2.7 33.9,2.8 32.8,2.9 31.9,3 31.1,3.3 30.6,3.3 30.2,2.5 28.6,1.9 27.4,0.9 26.1,0.1 
	24.7,0 23.7,0.3 22.7,1 21.8,2.3 21.1,3 19,4.1 17.3,4.7 14.8,5.9 12,5.9 10.8,5 9.5,4.1 8.1,4 6.6,4.3 5.9,4.8 4.9,5.5 0,5.5 
	0,19.1 22.6,19.1 23,42 "/>
<path class="st1" d="M35.2,18.3c-2-1.4-2.6-0.4-4.4,1.3c1.2-1.1,2.9-1.3,4.4-0.6c-0.2-0.3-0.6-0.6-1-0.7
	C34.6,18.1,34.9,18.2,35.2,18.3z M10.1,16c0.4-0.9,1.7-2.7,2-0.3c0-1.3,0.9-3,4.4-4.1c-1.9-0.2-6.9,1.7-7.7,4.3
	C8.9,15.7,10.8,13.3,10.1,16z M0.2,18v-0.9H0l0-0.4h2.1c-0.1-0.3,0.7-0.8,1-1.1H0l0-0.4h3.4c0.2-0.3,0.3-0.7,0.3-1.1H0l0-0.9h3.7
	c-0.1-0.4-0.2-0.7-0.3-1H0L0,11h2.8c-0.2-0.3-0.4-0.7-0.5-1.1H0l0-0.8h2.2C2.1,8.7,2.2,8.3,2.5,8H0l0-0.5h3c0.3-0.1,0.6,0.1,0.8,0.3
	c3.6,5.1,8.3,1.9,11.1-1.5h-2.3C13,6.6,13.5,6.8,14,6.9c-0.6,0-1.1-0.1-1.6-0.4v2.1l-0.3,0.2V6.3l-0.8-0.7l-0.1,3.8L11,9.6l0.1-4.3
	c-0.3-0.3-0.6-0.5-1-0.7L10,9.9H9.8L9.7,4.6C9.4,4.5,9,4.5,8.7,4.4l0.2,5.7H8.8L8.4,4.4c-0.3,0-0.6,0-0.8,0.1L8,10.1H7.8L7.2,4.5
	C6.9,4.6,6.7,4.7,6.5,4.9l0.3,5.1L6.6,9.8L6.1,5.2C5.8,5.5,5.5,5.9,5.2,6.3l0.5,3L5.4,9.1L4.9,6.7C4.3,7.5,3.1,7.5,3.2,7.3
	c0.2-0.1,0.4-0.2,0.6-0.2C3.9,7.1,3.9,7,4,7c0.3-0.2,0.6-0.4,0.9-0.7H0.2V5.9h4.9c0.6-1.3,2-2.1,3.4-2c1.9-0.1,2.6,1.2,3.7,2h3.1
	c0.9-0.9,2.1-1.5,3.3-1.9c3.5-0.7,7.3,1.7,7.6,5.4L26,9.6c-0.7-3.4-4.4-5.4-7.5-4.8c-2.8,0.7-4.2,3.1-6.4,4.9
	c-1.6,1.3-3.6,1.7-5.5,1.1c-2-0.6-2.7-2.4-3.4-2.7C2.5,7.8,2.3,8.9,2.4,9.5c-0.1,1.3,2.2,2.7,1.3,5.5c-0.2,0.7-0.7,1.2-1.3,1.5
	c-0.3,0.1,0.1,1.2,1.7,0.3c0.1-2.3,1.6-2,1.5-1.8c-0.7,1.3,0.4,2.3,1.2,1.7c0.3-0.3,0.5-0.6,0.8-0.9c0.7-1.1,1.5-2,2.4-2.9
	c0.4-0.3,0.8-0.5,1.3-0.8c3.1-1.8,7.3-2.6,10.3-0.7h0.3c0.5-0.2,1-0.4,1.6-0.4c0.4,0,0.7-0.2,0.9-0.6c0.1-0.1,0-0.4-0.2-0.4
	c-0.4,0.1-0.3,0.3-0.3,0.5c-0.2-0.1-0.2-0.4-0.1-0.6c0.1-0.1,0.2-0.1,0.3-0.2c0.3-0.1,0.6,0.1,0.6,0.4l0,0c0,0.5-0.3,0.9-0.7,1
	c-0.8,0.4-2,0.4-2.5,1.3c-0.2,0.6-0.1,1.3,0.2,1.9c1,2.6,3.1,4.7,5.6,5.6c0.6,0.3,1.3,0.4,1.9,0.2c0.9-0.4,0.9-1.6,1.3-2.5
	c0.2-0.4,0.5-0.8,1-0.7c0.3,0,0.5,0.3,0.4,0.6c0,0,0,0,0,0.1c-0.1,0.2-0.3,0.4-0.5,0.3c-0.1,0-0.2-0.1-0.2-0.2
	c0.2,0,0.4,0.1,0.5-0.3c0-0.2-0.3-0.2-0.4-0.2c-0.3,0.2-0.5,0.5-0.6,0.9c0,0.5-0.2,1.1-0.4,1.6v0.3c1.9,3,1.1,7.2-0.7,10.3
	c-0.3,0.5-0.5,0.9-0.8,1.3c-0.8,1-1.8,1.8-2.8,2.5c-0.3,0.2-0.6,0.4-0.9,0.7c-0.5,0.8,0.4,2,1.7,1.2c0.2-0.1,0.5,1.3-1.8,1.4
	c-0.9,1.6,0.1,2,0.3,1.7c0.3-0.6,0.9-1.1,1.5-1.3c2.9-0.9,4.3,1.4,5.5,1.3c0.8,0.5,1.9,0.3,1.7-0.3c-0.2-0.6-2.1-1.4-2.7-3.4
	c-0.6-1.9-0.1-4,1.1-5.5c1.8-2.3,4.2-3.7,4.9-6.4c0.7-3.2-1.4-6.9-4.8-7.5l0.1-0.1c3.8,0.3,6.1,4.3,5.4,7.6c-0.4,1.3-1,2.4-1.9,3.3
	V30c0.8,1.1,2.1,1.8,2,3.7C38,36,37,36.4,36.1,37v5h-0.4v-4.7c-0.3,0.2-0.5,0.5-0.7,0.9c0,0.1,0,0.1,0,0.2c0,0.2-0.1,0.5-0.2,0.6
	s-0.2-1.1,0.6-1.8l-2.4-0.5l-0.2-0.3l3,0.5c0.3-0.3,0.7-0.6,1.1-0.9l-4.7-0.5l-0.1-0.2l5,0.3c0.1-0.2,0.3-0.4,0.3-0.7L32,34.4v-0.2
	l5.7,0.4c0-0.2,0-0.5,0.1-0.8l-5.7-0.4v-0.1l5.7,0.1c0-0.3-0.1-0.6-0.2-0.9l-5.4-0.1v-0.2l5.3-0.1c-0.2-0.4-0.4-0.7-0.7-1l-4.3,0.1
	l0.2-0.2l3.8-0.1l-0.7-0.8h-2.5l0.2-0.3h2c-0.3-0.5-0.5-1-0.4-1.5c0.1,0.5,0.3,1,0.6,1.4v-2.6c-3.4,2.8-6.5,7.4-1.5,11
	c0.3,0.3,0.4,0.6,0.3,0.9v3H34v-2.5c-0.3,0.3-0.7,0.4-1.1,0.3V42h-0.8v-2.3c-0.4-0.1-0.7-0.3-1.1-0.5V42h-1.3v-3.4
	c-0.3-0.2-0.7-0.3-1.1-0.3V42h-0.8v-3.7c-0.4,0-0.7,0.1-1.1,0.3V42h-0.6v-3.1c-0.3,0.2-0.7,1-1.1,1V42h-0.4v-0.2h-0.9V42h-0.4v-5.7
	c-0.2-0.5-0.2-1,0-1.5v-2.7c-0.3-0.4-0.3-0.9,0-1.3V30c-0.2-0.2-0.4-0.4-0.6-0.6V42h-0.4V28.5c-0.3-0.6-0.3-1.3,0-1.8v-7.3h-7.1
	c-0.6,0.3-1.3,0.3-1.8,0H0L0,19h12.7c-0.2-0.2-0.4-0.4-0.6-0.6h-0.8c-0.4,0.3-0.9,0.3-1.3,0H7.2c-0.5,0.2-1,0.2-1.5,0H0.1L0.2,18
	L0.2,18z M5,18c-0.1-0.1-0.2-0.2-0.3-0.3V18H5z M8.3,17.5C8.1,17.7,8,17.9,7.8,18h0.5V17.5z M9.3,17.8c-0.1-0.2-0.2-0.4-0.3-0.7H8.8
	V18h0.5V17.8z M8.9,16.8v-0.2V16.8L8.9,16.8z M11.3,18.1v-0.9h-0.6c0,0.3,0.2,0.7,0.4,0.9H11.3z M11.3,16.8c0-0.3,0-0.5,0-0.8
	c-0.3,0.1-0.5,0.4-0.6,0.8H11.3z M24.8,40.7H24v0.5h0.9V40.7z M24.7,39.7H24v0.5h0.9L24.7,39.7L24.7,39.7z M24.5,38.7H24v0.5h0.5
	C24.4,39,24.4,38.9,24.5,38.7L24.5,38.7z M24.7,37.7h-0.9v0.5h0.7L24.7,37.7z M24.2,37.2l-0.3-0.3v0.3H24.2z M28.7,26.6
	c0.5-0.7,0.8-1.5,1.1-2.4v-3.5c-0.3,0.2-0.7,0.4-1.1,0.3V26.6z M26.8,28.8c0.5-0.2,0.8-0.5,1.1-0.9V21l-1.1-0.5V28.8z M25.1,25.4
	c0.6,0.2,0.5,0.8,0,1v2.2c0.3,0.3,0.7,0.4,1.1,0.3v-8.6l-1.1-0.7V25.4z M23.9,19h0.5l-0.5-0.5V19z M23.9,20h0.9v-0.5h-0.9V20z
	 M23.9,21h0.9v-0.5h-0.9V21z M23.9,22h0.9v-0.5h-0.9V22z M23.9,23h0.9v-0.5h-0.9V23z M23.9,24h0.9v-0.5h-0.9V24z M23.9,25h0.9v-0.5
	h-0.9V25z M23.1,28.8c1.1,1.4,1.6,1.5,3.4,1.6c0,0-0.6,1.7-2.1,1c-0.2-0.1-0.3-0.2-0.5-0.4c-0.3-0.1-0.2,0.6-0.1,0.8
	c0.5,0.7,1.4,1,2.2,0.9c-1.6,0.8-2,1.4-2.3,2.6c-0.1,1,0.8,2.8,2.5,2.1c0.4-0.2,0.7-0.4,0.5-0.6c-0.2-0.2-1.4,0.6-2.1-0.5
	c-0.3-0.6-0.1-1.3,0.4-1.7c2.4-1.6,2.9-1.5,4.4-4c1.5-2.6,2-5.6,1.3-8.6c-0.1,2.6-1.2,5-3,6.8c0,0-1.2,1.2-3-0.1
	c-0.6-0.5-0.7-1.4-0.2-2c0-0.1,0.1-0.1,0.2-0.2c0.2-0.1,0.6-0.4,0.6-0.7c0-0.5-1-0.2-1.2-0.1C23,26.3,22.6,27.7,23.1,28.8L23.1,28.8
	z M24.8,27.1v-0.5c-0.1,0.1-0.2,0.3-0.3,0.5H24.8z M24.6,27.6c0,0.3,0.1,0.5,0.3,0.7v-0.7H24.6z M24,33.7v0.5
	c0.1-0.2,0.3-0.4,0.5-0.5H24z M24.8,33.2V33c-0.2-0.1-0.5-0.2-0.7-0.3H24v0.5H24.8z M25.3,33.1h-0.2v0.1L25.3,33.1z M24.8,31.3v-0.6
	H24v0.2C24.2,31.1,24.5,31.2,24.8,31.3L24.8,31.3z M25.9,30.7c-0.3,0-0.5,0-0.8,0v0.6C25.5,31.3,25.8,31,25.9,30.7L25.9,30.7z
	 M23.6,18.4h-7.2c-0.1,0.2-0.3,0.4-0.5,0.6H23v7.1c0.2-0.2,0.4-0.3,0.6-0.5V18.4z M17.4,18.1v-0.9h-0.5v0.9H17.4z M17.9,18.1h0.5
	v-0.9h-0.5V18.1z M19.4,18.1v-0.9h-0.5v0.9H19.4z M20.4,18.1v-0.9h-0.5v0.9H20.4z M21.4,18.1v-0.9h-0.5v0.9H21.4z M23,18.1h0.5
	L23,17.6V18.1z M22.5,17.2H22v0.9h0.5V17.2z M13.1,15.8c-0.1,0.4,0,0.8,0.3,1.1h2.2c0.2-0.5,0.8-0.6,1,0h5.8l-0.6-1.1H13.1z
	 M14.8,17.2v0.2c0.2,0,0.4-0.1,0.5-0.3L14.8,17.2z M13.7,17.2c0.2,0.2,0.4,0.3,0.7,0.3v-0.3H13.7z M21,14.2h-6.9
	c-0.4,0.3-0.7,0.6-0.8,1.1h8.2L21,14.2z M21.2,12.3h-3.5c-0.8,0.2-1.6,0.6-2.4,1h5.4C20.8,12.9,21,12.5,21.2,12.3z M6.5,18.2
	c1.2-0.3,1.8-0.7,2.6-2.3c-0.2,0.9,0.2,1.7,0.9,2.2c0.2,0.2,0.9,0.3,0.8-0.1c0,0-0.2-0.3-0.4-0.5c-0.7-1.5,1-2.1,1-2.1
	c0.1,1.8,0.2,2.3,1.6,3.4c1.1,0.6,2.5,0.2,3.1-0.9c0.1-0.2,0.5-1.2-0.1-1.2c-0.3,0-0.5,0.5-0.7,0.6c-0.5,0.6-1.4,0.7-2,0.2
	c-0.1,0-0.1-0.1-0.2-0.2c-1.4-1.8-0.1-3-0.1-3c1.8-1.8,4.3-2.9,6.8-3c-3-0.7-6-0.2-8.6,1.3c-2.5,1.5-2.4,2-4,4.4
	c-0.4,0.5-1.1,0.7-1.7,0.4c-1-0.6-0.3-2-0.5-2.1s-0.4,0.1-0.6,0.5C3.9,17.4,5.6,18.4,6.5,18.2z M3.8,18h0.5v-0.8l-0.5,0.2V18z
	 M2.8,18h0.5v-0.5c-0.2,0-0.3,0-0.5,0V18z M1.8,18h0.5v-0.8l-0.1-0.1H1.8V18z M0.8,17.1V18h0.5v-0.9H0.8z M34.7,26.5
	c0-0.5,0.4-2.1-3.3-1.6l0.2,0.1c1.4-0.2,2.2,0.8,2.7,2c0-0.4-0.1-0.8-0.3-1.1C34.3,26,34.8,26.4,34.7,26.5z M36.4,24.3
	c0-0.5,0.1-2.4-4.9-1.5l0.2,0.2c2.6-0.1,3.8,0.8,4.4,1.9c0-0.4-0.2-0.8-0.5-1.1C35.9,23.8,36.2,24,36.4,24.3z M37,21.4
	c-0.1-0.5-1.4-2.6-5.9-0.2h0.2c2.7-0.6,4.8-0.2,5.5,0.7c-0.1-0.4-0.4-0.7-0.8-0.9C36.4,21.1,36.7,21.2,37,21.4z M31.7,30.8
	c0.1-1.2-1.4-1.1-1.4-1.1c0.5,0.2,0.9,0.7,1,1.3c0.1-0.3,0-0.6-0.2-0.8C31.3,30.3,31.5,30.5,31.7,30.8z M33,28.6
	c0.3-1.3-1.6-1.5-1.6-1.5l-0.1,0.1c0.7,0.3,1.2,1,1.3,1.9c0.1-0.4,0-0.9-0.2-1.2C32.5,27.9,33,28.5,33,28.6z M31,19.5L31,19.5
	C30.9,19.6,30.9,19.6,31,19.5L31,19.5z M12.9,9.5c0.8,0,1.6,0.5,1.9,1.3l0.1-0.2c0,0-0.2-1.9-1.5-1.6c0.1,0,0.7,0.5,0.7,0.8
	C13.8,9.5,13.3,9.4,12.9,9.5L12.9,9.5z M20.8,10.9c2.4-4.6,0.3-5.8-0.2-5.9c0.2,0.3,0.4,0.6,0.3,1c-0.2-0.4-0.5-0.7-0.9-0.8
	c0.9,0.8,1.3,2.9,0.7,5.5C20.7,10.8,20.7,10.8,20.8,10.9L20.8,10.9z M22.5,11L22.5,11L22.5,11z M19,10.3l0.2,0.2c0.9-5.1-1-5-1.5-5
	C18,5.7,18.2,6,18.3,6.3C18,6,17.6,5.8,17.2,5.8C18.2,6.5,19.1,7.8,19,10.3L19,10.3z M17,10.4c0.5-3.6-1.1-3.3-1.6-3.3
	c0.1,0,0.6,0.5,0.6,0.8c-0.3-0.3-0.7-0.4-1.1-0.4c1.2,0.5,2.2,1.3,2,2.7L17,10.4z M10.9,10.7c0.6,0.1,1.1,0.5,1.3,1
	c0,0,0.1-1.5-1.1-1.4c0.1,0,0.6,0.4,0.6,0.6C11.6,10.7,11.2,10.6,10.9,10.7L10.9,10.7z M23.7,6.6c0.1,0.3,0.2,0.7,0.1,1
	c-0.1-0.4-0.3-0.8-0.7-1c0.7,1.5,0.4,3.2-0.6,4.4C24.1,9.3,25,8.6,23.7,6.6z M20.5,3.7c0.1,0,0.3,0,0.4-0.1c0.3-0.2,0.5-0.4,0.7-0.6
	l0.3,1.1l0.4,0.1l-0.4-1.6c0.3-0.4,0.6-0.8,0.9-1.2l0.5,3.3l0.2,0.1l-0.4-3.7c0.2-0.2,0.5-0.3,0.7-0.4l0.8,5l0.1,0.1l-0.6-5.2
	c0.3-0.1,0.5-0.1,0.8-0.2l0.9,6.9l-0.6-6.9c0.3,0,0.7,0,1,0.1l0.2,4.1h0.2V0.7c0.4,0.2,0.7,0.4,1,0.6L27.4,4h0.2l0.2-2.4l0.9,0.7
	l-0.2,1.1l0.3-0.1L29,2.4c0.4,0.2,0.8,0.3,1.2,0.4c0.2,0.1,0.3,0.1,0.4,0c-0.2-0.1-0.3-0.2-0.5-0.3c-2.1-0.2-2.7-2.7-5.1-2.4
	c-3.2,0.3-2.6,2.2-4.3,3.3c-0.1,0.1-0.2,0.1-0.4,0.1c-0.2,0-0.5,0.1-0.5,0.2C20.1,3.7,20.3,3.7,20.5,3.7z M36.5,5.4L36.4,5l-3.8,4.4
	L37,5.5L36.5,5.4z M25.9,31.9c2.7-0.7,0.4,1.2,0.1,1.3c2.6-0.7,4.5-5.8,4.3-7.7c-1.1,3.4-2.8,4.4-4.1,4.4
	C28.6,30.2,26.8,31.5,25.9,31.9z M28.6,13.1l0.3,0.3c1.1-1.1,2.2-2.3,3.2-3.5C30.8,10.8,29.6,11.9,28.6,13.1L28.6,13.1z M39.2,11.3
	c-0.1,0.1-0.1,0.2,0,0.4c0.1,0.4,0.2,0.8,0.4,1.2L38.7,13l-0.1,0.3h1.2l0.7,0.9l-2.4,0.1v0.2l2.7-0.1c0.3,0.3,0.5,0.6,0.6,1h-3.9
	v0.2l4,0.2c0.1,0.3,0.1,0.7,0.1,1l-6.9-0.6l6.9,0.9c0,0.3-0.1,0.6-0.2,0.8l-5.1-0.6l0.1,0.1l4.9,0.8c-0.1,0.3-0.2,0.5-0.4,0.7
	l-3.7-0.4l0.1,0.2l3.3,0.6c-0.4,0.3-0.8,0.6-1.3,0.9l-1.6-0.4l0.1,0.3l1.2,0.4c-0.2,0.2-0.4,0.5-0.6,0.8c-0.1,0.1-0.1,0.2-0.1,0.4
	c0,0.2,0,0.6,0,0.6s0.2-0.3,0.2-0.5c0-0.1,0.1-0.2,0.1-0.4c1.2-1.7,3-1.1,3.4-4.3c0.3-2.5-2.2-3.2-2.4-5.2
	C39.5,11.7,39.4,11.5,39.2,11.3z M28.5,13.9c1.7,1.6,2.1,3.8,0.9,4.9s-3.5,0.7-5-0.9l-0.1-0.1l-0.1-0.1c-1.6-1.7-2-4-0.9-5.2
	s3.3-0.7,4.9,0.9l0.2,0.2L28.5,13.9z M28.3,14l-0.2-0.2l-0.2-0.2c-1.3-1.4-3.2-1.7-4.3-0.6c-1.1,1.1-0.8,3.1,0.6,4.5l0.1,0.1
	l0.1,0.1c1.4,1.3,3.4,1.6,4.5,0.6S29.7,15.4,28.3,14L28.3,14z M30.1,3.1c-0.2,0.2-0.4,0.5-0.5,0.8c-0.4-0.7-0.8-0.5-1-0.3
	s-0.3,0.5-0.4,0.8c-0.4-0.5-0.8-0.3-0.9-0.1c-0.1,0.2-0.2,0.5-0.2,0.8c-0.4-0.5-0.7-0.2-0.8,0c-0.2,0.3-0.2,0.7-0.2,1
	c0,0.4,0.1,0.9,0.2,1.3c0.1,0.7,0.5,3.1,0.5,4.5l0,0l0.1,0.1c0-1.5-0.1-2.9-0.3-4.4c-0.2-0.7-0.2-1.5-0.1-2.2
	c0.1-0.2,0.2-0.3,0.5,0.1c0,0.4,0,1,0,1.4c0.1,1.7,0,3.4-0.1,5.2l0.2,0.1l0,0c0.2-1.7,0.3-3.3,0.3-5c-0.1-0.8,0-1.6,0.2-2.4
	c0.1-0.2,0.3-0.3,0.6,0.2c-0.1,0.3-0.1,1-0.1,1.4c-0.1,1.9-0.4,3.8-0.8,5.7l0.1,0.1c0.5-1.8,0.8-3.6,0.9-5.4c0-0.9,0.2-1.8,0.5-2.7
	c0.1-0.2,0.3-0.3,0.6,0.2c-0.2,0.5-0.3,1.2-0.4,1.6c-0.4,2.1-0.9,4.2-1.6,6.2l0.3,0.2c0.8-1.9,1.3-3.9,1.8-5.8c0.1-1,0.4-2,0.9-2.8
	C30.6,3.5,30.8,3.4,31,4c-0.2,0.5-0.4,1.3-0.6,1.8c-0.7,2.3-1.6,4.6-2.6,6.7l0.2,0.1c1.1-2,2-4.1,2.7-6.2c0.3-1.1,0.7-2.1,1.4-3
	c0.2-0.2,0.4-0.2,0.6,0.3c-0.3,0.6-0.6,1.2-0.9,1.9c-1.1,2.5-2.3,4.9-3.7,7.1l0.2,0.2c1.5-2.1,2.7-4.3,3.8-6.5c0.5-1,1-2.5,1.9-3.2
	c0.1-0.3,0.3-0.3,0.5,0.2c-0.5,0.6-0.9,1.3-1.2,2c-0.8,1.2-3.2,5.6-4.9,7.4l0.2,0.2c1.9-2,3.6-4.3,4.9-6.6c0.7-1,1.4-2.7,2.5-3.3
	c0.4-0.2,0.8,0,0.8,1.3c0.3,0,0.5,0,0.8,0.1c0.1,0.3,0.1,0.5,0.1,0.8c1.4,0,1.5,0.4,1.3,0.8c-0.6,1.1-2.2,1.8-3.3,2.5
	c-2.4,1.4-4.7,3.1-6.6,5c0,0.1,0.1,0.1,0.2,0.2c1.8-1.7,6.1-4.2,7.4-5c0.7-0.4,1.4-0.8,2-1.2C39,7.6,39,7.8,38.9,8.1
	C38.2,9,36.7,9.5,35.7,10c-2.3,1-4.6,2.3-6.5,3.8l0.2,0.2c2.2-1.4,4.7-2.7,7.1-3.7c0.5-0.2,1.3-0.5,1.9-0.9C39,9.6,39,9.8,38.8,10
	c-0.9,0.6-1.9,1.1-3,1.4c-2.2,0.7-4.3,1.6-6.2,2.7c0,0.1,0.1,0.1,0.1,0.2c2.2-1,4.5-1.9,6.7-2.6c0.4-0.2,1.2-0.4,1.8-0.6
	c0.6,0.2,0.6,0.5,0.3,0.6c-0.9,0.5-1.9,0.8-2.9,0.9c-2,0.4-4,1-5.8,1.7l0.1,0.2c1.9-0.7,4.1-1.2,6.1-1.6c0.4-0.1,1.1-0.2,1.6-0.4
	c0.5,0.3,0.5,0.5,0.2,0.6c-0.8,0.3-1.7,0.5-2.7,0.5c-1.8,0.2-3.7,0.5-5.4,0.9l0.1,0.2c1.9-0.4,3.8-0.6,5.7-0.8c0.4,0,1-0.1,1.5-0.2
	c0.4,0.3,0.4,0.5,0.2,0.5c-0.8,0.2-1.6,0.3-2.4,0.2c-1.7,0-3.3,0-4.9,0.3l0,0c0,0.1,0.1,0.1,0.1,0.2c1.7-0.1,3.4-0.1,5.1-0.1
	c0.3,0,0.9,0,1.4,0c0.4,0.3,0.3,0.5,0.1,0.5c-0.7,0.1-1.5,0.1-2.2-0.1c-1.5-0.2-2.9-0.3-4.4-0.3l0.1,0.1l0,0c1.4,0,3.8,0.4,4.5,0.5
	c0.4,0.1,0.9,0.1,1.3,0.1c0.3,0,0.6,0,0.9-0.1c0.2-0.1,0.4-0.4,0-0.8c0.3,0,0.5-0.1,0.8-0.2c0.2-0.1,0.4-0.5-0.1-0.9
	c0.3-0.1,0.6-0.2,0.8-0.4c0.2-0.2,0.4-0.6-0.3-1c0.3-0.1,0.6-0.3,0.8-0.5c0.2-0.2,0.3-0.7-0.4-1c0.3-0.2,0.6-0.4,0.9-0.7
	c0.2-0.2,0.3-0.8-0.5-1c0.3-0.2,0.6-0.5,0.8-0.9C39.8,7.8,39.7,7.3,39,7c0.3-0.3,0.6-0.7,0.7-1.1c0.1-0.4-0.1-1.3-1.6-1.3
	c0-0.3-0.1-0.5-0.2-0.8c-0.2-0.1-0.5-0.1-0.8-0.2c-0.1-1.5-0.9-1.8-1.3-1.6S35,2.5,34.7,2.8C34.5,2,34,2,33.7,2.1
	c-0.4,0.2-0.7,0.5-0.9,0.8c-0.2-0.8-0.8-0.7-1-0.5c-0.3,0.2-0.5,0.5-0.7,0.9C30.9,2.8,30.4,2.9,30.1,3.1z"/>
</svg>
