<?xml version="1.0" encoding="utf-8"?>
<!-- Generator: Adobe Illustrator 22.0.0, SVG Export Plug-In . SVG Version: 6.00 Build 0)  -->
<svg version="1.1" id="Layer_1" xmlns="http://www.w3.org/2000/svg" xmlns:xlink="http://www.w3.org/1999/xlink" x="0px" y="0px"
	  preserveAspectRatio="none" viewBox="0 0 13 13" style="enable-background:new 0 0 13 13;" xml:space="preserve">
<style type="text/css">
	.st0{fill:#FFFFFF;}
	.st1{fill:#7C6742;}
</style>
<path class="st0" d="M13,13V0.4H0C0,4.7,0,8.7,0,13H13z"/>
<path class="st1" d="M13,2.1V1.5H0c0,0.2,0,0.4,0,0.6H13z"/>
<path class="st1" d="M13,0.4V0L0,0c0,0.1,0,0.3,0,0.4H13z"/>
<path class="st1" d="M13,13v-0.4H0c0,0.1,0,0.3,0,0.4H13z"/>
<path class="st1" d="M13,3.9V3.1H0c0,0.3,0,0.6,0,0.9H13z"/>
<path class="st1" d="M13,9.6V9H0c0,0.2,0,0.4,0,0.6H13z"/>
<path class="st1" d="M13,6.1V4.9H0c0,0.4,0,0.8,0,1.2H13z"/>
<path class="st1" d="M13,12v-0.3h-0.3v-0.9H13v-0.3H0c0,0.5,0,1,0,1.4H13z M11.7,10.9h0.5v0.9h-0.5V10.9z M11.2,10.9v0.9h-0.5
	l-0.1-0.9H11.2z M9.6,10.9h0.5v0.9H9.6V10.9z M8.6,10.9h0.5v0.9H8.6V10.9z M7.5,10.9H8l0.1,0.9H7.5V10.9z M6.6,10.9H7l0.1,0.9H6.6
	V10.9z M5.5,10.9h0.4L6,11.8H5.5V10.9z M4.5,10.9h0.4L5,11.8H4.5V10.9z M3.5,10.9h0.3L4,11.8H3.5V10.9z M2.5,10.9H3v0.9H2.5V10.9z
	 M1.2,10.9h0.6v0.9H1.2V10.9z M0.7,10.9l0.1,0.9H0.3v-0.9H0.7z"/>
<path class="st1" d="M13,7.9V7.2H0c0,0.3,0,0.5,0,0.8H13z"/>
</svg>
