<?xml version="1.0" encoding="utf-8"?>
<!-- Generator: Adobe Illustrator 22.0.0, SVG Export Plug-In . SVG Version: 6.00 Build 0)  -->
<svg version="1.1" id="Layer_1" xmlns="http://www.w3.org/2000/svg" xmlns:xlink="http://www.w3.org/1999/xlink" x="0px" y="0px"
	 viewBox="0 0 175.6 47.1" style="enable-background:new 0 0 175.6 47.1;" xml:space="preserve">
<style type="text/css">
	.st0{fill:#FFF4E4;}
	.st1{fill:#7C6742;}
</style>
<rect x="10.3" y="7" class="st0" width="155" height="32"/>
<path class="st1" d="M171.2,40.5c0.2,0.2,0.2,0.6,0.3,0.9c-0.2,0.2-0.5,0.4-0.8,0.5c0.7,0.3,0.7,1.5,0.6,2.1c-0.3,0.1-0.5,0-0.8-0.2
	c-0.1-0.3,0.2-0.3,0.2-0.6s-0.6,0-0.8,0c0.1,0.2,0.1,0.4,0.1,0.7c-0.5,0-1.1,0.3-1.6,0.1c0.3-0.8,0-1.8,1.2-2.2
	c-0.4-0.2-0.9-0.3-1.3-0.2c-0.6,0.6-0.1,2-0.8,2.6c-0.6,0-1-0.1-1.6-0.1c0.1-1,0.1-2.7,0.7-3.7C168.1,40.4,169.6,40.4,171.2,40.5
	 M165.2,3.2c0.2,0.2,0.2,0.5,0.2,0.7c0.3-0.2,0.2-0.5,0.3-0.7c0.6,0,0.9-0.2,1.3,0.1c-0.2,0.6,0,1.7-0.4,2.5c-0.5,0-1.2,0.1-1.3-0.2
	c-0.4,0.2-0.9,0.3-1.4,0.2C163.3,4.9,162.9,2.4,165.2,3.2 M173.3,22.5l1-1.2l0.4-0.5c0,1.2,0,2.4,0,3.7
	C174.2,23.8,173.8,23.2,173.3,22.5 M0.5,11.3c0-0.3,0-0.7,0-1c-0.1-3.2,0.2-6.7,0-9.6c0.2-0.5,1.6-0.1,1.8-0.6
	C4,0.4,5.8,0.5,7.5,0.4c4.9-0.1,10.2,0,15.2-0.1c2,0,4.4,0.2,6.8,0.1c2,0,5.9,0.3,7.1-0.4c2,0.2,3.9,0.2,5.9,0.1
	c0.9,0,1.9,0.2,2.8,0.2c1.9,0.1,4-0.3,6-0.2c2.7,0.2,5.7,0.1,8.8,0c2,0,4.1,0.3,5.9,0.2c0.6,0,1.1-0.2,1.7-0.3
	c1.1-0.1,2.4,0.1,3.6,0.1c2.1,0.1,4.2-0.2,5.8,0.3c22-0.4,47.1,0.3,69.9,0.1c1.8,0,3.6,0.2,5.3,0.1s3.2-0.6,4.8-0.7
	c2.7,0,5.5,0.3,8.2,0.7c0.9,0.1,1.7-0.2,2.5-0.1c1.2,0,2.4,0.2,3.6,0.2c1.2-0.1,2.5,0,3.7,0.2c0.1,0.8-0.5,1.2-0.6,1.9
	c-0.2,1.7,0.4,3.7,0.2,5.6c-0.1,1.2-0.1,2.4-0.1,3.7c-0.7,1.1-1.4,2.2-2.2,3.2c-0.1-1.7-0.1-3.5,0-5.2c0.3-2.7,0.2-5.4-0.3-8.1
	c-6.4,0-12.8,0-19.1,0c-4.7,0-9.4,0.2-13.6,0.1s-8.5,0.1-12.7,0c-2.6,0-5.2-0.1-7.8-0.1c-5.4,0-10.8,0.2-16.2,0
	c-2.7-0.1-5.4,0-8.1,0S89,1.9,86.2,1.9c-4.3,0-8.9,0-12.7,0c-1.4,0-2.9,0.2-4.3,0.1c-0.6,0-1.1-0.2-1.7-0.2c-2.6,0-5.3,0.2-7.9,0.2
	s-5.5,0.1-8.2,0.1c-3,0-5.9-0.2-8.9-0.1c-5.6,0.1-11.2,0.1-16.7,0c-1.6,0-3.3,0.2-5,0.1c-3.1-0.1-6.3,0-9.6,0.1
	C9.5,2.1,8,1.9,6.4,1.8C5.1,1.8,3.9,2.1,3,2.1C2.1,5.6,2.8,9.2,2.8,12.8c0,0.6,0,1.2,0,1.8C2.2,13.8,1.6,12.9,1,12
	C0.9,11.7,0.7,11.5,0.5,11.3 M0.7,24.8c-0.1-1.6-0.1-3.1-0.1-4.7c0.3,0.4,0.5,0.8,0.8,1.2l1,1.2C1.9,23.3,1.3,24,0.7,24.8
	 M172.5,42.4c0-4,0-8,0-12c0.4,0.6,0.9,1.2,1.3,1.9c0.2,0.4,0.5,0.7,0.7,1.1l0.1,0.2c0,4-0.1,7.9-0.4,11.7c0.2,0.6,0.3,1.2,0.2,1.8
	c-15.5,0.2-31.7-0.3-47.1-0.2c-2.5,0-5.1-0.1-7.6,0s-5.3-0.1-8.1-0.1c-13.1,0.2-27.2,0.1-40.7,0.1c-10.4,0-21.3,0.1-32.5,0.1
	c-8.4,0-16.8,0-25.3,0c-2.8,0-5.6-0.2-8.4-0.1c-0.9,0-2.7,0.4-3.3,0c-0.4-0.2-0.3-3-0.3-3.8c0-1.7,0-2.9-0.1-4c0-2,0-3.8,0-5.5l0,0
	l0.2-0.3c0.2-0.4,0.5-0.7,0.7-1.1s0.7-1,1-1.5c-0.1,4.9,0,9.7,0.5,14.6c1.3,0.1,2.7,0.1,4,0c1.4,0,2.8,0.2,4.2,0.2
	c0.8,0,1.6-0.2,2.4-0.2c1.1,0,2.3,0.3,3.3,0.2c0.8-0.1,1-0.3,1.6-0.4c1.8-0.2,4,0.2,5.7,0.1c10.4-0.3,21.5,0.3,31.9-0.1
	c0.7,0,1.5,0.1,2.2,0.1c0.9,0,1.9-0.2,2.8-0.2c0.6,0,1.2,0.1,1.9,0.1c2.6,0.1,5.3-0.3,7.7-0.2c1,0,1.9,0.2,2.8,0.2
	c1.2,0,2.4-0.2,3.7-0.2c1.9,0,3.8,0.2,5.7,0.2c3.9-0.1,7.8,0,11.4,0c2,0,4.1,0.2,6,0c0.7-0.1,1.3-0.3,2.1-0.3c1.5,0,2.9,0.3,4.4,0.4
	s3.1,0.2,4.6,0.2c0.5,0,1-0.2,1.5-0.2c0.7,0,1.4,0.1,2.2,0.1s1.5,0.2,2.3,0.2c2.1,0,4.2-0.3,6.3-0.3c0.6,0,1.2,0.2,1.8,0.2
	c1.3,0,2.6-0.3,4-0.3c4.5,0,9.1,0.2,14,0.1c3,0,5.8,0.2,8.9,0.2s5.9,0,8.8,0c1.5,0,3,0.2,4.4,0.2c0.5,0,1-0.3,1.5-0.3
	c1.5,0,3.1,0.3,4.6-0.1C173,44.4,172.6,43.4,172.5,42.4 M141.6,40.8c0.4,1-0.1,2.6-0.3,3.7c-0.4,0-0.9,0.1-1.1-0.1
	c-0.3-1.1,0.1-2.2,0-3.4C140.2,40.6,141.1,40.9,141.6,40.8 M19.9,40.9c0.1,1.1,0.2,2.2,0.2,3.4c-0.5,0.1-1,0.1-1.5,0
	c-0.2-1.1-0.2-2.2,0-3.3C19,40.8,19.5,40.8,19.9,40.9 M160.3,40.8c0.1,1.1,0.1,2.2-0.1,3.2c-0.6,0.3-1.2,0.3-1.8,0.1
	c-0.3-0.9-0.1-2.2-0.3-3.2C158.9,40.8,159.6,40.7,160.3,40.8 M154.7,41c0,1.1-0.2,2.2-0.5,3.3c-0.5,0-0.6,0.1-0.9,0
	c0-1.1-0.3-2.5-0.3-3.5C153.6,40.7,154.2,40.8,154.7,41 M152.1,41c-0.1,1.1-0.2,2.2-0.4,3.2c-0.4,0.2-0.9,0.2-1.3,0.1
	c-0.4-1.1-0.4-2.3,0-3.5C150.9,40.7,151.5,40.8,152.1,41 M149.5,40.8c-0.1,1.2,0.2,2.5,0,3.6c-0.6,0.1-1.2,0.1-1.7-0.2
	c0.2-1.2-0.3-2.5,0.1-3.4C148.5,40.7,149,40.7,149.5,40.8 M144.2,40.8c0.2,1.1-0.3,2.5-0.2,3.6c-0.5,0.1-1,0.1-1.5,0
	c-0.1-1.2,0-2.4,0.2-3.5C143.1,40.7,143.7,40.7,144.2,40.8 M17.6,41.1c0.1,1,0.1,2.1,0.1,3.2c-0.4,0.2-0.9,0.2-1.3,0
	C16.4,43.1,15.6,39.9,17.6,41.1 M163,40.9c0.1,0.7-0.2,1.2-0.1,1.9c0.3,0,0.6-0.1,0.8-0.1c-0.1-0.6-0.1-1.3,0.1-1.9
	c0.5-0.1,1.1-0.1,1.6,0c0.2,1.1,0.2,2.3,0,3.4c-0.4,0.1-0.8,0.2-1.2,0.2c-0.4-0.2-0.7-0.6-1.2-0.8c-0.3,0.1-0.2,0.5-0.4,0.7
	c-0.6,0-1,0.1-1.4-0.1c0.2-1.1-0.1-2.3,0.1-3.4C161.9,40.6,162.5,40.6,163,40.9 M157.5,40.9c0.1,1.1,0,2.2-0.3,3.3
	c-0.6,0.1-1.1,0.1-1.7,0c-0.2-1.1-0.1-2.3,0.2-3.5C156.3,40.6,156.9,40.7,157.5,40.9 M146.9,41c-0.1,1.3-0.6,2.5-0.2,3.5
	c-0.5,0.2-1,0.1-1.5-0.2C145.3,42.9,144.8,39.8,146.9,41 M139.2,41c0,1.2-0.1,2.4-0.4,3.5c-0.4,0-0.8,0-1.2-0.1
	c-0.4-1.2-0.1-2.5-0.1-3.6C138,40.7,138.7,40.7,139.2,41 M136.3,40.9c0,1.1,0,2.3-0.2,3.4c-0.4,0.1-0.8,0.2-1.2,0.2
	c-0.2-1.2-0.2-2.5-0.1-3.7C135.2,40.6,136.1,40.7,136.3,40.9 M133.8,40.8c0.2,1.2-0.3,2.3-0.2,3.7c-0.4,0.1-0.9,0.1-1.3-0.1
	c0-1.1-0.4-2.4-0.3-3.4C132.6,40.7,133.2,40.7,133.8,40.8 M131,40.8c0.4,1.1-0.3,2.5-0.2,3.7c-0.4,0-0.8,0-1.2-0.1
	c0-1.2-0.6-2.5-0.1-3.6C130,40.7,130.5,40.7,131,40.8 M125.9,40.7c0.3,1.2,0,2.4,0.1,3.7c-0.5,0.2-1,0.2-1.5-0.1
	c0.1-1.2-0.2-2.4,0.2-3.5C124.8,40.6,125.5,40.7,125.9,40.7 M110.6,40.8c0.3,1.2-0.6,2.7,0.2,3.7c-0.5,0-1,0-1.5-0.1
	C109.3,43.1,107.8,40.1,110.6,40.8 M108.1,40.8c-0.2,1.1-0.2,2.3-0.2,3.5c-0.4,0.1-0.8,0.1-1.2-0.1c-0.2-1.1-0.3-2.1-0.4-3.2
	C106.9,40.7,107.5,40.6,108.1,40.8 M106,40.9c-0.1,1.1-0.2,2.1-0.2,3.2c-0.4,0.2-0.8,0-1.4,0.1c0.1-0.8-0.3-2.3-0.1-3.4
	C104.8,40.6,105.4,40.7,106,40.9 M100.7,40.7c0.1,0.7,0,1.4-0.4,2c0.2,0.5,0.2,1.1-0.1,1.6c-0.4,0-0.8,0-1.2-0.2
	c-0.2-1.1-0.3-2.2-0.2-3.3C99.2,40.6,100,40.7,100.7,40.7 M95,40.7c0.8,0.7,0,2.4,0.2,3.6c-0.5,0.1-1,0.1-1.4-0.1
	c-0.2-1.1-0.2-2.2,0-3.3C94.2,40.8,94.6,40.7,95,40.7 M128.6,40.8c0.3,1.2-0.4,2.3-0.1,3.6c-0.5,0.2-1.1,0.2-1.6,0
	c-0.3-1.2,0.2-2.6,0-3.6C127.5,40.6,128.1,40.6,128.6,40.8 M123.3,40.7c0.3,0.9,0,2.4,0.1,3.7c-0.4,0.1-0.9,0.1-1.3,0
	c-0.2-1.2-0.2-2.4,0-3.7C122.5,40.6,122.9,40.6,123.3,40.7 M120.8,40.7c0.2,1.1-0.1,2.4,0,3.7c-0.4,0.1-0.8,0.1-1.2,0
	c-0.4-0.9-0.8-2.7-0.2-3.7C119.9,40.6,120.4,40.6,120.8,40.7 M118.4,40.8c-0.1,1.2,0,2.4-0.2,3.5c-0.5,0-0.8,0.1-1.4,0
	c-0.4-0.9,0.2-2.2,0-3.5C117,40.5,118.1,40.6,118.4,40.8 M115.6,40.8c-0.1,1.2-0.1,2.4,0.1,3.6c-0.5,0.1-1,0.1-1.5,0
	c0-1.1-0.5-2.3-0.2-3.6C114.5,40.6,115,40.6,115.6,40.8 M112.9,40.8c0,1.2,0,2.4-0.2,3.7c-0.5,0-1,0-1.4-0.1
	C111.4,43,110.5,40,112.9,40.8 M103.2,40.8c0.1,1.2,0,2.3-0.3,3.5c-0.5,0.1-1,0.1-1.4-0.2c0-1.1-0.5-2.3,0-3.3
	C102.1,40.6,102.7,40.6,103.2,40.8 M97.7,40.7c0.1,1.1,0.1,2.3,0,3.4c-0.4,0.1-0.9,0.2-1.3,0.1c-0.4-0.8-0.1-2.5-0.2-3.4
	C96.7,40.7,97.2,40.6,97.7,40.7 M92.7,40.8c0,1,0,2.3,0.1,3.3c-0.6,0.3-1.3,0.3-1.9,0C91.2,42.8,90.5,40,92.7,40.8 M22.1,40.7
	c0.5,1,0.1,2.4,0,3.5c-0.4,0.2-0.9,0.2-1.3,0.1c-0.1-1.2-0.2-2.3-0.1-3.5C21.2,40.6,21.7,40.6,22.1,40.7 M15.6,40.7
	c-0.1,0.9,0.3,2.5-0.1,3.5c-0.4,0.1-0.8,0.2-1.2,0.2c-0.3-1.2-0.3-2.5,0-3.7C14.7,40.5,15.2,40.5,15.6,40.7 M13.6,40.8
	c-0.1,1.2,0.2,2.6-0.1,3.5c-0.4,0.2-0.9,0.2-1.3,0c-0.1-1.2-0.1-2.3,0-3.5C12.5,40.4,13.2,40.6,13.6,40.8 M11.4,40.7
	c0.1,1.2,0.1,2.4-0.1,3.5c-0.4,0.1-0.8,0.1-1.2,0.1C10.2,43.2,9.1,39.9,11.4,40.7 M90,40.6c0.3,1.2-0.1,2.3,0.1,3.6
	c-0.5,0.2-0.9,0.2-1.4,0.1c-0.3-1.2-0.4-2.5-0.1-3.7C89.1,40.4,89.6,40.5,90,40.6 M44.6,40.5c-0.5,1-0.2,2.6-0.2,3.6
	c-0.6,0.1-1.1,0.1-1.7,0c-0.2-1.2-0.3-2.4-0.1-3.7C43.3,40.4,44,40.5,44.6,40.5 M35.7,44.1c-0.3,0.3-1.1,0.2-1.6,0.1
	c0.1-1.1-0.2-2.1-0.2-3.4c0.5-0.3,1.1-0.4,1.6-0.2C36,41.3,35.6,43.1,35.7,44.1 M33.2,40.5c0.5,0.9,0.1,2.8,0,3.7
	c-0.4,0.1-0.8,0.1-1.2-0.1c0.3-1.3-0.5-2.6,0.2-3.6C32.5,40.5,32.8,40.5,33.2,40.5 M28.5,40.6c0.2,1.2,0.2,2.4-0.1,3.6
	c-0.4,0.1-0.9,0.1-1.3-0.1C27.5,43.1,25.8,39.9,28.5,40.6 M82.1,40.5c0.3,1.2-0.2,2.5,0,3.7c-0.5,0.1-1,0.1-1.5,0
	C80.9,42.9,79.4,40,82.1,40.5 M79.4,40.4c0.4,1.1,0.1,2.4,0.1,3.7c-0.6,0.1-1.1,0.1-1.7,0c-0.1-1.2-0.1-2.3,0-3.5
	C78.1,40.3,78.9,40.4,79.4,40.4 M49.5,40.7c0,1.1,0,2.3-0.2,3.4c-0.5,0.2-1,0.2-1.4,0c-0.2-0.5-0.2-1.4,0.3-1.6
	c-0.1-0.1-0.3-0.2-0.4-0.4c0.3-0.5-0.2-1.2,0.2-1.7C48.5,40.3,49,40.4,49.5,40.7 M46.8,40.5c0.4,1,0,2.5,0,3.6
	c-0.4,0.1-0.8,0.1-1.1,0c-0.2-1.2-0.4-2.4-0.4-3.6C45.8,40.4,46.3,40.4,46.8,40.5 M39.6,40.5c0.2,1.2,0.3,2.3,0.1,3.5
	c-0.4,0.1-0.9,0.1-1.3,0c-0.3-1.1-0.4-2.7,0.2-3.5C38.9,40.4,39.3,40.4,39.6,40.5 M31,40.6c0.1,1.2,0.1,2.4,0,3.6
	c-0.5,0.1-0.9,0.1-1.4,0c-0.2-1.2-0.3-2.5-0.2-3.7C29.9,40.4,30.5,40.4,31,40.6 M26.3,44.3c-0.4,0.1-0.9,0.1-1.3-0.1
	c-0.1-1.2-0.1-2.3,0-3.5c0.4-0.3,1.4-0.4,1.6,0.1C26.2,42,26.7,43.2,26.3,44.3 M24.3,40.6c0.1,1.2,0.1,2.4-0.1,3.6
	c-0.4,0.2-0.9,0.2-1.3,0.1c-0.2-1.2-0.2-2.5,0-3.7C23.4,40.4,23.9,40.4,24.3,40.6 M76.7,40.5c0.2,1.2,0.1,2.5-0.1,3.7
	c-0.5,0.1-0.9,0.1-1.4,0c-0.2-1.2-0.2-2.5,0-3.7C75.7,40.3,76.2,40.3,76.7,40.5 M73.8,40.4c0.7,1,0.3,2.7,0.4,3.8
	c-0.5,0-1,0-1.4-0.1c-0.4-1.2-0.4-2.5-0.2-3.7C73,40.3,73.4,40.3,73.8,40.4 M71.2,40.4c0.2,1.3,0.2,2.6,0,3.8
	c-0.5,0.1-0.9,0.1-1.4,0c-0.2-1.2-0.2-2.5,0.1-3.7C69.8,40.1,70.8,40.4,71.2,40.4 M69,40.6c-0.2,1.2-0.3,2.3-0.2,3.5
	c-0.6,0.2-1.2,0.2-1.8,0c-0.2-1.2-0.1-2.5,0.1-3.7C67.8,40.3,68.6,40.2,69,40.6 M61.2,40.5c0.3,1.2,0.3,2.4,0.2,3.6
	c-0.5,0.1-0.9,0.1-1.4-0.1c0.1-1.1-0.3-2.2-0.1-3.5C60.3,40.3,60.8,40.3,61.2,40.5 M51.5,40.3c1,0.8,0.3,2.5,0.3,3.8
	c-0.4,0.1-0.8,0.1-1.2,0c-0.1-1.2-0.1-2.4,0-3.7C50.9,40.3,51.2,40.3,51.5,40.3 M37.7,40.4c0.2,1.2,0.2,2.4,0,3.7
	c-0.3,0.1-0.6,0.1-0.9,0.1c-0.2-0.3-0.7-3.1-0.2-3.6C36.9,40.3,37.3,40.3,37.7,40.4 M87.4,40.4c0.1,1.3,0.1,2.6-0.1,3.8
	c-0.5,0.2-1.1,0.2-1.6,0.1c-0.2-1.3-0.1-2.6,0.3-3.9C86.4,40.2,86.9,40.2,87.4,40.4 M84.6,40.2c0.3,1-0.1,2.7-0.1,4
	c-0.5,0-0.9,0-1.4-0.1c-0.1-1.2-0.1-2.5,0-3.7C83.4,40.3,84.2,40.4,84.6,40.2 M66.3,40.7c0,1.3-0.6,2.3-0.5,3.4
	c-0.5,0.1-0.9,0-1.3-0.2c-0.1-1.1-0.9-2.5-0.1-3.5C65.1,40.3,65.8,40.4,66.3,40.7 M63.6,40.6c-0.2,1.2,0.2,2.4-0.1,3.5
	c-0.4,0.1-0.9,0.1-1.3-0.1c0.4-1.3-0.3-2.2,0-3.6C62.7,40.2,63.2,40.3,63.6,40.6 M56.7,40.6c-0.6,0.9-0.3,2.3-0.3,3.5
	c-0.5,0.1-0.9,0.1-1.4,0c-0.4-1.1,0-2.5-0.1-3.6C55.4,40.2,56.4,40.2,56.7,40.6 M54,40.3c0.1,1.3,0.1,2.6-0.1,3.9
	c-0.4,0.1-0.8,0.1-1.2-0.1c-0.2-1.2-0.2-2.5,0-3.7C53.1,40.2,53.6,40.2,54,40.3 M59.1,44c-0.5,0.2-1.1,0.2-1.6,0.1
	c0-1.4-0.5-2.7-0.1-3.8C59.8,39.6,58.6,42.8,59.1,44 M41.8,44.1c-0.5,0.1-1,0.1-1.4-0.1c-0.2-1-0.5-2.9,0.1-3.7
	C43.1,39.6,41.6,42.6,41.8,44.1 M9.6,41.1c-0.4,1,0.5,2.6-0.4,3.2c-1.2,0.1-0.4-1.4-0.8-2c-1.1,0.4,0.3,2.3-1.3,2.2
	c-0.3-0.4,0-1.3-0.3-1.8c-0.1-0.2-0.6,0-0.8-0.1c0,0.4,0.8,1,0.5,1.8c-0.5,0.2-1.1-0.1-1.6,0.1c-0.6-1-0.1-1.9-0.2-3
	c0.3-0.2,1.4,0.1,1.6-0.2c-0.4-0.3-1.4-0.1-1.7-0.4c0-0.2-0.2-0.3-0.1-0.6C5.9,40,9,39.9,9.6,41.1 M8.5,41.7
	c-0.1-0.4-0.8-0.4-1.4-0.4C7.4,41.6,8.1,41.6,8.5,41.7 M171.2,39c0.2,0.3,0.2,0.7,0,1c-0.9,0.3-1.8,0.2-2.6-0.2c-0.6,1-2.3,0-1.4-1
	C168.5,38.7,169.8,38.8,171.2,39 M8.7,38.7c0.1,0.3,0.1,0.6,0,1c-1.3,0.2-2.7,0.2-4,0C4,37.9,7.3,38.7,8.7,38.7 M171.1,37.3
	c0.2,0.3,0.2,0.7,0.1,1c-1.4,0.1-2.8,0.1-4.2,0C166.2,36.5,169.8,37.7,171.1,37.3 M8.8,37c0.1,0.3,0.1,0.7-0.1,1
	c-1.3,0.2-2.7,0.3-4,0.1c-0.2-0.3-0.3-0.8-0.1-1.1C6,36.7,7.4,36.7,8.8,37 M171.3,35.9c0.2,0.3,0.1,0.7-0.2,0.9
	c-1.4,0.1-2.8,0.1-4.1-0.2c-0.2-0.2-0.2-0.5-0.1-0.8C168.3,35.6,169.8,35.6,171.3,35.9 M8.8,36.1c-1.4,0.3-2.8,0.3-4.2,0.1
	c-0.2-0.3,0-0.8,0.1-1C6,35.3,9.3,34.6,8.8,36.1 M171.1,34c0.1,0.3,0.1,0.7,0,1c-1.4,0.1-2.8,0.1-4.1-0.1
	C166,33.1,169.9,34.1,171.1,34 M8.5,33.8c0.1,0.3,0.1,0.5,0.1,0.8c-1.1,0.4-2.8,0.1-3.9,0.1c-0.2-0.2-0.3-0.5-0.3-0.8
	C4.8,33.4,7.6,33.7,8.5,33.8 M171.2,32.3c0.1,0.2,0.1,0.5,0,0.7c-1.5,0.3-3,0.3-4.4,0c-0.1-0.3-0.1-0.6-0.1-0.9
	C167.9,31.6,170,32.1,171.2,32.3 M8.5,30.8c0.1,0.2,0.1,0.4,0.2,0.6c-0.6,0.7-1.8,0.2-2.8,0.5c0.8,0.2,3.5-0.2,2.6,1.2
	c-1.3,0.2-2.7,0.2-4,0c-0.4-0.3,0-0.7,0-1.1s-0.6-1,0-1.4C5.8,30.6,7.2,30.6,8.5,30.8 M171.3,30.4c0.2,0.2,0.1,0.5,0,0.7
	c-1.1,0.4-2.9,0.2-4.2,0.1c-0.1-0.2-0.1-0.3-0.2-0.5l0.4-0.6C168.6,30.1,169.9,30.1,171.3,30.4 M8.3,30c-1.3,0.2-2.7,0.2-4,0
	c-0.1-0.3-0.2-0.8,0-1c1.1-0.1,2.2-0.1,3.2,0L8.3,30 M171.3,28.6c0.1,0.3,0.1,0.6-0.1,0.9c-1.1,0-2.3,0-3.4-0.1
	c0.1-0.2,0.2-0.3,0.4-0.5l0.5-0.6c0.9,0,1.8,0.1,2.4,0.1L171.3,28.6z M170.5,27.6c-0.5,0.1-0.9,0.1-1.4,0.1l0.7-0.9L170.5,27.6
	 M7.3,28.6c-0.9,0-1.9,0-2.8-0.2c0.4-0.6,0.9-1.1,1.3-1.7L7.3,28.6 M5.8,18.4l-0.5-0.5c0.3,0,0.6,0,0.9,0L5.8,18.4z M169.2,17.7
	c0.4,0,0.8,0,1.2,0l-0.6,0.7L169.2,17.7 M6.8,17.3c-0.6,0-1.2,0-1.9,0l-0.7-0.8c0.6-0.4,2.2-0.2,3.2-0.1C7.3,16.7,7,17,6.8,17.3
	 M171,15.9c0.1,0.3,0.1,0.7-0.1,1c-0.8,0.1-1.5,0.1-2.3,0c-0.3-0.4-0.6-0.8-1-1.2C168.7,15.6,169.9,15.7,171,15.9 M8.1,14.6
	c0.1,0.3,0.2,0.6,0.2,0.8L8,15.8c-1.4-0.2-2.8,0.3-3.9,0c-0.1-0.4-0.2-1.2,0.3-1.3C5.7,14.5,6.9,14.5,8.1,14.6 M170.7,13.9
	c0.3,0.4,0.4,0.9,0.2,1.3c-1.3,0.1-2.5,0-3.8-0.1l-0.5-0.7c0-0.2,0.1-0.4,0.3-0.5C168.3,13.8,169.4,13.9,170.7,13.9 M8.3,13.1
	c0.2,0.3,0.1,0.5,0,0.9c-1.3,0.2-2.7,0.2-4.1,0C2.7,12,6.9,13,8.3,13.1 M8.4,9.9c0.2,0.3,0,0.6-0.1,0.9c-0.4,0.1-1,0.1-1.2,0.4
	c0.2,0.2,0.5,0.1,1,0.1c0.3,0.2,0.3,0.6,0.2,0.9c-1.3,0.1-2.7,0.1-4.1,0.1c-0.3-0.3-0.2-0.7,0.1-1l0,0c0.8,0.1,1.6-0.2,2.2-0.1
	c-0.5-0.3-1.7-0.1-2.3-0.4c-0.2-0.3-0.2-0.7,0-1C5.3,9.7,7.3,9.4,8.4,9.9 M170.9,8.4c0.2,0.3,0.2,0.7,0.2,1c-0.2,0.4-1.6,0-1.6,0.5
	c0.3,0.3,1.2,0.1,1.6,0.2c0.2,0.4,0,0.6,0,1c-1.5,0.1-2.9,0.1-4.4,0c-0.1-0.3-0.1-0.7,0-1c0.7-0.1,1.4-0.2,2.1-0.1
	c-0.6-0.3-1.3-0.4-2-0.6c-0.2-0.4-0.1-0.8,0.1-1.1C168.2,8.2,169.5,8.3,170.9,8.4 M8.3,8.2c0.1,0.4,0.3,0.7,0.6,1
	C7.3,9.5,5.6,9.5,4,9.2c0-0.3,0-0.6,0.1-0.9C5.5,8.1,6.9,8.1,8.3,8.2 M170.8,6.9c0.2,0.3,0.2,0.6,0.2,0.9c-1.4,0.1-2.8,0.1-4.1-0.1
	c-0.2-0.3-0.3-0.7-0.1-1.1C168.1,6.6,169.5,6.7,170.8,6.9 M8.1,6.7c0.1,0.3,0.4,0.7,0.2,1c-1.4,0.1-2.8,0-4.2-0.1
	C3.9,7.2,4,6.8,4.2,6.6C5.5,6.6,6.8,6.6,8.1,6.7 M165.9,21.9v1.3c-0.3,0.4-0.6,0.8-0.9,1.2c0-1.3-0.1-2.5-0.1-3.8
	c0.1,0.2,0.3,0.5,0.5,0.7L165.9,21.9z M11,33.9c0,1.6,0.1,3.3,0.1,4.8c1.5,0.1,3,0.3,4.2,0.3c0.8,0,1.7-0.1,2.5-0.1
	c1.5,0,3,0.1,4.4,0.2c0.6,0,1.9,0,2.3-0.3c0.1,0.3,0.8,0.3,1.1,0.3c1.3,0.1,2.9,0,4.4,0c1.9-0.1,3.9,0.1,5.7,0s3.6-0.2,5.4-0.2
	c4.7,0.2,9.4,0.1,14.2-0.1c2.4-0.1,4.8,0.2,7.2,0.2s5-0.2,7.4-0.2c13.4,0,27.1,0,40.4,0.2c12.1,0.1,25.2,0,36,0.2
	c0.7,0,1.5-0.2,2.3-0.2c4.9,0,11.2,0.4,16.2,0.1c0-1.9,0-3.8,0.1-5.7l0.1-0.1c0.2-0.4,0.5-0.7,0.7-1.1l0.1-0.2
	c0,2.7,0.1,5.3,0.1,7.9c-5.1,0.1-10.6,0.1-15.8,0c-0.9,0-1.8,0.4-2.5-0.1c-1.7,0.2-3.3,0.3-5,0.1c-0.6,0-1.3,0.2-1.9,0.2
	s-1.1-0.2-1.6-0.2c-2,0-4,0.3-6,0.2c-0.5,0-0.9-0.2-1.4-0.2c-1,0-2.1,0.1-3.3,0.1c-0.6,0-1.2,0.2-1.8,0.2c-1.1,0-2.2-0.1-3.4-0.1
	c-2.4-0.2-4.8-0.1-7.2,0.1c-1.9-0.2-3.8-0.3-5.6-0.2c-0.4,0-0.9,0.3-1.3,0.3c-0.3-0.1-0.7-0.2-1-0.3c-0.8-0.1-2-0.1-2.9-0.1
	c-3.6,0-7.1,0.2-10.4,0.2c-2.1,0-4.3-0.1-6.5-0.2s-4.7-0.2-7.1-0.1c-1.4,0-2.9,0.2-4.2,0.1c-0.4,0-0.8-0.2-1.2-0.1S74.9,40,74.5,40
	s-1.1-0.2-1.7-0.2c-1.1,0-2.3,0.1-3.3,0.1c-1.4,0-2.7-0.1-4.2-0.2c-1.3,0-2.7,0.3-4,0.2c-0.3,0-0.7-0.1-1-0.1c-2.9-0.2-6,0-8.8-0.1
	c-1.6-0.1-3.4,0.2-4.8,0.2c-0.8,0-1.5-0.2-2.2-0.2c-1.1,0-2.1,0.3-3.2,0.3c-0.7,0-1.3-0.1-2-0.1c-2.3,0.2-4.7,0.2-7,0
	c-2.5,0.2-5,0.3-7.4,0.2c-0.4,0-0.8,0.1-1.2,0.1c-1.3,0-2.6-0.2-3.9-0.2c-1.5,0-3,0.3-4.4,0.3c-1,0-1.9-0.3-2.8-0.3
	c-0.8,0.1-1.6,0.1-2.4-0.1c-0.2-2.7-0.4-5.4-0.5-8l0.3,0.4c0.2,0.4,0.5,0.7,0.7,1.1c0.1,0.1,0.1,0.2,0.2,0.3
	C10.8,33.7,10.9,33.9,11,33.9 M10.8,20.6c0,0.4,0,0.9,0,1.3c0,0.9,0,1.8,0,2.6c-0.4-0.5-0.7-1-1.1-1.5c0-0.1,0-0.2,0-0.2v-0.6
	l0.6-0.8c0.2-0.2,0.4-0.5,0.6-0.8 M131.3,7.3c-8.1,0-16.2-0.2-24.1-0.1c-2.7,0-5.5-0.1-8.2,0C93.6,7.4,88.2,7,82.8,7.1
	C67,7.4,50.6,6.9,34.7,7.3c-1.2,0-2.4-0.1-3.6-0.1c-3.7,0-6.7,0-10-0.1c-3.2,0.2-6.8-0.2-10.4,0.1c-0.1,1.6,0,3.1,0,4.7
	c0,0,0,0,0,0.1c-0.4,0.7-0.8,1.3-1.2,1.9c0-0.6,0-1.2-0.1-1.7C9.3,11.1,9.3,10,9.3,8.9C9.1,8,9.2,7,9.6,6.2
	c7.9,0.3,16.8,0.2,25.3,0.2c6.3,0,11.7,0.2,17.9,0.1c5-0.1,9.3,0,14.4,0S78.5,6.4,84,6.4c1.8,0,3.7,0.2,5.4,0.2
	c0.9-0.2,1.8-0.2,2.7,0.1c7.4,0,15.6-0.2,23-0.2c1,0,2,0.3,2.9,0.2c1.6-0.2,3.1-0.2,4.7,0c2.1-0.2,4.1-0.2,6.2-0.2
	c2.4,0,5.2,0,7.9,0.1c1.7,0,3.4-0.1,5-0.1c0.5,0,1,0.1,1.4,0.3c0.7-0.6,2.9-0.2,3.6-0.1c1.3-0.4,3.3-0.1,5.2-0.1
	c4.4,0,9.4-0.1,13.6,0.1c0.3,1.7,0,3.6,0.3,5.3c1.4,0,3.6,0,5.2,0.1c0.2,0.4,0,0.9-0.2,1.2c-1.1,0.1-2.3,0-3.4-0.1
	c-0.7-0.1-0.9-0.6-1.5-0.5c-0.1,0.1-0.1,0.3-0.1,0.4c-0.2-0.4-0.5-0.7-0.7-1.1c-0.1-0.2-0.2-0.5-0.4-0.6c0-1.3-0.1-2.6-0.1-3.9
	C153.4,7.4,142.3,7.3,131.3,7.3 M77.3,3.4c0.1,0.7,0.4,1.8-0.1,2.3c-0.4,0-0.8,0-1.2,0C76,4.8,75.3,2.7,77.3,3.4 M128,3.3
	c0.1,0.9,0,1.8-0.2,2.7c-0.3,0-0.8,0.1-1-0.1C126.5,5.1,125.8,2.6,128,3.3 M121,3.3c0.1,0.9,0.1,1.8-0.1,2.7c-0.3,0.1-0.7,0.1-1,0
	C119.7,5.2,118.9,2.6,121,3.3 M79.7,3.3c0.2,0.8,0.2,1.6,0.1,2.4c-0.4,0.1-0.8,0.1-1.2-0.1c-0.3-0.6-0.1-1.5-0.3-2.2
	C78.3,3.1,79.3,3.2,79.7,3.3 M74.9,3.3c0.2,0.8,0.3,1.6,0.1,2.4c-0.4,0.2-0.8,0-1.4,0.1C73.4,5.1,72.9,2.6,74.9,3.3 M157.9,3.1
	c0.2,0.4,0,0.9-0.4,1.2c0.2,0.1,0.4,0.2,0.6,0.2c0,0.5,0.2,1-0.1,1.3c-0.4,0.2-0.9,0.2-1.3,0.1C156.6,5.1,155.7,2.7,157.9,3.1
	 M151.3,3.2c0.2,0.8,0.2,1.7,0,2.6c-0.5,0.2-1,0.2-1.5,0.1c-0.2-0.8-0.1-1.7,0.1-2.5C150.3,3.1,150.8,3.1,151.3,3.2 M148.7,3.3
	c0.1,1-0.2,1.5-0.1,2.4c-0.4,0.1-1.3,0.2-1.5-0.1C147.5,4.6,146.8,2.5,148.7,3.3 M146.5,3.2c0,0.9,0,1.7,0,2.6
	c-0.3,0.1-0.7,0.1-1,0.1C145.3,5,144.3,2.6,146.5,3.2 M144.2,3.3c0.3,0.8,0.2,1.7-0.1,2.6c-0.3,0.1-0.6,0.1-0.9,0
	C142.8,5.1,142.2,2.5,144.2,3.3 M141.9,3.2c-0.1,0.8-0.1,1.7,0,2.5c-0.4,0.2-0.8,0.3-1.2,0.2c-0.6-0.6-0.3-1.8-0.2-2.6
	C140.5,3,141.6,3.1,141.9,3.2 M139.5,3.2c0,0.8,0.6,2.7-0.8,2.7C138.2,5.4,137.4,2.5,139.5,3.2 M135,3.3c0.2,0.8,0.2,1.7,0,2.5
	c-0.4,0.2-0.8,0.2-1.1,0.1c-0.3-0.8-0.8-3.3,1-2.6 M132.8,3.3c-0.1,0.8-0.1,1.7-0.1,2.5c-0.5,0.2-1,0.2-1.5,0
	c-0.1-0.7-0.6-2.2,0.1-2.6C131.8,3.2,132.5,3.1,132.8,3.3 M130.2,3.3c-0.2,0.8,0.3,2-0.1,2.6c-0.4,0.2-0.9,0.1-1.3-0.2
	C128.9,4.7,128.2,2.6,130.2,3.3 M123.2,3.3c0,1-0.1,1.8-0.2,2.7c-0.3,0.2-0.8,0.2-1.1,0c0-0.9-0.1-1.7-0.2-2.6
	c0.5-0.3,1.1-0.3,1.6-0.1 M119,3.2c0.3,0.9-0.1,1.8,0,2.8c-0.5,0.1-0.9,0.1-1.4,0c-0.2-0.8-0.3-1.7-0.3-2.6
	C117.8,3.2,118.4,3.1,119,3.2 M116.6,3.2c0.3,0.8-0.1,1.8-0.1,2.8c-0.2,0.1-0.6,0-1,0.1c-0.7-0.7-0.2-1.9-0.2-2.7
	C115.3,3,116.2,3.2,116.6,3.2 M108,3.2c0.4,0,0.9,0,1.3,0.1c0.4,1,0.2,2-0.3,2.9c-0.3,0-0.6,0-0.8-0.1C108,5.1,107.9,4.1,108,3.2
	 M107.1,3.3c0.4,0.7-0.1,2-0.3,2.7c-0.3-0.1-0.7-0.1-1-0.1c-0.1-0.9-0.1-1.8,0-2.6C106.2,3.2,106.7,3.2,107.1,3.3 M104.7,3.3
	c0.5,0.5,0.1,1.7,0.1,2.5c-0.4,0.2-0.8,0.2-1.2,0C103.4,5,102.9,2.5,104.7,3.3 M102.5,3.2c0.2,0.9,0.2,1.8,0,2.6
	c-1.6,0.3-1.4-1.8-1-2.6C101.9,3.2,102.2,3.1,102.5,3.2 M100.3,3.4c0.1,0.8,0.1,1.6-0.1,2.3c-0.4,0.1-0.8,0.1-1.1,0
	C98.8,4.8,98.5,2.4,100.3,3.4 M98.3,3.3c0,0.8,0,1.6-0.1,2.3c-0.2,0.2-1.1,0.2-1.5,0.1c-0.1-0.8,0-1.6,0.1-2.3
	C96.8,3,98,3.1,98.3,3.3 M91.3,3.2C91.5,4.1,91.4,5,91,5.8c-0.6-0.1-0.9,0.2-1.2-0.1C90,4.8,89.3,2.6,91.3,3.2 M89,5.7
	c-0.4,0.3-0.9,0.3-1.3,0c-0.1-0.8,0-1.7,0.1-2.5C89.7,2.8,88.9,4.7,89,5.7 M86.5,3.2c0.2,0.8-0.1,1.6,0,2.6
	c-0.4,0.1-0.8,0.2-1.2,0.1c-0.5-0.5-0.1-1.7-0.1-2.5C85.2,3,86.2,3.2,86.5,3.2 M84.4,3.3c0.2,0.9,0.1,1.8-0.3,2.7
	c-0.3,0-0.6,0-0.9-0.2C83,5,83,4.2,83.1,3.4C83.5,3.2,84,3.2,84.4,3.3 M82,3.2c0.1,0.8,0.2,1.7,0.1,2.5C81.7,6,81.2,6,80.8,5.9
	c-0.2-0.7-0.5-2-0.1-2.6C81.1,3.1,81.6,3.1,82,3.2 M72.2,3.2c0.5,0.8,0.6,1.7,0.3,2.6C72.1,6,71.7,6,71.3,5.9
	C71.3,5,70.6,3.1,72.2,3.2 M70.3,3.2C70.4,4,70.7,5.5,70.1,6c-0.3,0-0.6,0-0.9-0.2C69,5,68.9,4.1,68.9,3.2
	C69.4,3.1,69.9,3.1,70.3,3.2 M68.1,3.3c0.1,0.8,0.1,1.7,0.1,2.5C67.8,6,67.4,6,67,6c-0.4-0.8-0.5-1.7-0.5-2.6
	C66.6,3.1,67.8,3.2,68.1,3.3 M65.7,3.2c0.2,0.8,0,1.8,0.2,2.6C65.5,6,65.2,6.1,64.8,6c-0.4-0.9-0.5-1.8-0.3-2.7
	C64.9,3.2,65.3,3.2,65.7,3.2 M61.2,3.4c-0.1,0.9,0.1,1.8,0.1,2.4C61.1,6,60.3,6,60,5.9c-0.1-0.8-0.5-1.9-0.1-2.6
	C60.3,3.2,60.8,3.2,61.2,3.4 M58.6,3.3C58.9,4.1,59,5,58.8,5.9C58.4,6,57.9,6,57.5,5.8C57.4,5,56.3,2.7,58.6,3.3 M53.8,3.3
	C53.9,4.2,54,5,53.9,5.9c-0.3,0.1-0.7,0.1-1,0C52.8,5.2,51.8,2.7,53.8,3.3 M49.5,3.3c0.3,0.8-0.2,1.8,0.1,2.6C49.1,6,48.5,6,48,5.9
	C48.1,4.9,47.2,2.6,49.5,3.3 M44.1,3.3c0.2,0.9,0.3,1.8,0.2,2.6c-0.5,0.1-1.1,0-1.6-0.1c-0.1-0.8-0.1-1.7-0.1-2.5
	C43.1,3.2,43.6,3.2,44.1,3.3 M41.7,3.3C42.2,3.9,41.8,5,42,5.7c-0.2,0.2-0.9,0.2-1.2,0.1C40.5,5.1,40,2.7,41.7,3.3 M39.4,3.2
	c0.8,0.6,0.1,2,0.3,2.6c-1.7,0.3-1.4-1.6-1.2-2.6C38.5,3.2,39.4,3.2,39.4,3.2z M170.9,4.6c-0.8,0-1.4,0.2-1.9-0.1
	c-0.2,0.1-0.3,0.4-0.2,0.5c0.4,0.3,1.4,0,1.9,0.3c0,0.3,0.2,0.7,0,1c-1.1,0-2.3-0.1-3.4-0.4c-0.1-0.8-0.4-2,0.1-2.7h1.1
	c0.2,0.2,0.2,0.6,0.4,0.8C169,2.5,171.5,3.4,170.9,4.6 M162.8,3.2c0.2,0.9,0.2,1.8,0,2.6c-0.5,0.1-1.1,0.1-1.6,0
	c-0.1-0.9-0.1-1.7,0.1-2.6C161.8,3.2,162.3,3.1,162.8,3.2 M160.3,3.3c0.4,0.8,0.4,1.7,0,2.6c-0.4,0.2-0.9,0.2-1.3,0
	c-0.2-0.8-0.3-1.7-0.2-2.6C159.3,3.1,159.8,3.1,160.3,3.3 M137.6,3.4c-0.1,0.3-0.5,0.5-0.6,0.8c0.3,0.5,0.4,1.1,0.2,1.7
	c-0.4,0-0.9,0.3-1.2,0.1c-0.2-0.7,0.1-1.7-0.1-2.5C136.4,3.1,137.1,3.1,137.6,3.4 M125.8,3.3c0.1,0.9,0.1,1.8,0,2.7
	c-0.4,0.2-0.9,0.3-1.4,0.1c-0.1-0.9-0.1-1.8,0-2.7C124.8,3.1,125.3,3.1,125.8,3.3 M114.1,3.3c0.1,0.9,0.4,2.2-0.2,2.9
	c-1.8,0.2-1.2-2-1.6-2.7C112.3,2.9,113.8,3.1,114.1,3.3 M111.7,3.3c0.4,0.7-0.1,2.1,0,2.8c-0.4,0.2-0.9,0.2-1.3,0
	c-0.2-0.9-0.3-1.9-0.1-2.9C110.8,3.1,111.3,3.1,111.7,3.3 M95.8,3.4c0.2,0.8-0.2,1.5-0.2,2.4c-0.5,0-0.7,0.2-1.2,0.2
	c-0.5-0.6-0.2-2.1,0.1-2.7C95,3.1,95.4,3.1,95.8,3.4 M94,3.4c-0.2,1,0,1.7-0.2,2.5C93.4,6,93,6,92.6,5.9C91.8,5,92.1,2.2,94,3.4
	 M63.6,3.4c0.1,0.9,0,1.6,0.1,2.5c-0.5,0.2-1,0.2-1.5,0C62.4,5,62,4,62.2,3.2C62.7,3,63.2,3.1,63.6,3.4 M56.5,3.3
	c-0.1,1,0,1.7-0.1,2.6C56,6,55.5,6,55.1,5.9c0-0.8-0.1-1.9-0.2-2.6C55.4,3.2,56.2,3,56.5,3.3 M51.7,3.2c0.4,0.7-0.1,1.8,0.2,2.6
	C51.5,6,51,6,50.6,5.8c-0.2-0.8-0.2-1.7,0.1-2.6C51,3.1,51.3,3.1,51.7,3.2 M47,3.2c0.3,0.8-0.1,1.7,0.1,2.6c-0.5,0.2-1,0.2-1.5,0.1
	c-0.2-0.8-0.6-2-0.2-2.7C45.9,3.1,46.5,3.1,47,3.2 M35,3.2c0.1,1,0.6,1.9,0,2.7c-0.4,0.1-0.8,0-1.1-0.2c0.3-0.7,0.3-1.5,0-2.3
	C33.8,3,34.7,3.1,35,3.2 M13.5,3.2c0.1,0.8,0,1.5-0.2,2.3c-0.4,0.1-0.9,0.1-1.3,0c-0.2-0.8-0.2-1.6,0-2.3C12.5,3,13.1,3,13.5,3.2
	 M155.6,3.2c0.1,0.9,0.1,1.9,0,2.8c-0.4,0.1-0.8,0-1.1-0.1C154.1,5.1,153.5,2.3,155.6,3.2 M153.6,3.1c0.1,0.9,0,1.9-0.3,2.8
	c-0.4,0-0.8,0-1.2-0.2c-0.1-0.8-0.1-1.7,0-2.6C152.6,3.1,153.1,3,153.6,3.1 M153,4.8c0-0.1,0.1-0.4-0.1-0.4
	C152.8,4.6,152.5,4.9,153,4.8 M26.4,3.1c0.2,0.9,0.2,1.8,0,2.6c-0.5,0.1-0.9,0-1.4-0.1C25.3,4.7,24.2,2.4,26.4,3.1 M24.1,3.1
	c0.1,0.7,0.3,2.1-0.2,2.6c-0.4,0.1-0.9,0.1-1.2-0.1C22.6,4.8,22.2,2.5,24.1,3.1 M21.9,3c0.4,0.8,0.4,1.9,0,2.7
	c-0.5,0.1-0.6-0.1-1-0.1c-0.2-0.8-0.2-1.7,0-2.5C21.2,3.1,21.5,3,21.9,3 M15.7,3.3c0.1,0.7,0.1,1.4,0,2c-0.3,0.2-0.7,0.2-1,0.2
	c-0.4-0.8-0.5-1.7-0.2-2.5C14.9,2.9,15.3,3,15.7,3.3 M6.5,3.2c0.2,0.5-0.3,0.6-0.3,1C7,4.6,6.9,3.6,7,3.2c0.1-0.1,0.5-0.1,0.8-0.1
	c0.6,0.4,0.2,1.3,0,1.8C7.2,5.1,6.6,5.2,6,5.2c0.7,0.2,1.5,0.3,2.3,0.1C9.1,5,8.3,3.5,9,3.1C9.3,3,9.4,3.2,9.7,3.2
	c0.2,0.8,0,1.7-0.4,2.4C7.7,6.3,5.9,6.5,4.2,6.2C4,5.3,4,4.4,4.1,3.5C5.1,3.5,5.8,2.8,6.5,3.2 M37.4,3.1c0.1,0.9,0.1,1.8,0.1,2.7
	c-0.5,0.1-0.9,0.1-1.4,0c-0.2-0.9,0.3-1.7,0-2.7C36.5,2.8,37,2.8,37.4,3.1 M33.1,5.8c-0.4,0-0.8,0-1.2-0.1c-0.1-0.8-0.1-1.7-0.1-2.5
	C33.5,2,33.5,5,33.1,5.8 M30.8,3C31,3.9,31,4.9,30.7,5.8c-0.4,0-0.8,0-1.2-0.1c-0.3-0.9-0.3-1.9-0.1-2.8C29.9,2.9,30.3,2.9,30.8,3
	 M28.3,2.9c0.6,0.6,0.2,2,0.1,2.8c-0.4,0.1-0.8,0.1-1.1,0.1C27,4.9,26.9,3.9,27,3C27.5,2.9,27.9,2.9,28.3,2.9 M17.9,3
	c-0.1,0.9-0.2,1.8-0.2,2.6c-0.4,0.1-0.8,0.1-1.2,0C16.2,4.5,15.7,2.4,17.9,3 M20,2.8c0.2,0.9,0.2,1.9,0.1,2.8
	c-0.4,0.2-0.8,0.2-1.2,0.1c-0.2-0.9-0.3-1.8-0.3-2.7C19.3,3.2,19.3,2.8,20,2.8 M11.1,2.6c0.3,0,0.6,0,0.9,0.2
	c0.1,0.4-0.4,0.3-0.6,0.6c-0.1,0.7,0.1,1.6-0.2,2.2h-1C10,4.8,9.9,4,10,3.2C10.4,3,11.3,3.2,11.1,2.6 M172.6,23.4
	c0.9,1.1,1.7,2.4,2.4,3.6c0.4,0.8,0.7,2.3,0.6,6.2c-1-1.7-2.2-3.3-3.4-4.9c-0.4-0.5-1.1-1.4-1.8-2.3L172.6,23.4 M164,12.3
	c1.5,2.4,3.2,4.7,5.1,6.8c-0.7,0.8-1.4,1.6-2.1,2.5l-0.8-1c-1.4-1.7-2.2-3.8-2.2-6C163.9,11.3,164,12.4,164,12.3 M175.6,12.4
	c-3,5.2-8.3,9.6-11,14.6c-0.4,0.8-0.6,2.3-0.6,6.2c1-1.7,2.2-3.3,3.4-4.9c1.4-1.8,5.3-6.7,6.1-7.6c1.4-1.7,2.2-3.8,2.2-6
	C175.7,11.3,175.6,12.4,175.6,12.4 M8.6,23.4c0.9,1.1,1.7,2.3,2.5,3.6c0.4,0.8,0.7,2.3,0.6,6.2c-1-1.7-2.2-3.3-3.4-4.9L6.5,26
	C7.2,25.1,7.9,24.2,8.6,23.4 M0,12.4c1.5,2.4,3.2,4.7,5.2,6.8c-0.7,0.8-1.4,1.6-2.1,2.5l-0.8-1c-1.4-1.7-2.2-3.8-2.2-6
	C0,11.3,0,12.4,0,12.4 M11.6,12.4c-3,5.2-8.2,9.6-11,14.6C0.2,27.8,0,29.3,0,33.2c1-1.7,2.2-3.3,3.4-4.9c1.4-1.8,5.3-6.7,6.1-7.6
	c1.4-1.7,2.2-3.8,2.2-6C11.8,11.3,11.6,12.4,11.6,12.4"/>
</svg>
