<?xml version="1.0" encoding="utf-8"?>
<!-- Generator: Adobe Illustrator 22.0.0, SVG Export Plug-In . SVG Version: 6.00 Build 0)  -->
<svg version="1.1" id="Layer_1" xmlns="http://www.w3.org/2000/svg" xmlns:xlink="http://www.w3.org/1999/xlink" x="0px" y="0px"
	 preserveAspectRatio="none" viewBox="0 0 84 21" style="enable-background:new 0 0 84 21;" xml:space="preserve">
<style type="text/css">
	.st0{fill:#FFF7ED;}
	.st1{fill:#623C25;}
</style>
<polygon class="st0" points="77.5,-1 6.5,-1 6.5,5.7 14.8,14.9 69.2,14.9 77.5,5.7 "/>
<g id="Layer_2_3_">
	<g id="Layer_1-2_2_">
		<path class="st1" d="M62,17.6h9.4c1.2-4.7,4.7-8.4,9.4-9.7V-1H84v11.7c-5.4,0.2-9.8,4.7-9.7,10.2H62V17.6z"/>
		<path class="st1" d="M70.2,16H62v-2h6.8c1.6-3.8,4.6-6.9,8.2-8.7V-1h2.2v7.5C74.9,8.3,71.7,11.7,70.2,16z"/>
	</g>
</g>
<g id="Layer_2_4_">
	<g id="Layer_1-2_3_">
		<path class="st1" d="M22,17.6h-9.4C11.4,12.9,7.9,9.3,3.2,8v-8.9H0v11.7C5.4,11,9.8,15.5,9.7,21H22V17.6z"/>
		<path class="st1" d="M13.8,16H22v-2h-6.8c-1.6-3.8-4.6-6.9-8.2-8.7V-1H4.8v7.5C9.1,8.3,12.3,11.7,13.8,16z"/>
	</g>
</g>
<g id="line_2_">
	<rect x="21.5" y="17.6" class="st1" width="41" height="3.4"/>
	<rect x="21.5" y="14" class="st1" width="41" height="2"/>
</g>
</svg>
