<?xml version="1.0" encoding="utf-8"?>
<!-- Generator: Adobe Illustrator 22.0.0, SVG Export Plug-In . SVG Version: 6.00 Build 0)  -->
<svg version="1.1" id="Layer_1" xmlns="http://www.w3.org/2000/svg" xmlns:xlink="http://www.w3.org/1999/xlink" x="0px" y="0px"
	 preserveAspectRatio="none" viewBox="0 0 84 21" style="enable-background:new 0 0 84 21;" xml:space="preserve">
<style type="text/css">
	.st0{fill:#623C25;}
</style>
<polygon class="st0" points="77.5,22 6.5,22 6.5,15.3 14.8,6.1 69.2,6.1 77.5,15.3 "/>
<g id="Layer_2_3_">
	<g id="Layer_1-2_2_">
		<path class="st0" d="M62,3.4h9.4c1.2,4.7,4.7,8.4,9.4,9.7V22H84V10.2C78.6,10,74.2,5.5,74.3,0H62V3.4z"/>
		<path class="st0" d="M70.2,5H62v2h6.8c1.6,3.8,4.6,6.9,8.2,8.7V22h2.2v-7.5C74.9,12.8,71.7,9.3,70.2,5z"/>
	</g>
</g>
<g id="Layer_2_4_">
	<g id="Layer_1-2_3_">
		<path class="st0" d="M22,3.4h-9.4c-1.2,4.7-4.7,8.4-9.4,9.7V22H0V10.2C5.4,10,9.8,5.5,9.7,0H22V3.4z"/>
		<path class="st0" d="M13.8,5H22v2h-6.8c-1.6,3.8-4.6,6.9-8.2,8.7V22H4.8v-7.5C9.1,12.8,12.3,9.3,13.8,5z"/>
	</g>
</g>
<g id="line_2_">
	<rect x="21.5" y="0" class="st0" width="41" height="3.4"/>
	<rect x="21.5" y="5" class="st0" width="41" height="2"/>
</g>
</svg>
