<?xml version="1.0" encoding="utf-8"?>
<!-- Generator: Adobe Illustrator 22.0.0, SVG Export Plug-In . SVG Version: 6.00 Build 0)  -->
<svg version="1.1" id="Слой_1" xmlns="http://www.w3.org/2000/svg" xmlns:xlink="http://www.w3.org/1999/xlink" x="0px" y="0px"
	 preserveAspectRatio="none" viewBox="0 0 407 2.6" style="enable-background:new 0 0 407 2.6;" xml:space="preserve">
<style type="text/css">
	.st0{fill:#FFEFD6;}
	.st1{fill:#7F6841;}
</style>
<title>Asset 6</title>
<rect class="st0" width="407.1" height="2.7"/>
<g id="Слой_2">
	<g id="Layer_2">
		<g id="Layer_1-2">
			<path class="st1" d="M0.6,2.6c0-0.1,0-0.2,0-0.3l0,0l0,0h405.9c0,0.1,0,0.2,0,0.3L0.6,2.6 M0.1,0.3h406.8l0.1-0.3H0L0.1,0.3
				L0.1,0.3L0.1,0.3z M0.6,1.9h405.9c0-0.2,0-0.4,0.1-0.6H0.5v0.1l0,0l0,0l0,0l0,0l0,0l0,0l0,0v0.1l0,0v0.1l0,0L0.6,1.9z M1,0.4
				c0,0.2,0,0.4,0,0.6c0,0.2-0.1,0.3,0.1,0.3s0.2,0.1,0.1-0.1S1.2,1,1.2,0.9s0-0.3,0-0.4S1.1,0.3,1,0.4 M1.9,0.4c0,0.2,0,0.4,0,0.6
				c0,0.2-0.1,0.3,0.1,0.3s0.2,0.1,0.2-0.1S2.1,1,2.1,0.9s0-0.3,0-0.4S2.1,0.3,1.9,0.4 M2.8,0.4c0,0.2,0,0.4,0,0.6
				c0,0.2-0.1,0.3,0.1,0.3S3,1.3,3,1.1S3,1,3,0.9s0-0.3,0-0.4S3,0.3,2.8,0.4 M3.7,0.4c0,0.2,0,0.4,0,0.6c0,0.2-0.1,0.3,0.1,0.3
				S4,1.3,3.9,1.1s0-0.2-0.1-0.2s0-0.3,0-0.4S3.9,0.3,3.7,0.4 M4.6,0.4c0,0.2,0,0.4,0,0.6c0,0.2-0.1,0.3,0.1,0.3s0.2,0.1,0.2-0.1
				c0-0.1-0.1-0.2-0.1-0.2c0-0.1,0-0.3,0-0.4C4.8,0.3,4.8,0.3,4.6,0.4 M5.5,0.4c0,0.2,0,0.4,0,0.6c0,0.2-0.1,0.3,0.1,0.3
				s0.2,0.1,0.2-0.1S5.7,1,5.7,0.9c0-0.1,0-0.3,0-0.4C5.7,0.3,5.7,0.3,5.5,0.4 M6.4,0.4c0,0.2,0,0.4,0,0.6c0,0.2-0.1,0.3,0.1,0.3
				s0.2,0.1,0.2-0.1s0-0.2-0.1-0.2c0-0.1,0-0.3,0-0.4C6.6,0.3,6.6,0.3,6.4,0.4 M7.3,0.4c0,0.2,0,0.4,0,0.6c0,0.2-0.1,0.3,0.1,0.3
				s0.2,0.1,0.2-0.1s0-0.2-0.1-0.2s0-0.3,0-0.4S7.5,0.3,7.3,0.4 M8.2,0.4c0,0.2,0,0.4,0,0.6c0,0.2-0.1,0.3,0.1,0.3s0.2,0.1,0.1-0.1
				s0-0.2-0.1-0.2s0-0.3,0-0.4S8.5,0.3,8.2,0.4 M9.2,0.4c0,0.2,0,0.4,0,0.6c0,0.2-0.1,0.3,0.1,0.3s0.2,0.1,0.1-0.1S9.3,1,9.3,0.9
				s0-0.3,0-0.4S9.3,0.3,9.2,0.4 M10,0.4c0,0.2,0,0.4,0,0.6c0,0.2-0.1,0.3,0.1,0.3s0.2,0.1,0.1-0.1S10.2,1,10.2,0.9
				c0-0.1,0-0.3,0-0.4C10.2,0.3,10.2,0.3,10,0.4 M10.9,0.4c0,0.2,0,0.4,0,0.6c0,0.2-0.1,0.3,0.1,0.3s0.2,0.1,0.1-0.1
				S11.1,1,11.1,0.9c0-0.1,0-0.3,0-0.4C11.1,0.3,11.1,0.3,10.9,0.4 M11.8,0.4c0,0.2,0,0.4,0,0.6c0,0.2-0.1,0.3,0.1,0.3
				s0.2,0.1,0.1-0.1S12,1,12,0.9c0-0.1,0-0.3,0-0.4C12,0.3,12,0.3,11.8,0.4 M12.7,0.4c0,0.2,0,0.4,0,0.6c0,0.2-0.1,0.3,0.1,0.3
				S13,1.3,13,1.1s0-0.2-0.1-0.2c0-0.1,0-0.3,0-0.4C12.9,0.3,12.9,0.3,12.7,0.4 M13.6,0.4c0,0.2,0,0.4,0,0.6c0,0.2-0.1,0.3,0.1,0.3
				s0.2,0.1,0.1-0.1S13.8,1,13.8,0.9s0-0.3,0-0.4S13.8,0.3,13.6,0.4 M14.5,0.4c0,0.2,0,0.4,0,0.6c0,0.2-0.1,0.3,0.1,0.3
				s0.2,0.1,0.1-0.1S14.7,1,14.7,0.9s0-0.3,0-0.4S14.7,0.3,14.5,0.4 M15.4,0.4c0,0.2,0,0.4,0,0.6c0.1,0.2-0.1,0.3,0.1,0.3
				s0.2,0.1,0.1-0.1S15.6,1,15.6,0.9s0-0.3,0-0.4S15.6,0.3,15.4,0.4 M16.3,0.4c0,0.2,0,0.4,0,0.6c0,0.2-0.1,0.3,0.1,0.3
				s0.2,0.1,0.1-0.1S16.5,1,16.5,0.9c0-0.1,0-0.3,0-0.4C16.5,0.3,16.5,0.3,16.3,0.4 M17.2,0.4c0,0.2,0,0.4,0,0.6
				c0,0.2-0.1,0.3,0.1,0.3s0.2,0.1,0.1-0.1S17.4,1,17.4,0.9c0-0.1,0-0.3,0-0.4C17.4,0.3,17.4,0.3,17.2,0.4 M18.1,0.4
				c0,0.2,0,0.4,0,0.6c0,0.2-0.1,0.3,0.1,0.3s0.2,0.1,0.1-0.1S18.3,1,18.3,0.9c0-0.1,0-0.3,0-0.4C18.3,0.3,18.3,0.3,18.1,0.4
				 M19,0.4c0,0.2,0,0.4,0,0.6c0,0.2-0.1,0.3,0.1,0.3s0.2,0.1,0.1-0.1S19.2,1,19.2,0.9c0-0.1,0-0.3,0-0.4C19.2,0.3,19.2,0.3,19,0.4
				 M19.9,0.4c0,0.2,0,0.4,0,0.6c0,0.2-0.1,0.3,0.1,0.3s0.2,0.1,0.1-0.1s0-0.2-0.1-0.2s0-0.3,0-0.4S20.1,0.3,19.9,0.4 M20.8,0.4
				c0,0.2,0,0.4,0,0.6c0,0.2-0.1,0.3,0.1,0.3s0.2,0.1,0.1-0.1S21,1,21,0.9s0-0.3,0-0.4S21,0.3,20.8,0.4 M21.7,0.4c0,0.2,0,0.4,0,0.6
				c0,0.2-0.1,0.3,0.1,0.3S22,1.3,22,1.1S21.9,1,21.9,0.9s0-0.3,0-0.4S21.9,0.3,21.7,0.4 M22.6,0.4c0,0.2,0,0.4,0,0.6
				c0,0.2-0.1,0.3,0.1,0.3s0.2,0.1,0.1-0.1S22.8,1,22.8,0.9c0-0.1,0-0.3,0-0.4C22.8,0.3,22.8,0.3,22.6,0.4 M23.5,0.4
				c0,0.2,0,0.4,0,0.6c0,0.2-0.1,0.3,0.1,0.3s0.2,0.1,0.1-0.1S23.7,1,23.7,0.9c0-0.1,0-0.3,0-0.4C23.7,0.3,23.7,0.3,23.5,0.4
				 M24.4,0.4c0,0.2,0,0.4,0,0.6c0,0.2-0.1,0.3,0.1,0.3s0.2,0.1,0.1-0.1S24.6,1,24.6,0.9c0-0.1,0-0.3,0-0.4
				C24.6,0.3,24.6,0.3,24.4,0.4 M25.3,0.4c0,0.2,0,0.4,0,0.6c0,0.2-0.1,0.3,0.1,0.3s0.2,0.1,0.1-0.1s0-0.2-0.1-0.2
				c0-0.1,0-0.3,0-0.4C25.5,0.3,25.5,0.3,25.3,0.4 M26.2,0.4c0,0.2,0,0.4,0,0.6c0,0.2-0.1,0.3,0.1,0.3s0.2,0.1,0.1-0.1
				S26.4,1,26.4,0.9s0-0.3,0-0.4S26.4,0.3,26.2,0.4 M27.1,0.4c0,0.2,0,0.4,0,0.6c0,0.2-0.1,0.3,0.1,0.3s0.2,0.1,0.1-0.1
				S27.3,1,27.3,0.9s0-0.3,0-0.4S27.3,0.3,27.1,0.4 M28,0.4c0,0.2,0,0.4,0,0.6c0,0.2-0.1,0.3,0.1,0.3s0.2,0.1,0.1-0.1
				S28.2,1,28.2,0.9s0-0.3,0-0.4S28.2,0.3,28,0.4 M28.9,0.4c0,0.2,0,0.4,0,0.6c0,0.2-0.1,0.3,0.1,0.3s0.2,0.1,0.1-0.1
				S29.1,1,29.1,0.9c0-0.1,0-0.3,0-0.4C29.1,0.3,29.1,0.3,28.9,0.4 M29.8,0.4c0,0.2,0,0.4,0,0.6c0,0.2-0.1,0.3,0.1,0.3
				s0.2,0.1,0.1-0.1C30.1,1.1,30,1,30,0.9c0-0.1,0-0.3,0-0.4C30,0.3,30,0.3,29.8,0.4 M30.7,0.4c0,0.2,0,0.4,0,0.6
				c0,0.2-0.1,0.3,0.1,0.3S31,1.3,31,1.1s0-0.2-0.1-0.2c0-0.1,0-0.3,0-0.4C30.9,0.3,30.9,0.3,30.7,0.4 M31.6,0.4c0,0.2,0,0.4,0,0.6
				c0,0.2-0.1,0.3,0.1,0.3s0.2,0.1,0.1-0.1S31.8,1,31.8,0.9c0-0.1,0-0.3,0-0.4C31.8,0.3,31.8,0.3,31.6,0.4 M32.5,0.4
				c0,0.2,0,0.4,0,0.6c0,0.2-0.1,0.3,0.1,0.3s0.2,0.1,0.2-0.1S32.7,1,32.7,0.9s0-0.3,0-0.4S32.7,0.3,32.5,0.4 M33.4,0.4
				c0,0.2,0,0.4,0,0.6c0,0.2-0.1,0.3,0.1,0.3s0.2,0.1,0.2-0.1S33.6,1,33.6,0.9s0-0.3,0-0.4S33.6,0.3,33.4,0.4 M34.3,0.4
				c0,0.2,0,0.4,0,0.6c0,0.2-0.1,0.3,0.1,0.3s0.2,0.1,0.2-0.1s0-0.2-0.1-0.2s0-0.3,0-0.4S34.5,0.3,34.3,0.4 M35.3,0.4
				c0,0.2,0,0.4,0,0.6c0,0.2-0.1,0.3,0.1,0.3s0.2,0.1,0.1-0.1s0-0.2,0-0.2c0-0.1,0-0.3,0-0.4C35.5,0.3,35.5,0.3,35.3,0.4 M36.2,0.4
				c0,0.2,0,0.4,0,0.6c0,0.2-0.1,0.3,0.1,0.3s0.2,0.1,0.2-0.1c0-0.1,0-0.2-0.1-0.2c0-0.1,0-0.3,0-0.4C36.5,0.3,36.5,0.3,36.2,0.4
				 M37.2,0.4c0,0.2,0,0.4,0,0.6c0,0.2-0.1,0.3,0.1,0.3s0.2,0.1,0.2-0.1S37.2,1,37.2,0.9c0-0.1,0-0.3,0-0.4c0-0.2,0-0.2-0.2-0.1
				 M37.9,0.4c0,0.2,0,0.4,0,0.6c0,0.2-0.1,0.3,0.1,0.3s0.2,0.1,0.2-0.1s0-0.2-0.1-0.2c0-0.1,0-0.3,0-0.4
				C38.2,0.3,38.2,0.3,37.9,0.4 M38.9,0.4c0,0.2,0,0.4,0,0.6c0,0.2-0.1,0.3,0.1,0.3s0.2,0.1,0.2-0.1S39,1,39,0.9s0-0.3,0-0.4
				S39,0.3,38.9,0.4 M39.7,0.4c0,0.2,0,0.4,0,0.6c0,0.2-0.1,0.3,0.1,0.3S40,1.3,40,1.1s0-0.2-0.1-0.2s0-0.3,0-0.4S39.9,0.3,39.7,0.4
				 M40.7,0.4c0,0.2,0,0.4,0,0.6c0,0.2-0.1,0.3,0.1,0.3s0.2,0.1,0.2-0.1S40.8,1,40.8,0.9s0-0.3,0-0.4S40.8,0.3,40.7,0.4 M41.5,0.4
				c0,0.2,0,0.4,0,0.6c0,0.2-0.1,0.3,0.1,0.3s0.2,0.1,0.1-0.1S41.7,1,41.7,0.9c0-0.1,0-0.3,0-0.4C41.7,0.3,41.7,0.3,41.5,0.4
				 M42.4,0.4c0,0.2,0,0.4,0,0.6c0,0.2-0.1,0.3,0.1,0.3s0.2,0.1,0.2-0.1s0-0.2-0.1-0.2c0-0.1,0-0.3,0-0.4
				C42.7,0.3,42.7,0.3,42.4,0.4 M43.4,0.4c0,0.2,0,0.4,0,0.6c0,0.2-0.1,0.3,0.1,0.3s0.2,0.1,0.2-0.1S43.5,1,43.5,0.9
				c0-0.1,0-0.3,0-0.4C43.5,0.3,43.5,0.3,43.4,0.4 M44.2,0.4c0,0.2,0,0.4,0,0.6c0,0.2-0.1,0.3,0.1,0.3s0.2,0.1,0.2-0.1
				S44.4,1,44.4,0.9c0-0.1,0-0.3,0-0.4C44.4,0.3,44.4,0.3,44.2,0.4 M45.1,0.4c0,0.2,0,0.4,0,0.6c0,0.2-0.1,0.3,0.1,0.3
				s0.2,0.1,0.2-0.1s0-0.2-0.1-0.2s0-0.3,0-0.4S45.4,0.3,45.1,0.4 M46.1,0.4c0,0.2,0,0.4,0,0.6c0,0.2-0.1,0.3,0.1,0.3
				s0.2,0.1,0.2-0.1s0-0.2-0.1-0.2s0-0.3,0-0.4S46.3,0.3,46.1,0.4 M47,0.4c0,0.2,0,0.4,0,0.6c0,0.2-0.1,0.3,0.1,0.3s0.2,0.1,0.2-0.1
				s0-0.2-0.1-0.2s0-0.3,0-0.4S47.2,0.3,47,0.4 M47.9,0.4c0,0.2,0,0.4,0,0.6c0,0.2-0.1,0.3,0.1,0.3s0.2,0.1,0.1-0.1S48,1,48,0.9
				c0-0.1,0-0.3,0-0.4c0-0.2,0-0.2-0.2-0.1 M48.7,0.4c0,0.2,0,0.4,0,0.6c0,0.2-0.1,0.3,0.1,0.3S49,1.3,49,1.1s0-0.1-0.1-0.2
				c0-0.1,0-0.3,0-0.4C48.9,0.3,48.9,0.3,48.7,0.4 M49.7,0.4c0,0.2,0,0.4,0,0.6c0,0.2-0.1,0.3,0.1,0.3s0.2,0.1,0.2-0.1
				s0-0.2-0.1-0.2c0-0.1,0-0.3,0-0.4C49.9,0.3,49.9,0.3,49.7,0.4 M50.6,0.4c0,0.2,0,0.4,0,0.6c0,0.2-0.1,0.3,0.1,0.3
				s0.2,0.1,0.2-0.1s0-0.2-0.1-0.2c0-0.1,0-0.3,0-0.4C50.8,0.3,50.8,0.3,50.6,0.4 M51.5,0.4c0,0.2,0,0.4,0,0.6
				c0,0.2-0.1,0.3,0.1,0.3s0.2,0.1,0.2-0.1S51.7,1,51.6,0.9s0-0.3,0-0.4S51.6,0.3,51.5,0.4 M52.4,0.4c0,0.2,0,0.4,0,0.6
				c0,0.2-0.1,0.3,0.1,0.3s0.2,0.1,0.2-0.1S52.5,1,52.5,0.9s0-0.3,0-0.4S52.5,0.3,52.4,0.4 M53.3,0.4c0,0.2,0,0.4,0,0.6
				c0,0.2-0.1,0.3,0.1,0.3s0.2,0.1,0.2-0.1s0-0.2-0.1-0.2s0-0.3,0-0.4S53.5,0.3,53.3,0.4 M54.2,0.4c0,0.2,0,0.4,0,0.6
				c0,0.2-0.1,0.3,0.1,0.3s0.2,0.1,0.1-0.1s0-0.2,0-0.2c0-0.1,0-0.3,0-0.4C54.5,0.3,54.5,0.3,54.2,0.4 M55.2,0.4c0,0.2,0,0.4,0,0.6
				c0,0.2-0.1,0.3,0.1,0.3s0.2,0.1,0.2-0.1S55.3,1,55.3,0.9c0-0.1,0-0.3,0-0.4c0-0.2,0-0.2-0.2-0.1 M56,0.4c0,0.2,0,0.4,0,0.6
				c0,0.2-0.1,0.3,0.1,0.3s0.2,0.1,0.2-0.1S56.2,1,56.2,0.9c0-0.1,0-0.3,0-0.4C56.2,0.3,56.2,0.3,56,0.4 M56.9,0.4
				c0,0.2,0,0.4,0,0.6c0,0.2-0.1,0.3,0.1,0.3s0.2,0.1,0.2-0.1s0-0.2-0.1-0.2s0-0.3,0-0.4S57.1,0.3,56.9,0.4 M57.8,0.4
				c0,0.2,0,0.4,0,0.6c0,0.2-0.1,0.3,0.1,0.3s0.2,0.1,0.2-0.1S58,1,58,0.9s0-0.3,0-0.4S58,0.3,57.8,0.4 M58.7,0.4c0,0.2,0,0.4,0,0.6
				c0,0.2-0.1,0.3,0.1,0.3S59,1.3,59,1.1s0-0.2-0.1-0.2s0-0.3,0-0.4S58.9,0.3,58.7,0.4 M59.7,0.4c0,0.2,0,0.4,0,0.6
				c0,0.2-0.1,0.3,0.1,0.3s0.2,0.1,0.2-0.1S59.8,1,59.8,0.9s0-0.3,0-0.4S59.8,0.3,59.7,0.4 M60.5,0.4c0,0.2,0,0.4,0,0.6
				c0,0.2-0.1,0.3,0.1,0.3s0.2,0.1,0.1-0.1S60.7,1,60.7,0.9c0-0.1,0-0.3,0-0.4C60.7,0.3,60.7,0.3,60.5,0.4 M61.4,0.4
				c0,0.2,0,0.4,0,0.6c0,0.2-0.1,0.3,0.1,0.3s0.2,0.1,0.2-0.1s0-0.2-0.1-0.2c0-0.1,0-0.3,0-0.4C61.6,0.3,61.6,0.3,61.4,0.4
				 M62.3,0.4c0,0.2,0,0.4,0,0.6c0,0.2-0.1,0.3,0.1,0.3s0.2,0.1,0.2-0.1S62.5,1,62.5,0.9c0-0.1,0-0.3,0-0.4
				C62.5,0.3,62.5,0.3,62.3,0.4 M63.2,0.4c0,0.2,0,0.4,0,0.6c0,0.2-0.1,0.3,0.1,0.3s0.2,0.1,0.2-0.1S63.4,1,63.4,0.9s0-0.3,0-0.4
				S63.4,0.3,63.2,0.4 M64.1,0.4c0,0.2,0,0.4,0,0.6c0,0.2-0.1,0.3,0.1,0.3s0.2,0.1,0.2-0.1s0-0.2-0.1-0.2s0-0.3,0-0.4
				S64.3,0.3,64.1,0.4 M65,0.4c0,0.2,0,0.4,0,0.6c0,0.2-0.1,0.3,0.1,0.3s0.2,0.1,0.2-0.1s0-0.2-0.1-0.2s0-0.3,0-0.4S65.2,0.3,65,0.4
				 M65.9,0.4c0,0.2,0,0.4,0,0.6c0,0.2-0.1,0.3,0.1,0.3s0.2,0.1,0.2-0.1S66.1,1,66.1,0.9s0-0.3,0-0.4S66.1,0.3,65.9,0.4 M66.8,0.4
				c0,0.2,0,0.4,0,0.6c0,0.2-0.1,0.3,0.1,0.3s0.2,0.1,0.1-0.1s0-0.1,0-0.2c0-0.1,0-0.3,0-0.4C67,0.3,67,0.3,66.8,0.4 M67.7,0.4
				c0,0.2,0,0.4,0,0.6c0,0.2-0.1,0.3,0.1,0.3S68,1.3,68,1.1S67.9,1,67.9,0.9c0-0.1,0-0.3,0-0.4C67.9,0.3,67.9,0.3,67.7,0.4
				 M68.6,0.4c0,0.2,0,0.4,0,0.6c0,0.2-0.1,0.3,0.1,0.3s0.2,0.1,0.2-0.1s0-0.2-0.1-0.2c0-0.1,0-0.3,0-0.4
				C68.8,0.3,68.8,0.3,68.6,0.4 M69.5,0.4c0,0.2,0,0.4,0,0.6c0,0.2-0.1,0.3,0.1,0.3s0.2,0.1,0.2-0.1s0-0.2-0.1-0.2s0-0.3,0-0.4
				S69.7,0.3,69.5,0.4 M70.4,0.4c0,0.2,0,0.4,0,0.6c0.1,0.2-0.1,0.3,0.1,0.3s0.2,0.1,0.2-0.1s0-0.2-0.1-0.2s0-0.3,0-0.4
				S70.7,0.3,70.4,0.4 M71.4,0.4c0,0.2,0,0.4,0,0.6c0,0.2-0.1,0.3,0.1,0.3s0.2,0.1,0.2-0.1s0-0.2-0.1-0.2s0-0.3,0-0.4
				S71.6,0.3,71.4,0.4 M72.3,0.4c0,0.2,0,0.4,0,0.6c0,0.2-0.1,0.3,0.1,0.3s0.2,0.1,0.2-0.1S72.4,1,72.4,0.9s0-0.3,0-0.4
				s0-0.2-0.2-0.1 M73.1,0.4c0,0.2,0,0.4,0,0.6c0,0.2-0.1,0.3,0.1,0.3s0.2,0.1,0.1-0.1s0-0.2,0-0.2c0-0.1,0-0.3,0-0.4
				C73.4,0.3,73.4,0.3,73.1,0.4 M74.1,0.4c0,0.2,0,0.4,0,0.6c0,0.2-0.1,0.3,0.1,0.3s0.2,0.1,0.2-0.1s0-0.2-0.1-0.2
				c0-0.1,0-0.3,0-0.4C74.3,0.3,74.3,0.3,74.1,0.4 M75,0.4c0,0.2,0,0.4,0,0.6c0,0.2-0.1,0.3,0.1,0.3s0.2,0.1,0.2-0.1s0-0.2-0.1-0.2
				c0-0.1,0-0.3,0-0.4C75.2,0.3,75.2,0.3,75,0.4 M75.9,0.4c0,0.2,0,0.4,0,0.6c0,0.2-0.1,0.3,0.1,0.3s0.2,0.1,0.2-0.1S76,1,76,0.9
				s0-0.3,0-0.4s0-0.2-0.2-0.1 M76.7,0.4c0,0.2,0,0.4,0,0.6c0,0.2-0.1,0.3,0.1,0.3S77,1.3,77,1.1s0-0.2-0.1-0.2s0-0.3,0-0.4
				S76.9,0.3,76.7,0.4 M77.6,0.4c0,0.2,0,0.4,0,0.6c0,0.2-0.1,0.3,0.1,0.3s0.2,0.1,0.2-0.1s0-0.2-0.1-0.2s0-0.3,0-0.4
				S77.9,0.3,77.6,0.4 M78.6,0.4c0,0.2,0,0.4,0,0.6c0,0.2-0.1,0.3,0.1,0.3s0.2,0.1,0.2-0.1s0-0.2-0.1-0.2s0-0.3,0-0.4
				S78.8,0.3,78.6,0.4 M79.5,0.4c0,0.2,0,0.4,0,0.6c0,0.2-0.1,0.3,0.1,0.3s0.2,0.1,0.1-0.1s0-0.2,0-0.2c0-0.1,0-0.3,0-0.4
				C79.8,0.3,79.8,0.3,79.5,0.4 M80.5,0.4c0,0.2,0,0.4,0,0.6c0,0.2-0.1,0.3,0.1,0.3s0.2,0.1,0.2-0.1s0-0.2-0.1-0.2
				c0-0.1,0-0.3,0-0.4C80.7,0.3,80.7,0.3,80.5,0.4 M81.4,0.4c0,0.2,0,0.4,0,0.6c0,0.2-0.1,0.3,0.1,0.3s0.2,0.1,0.2-0.1
				s0-0.2-0.1-0.2c0-0.1,0-0.3,0-0.4C81.6,0.3,81.6,0.3,81.4,0.4 M82.4,0.4c0,0.2,0,0.4,0,0.6c0,0.2-0.1,0.3,0.1,0.3
				s0.2,0.1,0.2-0.1s0-0.2-0.1-0.2s0-0.3,0-0.4S82.6,0.3,82.4,0.4 M83.3,0.4c0,0.2,0,0.4,0,0.6c0,0.2-0.1,0.3,0.1,0.3
				s0.2,0.1,0.2-0.1s0-0.2-0.1-0.2s0-0.3,0-0.4S83.5,0.3,83.3,0.4 M84.2,0.4c0,0.2,0,0.4,0,0.6c0,0.2-0.1,0.3,0.1,0.3
				s0.2,0.1,0.2-0.1S84.1,1,84.1,0.9s0-0.3,0-0.4s0-0.2-0.2-0.1 M84.8,0.4c0,0.2,0,0.4,0,0.6c0,0.2-0.1,0.3,0.1,0.3s0.2,0.1,0.2-0.1
				S85,1,85,0.9s0-0.3,0-0.4S85,0.3,84.8,0.4 M85.7,0.4c0,0.2,0,0.4,0,0.6c0,0.2-0.1,0.3,0.1,0.3S86,1.3,86,1.1
				c0-0.1-0.1-0.2-0.1-0.2c0-0.1,0-0.3,0-0.4C85.9,0.3,85.9,0.3,85.7,0.4 M86.6,0.4c0,0.2,0,0.4,0,0.6c0,0.2-0.1,0.3,0.1,0.3
				s0.2,0.1,0.2-0.1s0-0.2-0.1-0.2c0-0.1,0-0.3,0-0.4C86.8,0.3,86.8,0.3,86.6,0.4 M87.5,0.4c0,0.2,0,0.4,0,0.6
				c0,0.2-0.1,0.3,0.1,0.3s0.2,0.1,0.2-0.1S87.7,1,87.7,0.9c0-0.1,0-0.3,0-0.4C87.7,0.3,87.7,0.3,87.5,0.4 M88.4,0.4
				c0,0.2,0,0.4,0,0.6c0,0.2-0.1,0.3,0.1,0.3s0.2,0.1,0.2-0.1s0-0.2-0.1-0.2s0-0.3,0-0.4S88.6,0.3,88.4,0.4 M89.3,0.4
				c0,0.2,0,0.4,0,0.6c0,0.2-0.1,0.3,0.1,0.3s0.2,0.1,0.2-0.1s0-0.2-0.1-0.2s0-0.3,0-0.4S89.6,0.3,89.3,0.4 M90.3,0.4
				c0,0.2,0,0.4,0,0.6c0,0.2-0.1,0.3,0.1,0.3s0.2,0.1,0.2-0.1s0-0.2-0.1-0.2s0-0.3,0-0.4S90.5,0.3,90.3,0.4 M91.2,0.4
				c0,0.2,0,0.4,0,0.6c0,0.2-0.1,0.3,0.1,0.3s0.2,0.1,0.2-0.1s0-0.2-0.1-0.2s0-0.3,0-0.4S91.4,0.3,91.2,0.4 M92.1,0.4
				c0,0.2,0,0.4,0,0.6c0,0.2-0.1,0.3,0.1,0.3s0.2,0.1,0.2-0.1c0-0.1,0-0.2-0.1-0.2c0-0.1,0-0.3,0-0.4C92.4,0.3,92.4,0.3,92.1,0.4
				 M93.1,0.4c0,0.2,0,0.4,0,0.6c0,0.2-0.1,0.3,0.1,0.3s0.2,0.1,0.2-0.1s0-0.2-0.1-0.2c0-0.1,0-0.3,0-0.4
				C93.3,0.3,93.3,0.3,93.1,0.4 M94,0.4c0,0.2,0,0.4,0,0.6c0,0.2-0.1,0.3,0.1,0.3s0.2,0.1,0.2-0.1S94,1,94,0.9c0-0.1,0-0.3,0-0.4
				c0-0.2,0-0.2-0.2-0.1 M94.7,0.4c0,0.2,0,0.4,0,0.6c0,0.2-0.1,0.3,0.1,0.3S95,1.3,95,1.1s0-0.2-0.1-0.2s0-0.3,0-0.4
				S94.9,0.3,94.7,0.4 M95.6,0.4c0,0.2,0,0.4,0,0.6c0,0.2-0.1,0.3,0.1,0.3s0.2,0.1,0.2-0.1S95.8,1,95.8,0.9s0-0.3,0-0.4
				S95.8,0.3,95.6,0.4 M96.5,0.4c0,0.2,0,0.4,0,0.6c0.1,0.2-0.1,0.3,0.1,0.3s0.2,0.1,0.2-0.1s0-0.2-0.1-0.2s0-0.3,0-0.4
				S96.7,0.3,96.5,0.4 M97.5,0.4c0,0.2,0,0.4,0,0.6c0,0.2-0.1,0.3,0.1,0.3s0.2,0.1,0.1-0.1s0-0.2,0-0.2c0-0.1,0-0.3,0-0.4
				C97.7,0.3,97.7,0.3,97.5,0.4 M98.4,0.4c0,0.2,0,0.4,0,0.6c0,0.2-0.1,0.3,0.1,0.3s0.2,0.1,0.2-0.1s0-0.2-0.1-0.2
				c0-0.1,0-0.3,0-0.4C98.7,0.3,98.7,0.3,98.4,0.4 M99.4,0.4c0,0.2,0,0.4,0,0.6c0,0.2-0.1,0.3,0.1,0.3s0.2,0.1,0.2-0.1
				s0-0.2-0.1-0.2c0-0.1,0-0.3,0-0.4C99.6,0.3,99.6,0.3,99.4,0.4 M100.3,0.4c0,0.2,0,0.4,0,0.6c0,0.2-0.1,0.3,0.1,0.3
				s0.2,0.1,0.2-0.1s0-0.2-0.1-0.2c0-0.1,0-0.3,0-0.4C100.5,0.3,100.5,0.3,100.3,0.4 M101.2,0.4c0,0.2,0,0.4,0,0.6
				c0,0.2-0.1,0.3,0.1,0.3s0.2,0.1,0.2-0.1s0-0.2-0.1-0.2s0-0.3,0-0.4S101.4,0.3,101.2,0.4 M102.2,0.4c0,0.2,0,0.4,0,0.6
				c0,0.2-0.1,0.3,0.1,0.3s0.2,0.1,0.2-0.1s-0.1-0.2-0.1-0.2s0-0.3,0-0.4S102.4,0.3,102.2,0.4 M103.1,0.4c0,0.2,0,0.4,0,0.6
				c0,0.2-0.1,0.3,0.1,0.3s0.2,0.1,0.2-0.1S103,1,103,0.9s0-0.3,0-0.4s0-0.2-0.2-0.1 M103.7,0.4c0,0.2,0,0.4,0,0.6
				c0,0.2-0.1,0.3,0.1,0.3s0.2,0.1,0.1-0.1s0-0.2,0-0.2c0-0.1,0-0.3,0-0.4C104,0.3,104,0.3,103.7,0.4 M104.7,0.4c0,0.2,0,0.4,0,0.6
				c0,0.2-0.1,0.3,0.1,0.3s0.2,0.1,0.2-0.1s0-0.2-0.1-0.2c0-0.1,0-0.3,0-0.4C104.9,0.3,104.9,0.3,104.7,0.4 M105.6,0.4
				c0,0.2,0,0.4,0,0.6c0,0.2-0.1,0.3,0.1,0.3s0.2,0.1,0.2-0.1s-0.1-0.2-0.1-0.2c0-0.1,0-0.3,0-0.4C105.8,0.3,105.8,0.3,105.6,0.4
				 M106.6,0.4c0,0.2,0,0.4,0,0.6c0,0.2-0.1,0.3,0.1,0.3s0.2,0.1,0.2-0.1s0-0.2-0.1-0.2c0-0.1,0-0.3,0-0.4
				C106.8,0.3,106.8,0.3,106.6,0.4 M107.5,0.4c0,0.2,0,0.4,0,0.6c0,0.2-0.1,0.3,0.1,0.3s0.2,0.1,0.2-0.1s0-0.2-0.1-0.2s0-0.3,0-0.4
				S107.7,0.3,107.5,0.4 M108.4,0.4c0,0.2,0,0.4,0,0.6c0.1,0.2-0.1,0.3,0.1,0.3s0.2,0.1,0.2-0.1s0-0.2-0.1-0.2s0-0.3,0-0.4
				S108.6,0.3,108.4,0.4 M109.3,0.4c0,0.2,0,0.4,0,0.6c0,0.2-0.1,0.3,0.1,0.3s0.2,0.1,0.2-0.1s0-0.2-0.1-0.2s0-0.3,0-0.4
				S109.6,0.3,109.3,0.4 M110.3,0.4c0,0.2,0,0.4,0,0.6c0,0.2-0.1,0.3,0.1,0.3s0.2,0.1,0.1-0.1s-0.1-0.2-0.1-0.2c0-0.1,0-0.3,0-0.4
				C110.5,0.3,110.5,0.3,110.3,0.4 M111.2,0.4c0,0.2,0,0.4,0,0.6c0,0.2-0.1,0.3,0.1,0.3s0.2,0.1,0.2-0.1c0-0.1,0-0.2-0.1-0.2
				c0-0.1,0-0.3,0-0.4C111.4,0.3,111.4,0.3,111.2,0.4 M112.1,0.4c0,0.2,0,0.4,0,0.6c0,0.2-0.1,0.3,0.1,0.3s0.2,0.1,0.2-0.1
				s0-0.2-0.1-0.2c0-0.1,0-0.3,0-0.4C112.4,0.3,112.4,0.3,112.1,0.4 M113.1,0.4c0,0.2,0,0.4,0,0.6c0,0.2-0.1,0.3,0.1,0.3
				s0.2,0.1,0.2-0.1s0-0.2-0.1-0.2c0-0.1,0-0.3,0-0.4C113.3,0.3,113.3,0.3,113.1,0.4 M114,0.4c0,0.2,0,0.4,0,0.6
				c0,0.2-0.1,0.3,0.1,0.3s0.2,0.1,0.2-0.1s-0.1-0.2-0.1-0.2s0-0.3,0-0.4S114.2,0.3,114,0.4 M114.9,0.4c0,0.2,0,0.4,0,0.6
				c0,0.2-0.1,0.3,0.1,0.3s0.2,0.1,0.2-0.1s0-0.2-0.1-0.2s0-0.3,0-0.4S115.2,0.3,114.9,0.4 M115.9,0.4c0,0.2,0,0.4,0,0.6
				c0,0.2-0.1,0.3,0.1,0.3s0.2,0.1,0.2-0.1s0-0.2-0.1-0.2s0-0.3,0-0.4S116.1,0.3,115.9,0.4 M116.8,0.4c0,0.2,0,0.4,0,0.6
				c0,0.2-0.1,0.3,0.1,0.3s0.2,0.1,0.1-0.1s0-0.2,0-0.2c0-0.1,0-0.3,0-0.4C117.1,0.3,117.1,0.3,116.8,0.4 M117.8,0.4
				c0,0.2,0,0.4,0,0.6c0,0.2-0.1,0.3,0.1,0.3s0.2,0.1,0.2-0.1c0-0.1,0-0.2-0.1-0.2c0-0.1,0-0.3,0-0.4C118,0.3,118,0.3,117.8,0.4
				 M118.7,0.4c0,0.2,0,0.4,0,0.6c0,0.2-0.1,0.3,0.1,0.3s0.2,0.1,0.2-0.1s0-0.2-0.1-0.2c0-0.1,0-0.3,0-0.4
				C118.9,0.3,118.9,0.3,118.7,0.4 M119.6,0.4c0,0.2,0,0.4,0,0.6c0,0.2-0.1,0.3,0.1,0.3s0.2,0.1,0.2-0.1s0-0.2-0.1-0.2
				c0-0.1,0-0.3,0-0.4C119.9,0.3,119.9,0.3,119.6,0.4 M120.6,0.4c0,0.2,0,0.4,0,0.6c0,0.2-0.1,0.3,0.1,0.3s0.2,0.1,0.2-0.1
				s0-0.2-0.1-0.2s0-0.3,0-0.4S120.8,0.3,120.6,0.4 M121.5,0.4c0,0.2,0,0.4,0,0.6c0,0.2-0.1,0.3,0.1,0.3s0.2,0.1,0.2-0.1
				s0-0.2-0.1-0.2s0-0.3,0-0.4S121.7,0.3,121.5,0.4 M122.4,0.4c0,0.2,0,0.4,0,0.6c0,0.2-0.1,0.3,0.1,0.3s0.2,0.1,0.2-0.1
				S122,1,122,0.9s0-0.3,0-0.4s0-0.2-0.2-0.1 M122.7,0.4c0,0.2,0,0.4,0,0.6c0,0.2-0.1,0.3,0.1,0.3s0.2,0.1,0.1-0.1s0-0.2,0-0.2
				c0-0.1,0-0.3,0-0.4C123,0.3,123,0.3,122.7,0.4 M123.7,0.4c0,0.2,0,0.4,0,0.6c0,0.2-0.1,0.3,0.1,0.3s0.2,0.1,0.2-0.1
				c0-0.1,0-0.2-0.1-0.2c0-0.1,0-0.3,0-0.4C123.9,0.3,123.9,0.3,123.7,0.4 M124.6,0.4c0,0.2,0,0.4,0,0.6c0,0.2-0.1,0.3,0.1,0.3
				s0.2,0.1,0.2-0.1s0-0.2-0.1-0.2c0-0.1,0-0.3,0-0.4C124.9,0.3,124.9,0.3,124.6,0.4 M125.6,0.4c0,0.2,0,0.4,0,0.6
				c0,0.2-0.1,0.3,0.1,0.3s0.2,0.1,0.2-0.1s-0.1-0.2-0.1-0.2c0-0.1,0-0.3,0-0.4C125.8,0.3,125.8,0.3,125.6,0.4 M126.5,0.4
				c0,0.2,0,0.4,0,0.6c0.1,0.2-0.1,0.3,0.1,0.3s0.2,0.1,0.2-0.1s0-0.2-0.1-0.2s0-0.3,0-0.4S126.7,0.3,126.5,0.4 M127.4,0.4
				c0,0.2,0,0.4,0,0.6c0,0.2-0.1,0.3,0.1,0.3s0.2,0.1,0.2-0.1s0-0.2-0.1-0.2s0-0.3,0-0.4S127.7,0.3,127.4,0.4 M128.4,0.4
				c0,0.2,0,0.4,0,0.6c0,0.2-0.1,0.3,0.1,0.3s0.2,0.1,0.1-0.1s0-0.2-0.1-0.2s0-0.3,0-0.4S128.6,0.3,128.4,0.4 M129.3,0.4
				c0,0.2,0,0.4,0,0.6c0,0.2-0.1,0.3,0.1,0.3s0.2,0.1,0.1-0.1s-0.1-0.2-0.1-0.2c0-0.1,0-0.3,0-0.4C129.5,0.3,129.5,0.3,129.3,0.4
				 M130.2,0.4c0,0.2,0,0.4,0,0.6c0,0.2-0.1,0.3,0.1,0.3s0.2,0.1,0.1-0.1c0-0.1,0-0.2-0.1-0.2c0-0.1,0-0.3,0-0.4
				C130.4,0.3,130.4,0.3,130.2,0.4 M131.2,0.4c0,0.2,0,0.4,0,0.6c0,0.2-0.1,0.3,0.1,0.3s0.2,0.1,0.1-0.1S131,1,131,0.9
				c0-0.1,0-0.3,0-0.4c0-0.2,0-0.2-0.2-0.1 M131.7,0.4c0,0.2,0,0.4,0,0.6c0,0.2-0.1,0.3,0.1,0.3s0.2,0.1,0.1-0.1s-0.1-0.2-0.1-0.2
				c0-0.1,0-0.3,0-0.4C131.9,0.3,131.9,0.3,131.7,0.4 M132.6,0.4c0,0.2,0,0.4,0,0.6c0,0.2-0.1,0.3,0.1,0.3s0.2,0.1,0.1-0.1
				s-0.1-0.2-0.1-0.2s0-0.3,0-0.4S132.9,0.3,132.6,0.4 M133.6,0.4c0,0.2,0,0.4,0,0.6c0.1,0.2-0.1,0.3,0.1,0.3s0.2,0.1,0.1-0.1
				s0-0.2-0.1-0.2s0-0.3,0-0.4S133.8,0.3,133.6,0.4 M134.5,0.4c0,0.2,0,0.4,0,0.6c0,0.2-0.1,0.3,0.1,0.3s0.2,0.1,0.1-0.1
				s0-0.2-0.1-0.2s0-0.3,0-0.4S134.7,0.3,134.5,0.4 M135.4,0.4c0,0.2,0,0.4,0,0.6c0,0.2-0.1,0.3,0.1,0.3s0.2,0.1,0.1-0.1
				s-0.1-0.2-0.1-0.2c0-0.1,0-0.3,0-0.4C135.7,0.3,135.7,0.3,135.4,0.4 M136.4,0.4c0,0.2,0,0.4,0,0.6c0,0.2-0.1,0.3,0.1,0.3
				s0.2,0.1,0.1-0.1c0-0.1,0-0.2-0.1-0.2c0-0.1,0-0.3,0-0.4C136.6,0.3,136.6,0.3,136.4,0.4 M137.3,0.4c0,0.2,0,0.4,0,0.6
				c0,0.2-0.1,0.3,0.1,0.3s0.2,0.1,0.1-0.1s-0.1-0.2-0.1-0.2c0-0.1,0-0.3,0-0.4C137.5,0.3,137.5,0.3,137.3,0.4 M138.2,0.4
				c0,0.2,0,0.4,0,0.6c0,0.2-0.1,0.3,0.1,0.3s0.2,0.1,0.1-0.1s-0.1-0.2-0.1-0.2s0-0.3,0-0.4S138.4,0.3,138.2,0.4 M139.2,0.4
				c0,0.2,0,0.4,0,0.6c0,0.2-0.1,0.3,0.1,0.3s0.2,0.1,0.1-0.1s0-0.2-0.1-0.2s0-0.3,0-0.4S139.4,0.3,139.2,0.4 M140.1,0.4
				c0,0.2,0,0.4,0,0.6c0.1,0.2-0.1,0.3,0.1,0.3s0.2,0.1,0.1-0.1S140,1,140,0.9s0-0.3,0-0.4s0-0.2-0.2-0.1 M140.7,0.4
				c0,0.2,0,0.4,0,0.6c0,0.2-0.1,0.3,0.1,0.3s0.2,0.1,0.1-0.1s-0.1-0.2-0.1-0.2s0-0.3,0-0.4S140.9,0.3,140.7,0.4 M141.6,0.4
				c0,0.2,0,0.4,0,0.6c0,0.2-0.1,0.3,0.1,0.3s0.2,0.1,0.1-0.1s-0.1-0.2-0.1-0.2c0-0.1,0-0.3,0-0.4C141.9,0.3,141.9,0.3,141.6,0.4
				 M142.6,0.4c0,0.2,0,0.4,0,0.6c0,0.2-0.1,0.3,0.1,0.3s0.2,0.1,0.1-0.1s-0.1-0.2-0.1-0.2c0-0.1,0-0.3,0-0.4
				C142.8,0.3,142.8,0.3,142.6,0.4 M143.5,0.4c0,0.2,0,0.4,0,0.6c0,0.2-0.1,0.3,0.1,0.3s0.2,0.1,0.1-0.1s-0.1-0.2-0.1-0.2
				c0-0.1,0-0.3,0-0.4C143.7,0.3,143.7,0.3,143.5,0.4 M144.4,0.4c0,0.2,0,0.4,0,0.6c0,0.2-0.1,0.3,0.1,0.3s0.2,0.1,0.1-0.1
				s-0.1-0.2-0.1-0.2c0-0.1,0-0.3,0-0.4C144.7,0.3,144.7,0.3,144.4,0.4 M145.4,0.4c0,0.2,0,0.4,0,0.6c0.1,0.2-0.1,0.3,0.1,0.3
				s0.2,0.1,0.1-0.1s0-0.2-0.1-0.2s0-0.3,0-0.4S145.6,0.3,145.4,0.4 M146.3,0.4c0,0.2,0,0.4,0,0.6c0.1,0.2-0.1,0.3,0.1,0.3
				s0.2,0.1,0.1-0.1s0-0.2-0.1-0.2s0-0.3,0-0.4S146.5,0.3,146.3,0.4 M147.2,0.4c0,0.2,0,0.4,0,0.6c0,0.2-0.1,0.3,0.1,0.3
				s0.2,0.1,0.1-0.1s-0.1-0.2-0.1-0.2s0-0.3,0-0.4S147.4,0.3,147.2,0.4 M148.2,0.4c0,0.2,0,0.4,0,0.6c0,0.2-0.1,0.3,0.1,0.3
				s0.2,0.1,0.1-0.1s-0.3-0.1-0.3-0.2c0-0.1,0-0.3,0-0.4c0-0.2,0-0.2-0.2-0.1 M148.8,0.4c0,0.2,0,0.4,0,0.6c0,0.2-0.1,0.3,0.1,0.3
				s0.2,0.1,0.1-0.1S149,1,149,0.9c0-0.1,0-0.3,0-0.4C149,0.3,149,0.3,148.8,0.4 M149.7,0.4c0,0.2,0,0.4,0,0.6
				c0,0.2-0.1,0.3,0.1,0.3s0.2,0.1,0.1-0.1s-0.1-0.2-0.1-0.2c0-0.1,0-0.3,0-0.4C149.9,0.3,149.9,0.3,149.7,0.4 M150.6,0.4
				c0,0.2,0,0.4,0,0.6c0,0.2-0.1,0.3,0.1,0.3s0.2,0.1,0.1-0.1s-0.1-0.2-0.1-0.2c0-0.1,0-0.3,0-0.4C150.9,0.3,150.9,0.3,150.6,0.4
				 M151.6,0.4c0,0.2,0,0.4,0,0.6c0.1,0.2-0.1,0.3,0.1,0.3s0.2,0.1,0.1-0.1s0-0.2-0.1-0.2s0-0.3,0-0.4S151.8,0.3,151.6,0.4
				 M152.5,0.4c0,0.2,0,0.4,0,0.6c0.1,0.2-0.1,0.3,0.1,0.3s0.2,0.1,0.1-0.1s0-0.2-0.1-0.2s0-0.3,0-0.4S152.7,0.3,152.5,0.4
				 M153.4,0.4c0,0.2,0,0.4,0,0.6c0,0.2-0.1,0.3,0.1,0.3s0.2,0.1,0.1-0.1s-0.1-0.2-0.1-0.2s0-0.3,0-0.4S153.6,0.3,153.4,0.4
				 M154.4,0.4c0,0.2,0,0.4,0,0.6c0,0.2-0.1,0.3,0.1,0.3s0.2,0.1,0.1-0.1s-0.1-0.2-0.1-0.2c0-0.1,0-0.3,0-0.4
				C154.6,0.3,154.6,0.3,154.4,0.4 M155.3,0.4c0,0.2,0,0.4,0,0.6c0,0.2-0.1,0.3,0.1,0.3s0.2,0.1,0.1-0.1s-0.1-0.2-0.1-0.2
				c0-0.1,0-0.3,0-0.4C155.5,0.3,155.5,0.3,155.3,0.4 M156.2,0.4c0,0.2,0,0.4,0,0.6c0,0.2-0.1,0.3,0.1,0.3s0.2,0.1,0.1-0.1
				s-0.1-0.2-0.1-0.2c0-0.1,0-0.3,0-0.4C156.4,0.3,156.4,0.3,156.2,0.4 M157.2,0.4c0,0.2,0,0.4,0,0.6c0,0.2-0.1,0.3,0.1,0.3
				s0.2,0.1,0.1-0.1s0-0.2-0.1-0.2c0-0.1,0-0.3,0-0.4C157.4,0.3,157.4,0.3,157.2,0.4 M158.1,0.4c0,0.2,0,0.4,0,0.6
				c0.1,0.2-0.1,0.3,0.1,0.3s0.2,0.1,0.1-0.1S158,1,158,0.9s0-0.3,0-0.4s0-0.2-0.2-0.1 M158.7,0.4c0,0.2,0,0.4,0,0.6
				c0.1,0.2-0.1,0.3,0.1,0.3s0.2,0.1,0.1-0.1s-0.1-0.2-0.1-0.2s0-0.3,0-0.4S158.9,0.3,158.7,0.4 M159.6,0.4c0,0.2,0,0.4,0,0.6
				c0,0.2-0.1,0.3,0.1,0.3s0.2,0.1,0.1-0.1s-0.1-0.2-0.1-0.2s0-0.3,0-0.4S159.9,0.3,159.6,0.4 M160.6,0.4c0,0.2,0,0.4,0,0.6
				c0,0.2-0.1,0.3,0.1,0.3s0.2,0.1,0.1-0.1s-0.1-0.2-0.1-0.2c0-0.1,0-0.3,0-0.4C160.8,0.3,160.8,0.3,160.6,0.4 M161.5,0.4
				c0,0.2,0,0.4,0,0.6c0,0.2-0.1,0.3,0.1,0.3s0.2,0.1,0.1-0.1s-0.1-0.2-0.1-0.2c0-0.1,0-0.3,0-0.4C161.7,0.3,161.7,0.3,161.5,0.4
				 M162.4,0.4c0,0.2,0,0.4,0,0.6c0,0.2-0.1,0.3,0.1,0.3s0.2,0.1,0.1-0.1s-0.1-0.2-0.1-0.2c0-0.1,0-0.3,0-0.4
				C162.7,0.3,162.7,0.3,162.4,0.4 M163.4,0.4c0,0.2,0,0.4,0,0.6c0,0.2-0.1,0.3,0.1,0.3s0.2,0.1,0.1-0.1s0-0.2-0.1-0.2
				c0-0.1,0-0.3,0-0.4C163.6,0.3,163.6,0.3,163.4,0.4 M164.3,0.4c0,0.2,0,0.4,0,0.6c0.1,0.2-0.1,0.3,0.1,0.3s0.2,0.1,0.1-0.1
				s0-0.2-0.1-0.2s0-0.3,0-0.4S164.5,0.3,164.3,0.4 M165.2,0.4c0,0.2,0,0.4,0,0.6c0.1,0.2-0.1,0.3,0.1,0.3s0.2,0.1,0.1-0.1
				s-0.1-0.2-0.1-0.2s0-0.3,0-0.4S165.4,0.3,165.2,0.4 M166.2,0.4c0,0.2,0,0.4,0,0.6c0,0.2-0.1,0.3,0.1,0.3s0.2,0.1,0.1-0.1
				s-0.1-0.2-0.1-0.2s0-0.3,0-0.4S166.4,0.3,166.2,0.4 M167.1,0.4c0,0.2,0,0.4,0,0.6c0,0.2-0.1,0.3,0.1,0.3s0.2,0.1,0.1-0.1
				S167,1,167,0.9c0-0.1,0-0.3,0-0.4c0-0.2,0-0.2-0.2-0.1 M167.7,0.4c0,0.2,0,0.4,0,0.6c0,0.2-0.1,0.3,0.1,0.3s0.2,0.1,0.1-0.1
				s-0.1-0.2-0.1-0.2c0-0.1,0-0.3,0-0.4C167.9,0.3,167.9,0.3,167.7,0.4 M168.6,0.4c0,0.2,0,0.4,0,0.6c0,0.2-0.1,0.3,0.1,0.3
				s0.2,0.1,0.1-0.1s0-0.2-0.1-0.2c0-0.1,0-0.3,0-0.4C168.9,0.3,168.9,0.3,168.6,0.4 M169.6,0.4c0,0.2,0,0.4,0,0.6
				c0,0.2-0.1,0.3,0.1,0.3s0.2,0.1,0.1-0.1s0-0.2-0.1-0.2s0-0.3,0-0.4S169.8,0.3,169.6,0.4 M170.5,0.4c0,0.2,0,0.4,0,0.6
				c0.1,0.2-0.1,0.3,0.1,0.3s0.2,0.1,0.1-0.1s-0.1-0.2-0.1-0.2s0-0.3,0-0.4S170.7,0.3,170.5,0.4 M171.4,0.4c0,0.2,0,0.4,0,0.6
				c0.1,0.2-0.1,0.3,0.1,0.3s0.2,0.1,0.1-0.1s-0.1-0.2-0.1-0.2s0-0.3,0-0.4S171.6,0.3,171.4,0.4 M172.4,0.4c0,0.2,0,0.4,0,0.6
				c0,0.2-0.1,0.3,0.1,0.3s0.2,0.1,0.1-0.1s-0.1-0.2-0.1-0.2s0-0.3,0-0.4S172.6,0.3,172.4,0.4 M173.3,0.4c0,0.2,0,0.4,0,0.6
				c0,0.2-0.1,0.3,0.1,0.3s0.2,0.1,0.1-0.1c0-0.1,0-0.2-0.1-0.2c0-0.1,0-0.3,0-0.4C173.5,0.3,173.5,0.3,173.3,0.4 M174.2,0.4
				c0,0.2,0,0.4,0,0.6c0,0.2-0.1,0.3,0.1,0.3s0.2,0.1,0.1-0.1s-0.1-0.2-0.1-0.2c0-0.1,0-0.3,0-0.4C174.4,0.3,174.4,0.3,174.2,0.4
				 M175.2,0.4c0,0.2,0,0.4,0,0.6c0,0.2-0.1,0.3,0.1,0.3s0.2,0.1,0.1-0.1s0-0.2-0.1-0.2c0-0.1,0-0.3,0-0.4
				C175.4,0.3,175.4,0.3,175.2,0.4 M176.1,0.4c0,0.2,0,0.4,0,0.6c0,0.2-0.1,0.3,0.1,0.3s0.2,0.1,0.1-0.1s0-0.2-0.1-0.2s0-0.3,0-0.4
				S176.3,0.3,176.1,0.4 M177,0.4c0,0.2,0,0.4,0,0.6c0.1,0.2-0.1,0.3,0.1,0.3s0.2,0.1,0.1-0.1S177,1,176.9,0.9s0-0.3,0-0.4
				s0-0.2-0.2-0.1 M177.6,0.4c0,0.2,0,0.4,0,0.6c0,0.2-0.1,0.3,0.1,0.3s0.2,0.1,0.1-0.1s-0.1-0.2-0.1-0.2s0-0.3,0-0.4
				S177.9,0.3,177.6,0.4 M178.6,0.4c0,0.2,0,0.4,0,0.6c0,0.2-0.1,0.3,0.1,0.3s0.2,0.1,0.1-0.1s-0.1-0.2-0.1-0.2s0-0.3,0-0.4
				S178.8,0.3,178.6,0.4 M179.5,0.4c0,0.2,0,0.4,0,0.6c0,0.2-0.1,0.3,0.1,0.3s0.2,0.1,0.1-0.1s-0.1-0.2-0.1-0.2c0-0.1,0-0.3,0-0.4
				C179.7,0.3,179.7,0.3,179.5,0.4 M180.4,0.4c0,0.2,0,0.4,0,0.6c0,0.2-0.1,0.3,0.1,0.3s0.2,0.1,0.1-0.1s-0.1-0.2-0.1-0.2
				c0-0.1,0-0.3,0-0.4C180.7,0.3,180.7,0.3,180.4,0.4 M181.4,0.4c0,0.2,0,0.4,0,0.6c0,0.2-0.1,0.3,0.1,0.3s0.2,0.1,0.1-0.1
				s0-0.2-0.1-0.2c0-0.1,0-0.3,0-0.4C181.6,0.3,181.6,0.3,181.4,0.4 M182.3,0.4c0,0.2,0,0.4,0,0.6c0,0.2-0.1,0.3,0.1,0.3
				s0.2,0.1,0.1-0.1s0-0.2-0.1-0.2s0-0.3,0-0.4S182.5,0.3,182.3,0.4 M183.2,0.4c0,0.2,0,0.4,0,0.6c0.1,0.2-0.1,0.3,0.1,0.3
				s0.2,0.1,0.1-0.1s-0.1-0.2-0.1-0.2s0-0.3,0-0.4S183.5,0.3,183.2,0.4 M184.2,0.4c0,0.2,0,0.4,0,0.6c0,0.2-0.1,0.3,0.1,0.3
				s0.2,0.1,0.1-0.1s-0.1-0.2-0.1-0.2s0-0.3,0-0.4S184.4,0.3,184.2,0.4 M185.1,0.4c0,0.2,0,0.4,0,0.6c0,0.2-0.1,0.3,0.1,0.3
				s0.2,0.1,0.1-0.1s-0.1-0.2-0.1-0.2s0-0.3,0-0.4S185.3,0.3,185.1,0.4 M186,0.4c0,0.2,0,0.4,0,0.6c0,0.2-0.1,0.3,0.1,0.3
				s0.2,0.1,0.1-0.1S186,1,186,0.9c0-0.1,0-0.3,0-0.4c0-0.2,0-0.2-0.2-0.1 M186.7,0.4c0,0.2,0,0.4,0,0.6c0,0.2-0.1,0.3,0.1,0.3
				s0.2,0.1,0.1-0.1s0-0.2-0.1-0.2c0-0.1,0-0.3,0-0.4C186.9,0.3,186.9,0.3,186.7,0.4 M187.6,0.4c0,0.2,0,0.4,0,0.6
				c0,0.2-0.1,0.3,0.1,0.3s0.2,0.1,0.1-0.1s0-0.2-0.1-0.2c0-0.1,0-0.3,0-0.4C187.9,0.3,187.9,0.3,187.6,0.4 M188.6,0.4
				c0,0.2,0,0.4,0,0.6c0,0.2-0.1,0.3,0.1,0.3s0.2,0.1,0.1-0.1s-0.1-0.2-0.1-0.2s0-0.3,0-0.4S188.8,0.3,188.6,0.4 M189.5,0.4
				c0,0.2,0,0.4,0,0.6c0,0.2-0.1,0.3,0.1,0.3s0.2,0.1,0.1-0.1s-0.1-0.2-0.1-0.2s0-0.3,0-0.4S189.7,0.3,189.5,0.4 M190.4,0.4
				c0,0.2,0,0.4,0,0.6c0,0.2-0.1,0.3,0.1,0.3s0.2,0.1,0.1-0.1s-0.1-0.2-0.1-0.2s0-0.3,0-0.4S190.6,0.3,190.4,0.4 M191.4,0.4
				c0,0.2,0,0.4,0,0.6c0,0.2-0.1,0.3,0.1,0.3s0.2,0.1,0.1-0.1s0-0.2-0.1-0.2s0-0.3,0-0.4S191.6,0.3,191.4,0.4 M192.3,0.4
				c0,0.2,0,0.4,0,0.6c0,0.2-0.1,0.3,0.1,0.3s0.2,0.1,0.1-0.1s-0.1-0.2-0.1-0.2c0-0.1,0-0.3,0-0.4C192.5,0.3,192.5,0.3,192.3,0.4
				 M193.2,0.4c0,0.2,0,0.4,0,0.6c0,0.2-0.1,0.3,0.1,0.3s0.2,0.1,0.1-0.1s0-0.2-0.1-0.2c0-0.1,0-0.3,0-0.4
				C193.4,0.3,193.4,0.3,193.2,0.4 M194.2,0.4c0,0.2,0,0.4,0,0.6c0,0.2-0.1,0.3,0.1,0.3s0.2,0.1,0.1-0.1s0-0.2-0.1-0.2
				c0-0.1,0-0.3,0-0.4C194.4,0.3,194.4,0.3,194.2,0.4 M195.1,0.4c0,0.2,0,0.4,0,0.6c0,0.2-0.1,0.3,0.1,0.3s0.2,0.1,0.1-0.1
				S195,1,195,0.9s0-0.3,0-0.4s0-0.2-0.2-0.1 M195.7,0.4c0,0.2,0,0.4,0,0.6c0,0.2-0.1,0.3,0.1,0.3s0.2,0.1,0.1-0.1s-0.1-0.2-0.1-0.2
				s0-0.3,0-0.4S195.9,0.3,195.7,0.4 M196.6,0.4c0,0.2,0,0.4,0,0.6c0,0.2-0.1,0.3,0.1,0.3s0.2,0.1,0.1-0.1s-0.1-0.2-0.1-0.2
				s0-0.3,0-0.4S196.9,0.3,196.6,0.4 M197.6,0.4c0,0.2,0,0.4,0,0.6c0,0.2-0.1,0.3,0.1,0.3s0.2,0.1,0.1-0.1s0-0.2-0.1-0.2
				s0-0.3,0-0.4S197.8,0.3,197.6,0.4 M198.5,0.4c0,0.2,0,0.4,0,0.6c0,0.2-0.1,0.3,0.1,0.3s0.2,0.1,0.1-0.1c0-0.1,0-0.2-0.1-0.2
				c0-0.1,0-0.3,0-0.4C198.7,0.3,198.7,0.3,198.5,0.4 M199.4,0.4c0,0.2,0,0.4,0,0.6c0,0.2-0.1,0.3,0.1,0.3s0.2,0.1,0.1-0.1
				s0-0.2-0.1-0.2c0-0.1,0-0.3,0-0.4C199.7,0.3,199.7,0.3,199.4,0.4 M200.4,0.4c0,0.2,0,0.4,0,0.6c0,0.2-0.1,0.3,0.1,0.3
				s0.2,0.1,0.1-0.1s-0.1-0.2-0.1-0.2c0-0.1,0-0.3,0-0.4C200.6,0.3,200.6,0.3,200.4,0.4 M201.3,0.4c0,0.2,0,0.4,0,0.6
				c0,0.2-0.1,0.3,0.1,0.3s0.2,0.1,0.1-0.1s-0.1-0.2-0.1-0.2s0-0.3,0-0.4S201.5,0.3,201.3,0.4 M202.2,0.4c0,0.2,0,0.4,0,0.6
				c0,0.2-0.1,0.3,0.1,0.3s0.2,0.1,0.1-0.1s-0.1-0.2-0.1-0.2s0-0.3,0-0.4S202.4,0.3,202.2,0.4 M203.2,0.4c0,0.2,0,0.4,0,0.6
				c0,0.2-0.1,0.3,0.1,0.3s0.2,0.1,0.1-0.1s0-0.2-0.1-0.2s0-0.3,0-0.4S203.4,0.3,203.2,0.4 M204.1,0.4c0,0.2,0,0.4,0,0.6
				c0,0.2-0.1,0.3,0.1,0.3s0.2,0.1,0.1-0.1S204,1,204,0.9s0-0.3,0-0.4s0-0.2-0.2-0.1 M204.7,0.4c0,0.2,0,0.4,0,0.6
				c0,0.2-0.1,0.3,0.1,0.3s0.2,0.1,0.1-0.1c0-0.1,0-0.2-0.1-0.2c0-0.1,0-0.3,0-0.4C204.9,0.3,204.9,0.3,204.7,0.4 M205.6,0.4
				c0,0.2,0,0.4,0,0.6c0,0.2-0.1,0.3,0.1,0.3s0.2,0.1,0.1-0.1s0-0.2-0.1-0.2c0-0.1,0-0.3,0-0.4C205.9,0.3,205.9,0.3,205.6,0.4
				 M206.6,0.4c0,0.2,0,0.4,0,0.6c0,0.2-0.1,0.3,0.1,0.3s0.2,0.1,0.1-0.1s-0.1-0.2-0.1-0.2c0-0.1,0-0.3,0-0.4
				C206.8,0.3,206.8,0.3,206.6,0.4 M207.5,0.4c0,0.2,0,0.4,0,0.6c0,0.2-0.1,0.3,0.1,0.3s0.2,0.1,0.1-0.1s-0.1-0.2-0.1-0.2
				s0-0.3,0-0.4S207.7,0.3,207.5,0.4 M208.4,0.4c0,0.2,0,0.4,0,0.6c0,0.2-0.1,0.3,0.1,0.3s0.2,0.1,0.1-0.1s-0.1-0.2-0.1-0.2
				s0-0.3,0-0.4S208.7,0.3,208.4,0.4 M209.4,0.4c0,0.2,0,0.4,0,0.6c0.1,0.2-0.1,0.3,0.1,0.3s0.2,0.1,0.1-0.1s0-0.2-0.1-0.2
				s0-0.3,0-0.4S209.6,0.3,209.4,0.4 M210.3,0.4c0,0.2,0,0.4,0,0.6c0,0.2-0.1,0.3,0.1,0.3s0.2,0.1,0.1-0.1s0-0.2,0-0.2
				c0-0.1,0-0.3,0-0.4C210.6,0.3,210.6,0.3,210.3,0.4 M211.3,0.4c0,0.2,0,0.4,0,0.6c0,0.2-0.1,0.3,0.1,0.3s0.2,0.1,0.1-0.1
				c0-0.1,0-0.2-0.1-0.2c0-0.1,0-0.3,0-0.4C211.5,0.3,211.5,0.3,211.3,0.4 M212.2,0.4c0,0.2,0,0.4,0,0.6c0,0.2-0.1,0.3,0.1,0.3
				s0.2,0.1,0.1-0.1s0-0.2-0.1-0.2c0-0.1,0-0.3,0-0.4C212.4,0.3,212.4,0.3,212.2,0.4 M213.1,0.4c0,0.2,0,0.4,0,0.6
				c0,0.2-0.1,0.3,0.1,0.3s0.2,0.1,0.1-0.1S213,1,213,0.9c0-0.1,0-0.3,0-0.4c0-0.2,0-0.2-0.2-0.1 M213.7,0.4c0,0.2,0,0.4,0,0.6
				c0,0.2-0.1,0.3,0.1,0.3s0.2,0.1,0.1-0.1s-0.1-0.2-0.1-0.2s0-0.3,0-0.4S213.9,0.3,213.7,0.4 M214.6,0.4c0,0.2,0,0.4,0,0.6
				c0,0.2-0.1,0.3,0.1,0.3s0.2,0.1,0.1-0.1s-0.1-0.2-0.1-0.2s0-0.3,0-0.4S214.9,0.3,214.6,0.4 M215.6,0.4c0,0.2,0,0.4,0,0.6
				c0.1,0.2-0.1,0.3,0.1,0.3s0.2,0.1,0.1-0.1s0-0.2-0.1-0.2s0-0.3,0-0.4S215.8,0.3,215.6,0.4 M216.5,0.4c0,0.2,0,0.4,0,0.6
				c0,0.2-0.1,0.3,0.1,0.3s0.2,0.1,0.1-0.1s0-0.2,0-0.2c0-0.1,0-0.3,0-0.4C216.8,0.3,216.8,0.3,216.5,0.4 M217.5,0.4
				c0,0.2,0,0.4,0,0.6c0,0.2-0.1,0.3,0.1,0.3s0.2,0.1,0.1-0.1c0-0.1,0-0.2-0.1-0.2c0-0.1,0-0.3,0-0.4C217.7,0.3,217.7,0.3,217.5,0.4
				 M218.4,0.4c0,0.2,0,0.4,0,0.6c0,0.2-0.1,0.3,0.1,0.3s0.2,0.1,0.1-0.1s-0.1-0.2-0.1-0.2c0-0.1,0-0.3,0-0.4
				C218.6,0.3,218.6,0.3,218.4,0.4 M219.3,0.4c0,0.2,0,0.4,0,0.6c0,0.2-0.1,0.3,0.1,0.3s0.2,0.1,0.1-0.1s-0.1-0.2-0.1-0.2
				c0-0.1,0-0.3,0-0.4C219.6,0.3,219.6,0.3,219.3,0.4 M220.3,0.4c0,0.2,0,0.4,0,0.6c0,0.2-0.1,0.3,0.1,0.3s0.2,0.1,0.1-0.1
				s-0.1-0.2-0.1-0.2s0-0.3,0-0.4S220.5,0.3,220.3,0.4 M221.2,0.4c0,0.2,0,0.4,0,0.6c0.1,0.2-0.1,0.3,0.1,0.3s0.2,0.1,0.1-0.1
				s0-0.2-0.1-0.2s0-0.3,0-0.4S221.4,0.3,221.2,0.4 M222.1,0.4c0,0.2,0,0.4,0,0.6c0.1,0.2-0.1,0.3,0.1,0.3s0.2,0.1,0.1-0.1
				S222,1,222,0.9s0-0.3,0-0.4s0-0.2-0.2-0.1 M222.7,0.4c0,0.2,0,0.4,0,0.6c0,0.2-0.1,0.3,0.1,0.3s0.2,0.1,0.1-0.1s-0.1-0.2-0.1-0.2
				c0-0.1,0-0.3,0-0.4C222.9,0.3,222.9,0.3,222.7,0.4 M223.6,0.4c0,0.2,0,0.4,0,0.6c0,0.2-0.1,0.3,0.1,0.3s0.2,0.1,0.1-0.1
				s0-0.2-0.1-0.2c0-0.1,0-0.3,0-0.4C223.9,0.3,223.9,0.3,223.6,0.4 M224.6,0.4c0,0.2,0,0.4,0,0.6c0,0.2-0.1,0.3,0.1,0.3
				s0.2,0.1,0.1-0.1s-0.1-0.2-0.1-0.2c0-0.1,0-0.3,0-0.4C224.8,0.3,224.8,0.3,224.6,0.4 M225.5,0.4c0,0.2,0,0.4,0,0.6
				c0,0.2-0.1,0.3,0.1,0.3s0.2,0.1,0.1-0.1s-0.1-0.2-0.1-0.2c0-0.1,0-0.3,0-0.4C225.7,0.3,225.7,0.3,225.5,0.4 M226.4,0.4
				c0,0.2,0,0.4,0,0.6c0,0.2-0.1,0.3,0.1,0.3s0.2,0.1,0.1-0.1s-0.1-0.2-0.1-0.2s0-0.3,0-0.4S226.7,0.3,226.4,0.4 M227.4,0.4
				c0,0.2,0,0.4,0,0.6c0.1,0.2-0.1,0.3,0.1,0.3s0.2,0.1,0.1-0.1s0-0.2-0.1-0.2s0-0.3,0-0.4S227.6,0.3,227.4,0.4 M228.3,0.4
				c0,0.2,0,0.4,0,0.6c0.1,0.2-0.1,0.3,0.1,0.3s0.2,0.1,0.1-0.1s0-0.2-0.1-0.2s0-0.3,0-0.4S228.5,0.3,228.3,0.4 M229.2,0.4
				c0,0.2,0,0.4,0,0.6c0,0.2-0.1,0.3,0.1,0.3s0.2,0.1,0.1-0.1s-0.1-0.2-0.1-0.2c0-0.1,0-0.3,0-0.4C229.5,0.3,229.5,0.3,229.2,0.4
				 M230.2,0.4c0,0.2,0,0.4,0,0.6c0,0.2-0.1,0.3,0.1,0.3s0.2,0.1,0.1-0.1s-0.1-0.2-0.1-0.2c0-0.1,0-0.3,0-0.4
				C230.4,0.3,230.4,0.3,230.2,0.4 M231.1,0.4c0,0.2,0,0.4,0,0.6c0,0.2-0.1,0.3,0.1,0.3s0.2,0.1,0.1-0.1S231,1,231,0.9
				c0-0.1,0-0.3,0-0.4c0-0.2,0-0.2-0.2-0.1 M231.7,0.4c0,0.2,0,0.4,0,0.6c0,0.2-0.1,0.3,0.1,0.3s0.2,0.1,0.1-0.1s-0.1-0.2-0.1-0.2
				c0-0.1,0-0.3,0-0.4C231.9,0.3,231.9,0.3,231.7,0.4 M232.6,0.4c0,0.2,0,0.4,0,0.6c0,0.2-0.1,0.3,0.1,0.3s0.2,0.1,0.1-0.1
				s0-0.2-0.1-0.2s0-0.3,0-0.4S232.9,0.3,232.6,0.4 M233.6,0.4c0,0.2,0,0.4,0,0.6c0.1,0.2-0.1,0.3,0.1,0.3s0.2,0.1,0.1-0.1
				s0-0.2-0.1-0.2s0-0.3,0-0.4S233.8,0.3,233.6,0.4 M234.5,0.4c0,0.2,0,0.4,0,0.6c0.1,0.2-0.1,0.3,0.1,0.3s0.2,0.1,0.1-0.1
				s-0.1-0.2-0.1-0.2s0-0.3,0-0.4S234.7,0.3,234.5,0.4 M235.4,0.4c0,0.2,0,0.4,0,0.6c0,0.2-0.1,0.3,0.1,0.3s0.2,0.1,0.1-0.1
				s-0.1-0.2-0.1-0.2c0-0.1,0-0.3,0-0.4C235.7,0.3,235.7,0.3,235.4,0.4 M236.4,0.4c0,0.2,0,0.4,0,0.6c0,0.2-0.1,0.3,0.1,0.3
				s0.2,0.1,0.1-0.1s-0.1-0.2-0.1-0.2c0-0.1,0-0.3,0-0.4C236.6,0.3,236.6,0.3,236.4,0.4 M237.3,0.4c0,0.2,0,0.4,0,0.6
				c0,0.2-0.1,0.3,0.1,0.3s0.2,0.1,0.1-0.1s-0.1-0.2-0.1-0.2c0-0.1,0-0.3,0-0.4C237.5,0.3,237.5,0.3,237.3,0.4 M238.2,0.4
				c0,0.2,0,0.4,0,0.6c0,0.2-0.1,0.3,0.1,0.3s0.2,0.1,0.1-0.1s-0.1-0.2-0.1-0.2c0-0.1,0-0.3,0-0.4C238.4,0.3,238.4,0.3,238.2,0.4
				 M239.2,0.4c0,0.2,0,0.4,0,0.6c0,0.2-0.1,0.3,0.1,0.3s0.2,0.1,0.1-0.1s0-0.2-0.1-0.2s0-0.3,0-0.4S239.4,0.3,239.2,0.4 M240.1,0.4
				c0,0.2,0,0.4,0,0.6c0.1,0.2-0.1,0.3,0.1,0.3s0.2,0.1,0.1-0.1s0-0.2-0.1-0.2s0-0.3,0-0.4S240.3,0.3,240.1,0.4 M241,0.4
				c0,0.2,0,0.4,0,0.6c0.1,0.2-0.1,0.3,0.1,0.3s0.2,0.1,0.1-0.1S241,1,240.9,0.9s0-0.3,0-0.4s0-0.2-0.2-0.1 M241.7,0.4
				c0,0.2,0,0.4,0,0.6c0,0.2-0.1,0.3,0.1,0.3s0.2,0.1,0.1-0.1s-0.1-0.2-0.1-0.2c0-0.1,0-0.3,0-0.4C241.9,0.3,241.9,0.3,241.7,0.4
				 M242.6,0.4c0,0.2,0,0.4,0,0.6c0,0.2-0.1,0.3,0.1,0.3s0.2,0.1,0.1-0.1c0-0.1,0-0.2-0.1-0.2c0-0.1,0-0.3,0-0.4
				C242.8,0.3,242.8,0.3,242.6,0.4 M243.5,0.4c0,0.2,0,0.4,0,0.6c0,0.2-0.1,0.3,0.1,0.3s0.2,0.1,0.1-0.1s-0.1-0.2-0.1-0.2
				c0-0.1,0-0.3,0-0.4C243.7,0.3,243.7,0.3,243.5,0.4 M244.4,0.4c0,0.2,0,0.4,0,0.6c0,0.2-0.1,0.3,0.1,0.3s0.2,0.1,0.1-0.1
				s-0.1-0.2-0.1-0.2c0-0.1,0-0.3,0-0.4C244.7,0.3,244.7,0.3,244.4,0.4 M245.4,0.4c0,0.2,0,0.4,0,0.6c0.1,0.2-0.1,0.3,0.1,0.3
				s0.2,0.1,0.1-0.1s0-0.2-0.1-0.2s0-0.3,0-0.4S245.6,0.3,245.4,0.4 M246.3,0.4c0,0.2,0,0.4,0,0.6c0.1,0.2-0.1,0.3,0.1,0.3
				s0.2,0.1,0.1-0.1s0-0.2-0.1-0.2s0-0.3,0-0.4S246.5,0.3,246.3,0.4 M247.2,0.4c0,0.2,0,0.4,0,0.6c0.1,0.2-0.1,0.3,0.1,0.3
				s0.2,0.1,0.1-0.1s-0.1-0.2-0.1-0.2s0-0.3,0-0.4S247.5,0.3,247.2,0.4 M248.2,0.4c0,0.2,0,0.4,0,0.6c0,0.2-0.1,0.3,0.1,0.3
				s0.2,0.1,0.1-0.1s-0.1-0.2-0.1-0.2c0-0.1,0-0.3,0-0.4C248.4,0.3,248.4,0.3,248.2,0.4 M249.1,0.4c0,0.2,0,0.4,0,0.6
				c0,0.2-0.1,0.3,0.1,0.3s0.2,0.1,0.1-0.1s-0.1-0.2-0.1-0.2c0-0.1,0-0.3,0-0.4C249.3,0.3,249.3,0.3,249.1,0.4 M250.1,0.4
				c0,0.2,0,0.4,0,0.6c0,0.2-0.1,0.3,0.1,0.3s0.2,0.1,0.1-0.1S250,1,250,0.9c0-0.1,0-0.3,0-0.4c0-0.2,0-0.2-0.2-0.1 M250.7,0.4
				c0,0.2,0,0.4,0,0.6c0,0.2-0.1,0.3,0.1,0.3s0.2,0.1,0.1-0.1s0-0.2-0.1-0.2c0-0.1,0-0.3,0-0.4C250.9,0.3,250.9,0.3,250.7,0.4
				 M251.6,0.4c0,0.2,0,0.4,0,0.6c0.1,0.2-0.1,0.3,0.1,0.3s0.2,0.1,0.1-0.1s0-0.2-0.1-0.2s0-0.3,0-0.4S251.9,0.3,251.6,0.4
				 M252.6,0.4c0,0.2,0,0.4,0,0.6c0.1,0.2-0.1,0.3,0.1,0.3s0.2,0.1,0.1-0.1s-0.1-0.2-0.1-0.2s0-0.3,0-0.4S252.8,0.3,252.6,0.4
				 M253.5,0.4c0,0.2,0,0.4,0,0.6c0,0.2-0.1,0.3,0.1,0.3s0.2,0.1,0.1-0.1s-0.1-0.2-0.1-0.2s0-0.3,0-0.4S253.7,0.3,253.5,0.4
				 M254.4,0.4c0,0.2,0,0.4,0,0.6c0,0.2-0.1,0.3,0.1,0.3s0.2,0.1,0.1-0.1s-0.1-0.2-0.1-0.2c0-0.1,0-0.3,0-0.4
				C254.7,0.3,254.7,0.3,254.4,0.4 M255.4,0.4c0,0.2,0,0.4,0,0.6c0,0.2-0.1,0.3,0.1,0.3s0.2,0.1,0.1-0.1s-0.1-0.2-0.1-0.2
				c0-0.1,0-0.3,0-0.4C255.6,0.3,255.6,0.3,255.4,0.4 M256.3,0.4c0,0.2,0,0.4,0,0.6c0,0.2-0.1,0.3,0.1,0.3s0.2,0.1,0.1-0.1
				s0-0.2-0.1-0.2c0-0.1,0-0.3,0-0.4C256.5,0.3,256.5,0.3,256.3,0.4 M257.2,0.4c0,0.2,0,0.4,0,0.6c0,0.2-0.1,0.3,0.1,0.3
				s0.2,0.1,0.1-0.1s0-0.2-0.1-0.2c0-0.1,0-0.3,0-0.4C257.4,0.3,257.4,0.3,257.2,0.4 M258.2,0.4c0,0.2,0,0.4,0,0.6
				c0,0.2-0.1,0.3,0.1,0.3s0.2,0.1,0.1-0.1s0-0.2-0.1-0.2s0-0.3,0-0.4S258.4,0.3,258.2,0.4 M259.1,0.4c0,0.2,0,0.4,0,0.6
				c0,0.2-0.1,0.3,0.1,0.3s0.2,0.1,0.1-0.1S259,1,259,0.9s0-0.3,0-0.4s0-0.2-0.2-0.1 M259.7,0.4c0,0.2,0,0.4,0,0.6
				c0,0.2-0.1,0.3,0.1,0.3s0.2,0.1,0.1-0.1s0-0.2-0.1-0.2s0-0.3,0-0.4S259.9,0.3,259.7,0.4 M260.6,0.4c0,0.2,0,0.4,0,0.6
				c0,0.2-0.1,0.3,0.1,0.3s0.2,0.1,0.1-0.1s0-0.2,0-0.2c0-0.1,0-0.3,0-0.4C260.9,0.3,260.9,0.3,260.6,0.4 M261.6,0.4
				c0,0.2,0,0.4,0,0.6c0,0.2-0.1,0.3,0.1,0.3s0.2,0.1,0.1-0.1s0-0.2-0.1-0.2c0-0.1,0-0.3,0-0.4C261.8,0.3,261.8,0.3,261.6,0.4
				 M262.5,0.4c0,0.2,0,0.4,0,0.6c0,0.2-0.1,0.3,0.1,0.3s0.2,0.1,0.1-0.1s0-0.2-0.1-0.2c0-0.1,0-0.3,0-0.4
				C262.7,0.3,262.7,0.3,262.5,0.4 M263.4,0.4c0,0.2,0,0.4,0,0.6c0,0.2-0.1,0.3,0.1,0.3s0.2,0.1,0.1-0.1s0-0.2-0.1-0.2
				c0-0.1,0-0.3,0-0.4C263.7,0.3,263.7,0.3,263.4,0.4 M264.4,0.4c0,0.2,0,0.4,0,0.6c0,0.2-0.1,0.3,0.1,0.3s0.2,0.1,0.1-0.1
				s0-0.2-0.1-0.2s0-0.3,0-0.4S264.6,0.3,264.4,0.4 M265.3,0.4c0,0.2,0,0.4,0,0.6c0,0.2-0.1,0.3,0.1,0.3s0.2,0.1,0.1-0.1
				s0-0.2-0.1-0.2s0-0.3,0-0.4S265.5,0.3,265.3,0.4 M266.2,0.4c0,0.2,0,0.4,0,0.6c0,0.2-0.1,0.3,0.1,0.3s0.2,0.1,0.1-0.1
				s0-0.2-0.1-0.2s0-0.3,0-0.4S266.4,0.3,266.2,0.4 M267.2,0.4c0,0.2,0,0.4,0,0.6c0,0.2-0.1,0.3,0.1,0.3s0.2,0.1,0.1-0.1
				s0-0.2,0-0.2c0-0.1,0-0.3,0-0.4C267.4,0.3,267.4,0.3,267.2,0.4 M268.1,0.4c0,0.2,0,0.4,0,0.6c0,0.2-0.1,0.3,0.1,0.3
				s0.2,0.1,0.1-0.1S268,1,268,0.9c0-0.1,0-0.3,0-0.4c0-0.2,0-0.2-0.2-0.1 M268.7,0.4c0,0.2,0,0.4,0,0.6c0,0.2-0.1,0.3,0.1,0.3
				s0.2,0.1,0.1-0.1s0-0.2-0.1-0.2c0-0.1,0-0.3,0-0.4C268.9,0.3,268.9,0.3,268.7,0.4 M269.6,0.4c0,0.2,0,0.4,0,0.6
				c0,0.2-0.1,0.3,0.1,0.3s0.2,0.1,0.1-0.1s0-0.2-0.1-0.2s0-0.3,0-0.4S269.9,0.3,269.6,0.4 M270.6,0.4c0,0.2,0,0.4,0,0.6
				c0,0.2-0.1,0.3,0.1,0.3s0.2,0.1,0.1-0.1s0-0.2-0.1-0.2s0-0.3,0-0.4S270.8,0.3,270.6,0.4 M271.5,0.4c0,0.2,0,0.4,0,0.6
				c0,0.2-0.1,0.3,0.1,0.3s0.2,0.1,0.1-0.1s0-0.2-0.1-0.2s0-0.3,0-0.4S271.7,0.3,271.5,0.4 M272.4,0.4c0,0.2,0,0.4,0,0.6
				c0,0.2-0.1,0.3,0.1,0.3s0.2,0.1,0.1-0.1s0-0.2-0.1-0.2s0-0.3,0-0.4S272.6,0.3,272.4,0.4 M273.4,0.4c0,0.2,0,0.4,0,0.6
				c0,0.2-0.1,0.3,0.1,0.3s0.2,0.1,0.1-0.1s-0.2-0.1-0.2-0.2c0-0.1,0-0.3,0-0.4c0-0.2,0-0.2-0.2-0.1 M274.1,0.4c0,0.2,0,0.4,0,0.6
				c0,0.2-0.1,0.3,0.1,0.3s0.2,0.1,0.1-0.1s0-0.2-0.1-0.2c0-0.1,0-0.3,0-0.4C274.3,0.3,274.3,0.3,274.1,0.4 M275,0.4
				c0,0.2,0,0.4,0,0.6c0,0.2-0.1,0.3,0.1,0.3s0.2,0.1,0.1-0.1s0-0.2-0.1-0.2c0-0.1,0-0.3,0-0.4C275.3,0.3,275.3,0.3,275,0.4
				 M276,0.4c0,0.2,0,0.4,0,0.6c0,0.2-0.1,0.3,0.1,0.3s0.2,0.1,0.1-0.1s0-0.2-0.1-0.2c0-0.1,0-0.3,0-0.4
				C276.2,0.3,276.2,0.3,276,0.4 M276.9,0.4c0,0.2,0,0.4,0,0.6c0,0.2-0.1,0.3,0.1,0.3s0.2,0.1,0.1-0.1S277,1,277,0.9s0-0.3,0-0.4
				S277,0.3,276.9,0.4 M277.7,0.4c0,0.2,0,0.4,0,0.6c0,0.2-0.1,0.3,0.1,0.3s0.2,0.1,0.1-0.1s0-0.2-0.1-0.2s0-0.3,0-0.4
				S277.9,0.3,277.7,0.4 M278.6,0.4c0,0.2,0,0.4,0,0.6c0,0.2-0.1,0.3,0.1,0.3s0.2,0.1,0.1-0.1s0-0.2-0.1-0.2s0-0.3,0-0.4
				S278.9,0.3,278.6,0.4 M279.6,0.4c0,0.2,0,0.4,0,0.6c0,0.2-0.1,0.3,0.1,0.3s0.2,0.1,0.1-0.1c0-0.1,0-0.2-0.1-0.2
				c0-0.1,0-0.3,0-0.4C279.8,0.3,279.8,0.3,279.6,0.4 M280.5,0.4c0,0.2,0,0.4,0,0.6c0,0.2-0.1,0.3,0.1,0.3s0.2,0.1,0.1-0.1
				s0-0.2-0.1-0.2c0-0.1,0-0.3,0-0.4C280.7,0.3,280.7,0.3,280.5,0.4 M281.4,0.4c0,0.2,0,0.4,0,0.6c0,0.2-0.1,0.3,0.1,0.3
				s0.2,0.1,0.1-0.1s0-0.2-0.1-0.2c0-0.1,0-0.3,0-0.4C281.7,0.3,281.7,0.3,281.4,0.4 M282.4,0.4c0,0.2,0,0.4,0,0.6
				c0,0.2-0.1,0.3,0.1,0.3s0.2,0.1,0.1-0.1s0-0.2-0.1-0.2s0-0.3,0-0.4S282.6,0.3,282.4,0.4 M283.3,0.4c0,0.2,0,0.4,0,0.6
				c0,0.2-0.1,0.3,0.1,0.3s0.2,0.1,0.1-0.1s0-0.2-0.1-0.2s0-0.3,0-0.4S283.5,0.3,283.3,0.4 M284.2,0.4c0,0.2,0,0.4,0,0.6
				c0,0.2-0.1,0.3,0.1,0.3s0.2,0.1,0.1-0.1s0-0.2-0.1-0.2s0-0.3,0-0.4S284.4,0.3,284.2,0.4 M285.2,0.4c0,0.2,0,0.4,0,0.6
				c0,0.2-0.1,0.3,0.1,0.3s0.2,0.1,0.1-0.1s0-0.2-0.1-0.2s0-0.3,0-0.4S285.4,0.3,285.2,0.4 M286.1,0.4c0,0.2,0,0.4,0,0.6
				c0,0.2-0.1,0.3,0.1,0.3s0.2,0.1,0.1-0.1c-0.1-0.1-0.3-0.1-0.4-0.2c0-0.1,0-0.3,0-0.4c0-0.2,0-0.2-0.2-0.1 M286.7,0.4
				c0,0.2,0,0.4,0,0.6c0,0.2-0.1,0.3,0.1,0.3s0.2,0.1,0.1-0.1s0-0.2-0.1-0.2c0-0.1,0-0.3,0-0.4C286.9,0.3,286.9,0.3,286.7,0.4
				 M287.6,0.4c0,0.2,0,0.4,0,0.6c0,0.2-0.1,0.3,0.1,0.3s0.2,0.1,0.1-0.1s0-0.2-0.1-0.2c0-0.1,0-0.3,0-0.4
				C287.9,0.3,287.9,0.3,287.6,0.4 M288.6,0.4c0,0.2,0,0.4,0,0.6c0,0.2-0.1,0.3,0.1,0.3s0.2,0.1,0.1-0.1s0-0.2-0.1-0.2s0-0.3,0-0.4
				S288.8,0.3,288.6,0.4 M289.5,0.4c0,0.2,0,0.4,0,0.6c0,0.2-0.1,0.3,0.1,0.3s0.2,0.1,0.1-0.1s0-0.2-0.1-0.2s0-0.3,0-0.4
				S289.7,0.3,289.5,0.4 M290.4,0.4c0,0.2,0,0.4,0,0.6c0,0.2-0.1,0.3,0.1,0.3s0.2,0.1,0.1-0.1s0-0.2-0.1-0.2s0-0.3,0-0.4
				S290.6,0.3,290.4,0.4 M291.4,0.4c0,0.2,0,0.4,0,0.6c0,0.2-0.1,0.3,0.1,0.3s0.2,0.1,0.1-0.1s0-0.2-0.1-0.2s0-0.3,0-0.4
				S291.6,0.3,291.4,0.4 M292.3,0.4c0,0.2,0,0.4,0,0.6c0,0.2-0.1,0.3,0.1,0.3s0.2,0.1,0.1-0.1c0-0.1,0-0.2-0.1-0.2
				c0-0.1,0-0.3,0-0.4C292.5,0.3,292.5,0.3,292.3,0.4 M293.2,0.4c0,0.2,0,0.4,0,0.6c0,0.2-0.1,0.3,0.1,0.3s0.2,0.1,0.1-0.1
				s0-0.2-0.1-0.2c0-0.1,0-0.3,0-0.4C293.4,0.3,293.4,0.3,293.2,0.4 M294.2,0.4c0,0.2,0,0.4,0,0.6c0,0.2-0.1,0.3,0.1,0.3
				s0.2,0.1,0.1-0.1s0-0.2-0.1-0.2c0-0.1,0-0.3,0-0.4C294.4,0.3,294.4,0.3,294.2,0.4 M295.1,0.4c0,0.2,0,0.4,0,0.6
				c0,0.2-0.1,0.3,0.1,0.3s0.2,0.1,0.1-0.1S295,1,295,0.9s0-0.3,0-0.4s0-0.2-0.2-0.1 M295.7,0.4c0,0.2,0,0.4,0,0.6
				c0,0.2-0.1,0.3,0.1,0.3s0.2,0.1,0.1-0.1s0-0.2-0.1-0.2s0-0.3,0-0.4S295.9,0.3,295.7,0.4 M296.6,0.4c0,0.2,0,0.4,0,0.6
				c0,0.2-0.1,0.3,0.1,0.3s0.2,0.1,0.1-0.1s0-0.2-0.1-0.2s0-0.3,0-0.4S296.9,0.3,296.6,0.4 M297.6,0.4c0,0.2,0,0.4,0,0.6
				c0,0.2-0.1,0.3,0.1,0.3s0.2,0.1,0.1-0.1s0-0.2-0.1-0.2s0-0.3,0-0.4S297.8,0.3,297.6,0.4 M298.5,0.4c0,0.2,0,0.4,0,0.6
				c0,0.2-0.1,0.3,0.1,0.3s0.2,0.1,0.1-0.1c0-0.1,0-0.2-0.1-0.2c0-0.1,0-0.3,0-0.4C298.7,0.3,298.7,0.3,298.5,0.4 M299.4,0.4
				c0,0.2,0,0.4,0,0.6c0,0.2-0.1,0.3,0.1,0.3s0.2,0.1,0.1-0.1s0-0.2-0.1-0.2c0-0.1,0-0.3,0-0.4C299.7,0.3,299.7,0.3,299.4,0.4
				 M300.4,0.4c0,0.2,0,0.4,0,0.6c0,0.2-0.1,0.3,0.1,0.3s0.2,0.1,0.1-0.1s0-0.2-0.1-0.2c0-0.1,0-0.3,0-0.4
				C300.6,0.3,300.6,0.3,300.4,0.4 M301.3,0.4c0,0.2,0,0.4,0,0.6c0,0.2-0.1,0.3,0.1,0.3s0.2,0.1,0.1-0.1s0-0.2-0.1-0.2s0-0.3,0-0.4
				S301.5,0.3,301.3,0.4 M302.2,0.4c0,0.2,0,0.4,0,0.6c0,0.2-0.1,0.3,0.1,0.3s0.2,0.1,0.1-0.1s0-0.2-0.1-0.2s0-0.3,0-0.4
				S302.4,0.3,302.2,0.4 M303.2,0.4c0,0.2,0,0.4,0,0.6c0,0.2-0.1,0.3,0.1,0.3s0.2,0.1,0.1-0.1s0-0.2-0.1-0.2s0-0.3,0-0.4
				S303.4,0.3,303.2,0.4 M304.1,0.4c0,0.2,0,0.4,0,0.6c0,0.2-0.1,0.3,0.1,0.3s0.2,0.1,0.1-0.1S304,1,304,0.9s0-0.3,0-0.4
				s0-0.2-0.2-0.1 M304.7,0.4c0,0.2,0,0.4,0,0.6c0,0.2-0.1,0.3,0.1,0.3s0.2,0.1,0.1-0.1c0-0.1,0-0.2,0-0.2c0-0.1,0-0.3,0-0.4
				C305,0.3,305,0.3,304.7,0.4 M305.7,0.4c0,0.2,0,0.4,0,0.6c0,0.2-0.1,0.3,0.1,0.3s0.2,0.1,0.1-0.1s0-0.2-0.1-0.2
				c0-0.1,0-0.3,0-0.4C305.9,0.3,305.9,0.3,305.7,0.4 M306.6,0.4c0,0.2,0,0.4,0,0.6c0,0.2-0.1,0.3,0.1,0.3s0.2,0.1,0.1-0.1
				s0-0.2-0.1-0.2c0-0.1,0-0.3,0-0.4C306.9,0.3,306.9,0.3,306.6,0.4 M307.6,0.4c0,0.2,0,0.4,0,0.6c0,0.2-0.1,0.3,0.1,0.3
				s0.2,0.1,0.1-0.1s0-0.2-0.1-0.2s0-0.3,0-0.4S307.8,0.3,307.6,0.4 M308.5,0.4c0,0.2,0,0.4,0,0.6c0,0.2-0.1,0.3,0.1,0.3
				s0.2,0.1,0.1-0.1s0-0.2-0.1-0.2s0-0.3,0-0.4S308.7,0.3,308.5,0.4 M309.4,0.4c0,0.2,0,0.4,0,0.6c0,0.2-0.1,0.3,0.1,0.3
				s0.2,0.1,0.1-0.1s0-0.2-0.1-0.2s0-0.3,0-0.4S309.6,0.3,309.4,0.4 M310.4,0.4c0,0.2,0,0.4,0,0.6c0,0.2-0.1,0.3,0.1,0.3
				s0.2,0.1,0.1-0.1c0-0.1,0-0.2-0.1-0.2c0-0.1,0-0.3,0-0.4S310.6,0.3,310.4,0.4 M311.3,0.4c0,0.2,0,0.4,0,0.6
				c0,0.2-0.1,0.3,0.1,0.3s0.2,0.1,0.1-0.1s0-0.2-0.1-0.2c0-0.1,0-0.3,0-0.4C311.5,0.3,311.5,0.3,311.3,0.4 M312.2,0.4
				c0,0.2,0,0.4,0,0.6c0,0.2-0.1,0.3,0.1,0.3s0.2,0.1,0.1-0.1s0-0.2-0.1-0.2c0-0.1,0-0.3,0-0.4C312.4,0.3,312.4,0.3,312.2,0.4
				 M313.1,0.4c0,0.2,0,0.4,0,0.6c0,0.2-0.1,0.3,0.1,0.3s0.2,0.1,0.1-0.1s0-0.2-0.1-0.2c0-0.1,0-0.3,0-0.4
				C313.4,0.3,313.4,0.3,313.1,0.4 M314.1,0.4c0,0.2,0,0.4,0,0.6c0,0.2-0.1,0.3,0.1,0.3s0.2,0.1,0.1-0.1S314,1,314,0.9s0-0.3,0-0.4
				s0-0.2-0.2-0.1 M314.7,0.4c0,0.2,0,0.4,0,0.6c0,0.2-0.1,0.3,0.1,0.3s0.2,0.1,0.1-0.1s0-0.2-0.1-0.2s0-0.3,0-0.4
				S314.9,0.3,314.7,0.4 M315.6,0.4c0,0.2,0,0.4,0,0.6c0,0.2-0.1,0.3,0.1,0.3s0.2,0.1,0.1-0.1s0-0.2-0.1-0.2s0-0.3,0-0.4
				S315.9,0.3,315.6,0.4 M316.6,0.4c0,0.2,0,0.4,0,0.6c0,0.2-0.1,0.3,0.1,0.3s0.2,0.1,0.1-0.1c0-0.1,0-0.2-0.1-0.2
				c0-0.1,0-0.3,0-0.4S316.8,0.3,316.6,0.4 M317.5,0.4c0,0.2,0,0.4,0,0.6c0,0.2-0.1,0.3,0.1,0.3s0.2,0.1,0.1-0.1s0-0.2-0.1-0.2
				c0-0.1,0-0.3,0-0.4C317.7,0.3,317.7,0.3,317.5,0.4 M318.4,0.4c0,0.2,0,0.4,0,0.6c0,0.2-0.1,0.3,0.1,0.3s0.2,0.1,0.1-0.1
				s0-0.2-0.1-0.2c0-0.1,0-0.3,0-0.4C318.6,0.3,318.6,0.3,318.4,0.4 M319.4,0.4c0,0.2,0,0.4,0,0.6c0,0.2-0.1,0.3,0.1,0.3
				s0.2,0.1,0.1-0.1s0-0.2-0.1-0.2c0-0.1,0-0.3,0-0.4C319.6,0.3,319.6,0.3,319.4,0.4 M320.3,0.4c0,0.2,0,0.4,0,0.6
				c0,0.2-0.1,0.3,0.1,0.3s0.2,0.1,0.1-0.1s0-0.2-0.1-0.2s0-0.3,0-0.4S320.5,0.3,320.3,0.4 M321.2,0.4c0,0.2,0,0.4,0,0.6
				c0,0.2-0.1,0.3,0.1,0.3s0.2,0.1,0.1-0.1s0-0.2-0.1-0.2s0-0.3,0-0.4S321.4,0.3,321.2,0.4 M322.1,0.4c0,0.2,0,0.4,0,0.6
				c0,0.2-0.1,0.3,0.1,0.3s0.2,0.1,0.1-0.1s0-0.2-0.1-0.2s0-0.3,0-0.4S322.4,0.3,322.1,0.4 M323.1,0.4c0,0.2,0,0.4,0,0.6
				c0,0.2-0.1,0.3,0.1,0.3s0.2,0.1,0.1-0.1s0-0.2,0-0.2c0-0.1,0-0.3,0-0.4C323.4,0.3,323.4,0.3,323.1,0.4 M324.1,0.4
				c0,0.2,0,0.4,0,0.6c0,0.2-0.1,0.3,0.1,0.3s0.2,0.1,0.1-0.1c0-0.1,0-0.2-0.1-0.2c0-0.1,0-0.3,0-0.4C324.3,0.3,324.3,0.3,324.1,0.4
				 M325,0.4c0,0.2,0,0.4,0,0.6c0,0.2-0.1,0.3,0.1,0.3s0.2,0.1,0.1-0.1s0-0.2-0.1-0.2c0-0.1,0-0.3,0-0.4
				C325.2,0.3,325.2,0.3,325,0.4 M325.9,0.4c0,0.2,0,0.4,0,0.6c0,0.2-0.1,0.3,0.1,0.3s0.2,0.1,0.1-0.1s0-0.2-0.1-0.2
				c0-0.1,0-0.3,0-0.4C326.1,0.3,326.1,0.3,325.9,0.4 M326.9,0.4c0,0.2,0,0.4,0,0.6c0,0.2-0.1,0.3,0.1,0.3s0.2,0.1,0.1-0.1
				s0-0.2-0.1-0.2s0-0.3,0-0.4S327.1,0.3,326.9,0.4 M327.8,0.4c0,0.2,0,0.4,0,0.6c0,0.2-0.1,0.3,0.1,0.3s0.2,0.1,0.1-0.1
				s0-0.2-0.1-0.2s0-0.3,0-0.4S328,0.3,327.8,0.4 M328.7,0.4c0,0.2,0,0.4,0,0.6c0,0.2-0.1,0.3,0.1,0.3s0.2,0.1,0.1-0.1
				s0-0.2-0.1-0.2s0-0.3,0-0.4S328.9,0.3,328.7,0.4 M329.7,0.4c0,0.2,0,0.4,0,0.6c0,0.2-0.1,0.3,0.1,0.3s0.2,0.1,0.1-0.1
				s0-0.2,0-0.2c0-0.1,0-0.3,0-0.4C329.9,0.3,329.9,0.3,329.7,0.4 M330.6,0.4c0,0.2,0,0.4,0,0.6c0,0.2-0.1,0.3,0.1,0.3
				s0.2,0.1,0.1-0.1c0-0.1,0-0.2-0.1-0.2c0-0.1,0-0.3,0-0.4C330.9,0.3,330.9,0.3,330.6,0.4 M331.6,0.4c0,0.2,0,0.4,0,0.6
				c0,0.2-0.1,0.3,0.1,0.3s0.2,0.1,0.1-0.1s0-0.2-0.1-0.2c0-0.1,0-0.3,0-0.4C331.8,0.3,331.8,0.3,331.6,0.4 M332.5,0.4
				c0,0.2,0,0.4,0,0.6c0,0.2-0.1,0.3,0.1,0.3s0.2,0.1,0.1-0.1S332,1,332,0.9c0-0.1,0-0.3,0-0.4c0-0.2,0-0.2-0.2-0.1 M332.7,0.4
				c0,0.2,0,0.4,0,0.6c0,0.2-0.1,0.3,0.1,0.3s0.2,0.1,0.1-0.1s0-0.2-0.1-0.2s0-0.3,0-0.4S332.9,0.3,332.7,0.4 M333.6,0.4
				c0,0.2,0,0.4,0,0.6c0,0.2-0.1,0.3,0.1,0.3s0.2,0.1,0.1-0.1s0-0.2-0.1-0.2s0-0.3,0-0.4S333.9,0.3,333.6,0.4 M334.6,0.4
				c0,0.2,0,0.4,0,0.6c0,0.2-0.1,0.3,0.1,0.3s0.2,0.1,0.1-0.1s0-0.2-0.1-0.2s0-0.3,0-0.4S334.8,0.3,334.6,0.4 M335.5,0.4
				c0,0.2,0,0.4,0,0.6c0,0.2-0.1,0.3,0.1,0.3s0.2,0.1,0.1-0.1s0-0.2,0-0.2c0-0.1,0-0.3,0-0.4C335.8,0.3,335.8,0.3,335.5,0.4
				 M336.5,0.4c0,0.2,0,0.4,0,0.6c0,0.2-0.1,0.3,0.1,0.3s0.2,0.1,0.1-0.1s0-0.2-0.1-0.2c0-0.1,0-0.3,0-0.4
				C336.7,0.3,336.7,0.3,336.5,0.4 M337.4,0.4c0,0.2,0,0.4,0,0.6c0,0.2-0.1,0.3,0.1,0.3s0.2,0.1,0.1-0.1s0-0.2-0.1-0.2
				c0-0.1,0-0.3,0-0.4C337.6,0.3,337.6,0.3,337.4,0.4 M338.3,0.4c0,0.2,0,0.4,0,0.6c0,0.2-0.1,0.3,0.1,0.3s0.2,0.1,0.1-0.1
				s0-0.2-0.1-0.2c0-0.1,0-0.3,0-0.4C338.6,0.3,338.6,0.3,338.3,0.4 M339.3,0.4c0,0.2,0,0.4,0,0.6c0,0.2-0.1,0.3,0.1,0.3
				s0.2,0.1,0.1-0.1s0-0.2-0.1-0.2s0-0.3,0-0.4S339.5,0.3,339.3,0.4 M340.2,0.4c0,0.2,0,0.4,0,0.6c0,0.2-0.1,0.3,0.1,0.3
				s0.2,0.1,0.1-0.1s0-0.2-0.1-0.2s0-0.3,0-0.4S340.4,0.3,340.2,0.4 M341.1,0.4c0,0.2,0,0.4,0,0.6c0,0.2-0.1,0.3,0.1,0.3
				s0.2,0.1,0.1-0.1S341,1,341,0.9s0-0.3,0-0.4s0-0.2-0.2-0.1 M341.7,0.4c0,0.2,0,0.4,0,0.6c0,0.2-0.1,0.3,0.1,0.3s0.2,0.1,0.1-0.1
				s0-0.2,0-0.2c0-0.1,0-0.3,0-0.4C342,0.3,342,0.3,341.7,0.4 M342.7,0.4c0,0.2,0,0.4,0,0.6c0,0.2-0.1,0.3,0.1,0.3s0.2,0.1,0.1-0.1
				s0-0.2-0.1-0.2c0-0.1,0-0.3,0-0.4C342.9,0.3,342.9,0.3,342.7,0.4 M343.6,0.4c0,0.2,0,0.4,0,0.6c0,0.2-0.1,0.3,0.1,0.3
				s0.2,0.1,0.1-0.1s0-0.2-0.1-0.2c0-0.1,0-0.3,0-0.4C343.9,0.3,343.9,0.3,343.6,0.4 M344.6,0.4c0,0.2,0,0.4,0,0.6
				c0,0.2-0.1,0.3,0.1,0.3s0.2,0.1,0.1-0.1s0-0.2-0.1-0.2c0-0.1,0-0.3,0-0.4C344.8,0.3,344.8,0.3,344.6,0.4 M345.5,0.4
				c0,0.2,0,0.4,0,0.6c0,0.2-0.1,0.3,0.1,0.3s0.2,0.1,0.1-0.1s0-0.2-0.1-0.2s0-0.3,0-0.4S345.7,0.3,345.5,0.4 M346.4,0.4
				c0,0.2,0,0.4,0,0.6c0,0.2-0.1,0.3,0.1,0.3s0.2,0.1,0.1-0.1s0-0.2-0.1-0.2s0-0.3,0-0.4S346.6,0.3,346.4,0.4 M347.4,0.4
				c0,0.2,0,0.4,0,0.6c0,0.2-0.1,0.3,0.1,0.3s0.2,0.1,0.1-0.1s0-0.2-0.1-0.2s0-0.3,0-0.4S347.6,0.3,347.4,0.4 M348.3,0.4
				c0,0.2,0,0.4,0,0.6c0,0.2-0.1,0.3,0.1,0.3s0.2,0.1,0.1-0.1s0-0.2,0-0.2c0-0.1,0-0.3,0-0.4C348.6,0.3,348.6,0.3,348.3,0.4
				 M349.3,0.4c0,0.2,0,0.4,0,0.6c0,0.2-0.1,0.3,0.1,0.3s0.2,0.1,0.1-0.1s0-0.2-0.1-0.2c0-0.1,0-0.3,0-0.4
				C349.5,0.3,349.5,0.3,349.3,0.4 M350.2,0.4c0,0.2,0,0.4,0,0.6c0,0.2-0.1,0.3,0.1,0.3s0.2,0.1,0.1-0.1S350,1,350,0.9
				c0-0.1,0-0.3,0-0.4c0-0.2,0-0.2-0.2-0.1 M350.7,0.4c0,0.2,0,0.4,0,0.6c0,0.2-0.1,0.3,0.1,0.3s0.2,0.1,0.1-0.1s0-0.2-0.1-0.2
				c0-0.1,0-0.3,0-0.4C350.9,0.3,350.9,0.3,350.7,0.4 M351.6,0.4c0,0.2,0,0.4,0,0.6c0,0.2-0.1,0.3,0.1,0.3s0.2,0.1,0.1-0.1
				s0-0.2-0.1-0.2s0-0.3,0-0.4S351.9,0.3,351.6,0.4 M352.6,0.4c0,0.2,0,0.4,0,0.6c0,0.2-0.1,0.3,0.1,0.3s0.2,0.1,0.1-0.1
				s0-0.2-0.1-0.2s0-0.3,0-0.4S352.8,0.3,352.6,0.4 M353.5,0.4c0,0.2,0,0.4,0,0.6c0,0.2-0.1,0.3,0.1,0.3s0.2,0.1,0.1-0.1
				s0-0.2-0.1-0.2s0-0.3,0-0.4S353.7,0.3,353.5,0.4 M354.4,0.4c0,0.2,0,0.4,0,0.6c0,0.2-0.1,0.3,0.1,0.3s0.2,0.1,0.1-0.1
				s0-0.2,0-0.2c0-0.1,0-0.3,0-0.4C354.7,0.3,354.7,0.3,354.4,0.4 M355.4,0.4c0,0.2,0,0.4,0,0.6c0,0.2-0.1,0.3,0.1,0.3
				s0.2,0.1,0.1-0.1s0-0.2-0.1-0.2c0-0.1,0-0.3,0-0.4C355.6,0.3,355.6,0.3,355.4,0.4 M356.3,0.4c0,0.2,0,0.4,0,0.6
				c0,0.2-0.1,0.3,0.1,0.3s0.2,0.1,0.1-0.1s0-0.2-0.1-0.2c0-0.1,0-0.3,0-0.4C356.5,0.3,356.5,0.3,356.3,0.4 M357.2,0.4
				c0,0.2,0,0.4,0,0.6c0,0.2-0.1,0.3,0.1,0.3s0.2,0.1,0.1-0.1s0-0.2-0.1-0.2c0-0.1,0-0.3,0-0.4C357.4,0.3,357.4,0.3,357.2,0.4
				 M358.2,0.4c0,0.2,0,0.4,0,0.6c0,0.2-0.1,0.3,0.1,0.3s0.2,0.1,0.1-0.1s0-0.2-0.1-0.2s0-0.3,0-0.4S358.4,0.3,358.2,0.4 M359.1,0.4
				c0,0.2,0,0.4,0,0.6c0,0.2-0.1,0.3,0.1,0.3s0.2,0.1,0.1-0.1S359,1,359,0.9s0-0.3,0-0.4s0-0.2-0.2-0.1 M359.7,0.4
				c0,0.2,0,0.4,0,0.6c0,0.2-0.1,0.3,0.1,0.3s0.2,0.1,0.1-0.1s0-0.2-0.1-0.2s0-0.3,0-0.4S359.9,0.3,359.7,0.4 M360.6,0.4
				c0,0.2,0,0.4,0,0.6c0,0.2-0.1,0.3,0.1,0.3s0.2,0.1,0.1-0.1s0-0.2,0-0.2c0-0.1,0-0.3,0-0.4C360.9,0.3,360.9,0.3,360.6,0.4
				 M361.6,0.4c0,0.2,0,0.4,0,0.6c0,0.2-0.1,0.3,0.1,0.3s0.2,0.1,0.1-0.1s0-0.2-0.1-0.2c0-0.1,0-0.3,0-0.4
				C361.8,0.3,361.8,0.3,361.6,0.4 M362.5,0.4c0,0.2,0,0.4,0,0.6c0,0.2-0.1,0.3,0.1,0.3s0.2,0.1,0.1-0.1s0-0.2-0.1-0.2
				c0-0.1,0-0.3,0-0.4C362.7,0.3,362.7,0.3,362.5,0.4 M363.5,0.4c0,0.2,0,0.4,0,0.6c0,0.2-0.1,0.3,0.1,0.3s0.2,0.1,0.1-0.1
				s0-0.2-0.1-0.2s0-0.3,0-0.4S363.7,0.3,363.5,0.4 M364.4,0.4c0,0.2,0,0.4,0,0.6c0,0.2-0.1,0.3,0.1,0.3s0.2,0.1,0.1-0.1
				s0-0.2-0.1-0.2s0-0.3,0-0.4S364.6,0.3,364.4,0.4 M365.3,0.4c0,0.2,0,0.4,0,0.6c0,0.2-0.1,0.3,0.1,0.3s0.2,0.1,0.1-0.1
				s0-0.2-0.1-0.2s0-0.3,0-0.4S365.5,0.3,365.3,0.4 M366.3,0.4c0,0.2,0,0.4,0,0.6c0,0.2-0.1,0.3,0.1,0.3s0.2,0.1,0.1-0.1
				s0-0.2-0.1-0.2s0-0.3,0-0.4S366.5,0.3,366.3,0.4 M367.2,0.4c0,0.2,0,0.4,0,0.6c0,0.2-0.1,0.3,0.1,0.3s0.2,0.1,0.1-0.1
				s0-0.2,0-0.2c0-0.1,0-0.3,0-0.4C367.4,0.3,367.4,0.3,367.2,0.4 M368.1,0.4c0,0.2,0,0.4,0,0.6c0,0.2-0.1,0.3,0.1,0.3
				s0.2,0.1,0.1-0.1s0-0.2-0.1-0.2c0-0.1,0-0.3,0-0.4C368.3,0.3,368.3,0.3,368.1,0.4 M369,0.4c0,0.2,0,0.4,0,0.6
				c0,0.2-0.1,0.3,0.1,0.3s0.2,0.1,0.1-0.1S369,1,369,0.9c0-0.1,0-0.3,0-0.4c0-0.2,0-0.2-0.2-0.1 M369.7,0.4c0,0.2,0,0.4,0,0.6
				c0,0.2-0.1,0.3,0.1,0.3s0.2,0.1,0.1-0.1s0-0.2-0.1-0.2s0-0.3,0-0.4S369.9,0.3,369.7,0.4 M370.6,0.4c0,0.2,0,0.4,0,0.6
				c0,0.2-0.1,0.3,0.1,0.3s0.2,0.1,0.1-0.1s0-0.2-0.1-0.2s0-0.3,0-0.4S370.9,0.3,370.6,0.4 M371.6,0.4c0,0.2,0,0.4,0,0.6
				c0,0.2-0.1,0.3,0.1,0.3s0.2,0.1,0.1-0.1s0-0.2-0.1-0.2s0-0.3,0-0.4S371.8,0.3,371.6,0.4 M372.5,0.4c0,0.2,0,0.4,0,0.6
				c0,0.2-0.1,0.3,0.1,0.3s0.2,0.1,0.1-0.1s0-0.2-0.1-0.2s0-0.3,0-0.4S372.7,0.3,372.5,0.4 M373.4,0.4c0,0.2,0,0.4,0,0.6
				c0,0.2-0.1,0.3,0.1,0.3s0.2,0.1,0.1-0.1s0-0.2,0-0.2c0-0.1,0-0.3,0-0.4C373.7,0.3,373.7,0.3,373.4,0.4 M374.4,0.4
				c0,0.2,0,0.4,0,0.6c0,0.2-0.1,0.3,0.1,0.3s0.2,0.1,0.1-0.1s0-0.2-0.1-0.2c0-0.1,0-0.3,0-0.4C374.6,0.3,374.6,0.3,374.4,0.4
				 M375.3,0.4c0,0.2,0,0.4,0,0.6c0,0.2-0.1,0.3,0.1,0.3s0.2,0.1,0.1-0.1s0-0.2-0.1-0.2c0-0.1,0-0.3,0-0.4
				C375.5,0.3,375.5,0.3,375.3,0.4 M376.2,0.4c0,0.2,0,0.4,0,0.6c0,0.2-0.1,0.3,0.1,0.3s0.2,0.1,0.1-0.1s0-0.2-0.1-0.2s0-0.3,0-0.4
				S376.4,0.3,376.2,0.4 M377.2,0.4c0,0.2,0,0.4,0,0.6c0,0.2-0.1,0.3,0.1,0.3s0.2,0.1,0.1-0.1s0-0.2-0.1-0.2s0-0.3,0-0.4
				S377.4,0.3,377.2,0.4 M378.1,0.4c0,0.2,0,0.4,0,0.6c0,0.2-0.1,0.3,0.1,0.3s0.2,0.1,0.1-0.1S378,1,378,0.9s0-0.3,0-0.4
				s0-0.2-0.2-0.1 M378.7,0.4c0,0.2,0,0.4,0,0.6c0,0.2-0.1,0.3,0.1,0.3s0.2,0.1,0.1-0.1s0-0.2-0.1-0.2s0-0.3,0-0.4
				S378.9,0.3,378.7,0.4 M379.6,0.4c0,0.2,0,0.4,0,0.6c0,0.2-0.1,0.3,0.1,0.3s0.2,0.1,0.1-0.1s0-0.2,0-0.2c0-0.1,0-0.3,0-0.4
				C379.9,0.3,379.9,0.3,379.6,0.4 M380.6,0.4c0,0.2,0,0.4,0,0.6c0,0.2-0.1,0.3,0.1,0.3s0.2,0.1,0.1-0.1s0-0.2-0.1-0.2
				c0-0.1,0-0.3,0-0.4C380.8,0.3,380.8,0.3,380.6,0.4 M381.5,0.4c0,0.2,0,0.4,0,0.6c0,0.2-0.1,0.3,0.1,0.3s0.2,0.1,0.1-0.1
				s0-0.2-0.1-0.2c0-0.1,0-0.3,0-0.4C381.7,0.3,381.7,0.3,381.5,0.4 M382.4,0.4c0,0.2,0,0.4,0,0.6c0,0.2-0.1,0.3,0.1,0.3
				s0.2,0.1,0.1-0.1s0-0.2-0.1-0.2s0-0.3,0-0.4S382.7,0.3,382.4,0.4 M383.4,0.4c0,0.2,0,0.4,0,0.6c0,0.2-0.1,0.3,0.1,0.3
				s0.2,0.1,0.1-0.1s0-0.2-0.1-0.2s0-0.3,0-0.4S383.6,0.3,383.4,0.4 M384.3,0.4c0,0.2,0,0.4,0,0.6c0,0.2-0.1,0.3,0.1,0.3
				s0.2,0.1,0.1-0.1s0-0.2-0.1-0.2s0-0.3,0-0.4S384.5,0.3,384.3,0.4 M385.2,0.4c0,0.2,0,0.4,0,0.6c0,0.2-0.1,0.3,0.1,0.3
				s0.2,0.1,0.1-0.1s0-0.2-0.1-0.2s0-0.3,0-0.4S385.4,0.3,385.2,0.4 M386.2,0.4c0,0.2,0,0.4,0,0.6c0,0.2-0.1,0.3,0.1,0.3
				s0.2,0.1,0.1-0.1c0-0.1,0-0.2-0.1-0.2c0-0.1,0-0.3,0-0.4C386.4,0.3,386.4,0.3,386.2,0.4 M387.1,0.4c0,0.2,0,0.4,0,0.6
				c0,0.2-0.1,0.3,0.1,0.3s0.2,0.1,0.1-0.1S387,1,387,0.9c0-0.1,0-0.3,0-0.4c0-0.2,0-0.2-0.2-0.1 M387.7,0.4c0,0.2,0,0.4,0,0.6
				c0,0.2-0.1,0.3,0.1,0.3s0.2,0.1,0.1-0.1s0-0.2-0.1-0.2c0-0.1,0-0.3,0-0.4C387.9,0.3,387.9,0.3,387.7,0.4 M388.6,0.4
				c0,0.2,0,0.4,0,0.6c0,0.2-0.1,0.3,0.1,0.3s0.2,0.1,0.1-0.1s0-0.2-0.1-0.2s0-0.3,0-0.4S388.9,0.3,388.6,0.4 M389.6,0.4
				c0,0.2,0,0.4,0,0.6c0,0.2-0.1,0.3,0.1,0.3s0.2,0.1,0.1-0.1s0-0.2-0.1-0.2s0-0.3,0-0.4S389.8,0.3,389.6,0.4 M390.5,0.4
				c0,0.2,0,0.4,0,0.6c0,0.2-0.1,0.3,0.1,0.3s0.2,0.1,0.1-0.1s0-0.2-0.1-0.2s0-0.3,0-0.4S390.7,0.3,390.5,0.4 M391.4,0.4
				c0,0.2,0,0.4,0,0.6c0,0.2-0.1,0.3,0.1,0.3s0.2,0.1,0.1-0.1s0-0.2-0.1-0.2s0-0.3,0-0.4S391.6,0.3,391.4,0.4 M392.4,0.4
				c0,0.2,0,0.4,0,0.6c0,0.2-0.1,0.3,0.1,0.3s0.2,0.1,0.1-0.1s0-0.2-0.1-0.2c0-0.1,0-0.3,0-0.4C392.6,0.3,392.6,0.3,392.4,0.4
				 M393.3,0.4c0,0.2,0,0.4,0,0.6c0,0.2-0.1,0.3,0.1,0.3s0.2,0.1,0.1-0.1s0-0.2-0.1-0.2c0-0.1,0-0.3,0-0.4
				C393.5,0.3,393.5,0.3,393.3,0.4 M394.2,0.4c0,0.2,0,0.4,0,0.6c0,0.2-0.1,0.3,0.1,0.3s0.2,0.1,0.1-0.1s0-0.2-0.1-0.2
				c0-0.1,0-0.3,0-0.4C394.4,0.3,394.4,0.3,394.2,0.4 M395.2,0.4c0,0.2,0,0.4,0,0.6c0,0.2-0.1,0.3,0.1,0.3s0.2,0.1,0.1-0.1
				s0-0.2-0.1-0.2s0-0.3,0-0.4S395.4,0.3,395.2,0.4 M396.1,0.4c0,0.2,0,0.4,0,0.6c0,0.2-0.1,0.3,0.1,0.3s0.2,0.1,0.1-0.1
				S396,1,396,0.9s0-0.3,0-0.4s0-0.2-0.2-0.1 M396.7,0.4c0,0.2,0,0.4,0,0.6c0,0.2-0.1,0.3,0.1,0.3s0.2,0.1,0.1-0.1s0-0.2-0.1-0.2
				s0-0.3,0-0.4S396.9,0.3,396.7,0.4 M397.6,0.4c0,0.2,0,0.4,0,0.6c0,0.2-0.1,0.3,0.1,0.3s0.2,0.1,0.1-0.1s0-0.2-0.1-0.2
				s0-0.3,0-0.4S397.9,0.3,397.6,0.4 M398.6,0.4c0,0.2,0,0.4,0,0.6c0,0.2-0.1,0.3,0.1,0.3s0.2,0.1,0.1-0.1s0-0.2-0.1-0.2
				c0-0.1,0-0.3,0-0.4C398.8,0.3,398.8,0.3,398.6,0.4 M399.5,0.4c0,0.2,0,0.4,0,0.6c0,0.2-0.1,0.3,0.1,0.3s0.2,0.1,0.1-0.1
				s0-0.2-0.1-0.2c0-0.1,0-0.3,0-0.4C399.7,0.3,399.7,0.3,399.5,0.4 M400.4,0.4c0,0.2,0,0.4,0,0.6c0,0.2-0.1,0.3,0.1,0.3
				s0.2,0.1,0.1-0.1s0-0.2-0.1-0.2c0-0.1,0-0.3,0-0.4C400.7,0.3,400.7,0.3,400.4,0.4 M401.4,0.4c0,0.2,0,0.4,0,0.6
				c0,0.2-0.1,0.3,0.1,0.3s0.2,0.1,0.1-0.1s0-0.2-0.1-0.2s0-0.3,0-0.4S401.6,0.3,401.4,0.4 M402.3,0.4c0,0.2,0,0.4,0,0.6
				c0,0.2-0.1,0.3,0.1,0.3s0.2,0.1,0.1-0.1s0-0.2-0.1-0.2s0-0.3,0-0.4S402.5,0.3,402.3,0.4 M403.2,0.4c0,0.2,0,0.4,0,0.6
				c0,0.2-0.1,0.3,0.1,0.3s0.2,0.1,0.1-0.1s0-0.2-0.1-0.2s0-0.3,0-0.4S403.4,0.3,403.2,0.4 M404.2,0.4c0,0.2,0,0.4,0,0.6
				c0,0.2-0.1,0.3,0.1,0.3s0.2,0.1,0.1-0.1s0-0.2-0.1-0.2s0-0.3,0-0.4S404.4,0.3,404.2,0.4 M405.1,0.4c0,0.2,0,0.4,0,0.6
				c0,0.2-0.1,0.3,0.1,0.3s0.2,0.1,0.1-0.1S405,1,405,0.9c0-0.1,0-0.3,0-0.4c0-0.2,0-0.2-0.2-0.1 M405.7,0.4c0,0.2,0,0.4,0,0.6
				c0,0.2-0.1,0.3,0.1,0.3s0.2,0.1,0.1-0.1s0-0.2-0.1-0.2c0-0.1,0-0.3,0-0.4C405.9,0.3,405.9,0.3,405.7,0.4 M0.3,0.5L0.3,0.5
				c0-0.1,0-0.2-0.1-0.2l0,0l0,0l0,0l0,0l0,0L0.3,0.5z M406.6,0.4c0,0.2,0,0.4,0,0.6c0,0.1,0,0.1,0,0.2c0.1-0.2,0.1-0.4,0.2-0.6l0,0
				C406.8,0.3,406.8,0.4,406.6,0.4"/>
		</g>
	</g>
</g>
</svg>
