<?xml version="1.0" encoding="utf-8"?>
<!-- Generator: Adobe Illustrator 22.0.0, SVG Export Plug-In . SVG Version: 6.00 Build 0)  -->
<svg version="1.1" id="Слой_1" xmlns="http://www.w3.org/2000/svg" xmlns:xlink="http://www.w3.org/1999/xlink" x="0px" y="0px"
	 preserveAspectRatio="none" viewBox="0 0 407.6 3" style="enable-background:new 0 0 407.6 3;" xml:space="preserve">
<style type="text/css">
	.st0{fill:#FFEFD6;}
	.st1{fill:#7F6841;}
</style>
<title>Asset 5</title>
<g id="Слой_2">
	<rect class="st0" width="407.6" height="3"/>
</g>
<g id="Layer_2">
	<g id="Layer_1-2">
		<path class="st1" d="M0,3c0.2-0.2,0.3-0.5,0.5-0.8h406.7c0.1,0.3,0.2,0.5,0.4,0.8H0 M1,0.3h405.9c0-0.1,0-0.2,0-0.3H1l0,0
			C1,0.1,1,0.2,1,0.3 M1,0.8C1,0.9,1,1,0.9,1.2h406c0-0.1,0-0.3,0-0.4L1,0.8 M1.4,1.2c0,0.2,0,0.4,0,0.6c0,0.2-0.1,0.3,0.1,0.3
			s0.2,0,0.1-0.1s0-0.2-0.1-0.2c0-0.1,0-0.3,0-0.4C1.6,1.1,1.6,1.2,1.4,1.2 M2.3,1.2c0,0.2,0,0.4,0,0.6c0,0.2-0.1,0.3,0.1,0.3
			s0.2,0,0.2-0.1s0-0.2-0.1-0.2s0-0.3,0-0.4S2.6,1.2,2.3,1.2 M3.3,1.2c0,0.2,0,0.4,0,0.6c0,0.2-0.1,0.3,0.1,0.3s0.2,0,0.2-0.1
			s0-0.2-0.1-0.2s0-0.3,0-0.4S3.5,1.2,3.3,1.2 M4.2,1.2c0,0.2,0,0.4,0,0.6c0,0.2-0.1,0.3,0.1,0.3s0.2,0,0.2-0.1s0-0.2-0.1-0.2
			s0-0.3,0-0.4S4.4,1.2,4.2,1.2 M5.1,1.2c0,0.2,0,0.4,0,0.6c0,0.2-0.1,0.3,0.1,0.3s0.2,0,0.2-0.1S5.4,1.8,5.4,1.7s0-0.3,0-0.4
			S5.4,1.2,5.1,1.2 M6.1,1.2c0,0.2,0,0.4,0,0.6c0,0.2-0.1,0.3,0.1,0.3s0.2,0,0.2-0.1s0-0.2-0.1-0.2s0-0.3,0-0.4S6.3,1.2,6.1,1.2
			 M7,1.2c0,0.2,0,0.4,0,0.6c0,0.2-0.1,0.3,0.1,0.3S7.1,2.1,7,2s0-0.2,0-0.2c0-0.1,0-0.3,0-0.4c0-0.2,0-0.1-0.2-0.1 M7.7,1.2
			c0,0.2,0,0.4,0,0.6c0,0.2-0.1,0.3,0.1,0.3S8,2.1,7.9,2s0-0.2,0-0.2c0-0.1,0-0.3,0-0.4C7.9,1.2,7.9,1.2,7.7,1.2 M8.6,1.2
			c0,0.2,0,0.4,0,0.6c0,0.2-0.1,0.3,0.1,0.3s0.2,0,0.1-0.1S8.9,1.8,8.9,1.8c0-0.1,0-0.3,0-0.4C8.9,1.2,8.9,1.2,8.6,1.2 M9.6,1.2
			c0,0.2,0,0.4,0,0.6c0,0.2-0.1,0.3,0.1,0.3s0.2,0,0.1-0.1S9.8,1.8,9.8,1.8c0-0.1,0-0.3,0-0.4C9.8,1.2,9.8,1.2,9.6,1.2 M10.5,1.2
			c0,0.2,0,0.4,0,0.6c0,0.2-0.1,0.3,0.1,0.3s0.2,0,0.1-0.1s-0.1-0.2-0.1-0.2c0-0.1,0-0.3,0-0.4C10.7,1.2,10.7,1.2,10.5,1.2
			 M11.4,1.2c0,0.2,0,0.4,0,0.6c0,0.2-0.1,0.3,0.1,0.3s0.2,0,0.1-0.1s0-0.2-0.1-0.2c0-0.1,0-0.3,0-0.4C11.6,1.2,11.6,1.2,11.4,1.2
			 M12.4,1.2c0,0.2,0,0.4,0,0.6c0,0.2-0.1,0.3,0.1,0.3s0.2,0,0.1-0.1s0-0.2-0.1-0.2s0-0.3,0-0.4S12.6,1.2,12.4,1.2 M13.3,1.2
			c0,0.2,0,0.4,0,0.6c0,0.2-0.1,0.3,0.1,0.3s0.2,0,0.1-0.1s-0.1-0.2-0.1-0.2s0-0.3,0-0.4S13.5,1.2,13.3,1.2 M14.2,1.2
			c0,0.2,0,0.4,0,0.6c0,0.2-0.1,0.3,0.1,0.3s0.2,0,0.1-0.1s-0.1-0.2-0.1-0.2s0-0.3,0-0.4S14.4,1.2,14.2,1.2 M15.1,1.2
			c0,0.2,0,0.4,0,0.6c0.1,0.2-0.1,0.3,0.1,0.3s0.2,0,0.1-0.1s-0.1-0.2-0.1-0.2s0-0.3,0-0.4S15.4,1.2,15.1,1.2 M16.1,1.2
			c0,0.2,0,0.4,0,0.6c0,0.2-0.1,0.3,0.1,0.3s0.2,0,0.1-0.1s0-0.2-0.1-0.2s0-0.3,0-0.4S16.3,1.2,16.1,1.2 M17,1.2c0,0.2,0,0.4,0,0.6
			c0,0.2-0.1,0.3,0.1,0.3s0.2,0,0.1-0.1s0-0.2,0-0.2c0-0.1,0-0.3,0-0.4C17.2,1.2,17.2,1.2,17,1.2 M17.9,1.2c0,0.2,0,0.4,0,0.6
			c0,0.2-0.1,0.3,0.1,0.3s0.2,0,0.1-0.1c0-0.1,0-0.2-0.1-0.2c0-0.1,0-0.3,0-0.4C18.2,1.2,18.2,1.2,17.9,1.2 M18.9,1.2
			c0,0.2,0,0.4,0,0.6c0,0.2-0.1,0.3,0.1,0.3s0.2,0,0.1-0.1s0-0.2-0.1-0.2c0-0.1,0-0.3,0-0.4C19.1,1.2,19.1,1.2,18.9,1.2 M19.8,1.2
			c0,0.2,0,0.4,0,0.6c0,0.2-0.1,0.3,0.1,0.3s0.2,0,0.1-0.1s0-0.2-0.1-0.2c0-0.1,0-0.3,0-0.4C20,1.2,20,1.2,19.8,1.2 M20.7,1.2
			c0,0.2,0,0.4,0,0.6c0,0.2-0.1,0.3,0.1,0.3S21,2.2,21,2s0-0.2-0.1-0.2c0-0.1,0-0.3,0-0.4C21,1.2,21,1.2,20.7,1.2 M21.7,1.2
			c0,0.2,0,0.4,0,0.6c0,0.2-0.1,0.3,0.1,0.3s0.2,0,0.1-0.1s0-0.2-0.1-0.2s0-0.3,0-0.4S21.9,1.2,21.7,1.2 M22.6,1.2
			c0,0.2,0,0.4,0,0.6c0,0.2-0.1,0.3,0.1,0.3s0.2,0,0.1-0.1s0-0.2-0.1-0.2s0-0.3,0-0.4S22.8,1.2,22.6,1.2 M23.5,1.2
			c0,0.2,0,0.4,0,0.6c0,0.2-0.1,0.3,0.1,0.3s0.2,0,0.1-0.1s0-0.2-0.1-0.2s0-0.3,0-0.4S23.7,1.2,23.5,1.2 M24.5,1.2
			c0,0.2,0,0.4,0,0.6c0,0.2-0.1,0.3,0.1,0.3s0.2,0,0.1-0.1s0-0.2-0.1-0.2s0-0.3,0-0.4S24.7,1.2,24.5,1.2 M25.4,1.2
			c0,0.2,0,0.4,0,0.6c0,0.2-0.1,0.3,0.1,0.3s0.2,0,0.1-0.1S25,1.8,25,1.7s0-0.3,0-0.4s0-0.1-0.2-0.1 M25.7,1.2c0,0.2,0,0.4,0,0.6
			c0,0.2-0.1,0.3,0.1,0.3S26,2.1,26,2s0-0.2-0.1-0.2s0-0.3,0-0.4S25.9,1.2,25.7,1.2 M26.7,1.2c0,0.2,0,0.4,0,0.6
			c0,0.2-0.1,0.3,0.1,0.3s0.2,0,0.1-0.1s0-0.2,0-0.2c0-0.1,0-0.3,0-0.4C26.9,1.2,26.9,1.2,26.7,1.2 M27.6,1.2c0,0.2,0,0.4,0,0.6
			c0,0.2-0.1,0.3,0.1,0.3s0.2,0,0.1-0.1s0-0.2-0.1-0.2c0-0.1,0-0.3,0-0.4C27.8,1.2,27.8,1.2,27.6,1.2 M28.5,1.2c0,0.2,0,0.4,0,0.6
			c0,0.2-0.1,0.3,0.1,0.3s0.2,0,0.1-0.1s0-0.2-0.1-0.2c0-0.1,0-0.3,0-0.4C28.7,1.2,28.7,1.2,28.5,1.2 M29.4,1.2c0,0.2,0,0.4,0,0.6
			c0,0.2-0.1,0.3,0.1,0.3s0.2,0,0.1-0.1s0-0.2-0.1-0.2c0-0.1,0-0.3,0-0.4C29.7,1.2,29.7,1.2,29.4,1.2 M30.4,1.2c0,0.2,0,0.4,0,0.6
			c0,0.2-0.1,0.3,0.1,0.3s0.2,0,0.1-0.1s0-0.2-0.1-0.2c0-0.1,0-0.3,0-0.4C30.6,1.2,30.6,1.2,30.4,1.2 M31.3,1.2c0,0.2,0,0.4,0,0.6
			c0,0.2-0.1,0.3,0.1,0.3s0.2,0,0.1-0.1s0-0.2-0.1-0.2s0-0.3,0-0.4S31.5,1.2,31.3,1.2 M32.2,1.2c0,0.2,0,0.4,0,0.6
			c0,0.2-0.1,0.3,0.1,0.3s0.2,0,0.2-0.1s0-0.2-0.1-0.2s0-0.3,0-0.4S32.5,1.2,32.2,1.2 M33.2,1.2c0,0.2,0,0.4,0,0.6
			c0,0.2-0.1,0.3,0.1,0.3s0.2,0,0.2-0.1s0-0.2-0.1-0.2s0-0.3,0-0.4S33.4,1.2,33.2,1.2 M34.1,1.2c0,0.2,0,0.4,0,0.6
			c0,0.2-0.1,0.3,0.1,0.3s0.2,0,0.2-0.1S34,1.8,34,1.7s0-0.3,0-0.4s0-0.1-0.2-0.1 M34.7,1.2c0,0.2,0,0.4,0,0.6
			c0,0.2-0.1,0.3,0.1,0.3S35,2.1,35,2s0-0.2-0.1-0.2s0-0.3,0-0.4S34.9,1.2,34.7,1.2 M35.7,1.2c0,0.2,0,0.4,0,0.6
			c0,0.2-0.1,0.3,0.1,0.3s0.2,0,0.2-0.1s0-0.2-0.1-0.2s0-0.3,0-0.4S35.9,1.2,35.7,1.2 M36.6,1.2c0,0.2,0,0.4,0,0.6
			c0,0.2-0.1,0.3,0.1,0.3s0.2,0,0.2-0.1s0-0.2-0.1-0.2c0-0.1,0-0.3,0-0.4C36.8,1.2,36.8,1.2,36.6,1.2 M37.5,1.2c0,0.2,0,0.4,0,0.6
			c0,0.2-0.1,0.3,0.1,0.3s0.2,0,0.2-0.1c0-0.1,0-0.2-0.1-0.2c0-0.1,0-0.3,0-0.4C37.7,1.2,37.7,1.2,37.5,1.2 M38.5,1.2
			c0,0.2,0,0.4,0,0.6c0,0.2-0.1,0.3,0.1,0.3s0.2,0,0.2-0.1s0-0.2-0.1-0.2c0-0.1,0-0.3,0-0.4C38.7,1.2,38.7,1.2,38.5,1.2 M39.4,1.2
			c0,0.2,0,0.4,0,0.6c0,0.2-0.1,0.3,0.1,0.3s0.2,0,0.2-0.1s0-0.2-0.1-0.2c0-0.1,0-0.3,0-0.4C39.6,1.2,39.6,1.2,39.4,1.2 M40.3,1.2
			c0,0.2,0,0.4,0,0.6c0,0.2-0.1,0.3,0.1,0.3s0.2,0,0.2-0.1s0-0.2-0.1-0.2c0-0.1,0-0.3,0-0.4C40.5,1.2,40.5,1.2,40.3,1.2 M41.2,1.2
			c0,0.2,0,0.4,0,0.6c0,0.2-0.1,0.3,0.1,0.3s0.2,0,0.2-0.1s0-0.2-0.1-0.2s0-0.3,0-0.4S41.5,1.2,41.2,1.2 M42.2,1.2
			c0,0.2,0,0.4,0,0.6c0,0.2-0.1,0.3,0.1,0.3s0.2,0,0.2-0.1s0-0.2-0.1-0.2s0-0.3,0-0.4S42.4,1.2,42.2,1.2 M43.1,1.2
			c0,0.2,0,0.4,0,0.6c0,0.2-0.1,0.3,0.1,0.3s0.2,0,0.2-0.1s0-0.2-0.1-0.2s0-0.3,0-0.4S43.3,1.2,43.1,1.2 M44,1.2c0,0.2,0,0.4,0,0.6
			c0,0.2-0.1,0.3,0.1,0.3S44,2.1,44,2s0-0.2-0.1-0.2s0-0.3,0-0.4s0-0.1-0.2-0.1 M44.7,1.2c0,0.2,0,0.4,0,0.6c0,0.2-0.1,0.3,0.1,0.3
			s0.2,0,0.2-0.1s0-0.2-0.1-0.2s0-0.3,0-0.4S44.9,1.2,44.7,1.2 M45.6,1.2c0,0.2,0,0.4,0,0.6c0,0.2-0.1,0.3,0.1,0.3s0.2,0,0.1-0.1
			s0-0.2,0-0.2c0-0.1,0-0.3,0-0.4C45.8,1.2,45.8,1.2,45.6,1.2 M46.5,1.2c0,0.2,0,0.4,0,0.6c0,0.2-0.1,0.3,0.1,0.3s0.2,0,0.2-0.1
			c0-0.1,0-0.2-0.1-0.2c0-0.1,0-0.3,0-0.4C46.7,1.2,46.7,1.2,46.5,1.2 M47.5,1.2c0,0.2,0,0.4,0,0.6c0,0.2-0.1,0.3,0.1,0.3
			s0.2,0,0.2-0.1s0-0.2-0.1-0.2c0-0.1,0-0.3,0-0.4C47.7,1.2,47.7,1.2,47.5,1.2 M48.4,1.2c0,0.2,0,0.4,0,0.6c0,0.2-0.1,0.3,0.1,0.3
			s0.2,0,0.2-0.1s0-0.2-0.1-0.2c0-0.1,0-0.3,0-0.4C48.6,1.2,48.6,1.2,48.4,1.2 M49.3,1.2c0,0.2,0,0.4,0,0.6c0,0.2-0.1,0.3,0.1,0.3
			s0.2,0,0.2-0.1s0-0.2-0.1-0.2c0-0.1,0-0.3,0-0.4C49.5,1.2,49.5,1.2,49.3,1.2 M50.2,1.2c0,0.2,0,0.4,0,0.6c0,0.2-0.1,0.3,0.1,0.3
			s0.2,0,0.2-0.1s0-0.2-0.1-0.2c0-0.1,0-0.3,0-0.4C50.5,1.2,50.5,1.2,50.2,1.2 M51.2,1.2c0,0.2,0,0.4,0,0.6c0,0.2-0.1,0.3,0.1,0.3
			s0.2,0,0.2-0.1s0-0.2-0.1-0.2s0-0.3,0-0.4S51.4,1.2,51.2,1.2 M52.1,1.2c0,0.2,0,0.4,0,0.6c0,0.2-0.1,0.3,0.1,0.3s0.2,0,0.2-0.1
			s0-0.2-0.1-0.2s0-0.3,0-0.4S52.3,1.2,52.1,1.2 M53,1.2c0,0.2,0,0.4,0,0.6C53,2,53,2.1,53.2,2.1S53,2.1,53,2s0-0.2-0.1-0.2
			s0-0.3,0-0.4s0-0.1-0.2-0.1 M53.7,1.2c0,0.2,0,0.4,0,0.6c0,0.2-0.1,0.3,0.1,0.3s0.2,0,0.2-0.1s0-0.2-0.1-0.2s0-0.3,0-0.4
			S53.9,1.2,53.7,1.2 M54.6,1.2c0,0.2,0,0.4,0,0.6c0,0.2-0.1,0.3,0.1,0.3s0.2,0,0.2-0.1s0-0.2-0.1-0.2s0-0.3,0-0.4
			S54.8,1.2,54.6,1.2 M55.5,1.2c0,0.2,0,0.4,0,0.6c0,0.2-0.1,0.3,0.1,0.3s0.2,0,0.1-0.1s0-0.2,0-0.2c0-0.1,0-0.3,0-0.4
			C55.8,1.2,55.8,1.2,55.5,1.2 M56.5,1.2c0,0.2,0,0.4,0,0.6c0,0.2-0.1,0.3,0.1,0.3s0.2,0,0.2-0.1c0-0.1,0-0.2-0.1-0.2
			c0-0.1,0-0.3,0-0.4C56.7,1.2,56.7,1.2,56.5,1.2 M57.4,1.2c0,0.2,0,0.4,0,0.6c0,0.2-0.1,0.3,0.1,0.3s0.2,0,0.2-0.1s0-0.2-0.1-0.2
			c0-0.1,0-0.3,0-0.4C57.7,1.2,57.7,1.2,57.4,1.2 M58.4,1.2c0,0.2,0,0.4,0,0.6c0,0.2-0.1,0.3,0.1,0.3s0.2,0,0.2-0.1s0-0.2-0.1-0.2
			c0-0.1,0-0.3,0-0.4C58.6,1.2,58.6,1.2,58.4,1.2 M59.3,1.2c0,0.2,0,0.4,0,0.6c0,0.2-0.1,0.3,0.1,0.3s0.2,0,0.2-0.1s0-0.2-0.1-0.2
			c0-0.1,0-0.3,0-0.4C59.5,1.2,59.5,1.2,59.3,1.2 M60.2,1.2c0,0.2,0,0.4,0,0.6c0,0.2-0.1,0.3,0.1,0.3s0.2,0,0.2-0.1s0-0.2-0.1-0.2
			s0-0.3,0-0.4S60.4,1.2,60.2,1.2 M61.2,1.2c0,0.2,0,0.4,0,0.6c0,0.2-0.1,0.3,0.1,0.3s0.2,0,0.2-0.1S61,1.8,61,1.7s0-0.3,0-0.4
			s0-0.1-0.2-0.1 M61.7,1.2c0,0.2,0,0.4,0,0.6c0,0.2-0.1,0.3,0.1,0.3S62,2.1,62,2s0-0.2-0.1-0.2s0-0.3,0-0.4S61.9,1.2,61.7,1.2
			 M62.7,1.2c0,0.2,0,0.4,0,0.6c0,0.2-0.1,0.3,0.1,0.3s0.2,0,0.2-0.1s0-0.2-0.1-0.2s0-0.3,0-0.4S62.9,1.2,62.7,1.2 M63.6,1.2
			c0,0.2,0,0.4,0,0.6c0,0.2-0.1,0.3,0.1,0.3s0.2,0,0.2-0.1s0-0.2-0.1-0.2s0-0.3,0-0.4S63.8,1.2,63.6,1.2 M64.5,1.2
			c0,0.2,0,0.4,0,0.6c0,0.2-0.1,0.3,0.1,0.3s0.2,0,0.1-0.1s0-0.2,0-0.2c0-0.1,0-0.3,0-0.4C64.8,1.2,64.8,1.2,64.5,1.2 M65.5,1.2
			c0,0.2,0,0.4,0,0.6c0,0.2-0.1,0.3,0.1,0.3s0.2,0,0.2-0.1c0-0.1,0-0.2-0.1-0.2c0-0.1,0-0.3,0-0.4C65.7,1.2,65.7,1.2,65.5,1.2
			 M66.4,1.2c0,0.2,0,0.4,0,0.6c0,0.2-0.1,0.3,0.1,0.3s0.2,0,0.2-0.1s0-0.2-0.1-0.2c0-0.1,0-0.3,0-0.4C66.7,1.2,66.7,1.2,66.4,1.2
			 M67.4,1.2c0,0.2,0,0.4,0,0.6c0,0.2-0.1,0.3,0.1,0.3s0.2,0,0.2-0.1s-0.1-0.2-0.1-0.2c0-0.1,0-0.3,0-0.4
			C67.6,1.2,67.6,1.2,67.4,1.2 M68.3,1.2c0,0.2,0,0.4,0,0.6c0,0.2-0.1,0.3,0.1,0.3s0.2,0,0.2-0.1s0-0.2-0.1-0.2c0-0.1,0-0.3,0-0.4
			C68.5,1.2,68.5,1.2,68.3,1.2 M69.2,1.2c0,0.2,0,0.4,0,0.6c0,0.2-0.1,0.3,0.1,0.3s0.2,0,0.2-0.1s0-0.2-0.1-0.2c0-0.1,0-0.3,0-0.4
			C69.4,1.2,69.4,1.2,69.2,1.2 M70.2,1.2c0,0.2,0,0.4,0,0.6c0,0.2-0.1,0.3,0.1,0.3s0.2,0,0.2-0.1s0-0.2-0.1-0.2s0-0.3,0-0.4
			S70.4,1.2,70.2,1.2 M71.1,1.2c0,0.2,0,0.4,0,0.6c0,0.2-0.1,0.3,0.1,0.3S71,2.1,71,2s0-0.2-0.1-0.2s0-0.3,0-0.4s0-0.1-0.2-0.1
			 M71.7,1.2c0,0.2,0,0.4,0,0.6c0,0.2-0.1,0.3,0.1,0.3s0.2,0,0.2-0.1s-0.1-0.2-0.1-0.2s0-0.3,0-0.4S71.9,1.2,71.7,1.2 M72.6,1.2
			c0,0.2,0,0.4,0,0.6c0,0.2-0.1,0.3,0.1,0.3s0.2,0,0.2-0.1s0-0.2-0.1-0.2s0-0.3,0-0.4S72.8,1.2,72.6,1.2 M73.5,1.2
			c0,0.2,0,0.4,0,0.6c0,0.2-0.1,0.3,0.1,0.3s0.2,0,0.2-0.1s0-0.2-0.1-0.2s0-0.3,0-0.4S73.7,1.2,73.5,1.2 M74.5,1.2
			c0,0.2,0,0.4,0,0.6c0,0.2-0.1,0.3,0.1,0.3s0.2,0,0.1-0.1s0-0.2,0-0.2c0-0.1,0-0.3,0-0.4C74.7,1.2,74.7,1.2,74.5,1.2 M75.4,1.2
			c0,0.2,0,0.4,0,0.6c0,0.2-0.1,0.3,0.1,0.3s0.2,0,0.2-0.1s-0.1-0.2-0.1-0.2c0-0.1,0-0.3,0-0.4C75.7,1.2,75.7,1.2,75.4,1.2
			 M76.4,1.2c0,0.2,0,0.4,0,0.6c0,0.2-0.1,0.3,0.1,0.3s0.2,0,0.2-0.1s0-0.2-0.1-0.2c0-0.1,0-0.3,0-0.4C76.6,1.2,76.6,1.2,76.4,1.2
			 M77.3,1.2c0,0.2,0,0.4,0,0.6c0,0.2-0.1,0.3,0.1,0.3s0.2,0,0.2-0.1s0-0.2-0.1-0.2c0-0.1,0-0.3,0-0.4C77.5,1.2,77.5,1.2,77.3,1.2
			 M78.2,1.2c0,0.2,0,0.4,0,0.6c0,0.2-0.1,0.3,0.1,0.3s0.2,0,0.2-0.1s0-0.2-0.1-0.2c0-0.1,0-0.3,0-0.4C78.4,1.2,78.4,1.2,78.2,1.2
			 M79.2,1.2c0,0.2,0,0.4,0,0.6c0,0.2-0.1,0.3,0.1,0.3s0.2,0,0.2-0.1s0-0.2-0.1-0.2s0-0.3,0-0.4S79.4,1.2,79.2,1.2 M80.1,1.2
			c0,0.2,0,0.4,0,0.6c0,0.2-0.1,0.3,0.1,0.3S80,2.1,80,2s0-0.2,0-0.3s0-0.3,0-0.4s0-0.1-0.2-0.1 M80.7,1.2c0,0.2,0,0.4,0,0.6
			c0.1,0.2-0.1,0.3,0.1,0.3S81,2.1,81,2s0-0.2-0.1-0.2s0-0.3,0-0.4S80.9,1.2,80.7,1.2 M81.6,1.2c0,0.2,0,0.4,0,0.6
			c0,0.2-0.1,0.3,0.1,0.3s0.2,0,0.2-0.1s0-0.2-0.1-0.2s0-0.3,0-0.4S81.9,1.2,81.6,1.2 M82.6,1.2c0,0.2,0,0.4,0,0.6
			c0,0.2-0.1,0.3,0.1,0.3s0.2,0,0.2-0.1s0-0.2-0.1-0.2s0-0.3,0-0.4S82.8,1.2,82.6,1.2 M83.5,1.2c0,0.2,0,0.4,0,0.6
			c0,0.2-0.1,0.3,0.1,0.3s0.2,0,0.2-0.1s0-0.2-0.1-0.2s0-0.3,0-0.4S83.7,1.2,83.5,1.2 M84.4,1.2c0,0.2,0,0.4,0,0.6
			c0,0.2-0.1,0.3,0.1,0.3s0.2,0,0.1-0.1s-0.1-0.2-0.1-0.2c0-0.1,0-0.3,0-0.4C84.7,1.1,84.7,1.2,84.4,1.2 M85.4,1.2
			c0,0.2,0,0.4,0,0.6c0,0.2-0.1,0.3,0.1,0.3s0.2,0,0.2-0.1c0-0.1,0-0.2-0.1-0.2c0-0.1,0-0.3,0-0.4C85.6,1.1,85.6,1.2,85.4,1.2
			 M86.3,1.2c0,0.2,0,0.4,0,0.6c0,0.2-0.1,0.3,0.1,0.3s0.2,0,0.2-0.1s0-0.2-0.1-0.2c0-0.1,0-0.3,0-0.4C86.5,1.1,86.5,1.2,86.3,1.2
			 M87.2,1.2c0,0.2,0,0.4,0,0.6c0,0.2-0.1,0.3,0.1,0.3s0.2,0,0.2-0.1s0-0.2-0.1-0.2c0-0.1,0-0.3,0-0.4C87.5,1.1,87.5,1.2,87.2,1.2
			 M88.2,1.2c0,0.2,0,0.4,0,0.6c0,0.2-0.1,0.3,0.1,0.3s0.2,0,0.2-0.1s-0.1-0.2-0.1-0.2c0-0.1,0-0.3,0-0.4
			C88.4,1.1,88.4,1.2,88.2,1.2 M89.1,1.2c0,0.2,0,0.4,0,0.6c0,0.2-0.1,0.3,0.1,0.3S89,2.1,89,2s0-0.2-0.1-0.2s0-0.3,0-0.4
			s0-0.1-0.2-0.1 M89.7,1.2c0,0.2,0,0.4,0,0.6c0,0.2-0.1,0.3,0.1,0.3s0.2,0,0.2-0.1s0-0.2-0.1-0.2s0-0.3,0-0.4S89.9,1.2,89.7,1.2
			 M90.6,1.2c0,0.2,0,0.4,0,0.6c0,0.2-0.1,0.3,0.1,0.3s0.2,0,0.2-0.1s0-0.2-0.1-0.2s0-0.3,0-0.4S90.8,1.2,90.6,1.2 M91.5,1.2
			c0,0.2,0,0.4,0,0.6c0,0.2-0.1,0.3,0.1,0.3s0.2,0,0.2-0.1s0-0.2-0.1-0.2s0-0.3,0-0.4S91.7,1.2,91.5,1.2 M92.5,1.2
			c0,0.2,0,0.4,0,0.6c0,0.2-0.1,0.3,0.1,0.3s0.2,0,0.2-0.1s-0.1-0.2-0.1-0.2s0-0.3,0-0.4S92.7,1.2,92.5,1.2 M93.4,1.2
			c0,0.2,0,0.4,0,0.6c0,0.2-0.1,0.3,0.1,0.3s0.2,0,0.1-0.1s0-0.2-0.1-0.2s0-0.3,0-0.4S93.6,1.2,93.4,1.2 M94.3,1.2
			c0,0.2,0,0.4,0,0.6c0,0.2-0.1,0.3,0.1,0.3s0.2,0,0.1-0.1s0-0.2,0-0.2c0-0.1,0-0.3,0-0.4C94.6,1.2,94.6,1.2,94.3,1.2 M95.3,1.2
			c0,0.2,0,0.4,0,0.6c0,0.2-0.1,0.3,0.1,0.3s0.2,0,0.2-0.1c0-0.1,0-0.2-0.1-0.2c0-0.1,0-0.3,0-0.4C95.5,1.2,95.5,1.2,95.3,1.2
			 M96.2,1.2c0,0.2,0,0.4,0,0.6c0,0.2-0.1,0.3,0.1,0.3s0.2,0,0.2-0.1s0-0.2-0.1-0.2c0-0.1,0-0.3,0-0.4C96.4,1.2,96.4,1.2,96.2,1.2
			 M97.1,1.2c0,0.2,0,0.4,0,0.6c0,0.2-0.1,0.3,0.1,0.3s0.2,0,0.2-0.1s0-0.2-0.1-0.2c0-0.1,0-0.3,0-0.4C97.4,1.2,97.4,1.2,97.1,1.2
			 M98.1,1.2c0,0.2,0,0.4,0,0.6c0,0.2-0.1,0.3,0.1,0.3s0.2,0,0.2-0.1s0-0.2-0.1-0.2c0-0.1,0-0.3,0-0.4C98.3,1.2,98.3,1.2,98.1,1.2
			 M99,1.2c0,0.2,0,0.4,0,0.6c0,0.2-0.1,0.3,0.1,0.3s0.2,0,0.2-0.1s-0.1-0.2-0.1-0.2s0-0.3,0-0.4S99.2,1.2,99,1.2 M99.9,1.2
			c0,0.2,0,0.4,0,0.6c0,0.2-0.1,0.3,0.1,0.3s0.2,0,0.2-0.1s0-0.2-0.1-0.2s0-0.3,0-0.4S100.2,1.2,99.9,1.2 M100.9,1.2
			c0,0.2,0,0.4,0,0.6c0,0.2-0.1,0.3,0.1,0.3s0.2,0,0.2-0.1s0-0.2-0.1-0.2s0-0.3,0-0.4S101.1,1.2,100.9,1.2 M101.8,1.2
			c0,0.2,0,0.4,0,0.6c0.1,0.2-0.1,0.3,0.1,0.3s0.2,0,0.2-0.1s0-0.2-0.1-0.2s0-0.3,0-0.4S102,1.2,101.8,1.2 M102.7,1.2
			c0,0.2,0,0.4,0,0.6c0,0.2-0.1,0.3,0.1,0.3s0.2,0,0.2-0.1s0-0.2-0.1-0.2s0-0.3,0-0.4S102.9,1.2,102.7,1.2 M103.7,1.2
			c0,0.2,0,0.4,0,0.6c0,0.2-0.1,0.3,0.1,0.3s0.2,0,0.1-0.1s-0.1-0.2-0.1-0.2c0-0.1,0-0.3,0-0.4C103.9,1.2,103.9,1.2,103.7,1.2
			 M104.6,1.2c0,0.2,0,0.4,0,0.6c0,0.2-0.1,0.3,0.1,0.3s0.2,0,0.2-0.1c0-0.1,0-0.2-0.1-0.2c0-0.1,0-0.3,0-0.4
			C104.8,1.2,104.8,1.2,104.6,1.2 M105.5,1.2c0,0.2,0,0.4,0,0.6c0,0.2-0.1,0.3,0.1,0.3s0.2,0,0.2-0.1s0-0.2-0.1-0.2
			c0-0.1,0-0.3,0-0.4C105.7,1.2,105.7,1.2,105.5,1.2 M106.5,1.2c0,0.2,0,0.4,0,0.6c0,0.2-0.1,0.3,0.1,0.3s0.2,0,0.2-0.1
			s0-0.2-0.1-0.2c0-0.1,0-0.3,0-0.4C106.7,1.2,106.7,1.2,106.5,1.2 M107.4,1.2c0,0.2,0,0.4,0,0.6c0,0.2-0.1,0.3,0.1,0.3
			s0.2,0,0.2-0.1s-0.1-0.2-0.1-0.2c0-0.1,0-0.3,0-0.4C107.6,1.2,107.6,1.2,107.4,1.2 M108.3,1.2c0,0.2,0,0.4,0,0.6
			c0,0.2-0.1,0.3,0.1,0.3s0.2,0,0.2-0.1s0-0.2-0.1-0.2c0-0.1,0-0.3,0-0.4C108.5,1.2,108.5,1.2,108.3,1.2 M109.2,1.2
			c0,0.2,0,0.4,0,0.6c0,0.2-0.1,0.3,0.1,0.3s0.2,0,0.2-0.1s0-0.2-0.1-0.2s0-0.3,0-0.4S109.5,1.2,109.2,1.2 M110.2,1.2
			c0,0.2,0,0.4,0,0.6c0.1,0.2-0.1,0.3,0.1,0.3s0.2,0,0.2-0.1s0-0.2-0.1-0.2s0-0.3,0-0.4S110.4,1.2,110.2,1.2 M111.1,1.2
			c0,0.2,0,0.4,0,0.6c0,0.2-0.1,0.3,0.1,0.3s0.2,0,0.2-0.1s0-0.2-0.1-0.2s0-0.3,0-0.4S111.3,1.2,111.1,1.2 M112,1.2
			c0,0.2,0,0.4,0,0.6c0,0.2-0.1,0.3,0.1,0.3s0.2,0,0.2-0.1s-0.1-0.2-0.1-0.2s0-0.3,0-0.4S112.3,1.2,112,1.2 M113,1.2
			c0,0.2,0,0.4,0,0.6c0,0.2-0.1,0.3,0.1,0.3s0.2,0,0.2-0.1s0-0.2-0.1-0.2s0-0.3,0-0.4S113.2,1.2,113,1.2 M113.9,1.2
			c0,0.2,0,0.4,0,0.6c0,0.2-0.1,0.3,0.1,0.3s0.2,0,0.1-0.1s0-0.2,0-0.2c0-0.1,0-0.3,0-0.4C114.2,1.2,114.2,1.2,113.9,1.2 M114.9,1.2
			c0,0.2,0,0.4,0,0.6c0,0.2-0.1,0.3,0.1,0.3s0.2,0,0.2-0.1s0-0.2-0.1-0.2c0-0.1,0-0.3,0-0.4C115.1,1.2,115.1,1.2,114.9,1.2
			 M115.8,1.2c0,0.2,0,0.4,0,0.6c0,0.2-0.1,0.3,0.1,0.3s0.2,0,0.2-0.1S116,1.8,116,1.8c0-0.1,0-0.3,0-0.4C116,1.2,116,1.2,115.8,1.2
			 M116.7,1.2c0,0.2,0,0.4,0,0.6c0,0.2-0.1,0.3,0.1,0.3s0.2,0,0.2-0.1s0-0.2-0.1-0.2c0-0.1,0-0.3,0-0.4C117,1.2,117,1.2,116.7,1.2
			 M117.7,1.2c0,0.2,0,0.4,0,0.6c0,0.2-0.1,0.3,0.1,0.3s0.2,0,0.2-0.1s0-0.2-0.1-0.2c0-0.1,0-0.3,0-0.4
			C117.9,1.2,117.9,1.2,117.7,1.2 M118.6,1.2c0,0.2,0,0.4,0,0.6c0,0.2-0.1,0.3,0.1,0.3s0.2,0,0.2-0.1s0-0.2-0.1-0.2s0-0.3,0-0.4
			S118.8,1.2,118.6,1.2 M119.5,1.2c0,0.2,0,0.4,0,0.6c0,0.2-0.1,0.3,0.1,0.3s0.2,0,0.2-0.1s0-0.2-0.1-0.2s0-0.3,0-0.4
			S119.8,1.2,119.5,1.2 M120.5,1.2c0,0.2,0,0.4,0,0.6c0,0.2-0.1,0.3,0.1,0.3s0.2,0,0.2-0.1s-0.1-0.2-0.1-0.2s0-0.3,0-0.4
			S120.7,1.2,120.5,1.2 M121.4,1.2c0,0.2,0,0.4,0,0.6c0,0.2-0.1,0.3,0.1,0.3s0.2,0,0.2-0.1s0-0.2-0.1-0.2s0-0.3,0-0.4
			S121.6,1.2,121.4,1.2 M122.3,1.2c0,0.2,0,0.4,0,0.6c0,0.2-0.1,0.3,0.1,0.3s0.2,0,0.2-0.1s0-0.2-0.1-0.2s0-0.3,0-0.4
			S122.5,1.2,122.3,1.2 M123.3,1.2c0,0.2,0,0.4,0,0.6c0,0.2-0.1,0.3,0.1,0.3s0.2,0,0.1-0.1s0-0.2,0-0.2c0-0.1,0-0.3,0-0.4
			C123.5,1.2,123.5,1.2,123.3,1.2 M124.2,1.2c0,0.2,0,0.4,0,0.6c0,0.2-0.1,0.3,0.1,0.3s0.2,0,0.1-0.1c0-0.1,0-0.2-0.1-0.2
			c0-0.1,0-0.3,0-0.4S124.5,1.2,124.2,1.2 M125.2,1.2c0,0.2,0,0.4,0,0.6c0,0.2-0.1,0.3,0.1,0.3s0.2,0,0.2-0.1c0-0.1,0-0.2-0.1-0.2
			c0-0.1,0-0.3,0-0.4C125.4,1.2,125.4,1.2,125.2,1.2 M126.1,1.2c0,0.2,0,0.4,0,0.6c0,0.2-0.1,0.3,0.1,0.3s0.2,0,0.2-0.1
			s0-0.2-0.1-0.2c0-0.1,0-0.3,0-0.4C126.3,1.2,126.3,1.2,126.1,1.2 M127,1.2c0,0.2,0,0.4,0,0.6c0,0.2-0.1,0.3,0.1,0.3s0.2,0,0.2-0.1
			s0-0.2-0.1-0.2c0-0.1,0-0.3,0-0.4C127.3,1.2,127.3,1.2,127,1.2 M128,1.2c0,0.2,0,0.4,0,0.6c0,0.2-0.1,0.3,0.1,0.3s0.2,0,0.1-0.1
			s0-0.2-0.1-0.2c0-0.1,0-0.3,0-0.4C128.2,1.2,128.2,1.2,128,1.2 M128.9,1.2c0,0.2,0,0.4,0,0.6c0,0.2-0.1,0.3,0.1,0.3s0.2,0,0.1-0.1
			s-0.1-0.2-0.1-0.2s0-0.3,0-0.4S129.1,1.2,128.9,1.2 M129.8,1.2c0,0.2,0,0.4,0,0.6c0.1,0.2-0.1,0.3,0.1,0.3s0.2,0,0.1-0.1
			s0-0.2-0.1-0.2s0-0.3,0-0.4S130,1.2,129.8,1.2 M130.8,1.2c0,0.2,0,0.4,0,0.6c0.1,0.2-0.1,0.3,0.1,0.3s0.2,0,0.1-0.1
			S131,1.8,131,1.8s0-0.3,0-0.4S131,1.2,130.8,1.2 M131.7,1.2c0,0.2,0,0.4,0,0.6c0,0.2-0.1,0.3,0.1,0.3s0.2,0,0.1-0.1
			s-0.1-0.2-0.1-0.2s0-0.3,0-0.4S131.9,1.2,131.7,1.2 M132.6,1.2c0,0.2,0,0.4,0,0.6c0,0.2-0.1,0.3,0.1,0.3s0.2,0,0.1-0.1
			s-0.1-0.2-0.1-0.2s0-0.3,0-0.4S132.8,1.2,132.6,1.2 M133.5,1.2c0,0.2,0,0.4,0,0.6c0,0.2-0.1,0.3,0.1,0.3s0.2,0,0.1-0.1
			s0-0.2,0-0.2c0-0.1,0-0.3,0-0.4C133.8,1.2,133.8,1.2,133.5,1.2 M134.5,1.2c0,0.2,0,0.4,0,0.6c0,0.2-0.1,0.3,0.1,0.3s0.2,0,0.1-0.1
			s0-0.2-0.1-0.2c0-0.1,0-0.3,0-0.4C134.7,1.2,134.7,1.2,134.5,1.2 M135.5,1.2c0,0.2,0,0.4,0,0.6c0,0.2-0.1,0.3,0.1,0.3
			s0.2,0,0.1-0.1s0-0.2-0.1-0.2c0-0.1,0-0.3,0-0.4C135.7,1.2,135.7,1.2,135.5,1.2 M136.4,1.2c0,0.2,0,0.4,0,0.6
			c0,0.2-0.1,0.3,0.1,0.3s0.2,0,0.1-0.1s-0.1-0.2-0.1-0.2c0-0.1,0-0.3,0-0.4C136.6,1.2,136.6,1.2,136.4,1.2 M137.3,1.2
			c0,0.2,0,0.4,0,0.6c0,0.2-0.1,0.3,0.1,0.3s0.2,0,0.1-0.1s-0.1-0.2-0.1-0.2c0-0.1,0-0.3,0-0.4C137.5,1.2,137.5,1.2,137.3,1.2
			 M138.2,1.2c0,0.2,0,0.4,0,0.6c0,0.2-0.1,0.3,0.1,0.3s0.2,0,0.1-0.1s-0.1-0.2-0.1-0.2c0-0.1,0-0.3,0-0.4
			C138.5,1.2,138.5,1.2,138.2,1.2 M139.2,1.2c0,0.2,0,0.4,0,0.6c0,0.2-0.1,0.3,0.1,0.3s0.2,0,0.1-0.1s0-0.2-0.1-0.2s0-0.3,0-0.4
			S139.4,1.2,139.2,1.2 M140.1,1.2c0,0.2,0,0.4,0,0.6c0.1,0.2-0.1,0.3,0.1,0.3s0.2,0,0.1-0.1s0-0.2-0.1-0.2s0-0.3,0-0.4
			S140.3,1.2,140.1,1.2 M141,1.2c0,0.2,0,0.4,0,0.6c0.1,0.2-0.1,0.3,0.1,0.3s0.2,0,0.1-0.1s-0.1-0.2-0.1-0.2s0-0.3,0-0.4
			S141.3,1.2,141,1.2 M142,1.2c0,0.2,0,0.4,0,0.6c0,0.2-0.1,0.3,0.1,0.3s0.2,0,0.1-0.1s-0.1-0.2-0.1-0.2s0-0.3,0-0.4
			S142.2,1.2,142,1.2 M142.9,1.2c0,0.2,0,0.4,0,0.6c0,0.2-0.1,0.3,0.1,0.3s0.2,0,0.1-0.1s-0.1-0.2-0.1-0.2s0-0.3,0-0.4
			S143.1,1.2,142.9,1.2 M143.8,1.2c0,0.2,0,0.4,0,0.6c0,0.2-0.1,0.3,0.1,0.3s0.2,0,0.1-0.1s0-0.2,0-0.2c0-0.1,0-0.3,0-0.4
			C144.1,1.2,144.1,1.2,143.8,1.2 M144.8,1.2c0,0.2,0,0.4,0,0.6c0,0.2-0.1,0.3,0.1,0.3s0.2,0,0.1-0.1s-0.1-0.2-0.1-0.2
			c0-0.1,0-0.3,0-0.4C145,1.2,145,1.2,144.8,1.2 M145.8,1.2c0,0.2,0,0.4,0,0.6c0,0.2-0.1,0.3,0.1,0.3s0.2,0,0.1-0.1s0-0.2-0.1-0.2
			c0-0.1,0-0.3,0-0.4C146,1.2,146,1.2,145.8,1.2 M146.7,1.2c0,0.2,0,0.4,0,0.6c0,0.2-0.1,0.3,0.1,0.3s0.2,0,0.1-0.1s0-0.2-0.1-0.2
			c0-0.1,0-0.3,0-0.4C146.9,1.2,146.9,1.2,146.7,1.2 M147.6,1.2c0,0.2,0,0.4,0,0.6c0,0.2-0.1,0.3,0.1,0.3s0.2,0,0.1-0.1
			s-0.1-0.2-0.1-0.2c0-0.1,0-0.3,0-0.4C147.8,1.2,147.8,1.2,147.6,1.2 M148.5,1.2c0,0.2,0,0.4,0,0.6c0,0.2-0.1,0.3,0.1,0.3
			s0.2,0,0.1-0.1s-0.1-0.2-0.1-0.2s0-0.3,0-0.4S148.8,1.2,148.5,1.2 M149.5,1.2c0,0.2,0,0.4,0,0.6c0,0.2-0.1,0.3,0.1,0.3
			s0.2,0,0.1-0.1s-0.1-0.2-0.1-0.2s0-0.3,0-0.4S149.7,1.2,149.5,1.2 M150.4,1.2c0,0.2,0,0.4,0,0.6c0.1,0.2-0.1,0.3,0.1,0.3
			s0.2,0,0.1-0.1s0-0.2-0.1-0.2s0-0.3,0-0.4S150.6,1.2,150.4,1.2 M151.3,1.2c0,0.2,0,0.4,0,0.6c0.1,0.2-0.1,0.3,0.1,0.3
			s0.2,0,0.1-0.1s0-0.2-0.1-0.2s0-0.3,0-0.4S151.6,1.2,151.3,1.2 M152.3,1.2c0,0.2,0,0.4,0,0.6c0,0.2-0.1,0.3,0.1,0.3s0.2,0,0.1-0.1
			s-0.1-0.2-0.1-0.2s0-0.3,0-0.4S152.5,1.2,152.3,1.2 M153.2,1.2c0,0.2,0,0.4,0,0.6c0,0.2-0.1,0.3,0.1,0.3s0.2,0,0.1-0.1
			s-0.1-0.2-0.1-0.2s0-0.3,0-0.4S153.4,1.2,153.2,1.2 M154.1,1.2c0,0.2,0,0.4,0,0.6c0,0.2-0.1,0.3,0.1,0.3s0.2,0,0.1-0.1
			c0-0.1,0-0.2-0.1-0.2c0-0.1,0-0.3,0-0.4C154.4,1.2,154.4,1.2,154.1,1.2 M155.1,1.2c0,0.2,0,0.4,0,0.6c0,0.2-0.1,0.3,0.1,0.3
			s0.2,0,0.1-0.1c0-0.1,0-0.2-0.1-0.2c0-0.1,0-0.3,0-0.4C155.3,1.2,155.3,1.2,155.1,1.2 M156,1.2c0,0.2,0,0.4,0,0.6
			c0,0.2-0.1,0.3,0.1,0.3s0.2,0,0.1-0.1s0-0.2-0.1-0.2c0-0.1,0-0.3,0-0.4C156.2,1.2,156.2,1.2,156,1.2 M156.9,1.2c0,0.2,0,0.4,0,0.6
			c0,0.2-0.1,0.3,0.1,0.3s0.2,0,0.1-0.1s0-0.2-0.1-0.2c0-0.1,0-0.3,0-0.4C157.1,1.2,157.1,1.2,156.9,1.2 M157.9,1.2
			c0,0.2,0,0.4,0,0.6c0,0.2-0.1,0.3,0.1,0.3s0.2,0,0.1-0.1s-0.1-0.2-0.1-0.2c0-0.1,0-0.3,0-0.4C158.1,1.2,158.1,1.2,157.9,1.2
			 M158.8,1.2c0,0.2,0,0.4,0,0.6c0,0.2-0.1,0.3,0.1,0.3s0.2,0,0.1-0.1S159,1.8,159,1.8s0-0.3,0-0.4S159,1.2,158.8,1.2 M159.7,1.2
			c0,0.2,0,0.4,0,0.6c0,0.2-0.1,0.3,0.1,0.3s0.2,0,0.1-0.1s-0.1-0.2-0.1-0.2s0-0.3,0-0.4S159.9,1.2,159.7,1.2 M160.6,1.2
			c0,0.2,0,0.4,0,0.6c0,0.2-0.1,0.3,0.1,0.3s0.2,0,0.1-0.1s0-0.2-0.1-0.2s0-0.3,0-0.4S160.9,1.2,160.6,1.2 M161.6,1.2
			c0,0.2,0,0.4,0,0.6c0.1,0.2-0.1,0.3,0.1,0.3s0.2,0,0.1-0.1s0-0.2-0.1-0.2s0-0.3,0-0.4S161.8,1.2,161.6,1.2 M162.5,1.2
			c0,0.2,0,0.4,0,0.6c0,0.2-0.1,0.3,0.1,0.3s0.2,0,0.1-0.1s-0.1-0.2-0.1-0.2s0-0.3,0-0.4S162.7,1.2,162.5,1.2 M163.4,1.2
			c0,0.2,0,0.4,0,0.6c0,0.2-0.1,0.3,0.1,0.3s0.2,0,0.1-0.1s-0.1-0.2-0.1-0.2c0-0.1,0-0.3,0-0.4C163.7,1.2,163.7,1.2,163.4,1.2
			 M164.4,1.2c0,0.2,0,0.4,0,0.6c0,0.2-0.1,0.3,0.1,0.3s0.2,0,0.1-0.1s-0.1-0.2-0.1-0.2c0-0.1,0-0.3,0-0.4
			C164.6,1.2,164.6,1.2,164.4,1.2 M165.3,1.2c0,0.2,0,0.4,0,0.6c0,0.2-0.1,0.3,0.1,0.3s0.2,0,0.1-0.1s-0.1-0.2-0.1-0.2
			c0-0.1,0-0.3,0-0.4C165.5,1.2,165.5,1.2,165.3,1.2 M166.2,1.2c0,0.2,0,0.4,0,0.6c0,0.2-0.1,0.3,0.1,0.3s0.2,0,0.1-0.1
			s-0.1-0.2-0.1-0.2c0-0.1,0-0.3,0-0.4C166.5,1.2,166.5,1.2,166.2,1.2 M167.2,1.2c0,0.2,0,0.4,0,0.6c0,0.2-0.1,0.3,0.1,0.3
			s0.2,0,0.1-0.1s0-0.2-0.1-0.2c0-0.1,0-0.3,0-0.4C167.4,1.2,167.4,1.2,167.2,1.2 M168.1,1.2c0,0.2,0,0.4,0,0.6
			c0,0.2-0.1,0.3,0.1,0.3s0.2,0,0.1-0.1s0-0.2-0.1-0.2c0-0.1,0-0.3,0-0.4C168.3,1.2,168.3,1.2,168.1,1.2 M169,1.2c0,0.2,0,0.4,0,0.6
			c0,0.2-0.1,0.3,0.1,0.3s0.2,0,0.1-0.1s-0.1-0.2-0.1-0.2s0-0.3,0-0.4S169.2,1.2,169,1.2 M170,1.2c0,0.2,0,0.4,0,0.6
			c0,0.2-0.1,0.3,0.1,0.3s0.2,0,0.1-0.1s-0.1-0.2-0.1-0.2s0-0.3,0-0.4S170.2,1.2,170,1.2 M170.9,1.2c0,0.2,0,0.4,0,0.6
			c0,0.2-0.1,0.3,0.1,0.3s0.2,0,0.1-0.1s-0.1-0.2-0.1-0.2s0-0.3,0-0.4S171.1,1.2,170.9,1.2 M171.8,1.2c0,0.2,0,0.4,0,0.6
			c0.1,0.2-0.1,0.3,0.1,0.3s0.2,0,0.1-0.1s0-0.2-0.1-0.2s0-0.3,0-0.4S172,1.2,171.8,1.2 M172.8,1.2c0,0.2,0,0.4,0,0.6
			c0,0.2-0.1,0.3,0.1,0.3s0.2,0,0.1-0.1s0-0.2-0.1-0.2s0-0.3,0-0.4S173,1.2,172.8,1.2 M173.7,1.2c0,0.2,0,0.4,0,0.6
			c0,0.2-0.1,0.3,0.1,0.3s0.2,0,0.1-0.1s-0.1-0.2-0.1-0.2c0-0.1,0-0.3,0-0.4C173.9,1.2,173.9,1.2,173.7,1.2 M174.6,1.2
			c0,0.2,0,0.4,0,0.6c0,0.2-0.1,0.3,0.1,0.3s0.2,0,0.1-0.1s0-0.2-0.1-0.2c0-0.1,0-0.3,0-0.4C174.8,1.2,174.8,1.2,174.6,1.2
			 M175.5,1.2c0,0.2,0,0.4,0,0.6c0,0.2-0.1,0.3,0.1,0.3s0.2,0,0.1-0.1s-0.1-0.2-0.1-0.2c0-0.1,0-0.3,0-0.4
			C175.8,1.2,175.8,1.2,175.5,1.2 M176.5,1.2c0,0.2,0,0.4,0,0.6c0,0.2-0.1,0.3,0.1,0.3s0.2,0,0.1-0.1s-0.1-0.2-0.1-0.2
			c0-0.1,0-0.3,0-0.4C176.7,1.2,176.7,1.2,176.5,1.2 M177.4,1.2c0,0.2,0,0.4,0,0.6c0,0.2-0.1,0.3,0.1,0.3s0.2,0,0.1-0.1
			s-0.1-0.2-0.1-0.2c0-0.1,0-0.3,0-0.4C177.6,1.2,177.6,1.2,177.4,1.2 M178.3,1.2c0,0.2,0,0.4,0,0.6c0,0.2-0.1,0.3,0.1,0.3
			s0.2,0,0.1-0.1s0-0.2-0.1-0.2s0-0.3,0-0.4S178.6,1.2,178.3,1.2 M179.3,1.2c0,0.2,0,0.4,0,0.6c0.1,0.2-0.1,0.3,0.1,0.3
			s0.2,0,0.1-0.1s0-0.2-0.1-0.2s0-0.3,0-0.4S179.5,1.2,179.3,1.2 M180.2,1.2c0,0.2,0,0.4,0,0.6c0.1,0.2-0.1,0.3,0.1,0.3
			s0.2,0,0.1-0.1s-0.1-0.2-0.1-0.2s0-0.3,0-0.4S180.4,1.2,180.2,1.2 M181.1,1.2c0,0.2,0,0.4,0,0.6c0,0.2-0.1,0.3,0.1,0.3
			s0.2,0,0.1-0.1s-0.1-0.2-0.1-0.2s0-0.3,0-0.4S181.3,1.2,181.1,1.2 M182.1,1.2c0,0.2,0,0.4,0,0.6c0,0.2-0.1,0.3,0.1,0.3
			s0.2,0,0.1-0.1s-0.1-0.2-0.1-0.2s0-0.3,0-0.4S182.3,1.2,182.1,1.2 M183,1.2c0,0.2,0,0.4,0,0.6c0,0.2-0.1,0.3,0.1,0.3
			s0.2,0,0.1-0.1s0-0.2-0.1-0.2s0-0.3,0-0.4S183.2,1.2,183,1.2 M183.9,1.2c0,0.2,0,0.4,0,0.6c0,0.2-0.1,0.3,0.1,0.3s0.2,0,0.1-0.1
			c0-0.1,0-0.2-0.1-0.2c0-0.1,0-0.3,0-0.4C184.1,1.2,184.1,1.2,183.9,1.2 M184.9,1.2c0,0.2,0,0.4,0,0.6c0,0.2-0.1,0.3,0.1,0.3
			s0.2,0,0.1-0.1s0-0.2-0.1-0.2c0-0.1,0-0.3,0-0.4C185.1,1.2,185.1,1.2,184.9,1.2 M185.8,1.2c0,0.2,0,0.4,0,0.6
			c0,0.2-0.1,0.3,0.1,0.3s0.2,0,0.1-0.1S186,1.8,186,1.8c0-0.1,0-0.3,0-0.4C186,1.2,186,1.2,185.8,1.2 M186.7,1.2c0,0.2,0,0.4,0,0.6
			c0,0.2-0.1,0.3,0.1,0.3s0.2,0,0.1-0.1s-0.1-0.2-0.1-0.2c0-0.1,0-0.3,0-0.4C186.9,1.2,186.9,1.2,186.7,1.2 M187.6,1.2
			c0,0.2,0,0.4,0,0.6c0,0.2-0.1,0.3,0.1,0.3s0.2,0,0.1-0.1s-0.1-0.2-0.1-0.2c0-0.1,0-0.3,0-0.4C187.9,1.2,187.9,1.2,187.6,1.2
			 M188.6,1.2c0,0.2,0,0.4,0,0.6c0,0.2-0.1,0.3,0.1,0.3s0.2,0,0.1-0.1s0-0.2-0.1-0.2s0-0.3,0-0.4S188.8,1.2,188.6,1.2 M189.5,1.2
			c0,0.2,0,0.4,0,0.6c0.1,0.2-0.1,0.3,0.1,0.3s0.2,0,0.1-0.1s0-0.2-0.1-0.2s0-0.3,0-0.4S189.7,1.2,189.5,1.2 M190.4,1.2
			c0,0.2,0,0.4,0,0.6c0.1,0.2-0.1,0.3,0.1,0.3s0.2,0,0.1-0.1s-0.1-0.2-0.1-0.2s0-0.3,0-0.4S190.7,1.2,190.4,1.2 M191.4,1.2
			c0,0.2,0,0.4,0,0.6c0,0.2-0.1,0.3,0.1,0.3s0.2,0,0.1-0.1s-0.1-0.2-0.1-0.2s0-0.3,0-0.4S191.6,1.2,191.4,1.2 M192.3,1.2
			c0,0.2,0,0.4,0,0.6c0,0.2-0.1,0.3,0.1,0.3s0.2,0,0.1-0.1s-0.1-0.2-0.1-0.2s0-0.3,0-0.4S192.5,1.2,192.3,1.2 M193.2,1.2
			c0,0.2,0,0.4,0,0.6c0,0.2-0.1,0.3,0.1,0.3s0.2,0,0.1-0.1s0-0.2,0-0.2c0-0.1,0-0.3,0-0.4C193.5,1.2,193.5,1.2,193.2,1.2 M194.2,1.2
			c0,0.2,0,0.4,0,0.6c0,0.2-0.1,0.3,0.1,0.3s0.2,0,0.1-0.1c0-0.1,0-0.2-0.1-0.2c0-0.1,0-0.3,0-0.4C194.4,1.2,194.4,1.2,194.2,1.2
			 M195.1,1.2c0,0.2,0,0.4,0,0.6c0,0.2-0.1,0.3,0.1,0.3s0.2,0,0.1-0.1c0-0.1,0-0.2-0.1-0.2c0-0.1,0-0.3,0-0.4
			C195.4,1.2,195.4,1.2,195.1,1.2 M196.1,1.2c0,0.2,0,0.4,0,0.6c0,0.2-0.1,0.3,0.1,0.3s0.2,0,0.1-0.1s0-0.2-0.1-0.2
			c0-0.1,0-0.3,0-0.4C196.3,1.2,196.3,1.2,196.1,1.2 M197,1.2c0,0.2,0,0.4,0,0.6c0,0.2-0.1,0.3,0.1,0.3s0.2,0,0.1-0.1
			s-0.1-0.2-0.1-0.2c0-0.1,0-0.3,0-0.4C197.2,1.2,197.2,1.2,197,1.2 M197.9,1.2c0,0.2,0,0.4,0,0.6c0,0.2-0.1,0.3,0.1,0.3
			s0.2,0,0.1-0.1s-0.1-0.2-0.1-0.2c0-0.1,0-0.3,0-0.4C198.2,1.2,198.2,1.2,197.9,1.2 M198.9,1.2c0,0.2,0,0.4,0,0.6
			c0,0.2-0.1,0.3,0.1,0.3s0.2,0,0.1-0.1s-0.1-0.2-0.1-0.2s0-0.3,0-0.4S199.1,1.2,198.9,1.2 M199.8,1.2c0,0.2,0,0.4,0,0.6
			c0.1,0.2-0.1,0.3,0.1,0.3s0.2,0,0.1-0.1s0-0.2-0.1-0.2s0-0.3,0-0.4S200,1.2,199.8,1.2 M200.7,1.2c0,0.2,0,0.4,0,0.6
			c0.1,0.2-0.1,0.3,0.1,0.3s0.2,0,0.1-0.1s0-0.2-0.1-0.2s0-0.3,0-0.4S200.9,1.2,200.7,1.2 M201.7,1.2c0,0.2,0,0.4,0,0.6
			c0.1,0.2-0.1,0.3,0.1,0.3s0.2,0,0.1-0.1s-0.1-0.2-0.1-0.2s0-0.3,0-0.4S201.9,1.2,201.7,1.2 M202.6,1.2c0,0.2,0,0.4,0,0.6
			c0,0.2-0.1,0.3,0.1,0.3s0.2,0,0.1-0.1s-0.1-0.2-0.1-0.2s0-0.3,0-0.4S202.8,1.2,202.6,1.2 M203.5,1.2c0,0.2,0,0.4,0,0.6
			c0,0.2-0.1,0.3,0.1,0.3s0.2,0,0.1-0.1s-0.1-0.2-0.1-0.2c0-0.1,0-0.3,0-0.4C203.7,1.2,203.7,1.2,203.5,1.2 M204.5,1.2
			c0,0.2,0,0.4,0,0.6c0,0.2-0.1,0.3,0.1,0.3s0.2,0,0.1-0.1s-0.1-0.2-0.1-0.2c0-0.1,0-0.3,0-0.4C204.7,1.2,204.7,1.2,204.5,1.2
			 M205.4,1.2c0,0.2,0,0.4,0,0.6c0,0.2-0.1,0.3,0.1,0.3s0.2,0,0.1-0.1s0-0.2-0.1-0.2c0-0.1,0-0.3,0-0.4
			C205.6,1.2,205.6,1.2,205.4,1.2 M206.3,1.2c0,0.2,0,0.4,0,0.6c0,0.2-0.1,0.3,0.1,0.3s0.2,0,0.1-0.1s0-0.2-0.1-0.2
			c0-0.1,0-0.3,0-0.4C206.5,1.2,206.5,1.2,206.3,1.2 M207.2,1.2c0,0.2,0,0.4,0,0.6c0,0.2-0.1,0.3,0.1,0.3s0.2,0,0.1-0.1
			s-0.1-0.2-0.1-0.2c0-0.1,0-0.3,0-0.4C207.5,1.2,207.5,1.2,207.2,1.2 M208.2,1.2c0,0.2,0,0.4,0,0.6c0,0.2-0.1,0.3,0.1,0.3
			s0.2,0,0.1-0.1s-0.1-0.2-0.1-0.2c0-0.1,0-0.3,0-0.4C208.4,1.2,208.4,1.2,208.2,1.2 M209.1,1.2c0,0.2,0,0.4,0,0.6
			c0,0.2-0.1,0.3,0.1,0.3s0.2,0,0.1-0.1s-0.1-0.2-0.1-0.2s0-0.3,0-0.4S209.3,1.2,209.1,1.2 M210,1.2c0,0.2,0,0.4,0,0.6
			c0,0.2-0.1,0.3,0.1,0.3s0.2,0,0.1-0.1s0-0.2-0.1-0.2s0-0.3,0-0.4S210.3,1.2,210,1.2 M211,1.2c0,0.2,0,0.4,0,0.6
			c0.1,0.2-0.1,0.3,0.1,0.3s0.2,0,0.1-0.1s0-0.2-0.1-0.2s0-0.3,0-0.4S211.2,1.2,211,1.2 M211.9,1.2c0,0.2,0,0.4,0,0.6
			c0.1,0.2-0.1,0.3,0.1,0.3s0.2,0,0.1-0.1s-0.1-0.2-0.1-0.2s0-0.3,0-0.4S212.1,1.2,211.9,1.2 M212.8,1.2c0,0.2,0,0.4,0,0.6
			c0,0.2-0.1,0.3,0.1,0.3s0.2,0,0.1-0.1s-0.1-0.2-0.1-0.2s0-0.3,0-0.4S213,1.2,212.8,1.2 M213.8,1.2c0,0.2,0,0.4,0,0.6
			c0,0.2-0.1,0.3,0.1,0.3s0.2,0,0.1-0.1S214,1.8,214,1.8c0-0.1,0-0.3,0-0.4C214,1.2,214,1.2,213.8,1.2 M214.7,1.2c0,0.2,0,0.4,0,0.6
			c0,0.2-0.1,0.3,0.1,0.3s0.2,0,0.1-0.1c0-0.1,0-0.2-0.1-0.2c0-0.1,0-0.3,0-0.4C214.9,1.2,214.9,1.2,214.7,1.2 M215.6,1.2
			c0,0.2,0,0.4,0,0.6c0,0.2-0.1,0.3,0.1,0.3s0.2,0,0.1-0.1s-0.1-0.2-0.1-0.2c0-0.1,0-0.3,0-0.4C215.8,1.2,215.8,1.2,215.6,1.2
			 M216.6,1.2c0,0.2,0,0.4,0,0.6c0,0.2-0.1,0.3,0.1,0.3s0.2,0,0.1-0.1s0-0.2-0.1-0.2c0-0.1,0-0.3,0-0.4
			C216.8,1.2,216.8,1.2,216.6,1.2 M217.5,1.2c0,0.2,0,0.4,0,0.6c0,0.2-0.1,0.3,0.1,0.3s0.2,0,0.1-0.1s0-0.2-0.1-0.2
			c0-0.1,0-0.3,0-0.4C217.7,1.2,217.7,1.2,217.5,1.2 M218.4,1.2c0,0.2,0,0.4,0,0.6c0,0.2-0.1,0.3,0.1,0.3s0.2,0,0.1-0.1
			s-0.1-0.2-0.1-0.2s0-0.3,0-0.4S218.6,1.2,218.4,1.2 M219.3,1.2c0,0.2,0,0.4,0,0.6c0,0.2-0.1,0.3,0.1,0.3s0.2,0,0.1-0.1
			s-0.1-0.2-0.1-0.2s0-0.3,0-0.4S219.6,1.2,219.3,1.2 M220.3,1.2c0,0.2,0,0.4,0,0.6c0,0.2-0.1,0.3,0.1,0.3s0.2,0,0.1-0.1
			s-0.1-0.2-0.1-0.2s0-0.3,0-0.4S220.5,1.2,220.3,1.2 M221.2,1.2c0,0.2,0,0.4,0,0.6c0.1,0.2-0.1,0.3,0.1,0.3s0.2,0,0.1-0.1
			s0-0.2-0.1-0.2s0-0.3,0-0.4S221.4,1.2,221.2,1.2 M222.1,1.2c0,0.2,0,0.4,0,0.6c0.1,0.2-0.1,0.3,0.1,0.3s0.2,0,0.1-0.1
			s0-0.2-0.1-0.2s0-0.3,0-0.4S222.4,1.2,222.1,1.2 M223.1,1.2c0,0.2,0,0.4,0,0.6c0,0.2-0.1,0.3,0.1,0.3s0.2,0,0.1-0.1
			s-0.1-0.2-0.1-0.2c0-0.1,0-0.3,0-0.4C223.3,1.2,223.3,1.2,223.1,1.2 M224,1.2c0,0.2,0,0.4,0,0.6c0,0.2-0.1,0.3,0.1,0.3
			s0.2,0,0.1-0.1s-0.1-0.2-0.1-0.2c0-0.1,0-0.3,0-0.4C224.2,1.2,224.2,1.2,224,1.2 M224.9,1.2c0,0.2,0,0.4,0,0.6
			c0,0.2-0.1,0.3,0.1,0.3s0.2,0,0.1-0.1s-0.1-0.2-0.1-0.2c0-0.1,0-0.3,0-0.4C225.2,1.2,225.2,1.2,224.9,1.2 M225.9,1.2
			c0,0.2,0,0.4,0,0.6c0,0.2-0.1,0.3,0.1,0.3s0.2,0,0.1-0.1s-0.1-0.2-0.1-0.2c0-0.1,0-0.3,0-0.4C226.1,1.2,226.1,1.2,225.9,1.2
			 M226.8,1.2c0,0.2,0,0.4,0,0.6c0,0.2-0.1,0.3,0.1,0.3s0.2,0,0.1-0.1S227,1.8,227,1.8c0-0.1,0-0.3,0-0.4C227,1.2,227,1.2,226.8,1.2
			 M227.7,1.2c0,0.2,0,0.4,0,0.6c0,0.2-0.1,0.3,0.1,0.3s0.2,0,0.1-0.1s0-0.2-0.1-0.2c0-0.1,0-0.3,0-0.4C228,1.2,228,1.2,227.7,1.2
			 M228.7,1.2c0,0.2,0,0.4,0,0.6c0,0.2-0.1,0.3,0.1,0.3s0.2,0,0.1-0.1s0-0.2-0.1-0.2s0-0.3,0-0.4S228.9,1.2,228.7,1.2 M229.6,1.2
			c0,0.2,0,0.4,0,0.6c0.1,0.2-0.1,0.3,0.1,0.3s0.2,0,0.1-0.1s-0.1-0.2-0.1-0.2s0-0.3,0-0.4S229.8,1.2,229.6,1.2 M230.5,1.2
			c0,0.2,0,0.4,0,0.6c0,0.2-0.1,0.3,0.1,0.3s0.2,0,0.1-0.1s-0.1-0.2-0.1-0.2s0-0.3,0-0.4S230.7,1.2,230.5,1.2 M231.5,1.2
			c0,0.2,0,0.4,0,0.6c0,0.2-0.1,0.3,0.1,0.3s0.2,0,0.1-0.1s-0.1-0.2-0.1-0.2s0-0.3,0-0.4S231.7,1.2,231.5,1.2 M232.4,1.2
			c0,0.2,0,0.4,0,0.6c0,0.2-0.1,0.3,0.1,0.3s0.2,0,0.1-0.1s0-0.2-0.1-0.2s0-0.3,0-0.4S232.6,1.2,232.4,1.2 M233.3,1.2
			c0,0.2,0,0.4,0,0.6c0,0.2-0.1,0.3,0.1,0.3s0.2,0,0.1-0.1s0-0.2,0-0.2c0-0.1,0-0.3,0-0.4C233.6,1.2,233.6,1.2,233.3,1.2 M234.3,1.2
			c0,0.2,0,0.4,0,0.6c0,0.2-0.1,0.3,0.1,0.3s0.2,0,0.1-0.1c0-0.1,0-0.2-0.1-0.2c0-0.1,0-0.3,0-0.4C234.5,1.2,234.5,1.2,234.3,1.2
			 M235.2,1.2c0,0.2,0,0.4,0,0.6c0,0.2-0.1,0.3,0.1,0.3s0.2,0,0.1-0.1s-0.1-0.2-0.1-0.2c0-0.1,0-0.3,0-0.4
			C235.5,1.2,235.5,1.2,235.2,1.2 M236.2,1.2c0,0.2,0,0.4,0,0.6c0,0.2-0.1,0.3,0.1,0.3s0.2,0,0.1-0.1s-0.1-0.2-0.1-0.2
			c0-0.1,0-0.3,0-0.4C236.4,1.2,236.4,1.2,236.2,1.2 M237.1,1.2c0,0.2,0,0.4,0,0.6c0,0.2-0.1,0.3,0.1,0.3s0.2,0,0.1-0.1
			s-0.1-0.2-0.1-0.2c0-0.1,0-0.3,0-0.4C237.3,1.2,237.3,1.2,237.1,1.2 M238,1.2c0,0.2,0,0.4,0,0.6c0,0.2-0.1,0.3,0.1,0.3
			s0.2,0,0.1-0.1s0-0.2-0.1-0.2c0-0.1,0-0.3,0-0.4C238.2,1.2,238.2,1.2,238,1.2 M239,1.2c0,0.2,0,0.4,0,0.6c0,0.2-0.1,0.3,0.1,0.3
			s0.2,0,0.1-0.1s0-0.2-0.1-0.2s0-0.3,0-0.4S239.2,1.2,239,1.2 M239.9,1.2c0,0.2,0,0.4,0,0.6c0.1,0.2-0.1,0.3,0.1,0.3s0.2,0,0.1-0.1
			s-0.1-0.2-0.1-0.2s0-0.3,0-0.4S240.1,1.2,239.9,1.2 M240.8,1.2c0,0.2,0,0.4,0,0.6c0,0.2-0.1,0.3,0.1,0.3s0.2,0,0.1-0.1
			S241,1.8,241,1.8s0-0.3,0-0.4S241,1.2,240.8,1.2 M241.7,1.2c0,0.2,0,0.4,0,0.6c0,0.2-0.1,0.3,0.1,0.3s0.2,0,0.1-0.1
			S242,1.8,242,1.8s0-0.3,0-0.4S242,1.2,241.7,1.2 M242.7,1.2c0,0.2,0,0.4,0,0.6c0,0.2-0.1,0.3,0.1,0.3s0.2,0,0.1-0.1s0-0.2-0.1-0.2
			s0-0.3,0-0.4S242.9,1.2,242.7,1.2 M243.6,1.2c0,0.2,0,0.4,0,0.6c0,0.2-0.1,0.3,0.1,0.3s0.2,0,0.1-0.1s0-0.2,0-0.2
			c0-0.1,0-0.3,0-0.4C243.9,1.2,243.9,1.2,243.6,1.2 M244.6,1.2c0,0.2,0,0.4,0,0.6c0,0.2-0.1,0.3,0.1,0.3s0.2,0,0.1-0.1
			s0-0.2-0.1-0.2c0-0.1,0-0.3,0-0.4C244.8,1.2,244.8,1.2,244.6,1.2 M245.5,1.2c0,0.2,0,0.4,0,0.6c0,0.2-0.1,0.3,0.1,0.3
			s0.2,0,0.1-0.1s0-0.2-0.1-0.2c0-0.1,0-0.3,0-0.4C245.7,1.2,245.7,1.2,245.5,1.2 M246.5,1.2c0,0.2,0,0.4,0,0.6
			c0,0.2-0.1,0.3,0.1,0.3s0.2,0,0.1-0.1s-0.1-0.2-0.1-0.2c0-0.1,0-0.3,0-0.4C246.7,1.2,246.7,1.2,246.5,1.2 M247.4,1.2
			c0,0.2,0,0.4,0,0.6c0,0.2-0.1,0.3,0.1,0.3s0.2,0,0.1-0.1s-0.1-0.2-0.1-0.2c0-0.1,0-0.3,0-0.4C247.6,1.2,247.6,1.2,247.4,1.2
			 M248.3,1.2c0,0.2,0,0.4,0,0.6c0,0.2-0.1,0.3,0.1,0.3s0.2,0,0.1-0.1s-0.1-0.2-0.1-0.2s0-0.3,0-0.4S248.5,1.2,248.3,1.2 M249.2,1.2
			c0,0.2,0,0.4,0,0.6c0.1,0.2-0.1,0.3,0.1,0.3s0.2,0,0.1-0.1s0-0.2-0.1-0.2s0-0.3,0-0.4S249.5,1.2,249.2,1.2 M250.2,1.2
			c0,0.2,0,0.4,0,0.6c0.1,0.2-0.1,0.3,0.1,0.3s0.2,0,0.1-0.1s0-0.2-0.1-0.2s0-0.3,0-0.4S250.4,1.2,250.2,1.2 M251.1,1.2
			c0,0.2,0,0.4,0,0.6c0.1,0.2-0.1,0.3,0.1,0.3s0.2,0,0.1-0.1s-0.1-0.2-0.1-0.2s0-0.3,0-0.4S251.3,1.2,251.1,1.2 M252,1.2
			c0,0.2,0,0.4,0,0.6c0,0.2-0.1,0.3,0.1,0.3s0.2,0,0.1-0.1s-0.1-0.2-0.1-0.2s0-0.3,0-0.4S252.3,1.2,252,1.2 M253,1.2
			c0,0.2,0,0.4,0,0.6c0,0.2-0.1,0.3,0.1,0.3s0.2,0,0.1-0.1s-0.1-0.2-0.1-0.2s0-0.3,0-0.4S253.2,1.2,253,1.2 M253.9,1.2
			c0,0.2,0,0.4,0,0.6c0,0.2-0.1,0.3,0.1,0.3s0.2,0,0.1-0.1s0-0.2,0-0.2c0-0.1,0-0.3,0-0.4C254.2,1.2,254.2,1.2,253.9,1.2 M254.9,1.2
			c0,0.2,0,0.4,0,0.6c0,0.2-0.1,0.3,0.1,0.3s0.2,0,0.1-0.1c0-0.1,0-0.2-0.1-0.2c0-0.1,0-0.3,0-0.4C255.1,1.2,255.1,1.2,254.9,1.2
			 M255.8,1.2c0,0.2,0,0.4,0,0.6c0,0.2-0.1,0.3,0.1,0.3s0.2,0,0.1-0.1s0-0.2-0.1-0.2c0-0.1,0-0.3,0-0.4C256,1.2,256,1.2,255.8,1.2
			 M256.7,1.2c0,0.2,0,0.4,0,0.6c0,0.2-0.1,0.3,0.1,0.3s0.2,0,0.1-0.1s0-0.2-0.1-0.2c0-0.1,0-0.3,0-0.4C257,1.2,257,1.2,256.7,1.2
			 M257.7,1.2c0,0.2,0,0.4,0,0.6c0,0.2-0.1,0.3,0.1,0.3s0.2,0,0.1-0.1s0-0.2-0.1-0.2c0-0.1,0-0.3,0-0.4
			C257.9,1.2,257.9,1.2,257.7,1.2 M258.6,1.2c0,0.2,0,0.4,0,0.6c0,0.2-0.1,0.3,0.1,0.3s0.2,0,0.1-0.1s0-0.2-0.1-0.2s0-0.3,0-0.4
			S258.8,1.2,258.6,1.2 M259.5,1.2c0,0.2,0,0.4,0,0.6c0,0.2-0.1,0.3,0.1,0.3s0.2,0,0.1-0.1s0-0.2-0.1-0.2s0-0.3,0-0.4
			S259.8,1.2,259.5,1.2 M260.5,1.2c0,0.2,0,0.4,0,0.6c0,0.2-0.1,0.3,0.1,0.3s0.2,0,0.1-0.1s0-0.2-0.1-0.2s0-0.3,0-0.4
			S260.7,1.2,260.5,1.2 M261.4,1.2c0,0.2,0,0.4,0,0.6c0,0.2-0.1,0.3,0.1,0.3s0.2,0,0.1-0.1s0-0.2-0.1-0.2s0-0.3,0-0.4
			S261.6,1.2,261.4,1.2 M262.3,1.2c0,0.2,0,0.4,0,0.6c0,0.2-0.1,0.3,0.1,0.3s0.2,0,0.1-0.1s0-0.2-0.1-0.2s0-0.3,0-0.4
			S262.5,1.2,262.3,1.2 M263.3,1.2c0,0.2,0,0.4,0,0.6c0,0.2-0.1,0.3,0.1,0.3s0.2,0,0.1-0.1s0-0.2,0-0.2c0-0.1,0-0.3,0-0.4
			C263.5,1.2,263.5,1.2,263.3,1.2 M264.2,1.2c0,0.2,0,0.4,0,0.6c0,0.2-0.1,0.3,0.1,0.3s0.2,0,0.1-0.1c0-0.1,0-0.2-0.1-0.2
			c0-0.1,0-0.3,0-0.4C264.4,1.2,264.4,1.2,264.2,1.2 M265.1,1.2c0,0.2,0,0.4,0,0.6c0,0.2-0.1,0.3,0.1,0.3s0.2,0,0.1-0.1
			s0-0.2-0.1-0.2c0-0.1,0-0.3,0-0.4C265.4,1.2,265.4,1.2,265.1,1.2 M266.1,1.2c0,0.2,0,0.4,0,0.6c0,0.2-0.1,0.3,0.1,0.3
			s0.2,0,0.1-0.1s0-0.2-0.1-0.2c0-0.1,0-0.3,0-0.4C266.3,1.2,266.3,1.2,266.1,1.2 M267,1.2c0,0.2,0,0.4,0,0.6c0,0.2-0.1,0.3,0.1,0.3
			s0.2,0,0.1-0.1s0-0.2-0.1-0.2c0-0.1,0-0.3,0-0.4C267.2,1.2,267.2,1.2,267,1.2 M267.9,1.2c0,0.2,0,0.4,0,0.6c0,0.2-0.1,0.3,0.1,0.3
			s0.2,0,0.1-0.1s0-0.2-0.1-0.2s0-0.3,0-0.4S268.1,1.2,267.9,1.2 M268.9,1.2c0,0.2,0,0.4,0,0.6c0,0.2-0.1,0.3,0.1,0.3s0.2,0,0.1-0.1
			s0-0.2-0.1-0.2s0-0.3,0-0.4S269.1,1.2,268.9,1.2 M269.8,1.2c0,0.2,0,0.4,0,0.6c0,0.2-0.1,0.3,0.1,0.3s0.2,0,0.1-0.1s0-0.2-0.1-0.2
			s0-0.3,0-0.4S270,1.2,269.8,1.2 M270.7,1.2c0,0.2,0,0.4,0,0.6c0,0.2-0.1,0.3,0.1,0.3s0.2,0,0.1-0.1s0-0.2-0.1-0.2s0-0.3,0-0.4
			S270.9,1.2,270.7,1.2 M271.6,1.2c0,0.2,0,0.4,0,0.6c0,0.2-0.1,0.3,0.1,0.3s0.2,0,0.1-0.1s0-0.2-0.1-0.2s0-0.3,0-0.4
			S271.9,1.2,271.6,1.2 M272.6,1.2c0,0.2,0,0.4,0,0.6c0,0.2-0.1,0.3,0.1,0.3s0.2,0,0.1-0.1s0-0.2-0.1-0.2s0-0.3,0-0.4
			S272.8,1.2,272.6,1.2 M273.5,1.2c0,0.2,0,0.4,0,0.6c0,0.2-0.1,0.3,0.1,0.3s0.2,0,0.1-0.1s0-0.2,0-0.2c0-0.1,0-0.3,0-0.4
			C273.8,1.2,273.8,1.2,273.5,1.2 M274.5,1.2c0,0.2,0,0.4,0,0.6c0,0.2-0.1,0.3,0.1,0.3s0.2,0,0.1-0.1c0-0.1,0-0.2-0.1-0.2
			c0-0.1,0-0.3,0-0.4C274.7,1.2,274.7,1.2,274.5,1.2 M275.4,1.2c0,0.2,0,0.4,0,0.6c0,0.2-0.1,0.3,0.1,0.3s0.2,0,0.1-0.1
			s0-0.2-0.1-0.2c0-0.1,0-0.3,0-0.4C275.6,1.2,275.6,1.2,275.4,1.2 M276.4,1.2c0,0.2,0,0.4,0,0.6c0,0.2-0.1,0.3,0.1,0.3
			s0.2,0,0.1-0.1s0-0.2-0.1-0.2c0-0.1,0-0.3,0-0.4C276.6,1.2,276.6,1.2,276.4,1.2 M277.3,1.2c0,0.2,0,0.4,0,0.6
			c0,0.2-0.1,0.3,0.1,0.3s0.2,0,0.1-0.1s0-0.2-0.1-0.2c0-0.1,0-0.3,0-0.4C277.5,1.2,277.5,1.2,277.3,1.2 M278.2,1.2
			c0,0.2,0,0.4,0,0.6c0,0.2-0.1,0.3,0.1,0.3s0.2,0,0.1-0.1s0-0.2-0.1-0.2s0-0.3,0-0.4S278.4,1.2,278.2,1.2 M279.1,1.2
			c0,0.2,0,0.4,0,0.6c0,0.2-0.1,0.3,0.1,0.3s0.2,0,0.1-0.1s0-0.2-0.1-0.2s0-0.3,0-0.4S279.4,1.2,279.1,1.2 M280.1,1.2
			c0,0.2,0,0.4,0,0.6c0,0.2-0.1,0.3,0.1,0.3s0.2,0,0.1-0.1s0-0.2-0.1-0.2s0-0.3,0-0.4S280.3,1.2,280.1,1.2 M281,1.2
			c0,0.2,0,0.4,0,0.6c0,0.2-0.1,0.3,0.1,0.3s0.2,0,0.1-0.1s0-0.2-0.1-0.2s0-0.3,0-0.4S281.2,1.2,281,1.2 M281.9,1.2
			c0,0.2,0,0.4,0,0.6c0,0.2-0.1,0.3,0.1,0.3s0.2,0,0.1-0.1s0-0.2-0.1-0.2s0-0.3,0-0.4S282.2,1.2,281.9,1.2 M282.9,1.2
			c0,0.2,0,0.4,0,0.6c0,0.2-0.1,0.3,0.1,0.3s0.2,0,0.1-0.1s0-0.2,0-0.2c0-0.1,0-0.3,0-0.4C283.1,1.2,283.1,1.2,282.9,1.2 M283.8,1.2
			c0,0.2,0,0.4,0,0.6c0,0.2-0.1,0.3,0.1,0.3s0.2,0,0.1-0.1s0-0.2,0-0.2c0-0.1,0-0.3,0-0.4C284,1.2,284,1.2,283.8,1.2 M284.7,1.2
			c0,0.2,0,0.4,0,0.6c0,0.2-0.1,0.3,0.1,0.3s0.2,0,0.1-0.1c0-0.1,0-0.2-0.1-0.2c0-0.1,0-0.3,0-0.4C285,1.2,285,1.2,284.7,1.2
			 M285.7,1.2c0,0.2,0,0.4,0,0.6c0,0.2-0.1,0.3,0.1,0.3s0.2,0,0.1-0.1s0-0.2-0.1-0.2c0-0.1,0-0.3,0-0.4
			C285.9,1.2,285.9,1.2,285.7,1.2 M286.6,1.2c0,0.2,0,0.4,0,0.6c0,0.2-0.1,0.3,0.1,0.3s0.2,0,0.1-0.1s0-0.2-0.1-0.2
			c0-0.1,0-0.3,0-0.4C286.8,1.2,286.8,1.2,286.6,1.2 M287.5,1.2c0,0.2,0,0.4,0,0.6c0,0.2-0.1,0.3,0.1,0.3s0.2,0,0.1-0.1
			s0-0.2-0.1-0.2c0-0.1,0-0.3,0-0.4C287.8,1.2,287.8,1.2,287.5,1.2 M288.5,1.2c0,0.2,0,0.4,0,0.6c0,0.2-0.1,0.3,0.1,0.3
			s0.2,0,0.1-0.1s0-0.2-0.1-0.2s0-0.3,0-0.4S288.7,1.2,288.5,1.2 M289.4,1.2c0,0.2,0,0.4,0,0.6c0,0.2-0.1,0.3,0.1,0.3s0.2,0,0.1-0.1
			s0-0.2-0.1-0.2s0-0.3,0-0.4S289.6,1.2,289.4,1.2 M290.3,1.2c0,0.2,0,0.4,0,0.6c0,0.2-0.1,0.3,0.1,0.3s0.2,0,0.1-0.1s0-0.2-0.1-0.2
			s0-0.3,0-0.4S290.5,1.2,290.3,1.2 M291.3,1.2c0,0.2,0,0.4,0,0.6c0,0.2-0.1,0.3,0.1,0.3s0.2,0,0.1-0.1s0-0.2-0.1-0.2s0-0.3,0-0.4
			S291.5,1.2,291.3,1.2 M292.2,1.2c0,0.2,0,0.4,0,0.6c0,0.2-0.1,0.3,0.1,0.3s0.2,0,0.1-0.1s0-0.2-0.1-0.2s0-0.3,0-0.4
			S292.4,1.2,292.2,1.2 M293.1,1.2c0,0.2,0,0.4,0,0.6c0,0.2-0.1,0.3,0.1,0.3s0.2,0,0.1-0.1c0-0.1,0-0.2-0.1-0.2c0-0.1,0-0.3,0-0.4
			S293.3,1.2,293.1,1.2 M294,1.2c0,0.2,0,0.4,0,0.6c0,0.2-0.1,0.3,0.1,0.3s0.2,0,0.1-0.1s0-0.2-0.1-0.2c0-0.1,0-0.3,0-0.4
			C294.3,1.2,294.3,1.2,294,1.2 M295,1.2c0,0.2,0,0.4,0,0.6c0,0.2-0.1,0.3,0.1,0.3s0.2,0,0.1-0.1s0-0.2-0.1-0.2c0-0.1,0-0.3,0-0.4
			C295.2,1.2,295.2,1.2,295,1.2 M295.9,1.2c0,0.2,0,0.4,0,0.6c0,0.2-0.1,0.3,0.1,0.3s0.2,0,0.1-0.1s0-0.2-0.1-0.2c0-0.1,0-0.3,0-0.4
			C296.1,1.2,296.1,1.2,295.9,1.2 M296.8,1.2c0,0.2,0,0.4,0,0.6c0,0.2-0.1,0.3,0.1,0.3s0.2,0,0.1-0.1s0-0.2-0.1-0.2
			c0-0.1,0-0.3,0-0.4C297.1,1.2,297.1,1.2,296.8,1.2 M297.8,1.2c0,0.2,0,0.4,0,0.6c0,0.2-0.1,0.3,0.1,0.3s0.2,0,0.1-0.1
			s0-0.2-0.1-0.2s0-0.3,0-0.4S298,1.2,297.8,1.2 M298.7,1.2c0,0.2,0,0.4,0,0.6c0,0.2-0.1,0.3,0.1,0.3s0.2,0,0.1-0.1s0-0.2-0.1-0.2
			s0-0.3,0-0.4S298.9,1.2,298.7,1.2 M299.6,1.2c0,0.2,0,0.4,0,0.6c0,0.2-0.1,0.3,0.1,0.3s0.2,0,0.1-0.1s0-0.2-0.1-0.2s0-0.3,0-0.4
			S299.8,1.2,299.6,1.2 M300.6,1.2c0,0.2,0,0.4,0,0.6c0,0.2-0.1,0.3,0.1,0.3s0.2,0,0.1-0.1s0-0.2-0.1-0.2s0-0.3,0-0.4
			S300.8,1.2,300.6,1.2 M301.5,1.2c0,0.2,0,0.4,0,0.6c0,0.2-0.1,0.3,0.1,0.3s0.2,0,0.1-0.1s0-0.2-0.1-0.2s0-0.3,0-0.4
			S301.7,1.2,301.5,1.2 M302.4,1.2c0,0.2,0,0.4,0,0.6c0,0.2-0.1,0.3,0.1,0.3s0.2,0,0.1-0.1s0-0.2-0.1-0.2s0-0.3,0-0.4
			S302.6,1.2,302.4,1.2 M303.4,1.2c0,0.2,0,0.4,0,0.6c0,0.2-0.1,0.3,0.1,0.3s0.2,0,0.1-0.1c0-0.1,0-0.2-0.1-0.2c0-0.1,0-0.3,0-0.4
			S303.6,1.2,303.4,1.2 M304.3,1.2c0,0.2,0,0.4,0,0.6c0,0.2-0.1,0.3,0.1,0.3s0.2,0,0.1-0.1c0-0.1,0-0.2-0.1-0.2c0-0.1,0-0.3,0-0.4
			C304.5,1.2,304.5,1.2,304.3,1.2 M305.2,1.2c0,0.2,0,0.4,0,0.6c0,0.2-0.1,0.3,0.1,0.3s0.2,0,0.1-0.1s0-0.2-0.1-0.2
			c0-0.1,0-0.3,0-0.4C305.4,1.2,305.4,1.2,305.2,1.2 M306.1,1.2c0,0.2,0,0.4,0,0.6c0,0.2-0.1,0.3,0.1,0.3s0.2,0,0.1-0.1
			s0-0.2-0.1-0.2c0-0.1,0-0.3,0-0.4C306.4,1.2,306.4,1.2,306.1,1.2 M307.1,1.2c0,0.2,0,0.4,0,0.6c0,0.2-0.1,0.3,0.1,0.3
			s0.2,0,0.1-0.1s0-0.2-0.1-0.2c0-0.1,0-0.3,0-0.4C307.3,1.2,307.3,1.2,307.1,1.2 M308,1.2c0,0.2,0,0.4,0,0.6c0,0.2-0.1,0.3,0.1,0.3
			s0.2,0,0.1-0.1s0-0.2-0.1-0.2s0-0.3,0-0.4S308.2,1.2,308,1.2 M308.9,1.2c0,0.2,0,0.4,0,0.6c0,0.2-0.1,0.3,0.1,0.3s0.2,0,0.1-0.1
			s0-0.2-0.1-0.2s0-0.3,0-0.4S309.2,1.2,308.9,1.2 M309.9,1.2c0,0.2,0,0.4,0,0.6c0,0.2-0.1,0.3,0.1,0.3s0.2,0,0.1-0.1s0-0.2-0.1-0.2
			s0-0.3,0-0.4S310.1,1.2,309.9,1.2 M310.8,1.2c0,0.2,0,0.4,0,0.6c0,0.2-0.1,0.3,0.1,0.3s0.2,0,0.1-0.1s0-0.2-0.1-0.2s0-0.3,0-0.4
			S311,1.2,310.8,1.2 M311.7,1.2c0,0.2,0,0.4,0,0.6c0,0.2-0.1,0.3,0.1,0.3s0.2,0,0.1-0.1s0-0.2-0.1-0.2s0-0.3,0-0.4
			S311.9,1.2,311.7,1.2 M312.7,1.2c0,0.2,0,0.4,0,0.6c0,0.2-0.1,0.3,0.1,0.3s0.2,0,0.1-0.1s0-0.2-0.1-0.2s0-0.3,0-0.4
			S312.9,1.2,312.7,1.2 M313.6,1.2c0,0.2,0,0.4,0,0.6c0,0.2-0.1,0.3,0.1,0.3s0.2,0,0.1-0.1s0-0.2,0-0.2c0-0.1,0-0.3,0-0.4
			C313.8,1.2,313.8,1.2,313.6,1.2 M314.5,1.2c0,0.2,0,0.4,0,0.6c0,0.2-0.1,0.3,0.1,0.3s0.2,0,0.1-0.1c0-0.1,0-0.2-0.1-0.2
			c0-0.1,0-0.3,0-0.4C314.7,1.2,314.7,1.2,314.5,1.2 M315.5,1.2c0,0.2,0,0.4,0,0.6c0,0.2-0.1,0.3,0.1,0.3s0.2,0,0.1-0.1
			s0-0.2-0.1-0.2c0-0.1,0-0.3,0-0.4C315.7,1.2,315.7,1.2,315.5,1.2 M316.4,1.2c0,0.2,0,0.4,0,0.6c0,0.2-0.1,0.3,0.1,0.3
			s0.2,0,0.1-0.1s0-0.2-0.1-0.2c0-0.1,0-0.3,0-0.4C316.6,1.2,316.6,1.2,316.4,1.2 M317.3,1.2c0,0.2,0,0.4,0,0.6
			c0,0.2-0.1,0.3,0.1,0.3s0.2,0,0.1-0.1s0-0.2-0.1-0.2c0-0.1,0-0.3,0-0.4C317.5,1.2,317.5,1.2,317.3,1.2 M318.2,1.2
			c0,0.2,0,0.4,0,0.6c0,0.2-0.1,0.3,0.1,0.3s0.2,0,0.1-0.1s0-0.2-0.1-0.2s0-0.3,0-0.4S318.5,1.2,318.2,1.2 M319.2,1.2
			c0,0.2,0,0.4,0,0.6c0,0.2-0.1,0.3,0.1,0.3s0.2,0,0.1-0.1s0-0.2-0.1-0.2s0-0.3,0-0.4S319.4,1.2,319.2,1.2 M320.1,1.2
			c0,0.2,0,0.4,0,0.6c0,0.2-0.1,0.3,0.1,0.3s0.2,0,0.1-0.1s0-0.2-0.1-0.2s0-0.3,0-0.4S320.3,1.2,320.1,1.2 M321,1.2
			c0,0.2,0,0.4,0,0.6c0,0.2-0.1,0.3,0.1,0.3s0.2,0,0.1-0.1s0-0.2-0.1-0.2s0-0.3,0-0.4S321.3,1.2,321,1.2 M322,1.2c0,0.2,0,0.4,0,0.6
			c0,0.2-0.1,0.3,0.1,0.3s0.2,0,0.1-0.1s0-0.2-0.1-0.2s0-0.3,0-0.4S322.2,1.2,322,1.2 M322.9,1.2c0,0.2,0,0.4,0,0.6
			c0,0.2-0.1,0.3,0.1,0.3s0.2,0,0.1-0.1s0-0.2,0-0.2c0-0.1,0-0.3,0-0.4C323.2,1.2,323.2,1.2,322.9,1.2 M323.9,1.2c0,0.2,0,0.4,0,0.6
			c0,0.2-0.1,0.3,0.1,0.3s0.2,0,0.1-0.1s0-0.2-0.1-0.2c0-0.1,0-0.3,0-0.4C324.1,1.2,324.1,1.2,323.9,1.2 M324.8,1.2
			c0,0.2,0,0.4,0,0.6c0,0.2-0.1,0.3,0.1,0.3s0.2,0,0.1-0.1s0-0.2-0.1-0.2c0-0.1,0-0.3,0-0.4C325,1.2,325,1.2,324.8,1.2 M325.7,1.2
			c0,0.2,0,0.4,0,0.6c0,0.2-0.1,0.3,0.1,0.3s0.2,0,0.1-0.1s0-0.2-0.1-0.2c0-0.1,0-0.3,0-0.4C326,1.2,326,1.2,325.7,1.2 M326.7,1.2
			c0,0.2,0,0.4,0,0.6c0,0.2-0.1,0.3,0.1,0.3s0.2,0,0.1-0.1s0-0.2-0.1-0.2c0-0.1,0-0.3,0-0.4C326.9,1.2,326.9,1.2,326.7,1.2
			 M327.6,1.2c0,0.2,0,0.4,0,0.6c0,0.2-0.1,0.3,0.1,0.3s0.2,0,0.1-0.1s0-0.2-0.1-0.2c0-0.1,0-0.3,0-0.4
			C327.8,1.2,327.8,1.2,327.6,1.2 M328.5,1.2c0,0.2,0,0.4,0,0.6c0,0.2-0.1,0.3,0.1,0.3s0.2,0,0.1-0.1s0-0.2-0.1-0.2s0-0.3,0-0.4
			S328.8,1.2,328.5,1.2 M329.5,1.2c0,0.2,0,0.4,0,0.6c0,0.2-0.1,0.3,0.1,0.3s0.2,0,0.1-0.1s0-0.2-0.1-0.2s0-0.3,0-0.4
			S329.7,1.2,329.5,1.2 M330.4,1.2c0,0.2,0,0.4,0,0.6c0,0.2-0.1,0.3,0.1,0.3s0.2,0,0.1-0.1s0-0.2-0.1-0.2s0-0.3,0-0.4
			S330.6,1.2,330.4,1.2 M331.3,1.2c0,0.2,0,0.4,0,0.6c0,0.2-0.1,0.3,0.1,0.3s0.2,0,0.1-0.1s0-0.2-0.1-0.2s0-0.3,0-0.4
			S331.5,1.2,331.3,1.2 M332.3,1.2c0,0.2,0,0.4,0,0.6c0,0.2-0.1,0.3,0.1,0.3s0.2,0,0.1-0.1s0-0.2-0.1-0.2s0-0.3,0-0.4
			S332.5,1.2,332.3,1.2 M333.2,1.2c0,0.2,0,0.4,0,0.6c0,0.2-0.1,0.3,0.1,0.3s0.2,0,0.1-0.1s0-0.2,0-0.2c0-0.1,0-0.3,0-0.4
			C333.4,1.2,333.4,1.2,333.2,1.2 M334.1,1.2c0,0.2,0,0.4,0,0.6c0,0.2-0.1,0.3,0.1,0.3s0.2,0,0.1-0.1c0-0.1,0-0.2-0.1-0.2
			c0-0.1,0-0.3,0-0.4C334.3,1.2,334.3,1.2,334.1,1.2 M335.1,1.2c0,0.2,0,0.4,0,0.6c0,0.2-0.1,0.3,0.1,0.3s0.2,0,0.1-0.1
			s0-0.2-0.1-0.2c0-0.1,0-0.3,0-0.4C335.3,1.2,335.3,1.2,335.1,1.2 M336,1.2c0,0.2,0,0.4,0,0.6c0,0.2-0.1,0.3,0.1,0.3s0.2,0,0.1-0.1
			s0-0.2-0.1-0.2c0-0.1,0-0.3,0-0.4C336.2,1.2,336.2,1.2,336,1.2 M336.9,1.2c0,0.2,0,0.4,0,0.6c0,0.2-0.1,0.3,0.1,0.3s0.2,0,0.1-0.1
			s0-0.2-0.1-0.2c0-0.1,0-0.3,0-0.4C337.1,1.2,337.1,1.2,336.9,1.2 M337.8,1.2c0,0.2,0,0.4,0,0.6c0,0.2-0.1,0.3,0.1,0.3
			s0.2,0,0.1-0.1s0-0.2-0.1-0.2s0-0.3,0-0.4S338.1,1.2,337.8,1.2 M338.8,1.2c0,0.2,0,0.4,0,0.6c0,0.2-0.1,0.3,0.1,0.3s0.2,0,0.1-0.1
			s0-0.2-0.1-0.2s0-0.3,0-0.4S339,1.2,338.8,1.2 M339.7,1.2c0,0.2,0,0.4,0,0.6c0,0.2-0.1,0.3,0.1,0.3s0.2,0,0.1-0.1s0-0.2-0.1-0.2
			s0-0.3,0-0.4S339.9,1.2,339.7,1.2 M340.6,1.2c0,0.2,0,0.4,0,0.6c0,0.2-0.1,0.3,0.1,0.3s0.2,0,0.1-0.1s0-0.2-0.1-0.2s0-0.3,0-0.4
			S340.9,1.2,340.6,1.2 M341.6,1.2c0,0.2,0,0.4,0,0.6c0,0.2-0.1,0.3,0.1,0.3s0.2,0,0.1-0.1s0-0.2-0.1-0.2s0-0.3,0-0.4
			S341.8,1.2,341.6,1.2 M342.5,1.2c0,0.2,0,0.4,0,0.6c0,0.2-0.1,0.3,0.1,0.3s0.2,0,0.1-0.1s0-0.2-0.1-0.2s0-0.3,0-0.4
			S342.7,1.2,342.5,1.2 M343.4,1.2c0,0.2,0,0.4,0,0.6c0,0.2-0.1,0.3,0.1,0.3s0.2,0,0.1-0.1s0-0.2,0-0.2c0-0.1,0-0.3,0-0.4
			C343.7,1.2,343.7,1.2,343.4,1.2 M344.4,1.2c0,0.2,0,0.4,0,0.6c0,0.2-0.1,0.3,0.1,0.3s0.2,0,0.1-0.1c0-0.1,0-0.2-0.1-0.2
			c0-0.1,0-0.3,0-0.4C344.6,1.2,344.6,1.2,344.4,1.2 M345.3,1.2c0,0.2,0,0.4,0,0.6c0,0.2-0.1,0.3,0.1,0.3s0.2,0,0.1-0.1
			s0-0.2-0.1-0.2c0-0.1,0-0.3,0-0.4C345.5,1.2,345.5,1.2,345.3,1.2 M346.2,1.2c0,0.2,0,0.4,0,0.6c0,0.2-0.1,0.3,0.1,0.3
			s0.2,0,0.1-0.1s0-0.2-0.1-0.2c0-0.1,0-0.3,0-0.4C346.5,1.2,346.5,1.2,346.2,1.2 M347.2,1.2c0,0.2,0,0.4,0,0.6
			c0,0.2-0.1,0.3,0.1,0.3s0.2,0,0.1-0.1s0-0.2-0.1-0.2c0-0.1,0-0.3,0-0.4C347.4,1.2,347.4,1.2,347.2,1.2 M348.1,1.2
			c0,0.2,0,0.4,0,0.6c0,0.2-0.1,0.3,0.1,0.3s0.2,0,0.1-0.1s0-0.2-0.1-0.2s0-0.3,0-0.4S348.3,1.2,348.1,1.2 M349,1.2
			c0,0.2,0,0.4,0,0.6c0,0.2-0.1,0.3,0.1,0.3s0.2,0,0.1-0.1s0-0.2-0.1-0.2s0-0.3,0-0.4S349.2,1.2,349,1.2 M350,1.2c0,0.2,0,0.4,0,0.6
			c0,0.2-0.1,0.3,0.1,0.3s0.2,0,0.1-0.1s0-0.2-0.1-0.2s0-0.3,0-0.4S350.2,1.2,350,1.2 M350.9,1.2c0,0.2,0,0.4,0,0.6
			c0,0.2-0.1,0.3,0.1,0.3s0.2,0,0.1-0.1s0-0.2-0.1-0.2s0-0.3,0-0.4S351.1,1.2,350.9,1.2 M351.8,1.2c0,0.2,0,0.4,0,0.6
			c0,0.2-0.1,0.3,0.1,0.3s0.2,0,0.1-0.1s0-0.2-0.1-0.2s0-0.3,0-0.4S352,1.2,351.8,1.2 M352.8,1.2c0,0.2,0,0.4,0,0.6
			c0,0.2-0.1,0.3,0.1,0.3s0.2,0,0.1-0.1s0-0.2,0-0.2c0-0.1,0-0.3,0-0.4C353,1.2,353,1.2,352.8,1.2 M353.7,1.2c0,0.2,0,0.4,0,0.6
			c0,0.2-0.1,0.3,0.1,0.3s0.2,0,0.1-0.1s0-0.2-0.1-0.2c0-0.1,0-0.3,0-0.4C353.9,1.2,353.9,1.2,353.7,1.2 M354.6,1.2
			c0,0.2,0,0.4,0,0.6c0,0.2-0.1,0.3,0.1,0.3s0.2,0,0.1-0.1c0-0.1,0-0.2-0.1-0.2c0-0.1,0-0.3,0-0.4C354.8,1.2,354.8,1.2,354.6,1.2
			 M355.5,1.2c0,0.2,0,0.4,0,0.6c0,0.2-0.1,0.3,0.1,0.3s0.2,0,0.1-0.1s0-0.2-0.1-0.2c0-0.1,0-0.3,0-0.4
			C355.8,1.2,355.8,1.2,355.5,1.2 M356.5,1.2c0,0.2,0,0.4,0,0.6c0,0.2-0.1,0.3,0.1,0.3s0.2,0,0.1-0.1s0-0.2-0.1-0.2
			c0-0.1,0-0.3,0-0.4C356.7,1.2,356.7,1.2,356.5,1.2 M357.4,1.2c0,0.2,0,0.4,0,0.6c0,0.2-0.1,0.3,0.1,0.3s0.2,0,0.1-0.1
			s0-0.2-0.1-0.2c0-0.1,0-0.3,0-0.4C357.6,1.2,357.6,1.2,357.4,1.2 M358.3,1.2c0,0.2,0,0.4,0,0.6c0,0.2-0.1,0.3,0.1,0.3
			s0.2,0,0.1-0.1s0-0.2-0.1-0.2s0-0.3,0-0.4S358.6,1.2,358.3,1.2 M359.3,1.2c0,0.2,0,0.4,0,0.6c0,0.2-0.1,0.3,0.1,0.3s0.2,0,0.1-0.1
			s0-0.2-0.1-0.2s0-0.3,0-0.4S359.5,1.2,359.3,1.2 M360.2,1.2c0,0.2,0,0.4,0,0.6c0,0.2-0.1,0.3,0.1,0.3s0.2,0,0.1-0.1s0-0.2-0.1-0.2
			s0-0.3,0-0.4S360.4,1.2,360.2,1.2 M361.1,1.2c0,0.2,0,0.4,0,0.6c0,0.2-0.1,0.3,0.1,0.3s0.2,0,0.1-0.1s0-0.2-0.1-0.2s0-0.3,0-0.4
			S361.3,1.2,361.1,1.2 M362.1,1.2c0,0.2,0,0.4,0,0.6c0,0.2-0.1,0.3,0.1,0.3s0.2,0,0.1-0.1s0-0.2-0.1-0.2s0-0.3,0-0.4
			S362.3,1.2,362.1,1.2 M363,1.2c0,0.2,0,0.4,0,0.6c0,0.2-0.1,0.3,0.1,0.3s0.2,0,0.1-0.1s0-0.2,0-0.2c0-0.1,0-0.3,0-0.4
			C363.2,1.2,363.2,1.2,363,1.2 M363.9,1.2c0,0.2,0,0.4,0,0.6c0,0.2-0.1,0.3,0.1,0.3s0.2,0,0.1-0.1s0-0.2-0.1-0.2c0-0.1,0-0.3,0-0.4
			C364.2,1.2,364.2,1.2,363.9,1.2 M364.9,1.2c0,0.2,0,0.4,0,0.6c0,0.2-0.1,0.3,0.1,0.3s0.2,0,0.1-0.1s0-0.2-0.1-0.2
			c0-0.1,0-0.3,0-0.4C365.1,1.2,365.1,1.2,364.9,1.2 M365.8,1.2c0,0.2,0,0.4,0,0.6c0,0.2-0.1,0.3,0.1,0.3s0.2,0,0.1-0.1
			s0-0.2-0.1-0.2c0-0.1,0-0.3,0-0.4C366,1.2,366,1.2,365.8,1.2 M366.7,1.2c0,0.2,0,0.4,0,0.6c0,0.2-0.1,0.3,0.1,0.3s0.2,0,0.1-0.1
			s0-0.2-0.1-0.2c0-0.1,0-0.3,0-0.4C366.9,1.2,366.9,1.2,366.7,1.2 M367.7,1.2c0,0.2,0,0.4,0,0.6c0,0.2-0.1,0.3,0.1,0.3
			s0.2,0,0.1-0.1s0-0.2-0.1-0.2s0-0.3,0-0.4S367.9,1.2,367.7,1.2 M368.6,1.2c0,0.2,0,0.4,0,0.6c0,0.2-0.1,0.3,0.1,0.3s0.2,0,0.1-0.1
			s0-0.2-0.1-0.2s0-0.3,0-0.4S368.8,1.2,368.6,1.2 M369.5,1.2c0,0.2,0,0.4,0,0.6c0,0.2-0.1,0.3,0.1,0.3s0.2,0,0.1-0.1s0-0.2-0.1-0.2
			s0-0.3,0-0.4S369.7,1.2,369.5,1.2 M370.4,1.2c0,0.2,0,0.4,0,0.6c0,0.2-0.1,0.3,0.1,0.3s0.2,0,0.1-0.1s0-0.2-0.1-0.2s0-0.3,0-0.4
			S370.7,1.2,370.4,1.2 M371.4,1.2c0,0.2,0,0.4,0,0.6c0,0.2-0.1,0.3,0.1,0.3s0.2,0,0.1-0.1s0-0.2-0.1-0.2s0-0.3,0-0.4
			S371.6,1.2,371.4,1.2 M372.3,1.2c0,0.2,0,0.4,0,0.6c0,0.2-0.1,0.3,0.1,0.3s0.2,0,0.1-0.1s0-0.2-0.1-0.2s0-0.3,0-0.4
			S372.5,1.2,372.3,1.2 M373.2,1.2c0,0.2,0,0.4,0,0.6c0,0.2-0.1,0.3,0.1,0.3s0.2,0,0.1-0.1s0-0.2,0-0.2c0-0.1,0-0.3,0-0.4
			C373.5,1.2,373.5,1.2,373.2,1.2 M374.2,1.2c0,0.2,0,0.4,0,0.6c0,0.2-0.1,0.3,0.1,0.3s0.2,0,0.1-0.1c0-0.1,0-0.2-0.1-0.2
			c0-0.1,0-0.3,0-0.4C374.4,1.2,374.4,1.2,374.2,1.2 M375.1,1.2c0,0.2,0,0.4,0,0.6c0,0.2-0.1,0.3,0.1,0.3s0.2,0,0.1-0.1
			s0-0.2-0.1-0.2c0-0.1,0-0.3,0-0.4C375.3,1.2,375.3,1.2,375.1,1.2 M376,1.2c0,0.2,0,0.4,0,0.6c0,0.2-0.1,0.3,0.1,0.3s0.2,0,0.1-0.1
			s0-0.2-0.1-0.2c0-0.1,0-0.3,0-0.4C376.3,1.2,376.3,1.2,376,1.2 M377,1.2c0,0.2,0,0.4,0,0.6c0,0.2-0.1,0.3,0.1,0.3s0.2,0,0.1-0.1
			s0-0.2-0.1-0.2c0-0.1,0-0.3,0-0.4C377.2,1.2,377.2,1.2,377,1.2 M377.9,1.2c0,0.2,0,0.4,0,0.6c0,0.2-0.1,0.3,0.1,0.3s0.2,0,0.1-0.1
			s0-0.2-0.1-0.2s0-0.3,0-0.4S378.1,1.2,377.9,1.2 M378.8,1.2c0,0.2,0,0.4,0,0.6c0,0.2-0.1,0.3,0.1,0.3s0.2,0,0.1-0.1s0-0.2-0.1-0.2
			s0-0.3,0-0.4S379,1.2,378.8,1.2 M379.8,1.2c0,0.2,0,0.4,0,0.6c0,0.2-0.1,0.3,0.1,0.3s0.2,0,0.1-0.1s0-0.2-0.1-0.2s0-0.3,0-0.4
			S380,1.2,379.8,1.2 M380.7,1.2c0,0.2,0,0.4,0,0.6c0,0.2-0.1,0.3,0.1,0.3s0.2,0,0.1-0.1s0-0.2-0.1-0.2s0-0.3,0-0.4
			S380.9,1.2,380.7,1.2 M381.6,1.2c0,0.2,0,0.4,0,0.6c0,0.2-0.1,0.3,0.1,0.3s0.2,0,0.1-0.1s0-0.2-0.1-0.2s0-0.3,0-0.4
			S381.8,1.2,381.6,1.2 M382.6,1.2c0,0.2,0,0.4,0,0.6c0,0.2-0.1,0.3,0.1,0.3s0.2,0,0.1-0.1s0-0.2,0-0.2c0-0.1,0-0.3,0-0.4
			C382.8,1.2,382.8,1.2,382.6,1.2 M383.5,1.2c0,0.2,0,0.4,0,0.6c0,0.2-0.1,0.3,0.1,0.3s0.2,0,0.1-0.1s0-0.2,0-0.2c0-0.1,0-0.3,0-0.4
			C383.8,1.2,383.8,1.2,383.5,1.2 M384.5,1.2c0,0.2,0,0.4,0,0.6c0,0.2-0.1,0.3,0.1,0.3s0.2,0,0.1-0.1s0-0.2-0.1-0.2
			c0-0.1,0-0.3,0-0.4C384.7,1.2,384.7,1.2,384.5,1.2 M385.4,1.2c0,0.2,0,0.4,0,0.6c0,0.2-0.1,0.3,0.1,0.3s0.2,0,0.1-0.1
			s0-0.2-0.1-0.2c0-0.1,0-0.3,0-0.4C385.6,1.2,385.6,1.2,385.4,1.2 M386.3,1.2c0,0.2,0,0.4,0,0.6c0,0.2-0.1,0.3,0.1,0.3
			s0.2,0,0.1-0.1s0-0.2-0.1-0.2c0-0.1,0-0.3,0-0.4C386.5,1.2,386.5,1.2,386.3,1.2 M387.3,1.2c0,0.2,0,0.4,0,0.6
			c0,0.2-0.1,0.3,0.1,0.3s0.2,0,0.1-0.1s0-0.2-0.1-0.2c0-0.1,0-0.3,0-0.4C387.5,1.2,387.5,1.2,387.3,1.2 M388.2,1.2
			c0,0.2,0,0.4,0,0.6c0,0.2-0.1,0.3,0.1,0.3s0.2,0,0.1-0.1s0-0.2-0.1-0.2s0-0.3,0-0.4S388.4,1.2,388.2,1.2 M389.1,1.2
			c0,0.2,0,0.4,0,0.6c0,0.2-0.1,0.3,0.1,0.3s0.2,0,0.1-0.1s0-0.2-0.1-0.2s0-0.3,0-0.4S389.3,1.2,389.1,1.2 M390,1.2
			c0,0.2,0,0.4,0,0.6c0,0.2-0.1,0.3,0.1,0.3s0.2,0,0.1-0.1s0-0.2-0.1-0.2s0-0.3,0-0.4S390.3,1.2,390,1.2 M391,1.2c0,0.2,0,0.4,0,0.6
			c0,0.2-0.1,0.3,0.1,0.3s0.2,0,0.1-0.1s0-0.2-0.1-0.2s0-0.3,0-0.4S391.2,1.2,391,1.2 M391.9,1.2c0,0.2,0,0.4,0,0.6
			c0,0.2-0.1,0.3,0.1,0.3s0.2,0,0.1-0.1s0-0.2-0.1-0.2s0-0.3,0-0.4S392.1,1.2,391.9,1.2 M392.8,1.2c0,0.2,0,0.4,0,0.6
			c0,0.2-0.1,0.3,0.1,0.3s0.2,0,0.1-0.1s0-0.2,0-0.2c0-0.1,0-0.3,0-0.4C393.1,1.2,393.1,1.2,392.8,1.2 M393.8,1.2c0,0.2,0,0.4,0,0.6
			c0,0.2-0.1,0.3,0.1,0.3s0.2,0,0.1-0.1s0-0.2-0.1-0.2c0-0.1,0-0.3,0-0.4C394,1.2,394,1.2,393.8,1.2 M394.7,1.2c0,0.2,0,0.4,0,0.6
			c0,0.2-0.1,0.3,0.1,0.3s0.2,0,0.1-0.1s0-0.2-0.1-0.2c0-0.1,0-0.3,0-0.4C394.9,1.2,394.9,1.2,394.7,1.2 M395.6,1.2
			c0,0.2,0,0.4,0,0.6c0,0.2-0.1,0.3,0.1,0.3s0.2,0,0.1-0.1s0-0.2-0.1-0.2c0-0.1,0-0.3,0-0.4C395.9,1.2,395.9,1.2,395.6,1.2
			 M396.6,1.2c0,0.2,0,0.4,0,0.6c0,0.2-0.1,0.3,0.1,0.3s0.2,0,0.1-0.1s0-0.2-0.1-0.2c0-0.1,0-0.3,0-0.4
			C396.8,1.2,396.8,1.2,396.6,1.2 M397.5,1.2c0,0.2,0,0.4,0,0.6c0,0.2-0.1,0.3,0.1,0.3s0.2,0,0.1-0.1s0-0.2-0.1-0.2s0-0.3,0-0.4
			S397.7,1.2,397.5,1.2 M398.4,1.2c0,0.2,0,0.4,0,0.6c0,0.2-0.1,0.3,0.1,0.3s0.2,0,0.1-0.1s0-0.2-0.1-0.2s0-0.3,0-0.4
			S398.6,1.2,398.4,1.2 M399.4,1.2c0,0.2,0,0.4,0,0.6c0,0.2-0.1,0.3,0.1,0.3s0.2,0,0.1-0.1s0-0.2-0.1-0.2s0-0.3,0-0.4
			S399.6,1.2,399.4,1.2 M400.3,1.2c0,0.2,0,0.4,0,0.6c0,0.2-0.1,0.3,0.1,0.3s0.2,0,0.1-0.1s0-0.2-0.1-0.2s0-0.3,0-0.4
			S400.5,1.2,400.3,1.2 M401.2,1.2c0,0.2,0,0.4,0,0.6c0,0.2-0.1,0.3,0.1,0.3s0.2,0,0.1-0.1s0-0.2-0.1-0.2s0-0.3,0-0.4
			S401.4,1.2,401.2,1.2 M402.2,1.2c0,0.2,0,0.4,0,0.6c0,0.2-0.1,0.3,0.1,0.3s0.2,0,0.1-0.1s0-0.2-0.1-0.2s0-0.3,0-0.4
			S402.4,1.2,402.2,1.2 M403.1,1.2c0,0.2,0,0.4,0,0.6c0,0.2-0.1,0.3,0.1,0.3s0.2,0,0.1-0.1s0-0.2,0-0.2c0-0.1,0-0.3,0-0.4
			C403.3,1.2,403.3,1.2,403.1,1.2 M404,1.2c0,0.2,0,0.4,0,0.6c0,0.2-0.1,0.3,0.1,0.3s0.2,0,0.1-0.1s0-0.2-0.1-0.2c0-0.1,0-0.3,0-0.4
			C404.2,1.2,404.2,1.2,404,1.2 M404.9,1.2c0,0.2,0,0.4,0,0.6c0,0.2-0.1,0.3,0.1,0.3s0.2,0,0.1-0.1s0-0.2-0.1-0.2c0-0.1,0-0.3,0-0.4
			C405.2,1.2,405.2,1.2,404.9,1.2 M405.9,1.2c0,0.2,0,0.4,0,0.6c0,0.2-0.1,0.3,0.1,0.3s0.2,0,0.1-0.1s0-0.2-0.1-0.2
			c0-0.1,0-0.3,0-0.4C406.1,1.2,406.1,1.2,405.9,1.2 M406.8,1.2c0,0.2,0,0.4,0,0.6c0,0.2-0.1,0.3,0.1,0.3s0.2,0,0.1-0.1
			s0-0.2-0.1-0.2c0-0.1,0-0.3,0-0.4C407,1.2,407,1.2,406.8,1.2 M407.7,1.2c0,0.2,0,0.4,0,0.6c0,0.2-0.1,0.3,0.1,0.3s0.2,0,0.1-0.1
			s0-0.2-0.1-0.2s0-0.3,0-0.4S408,1.2,407.7,1.2 M408.7,1.2c0,0.2,0,0.4,0,0.6c0,0.2-0.1,0.3,0.1,0.3s0.2,0,0.1-0.1s0-0.2-0.1-0.2
			s0-0.3,0-0.4S408.9,1.2,408.7,1.2 M409.6,1.2c0,0.2,0,0.4,0,0.6c0,0.2-0.1,0.3,0.1,0.3s0.2,0,0.1-0.1s0-0.2-0.1-0.2s0-0.3,0-0.4
			S409.8,1.2,409.6,1.2 M410.5,1.2c0,0.2,0,0.4,0,0.6c0,0.2-0.1,0.3,0.1,0.3s0.2,0,0.1-0.1s0-0.2-0.1-0.2s0-0.3,0-0.4
			S410.7,1.2,410.5,1.2 M411.5,1.2c0,0.2,0,0.4,0,0.6c0,0.2-0.1,0.3,0.1,0.3s0.2,0,0.1-0.1s0-0.2-0.1-0.2s0-0.3,0-0.4
			S411.7,1.2,411.5,1.2 M412.4,1.2c0,0.2,0,0.4,0,0.6c0,0.2-0.1,0.3,0.1,0.3s0.2,0,0.1-0.1s0-0.2-0.1-0.2s0-0.3,0-0.4
			S412.6,1.2,412.4,1.2 M413.3,1.2c0,0.2,0,0.4,0,0.6c0,0.2-0.1,0.3,0.1,0.3s0.2,0,0.1-0.1c0-0.1,0-0.2-0.1-0.2c0-0.1,0-0.3,0-0.4
			C413.5,1.2,413.5,1.2,413.3,1.2 M414.3,1.2c0,0.2,0,0.4,0,0.6c0,0.2-0.1,0.3,0.1,0.3s0.2,0,0.1-0.1c0-0.1,0-0.2-0.1-0.2
			c0-0.1,0-0.3,0-0.4C414.5,1.2,414.5,1.2,414.3,1.2 M415.2,1.2c0,0.2,0,0.4,0,0.6c0,0.2-0.1,0.3,0.1,0.3s0.2,0,0.1-0.1
			s0-0.2-0.1-0.2c0-0.1,0-0.3,0-0.4C415.4,1.2,415.4,1.2,415.2,1.2 M416.1,1.2c0,0.2,0,0.4,0,0.6c0,0.2-0.1,0.3,0.1,0.3
			s0.2,0,0.1-0.1s0-0.2-0.1-0.2c0-0.1,0-0.3,0-0.4C416.3,1.2,416.3,1.2,416.1,1.2 M417,1.2c0,0.2,0,0.4,0,0.6c0,0.2-0.1,0.3,0.1,0.3
			s0.2,0,0.1-0.1s0-0.2-0.1-0.2c0-0.1,0-0.3,0-0.4C417.3,1.2,417.3,1.2,417,1.2 M0.5,2.1L0.5,2.1c0.2,0,0.2,0,0.2-0.1
			c0-0.1,0-0.1-0.1-0.2C0.6,1.9,0.5,2,0.5,2.1 M406.8,1.2c0,0.2,0,0.4,0,0.6c0,0.2-0.1,0.3,0.1,0.3s0.2,0,0.1-0.1s0-0.2-0.1-0.2
			c0-0.1,0-0.2,0-0.3c0-0.1,0-0.2,0-0.3L406.8,1.2"/>
	</g>
</g>
</svg>
